%TF.GenerationSoftware,KiCad,Pcbnew,7.0.9*%
%TF.CreationDate,2024-01-28T09:25:04+00:00*%
%TF.ProjectId,main_PCB_v1,6d61696e-5f50-4434-925f-76312e6b6963,rev?*%
%TF.SameCoordinates,Original*%
%TF.FileFunction,Drillmap*%
%TF.FilePolarity,Positive*%
%FSLAX45Y45*%
G04 Gerber Fmt 4.5, Leading zero omitted, Abs format (unit mm)*
G04 Created by KiCad (PCBNEW 7.0.9) date 2024-01-28 09:25:04*
%MOMM*%
%LPD*%
G01*
G04 APERTURE LIST*
%ADD10C,0.200000*%
%ADD11C,0.320000*%
G04 APERTURE END LIST*
D10*
D11*
X11764965Y-12402955D02*
X12084965Y-12722955D01*
X12084965Y-12402955D02*
X11764965Y-12722955D01*
X11774665Y-5575755D02*
X12094665Y-5895755D01*
X12094665Y-5575755D02*
X11774665Y-5895755D01*
X12554065Y-6025755D02*
X12874065Y-6345755D01*
X12874065Y-6025755D02*
X12554065Y-6345755D01*
X19939165Y-11162055D02*
X20259165Y-11482055D01*
X20259165Y-11162055D02*
X19939165Y-11482055D01*
X19939165Y-12962055D02*
X20259165Y-13282055D01*
X20259165Y-12962055D02*
X19939165Y-13282055D01*
D10*
X9792409Y-15105566D02*
X9792409Y-14905566D01*
X9792409Y-14905566D02*
X9840028Y-14905566D01*
X9840028Y-14905566D02*
X9868599Y-14915090D01*
X9868599Y-14915090D02*
X9887647Y-14934138D01*
X9887647Y-14934138D02*
X9897171Y-14953185D01*
X9897171Y-14953185D02*
X9906694Y-14991281D01*
X9906694Y-14991281D02*
X9906694Y-15019852D01*
X9906694Y-15019852D02*
X9897171Y-15057947D01*
X9897171Y-15057947D02*
X9887647Y-15076995D01*
X9887647Y-15076995D02*
X9868599Y-15096043D01*
X9868599Y-15096043D02*
X9840028Y-15105566D01*
X9840028Y-15105566D02*
X9792409Y-15105566D01*
X9992409Y-15105566D02*
X9992409Y-14972233D01*
X9992409Y-15010328D02*
X10001933Y-14991281D01*
X10001933Y-14991281D02*
X10011456Y-14981757D01*
X10011456Y-14981757D02*
X10030504Y-14972233D01*
X10030504Y-14972233D02*
X10049552Y-14972233D01*
X10116218Y-15105566D02*
X10116218Y-14972233D01*
X10116218Y-14905566D02*
X10106694Y-14915090D01*
X10106694Y-14915090D02*
X10116218Y-14924614D01*
X10116218Y-14924614D02*
X10125742Y-14915090D01*
X10125742Y-14915090D02*
X10116218Y-14905566D01*
X10116218Y-14905566D02*
X10116218Y-14924614D01*
X10240028Y-15105566D02*
X10220980Y-15096043D01*
X10220980Y-15096043D02*
X10211456Y-15076995D01*
X10211456Y-15076995D02*
X10211456Y-14905566D01*
X10344790Y-15105566D02*
X10325742Y-15096043D01*
X10325742Y-15096043D02*
X10316218Y-15076995D01*
X10316218Y-15076995D02*
X10316218Y-14905566D01*
X10573361Y-15105566D02*
X10573361Y-14905566D01*
X10573361Y-14905566D02*
X10640028Y-15048423D01*
X10640028Y-15048423D02*
X10706694Y-14905566D01*
X10706694Y-14905566D02*
X10706694Y-15105566D01*
X10887647Y-15105566D02*
X10887647Y-15000804D01*
X10887647Y-15000804D02*
X10878123Y-14981757D01*
X10878123Y-14981757D02*
X10859075Y-14972233D01*
X10859075Y-14972233D02*
X10820980Y-14972233D01*
X10820980Y-14972233D02*
X10801933Y-14981757D01*
X10887647Y-15096043D02*
X10868599Y-15105566D01*
X10868599Y-15105566D02*
X10820980Y-15105566D01*
X10820980Y-15105566D02*
X10801933Y-15096043D01*
X10801933Y-15096043D02*
X10792409Y-15076995D01*
X10792409Y-15076995D02*
X10792409Y-15057947D01*
X10792409Y-15057947D02*
X10801933Y-15038900D01*
X10801933Y-15038900D02*
X10820980Y-15029376D01*
X10820980Y-15029376D02*
X10868599Y-15029376D01*
X10868599Y-15029376D02*
X10887647Y-15019852D01*
X10982885Y-14972233D02*
X10982885Y-15172233D01*
X10982885Y-14981757D02*
X11001933Y-14972233D01*
X11001933Y-14972233D02*
X11040028Y-14972233D01*
X11040028Y-14972233D02*
X11059075Y-14981757D01*
X11059075Y-14981757D02*
X11068599Y-14991281D01*
X11068599Y-14991281D02*
X11078123Y-15010328D01*
X11078123Y-15010328D02*
X11078123Y-15067471D01*
X11078123Y-15067471D02*
X11068599Y-15086519D01*
X11068599Y-15086519D02*
X11059075Y-15096043D01*
X11059075Y-15096043D02*
X11040028Y-15105566D01*
X11040028Y-15105566D02*
X11001933Y-15105566D01*
X11001933Y-15105566D02*
X10982885Y-15096043D01*
X11163837Y-15086519D02*
X11173361Y-15096043D01*
X11173361Y-15096043D02*
X11163837Y-15105566D01*
X11163837Y-15105566D02*
X11154314Y-15096043D01*
X11154314Y-15096043D02*
X11163837Y-15086519D01*
X11163837Y-15086519D02*
X11163837Y-15105566D01*
X11163837Y-14981757D02*
X11173361Y-14991281D01*
X11173361Y-14991281D02*
X11163837Y-15000804D01*
X11163837Y-15000804D02*
X11154314Y-14991281D01*
X11154314Y-14991281D02*
X11163837Y-14981757D01*
X11163837Y-14981757D02*
X11163837Y-15000804D01*
X9331632Y-15334083D02*
X9531632Y-15534083D01*
X9531632Y-15334083D02*
X9331632Y-15534083D01*
X9773361Y-15325566D02*
X9897171Y-15325566D01*
X9897171Y-15325566D02*
X9830504Y-15401757D01*
X9830504Y-15401757D02*
X9859075Y-15401757D01*
X9859075Y-15401757D02*
X9878123Y-15411281D01*
X9878123Y-15411281D02*
X9887647Y-15420804D01*
X9887647Y-15420804D02*
X9897171Y-15439852D01*
X9897171Y-15439852D02*
X9897171Y-15487471D01*
X9897171Y-15487471D02*
X9887647Y-15506519D01*
X9887647Y-15506519D02*
X9878123Y-15516043D01*
X9878123Y-15516043D02*
X9859075Y-15525566D01*
X9859075Y-15525566D02*
X9801933Y-15525566D01*
X9801933Y-15525566D02*
X9782885Y-15516043D01*
X9782885Y-15516043D02*
X9773361Y-15506519D01*
X9982885Y-15506519D02*
X9992409Y-15516043D01*
X9992409Y-15516043D02*
X9982885Y-15525566D01*
X9982885Y-15525566D02*
X9973361Y-15516043D01*
X9973361Y-15516043D02*
X9982885Y-15506519D01*
X9982885Y-15506519D02*
X9982885Y-15525566D01*
X10068599Y-15344614D02*
X10078123Y-15335090D01*
X10078123Y-15335090D02*
X10097171Y-15325566D01*
X10097171Y-15325566D02*
X10144790Y-15325566D01*
X10144790Y-15325566D02*
X10163837Y-15335090D01*
X10163837Y-15335090D02*
X10173361Y-15344614D01*
X10173361Y-15344614D02*
X10182885Y-15363662D01*
X10182885Y-15363662D02*
X10182885Y-15382709D01*
X10182885Y-15382709D02*
X10173361Y-15411281D01*
X10173361Y-15411281D02*
X10059075Y-15525566D01*
X10059075Y-15525566D02*
X10182885Y-15525566D01*
X10306694Y-15325566D02*
X10325742Y-15325566D01*
X10325742Y-15325566D02*
X10344790Y-15335090D01*
X10344790Y-15335090D02*
X10354314Y-15344614D01*
X10354314Y-15344614D02*
X10363837Y-15363662D01*
X10363837Y-15363662D02*
X10373361Y-15401757D01*
X10373361Y-15401757D02*
X10373361Y-15449376D01*
X10373361Y-15449376D02*
X10363837Y-15487471D01*
X10363837Y-15487471D02*
X10354314Y-15506519D01*
X10354314Y-15506519D02*
X10344790Y-15516043D01*
X10344790Y-15516043D02*
X10325742Y-15525566D01*
X10325742Y-15525566D02*
X10306694Y-15525566D01*
X10306694Y-15525566D02*
X10287647Y-15516043D01*
X10287647Y-15516043D02*
X10278123Y-15506519D01*
X10278123Y-15506519D02*
X10268599Y-15487471D01*
X10268599Y-15487471D02*
X10259075Y-15449376D01*
X10259075Y-15449376D02*
X10259075Y-15401757D01*
X10259075Y-15401757D02*
X10268599Y-15363662D01*
X10268599Y-15363662D02*
X10278123Y-15344614D01*
X10278123Y-15344614D02*
X10287647Y-15335090D01*
X10287647Y-15335090D02*
X10306694Y-15325566D01*
X10497171Y-15325566D02*
X10516218Y-15325566D01*
X10516218Y-15325566D02*
X10535266Y-15335090D01*
X10535266Y-15335090D02*
X10544790Y-15344614D01*
X10544790Y-15344614D02*
X10554314Y-15363662D01*
X10554314Y-15363662D02*
X10563837Y-15401757D01*
X10563837Y-15401757D02*
X10563837Y-15449376D01*
X10563837Y-15449376D02*
X10554314Y-15487471D01*
X10554314Y-15487471D02*
X10544790Y-15506519D01*
X10544790Y-15506519D02*
X10535266Y-15516043D01*
X10535266Y-15516043D02*
X10516218Y-15525566D01*
X10516218Y-15525566D02*
X10497171Y-15525566D01*
X10497171Y-15525566D02*
X10478123Y-15516043D01*
X10478123Y-15516043D02*
X10468599Y-15506519D01*
X10468599Y-15506519D02*
X10459075Y-15487471D01*
X10459075Y-15487471D02*
X10449552Y-15449376D01*
X10449552Y-15449376D02*
X10449552Y-15401757D01*
X10449552Y-15401757D02*
X10459075Y-15363662D01*
X10459075Y-15363662D02*
X10468599Y-15344614D01*
X10468599Y-15344614D02*
X10478123Y-15335090D01*
X10478123Y-15335090D02*
X10497171Y-15325566D01*
X10649552Y-15525566D02*
X10649552Y-15392233D01*
X10649552Y-15411281D02*
X10659075Y-15401757D01*
X10659075Y-15401757D02*
X10678123Y-15392233D01*
X10678123Y-15392233D02*
X10706695Y-15392233D01*
X10706695Y-15392233D02*
X10725742Y-15401757D01*
X10725742Y-15401757D02*
X10735266Y-15420804D01*
X10735266Y-15420804D02*
X10735266Y-15525566D01*
X10735266Y-15420804D02*
X10744790Y-15401757D01*
X10744790Y-15401757D02*
X10763837Y-15392233D01*
X10763837Y-15392233D02*
X10792409Y-15392233D01*
X10792409Y-15392233D02*
X10811456Y-15401757D01*
X10811456Y-15401757D02*
X10820980Y-15420804D01*
X10820980Y-15420804D02*
X10820980Y-15525566D01*
X10916218Y-15525566D02*
X10916218Y-15392233D01*
X10916218Y-15411281D02*
X10925742Y-15401757D01*
X10925742Y-15401757D02*
X10944790Y-15392233D01*
X10944790Y-15392233D02*
X10973361Y-15392233D01*
X10973361Y-15392233D02*
X10992409Y-15401757D01*
X10992409Y-15401757D02*
X11001933Y-15420804D01*
X11001933Y-15420804D02*
X11001933Y-15525566D01*
X11001933Y-15420804D02*
X11011456Y-15401757D01*
X11011456Y-15401757D02*
X11030504Y-15392233D01*
X11030504Y-15392233D02*
X11059075Y-15392233D01*
X11059075Y-15392233D02*
X11078123Y-15401757D01*
X11078123Y-15401757D02*
X11087647Y-15420804D01*
X11087647Y-15420804D02*
X11087647Y-15525566D01*
X11478123Y-15316043D02*
X11306695Y-15573185D01*
X11735266Y-15325566D02*
X11754314Y-15325566D01*
X11754314Y-15325566D02*
X11773361Y-15335090D01*
X11773361Y-15335090D02*
X11782885Y-15344614D01*
X11782885Y-15344614D02*
X11792409Y-15363662D01*
X11792409Y-15363662D02*
X11801933Y-15401757D01*
X11801933Y-15401757D02*
X11801933Y-15449376D01*
X11801933Y-15449376D02*
X11792409Y-15487471D01*
X11792409Y-15487471D02*
X11782885Y-15506519D01*
X11782885Y-15506519D02*
X11773361Y-15516043D01*
X11773361Y-15516043D02*
X11754314Y-15525566D01*
X11754314Y-15525566D02*
X11735266Y-15525566D01*
X11735266Y-15525566D02*
X11716218Y-15516043D01*
X11716218Y-15516043D02*
X11706695Y-15506519D01*
X11706695Y-15506519D02*
X11697171Y-15487471D01*
X11697171Y-15487471D02*
X11687647Y-15449376D01*
X11687647Y-15449376D02*
X11687647Y-15401757D01*
X11687647Y-15401757D02*
X11697171Y-15363662D01*
X11697171Y-15363662D02*
X11706695Y-15344614D01*
X11706695Y-15344614D02*
X11716218Y-15335090D01*
X11716218Y-15335090D02*
X11735266Y-15325566D01*
X11887647Y-15506519D02*
X11897171Y-15516043D01*
X11897171Y-15516043D02*
X11887647Y-15525566D01*
X11887647Y-15525566D02*
X11878123Y-15516043D01*
X11878123Y-15516043D02*
X11887647Y-15506519D01*
X11887647Y-15506519D02*
X11887647Y-15525566D01*
X12087647Y-15525566D02*
X11973361Y-15525566D01*
X12030504Y-15525566D02*
X12030504Y-15325566D01*
X12030504Y-15325566D02*
X12011456Y-15354138D01*
X12011456Y-15354138D02*
X11992409Y-15373185D01*
X11992409Y-15373185D02*
X11973361Y-15382709D01*
X12163837Y-15344614D02*
X12173361Y-15335090D01*
X12173361Y-15335090D02*
X12192409Y-15325566D01*
X12192409Y-15325566D02*
X12240028Y-15325566D01*
X12240028Y-15325566D02*
X12259076Y-15335090D01*
X12259076Y-15335090D02*
X12268599Y-15344614D01*
X12268599Y-15344614D02*
X12278123Y-15363662D01*
X12278123Y-15363662D02*
X12278123Y-15382709D01*
X12278123Y-15382709D02*
X12268599Y-15411281D01*
X12268599Y-15411281D02*
X12154314Y-15525566D01*
X12154314Y-15525566D02*
X12278123Y-15525566D01*
X12449552Y-15325566D02*
X12411456Y-15325566D01*
X12411456Y-15325566D02*
X12392409Y-15335090D01*
X12392409Y-15335090D02*
X12382885Y-15344614D01*
X12382885Y-15344614D02*
X12363837Y-15373185D01*
X12363837Y-15373185D02*
X12354314Y-15411281D01*
X12354314Y-15411281D02*
X12354314Y-15487471D01*
X12354314Y-15487471D02*
X12363837Y-15506519D01*
X12363837Y-15506519D02*
X12373361Y-15516043D01*
X12373361Y-15516043D02*
X12392409Y-15525566D01*
X12392409Y-15525566D02*
X12430504Y-15525566D01*
X12430504Y-15525566D02*
X12449552Y-15516043D01*
X12449552Y-15516043D02*
X12459076Y-15506519D01*
X12459076Y-15506519D02*
X12468599Y-15487471D01*
X12468599Y-15487471D02*
X12468599Y-15439852D01*
X12468599Y-15439852D02*
X12459076Y-15420804D01*
X12459076Y-15420804D02*
X12449552Y-15411281D01*
X12449552Y-15411281D02*
X12430504Y-15401757D01*
X12430504Y-15401757D02*
X12392409Y-15401757D01*
X12392409Y-15401757D02*
X12373361Y-15411281D01*
X12373361Y-15411281D02*
X12363837Y-15420804D01*
X12363837Y-15420804D02*
X12354314Y-15439852D01*
X12592409Y-15325566D02*
X12611457Y-15325566D01*
X12611457Y-15325566D02*
X12630504Y-15335090D01*
X12630504Y-15335090D02*
X12640028Y-15344614D01*
X12640028Y-15344614D02*
X12649552Y-15363662D01*
X12649552Y-15363662D02*
X12659076Y-15401757D01*
X12659076Y-15401757D02*
X12659076Y-15449376D01*
X12659076Y-15449376D02*
X12649552Y-15487471D01*
X12649552Y-15487471D02*
X12640028Y-15506519D01*
X12640028Y-15506519D02*
X12630504Y-15516043D01*
X12630504Y-15516043D02*
X12611457Y-15525566D01*
X12611457Y-15525566D02*
X12592409Y-15525566D01*
X12592409Y-15525566D02*
X12573361Y-15516043D01*
X12573361Y-15516043D02*
X12563837Y-15506519D01*
X12563837Y-15506519D02*
X12554314Y-15487471D01*
X12554314Y-15487471D02*
X12544790Y-15449376D01*
X12544790Y-15449376D02*
X12544790Y-15401757D01*
X12544790Y-15401757D02*
X12554314Y-15363662D01*
X12554314Y-15363662D02*
X12563837Y-15344614D01*
X12563837Y-15344614D02*
X12573361Y-15335090D01*
X12573361Y-15335090D02*
X12592409Y-15325566D01*
X12735266Y-15325566D02*
X12735266Y-15363662D01*
X12811457Y-15325566D02*
X12811457Y-15363662D01*
X13106695Y-15601757D02*
X13097171Y-15592233D01*
X13097171Y-15592233D02*
X13078123Y-15563662D01*
X13078123Y-15563662D02*
X13068599Y-15544614D01*
X13068599Y-15544614D02*
X13059076Y-15516043D01*
X13059076Y-15516043D02*
X13049552Y-15468423D01*
X13049552Y-15468423D02*
X13049552Y-15430328D01*
X13049552Y-15430328D02*
X13059076Y-15382709D01*
X13059076Y-15382709D02*
X13068599Y-15354138D01*
X13068599Y-15354138D02*
X13078123Y-15335090D01*
X13078123Y-15335090D02*
X13097171Y-15306519D01*
X13097171Y-15306519D02*
X13106695Y-15296995D01*
X13278123Y-15325566D02*
X13182885Y-15325566D01*
X13182885Y-15325566D02*
X13173361Y-15420804D01*
X13173361Y-15420804D02*
X13182885Y-15411281D01*
X13182885Y-15411281D02*
X13201933Y-15401757D01*
X13201933Y-15401757D02*
X13249552Y-15401757D01*
X13249552Y-15401757D02*
X13268599Y-15411281D01*
X13268599Y-15411281D02*
X13278123Y-15420804D01*
X13278123Y-15420804D02*
X13287647Y-15439852D01*
X13287647Y-15439852D02*
X13287647Y-15487471D01*
X13287647Y-15487471D02*
X13278123Y-15506519D01*
X13278123Y-15506519D02*
X13268599Y-15516043D01*
X13268599Y-15516043D02*
X13249552Y-15525566D01*
X13249552Y-15525566D02*
X13201933Y-15525566D01*
X13201933Y-15525566D02*
X13182885Y-15516043D01*
X13182885Y-15516043D02*
X13173361Y-15506519D01*
X13525742Y-15525566D02*
X13525742Y-15325566D01*
X13611457Y-15525566D02*
X13611457Y-15420804D01*
X13611457Y-15420804D02*
X13601933Y-15401757D01*
X13601933Y-15401757D02*
X13582885Y-15392233D01*
X13582885Y-15392233D02*
X13554314Y-15392233D01*
X13554314Y-15392233D02*
X13535266Y-15401757D01*
X13535266Y-15401757D02*
X13525742Y-15411281D01*
X13735266Y-15525566D02*
X13716219Y-15516043D01*
X13716219Y-15516043D02*
X13706695Y-15506519D01*
X13706695Y-15506519D02*
X13697171Y-15487471D01*
X13697171Y-15487471D02*
X13697171Y-15430328D01*
X13697171Y-15430328D02*
X13706695Y-15411281D01*
X13706695Y-15411281D02*
X13716219Y-15401757D01*
X13716219Y-15401757D02*
X13735266Y-15392233D01*
X13735266Y-15392233D02*
X13763838Y-15392233D01*
X13763838Y-15392233D02*
X13782885Y-15401757D01*
X13782885Y-15401757D02*
X13792409Y-15411281D01*
X13792409Y-15411281D02*
X13801933Y-15430328D01*
X13801933Y-15430328D02*
X13801933Y-15487471D01*
X13801933Y-15487471D02*
X13792409Y-15506519D01*
X13792409Y-15506519D02*
X13782885Y-15516043D01*
X13782885Y-15516043D02*
X13763838Y-15525566D01*
X13763838Y-15525566D02*
X13735266Y-15525566D01*
X13916219Y-15525566D02*
X13897171Y-15516043D01*
X13897171Y-15516043D02*
X13887647Y-15496995D01*
X13887647Y-15496995D02*
X13887647Y-15325566D01*
X14068600Y-15516043D02*
X14049552Y-15525566D01*
X14049552Y-15525566D02*
X14011457Y-15525566D01*
X14011457Y-15525566D02*
X13992409Y-15516043D01*
X13992409Y-15516043D02*
X13982885Y-15496995D01*
X13982885Y-15496995D02*
X13982885Y-15420804D01*
X13982885Y-15420804D02*
X13992409Y-15401757D01*
X13992409Y-15401757D02*
X14011457Y-15392233D01*
X14011457Y-15392233D02*
X14049552Y-15392233D01*
X14049552Y-15392233D02*
X14068600Y-15401757D01*
X14068600Y-15401757D02*
X14078123Y-15420804D01*
X14078123Y-15420804D02*
X14078123Y-15439852D01*
X14078123Y-15439852D02*
X13982885Y-15458900D01*
X14154314Y-15516043D02*
X14173361Y-15525566D01*
X14173361Y-15525566D02*
X14211457Y-15525566D01*
X14211457Y-15525566D02*
X14230504Y-15516043D01*
X14230504Y-15516043D02*
X14240028Y-15496995D01*
X14240028Y-15496995D02*
X14240028Y-15487471D01*
X14240028Y-15487471D02*
X14230504Y-15468423D01*
X14230504Y-15468423D02*
X14211457Y-15458900D01*
X14211457Y-15458900D02*
X14182885Y-15458900D01*
X14182885Y-15458900D02*
X14163838Y-15449376D01*
X14163838Y-15449376D02*
X14154314Y-15430328D01*
X14154314Y-15430328D02*
X14154314Y-15420804D01*
X14154314Y-15420804D02*
X14163838Y-15401757D01*
X14163838Y-15401757D02*
X14182885Y-15392233D01*
X14182885Y-15392233D02*
X14211457Y-15392233D01*
X14211457Y-15392233D02*
X14230504Y-15401757D01*
X14306695Y-15601757D02*
X14316219Y-15592233D01*
X14316219Y-15592233D02*
X14335266Y-15563662D01*
X14335266Y-15563662D02*
X14344790Y-15544614D01*
X14344790Y-15544614D02*
X14354314Y-15516043D01*
X14354314Y-15516043D02*
X14363838Y-15468423D01*
X14363838Y-15468423D02*
X14363838Y-15430328D01*
X14363838Y-15430328D02*
X14354314Y-15382709D01*
X14354314Y-15382709D02*
X14344790Y-15354138D01*
X14344790Y-15354138D02*
X14335266Y-15335090D01*
X14335266Y-15335090D02*
X14316219Y-15306519D01*
X14316219Y-15306519D02*
X14306695Y-15296995D01*
M02*
