M48
; DRILL file {KiCad 7.0.9} date Tue Jan 30 02:49:17 2024
; FORMAT={-:-/ absolute / inch / decimal}
; #@! TF.CreationDate,2024-01-30T02:49:17+00:00
; #@! TF.GenerationSoftware,Kicad,Pcbnew,7.0.9
; #@! TF.FileFunction,Plated,1,4,PTH
FMAT,2
INCH
; #@! TA.AperFunction,Plated,PTH,ViaDrill
T1C0.0118
; #@! TA.AperFunction,Plated,PTH,ComponentDrill
T2C0.0118
; #@! TA.AperFunction,Plated,PTH,ComponentDrill
T3C0.0236
; #@! TA.AperFunction,Plated,PTH,ComponentDrill
T4C0.0256
; #@! TA.AperFunction,Plated,PTH,ComponentDrill
T5C0.0394
; #@! TA.AperFunction,Plated,PTH,ComponentDrill
T6C0.0591
; #@! TA.AperFunction,Plated,PTH,ComponentDrill
T7C0.0669
; #@! TA.AperFunction,Plated,PTH,ComponentDrill
T8C0.1063
; #@! TA.AperFunction,Plated,PTH,ComponentDrill
T9C0.1260
; #@! TA.AperFunction,Plated,PTH,ComponentDrill
T10C0.1772
%
G90
G05
T1
X4.1219Y-3.0663
X4.1292Y-3.2978
X4.1368Y-2.9933
X4.1368Y-3.2137
X4.1368Y-3.3751
X4.1368Y-3.1389
X4.1486Y-3.946
X4.1565Y-3.8712
X4.1604Y-3.45
X4.1732Y-4.0183
X4.1851Y-2.8959
X4.1959Y-3.8082
X4.1994Y-3.1663
X4.2095Y-4.0881
X4.214Y-3.0035
X4.2195Y-3.4933
X4.2245Y-2.8277
X4.247Y-4.156
X4.251Y-3.757
X4.2533Y-2.9353
X4.2639Y-2.7596
X4.2667Y-3.5523
X4.2743Y-3.2413
X4.2755Y-3.9804
X4.2759Y-3.0968
X4.2821Y-3.0429
X4.2825Y-3.698
X4.2826Y-4.2157
X4.2904Y-3.6232
X4.2927Y-2.8671
X4.3032Y-2.6914
X4.3215Y-2.9747
X4.3268Y-4.2857
X4.3287Y-3.411
X4.3321Y-2.7989
X4.3399Y-3.1947
X4.3426Y-2.6232
X4.3459Y-3.1411
X4.3609Y-2.9065
X4.3695Y-4.3505
X4.3714Y-2.7307
X4.382Y-2.555
X4.3912Y-3.1925
X4.3972Y-3.1388
X4.4003Y-2.8383
X4.4094Y-4.4105
X4.4108Y-2.6625
X4.4132Y-3.7371
X4.4214Y-2.4868
X4.4396Y-2.7701
X4.4439Y-3.1957
X4.4485Y-3.1366
X4.4502Y-2.5943
X4.4523Y-4.4718
X4.4607Y-2.4186
X4.479Y-2.7019
X4.4822Y-3.9088
X4.4895Y-2.5262
X4.4898Y-3.1949
X4.4901Y-3.1197
X4.5001Y-2.3504
X4.5029Y-4.5372
X4.5117Y-3.0822
X4.5184Y-2.6337
X4.5228Y-4.2777
X4.5265Y-2.8362
X4.5289Y-2.458
X4.5334Y-3.0447
X4.5382Y-3.182
X4.5395Y-2.2822
X4.546Y-3.2865
X4.547Y-4.1203
X4.5474Y-2.8031
X4.5511Y-4.5944
X4.555Y-3.0072
X4.5577Y-2.5655
X4.5671Y-2.769
X4.5683Y-2.3898
X4.5726Y-3.1264
X4.5753Y-4.0877
X4.5788Y-2.214
X4.585Y-2.7427
X4.5886Y-3.8836
X4.5942Y-3.0889
X4.5971Y-2.4973
X4.5998Y-4.6525
X4.6017Y-3.9906
X4.6077Y-2.3216
X4.6111Y-2.9259
X4.6161Y-2.6652
X4.6182Y-2.1458
X4.6221Y-4.0252
X4.6239Y-2.8879
X4.6241Y-2.738
X4.6245Y-3.3704
X4.6268Y-4.5954
X4.6297Y-3.0276
X4.6365Y-2.4291
X4.647Y-2.2534
X4.647Y-2.8557
X4.6482Y-2.6018
X4.6549Y-2.9603
X4.6572Y-2.657
X4.6576Y-2.0776
X4.6584Y-2.7259
X4.6586Y-4.7253
X4.6634Y-3.8048
X4.6706Y-3.5425
X4.6746Y-2.4852
X4.6758Y-2.361
X4.6864Y-2.1852
X4.687Y-2.5424
X4.6872Y-4.5581
X4.6885Y-2.7433
X4.6912Y-4.3269
X4.6921Y-2.6045
X4.6928Y-3.6144
X4.6936Y-4.2083
X4.6947Y-2.6787
X4.6996Y-3.1387
X4.6998Y-2.8589
X4.7005Y-2.9048
X4.7063Y-3.5311
X4.7152Y-2.2928
X4.7192Y-2.761
X4.7221Y-2.6627
X4.7232Y-4.731
X4.7258Y-2.117
X4.7267Y-3.784
X4.728Y-4.7935
X4.7346Y-2.9245
X4.7386Y-3.2342
X4.7443Y-2.6164
X4.7447Y-3.533
X4.7461Y-2.8811
X4.7481Y-4.5754
X4.7504Y-2.7791
X4.7546Y-2.2246
X4.7618Y-3.9859
X4.7636Y-3.453
X4.7743Y-4.6908
X4.7765Y-2.8558
X4.7786Y-1.8699
X4.7815Y-2.3788
X4.7829Y-4.6303
X4.7855Y-2.8993
X4.786Y-3.2954
X4.7873Y-4.8576
X4.7888Y-2.6729
X4.794Y-2.1564
X4.7997Y-4.1149
X4.8Y-3.3262
X4.8074Y-1.9775
X4.8097Y-2.6133
X4.8151Y-3.8283
X4.8158Y-3.299
X4.8276Y-2.9918
X4.8353Y-2.8852
X4.8433Y-2.9645
X4.8468Y-1.9093
X4.8475Y-2.5715
X4.8522Y-4.9228
X4.8522Y-3.0515
X4.8534Y-4.1776
X4.8589Y-2.8443
X4.8667Y-4.3217
X4.8676Y-2.8766
X4.869Y-3.0067
X4.869Y-3.6161
X4.8701Y-2.7462
X4.8733Y-3.6859
X4.8756Y-2.0168
X4.8762Y-2.9088
X4.8807Y-4.1933
X4.8812Y-2.2688
X4.8816Y-4.474
X4.8836Y-2.7176
X4.8878Y-2.9584
X4.888Y-4.4214
X4.8992Y-2.5561
X4.8998Y-2.8679
X4.9014Y-2.4389
X4.9018Y-3.2373
X4.9025Y-4.6061
X4.9041Y-4.5062
X4.9057Y-3.0645
X4.9085Y-2.782
X4.9106Y-4.4536
X4.9127Y-4.978
X4.9131Y-4.1462
X4.915Y-1.9487
X4.917Y-4.4011
X4.9202Y-3.6457
X4.9227Y-3.024
X4.9242Y-2.1192
X4.9282Y-2.1744
X4.9314Y-4.0817
X4.9316Y-2.5748
X4.9332Y-4.4859
X4.9339Y-3.4172
X4.9396Y-4.4333
X4.9436Y-2.7159
X4.9438Y-2.0562
X4.9447Y-3.8553
X4.9622Y-4.4656
X4.9641Y-3.8847
X4.9648Y-3.7732
X4.9675Y-2.2137
X4.9723Y-2.8552
X4.9732Y-4.0263
X4.9743Y-2.7518
X4.9777Y-2.9603
X4.9798Y-5.0377
X4.9804Y-3.0028
X4.9832Y-1.988
X4.9941Y-3.7065
X5.0028Y-3.416
X5.0056Y-4.045
X5.0099Y-3.6793
X5.0185Y-3.3888
X5.0185Y-2.35
X5.0193Y-4.2052
X5.023Y-2.9683
X5.0266Y-2.2216
X5.0283Y-3.6513
X5.0342Y-2.7454
X5.037Y-4.1745
X5.0373Y-2.9356
X5.041Y-4.3269
X5.0465Y-5.0939
X5.0476Y-2.6305
X5.0513Y-2.0274
X5.0618Y-2.6977
X5.0697Y-2.9773
X5.0718Y-2.7354
X5.0733Y-3.3181
X5.0738Y-2.1901
X5.0803Y-3.2108
X5.0819Y-2.773
X5.0881Y-3.9926
X5.0961Y-3.1835
X5.0991Y-2.8397
X5.1014Y-2.1271
X5.1022Y-4.0713
X5.1059Y-3.1278
X5.1095Y-2.7253
X5.1154Y-4.0084
X5.116Y-5.149
X5.1195Y-2.0668
X5.1221Y-3.4849
X5.1299Y-2.539
X5.1304Y-2.6419
X5.1378Y-3.4576
X5.1576Y-2.6576
X5.1611Y-2.9889
X5.1697Y-2.612
X5.1743Y-2.7065
X5.1784Y-3.1694
X5.1832Y-5.1999
X5.1877Y-2.1061
X5.1918Y-3.8525
X5.1974Y-3.0599
X5.2024Y-2.7127
X5.215Y-3.6772
X5.2153Y-4.2139
X5.219Y-3.8682
X5.2193Y-3.7544
X5.2215Y-2.2899
X5.2304Y-3.2974
X5.2315Y-3.0867
X5.2378Y-2.6513
X5.2461Y-3.2701
X5.2559Y-2.1455
X5.2564Y-5.2496
X5.2571Y-3.8811
X5.2796Y-2.4962
X5.2852Y-4.0292
X5.292Y-3.8876
X5.2928Y-4.5202
X5.3126Y-2.8085
X5.315Y-3.9145
X5.3241Y-2.1849
X5.3274Y-5.296
X5.3507Y-2.9873
X5.3561Y-4.4448
X5.3591Y-4.5749
X5.3602Y-4.0725
X5.371Y-4.3024
X5.3798Y-3.9016
X5.3877Y-3.9383
X5.3909Y-4.0902
X5.3918Y-4.2225
X5.3923Y-2.2242
X5.3984Y-5.3425
X5.3995Y-4.2565
X5.4129Y-4.2904
X5.4184Y-2.9559
X5.4319Y-2.8387
X5.4321Y-3.1684
X5.4457Y-2.9717
X5.4506Y-4.1246
X5.4538Y-2.6513
X5.4605Y-2.2636
X5.4703Y-5.3834
X5.473Y-2.9874
X5.4867Y-3.1999
X5.5037Y-3.0051
X5.5162Y-4.1489
X5.5234Y-4.3962
X5.5287Y-2.303
X5.53Y-2.8021
X5.5344Y-3.0228
X5.54Y-5.4212
X5.5407Y-4.3642
X5.5455Y-4.65
X5.5493Y-2.7687
X5.5525Y-4.3064
X5.5527Y-3.188
X5.5568Y-4.236
X5.5595Y-5.0036
X5.5799Y-3.2037
X5.5908Y-4.1692
X5.5968Y-5.2376
X5.5969Y-2.3424
X5.597Y-4.3001
X5.6055Y-4.4823
X5.6074Y-5.4557
X5.6309Y-4.5879
X5.6393Y-3.038
X5.6427Y-4.2446
X5.6567Y-4.3936
X5.6582Y-4.0445
X5.6651Y-2.3817
X5.6666Y-3.0537
X5.6723Y-5.4814
X5.6821Y-4.4992
X5.6829Y-3.5518
X5.6855Y-4.0099
X5.6911Y-4.3544
X5.7057Y-3.9741
X5.7231Y-3.2864
X5.7333Y-2.4211
X5.7333Y-4.4106
X5.7352Y-5.45
X5.7453Y-3.0355
X5.7477Y-3.5892
X5.7504Y-3.3022
X5.751Y-5.2216
X5.751Y-5.3791
X5.751Y-5.3003
X5.7589Y-5.1547
X5.7649Y-3.0014
X5.7727Y-3.79
X5.7838Y-4.0397
X5.7899Y-3.3755
X5.7904Y-5.0956
X5.7904Y-3.7594
X5.7935Y-3.1725
X5.796Y-4.6491
X5.8014Y-2.4605
X5.8081Y-3.7287
X5.8097Y-4.2547
X5.8126Y-4.1472
X5.8173Y-3.1862
X5.8198Y-4.7811
X5.8258Y-3.698
X5.8443Y-2.7859
X5.8445Y-3.407
X5.8455Y-5.0563
X5.848Y-3.2039
X5.8548Y-4.4921
X5.8642Y-4.2862
X5.8696Y-2.4998
X5.8719Y-3.9815
X5.8882Y-3.3931
X5.905Y-3.0186
X5.9061Y-4.2058
X5.9094Y-3.2394
X5.9138Y-3.9011
X5.923Y-3.8132
X5.9232Y-5.0462
X5.9243Y-2.9852
X5.9295Y-3.8738
X5.9342Y-3.5901
X5.9351Y-4.7704
X5.9378Y-2.5392
X5.9448Y-3.4144
X5.947Y-4.2294
X5.9494Y-4.6195
X5.95Y-3.5628
X5.9537Y-4.0287
X5.9694Y-2.8763
X5.972Y-3.4301
X5.9746Y-4.3863
X5.9923Y-4.3556
X6.0019Y-5.0462
X6.006Y-2.5786
X6.0117Y-3.2984
X6.012Y-4.3215
X6.039Y-3.3142
X6.0476Y-3.6692
X6.0634Y-3.642
X6.0636Y-3.3807
X6.064Y-3.7196
X6.0742Y-2.6179
X6.0807Y-5.0462
X6.0913Y-3.7354
X6.1053Y-2.9638
X6.1203Y-3.252
X6.1292Y-3.5504
X6.1358Y-4.7548
X6.1358Y-4.7981
X6.14Y-3.2179
X6.1424Y-2.6573
X6.1594Y-5.0462
X6.1648Y-3.5687
X6.1752Y-4.7981
X6.2106Y-2.6967
X6.2185Y-4.7981
X6.2192Y-3.4751
X6.2271Y-3.0205
X6.2381Y-5.0462
X6.2665Y-4.6375
X6.2788Y-2.7361
X6.3152Y-3.1987
X6.3169Y-5.0462
X6.3169Y-4.3414
X6.3426Y-4.901
X6.3426Y-4.9364
X6.3444Y-4.5462
X6.347Y-2.7754
X6.3838Y-4.5462
X6.3859Y-4.901
X6.3859Y-4.9364
X6.3875Y-2.9631
X6.3878Y-4.7588
X6.3956Y-5.0462
X6.4152Y-2.8148
X6.4232Y-4.5462
X6.4292Y-4.901
X6.4292Y-4.9364
X6.4429Y-4.7351
X6.4725Y-4.9364
X6.4725Y-4.901
X6.4744Y-5.0462
X6.4744Y-4.5934
X6.4744Y-4.6367
X6.4834Y-2.8542
X6.4862Y-4.7745
X6.5059Y-4.4871
X6.5098Y-4.6367
X6.5158Y-4.9364
X6.5158Y-4.901
X6.5314Y-3.4462
X6.5452Y-4.4871
X6.5515Y-2.8935
X6.5531Y-5.0462
X6.561Y-4.8021
X6.582Y-3.1618
X6.5846Y-4.4871
X6.6043Y-4.8021
X6.6197Y-2.9329
X6.6318Y-5.0462
X6.6523Y-4.6414
X6.6712Y-4.3414
X6.6879Y-2.9723
X6.7106Y-5.0462
X6.7561Y-3.0116
X6.7706Y-3.1343
X6.7736Y-4.7627
X6.7893Y-5.0462
X6.8243Y-3.051
X6.8287Y-4.7391
X6.8363Y-3.3186
X6.8363Y-3.2634
X6.856Y-3.2359
X6.856Y-3.291
X6.8602Y-4.6407
X6.8602Y-4.5974
X6.8669Y-3.4399
X6.8681Y-5.0462
X6.872Y-4.7824
X6.8925Y-3.0904
X6.8956Y-4.6407
X6.9468Y-5.0462
X6.9468Y-4.8021
X6.9607Y-3.1298
X6.9901Y-4.8021
X7.0255Y-4.3414
X7.0255Y-5.0462
X7.0289Y-3.1691
X7.0381Y-4.6414
X7.0971Y-3.2085
X7.1043Y-5.0462
X7.1594Y-4.7627
X7.1731Y-3.2342
X7.183Y-5.0462
X7.2033Y-3.4478
X7.2145Y-4.7391
X7.246Y-4.5974
X7.246Y-4.6407
X7.2539Y-3.2391
X7.2618Y-5.0462
X7.2815Y-4.6407
X7.3169Y-4.6407
X7.3326Y-3.2391
X7.3405Y-5.0462
X7.3523Y-4.6407
X7.3878Y-4.6407
X7.3878Y-4.5974
X7.3948Y-4.6827
X7.3948Y-4.7142
X7.4114Y-3.2391
X7.4192Y-5.0462
X7.4302Y-4.6827
X7.4302Y-4.7142
X7.4657Y-4.6827
X7.4657Y-4.7142
X7.4901Y-3.2391
X7.498Y-5.0462
X7.5011Y-4.7142
X7.5011Y-4.6827
X7.5689Y-3.2391
X7.5767Y-5.0462
X7.5955Y-4.8853
X7.5994Y-4.6451
X7.6332Y-4.5142
X7.6405Y-4.7457
X7.6476Y-3.2391
X7.6555Y-5.0462
X7.7254Y-4.4719
X7.7263Y-3.2391
X7.7263Y-3.9678
X7.7342Y-5.0462
X7.7451Y-4.2121
X7.7805Y-4.3656
X7.7805Y-4.3184
X7.7805Y-4.4128
X7.7805Y-4.4719
X7.7884Y-4.1727
X7.7884Y-4.1254
X7.7923Y-4.0821
X7.7962Y-4.2278
X7.8051Y-3.2391
X7.8088Y-4.665
X7.8129Y-5.0462
X7.8297Y-4.1389
X7.8297Y-4.8751
X7.8356Y-4.0467
X7.8363Y-4.5587
X7.8376Y-4.2019
X7.8455Y-4.9421
X7.8534Y-4.9972
X7.8573Y-4.8082
X7.8592Y-3.9365
X7.8599Y-4.4012
X7.8652Y-4.0838
X7.8809Y-4.2413
X7.8838Y-3.2391
X7.8878Y-5.0462
X7.9064Y-4.7036
X7.9104Y-4.6254
X7.9164Y-4.9736
X7.9203Y-4.7807
X7.936Y-4.072
X7.94Y-4.2452
X7.9547Y-3.247
X7.9586Y-5.0225
X7.9941Y-3.306
X7.9941Y-4.5659
X7.9941Y-4.9596
X7.9941Y-3.3848
X7.9941Y-3.621
X7.9941Y-3.6997
X7.9941Y-4.4084
X7.9941Y-4.7233
X7.9941Y-3.4635
X7.9941Y-3.5422
X7.9941Y-4.0934
X7.9941Y-4.4871
X7.9941Y-3.7785
X7.9941Y-3.8572
X7.9941Y-3.9359
X7.9941Y-4.6446
X7.9941Y-4.0147
X7.9941Y-4.2509
X7.9941Y-4.3296
X7.9941Y-4.8021
X8.003Y-4.1744
X8.0069Y-4.883
T2
X4.3082Y-2.6536
T4
X4.4527Y-3.5032
X4.4656Y-3.5515
X4.4786Y-3.5998
X4.4915Y-3.6481
X4.501Y-3.4903
X4.5045Y-3.6964
X4.5139Y-3.5386
X4.5174Y-3.7447
X4.5269Y-3.5869
X4.5304Y-3.793
X4.5398Y-3.6352
X4.5528Y-3.6835
X4.5657Y-3.7318
X4.5787Y-3.7801
T5
X6.0531Y-4.6047
X6.0531Y-4.7047
X6.0531Y-4.8047
X6.0531Y-4.9047
X6.1428Y-4.2347
X6.1928Y-4.1481
X6.2294Y-4.2847
X6.2428Y-4.0615
X6.2794Y-4.1981
X6.2928Y-3.9749
X6.3294Y-4.1115
X6.3794Y-4.0249
T6
X4.2733Y-3.1676
T7
X4.1733Y-3.0676
X4.1733Y-3.2676
X4.3733Y-3.0676
X4.3733Y-3.2676
T8
X6.3678Y-3.4516
X6.3678Y-3.6484
X6.6985Y-3.9642
X6.6985Y-4.1611
X6.6985Y-3.4516
X6.6985Y-3.6484
X7.0292Y-3.9642
X7.0292Y-4.1611
X7.0292Y-3.4516
X7.0292Y-3.6484
X7.3599Y-3.4516
X7.3599Y-3.6484
X7.3599Y-3.9642
X7.3599Y-4.1611
T9
X4.6968Y-4.6474
X5.0075Y-2.1367
X7.915Y-4.1589
X7.915Y-4.8675
T10
X7.7474Y-3.4684
X7.7474Y-3.7518
T3
G00X4.3503Y-4.204
M15
G01X4.3245Y-4.222
M16
G05
G00X4.4896Y-4.1064
M15
G01X4.4542Y-4.1313
M16
G05
G00X4.5457Y-4.4829
M15
G01X4.5199Y-4.501
M16
G05
G00X4.685Y-4.3854
M15
G01X4.6495Y-4.4102
M16
G05
T0
M30
