%TF.GenerationSoftware,KiCad,Pcbnew,7.0.9*%
%TF.CreationDate,2024-01-30T02:49:12+00:00*%
%TF.ProjectId,main_PCB_v1,6d61696e-5f50-4434-925f-76312e6b6963,rev?*%
%TF.SameCoordinates,Original*%
%TF.FileFunction,Soldermask,Top*%
%TF.FilePolarity,Negative*%
%FSLAX46Y46*%
G04 Gerber Fmt 4.6, Leading zero omitted, Abs format (unit mm)*
G04 Created by KiCad (PCBNEW 7.0.9) date 2024-01-30 02:49:12*
%MOMM*%
%LPD*%
G01*
G04 APERTURE LIST*
G04 Aperture macros list*
%AMRoundRect*
0 Rectangle with rounded corners*
0 $1 Rounding radius*
0 $2 $3 $4 $5 $6 $7 $8 $9 X,Y pos of 4 corners*
0 Add a 4 corners polygon primitive as box body*
4,1,4,$2,$3,$4,$5,$6,$7,$8,$9,$2,$3,0*
0 Add four circle primitives for the rounded corners*
1,1,$1+$1,$2,$3*
1,1,$1+$1,$4,$5*
1,1,$1+$1,$6,$7*
1,1,$1+$1,$8,$9*
0 Add four rect primitives between the rounded corners*
20,1,$1+$1,$2,$3,$4,$5,0*
20,1,$1+$1,$4,$5,$6,$7,0*
20,1,$1+$1,$6,$7,$8,$9,0*
20,1,$1+$1,$8,$9,$2,$3,0*%
%AMHorizOval*
0 Thick line with rounded ends*
0 $1 width*
0 $2 $3 position (X,Y) of the first rounded end (center of the circle)*
0 $4 $5 position (X,Y) of the second rounded end (center of the circle)*
0 Add line between two ends*
20,1,$1,$2,$3,$4,$5,0*
0 Add two circle primitives to create the rounded ends*
1,1,$1,$2,$3*
1,1,$1,$4,$5*%
%AMRotRect*
0 Rectangle, with rotation*
0 The origin of the aperture is its center*
0 $1 length*
0 $2 width*
0 $3 Rotation angle, in degrees counterclockwise*
0 Add horizontal line*
21,1,$1,$2,0,0,$3*%
%AMFreePoly0*
4,1,7,0.470000,-0.025000,0.114300,-0.025000,0.114300,-0.381000,-0.114300,-0.381000,-0.114300,0.381000,0.470000,0.381000,0.470000,-0.025000,0.470000,-0.025000,$1*%
%AMFreePoly1*
4,1,7,0.114300,0.025000,0.470000,0.025000,0.470000,-0.381000,-0.114300,-0.381000,-0.114300,0.381000,0.114300,0.381000,0.114300,0.025000,0.114300,0.025000,$1*%
G04 Aperture macros list end*
%ADD10C,2.000000*%
%ADD11C,0.010000*%
%ADD12RoundRect,0.140000X0.140000X0.170000X-0.140000X0.170000X-0.140000X-0.170000X0.140000X-0.170000X0*%
%ADD13RoundRect,0.140000X-0.206244X-0.077224X0.036244X-0.217224X0.206244X0.077224X-0.036244X0.217224X0*%
%ADD14RoundRect,0.218750X0.218750X0.256250X-0.218750X0.256250X-0.218750X-0.256250X0.218750X-0.256250X0*%
%ADD15RotRect,0.650000X1.500000X60.000000*%
%ADD16R,2.500000X1.500000*%
%ADD17RotRect,0.375000X0.350000X150.000000*%
%ADD18RotRect,0.375000X0.350000X60.000000*%
%ADD19RoundRect,0.140000X0.077224X-0.206244X0.217224X0.036244X-0.077224X0.206244X-0.217224X-0.036244X0*%
%ADD20RoundRect,0.135000X-0.209413X-0.092715X0.024413X-0.227715X0.209413X0.092715X-0.024413X0.227715X0*%
%ADD21RoundRect,0.140000X-0.170000X0.140000X-0.170000X-0.140000X0.170000X-0.140000X0.170000X0.140000X0*%
%ADD22R,1.050000X0.650000*%
%ADD23RoundRect,0.135000X-0.092715X0.209413X-0.227715X-0.024413X0.092715X-0.209413X0.227715X0.024413X0*%
%ADD24RoundRect,0.140000X0.170000X-0.140000X0.170000X0.140000X-0.170000X0.140000X-0.170000X-0.140000X0*%
%ADD25RoundRect,0.140000X-0.077224X0.206244X-0.217224X-0.036244X0.077224X-0.206244X0.217224X0.036244X0*%
%ADD26RoundRect,0.225000X-0.250000X0.225000X-0.250000X-0.225000X0.250000X-0.225000X0.250000X0.225000X0*%
%ADD27RoundRect,0.135000X-0.185000X0.135000X-0.185000X-0.135000X0.185000X-0.135000X0.185000X0.135000X0*%
%ADD28RoundRect,0.140000X-0.217224X0.036244X-0.077224X-0.206244X0.217224X-0.036244X0.077224X0.206244X0*%
%ADD29RoundRect,0.150000X0.277534X-0.456214X0.012244X0.533860X-0.277534X0.456214X-0.012244X-0.533860X0*%
%ADD30RoundRect,0.135000X0.092715X-0.209413X0.227715X0.024413X-0.092715X0.209413X-0.227715X-0.024413X0*%
%ADD31RotRect,2.500000X2.500000X150.000000*%
%ADD32RoundRect,0.062500X0.229127X0.271859X0.120873X0.334359X-0.229127X-0.271859X-0.120873X-0.334359X0*%
%ADD33RoundRect,0.062500X0.334359X-0.120873X-0.271859X0.229127X-0.334359X0.120873X0.271859X-0.229127X0*%
%ADD34RotRect,0.200000X0.510000X330.000000*%
%ADD35RotRect,0.150000X0.330000X60.000000*%
%ADD36RoundRect,0.225000X0.250000X-0.225000X0.250000X0.225000X-0.250000X0.225000X-0.250000X-0.225000X0*%
%ADD37RoundRect,0.135000X-0.135000X-0.185000X0.135000X-0.185000X0.135000X0.185000X-0.135000X0.185000X0*%
%ADD38HorizOval,1.700000X0.000000X0.000000X0.000000X0.000000X0*%
%ADD39RotRect,1.700000X1.700000X330.000000*%
%ADD40HorizOval,1.000000X0.000000X0.000000X0.000000X0.000000X0*%
%ADD41RotRect,1.000000X1.000000X15.000000*%
%ADD42RoundRect,0.140000X0.206244X0.077224X-0.036244X0.217224X-0.206244X-0.077224X0.036244X-0.217224X0*%
%ADD43RoundRect,0.147500X0.075639X-0.213989X0.223139X0.041489X-0.075639X0.213989X-0.223139X-0.041489X0*%
%ADD44RotRect,0.990000X4.570000X60.000000*%
%ADD45RotRect,0.990000X3.810000X60.000000*%
%ADD46RotRect,0.990000X3.580000X330.000000*%
%ADD47RotRect,0.990000X3.810000X330.000000*%
%ADD48R,1.295400X0.355600*%
%ADD49FreePoly0,180.000000*%
%ADD50R,0.254000X0.609600*%
%ADD51FreePoly1,0.000000*%
%ADD52FreePoly0,0.000000*%
%ADD53FreePoly1,180.000000*%
%ADD54RoundRect,0.135000X0.185000X-0.135000X0.185000X0.135000X-0.185000X0.135000X-0.185000X-0.135000X0*%
%ADD55RoundRect,0.135000X0.228976X-0.004474X0.074110X0.216697X-0.228976X0.004474X-0.074110X-0.216697X0*%
%ADD56C,4.000000*%
%ADD57R,3.800000X3.800000*%
%ADD58RotRect,0.254000X0.482600X330.000000*%
%ADD59RotRect,0.254000X0.482600X60.000000*%
%ADD60RoundRect,0.250000X0.600000X-0.400000X0.600000X0.400000X-0.600000X0.400000X-0.600000X-0.400000X0*%
%ADD61RotRect,1.000000X2.700000X150.000000*%
%ADD62RotRect,0.600000X1.700000X150.000000*%
%ADD63RotRect,1.750000X1.750000X240.000000*%
%ADD64RotRect,0.300000X0.800000X240.000000*%
%ADD65RotRect,0.300000X0.800000X330.000000*%
%ADD66C,2.500000*%
%ADD67RoundRect,0.200100X0.949900X-0.949900X0.949900X0.949900X-0.949900X0.949900X-0.949900X-0.949900X0*%
%ADD68RoundRect,0.150000X-0.277534X0.456214X-0.012244X-0.533860X0.277534X-0.456214X0.012244X0.533860X0*%
%ADD69RotRect,1.100000X2.400000X320.000000*%
%ADD70RotRect,0.620000X1.400000X320.000000*%
%ADD71C,0.950000*%
%ADD72O,1.700000X1.700000*%
%ADD73R,1.700000X1.700000*%
%ADD74RotRect,0.300000X1.475000X150.000000*%
%ADD75RotRect,0.300000X1.475000X240.000000*%
%ADD76RoundRect,0.135000X-0.082518X-0.213637X0.178282X-0.143756X0.082518X0.213637X-0.178282X0.143756X0*%
%ADD77RotRect,1.300000X1.100000X150.000000*%
%ADD78RoundRect,0.218750X0.317568X0.112544X-0.061318X0.331294X-0.317568X-0.112544X0.061318X-0.331294X0*%
%ADD79RoundRect,0.135000X0.135000X0.185000X-0.135000X0.185000X-0.135000X-0.185000X0.135000X-0.185000X0*%
%ADD80C,6.000000*%
%ADD81RoundRect,1.500000X-1.500000X1.500000X-1.500000X-1.500000X1.500000X-1.500000X1.500000X1.500000X0*%
%ADD82RoundRect,0.147500X-0.213989X-0.075639X0.041489X-0.223139X0.213989X0.075639X-0.041489X0.223139X0*%
%ADD83RotRect,0.650000X1.050000X240.000000*%
%ADD84C,5.600000*%
%ADD85C,3.600000*%
%ADD86C,3.200000*%
%ADD87RoundRect,0.225000X0.436237X0.030782X0.178127X0.399400X-0.436237X-0.030782X-0.178127X-0.399400X0*%
%ADD88RotRect,1.300000X1.100000X330.000000*%
%ADD89RoundRect,0.135000X0.209413X0.092715X-0.024413X0.227715X-0.209413X-0.092715X0.024413X-0.227715X0*%
%ADD90R,1.000000X0.750000*%
%ADD91HorizOval,0.900000X-0.327661X-0.229431X0.327661X0.229431X0*%
%ADD92HorizOval,0.900000X-0.450534X-0.315467X0.450534X0.315467X0*%
%ADD93C,0.600000*%
%ADD94RotRect,0.650000X1.050000X30.000000*%
%ADD95R,1.600000X1.050000*%
%ADD96R,0.920000X0.285000*%
%ADD97R,0.350000X0.400000*%
%ADD98R,0.500000X0.400000*%
%ADD99RotRect,0.300000X2.800000X240.000000*%
%ADD100RotRect,0.200000X0.450000X150.000000*%
%ADD101RoundRect,0.135000X-0.227715X0.024413X-0.092715X-0.209413X0.227715X-0.024413X0.092715X0.209413X0*%
%ADD102RotRect,0.200000X0.600000X60.000000*%
%ADD103RotRect,0.200000X1.600000X60.000000*%
G04 APERTURE END LIST*
%TO.C,AE401*%
G36*
X115787172Y-54964918D02*
G01*
X115537172Y-55397931D01*
X112125032Y-53427931D01*
X111275032Y-54900174D01*
X113561339Y-56220174D01*
X112061339Y-58818250D01*
X109775032Y-57498250D01*
X108925032Y-58970493D01*
X111211339Y-60290493D01*
X109711339Y-62888569D01*
X107425032Y-61568569D01*
X106575032Y-63040813D01*
X110818556Y-65490813D01*
X110568556Y-65923825D01*
X106325032Y-63473825D01*
X105625032Y-64686261D01*
X109868556Y-67136261D01*
X109418556Y-67915684D01*
X109207926Y-67794076D01*
X108552736Y-67415802D01*
X109276245Y-67415802D01*
X109290619Y-67464446D01*
X109319581Y-67503870D01*
X109359134Y-67532175D01*
X109405286Y-67547458D01*
X109454042Y-67547815D01*
X109501405Y-67531348D01*
X109509132Y-67526673D01*
X109540949Y-67495780D01*
X109564565Y-67453389D01*
X109576151Y-67407522D01*
X109576265Y-67386098D01*
X109562573Y-67339345D01*
X109533721Y-67298948D01*
X109494096Y-67268529D01*
X109448082Y-67251709D01*
X109411727Y-67250227D01*
X109365804Y-67264428D01*
X109325746Y-67293620D01*
X109295260Y-67333275D01*
X109278050Y-67378863D01*
X109276245Y-67415802D01*
X108552736Y-67415802D01*
X104742019Y-65215684D01*
X107242019Y-60885557D01*
X109528326Y-62205557D01*
X110528326Y-60473506D01*
X108242019Y-59153506D01*
X109592019Y-56815237D01*
X111878326Y-58135237D01*
X112878326Y-56403187D01*
X110592019Y-55083187D01*
X111942019Y-52744918D01*
X115787172Y-54964918D01*
G37*
%TO.C,OL101*%
G36*
X131697544Y-52062050D02*
G01*
X129597544Y-55699356D01*
X119410046Y-49818356D01*
X121510046Y-46181050D01*
X131697544Y-52062050D01*
G37*
G36*
X121268312Y-120062452D02*
G01*
X118946551Y-122116573D01*
X115219048Y-117903396D01*
X117540809Y-115849275D01*
X121268312Y-120062452D01*
G37*
D10*
X201049427Y-128135129D02*
G75*
G03*
X203049427Y-126135132I10J1999990D01*
G01*
X203049427Y-84251879D02*
G75*
G03*
X201049427Y-82251879I-2000000J0D01*
G01*
X180732402Y-81715981D02*
G75*
G03*
X182732402Y-82251879I2000025J3464202D01*
G01*
X143145813Y-138964958D02*
G75*
G03*
X146049427Y-137180726I903594J1784264D01*
G01*
X150049427Y-128135132D02*
G75*
G03*
X146049427Y-132135132I-34J-3999966D01*
G01*
X105709103Y-101518010D02*
G75*
G03*
X143145813Y-138964957I75840330J38382886D01*
G01*
X106893298Y-96500385D02*
G75*
G03*
X106153118Y-88016391I-2980924J4014217D01*
G01*
X105049428Y-86228478D02*
G75*
G03*
X106153118Y-88016389I2000083J52D01*
G01*
X106893299Y-96500386D02*
G75*
G03*
X105709105Y-101518010I2384816J-3211384D01*
G01*
G36*
X200949427Y-120826479D02*
G01*
X204049427Y-120826479D01*
X204049427Y-124351879D01*
X200949427Y-124351879D01*
X200949427Y-120826479D01*
G37*
G36*
X200949427Y-102826479D02*
G01*
X204049427Y-102826479D01*
X204049427Y-108451879D01*
X200949427Y-108451879D01*
X200949427Y-102826479D01*
G37*
G36*
X198249427Y-123626479D02*
G01*
X202449427Y-123626479D01*
X202449427Y-127151879D01*
X198249427Y-127151879D01*
X198249427Y-123626479D01*
G37*
G36*
X104049427Y-75151879D02*
G01*
X106049427Y-75151879D01*
X106049427Y-78251879D01*
X104049427Y-78251879D01*
X104049427Y-75151879D01*
G37*
X203049427Y-84251879D02*
X203049427Y-126135132D01*
X201049427Y-128135132D02*
X150049427Y-128135132D01*
X182732402Y-82251879D02*
X201049427Y-82251879D01*
X146049427Y-132135132D02*
X146049427Y-137180726D01*
X127199427Y-50801879D02*
X180732402Y-81715981D01*
X105049427Y-84151879D02*
X105049427Y-86228478D01*
X105049427Y-77051879D02*
X105049427Y-84151879D01*
%TO.C,T302*%
D11*
X194899866Y-108311547D02*
X195324866Y-108311547D01*
X195324866Y-113071547D01*
X194899866Y-113071547D01*
X194899866Y-113566547D01*
X193794866Y-113566547D01*
X193794866Y-113071547D01*
X190594866Y-113071547D01*
X190594866Y-112121547D01*
X191069866Y-112121547D01*
X191069866Y-109261547D01*
X190594866Y-109261547D01*
X190594866Y-108311547D01*
X193794866Y-108311547D01*
X193794866Y-107816547D01*
X194899866Y-107816547D01*
X194899866Y-108311547D01*
G36*
X194899866Y-108311547D02*
G01*
X195324866Y-108311547D01*
X195324866Y-113071547D01*
X194899866Y-113071547D01*
X194899866Y-113566547D01*
X193794866Y-113566547D01*
X193794866Y-113071547D01*
X190594866Y-113071547D01*
X190594866Y-112121547D01*
X191069866Y-112121547D01*
X191069866Y-109261547D01*
X190594866Y-109261547D01*
X190594866Y-108311547D01*
X193794866Y-108311547D01*
X193794866Y-107816547D01*
X194899866Y-107816547D01*
X194899866Y-108311547D01*
G37*
%TO.C,J203*%
X119086209Y-110380898D02*
X118070460Y-111092133D01*
X117668957Y-110518727D01*
X118684705Y-109807492D01*
X119086209Y-110380898D01*
G36*
X119086209Y-110380898D02*
G01*
X118070460Y-111092133D01*
X117668957Y-110518727D01*
X118684705Y-109807492D01*
X119086209Y-110380898D01*
G37*
X118627348Y-109725577D02*
X117611599Y-110436811D01*
X117210096Y-109863405D01*
X118225844Y-109152170D01*
X118627348Y-109725577D01*
G36*
X118627348Y-109725577D02*
G01*
X117611599Y-110436811D01*
X117210096Y-109863405D01*
X118225844Y-109152170D01*
X118627348Y-109725577D01*
G37*
X118168487Y-109070255D02*
X117152738Y-109781490D01*
X116923307Y-109453829D01*
X117939056Y-108742594D01*
X118168487Y-109070255D01*
G36*
X118168487Y-109070255D02*
G01*
X117152738Y-109781490D01*
X116923307Y-109453829D01*
X117939056Y-108742594D01*
X118168487Y-109070255D01*
G37*
X117881698Y-108660679D02*
X116865950Y-109371914D01*
X116636519Y-109044253D01*
X117652268Y-108333018D01*
X117881698Y-108660679D01*
G36*
X117881698Y-108660679D02*
G01*
X116865950Y-109371914D01*
X116636519Y-109044253D01*
X117652268Y-108333018D01*
X117881698Y-108660679D01*
G37*
X117594910Y-108251103D02*
X116579162Y-108962338D01*
X116349731Y-108634677D01*
X117365480Y-107923442D01*
X117594910Y-108251103D01*
G36*
X117594910Y-108251103D02*
G01*
X116579162Y-108962338D01*
X116349731Y-108634677D01*
X117365480Y-107923442D01*
X117594910Y-108251103D01*
G37*
X117308122Y-107841527D02*
X116292373Y-108552762D01*
X116062943Y-108225101D01*
X117078691Y-107513866D01*
X117308122Y-107841527D01*
G36*
X117308122Y-107841527D02*
G01*
X116292373Y-108552762D01*
X116062943Y-108225101D01*
X117078691Y-107513866D01*
X117308122Y-107841527D01*
G37*
X117021334Y-107431951D02*
X116005585Y-108143186D01*
X115776155Y-107815525D01*
X116791903Y-107104290D01*
X117021334Y-107431951D01*
G36*
X117021334Y-107431951D02*
G01*
X116005585Y-108143186D01*
X115776155Y-107815525D01*
X116791903Y-107104290D01*
X117021334Y-107431951D01*
G37*
X116734545Y-107022375D02*
X115718797Y-107733610D01*
X115489366Y-107405949D01*
X116505115Y-106694714D01*
X116734545Y-107022375D01*
G36*
X116734545Y-107022375D02*
G01*
X115718797Y-107733610D01*
X115489366Y-107405949D01*
X116505115Y-106694714D01*
X116734545Y-107022375D01*
G37*
X116447757Y-106612799D02*
X115432009Y-107324034D01*
X115202578Y-106996373D01*
X116218327Y-106285138D01*
X116447757Y-106612799D01*
G36*
X116447757Y-106612799D02*
G01*
X115432009Y-107324034D01*
X115202578Y-106996373D01*
X116218327Y-106285138D01*
X116447757Y-106612799D01*
G37*
X116160969Y-106203223D02*
X115145220Y-106914458D01*
X114915790Y-106586797D01*
X115931538Y-105875562D01*
X116160969Y-106203223D01*
G36*
X116160969Y-106203223D02*
G01*
X115145220Y-106914458D01*
X114915790Y-106586797D01*
X115931538Y-105875562D01*
X116160969Y-106203223D01*
G37*
X115874181Y-105793647D02*
X114858432Y-106504882D01*
X114456929Y-105931475D01*
X115472677Y-105220240D01*
X115874181Y-105793647D01*
G36*
X115874181Y-105793647D02*
G01*
X114858432Y-106504882D01*
X114456929Y-105931475D01*
X115472677Y-105220240D01*
X115874181Y-105793647D01*
G37*
X115415320Y-105138325D02*
X114399571Y-105849560D01*
X113998068Y-105276154D01*
X115013816Y-104564919D01*
X115415320Y-105138325D01*
G36*
X115415320Y-105138325D02*
G01*
X114399571Y-105849560D01*
X113998068Y-105276154D01*
X115013816Y-104564919D01*
X115415320Y-105138325D01*
G37*
%TO.C,T301*%
X194899865Y-101411546D02*
X195324865Y-101411546D01*
X195324865Y-106171546D01*
X194899865Y-106171546D01*
X194899865Y-106666546D01*
X193794865Y-106666546D01*
X193794865Y-106171546D01*
X190594865Y-106171546D01*
X190594865Y-105221546D01*
X191069865Y-105221546D01*
X191069865Y-102361546D01*
X190594865Y-102361546D01*
X190594865Y-101411546D01*
X193794865Y-101411546D01*
X193794865Y-100916546D01*
X194899865Y-100916546D01*
X194899865Y-101411546D01*
G36*
X194899865Y-101411546D02*
G01*
X195324865Y-101411546D01*
X195324865Y-106171546D01*
X194899865Y-106171546D01*
X194899865Y-106666546D01*
X193794865Y-106666546D01*
X193794865Y-106171546D01*
X190594865Y-106171546D01*
X190594865Y-105221546D01*
X191069865Y-105221546D01*
X191069865Y-102361546D01*
X190594865Y-102361546D01*
X190594865Y-101411546D01*
X193794865Y-101411546D01*
X193794865Y-100916546D01*
X194899865Y-100916546D01*
X194899865Y-101411546D01*
G37*
%TD*%
D12*
%TO.C,C312*%
X170088779Y-119491547D03*
X171048779Y-119491547D03*
%TD*%
D13*
%TO.C,C410*%
X120969689Y-65693539D03*
X120138305Y-65213539D03*
%TD*%
D14*
%TO.C,D302*%
X169861417Y-111572770D03*
X171436417Y-111572770D03*
%TD*%
D15*
%TO.C,IC202*%
X147292773Y-72340620D03*
X146657773Y-73440472D03*
X146022773Y-74540324D03*
X145387773Y-75640176D03*
X140711235Y-72940176D03*
X141346235Y-71840324D03*
X141981235Y-70740472D03*
X142616235Y-69640620D03*
%TD*%
D16*
%TO.C,L305*%
X171968782Y-114141549D03*
X171968782Y-117841549D03*
%TD*%
D17*
%TO.C,U206*%
X148165630Y-108703789D03*
X148415630Y-108270777D03*
D18*
X148682705Y-107833189D03*
X149115718Y-108083189D03*
X149548730Y-108333189D03*
X149981743Y-108583189D03*
D17*
X149736318Y-109033277D03*
X149486318Y-109466289D03*
D18*
X149219243Y-109903877D03*
X148786230Y-109653877D03*
X148353218Y-109403877D03*
X147920205Y-109153877D03*
%TD*%
D19*
%TO.C,C218*%
X153443858Y-92086622D03*
X152963858Y-92918006D03*
%TD*%
%TO.C,C206*%
X130953034Y-81641879D03*
X130473034Y-82473263D03*
%TD*%
%TO.C,C222*%
X141884052Y-111508802D03*
X141404052Y-112340186D03*
%TD*%
D20*
%TO.C,R211*%
X144477636Y-115061577D03*
X143594290Y-114551577D03*
%TD*%
D21*
%TO.C,C204*%
X200142365Y-117461550D03*
X200142365Y-116501550D03*
%TD*%
D20*
%TO.C,R214*%
X120280095Y-84347957D03*
X119396749Y-83837957D03*
%TD*%
D22*
%TO.C,S201*%
X196182758Y-118629686D03*
X192032758Y-118629686D03*
X196182758Y-116479686D03*
X192032758Y-116479686D03*
%TD*%
D23*
%TO.C,R204*%
X152244502Y-112963982D03*
X152754502Y-112080636D03*
%TD*%
D20*
%TO.C,R404*%
X116985863Y-72053726D03*
X116102517Y-71543726D03*
%TD*%
D24*
%TO.C,C302*%
X181868779Y-121711548D03*
X181868779Y-122671548D03*
%TD*%
D12*
%TO.C,C304*%
X179888779Y-119491549D03*
X180848779Y-119491549D03*
%TD*%
D25*
%TO.C,C229*%
X126794056Y-106445437D03*
X127274056Y-105614053D03*
%TD*%
%TO.C,C408*%
X120393179Y-68282080D03*
X120873179Y-67450696D03*
%TD*%
D26*
%TO.C,C319*%
X165468782Y-116666547D03*
X165468782Y-115116547D03*
%TD*%
D27*
%TO.C,R309*%
X167768782Y-121001550D03*
X167768782Y-119981550D03*
%TD*%
D28*
%TO.C,C203*%
X115906182Y-103068262D03*
X115426182Y-102236878D03*
%TD*%
D27*
%TO.C,R312*%
X199642364Y-111101543D03*
X199642364Y-110081543D03*
%TD*%
D29*
%TO.C,U202*%
X116836191Y-86940795D03*
X117753820Y-86694917D03*
X118671450Y-86449039D03*
X119260263Y-88646521D03*
X118342634Y-88892399D03*
X117425004Y-89138277D03*
%TD*%
D21*
%TO.C,C308*%
X156868780Y-118891548D03*
X156868780Y-117931548D03*
%TD*%
D30*
%TO.C,R407*%
X125888864Y-77413272D03*
X125378864Y-78296618D03*
%TD*%
D31*
%TO.C,U401*%
X128824779Y-69478121D03*
D32*
X128722054Y-71656045D03*
X128289042Y-71406045D03*
X127856029Y-71156045D03*
X127423016Y-70906045D03*
X126990004Y-70656045D03*
D33*
X126646855Y-69375396D03*
X126896855Y-68942384D03*
X127146855Y-68509371D03*
X127396855Y-68076358D03*
X127646855Y-67643346D03*
D32*
X128927504Y-67300197D03*
X129360516Y-67550197D03*
X129793529Y-67800197D03*
X130226542Y-68050197D03*
X130659554Y-68300197D03*
D33*
X131002703Y-69580846D03*
X130752703Y-70013858D03*
X130502703Y-70446871D03*
X130252703Y-70879884D03*
X130002703Y-71312896D03*
%TD*%
D34*
%TO.C,S401*%
X121757028Y-69519828D03*
D35*
X122087050Y-69918213D03*
X121837050Y-70351225D03*
D34*
X121327028Y-70264610D03*
D35*
X120997006Y-69866225D03*
X121247006Y-69433213D03*
%TD*%
D19*
%TO.C,C228*%
X151223028Y-108933225D03*
X150743028Y-109764609D03*
%TD*%
D24*
%TO.C,C321*%
X172068777Y-121711542D03*
X172068777Y-122671542D03*
%TD*%
D36*
%TO.C,C301*%
X183268781Y-121416547D03*
X183268781Y-122966547D03*
%TD*%
D27*
%TO.C,R301*%
X177568781Y-119001549D03*
X177568781Y-117981549D03*
%TD*%
D37*
%TO.C,R303*%
X180158917Y-110272763D03*
X179138917Y-110272763D03*
%TD*%
D36*
%TO.C,C313*%
X173468783Y-121416545D03*
X173468783Y-122966545D03*
%TD*%
D38*
%TO.C,J204*%
X158227886Y-108832266D03*
X156028181Y-107562266D03*
X159497886Y-106632561D03*
X157298181Y-105362561D03*
X160767886Y-104432857D03*
X158568181Y-103162857D03*
X162037886Y-102233152D03*
D39*
X159838181Y-100963152D03*
%TD*%
D19*
%TO.C,C208*%
X130087007Y-81141884D03*
X129607007Y-81973268D03*
%TD*%
D40*
%TO.C,J205*%
X116297724Y-96013774D03*
X115070998Y-96342474D03*
X115969024Y-94787048D03*
X114742298Y-95115748D03*
X115640324Y-93560322D03*
X114413598Y-93889022D03*
X115311623Y-92333596D03*
X114084898Y-92662296D03*
X114982923Y-91106870D03*
X113756197Y-91435571D03*
X114654223Y-89880145D03*
X113427497Y-90208845D03*
X114325523Y-88653419D03*
D41*
X113098797Y-88982119D03*
%TD*%
D20*
%TO.C,R401*%
X126590623Y-71767797D03*
X125707277Y-71257797D03*
%TD*%
D42*
%TO.C,C417*%
X114859258Y-79717124D03*
X115690642Y-80197124D03*
%TD*%
D27*
%TO.C,R302*%
X177568783Y-121001547D03*
X177568783Y-119981547D03*
%TD*%
D43*
%TO.C,L401*%
X125141579Y-67657618D03*
X124656579Y-68497662D03*
%TD*%
D44*
%TO.C,SH401*%
X122568916Y-59613590D03*
D45*
X128081168Y-62796090D03*
D44*
X133610740Y-65988590D03*
D46*
X134018425Y-68862458D03*
D47*
X131083425Y-73946027D03*
D46*
X128138425Y-79046916D03*
D44*
X125445740Y-80130784D03*
D45*
X119916168Y-76938284D03*
D44*
X114403916Y-73755784D03*
D46*
X113996231Y-70881916D03*
D47*
X116941231Y-65781027D03*
D46*
X119876231Y-60697458D03*
%TD*%
D23*
%TO.C,R209*%
X147730722Y-75382072D03*
X148240722Y-74498726D03*
%TD*%
D25*
%TO.C,C414*%
X120670677Y-75601440D03*
X121150677Y-74770056D03*
%TD*%
D42*
%TO.C,C407*%
X128158128Y-72672800D03*
X128989512Y-73152800D03*
%TD*%
D48*
%TO.C,U301*%
X169368780Y-121691548D03*
D49*
X169190980Y-120866048D03*
D50*
X169673580Y-120789848D03*
X170168880Y-120789848D03*
D51*
X170651480Y-120866048D03*
D52*
X170651480Y-122517048D03*
D50*
X170168880Y-122593248D03*
X169673580Y-122593248D03*
D53*
X169190980Y-122517048D03*
%TD*%
D16*
%TO.C,L301*%
X181768782Y-114141547D03*
X181768782Y-117841547D03*
%TD*%
D26*
%TO.C,C320*%
X167068782Y-116666544D03*
X167068782Y-115116544D03*
%TD*%
D23*
%TO.C,R208*%
X157257002Y-80882070D03*
X157767002Y-79998724D03*
%TD*%
D27*
%TO.C,R310*%
X157968779Y-118901550D03*
X157968779Y-117881550D03*
%TD*%
D26*
%TO.C,C314*%
X175268778Y-116766547D03*
X175268778Y-115216547D03*
%TD*%
D42*
%TO.C,C401*%
X127658128Y-73538823D03*
X128489512Y-74018823D03*
%TD*%
D26*
%TO.C,C315*%
X176868784Y-116766549D03*
X176868784Y-115216549D03*
%TD*%
D19*
%TO.C,C207*%
X128203031Y-86405017D03*
X127723031Y-87236401D03*
%TD*%
D13*
%TO.C,C225*%
X124424879Y-105908977D03*
X123593495Y-105428977D03*
%TD*%
D30*
%TO.C,R402*%
X125720228Y-63055357D03*
X125210228Y-63938703D03*
%TD*%
D54*
%TO.C,R313*%
X198542362Y-100781548D03*
X198542362Y-101801548D03*
%TD*%
D13*
%TO.C,C231*%
X151131730Y-111051353D03*
X150300346Y-110571353D03*
%TD*%
D55*
%TO.C,R201*%
X116622660Y-104426358D03*
X117207708Y-105261894D03*
%TD*%
D26*
%TO.C,C305*%
X186668779Y-116766549D03*
X186668779Y-115216549D03*
%TD*%
D25*
%TO.C,C235*%
X154312897Y-93581407D03*
X154792897Y-92750023D03*
%TD*%
D36*
%TO.C,C316*%
X163668779Y-121316552D03*
X163668779Y-122866552D03*
%TD*%
D42*
%TO.C,C238*%
X124041122Y-91253662D03*
X124872506Y-91733662D03*
%TD*%
D14*
%TO.C,D304*%
X160861419Y-111572766D03*
X162436419Y-111572766D03*
%TD*%
D56*
%TO.C,J310*%
X186942364Y-100691544D03*
D57*
X186942364Y-105691544D03*
%TD*%
D58*
%TO.C,U204*%
X125295724Y-102540628D03*
X125728736Y-102790628D03*
X126161748Y-103040627D03*
D59*
X126672346Y-103569247D03*
X126422346Y-104002261D03*
X126172346Y-104435273D03*
X125922345Y-104868287D03*
D58*
X125209248Y-104690406D03*
X124776236Y-104440406D03*
X124343224Y-104190407D03*
D59*
X123832626Y-103661787D03*
X124082626Y-103228773D03*
X124332626Y-102795761D03*
X124582627Y-102362747D03*
%TD*%
D43*
%TO.C,L404*%
X126141576Y-65925569D03*
X125656576Y-66765613D03*
%TD*%
D60*
%TO.C,D303*%
X185668780Y-121047588D03*
X185668780Y-124547588D03*
%TD*%
D61*
%TO.C,J212*%
X169965672Y-76020013D03*
X165678846Y-73545013D03*
D62*
X165680993Y-77241294D03*
X166763525Y-77866294D03*
%TD*%
D43*
%TO.C,L403*%
X126507600Y-67291591D03*
X126022600Y-68131635D03*
%TD*%
D63*
%TO.C,U402*%
X123636514Y-73064463D03*
D64*
X125310552Y-73164944D03*
X125060552Y-73597957D03*
X124810552Y-74030969D03*
X124560552Y-74463982D03*
D65*
X123536033Y-74738501D03*
X123103020Y-74488501D03*
X122670008Y-74238501D03*
X122236995Y-73988501D03*
D64*
X121962476Y-72963982D03*
X122212476Y-72530969D03*
X122462476Y-72097957D03*
X122712476Y-71664944D03*
D65*
X123736995Y-71390425D03*
X124170008Y-71640425D03*
X124603020Y-71890425D03*
X125036033Y-72140425D03*
%TD*%
D66*
%TO.C,J401*%
X111082523Y-77918018D03*
X106002523Y-77918018D03*
X111082523Y-82998018D03*
X106002523Y-82998018D03*
D67*
X108542523Y-80458018D03*
%TD*%
D68*
%TO.C,U203*%
X120993978Y-94843637D03*
X120076349Y-95089515D03*
X119158719Y-95335393D03*
X118569906Y-93137911D03*
X119487535Y-92892033D03*
X120405165Y-92646155D03*
%TD*%
D42*
%TO.C,C202*%
X149770220Y-101489561D03*
X150601604Y-101969561D03*
%TD*%
D61*
%TO.C,J211*%
X162171442Y-71520012D03*
X157884616Y-69045012D03*
D62*
X157886763Y-72741293D03*
X158969295Y-73366293D03*
%TD*%
D69*
%TO.C,J201*%
X142708152Y-122774333D03*
X136923063Y-129668732D03*
X124551446Y-119287713D03*
X130336534Y-112393313D03*
D70*
X132679251Y-111748271D03*
X133521900Y-112455337D03*
X134364549Y-113162403D03*
X135207197Y-113869470D03*
X136049846Y-114576536D03*
X136892495Y-115283602D03*
X137735144Y-115990669D03*
X138577793Y-116697735D03*
X139420442Y-117404802D03*
D71*
X132922456Y-126860096D03*
X127866563Y-122617697D03*
%TD*%
D13*
%TO.C,C237*%
X139599046Y-77026552D03*
X138767662Y-76546552D03*
%TD*%
D42*
%TO.C,C214*%
X137208813Y-75646550D03*
X138040197Y-76126550D03*
%TD*%
D61*
%TO.C,J209*%
X146582983Y-62520013D03*
X142296157Y-60045013D03*
D62*
X142298304Y-63741294D03*
X143380836Y-64366294D03*
%TD*%
D21*
%TO.C,C323*%
X156868777Y-120871547D03*
X156868777Y-119911547D03*
%TD*%
D13*
%TO.C,C404*%
X124290734Y-67091328D03*
X123459350Y-66611328D03*
%TD*%
D25*
%TO.C,C232*%
X122573294Y-84956018D03*
X123053294Y-84124634D03*
%TD*%
D72*
%TO.C,J207*%
X153747828Y-124580131D03*
X153747828Y-122040131D03*
X153747828Y-119500131D03*
D73*
X153747828Y-116960131D03*
%TD*%
D25*
%TO.C,C223*%
X156072001Y-82934551D03*
X156552001Y-82103167D03*
%TD*%
%TO.C,C236*%
X155178922Y-94081409D03*
X155658922Y-93250025D03*
%TD*%
D20*
%TO.C,R215*%
X120875092Y-83317385D03*
X119991746Y-82807385D03*
%TD*%
D42*
%TO.C,C209*%
X123341123Y-92466098D03*
X124172507Y-92946098D03*
%TD*%
D15*
%TO.C,IC203*%
X156819053Y-77840620D03*
X156184053Y-78940472D03*
X155549053Y-80040324D03*
X154914053Y-81140176D03*
X150237515Y-78440176D03*
X150872515Y-77340324D03*
X151507515Y-76240472D03*
X152142515Y-75140620D03*
%TD*%
D13*
%TO.C,C220*%
X144689277Y-127770001D03*
X143857893Y-127290001D03*
%TD*%
D19*
%TO.C,C234*%
X155359883Y-90767971D03*
X154879883Y-91599355D03*
%TD*%
D74*
%TO.C,U201*%
X141823865Y-104913046D03*
X141390853Y-104663046D03*
X140957840Y-104413046D03*
X140524827Y-104163046D03*
X140091814Y-103913046D03*
X139658802Y-103663046D03*
X139225789Y-103413046D03*
X138792776Y-103163046D03*
X138359764Y-102913046D03*
X137926751Y-102663046D03*
X137493738Y-102413046D03*
X137060726Y-102163046D03*
X136627713Y-101913046D03*
X136194700Y-101663046D03*
X135761687Y-101413046D03*
X135328675Y-101163046D03*
X134895662Y-100913046D03*
X134462649Y-100663046D03*
X134029637Y-100413046D03*
X133596624Y-100163046D03*
X133163611Y-99913046D03*
X132730599Y-99663046D03*
X132297586Y-99413046D03*
X131864573Y-99163046D03*
X131431560Y-98913046D03*
X130998548Y-98663046D03*
X130565535Y-98413046D03*
X130132522Y-98163046D03*
X129699510Y-97913046D03*
X129266497Y-97663046D03*
X128833484Y-97413046D03*
X128400472Y-97163046D03*
X127967459Y-96913046D03*
X127534446Y-96663046D03*
X127101433Y-96413046D03*
X126668421Y-96163046D03*
D75*
X125940762Y-93447387D03*
X126190762Y-93014375D03*
X126440762Y-92581362D03*
X126690762Y-92148349D03*
X126940762Y-91715336D03*
X127190762Y-91282324D03*
X127440762Y-90849311D03*
X127690762Y-90416298D03*
X127940762Y-89983286D03*
X128190762Y-89550273D03*
X128440762Y-89117260D03*
X128690762Y-88684248D03*
X128940762Y-88251235D03*
X129190762Y-87818222D03*
X129440762Y-87385209D03*
X129690762Y-86952197D03*
X129940762Y-86519184D03*
X130190762Y-86086171D03*
X130440762Y-85653159D03*
X130690762Y-85220146D03*
X130940762Y-84787133D03*
X131190762Y-84354121D03*
X131440762Y-83921108D03*
X131690762Y-83488095D03*
X131940762Y-83055082D03*
X132190762Y-82622070D03*
X132440762Y-82189057D03*
X132690762Y-81756044D03*
X132940762Y-81323032D03*
X133190762Y-80890019D03*
X133440762Y-80457006D03*
X133690762Y-80023994D03*
X133940762Y-79590981D03*
X134190762Y-79157968D03*
X134440762Y-78724955D03*
X134690762Y-78291943D03*
D74*
X137406421Y-77564284D03*
X137839433Y-77814284D03*
X138272446Y-78064284D03*
X138705459Y-78314284D03*
X139138472Y-78564284D03*
X139571484Y-78814284D03*
X140004497Y-79064284D03*
X140437510Y-79314284D03*
X140870522Y-79564284D03*
X141303535Y-79814284D03*
X141736548Y-80064284D03*
X142169560Y-80314284D03*
X142602573Y-80564284D03*
X143035586Y-80814284D03*
X143468599Y-81064284D03*
X143901611Y-81314284D03*
X144334624Y-81564284D03*
X144767637Y-81814284D03*
X145200649Y-82064284D03*
X145633662Y-82314284D03*
X146066675Y-82564284D03*
X146499687Y-82814284D03*
X146932700Y-83064284D03*
X147365713Y-83314284D03*
X147798726Y-83564284D03*
X148231738Y-83814284D03*
X148664751Y-84064284D03*
X149097764Y-84314284D03*
X149530776Y-84564284D03*
X149963789Y-84814284D03*
X150396802Y-85064284D03*
X150829814Y-85314284D03*
X151262827Y-85564284D03*
X151695840Y-85814284D03*
X152128853Y-86064284D03*
X152561865Y-86314284D03*
D75*
X153289524Y-89029943D03*
X153039524Y-89462955D03*
X152789524Y-89895968D03*
X152539524Y-90328981D03*
X152289524Y-90761994D03*
X152039524Y-91195006D03*
X151789524Y-91628019D03*
X151539524Y-92061032D03*
X151289524Y-92494044D03*
X151039524Y-92927057D03*
X150789524Y-93360070D03*
X150539524Y-93793082D03*
X150289524Y-94226095D03*
X150039524Y-94659108D03*
X149789524Y-95092121D03*
X149539524Y-95525133D03*
X149289524Y-95958146D03*
X149039524Y-96391159D03*
X148789524Y-96824171D03*
X148539524Y-97257184D03*
X148289524Y-97690197D03*
X148039524Y-98123209D03*
X147789524Y-98556222D03*
X147539524Y-98989235D03*
X147289524Y-99422248D03*
X147039524Y-99855260D03*
X146789524Y-100288273D03*
X146539524Y-100721286D03*
X146289524Y-101154298D03*
X146039524Y-101587311D03*
X145789524Y-102020324D03*
X145539524Y-102453336D03*
X145289524Y-102886349D03*
X145039524Y-103319362D03*
X144789524Y-103752375D03*
X144539524Y-104185387D03*
%TD*%
D27*
%TO.C,R311*%
X157968781Y-120901549D03*
X157968781Y-119881549D03*
%TD*%
D56*
%TO.C,J309*%
X178542361Y-100691548D03*
D57*
X178542361Y-105691548D03*
%TD*%
D27*
%TO.C,R315*%
X198542363Y-111101547D03*
X198542363Y-110081547D03*
%TD*%
D19*
%TO.C,C406*%
X127351382Y-72230116D03*
X126871382Y-73061500D03*
%TD*%
D21*
%TO.C,C310*%
X176468781Y-120971547D03*
X176468781Y-120011547D03*
%TD*%
D56*
%TO.C,J302*%
X170142366Y-100691551D03*
D57*
X170142366Y-105691551D03*
%TD*%
D19*
%TO.C,C227*%
X149871169Y-75474706D03*
X149391169Y-76306090D03*
%TD*%
D42*
%TO.C,C403*%
X122459344Y-68343377D03*
X123290728Y-68823377D03*
%TD*%
D43*
%TO.C,L405*%
X115784433Y-78074668D03*
X115299433Y-78914712D03*
%TD*%
D76*
%TO.C,R203*%
X144513667Y-108154171D03*
X143528423Y-108418167D03*
%TD*%
D26*
%TO.C,C306*%
X185068781Y-116766546D03*
X185068781Y-115216546D03*
%TD*%
D27*
%TO.C,R206*%
X199042362Y-117491544D03*
X199042362Y-116471544D03*
%TD*%
D19*
%TO.C,C233*%
X154493862Y-90267972D03*
X154013862Y-91099356D03*
%TD*%
D77*
%TO.C,Y402*%
X122200825Y-64701149D03*
X120382171Y-63651149D03*
X121207171Y-62222207D03*
X123025825Y-63272207D03*
%TD*%
D37*
%TO.C,R304*%
X171158917Y-110272765D03*
X170138917Y-110272765D03*
%TD*%
D13*
%TO.C,C212*%
X153109041Y-84826552D03*
X152277657Y-84346552D03*
%TD*%
D57*
%TO.C,J306*%
X178542368Y-87669384D03*
D56*
X178542368Y-92669384D03*
%TD*%
D54*
%TO.C,R314*%
X199642363Y-100781544D03*
X199642363Y-101801544D03*
%TD*%
D78*
%TO.C,D203*%
X145303973Y-111035328D03*
X146667963Y-111822828D03*
%TD*%
D42*
%TO.C,C413*%
X121544024Y-76128759D03*
X122375408Y-76608759D03*
%TD*%
D79*
%TO.C,R307*%
X185158783Y-119547585D03*
X186178783Y-119547585D03*
%TD*%
D80*
%TO.C,J301*%
X196782834Y-95296321D03*
D81*
X196782834Y-88096321D03*
%TD*%
D19*
%TO.C,C230*%
X152089050Y-109433225D03*
X151609050Y-110264609D03*
%TD*%
D12*
%TO.C,C318*%
X160288783Y-119391550D03*
X161248783Y-119391550D03*
%TD*%
D13*
%TO.C,C215*%
X141415256Y-106480775D03*
X140583872Y-106000775D03*
%TD*%
D25*
%TO.C,C213*%
X149487257Y-98739663D03*
X149967257Y-97908279D03*
%TD*%
D48*
%TO.C,U303*%
X179168779Y-121691547D03*
D49*
X178990979Y-120866047D03*
D50*
X179473579Y-120789847D03*
X179968879Y-120789847D03*
D51*
X180451479Y-120866047D03*
D52*
X180451479Y-122517047D03*
D50*
X179968879Y-122593247D03*
X179473579Y-122593247D03*
D53*
X178990979Y-122517047D03*
%TD*%
D82*
%TO.C,L402*%
X119781661Y-75111257D03*
X118941617Y-74626257D03*
%TD*%
D19*
%TO.C,C409*%
X125764778Y-74778198D03*
X125284778Y-75609582D03*
%TD*%
D24*
%TO.C,C311*%
X168968782Y-118611552D03*
X168968782Y-119571552D03*
%TD*%
D83*
%TO.C,S202*%
X139408201Y-131447099D03*
X143002207Y-133522099D03*
X138333201Y-133309053D03*
X141927207Y-135384053D03*
%TD*%
D21*
%TO.C,C324*%
X166668780Y-120971545D03*
X166668780Y-120011545D03*
%TD*%
D48*
%TO.C,U302*%
X159568781Y-121591548D03*
D49*
X159390981Y-120766048D03*
D50*
X159873581Y-120689848D03*
X160368881Y-120689848D03*
D51*
X160851481Y-120766048D03*
D52*
X160851481Y-122417048D03*
D50*
X160368881Y-122493248D03*
X159873581Y-122493248D03*
D53*
X159390981Y-122417048D03*
%TD*%
D24*
%TO.C,C221*%
X200142365Y-118511545D03*
X200142365Y-119471545D03*
%TD*%
D20*
%TO.C,R213*%
X143177638Y-117313240D03*
X142294292Y-116803240D03*
%TD*%
D22*
%TO.C,S204*%
X196182756Y-124929689D03*
X192032756Y-124929689D03*
X196182756Y-122779689D03*
X192032756Y-122779689D03*
%TD*%
D84*
%TO.C,OL101*%
X119299077Y-118044467D03*
D85*
X119299077Y-118044467D03*
D84*
X201041077Y-123635467D03*
D85*
X201041077Y-123635467D03*
D84*
X201041077Y-105635467D03*
D85*
X201041077Y-105635467D03*
D84*
X127190077Y-54272467D03*
D85*
X127190077Y-54272467D03*
D86*
X119396077Y-49772467D03*
%TD*%
D42*
%TO.C,C210*%
X130018363Y-99900774D03*
X130849747Y-100380774D03*
%TD*%
D56*
%TO.C,J305*%
X186942364Y-92669384D03*
D57*
X186942364Y-87669384D03*
%TD*%
D13*
%TO.C,C219*%
X143649749Y-78210524D03*
X142818365Y-77730524D03*
%TD*%
D87*
%TO.C,D201*%
X121390073Y-110272195D03*
X123282875Y-112975397D03*
%TD*%
D88*
%TO.C,X202*%
X148539084Y-102481948D03*
X150357738Y-103531948D03*
X149532738Y-104960890D03*
X147714084Y-103910890D03*
%TD*%
D23*
%TO.C,R406*%
X126326496Y-78855279D03*
X126836496Y-77971933D03*
%TD*%
D14*
%TO.C,D301*%
X178861422Y-111572766D03*
X180436422Y-111572766D03*
%TD*%
D27*
%TO.C,R308*%
X167768780Y-119001551D03*
X167768780Y-117981551D03*
%TD*%
D24*
%TO.C,C317*%
X159168781Y-118511548D03*
X159168781Y-119471548D03*
%TD*%
D42*
%TO.C,C411*%
X122438305Y-61229821D03*
X123269689Y-61709821D03*
%TD*%
D89*
%TO.C,R207*%
X144331913Y-126408978D03*
X145215259Y-126918978D03*
%TD*%
D24*
%TO.C,C322*%
X162268781Y-121611548D03*
X162268781Y-122571548D03*
%TD*%
D54*
%TO.C,R210*%
X199042364Y-118471551D03*
X199042364Y-119491551D03*
%TD*%
D42*
%TO.C,C412*%
X126292104Y-73904850D03*
X127123488Y-74384850D03*
%TD*%
D56*
%TO.C,J307*%
X170142369Y-92669385D03*
D57*
X170142369Y-87669385D03*
%TD*%
D42*
%TO.C,C211*%
X129518364Y-100766800D03*
X130349748Y-101246800D03*
%TD*%
D21*
%TO.C,C309*%
X166668780Y-118991548D03*
X166668780Y-118031548D03*
%TD*%
D90*
%TO.C,T302*%
X196689866Y-108786547D03*
X196689866Y-110056547D03*
X196689866Y-111326547D03*
X196689866Y-112596547D03*
%TD*%
D42*
%TO.C,C201*%
X153606821Y-95044364D03*
X154438205Y-95524364D03*
%TD*%
D91*
%TO.C,J203*%
X115131884Y-114095847D03*
X110170448Y-107010181D03*
D92*
X118547748Y-111704033D03*
X113586312Y-104618368D03*
D93*
X117323281Y-110809602D03*
X114008010Y-106074903D03*
%TD*%
D61*
%TO.C,J208*%
X138788755Y-58020014D03*
X134501929Y-55545014D03*
D62*
X134504076Y-59241295D03*
X135586608Y-59866295D03*
%TD*%
D94*
%TO.C,S203*%
X110081547Y-103711364D03*
X108006547Y-100117358D03*
X111943501Y-102636364D03*
X109868501Y-99042358D03*
%TD*%
D78*
%TO.C,D202*%
X143993146Y-113280740D03*
X145357136Y-114068240D03*
%TD*%
D19*
%TO.C,C226*%
X140258286Y-69924705D03*
X139778286Y-70756089D03*
%TD*%
D13*
%TO.C,C205*%
X143149747Y-79076549D03*
X142318363Y-78596549D03*
%TD*%
D20*
%TO.C,R212*%
X145777639Y-112809907D03*
X144894293Y-112299907D03*
%TD*%
%TO.C,R403*%
X117485863Y-71187701D03*
X116602517Y-70677701D03*
%TD*%
D42*
%TO.C,C416*%
X116259253Y-77292250D03*
X117090637Y-77772250D03*
%TD*%
D95*
%TO.C,Q302*%
X188268780Y-121122586D03*
D96*
X188268780Y-122097586D03*
D97*
X189243780Y-120797586D03*
X189243780Y-121447586D03*
D98*
X189168780Y-122097586D03*
X187368780Y-122097586D03*
D97*
X187293780Y-121447586D03*
X187293780Y-120797586D03*
%TD*%
D42*
%TO.C,C216*%
X134781505Y-102650777D03*
X135612889Y-103130777D03*
%TD*%
D61*
%TO.C,J210*%
X154377214Y-67020011D03*
X150090388Y-64545011D03*
D62*
X150092535Y-68241292D03*
X151175067Y-68866292D03*
%TD*%
D30*
%TO.C,FB201*%
X156240911Y-91241988D03*
X155730911Y-92125334D03*
%TD*%
D13*
%TO.C,C402*%
X123790729Y-67957349D03*
X122959345Y-67477349D03*
%TD*%
D16*
%TO.C,L303*%
X162168784Y-114041547D03*
X162168784Y-117741547D03*
%TD*%
D56*
%TO.C,J308*%
X161742362Y-92669384D03*
D57*
X161742362Y-87669384D03*
%TD*%
D55*
%TO.C,R202*%
X118630174Y-107293391D03*
X119215222Y-108128927D03*
%TD*%
D25*
%TO.C,C415*%
X118072602Y-74101437D03*
X118552602Y-73270053D03*
%TD*%
D24*
%TO.C,C303*%
X178768779Y-118611547D03*
X178768779Y-119571547D03*
%TD*%
D25*
%TO.C,C224*%
X146535720Y-77451871D03*
X147015720Y-76620487D03*
%TD*%
D88*
%TO.C,X201*%
X152375686Y-96036751D03*
X154194340Y-97086751D03*
X153369340Y-98515693D03*
X151550686Y-97465693D03*
%TD*%
D13*
%TO.C,C405*%
X124790733Y-66225303D03*
X123959349Y-65745303D03*
%TD*%
D89*
%TO.C,R405*%
X115602515Y-72409752D03*
X116485861Y-72919752D03*
%TD*%
D78*
%TO.C,D204*%
X142693146Y-115532408D03*
X144057136Y-116319908D03*
%TD*%
D99*
%TO.C,FL201*%
X139110268Y-109913129D03*
D100*
X140035204Y-111111094D03*
X139688793Y-110911094D03*
X139342383Y-110711094D03*
X138995973Y-110511094D03*
X138649563Y-110311094D03*
X138303153Y-110111094D03*
X137956743Y-109911094D03*
X137610332Y-109711094D03*
X138185332Y-108715164D03*
X138531743Y-108915164D03*
X138878153Y-109115164D03*
X139224563Y-109315164D03*
X139570973Y-109515164D03*
X139917383Y-109715164D03*
X140263793Y-109915164D03*
X140610204Y-110115164D03*
%TD*%
D13*
%TO.C,C217*%
X147479874Y-81576549D03*
X146648490Y-81096549D03*
%TD*%
D21*
%TO.C,C307*%
X176468780Y-118991548D03*
X176468780Y-118031548D03*
%TD*%
D101*
%TO.C,R205*%
X116787210Y-102594241D03*
X116277210Y-101710895D03*
%TD*%
D102*
%TO.C,U211*%
X125091751Y-85393919D03*
X124691751Y-86086739D03*
X123825725Y-85586739D03*
D103*
X124458738Y-85490329D03*
D102*
X124225725Y-84893919D03*
%TD*%
D90*
%TO.C,T301*%
X196689865Y-101886546D03*
X196689865Y-103156546D03*
X196689865Y-104426546D03*
X196689865Y-105696546D03*
%TD*%
D37*
%TO.C,R305*%
X162158917Y-110282765D03*
X161138917Y-110282765D03*
%TD*%
M02*
