%TF.GenerationSoftware,KiCad,Pcbnew,7.0.9*%
%TF.CreationDate,2024-01-28T09:25:02+00:00*%
%TF.ProjectId,main_PCB_v1,6d61696e-5f50-4434-925f-76312e6b6963,rev?*%
%TF.SameCoordinates,Original*%
%TF.FileFunction,Legend,Top*%
%TF.FilePolarity,Positive*%
%FSLAX46Y46*%
G04 Gerber Fmt 4.6, Leading zero omitted, Abs format (unit mm)*
G04 Created by KiCad (PCBNEW 7.0.9) date 2024-01-28 09:25:02*
%MOMM*%
%LPD*%
G01*
G04 APERTURE LIST*
G04 Aperture macros list*
%AMRoundRect*
0 Rectangle with rounded corners*
0 $1 Rounding radius*
0 $2 $3 $4 $5 $6 $7 $8 $9 X,Y pos of 4 corners*
0 Add a 4 corners polygon primitive as box body*
4,1,4,$2,$3,$4,$5,$6,$7,$8,$9,$2,$3,0*
0 Add four circle primitives for the rounded corners*
1,1,$1+$1,$2,$3*
1,1,$1+$1,$4,$5*
1,1,$1+$1,$6,$7*
1,1,$1+$1,$8,$9*
0 Add four rect primitives between the rounded corners*
20,1,$1+$1,$2,$3,$4,$5,0*
20,1,$1+$1,$4,$5,$6,$7,0*
20,1,$1+$1,$6,$7,$8,$9,0*
20,1,$1+$1,$8,$9,$2,$3,0*%
G04 Aperture macros list end*
%ADD10C,0.150000*%
%ADD11C,0.120000*%
%ADD12C,2.000000*%
%ADD13C,3.600000*%
%ADD14C,5.600000*%
%ADD15R,1.950000X1.650000*%
%ADD16RoundRect,0.140000X-0.140000X-0.170000X0.140000X-0.170000X0.140000X0.170000X-0.140000X0.170000X0*%
G04 APERTURE END LIST*
D10*
X144863095Y-115879819D02*
X145529761Y-116879819D01*
X145529761Y-115879819D02*
X144863095Y-116879819D01*
X145863095Y-115975057D02*
X145910714Y-115927438D01*
X145910714Y-115927438D02*
X146005952Y-115879819D01*
X146005952Y-115879819D02*
X146244047Y-115879819D01*
X146244047Y-115879819D02*
X146339285Y-115927438D01*
X146339285Y-115927438D02*
X146386904Y-115975057D01*
X146386904Y-115975057D02*
X146434523Y-116070295D01*
X146434523Y-116070295D02*
X146434523Y-116165533D01*
X146434523Y-116165533D02*
X146386904Y-116308390D01*
X146386904Y-116308390D02*
X145815476Y-116879819D01*
X145815476Y-116879819D02*
X146434523Y-116879819D01*
X147053571Y-115879819D02*
X147148809Y-115879819D01*
X147148809Y-115879819D02*
X147244047Y-115927438D01*
X147244047Y-115927438D02*
X147291666Y-115975057D01*
X147291666Y-115975057D02*
X147339285Y-116070295D01*
X147339285Y-116070295D02*
X147386904Y-116260771D01*
X147386904Y-116260771D02*
X147386904Y-116498866D01*
X147386904Y-116498866D02*
X147339285Y-116689342D01*
X147339285Y-116689342D02*
X147291666Y-116784580D01*
X147291666Y-116784580D02*
X147244047Y-116832200D01*
X147244047Y-116832200D02*
X147148809Y-116879819D01*
X147148809Y-116879819D02*
X147053571Y-116879819D01*
X147053571Y-116879819D02*
X146958333Y-116832200D01*
X146958333Y-116832200D02*
X146910714Y-116784580D01*
X146910714Y-116784580D02*
X146863095Y-116689342D01*
X146863095Y-116689342D02*
X146815476Y-116498866D01*
X146815476Y-116498866D02*
X146815476Y-116260771D01*
X146815476Y-116260771D02*
X146863095Y-116070295D01*
X146863095Y-116070295D02*
X146910714Y-115975057D01*
X146910714Y-115975057D02*
X146958333Y-115927438D01*
X146958333Y-115927438D02*
X147053571Y-115879819D01*
X147767857Y-115975057D02*
X147815476Y-115927438D01*
X147815476Y-115927438D02*
X147910714Y-115879819D01*
X147910714Y-115879819D02*
X148148809Y-115879819D01*
X148148809Y-115879819D02*
X148244047Y-115927438D01*
X148244047Y-115927438D02*
X148291666Y-115975057D01*
X148291666Y-115975057D02*
X148339285Y-116070295D01*
X148339285Y-116070295D02*
X148339285Y-116165533D01*
X148339285Y-116165533D02*
X148291666Y-116308390D01*
X148291666Y-116308390D02*
X147720238Y-116879819D01*
X147720238Y-116879819D02*
X148339285Y-116879819D01*
X144863095Y-110429819D02*
X145529761Y-111429819D01*
X145529761Y-110429819D02*
X144863095Y-111429819D01*
X145863095Y-110525057D02*
X145910714Y-110477438D01*
X145910714Y-110477438D02*
X146005952Y-110429819D01*
X146005952Y-110429819D02*
X146244047Y-110429819D01*
X146244047Y-110429819D02*
X146339285Y-110477438D01*
X146339285Y-110477438D02*
X146386904Y-110525057D01*
X146386904Y-110525057D02*
X146434523Y-110620295D01*
X146434523Y-110620295D02*
X146434523Y-110715533D01*
X146434523Y-110715533D02*
X146386904Y-110858390D01*
X146386904Y-110858390D02*
X145815476Y-111429819D01*
X145815476Y-111429819D02*
X146434523Y-111429819D01*
X147053571Y-110429819D02*
X147148809Y-110429819D01*
X147148809Y-110429819D02*
X147244047Y-110477438D01*
X147244047Y-110477438D02*
X147291666Y-110525057D01*
X147291666Y-110525057D02*
X147339285Y-110620295D01*
X147339285Y-110620295D02*
X147386904Y-110810771D01*
X147386904Y-110810771D02*
X147386904Y-111048866D01*
X147386904Y-111048866D02*
X147339285Y-111239342D01*
X147339285Y-111239342D02*
X147291666Y-111334580D01*
X147291666Y-111334580D02*
X147244047Y-111382200D01*
X147244047Y-111382200D02*
X147148809Y-111429819D01*
X147148809Y-111429819D02*
X147053571Y-111429819D01*
X147053571Y-111429819D02*
X146958333Y-111382200D01*
X146958333Y-111382200D02*
X146910714Y-111334580D01*
X146910714Y-111334580D02*
X146863095Y-111239342D01*
X146863095Y-111239342D02*
X146815476Y-111048866D01*
X146815476Y-111048866D02*
X146815476Y-110810771D01*
X146815476Y-110810771D02*
X146863095Y-110620295D01*
X146863095Y-110620295D02*
X146910714Y-110525057D01*
X146910714Y-110525057D02*
X146958333Y-110477438D01*
X146958333Y-110477438D02*
X147053571Y-110429819D01*
X148339285Y-111429819D02*
X147767857Y-111429819D01*
X148053571Y-111429819D02*
X148053571Y-110429819D01*
X148053571Y-110429819D02*
X147958333Y-110572676D01*
X147958333Y-110572676D02*
X147863095Y-110667914D01*
X147863095Y-110667914D02*
X147767857Y-110715533D01*
X150065952Y-113329580D02*
X150018333Y-113377200D01*
X150018333Y-113377200D02*
X149875476Y-113424819D01*
X149875476Y-113424819D02*
X149780238Y-113424819D01*
X149780238Y-113424819D02*
X149637381Y-113377200D01*
X149637381Y-113377200D02*
X149542143Y-113281961D01*
X149542143Y-113281961D02*
X149494524Y-113186723D01*
X149494524Y-113186723D02*
X149446905Y-112996247D01*
X149446905Y-112996247D02*
X149446905Y-112853390D01*
X149446905Y-112853390D02*
X149494524Y-112662914D01*
X149494524Y-112662914D02*
X149542143Y-112567676D01*
X149542143Y-112567676D02*
X149637381Y-112472438D01*
X149637381Y-112472438D02*
X149780238Y-112424819D01*
X149780238Y-112424819D02*
X149875476Y-112424819D01*
X149875476Y-112424819D02*
X150018333Y-112472438D01*
X150018333Y-112472438D02*
X150065952Y-112520057D01*
X150446905Y-112520057D02*
X150494524Y-112472438D01*
X150494524Y-112472438D02*
X150589762Y-112424819D01*
X150589762Y-112424819D02*
X150827857Y-112424819D01*
X150827857Y-112424819D02*
X150923095Y-112472438D01*
X150923095Y-112472438D02*
X150970714Y-112520057D01*
X150970714Y-112520057D02*
X151018333Y-112615295D01*
X151018333Y-112615295D02*
X151018333Y-112710533D01*
X151018333Y-112710533D02*
X150970714Y-112853390D01*
X150970714Y-112853390D02*
X150399286Y-113424819D01*
X150399286Y-113424819D02*
X151018333Y-113424819D01*
X151637381Y-112424819D02*
X151732619Y-112424819D01*
X151732619Y-112424819D02*
X151827857Y-112472438D01*
X151827857Y-112472438D02*
X151875476Y-112520057D01*
X151875476Y-112520057D02*
X151923095Y-112615295D01*
X151923095Y-112615295D02*
X151970714Y-112805771D01*
X151970714Y-112805771D02*
X151970714Y-113043866D01*
X151970714Y-113043866D02*
X151923095Y-113234342D01*
X151923095Y-113234342D02*
X151875476Y-113329580D01*
X151875476Y-113329580D02*
X151827857Y-113377200D01*
X151827857Y-113377200D02*
X151732619Y-113424819D01*
X151732619Y-113424819D02*
X151637381Y-113424819D01*
X151637381Y-113424819D02*
X151542143Y-113377200D01*
X151542143Y-113377200D02*
X151494524Y-113329580D01*
X151494524Y-113329580D02*
X151446905Y-113234342D01*
X151446905Y-113234342D02*
X151399286Y-113043866D01*
X151399286Y-113043866D02*
X151399286Y-112805771D01*
X151399286Y-112805771D02*
X151446905Y-112615295D01*
X151446905Y-112615295D02*
X151494524Y-112520057D01*
X151494524Y-112520057D02*
X151542143Y-112472438D01*
X151542143Y-112472438D02*
X151637381Y-112424819D01*
X152351667Y-112520057D02*
X152399286Y-112472438D01*
X152399286Y-112472438D02*
X152494524Y-112424819D01*
X152494524Y-112424819D02*
X152732619Y-112424819D01*
X152732619Y-112424819D02*
X152827857Y-112472438D01*
X152827857Y-112472438D02*
X152875476Y-112520057D01*
X152875476Y-112520057D02*
X152923095Y-112615295D01*
X152923095Y-112615295D02*
X152923095Y-112710533D01*
X152923095Y-112710533D02*
X152875476Y-112853390D01*
X152875476Y-112853390D02*
X152304048Y-113424819D01*
X152304048Y-113424819D02*
X152923095Y-113424819D01*
X150065952Y-111359580D02*
X150018333Y-111407200D01*
X150018333Y-111407200D02*
X149875476Y-111454819D01*
X149875476Y-111454819D02*
X149780238Y-111454819D01*
X149780238Y-111454819D02*
X149637381Y-111407200D01*
X149637381Y-111407200D02*
X149542143Y-111311961D01*
X149542143Y-111311961D02*
X149494524Y-111216723D01*
X149494524Y-111216723D02*
X149446905Y-111026247D01*
X149446905Y-111026247D02*
X149446905Y-110883390D01*
X149446905Y-110883390D02*
X149494524Y-110692914D01*
X149494524Y-110692914D02*
X149542143Y-110597676D01*
X149542143Y-110597676D02*
X149637381Y-110502438D01*
X149637381Y-110502438D02*
X149780238Y-110454819D01*
X149780238Y-110454819D02*
X149875476Y-110454819D01*
X149875476Y-110454819D02*
X150018333Y-110502438D01*
X150018333Y-110502438D02*
X150065952Y-110550057D01*
X150446905Y-110550057D02*
X150494524Y-110502438D01*
X150494524Y-110502438D02*
X150589762Y-110454819D01*
X150589762Y-110454819D02*
X150827857Y-110454819D01*
X150827857Y-110454819D02*
X150923095Y-110502438D01*
X150923095Y-110502438D02*
X150970714Y-110550057D01*
X150970714Y-110550057D02*
X151018333Y-110645295D01*
X151018333Y-110645295D02*
X151018333Y-110740533D01*
X151018333Y-110740533D02*
X150970714Y-110883390D01*
X150970714Y-110883390D02*
X150399286Y-111454819D01*
X150399286Y-111454819D02*
X151018333Y-111454819D01*
X151637381Y-110454819D02*
X151732619Y-110454819D01*
X151732619Y-110454819D02*
X151827857Y-110502438D01*
X151827857Y-110502438D02*
X151875476Y-110550057D01*
X151875476Y-110550057D02*
X151923095Y-110645295D01*
X151923095Y-110645295D02*
X151970714Y-110835771D01*
X151970714Y-110835771D02*
X151970714Y-111073866D01*
X151970714Y-111073866D02*
X151923095Y-111264342D01*
X151923095Y-111264342D02*
X151875476Y-111359580D01*
X151875476Y-111359580D02*
X151827857Y-111407200D01*
X151827857Y-111407200D02*
X151732619Y-111454819D01*
X151732619Y-111454819D02*
X151637381Y-111454819D01*
X151637381Y-111454819D02*
X151542143Y-111407200D01*
X151542143Y-111407200D02*
X151494524Y-111359580D01*
X151494524Y-111359580D02*
X151446905Y-111264342D01*
X151446905Y-111264342D02*
X151399286Y-111073866D01*
X151399286Y-111073866D02*
X151399286Y-110835771D01*
X151399286Y-110835771D02*
X151446905Y-110645295D01*
X151446905Y-110645295D02*
X151494524Y-110550057D01*
X151494524Y-110550057D02*
X151542143Y-110502438D01*
X151542143Y-110502438D02*
X151637381Y-110454819D01*
X152923095Y-111454819D02*
X152351667Y-111454819D01*
X152637381Y-111454819D02*
X152637381Y-110454819D01*
X152637381Y-110454819D02*
X152542143Y-110597676D01*
X152542143Y-110597676D02*
X152446905Y-110692914D01*
X152446905Y-110692914D02*
X152351667Y-110740533D01*
D11*
%TO.C,X202*%
X144075000Y-117225000D02*
X144075000Y-121475000D01*
X144075000Y-121475000D02*
X149175000Y-121475000D01*
%TO.C,X201*%
X144075000Y-111775000D02*
X144075000Y-116025000D01*
X144075000Y-116025000D02*
X149175000Y-116025000D01*
%TO.C,C202*%
X151077164Y-114490000D02*
X151292836Y-114490000D01*
X151077164Y-113770000D02*
X151292836Y-113770000D01*
%TO.C,C201*%
X151077164Y-112520000D02*
X151292836Y-112520000D01*
X151077164Y-111800000D02*
X151292836Y-111800000D01*
%TD*%
%LPC*%
D12*
%TO.C,OL101*%
X99666284Y-64441319D02*
X104035897Y-66964116D01*
X109499998Y-65500015D02*
X115999998Y-54241685D01*
X118732049Y-53509634D02*
X180724625Y-89301064D01*
X146041650Y-139720215D02*
X146041650Y-144765809D01*
X182724625Y-89836962D02*
X201041650Y-89836962D01*
X201041650Y-135720215D02*
X150041650Y-135720215D01*
X203041650Y-91836962D02*
X203041650Y-133720215D01*
X99666284Y-64441319D02*
G75*
G03*
X96669287Y-66063807I-999971J-1732105D01*
G01*
X96669286Y-66063808D02*
G75*
G03*
X96935972Y-78898191I84872414J-4656392D01*
G01*
X100998700Y-90514993D02*
G75*
G03*
X99202891Y-80686604I-1105282J4876303D01*
G01*
X96935972Y-78898190D02*
G75*
G03*
X99202892Y-80686603I1990765J192478D01*
G01*
X100998700Y-90514994D02*
G75*
G03*
X99510686Y-92989496I442144J-1950529D01*
G01*
X99510687Y-92989496D02*
G75*
G03*
X99783775Y-93972090I82007713J22262796D01*
G01*
X105868349Y-104669465D02*
G75*
G03*
X102335225Y-95323922I-1963776J4598214D01*
G01*
X99783775Y-93972090D02*
G75*
G03*
X102335226Y-95323919I1923719J547113D01*
G01*
X105868349Y-104669466D02*
G75*
G03*
X104849338Y-107371125I785437J-1839256D01*
G01*
X104035897Y-66964117D02*
G75*
G03*
X109499999Y-65500015I1999999J3464104D01*
G01*
X118732049Y-53509634D02*
G75*
G03*
X115999998Y-54241685I-999960J-1732200D01*
G01*
X104849340Y-107371124D02*
G75*
G03*
X143138036Y-146550040I76692310J36650904D01*
G01*
X150041650Y-135720215D02*
G75*
G03*
X146041650Y-139720215I-34J-3999966D01*
G01*
X143138036Y-146550041D02*
G75*
G03*
X146041650Y-144765809I903594J1784264D01*
G01*
X180724635Y-89301047D02*
G75*
G03*
X182724625Y-89836962I1999965J3463847D01*
G01*
X203041638Y-91836962D02*
G75*
G03*
X201041650Y-89836962I-1999938J62D01*
G01*
X201041650Y-135720250D02*
G75*
G03*
X203041650Y-133720215I-50J2000050D01*
G01*
%TD*%
D13*
%TO.C,OL101*%
X119346650Y-57357550D03*
D14*
X119346650Y-57357550D03*
D13*
X127140650Y-61857550D03*
D14*
X127140650Y-61857550D03*
D13*
X200991650Y-113220550D03*
D14*
X200991650Y-113220550D03*
D13*
X200991650Y-131220550D03*
D14*
X200991650Y-131220550D03*
D13*
X119249650Y-125629550D03*
D14*
X119249650Y-125629550D03*
%TD*%
D15*
%TO.C,X202*%
X145250000Y-120450000D03*
X148000000Y-120450000D03*
X148000000Y-118250000D03*
X145250000Y-118250000D03*
%TD*%
%TO.C,X201*%
X145250000Y-115000000D03*
X148000000Y-115000000D03*
X148000000Y-112800000D03*
X145250000Y-112800000D03*
%TD*%
D16*
%TO.C,C202*%
X150705000Y-114130000D03*
X151665000Y-114130000D03*
%TD*%
%TO.C,C201*%
X150705000Y-112160000D03*
X151665000Y-112160000D03*
%TD*%
%LPD*%
M02*
