%TF.GenerationSoftware,KiCad,Pcbnew,7.0.9*%
%TF.CreationDate,2024-01-28T09:25:04+00:00*%
%TF.ProjectId,main_PCB_v1,6d61696e-5f50-4434-925f-76312e6b6963,rev?*%
%TF.SameCoordinates,Original*%
%TF.FileFunction,Drillmap*%
%TF.FilePolarity,Positive*%
%FSLAX45Y45*%
G04 Gerber Fmt 4.5, Leading zero omitted, Abs format (unit mm)*
G04 Created by KiCad (PCBNEW 7.0.9) date 2024-01-28 09:25:04*
%MOMM*%
%LPD*%
G01*
G04 APERTURE LIST*
%ADD10C,0.200000*%
G04 APERTURE END LIST*
D10*
X9792409Y-15105566D02*
X9792409Y-14905566D01*
X9792409Y-14905566D02*
X9840028Y-14905566D01*
X9840028Y-14905566D02*
X9868599Y-14915090D01*
X9868599Y-14915090D02*
X9887647Y-14934138D01*
X9887647Y-14934138D02*
X9897171Y-14953185D01*
X9897171Y-14953185D02*
X9906694Y-14991281D01*
X9906694Y-14991281D02*
X9906694Y-15019852D01*
X9906694Y-15019852D02*
X9897171Y-15057947D01*
X9897171Y-15057947D02*
X9887647Y-15076995D01*
X9887647Y-15076995D02*
X9868599Y-15096043D01*
X9868599Y-15096043D02*
X9840028Y-15105566D01*
X9840028Y-15105566D02*
X9792409Y-15105566D01*
X9992409Y-15105566D02*
X9992409Y-14972233D01*
X9992409Y-15010328D02*
X10001933Y-14991281D01*
X10001933Y-14991281D02*
X10011456Y-14981757D01*
X10011456Y-14981757D02*
X10030504Y-14972233D01*
X10030504Y-14972233D02*
X10049552Y-14972233D01*
X10116218Y-15105566D02*
X10116218Y-14972233D01*
X10116218Y-14905566D02*
X10106694Y-14915090D01*
X10106694Y-14915090D02*
X10116218Y-14924614D01*
X10116218Y-14924614D02*
X10125742Y-14915090D01*
X10125742Y-14915090D02*
X10116218Y-14905566D01*
X10116218Y-14905566D02*
X10116218Y-14924614D01*
X10240028Y-15105566D02*
X10220980Y-15096043D01*
X10220980Y-15096043D02*
X10211456Y-15076995D01*
X10211456Y-15076995D02*
X10211456Y-14905566D01*
X10344790Y-15105566D02*
X10325742Y-15096043D01*
X10325742Y-15096043D02*
X10316218Y-15076995D01*
X10316218Y-15076995D02*
X10316218Y-14905566D01*
X10573361Y-15105566D02*
X10573361Y-14905566D01*
X10573361Y-14905566D02*
X10640028Y-15048423D01*
X10640028Y-15048423D02*
X10706694Y-14905566D01*
X10706694Y-14905566D02*
X10706694Y-15105566D01*
X10887647Y-15105566D02*
X10887647Y-15000804D01*
X10887647Y-15000804D02*
X10878123Y-14981757D01*
X10878123Y-14981757D02*
X10859075Y-14972233D01*
X10859075Y-14972233D02*
X10820980Y-14972233D01*
X10820980Y-14972233D02*
X10801933Y-14981757D01*
X10887647Y-15096043D02*
X10868599Y-15105566D01*
X10868599Y-15105566D02*
X10820980Y-15105566D01*
X10820980Y-15105566D02*
X10801933Y-15096043D01*
X10801933Y-15096043D02*
X10792409Y-15076995D01*
X10792409Y-15076995D02*
X10792409Y-15057947D01*
X10792409Y-15057947D02*
X10801933Y-15038900D01*
X10801933Y-15038900D02*
X10820980Y-15029376D01*
X10820980Y-15029376D02*
X10868599Y-15029376D01*
X10868599Y-15029376D02*
X10887647Y-15019852D01*
X10982885Y-14972233D02*
X10982885Y-15172233D01*
X10982885Y-14981757D02*
X11001933Y-14972233D01*
X11001933Y-14972233D02*
X11040028Y-14972233D01*
X11040028Y-14972233D02*
X11059075Y-14981757D01*
X11059075Y-14981757D02*
X11068599Y-14991281D01*
X11068599Y-14991281D02*
X11078123Y-15010328D01*
X11078123Y-15010328D02*
X11078123Y-15067471D01*
X11078123Y-15067471D02*
X11068599Y-15086519D01*
X11068599Y-15086519D02*
X11059075Y-15096043D01*
X11059075Y-15096043D02*
X11040028Y-15105566D01*
X11040028Y-15105566D02*
X11001933Y-15105566D01*
X11001933Y-15105566D02*
X10982885Y-15096043D01*
X11163837Y-15086519D02*
X11173361Y-15096043D01*
X11173361Y-15096043D02*
X11163837Y-15105566D01*
X11163837Y-15105566D02*
X11154314Y-15096043D01*
X11154314Y-15096043D02*
X11163837Y-15086519D01*
X11163837Y-15086519D02*
X11163837Y-15105566D01*
X11163837Y-14981757D02*
X11173361Y-14991281D01*
X11173361Y-14991281D02*
X11163837Y-15000804D01*
X11163837Y-15000804D02*
X11154314Y-14991281D01*
X11154314Y-14991281D02*
X11163837Y-14981757D01*
X11163837Y-14981757D02*
X11163837Y-15000804D01*
M02*
