%TF.GenerationSoftware,KiCad,Pcbnew,8.0.0*%
%TF.CreationDate,2024-03-25T03:27:13+00:00*%
%TF.ProjectId,main_PCB_v2,6d61696e-5f50-4434-925f-76322e6b6963,rev?*%
%TF.SameCoordinates,Original*%
%TF.FileFunction,Drillmap*%
%TF.FilePolarity,Positive*%
%FSLAX45Y45*%
G04 Gerber Fmt 4.5, Leading zero omitted, Abs format (unit mm)*
G04 Created by KiCad (PCBNEW 8.0.0) date 2024-03-25 03:27:13*
%MOMM*%
%LPD*%
G01*
G04 APERTURE LIST*
%ADD10C,0.350000*%
%ADD11C,0.200000*%
%ADD12C,0.320000*%
G04 APERTURE END LIST*
D10*
X11107151Y-5466711D02*
X11107151Y-8347495D01*
X11607151Y-4966715D02*
X20807150Y-4966715D01*
X12217490Y-8847495D02*
X11607150Y-8847495D01*
X12476055Y-8995364D02*
X12476059Y-8995362D01*
X12476059Y-8995362D02*
X15346517Y-13873746D01*
X15690031Y-14008463D02*
X15690031Y-14008463D01*
X16480484Y-13701565D02*
X20637344Y-9544705D01*
X21107151Y-8073581D02*
X21107151Y-5264921D01*
X11107151Y-5466711D02*
G75*
G02*
X11607151Y-4966715I500001J-5D01*
G01*
X11607150Y-8847495D02*
G75*
G02*
X11107151Y-8347495I4J500003D01*
G01*
X12217490Y-8847495D02*
G75*
G02*
X12476055Y-8995364I-1J-300001D01*
G01*
X15690031Y-14008463D02*
G75*
G02*
X15346516Y-13873746I-85391J287583D01*
G01*
X16380297Y-13767767D02*
G75*
G02*
X15690031Y-14008463I-2909036J7232394D01*
G01*
X16480484Y-13701565D02*
G75*
G02*
X16380297Y-13767766I-212154J212155D01*
G01*
X20703541Y-9444523D02*
G75*
G02*
X20637343Y-9544704I-278341J111963D01*
G01*
X20807150Y-4966715D02*
G75*
G02*
X21107150Y-5264921I-10J-300015D01*
G01*
X21100767Y-8135142D02*
G75*
G02*
X20703541Y-9444523I-7629507J1599611D01*
G01*
X21107151Y-8073581D02*
G75*
G02*
X21100767Y-8135142I-300041J1D01*
G01*
D11*
D12*
X14356000Y-11775500D02*
X14676000Y-12095500D01*
X14676000Y-11775500D02*
X14356000Y-12095500D01*
D11*
X11350427Y-14349857D02*
X11350427Y-14149857D01*
X11350427Y-14149857D02*
X11398046Y-14149857D01*
X11398046Y-14149857D02*
X11426618Y-14159380D01*
X11426618Y-14159380D02*
X11445665Y-14178428D01*
X11445665Y-14178428D02*
X11455189Y-14197476D01*
X11455189Y-14197476D02*
X11464713Y-14235571D01*
X11464713Y-14235571D02*
X11464713Y-14264142D01*
X11464713Y-14264142D02*
X11455189Y-14302238D01*
X11455189Y-14302238D02*
X11445665Y-14321285D01*
X11445665Y-14321285D02*
X11426618Y-14340333D01*
X11426618Y-14340333D02*
X11398046Y-14349857D01*
X11398046Y-14349857D02*
X11350427Y-14349857D01*
X11550427Y-14349857D02*
X11550427Y-14216523D01*
X11550427Y-14254619D02*
X11559951Y-14235571D01*
X11559951Y-14235571D02*
X11569475Y-14226047D01*
X11569475Y-14226047D02*
X11588523Y-14216523D01*
X11588523Y-14216523D02*
X11607570Y-14216523D01*
X11674237Y-14349857D02*
X11674237Y-14216523D01*
X11674237Y-14149857D02*
X11664713Y-14159380D01*
X11664713Y-14159380D02*
X11674237Y-14168904D01*
X11674237Y-14168904D02*
X11683761Y-14159380D01*
X11683761Y-14159380D02*
X11674237Y-14149857D01*
X11674237Y-14149857D02*
X11674237Y-14168904D01*
X11798046Y-14349857D02*
X11778999Y-14340333D01*
X11778999Y-14340333D02*
X11769475Y-14321285D01*
X11769475Y-14321285D02*
X11769475Y-14149857D01*
X11902808Y-14349857D02*
X11883761Y-14340333D01*
X11883761Y-14340333D02*
X11874237Y-14321285D01*
X11874237Y-14321285D02*
X11874237Y-14149857D01*
X12131380Y-14349857D02*
X12131380Y-14149857D01*
X12131380Y-14149857D02*
X12198046Y-14292714D01*
X12198046Y-14292714D02*
X12264713Y-14149857D01*
X12264713Y-14149857D02*
X12264713Y-14349857D01*
X12445665Y-14349857D02*
X12445665Y-14245095D01*
X12445665Y-14245095D02*
X12436142Y-14226047D01*
X12436142Y-14226047D02*
X12417094Y-14216523D01*
X12417094Y-14216523D02*
X12378999Y-14216523D01*
X12378999Y-14216523D02*
X12359951Y-14226047D01*
X12445665Y-14340333D02*
X12426618Y-14349857D01*
X12426618Y-14349857D02*
X12378999Y-14349857D01*
X12378999Y-14349857D02*
X12359951Y-14340333D01*
X12359951Y-14340333D02*
X12350427Y-14321285D01*
X12350427Y-14321285D02*
X12350427Y-14302238D01*
X12350427Y-14302238D02*
X12359951Y-14283190D01*
X12359951Y-14283190D02*
X12378999Y-14273666D01*
X12378999Y-14273666D02*
X12426618Y-14273666D01*
X12426618Y-14273666D02*
X12445665Y-14264142D01*
X12540904Y-14216523D02*
X12540904Y-14416523D01*
X12540904Y-14226047D02*
X12559951Y-14216523D01*
X12559951Y-14216523D02*
X12598046Y-14216523D01*
X12598046Y-14216523D02*
X12617094Y-14226047D01*
X12617094Y-14226047D02*
X12626618Y-14235571D01*
X12626618Y-14235571D02*
X12636142Y-14254619D01*
X12636142Y-14254619D02*
X12636142Y-14311761D01*
X12636142Y-14311761D02*
X12626618Y-14330809D01*
X12626618Y-14330809D02*
X12617094Y-14340333D01*
X12617094Y-14340333D02*
X12598046Y-14349857D01*
X12598046Y-14349857D02*
X12559951Y-14349857D01*
X12559951Y-14349857D02*
X12540904Y-14340333D01*
X12721856Y-14330809D02*
X12731380Y-14340333D01*
X12731380Y-14340333D02*
X12721856Y-14349857D01*
X12721856Y-14349857D02*
X12712332Y-14340333D01*
X12712332Y-14340333D02*
X12721856Y-14330809D01*
X12721856Y-14330809D02*
X12721856Y-14349857D01*
X12721856Y-14226047D02*
X12731380Y-14235571D01*
X12731380Y-14235571D02*
X12721856Y-14245095D01*
X12721856Y-14245095D02*
X12712332Y-14235571D01*
X12712332Y-14235571D02*
X12721856Y-14226047D01*
X12721856Y-14226047D02*
X12721856Y-14245095D01*
X10889651Y-14578373D02*
X11089651Y-14778373D01*
X11089651Y-14578373D02*
X10889651Y-14778373D01*
X11331380Y-14569857D02*
X11455189Y-14569857D01*
X11455189Y-14569857D02*
X11388523Y-14646047D01*
X11388523Y-14646047D02*
X11417094Y-14646047D01*
X11417094Y-14646047D02*
X11436142Y-14655571D01*
X11436142Y-14655571D02*
X11445665Y-14665095D01*
X11445665Y-14665095D02*
X11455189Y-14684142D01*
X11455189Y-14684142D02*
X11455189Y-14731761D01*
X11455189Y-14731761D02*
X11445665Y-14750809D01*
X11445665Y-14750809D02*
X11436142Y-14760333D01*
X11436142Y-14760333D02*
X11417094Y-14769857D01*
X11417094Y-14769857D02*
X11359951Y-14769857D01*
X11359951Y-14769857D02*
X11340904Y-14760333D01*
X11340904Y-14760333D02*
X11331380Y-14750809D01*
X11540904Y-14750809D02*
X11550427Y-14760333D01*
X11550427Y-14760333D02*
X11540904Y-14769857D01*
X11540904Y-14769857D02*
X11531380Y-14760333D01*
X11531380Y-14760333D02*
X11540904Y-14750809D01*
X11540904Y-14750809D02*
X11540904Y-14769857D01*
X11626618Y-14588904D02*
X11636142Y-14579380D01*
X11636142Y-14579380D02*
X11655189Y-14569857D01*
X11655189Y-14569857D02*
X11702808Y-14569857D01*
X11702808Y-14569857D02*
X11721856Y-14579380D01*
X11721856Y-14579380D02*
X11731380Y-14588904D01*
X11731380Y-14588904D02*
X11740904Y-14607952D01*
X11740904Y-14607952D02*
X11740904Y-14626999D01*
X11740904Y-14626999D02*
X11731380Y-14655571D01*
X11731380Y-14655571D02*
X11617094Y-14769857D01*
X11617094Y-14769857D02*
X11740904Y-14769857D01*
X11864713Y-14569857D02*
X11883761Y-14569857D01*
X11883761Y-14569857D02*
X11902808Y-14579380D01*
X11902808Y-14579380D02*
X11912332Y-14588904D01*
X11912332Y-14588904D02*
X11921856Y-14607952D01*
X11921856Y-14607952D02*
X11931380Y-14646047D01*
X11931380Y-14646047D02*
X11931380Y-14693666D01*
X11931380Y-14693666D02*
X11921856Y-14731761D01*
X11921856Y-14731761D02*
X11912332Y-14750809D01*
X11912332Y-14750809D02*
X11902808Y-14760333D01*
X11902808Y-14760333D02*
X11883761Y-14769857D01*
X11883761Y-14769857D02*
X11864713Y-14769857D01*
X11864713Y-14769857D02*
X11845665Y-14760333D01*
X11845665Y-14760333D02*
X11836142Y-14750809D01*
X11836142Y-14750809D02*
X11826618Y-14731761D01*
X11826618Y-14731761D02*
X11817094Y-14693666D01*
X11817094Y-14693666D02*
X11817094Y-14646047D01*
X11817094Y-14646047D02*
X11826618Y-14607952D01*
X11826618Y-14607952D02*
X11836142Y-14588904D01*
X11836142Y-14588904D02*
X11845665Y-14579380D01*
X11845665Y-14579380D02*
X11864713Y-14569857D01*
X12055189Y-14569857D02*
X12074237Y-14569857D01*
X12074237Y-14569857D02*
X12093285Y-14579380D01*
X12093285Y-14579380D02*
X12102808Y-14588904D01*
X12102808Y-14588904D02*
X12112332Y-14607952D01*
X12112332Y-14607952D02*
X12121856Y-14646047D01*
X12121856Y-14646047D02*
X12121856Y-14693666D01*
X12121856Y-14693666D02*
X12112332Y-14731761D01*
X12112332Y-14731761D02*
X12102808Y-14750809D01*
X12102808Y-14750809D02*
X12093285Y-14760333D01*
X12093285Y-14760333D02*
X12074237Y-14769857D01*
X12074237Y-14769857D02*
X12055189Y-14769857D01*
X12055189Y-14769857D02*
X12036142Y-14760333D01*
X12036142Y-14760333D02*
X12026618Y-14750809D01*
X12026618Y-14750809D02*
X12017094Y-14731761D01*
X12017094Y-14731761D02*
X12007570Y-14693666D01*
X12007570Y-14693666D02*
X12007570Y-14646047D01*
X12007570Y-14646047D02*
X12017094Y-14607952D01*
X12017094Y-14607952D02*
X12026618Y-14588904D01*
X12026618Y-14588904D02*
X12036142Y-14579380D01*
X12036142Y-14579380D02*
X12055189Y-14569857D01*
X12207570Y-14769857D02*
X12207570Y-14636523D01*
X12207570Y-14655571D02*
X12217094Y-14646047D01*
X12217094Y-14646047D02*
X12236142Y-14636523D01*
X12236142Y-14636523D02*
X12264713Y-14636523D01*
X12264713Y-14636523D02*
X12283761Y-14646047D01*
X12283761Y-14646047D02*
X12293285Y-14665095D01*
X12293285Y-14665095D02*
X12293285Y-14769857D01*
X12293285Y-14665095D02*
X12302808Y-14646047D01*
X12302808Y-14646047D02*
X12321856Y-14636523D01*
X12321856Y-14636523D02*
X12350427Y-14636523D01*
X12350427Y-14636523D02*
X12369475Y-14646047D01*
X12369475Y-14646047D02*
X12378999Y-14665095D01*
X12378999Y-14665095D02*
X12378999Y-14769857D01*
X12474237Y-14769857D02*
X12474237Y-14636523D01*
X12474237Y-14655571D02*
X12483761Y-14646047D01*
X12483761Y-14646047D02*
X12502808Y-14636523D01*
X12502808Y-14636523D02*
X12531380Y-14636523D01*
X12531380Y-14636523D02*
X12550427Y-14646047D01*
X12550427Y-14646047D02*
X12559951Y-14665095D01*
X12559951Y-14665095D02*
X12559951Y-14769857D01*
X12559951Y-14665095D02*
X12569475Y-14646047D01*
X12569475Y-14646047D02*
X12588523Y-14636523D01*
X12588523Y-14636523D02*
X12617094Y-14636523D01*
X12617094Y-14636523D02*
X12636142Y-14646047D01*
X12636142Y-14646047D02*
X12645666Y-14665095D01*
X12645666Y-14665095D02*
X12645666Y-14769857D01*
X13036142Y-14560333D02*
X12864713Y-14817476D01*
X13293285Y-14569857D02*
X13312332Y-14569857D01*
X13312332Y-14569857D02*
X13331380Y-14579380D01*
X13331380Y-14579380D02*
X13340904Y-14588904D01*
X13340904Y-14588904D02*
X13350428Y-14607952D01*
X13350428Y-14607952D02*
X13359951Y-14646047D01*
X13359951Y-14646047D02*
X13359951Y-14693666D01*
X13359951Y-14693666D02*
X13350428Y-14731761D01*
X13350428Y-14731761D02*
X13340904Y-14750809D01*
X13340904Y-14750809D02*
X13331380Y-14760333D01*
X13331380Y-14760333D02*
X13312332Y-14769857D01*
X13312332Y-14769857D02*
X13293285Y-14769857D01*
X13293285Y-14769857D02*
X13274237Y-14760333D01*
X13274237Y-14760333D02*
X13264713Y-14750809D01*
X13264713Y-14750809D02*
X13255189Y-14731761D01*
X13255189Y-14731761D02*
X13245666Y-14693666D01*
X13245666Y-14693666D02*
X13245666Y-14646047D01*
X13245666Y-14646047D02*
X13255189Y-14607952D01*
X13255189Y-14607952D02*
X13264713Y-14588904D01*
X13264713Y-14588904D02*
X13274237Y-14579380D01*
X13274237Y-14579380D02*
X13293285Y-14569857D01*
X13445666Y-14750809D02*
X13455189Y-14760333D01*
X13455189Y-14760333D02*
X13445666Y-14769857D01*
X13445666Y-14769857D02*
X13436142Y-14760333D01*
X13436142Y-14760333D02*
X13445666Y-14750809D01*
X13445666Y-14750809D02*
X13445666Y-14769857D01*
X13645666Y-14769857D02*
X13531380Y-14769857D01*
X13588523Y-14769857D02*
X13588523Y-14569857D01*
X13588523Y-14569857D02*
X13569475Y-14598428D01*
X13569475Y-14598428D02*
X13550428Y-14617476D01*
X13550428Y-14617476D02*
X13531380Y-14626999D01*
X13721856Y-14588904D02*
X13731380Y-14579380D01*
X13731380Y-14579380D02*
X13750428Y-14569857D01*
X13750428Y-14569857D02*
X13798047Y-14569857D01*
X13798047Y-14569857D02*
X13817094Y-14579380D01*
X13817094Y-14579380D02*
X13826618Y-14588904D01*
X13826618Y-14588904D02*
X13836142Y-14607952D01*
X13836142Y-14607952D02*
X13836142Y-14626999D01*
X13836142Y-14626999D02*
X13826618Y-14655571D01*
X13826618Y-14655571D02*
X13712332Y-14769857D01*
X13712332Y-14769857D02*
X13836142Y-14769857D01*
X14007570Y-14569857D02*
X13969475Y-14569857D01*
X13969475Y-14569857D02*
X13950428Y-14579380D01*
X13950428Y-14579380D02*
X13940904Y-14588904D01*
X13940904Y-14588904D02*
X13921856Y-14617476D01*
X13921856Y-14617476D02*
X13912332Y-14655571D01*
X13912332Y-14655571D02*
X13912332Y-14731761D01*
X13912332Y-14731761D02*
X13921856Y-14750809D01*
X13921856Y-14750809D02*
X13931380Y-14760333D01*
X13931380Y-14760333D02*
X13950428Y-14769857D01*
X13950428Y-14769857D02*
X13988523Y-14769857D01*
X13988523Y-14769857D02*
X14007570Y-14760333D01*
X14007570Y-14760333D02*
X14017094Y-14750809D01*
X14017094Y-14750809D02*
X14026618Y-14731761D01*
X14026618Y-14731761D02*
X14026618Y-14684142D01*
X14026618Y-14684142D02*
X14017094Y-14665095D01*
X14017094Y-14665095D02*
X14007570Y-14655571D01*
X14007570Y-14655571D02*
X13988523Y-14646047D01*
X13988523Y-14646047D02*
X13950428Y-14646047D01*
X13950428Y-14646047D02*
X13931380Y-14655571D01*
X13931380Y-14655571D02*
X13921856Y-14665095D01*
X13921856Y-14665095D02*
X13912332Y-14684142D01*
X14150428Y-14569857D02*
X14169475Y-14569857D01*
X14169475Y-14569857D02*
X14188523Y-14579380D01*
X14188523Y-14579380D02*
X14198047Y-14588904D01*
X14198047Y-14588904D02*
X14207570Y-14607952D01*
X14207570Y-14607952D02*
X14217094Y-14646047D01*
X14217094Y-14646047D02*
X14217094Y-14693666D01*
X14217094Y-14693666D02*
X14207570Y-14731761D01*
X14207570Y-14731761D02*
X14198047Y-14750809D01*
X14198047Y-14750809D02*
X14188523Y-14760333D01*
X14188523Y-14760333D02*
X14169475Y-14769857D01*
X14169475Y-14769857D02*
X14150428Y-14769857D01*
X14150428Y-14769857D02*
X14131380Y-14760333D01*
X14131380Y-14760333D02*
X14121856Y-14750809D01*
X14121856Y-14750809D02*
X14112332Y-14731761D01*
X14112332Y-14731761D02*
X14102809Y-14693666D01*
X14102809Y-14693666D02*
X14102809Y-14646047D01*
X14102809Y-14646047D02*
X14112332Y-14607952D01*
X14112332Y-14607952D02*
X14121856Y-14588904D01*
X14121856Y-14588904D02*
X14131380Y-14579380D01*
X14131380Y-14579380D02*
X14150428Y-14569857D01*
X14293285Y-14569857D02*
X14293285Y-14607952D01*
X14369475Y-14569857D02*
X14369475Y-14607952D01*
X14664713Y-14846047D02*
X14655190Y-14836523D01*
X14655190Y-14836523D02*
X14636142Y-14807952D01*
X14636142Y-14807952D02*
X14626618Y-14788904D01*
X14626618Y-14788904D02*
X14617094Y-14760333D01*
X14617094Y-14760333D02*
X14607571Y-14712714D01*
X14607571Y-14712714D02*
X14607571Y-14674619D01*
X14607571Y-14674619D02*
X14617094Y-14626999D01*
X14617094Y-14626999D02*
X14626618Y-14598428D01*
X14626618Y-14598428D02*
X14636142Y-14579380D01*
X14636142Y-14579380D02*
X14655190Y-14550809D01*
X14655190Y-14550809D02*
X14664713Y-14541285D01*
X14845666Y-14769857D02*
X14731380Y-14769857D01*
X14788523Y-14769857D02*
X14788523Y-14569857D01*
X14788523Y-14569857D02*
X14769475Y-14598428D01*
X14769475Y-14598428D02*
X14750428Y-14617476D01*
X14750428Y-14617476D02*
X14731380Y-14626999D01*
X15083761Y-14769857D02*
X15083761Y-14569857D01*
X15169475Y-14769857D02*
X15169475Y-14665095D01*
X15169475Y-14665095D02*
X15159952Y-14646047D01*
X15159952Y-14646047D02*
X15140904Y-14636523D01*
X15140904Y-14636523D02*
X15112332Y-14636523D01*
X15112332Y-14636523D02*
X15093285Y-14646047D01*
X15093285Y-14646047D02*
X15083761Y-14655571D01*
X15293285Y-14769857D02*
X15274237Y-14760333D01*
X15274237Y-14760333D02*
X15264713Y-14750809D01*
X15264713Y-14750809D02*
X15255190Y-14731761D01*
X15255190Y-14731761D02*
X15255190Y-14674619D01*
X15255190Y-14674619D02*
X15264713Y-14655571D01*
X15264713Y-14655571D02*
X15274237Y-14646047D01*
X15274237Y-14646047D02*
X15293285Y-14636523D01*
X15293285Y-14636523D02*
X15321856Y-14636523D01*
X15321856Y-14636523D02*
X15340904Y-14646047D01*
X15340904Y-14646047D02*
X15350428Y-14655571D01*
X15350428Y-14655571D02*
X15359952Y-14674619D01*
X15359952Y-14674619D02*
X15359952Y-14731761D01*
X15359952Y-14731761D02*
X15350428Y-14750809D01*
X15350428Y-14750809D02*
X15340904Y-14760333D01*
X15340904Y-14760333D02*
X15321856Y-14769857D01*
X15321856Y-14769857D02*
X15293285Y-14769857D01*
X15474237Y-14769857D02*
X15455190Y-14760333D01*
X15455190Y-14760333D02*
X15445666Y-14741285D01*
X15445666Y-14741285D02*
X15445666Y-14569857D01*
X15626618Y-14760333D02*
X15607571Y-14769857D01*
X15607571Y-14769857D02*
X15569475Y-14769857D01*
X15569475Y-14769857D02*
X15550428Y-14760333D01*
X15550428Y-14760333D02*
X15540904Y-14741285D01*
X15540904Y-14741285D02*
X15540904Y-14665095D01*
X15540904Y-14665095D02*
X15550428Y-14646047D01*
X15550428Y-14646047D02*
X15569475Y-14636523D01*
X15569475Y-14636523D02*
X15607571Y-14636523D01*
X15607571Y-14636523D02*
X15626618Y-14646047D01*
X15626618Y-14646047D02*
X15636142Y-14665095D01*
X15636142Y-14665095D02*
X15636142Y-14684142D01*
X15636142Y-14684142D02*
X15540904Y-14703190D01*
X15702809Y-14846047D02*
X15712333Y-14836523D01*
X15712333Y-14836523D02*
X15731380Y-14807952D01*
X15731380Y-14807952D02*
X15740904Y-14788904D01*
X15740904Y-14788904D02*
X15750428Y-14760333D01*
X15750428Y-14760333D02*
X15759952Y-14712714D01*
X15759952Y-14712714D02*
X15759952Y-14674619D01*
X15759952Y-14674619D02*
X15750428Y-14626999D01*
X15750428Y-14626999D02*
X15740904Y-14598428D01*
X15740904Y-14598428D02*
X15731380Y-14579380D01*
X15731380Y-14579380D02*
X15712333Y-14550809D01*
X15712333Y-14550809D02*
X15702809Y-14541285D01*
X16064714Y-14846047D02*
X16055190Y-14836523D01*
X16055190Y-14836523D02*
X16036142Y-14807952D01*
X16036142Y-14807952D02*
X16026618Y-14788904D01*
X16026618Y-14788904D02*
X16017094Y-14760333D01*
X16017094Y-14760333D02*
X16007571Y-14712714D01*
X16007571Y-14712714D02*
X16007571Y-14674619D01*
X16007571Y-14674619D02*
X16017094Y-14626999D01*
X16017094Y-14626999D02*
X16026618Y-14598428D01*
X16026618Y-14598428D02*
X16036142Y-14579380D01*
X16036142Y-14579380D02*
X16055190Y-14550809D01*
X16055190Y-14550809D02*
X16064714Y-14541285D01*
X16140904Y-14636523D02*
X16140904Y-14769857D01*
X16140904Y-14655571D02*
X16150428Y-14646047D01*
X16150428Y-14646047D02*
X16169475Y-14636523D01*
X16169475Y-14636523D02*
X16198047Y-14636523D01*
X16198047Y-14636523D02*
X16217094Y-14646047D01*
X16217094Y-14646047D02*
X16226618Y-14665095D01*
X16226618Y-14665095D02*
X16226618Y-14769857D01*
X16350428Y-14769857D02*
X16331380Y-14760333D01*
X16331380Y-14760333D02*
X16321856Y-14750809D01*
X16321856Y-14750809D02*
X16312333Y-14731761D01*
X16312333Y-14731761D02*
X16312333Y-14674619D01*
X16312333Y-14674619D02*
X16321856Y-14655571D01*
X16321856Y-14655571D02*
X16331380Y-14646047D01*
X16331380Y-14646047D02*
X16350428Y-14636523D01*
X16350428Y-14636523D02*
X16378999Y-14636523D01*
X16378999Y-14636523D02*
X16398047Y-14646047D01*
X16398047Y-14646047D02*
X16407571Y-14655571D01*
X16407571Y-14655571D02*
X16417094Y-14674619D01*
X16417094Y-14674619D02*
X16417094Y-14731761D01*
X16417094Y-14731761D02*
X16407571Y-14750809D01*
X16407571Y-14750809D02*
X16398047Y-14760333D01*
X16398047Y-14760333D02*
X16378999Y-14769857D01*
X16378999Y-14769857D02*
X16350428Y-14769857D01*
X16474237Y-14636523D02*
X16550428Y-14636523D01*
X16502809Y-14569857D02*
X16502809Y-14741285D01*
X16502809Y-14741285D02*
X16512333Y-14760333D01*
X16512333Y-14760333D02*
X16531380Y-14769857D01*
X16531380Y-14769857D02*
X16550428Y-14769857D01*
X16769475Y-14636523D02*
X16769475Y-14836523D01*
X16769475Y-14646047D02*
X16788523Y-14636523D01*
X16788523Y-14636523D02*
X16826618Y-14636523D01*
X16826618Y-14636523D02*
X16845666Y-14646047D01*
X16845666Y-14646047D02*
X16855190Y-14655571D01*
X16855190Y-14655571D02*
X16864714Y-14674619D01*
X16864714Y-14674619D02*
X16864714Y-14731761D01*
X16864714Y-14731761D02*
X16855190Y-14750809D01*
X16855190Y-14750809D02*
X16845666Y-14760333D01*
X16845666Y-14760333D02*
X16826618Y-14769857D01*
X16826618Y-14769857D02*
X16788523Y-14769857D01*
X16788523Y-14769857D02*
X16769475Y-14760333D01*
X16978999Y-14769857D02*
X16959952Y-14760333D01*
X16959952Y-14760333D02*
X16950428Y-14741285D01*
X16950428Y-14741285D02*
X16950428Y-14569857D01*
X17140904Y-14769857D02*
X17140904Y-14665095D01*
X17140904Y-14665095D02*
X17131380Y-14646047D01*
X17131380Y-14646047D02*
X17112333Y-14636523D01*
X17112333Y-14636523D02*
X17074237Y-14636523D01*
X17074237Y-14636523D02*
X17055190Y-14646047D01*
X17140904Y-14760333D02*
X17121857Y-14769857D01*
X17121857Y-14769857D02*
X17074237Y-14769857D01*
X17074237Y-14769857D02*
X17055190Y-14760333D01*
X17055190Y-14760333D02*
X17045666Y-14741285D01*
X17045666Y-14741285D02*
X17045666Y-14722238D01*
X17045666Y-14722238D02*
X17055190Y-14703190D01*
X17055190Y-14703190D02*
X17074237Y-14693666D01*
X17074237Y-14693666D02*
X17121857Y-14693666D01*
X17121857Y-14693666D02*
X17140904Y-14684142D01*
X17207571Y-14636523D02*
X17283761Y-14636523D01*
X17236142Y-14569857D02*
X17236142Y-14741285D01*
X17236142Y-14741285D02*
X17245666Y-14760333D01*
X17245666Y-14760333D02*
X17264714Y-14769857D01*
X17264714Y-14769857D02*
X17283761Y-14769857D01*
X17426618Y-14760333D02*
X17407571Y-14769857D01*
X17407571Y-14769857D02*
X17369476Y-14769857D01*
X17369476Y-14769857D02*
X17350428Y-14760333D01*
X17350428Y-14760333D02*
X17340904Y-14741285D01*
X17340904Y-14741285D02*
X17340904Y-14665095D01*
X17340904Y-14665095D02*
X17350428Y-14646047D01*
X17350428Y-14646047D02*
X17369476Y-14636523D01*
X17369476Y-14636523D02*
X17407571Y-14636523D01*
X17407571Y-14636523D02*
X17426618Y-14646047D01*
X17426618Y-14646047D02*
X17436142Y-14665095D01*
X17436142Y-14665095D02*
X17436142Y-14684142D01*
X17436142Y-14684142D02*
X17340904Y-14703190D01*
X17607571Y-14769857D02*
X17607571Y-14569857D01*
X17607571Y-14760333D02*
X17588523Y-14769857D01*
X17588523Y-14769857D02*
X17550428Y-14769857D01*
X17550428Y-14769857D02*
X17531380Y-14760333D01*
X17531380Y-14760333D02*
X17521857Y-14750809D01*
X17521857Y-14750809D02*
X17512333Y-14731761D01*
X17512333Y-14731761D02*
X17512333Y-14674619D01*
X17512333Y-14674619D02*
X17521857Y-14655571D01*
X17521857Y-14655571D02*
X17531380Y-14646047D01*
X17531380Y-14646047D02*
X17550428Y-14636523D01*
X17550428Y-14636523D02*
X17588523Y-14636523D01*
X17588523Y-14636523D02*
X17607571Y-14646047D01*
X17683761Y-14846047D02*
X17693285Y-14836523D01*
X17693285Y-14836523D02*
X17712333Y-14807952D01*
X17712333Y-14807952D02*
X17721857Y-14788904D01*
X17721857Y-14788904D02*
X17731380Y-14760333D01*
X17731380Y-14760333D02*
X17740904Y-14712714D01*
X17740904Y-14712714D02*
X17740904Y-14674619D01*
X17740904Y-14674619D02*
X17731380Y-14626999D01*
X17731380Y-14626999D02*
X17721857Y-14598428D01*
X17721857Y-14598428D02*
X17712333Y-14579380D01*
X17712333Y-14579380D02*
X17693285Y-14550809D01*
X17693285Y-14550809D02*
X17683761Y-14541285D01*
M02*
