%TF.GenerationSoftware,KiCad,Pcbnew,8.0.0*%
%TF.CreationDate,2024-03-25T03:27:09+00:00*%
%TF.ProjectId,main_PCB_v2,6d61696e-5f50-4434-925f-76322e6b6963,rev?*%
%TF.SameCoordinates,Original*%
%TF.FileFunction,Soldermask,Bot*%
%TF.FilePolarity,Negative*%
%FSLAX46Y46*%
G04 Gerber Fmt 4.6, Leading zero omitted, Abs format (unit mm)*
G04 Created by KiCad (PCBNEW 8.0.0) date 2024-03-25 03:27:09*
%MOMM*%
%LPD*%
G01*
G04 APERTURE LIST*
G04 Aperture macros list*
%AMRoundRect*
0 Rectangle with rounded corners*
0 $1 Rounding radius*
0 $2 $3 $4 $5 $6 $7 $8 $9 X,Y pos of 4 corners*
0 Add a 4 corners polygon primitive as box body*
4,1,4,$2,$3,$4,$5,$6,$7,$8,$9,$2,$3,0*
0 Add four circle primitives for the rounded corners*
1,1,$1+$1,$2,$3*
1,1,$1+$1,$4,$5*
1,1,$1+$1,$6,$7*
1,1,$1+$1,$8,$9*
0 Add four rect primitives between the rounded corners*
20,1,$1+$1,$2,$3,$4,$5,0*
20,1,$1+$1,$4,$5,$6,$7,0*
20,1,$1+$1,$6,$7,$8,$9,0*
20,1,$1+$1,$8,$9,$2,$3,0*%
%AMRotRect*
0 Rectangle, with rotation*
0 The origin of the aperture is its center*
0 $1 length*
0 $2 width*
0 $3 Rotation angle, in degrees counterclockwise*
0 Add horizontal line*
21,1,$1,$2,0,0,$3*%
G04 Aperture macros list end*
%ADD10RotRect,3.800000X3.800000X315.000000*%
%ADD11C,4.000000*%
%ADD12RotRect,3.800000X3.800000X30.000000*%
%ADD13C,3.200000*%
%ADD14C,0.800000*%
%ADD15C,6.400000*%
%ADD16RotRect,3.800000X3.800000X210.000000*%
%ADD17C,2.000000*%
%ADD18R,2.000000X2.000000*%
%ADD19RoundRect,0.250000X-0.219615X-0.819615X0.819615X-0.219615X0.219615X0.819615X-0.819615X0.219615X0*%
%ADD20C,1.700000*%
%ADD21R,1.700000X1.700000*%
%ADD22O,1.700000X1.700000*%
%ADD23RoundRect,1.500000X-1.500000X1.500000X-1.500000X-1.500000X1.500000X-1.500000X1.500000X1.500000X0*%
%ADD24C,6.000000*%
G04 APERTURE END LIST*
D10*
%TO.C,J106*%
X171161165Y-118767767D03*
D11*
X174696699Y-122303301D03*
%TD*%
D12*
%TO.C,J103*%
X130759937Y-91425000D03*
D11*
X135090064Y-88925000D03*
%TD*%
D12*
%TO.C,J107*%
X138259937Y-104415382D03*
D11*
X142590064Y-101915382D03*
%TD*%
D10*
%TO.C,J102*%
X187071068Y-102857864D03*
D11*
X190606602Y-106393398D03*
%TD*%
D13*
%TO.C,OL102*%
X145160000Y-119355000D03*
D14*
X113675000Y-54670000D03*
X113675000Y-83475000D03*
X114377944Y-52972944D03*
X114377944Y-56367056D03*
X114377944Y-81777944D03*
X114377944Y-85172056D03*
X116075000Y-52270000D03*
X116075000Y-57070000D03*
X116075000Y-81075000D03*
X116075000Y-85875000D03*
X117772056Y-52972944D03*
X117772056Y-56367056D03*
X117772056Y-81777944D03*
X117772056Y-85172056D03*
X118475000Y-54670000D03*
X118475000Y-83475000D03*
X175132682Y-84154465D03*
X175835626Y-82457409D03*
X175835626Y-85851521D03*
X177532682Y-81754465D03*
X177532682Y-86554465D03*
X179229738Y-82457409D03*
X179229738Y-85851521D03*
X179932682Y-84154465D03*
X193126738Y-54667148D03*
X193130000Y-83850000D03*
X193829682Y-52970092D03*
X193829682Y-56364204D03*
X193832944Y-82152944D03*
X193832944Y-85547056D03*
X195526738Y-52267148D03*
X195526738Y-57067148D03*
X195530000Y-81450000D03*
X195530000Y-86250000D03*
X197223794Y-52970092D03*
X197223794Y-56364204D03*
X197227056Y-82152944D03*
X197227056Y-85547056D03*
X197926738Y-54667148D03*
X197930000Y-83850000D03*
D15*
X116075000Y-54670000D03*
X116075000Y-83475000D03*
X195526738Y-54667148D03*
X177532682Y-84154465D03*
X195530000Y-83850000D03*
%TD*%
D16*
%TO.C,J108*%
X147090064Y-109925000D03*
D11*
X142759937Y-112425000D03*
%TD*%
D17*
%TO.C,K101*%
X124912500Y-76962500D03*
X132412500Y-76962500D03*
X124912500Y-71962500D03*
X132412500Y-71962500D03*
X124912500Y-81962500D03*
X132412500Y-81962500D03*
D18*
X124912500Y-56962500D03*
D17*
X132412500Y-56962500D03*
%TD*%
D19*
%TO.C,J111*%
X151530296Y-127300296D03*
D20*
X153730001Y-126030296D03*
X152800296Y-129500001D03*
X155000000Y-128230001D03*
X154070296Y-131699705D03*
X156270001Y-130429705D03*
%TD*%
D12*
%TO.C,J110*%
X134509937Y-97920191D03*
D11*
X138840064Y-95420191D03*
%TD*%
D10*
%TO.C,J105*%
X176464466Y-113464466D03*
D11*
X180000000Y-117000000D03*
%TD*%
D21*
%TO.C,J109*%
X150000000Y-94540000D03*
D22*
X150000000Y-92000000D03*
X152540000Y-94540000D03*
X152540000Y-92000000D03*
X155080000Y-94540000D03*
X155080000Y-92000000D03*
X157620000Y-94540000D03*
X157620000Y-92000000D03*
X160160000Y-94540000D03*
X160160000Y-92000000D03*
X162700000Y-94540000D03*
X162700000Y-92000000D03*
X165240000Y-94540000D03*
X165240000Y-92000000D03*
X167780000Y-94540000D03*
X167780000Y-92000000D03*
X170320000Y-94540000D03*
X170320000Y-92000000D03*
X172860000Y-94540000D03*
X172860000Y-92000000D03*
X175400000Y-94540000D03*
X175400000Y-92000000D03*
X177940000Y-94540000D03*
X177940000Y-92000000D03*
X180480000Y-94540000D03*
X180480000Y-92000000D03*
X183020000Y-94540000D03*
X183020000Y-92000000D03*
X185560000Y-94540000D03*
X185560000Y-92000000D03*
X188100000Y-94540000D03*
X188100000Y-92000000D03*
X190640000Y-94540000D03*
X190640000Y-92000000D03*
X193180000Y-94540000D03*
X193180000Y-92000000D03*
X195720000Y-94540000D03*
X195720000Y-92000000D03*
X198260000Y-94540000D03*
X198260000Y-92000000D03*
%TD*%
D10*
%TO.C,J104*%
X181767767Y-108161165D03*
D11*
X185303301Y-111696699D03*
%TD*%
D23*
%TO.C,J101*%
X205750000Y-68400000D03*
D24*
X205750000Y-75600000D03*
%TD*%
M02*
