%TF.GenerationSoftware,KiCad,Pcbnew,8.0.0*%
%TF.CreationDate,2024-03-25T03:27:08+00:00*%
%TF.ProjectId,main_PCB_v2,6d61696e-5f50-4434-925f-76322e6b6963,rev?*%
%TF.SameCoordinates,Original*%
%TF.FileFunction,Copper,L2,Inr*%
%TF.FilePolarity,Positive*%
%FSLAX46Y46*%
G04 Gerber Fmt 4.6, Leading zero omitted, Abs format (unit mm)*
G04 Created by KiCad (PCBNEW 8.0.0) date 2024-03-25 03:27:08*
%MOMM*%
%LPD*%
G01*
G04 APERTURE LIST*
G04 Aperture macros list*
%AMRoundRect*
0 Rectangle with rounded corners*
0 $1 Rounding radius*
0 $2 $3 $4 $5 $6 $7 $8 $9 X,Y pos of 4 corners*
0 Add a 4 corners polygon primitive as box body*
4,1,4,$2,$3,$4,$5,$6,$7,$8,$9,$2,$3,0*
0 Add four circle primitives for the rounded corners*
1,1,$1+$1,$2,$3*
1,1,$1+$1,$4,$5*
1,1,$1+$1,$6,$7*
1,1,$1+$1,$8,$9*
0 Add four rect primitives between the rounded corners*
20,1,$1+$1,$2,$3,$4,$5,0*
20,1,$1+$1,$4,$5,$6,$7,0*
20,1,$1+$1,$6,$7,$8,$9,0*
20,1,$1+$1,$8,$9,$2,$3,0*%
%AMRotRect*
0 Rectangle, with rotation*
0 The origin of the aperture is its center*
0 $1 length*
0 $2 width*
0 $3 Rotation angle, in degrees counterclockwise*
0 Add horizontal line*
21,1,$1,$2,0,0,$3*%
G04 Aperture macros list end*
%TA.AperFunction,ComponentPad*%
%ADD10RotRect,3.800000X3.800000X315.000000*%
%TD*%
%TA.AperFunction,ComponentPad*%
%ADD11C,4.000000*%
%TD*%
%TA.AperFunction,ComponentPad*%
%ADD12RotRect,3.800000X3.800000X30.000000*%
%TD*%
%TA.AperFunction,ComponentPad*%
%ADD13C,0.800000*%
%TD*%
%TA.AperFunction,ComponentPad*%
%ADD14C,6.400000*%
%TD*%
%TA.AperFunction,ComponentPad*%
%ADD15RotRect,3.800000X3.800000X210.000000*%
%TD*%
%TA.AperFunction,ComponentPad*%
%ADD16C,2.000000*%
%TD*%
%TA.AperFunction,ComponentPad*%
%ADD17R,2.000000X2.000000*%
%TD*%
%TA.AperFunction,ComponentPad*%
%ADD18RoundRect,0.250000X-0.219615X-0.819615X0.819615X-0.219615X0.219615X0.819615X-0.819615X0.219615X0*%
%TD*%
%TA.AperFunction,ComponentPad*%
%ADD19C,1.700000*%
%TD*%
%TA.AperFunction,ComponentPad*%
%ADD20R,1.700000X1.700000*%
%TD*%
%TA.AperFunction,ComponentPad*%
%ADD21O,1.700000X1.700000*%
%TD*%
%TA.AperFunction,ComponentPad*%
%ADD22RoundRect,1.500000X-1.500000X1.500000X-1.500000X-1.500000X1.500000X-1.500000X1.500000X1.500000X0*%
%TD*%
%TA.AperFunction,ComponentPad*%
%ADD23C,6.000000*%
%TD*%
%TA.AperFunction,ViaPad*%
%ADD24C,0.450000*%
%TD*%
G04 APERTURE END LIST*
D10*
%TO.N,GND*%
%TO.C,J106*%
X171161165Y-118767767D03*
D11*
%TO.N,VBAT*%
X174696699Y-122303301D03*
%TD*%
D12*
%TO.N,GNDPWR*%
%TO.C,J103*%
X130759937Y-91425000D03*
D11*
%TO.N,/COIL*%
X135090064Y-88925000D03*
%TD*%
D12*
%TO.N,GNDPWR*%
%TO.C,J107*%
X138259937Y-104415382D03*
D11*
%TO.N,/HV*%
X142590064Y-101915382D03*
%TD*%
D10*
%TO.N,GND*%
%TO.C,J102*%
X187071068Y-102857864D03*
D11*
%TO.N,VBAT*%
X190606602Y-106393398D03*
%TD*%
D13*
%TO.N,GND*%
%TO.C,OL102*%
X113675000Y-54670000D03*
X113675000Y-83475000D03*
X114377944Y-52972944D03*
X114377944Y-56367056D03*
X114377944Y-81777944D03*
X114377944Y-85172056D03*
X116075000Y-52270000D03*
X116075000Y-57070000D03*
X116075000Y-81075000D03*
X116075000Y-85875000D03*
X117772056Y-52972944D03*
X117772056Y-56367056D03*
X117772056Y-81777944D03*
X117772056Y-85172056D03*
X118475000Y-54670000D03*
X118475000Y-83475000D03*
X175132682Y-84154465D03*
X175835626Y-82457409D03*
X175835626Y-85851521D03*
X177532682Y-81754465D03*
X177532682Y-86554465D03*
X179229738Y-82457409D03*
X179229738Y-85851521D03*
X179932682Y-84154465D03*
X193126738Y-54667148D03*
X193130000Y-83850000D03*
X193829682Y-52970092D03*
X193829682Y-56364204D03*
X193832944Y-82152944D03*
X193832944Y-85547056D03*
X195526738Y-52267148D03*
X195526738Y-57067148D03*
X195530000Y-81450000D03*
X195530000Y-86250000D03*
X197223794Y-52970092D03*
X197223794Y-56364204D03*
X197227056Y-82152944D03*
X197227056Y-85547056D03*
X197926738Y-54667148D03*
X197930000Y-83850000D03*
D14*
X116075000Y-54670000D03*
X116075000Y-83475000D03*
X195526738Y-54667148D03*
X177532682Y-84154465D03*
X195530000Y-83850000D03*
%TD*%
D15*
%TO.N,GND*%
%TO.C,J108*%
X147090064Y-109925000D03*
D11*
%TO.N,+12V*%
X142759937Y-112425000D03*
%TD*%
D16*
%TO.N,/CAP*%
%TO.C,K101*%
X124912500Y-76962500D03*
X132412500Y-76962500D03*
%TO.N,/HV*%
X124912500Y-71962500D03*
X132412500Y-71962500D03*
%TO.N,/COIL*%
X124912500Y-81962500D03*
X132412500Y-81962500D03*
D17*
%TO.N,+5V*%
X124912500Y-56962500D03*
D16*
%TO.N,/TRIG_D*%
X132412500Y-56962500D03*
%TD*%
D18*
%TO.N,GND*%
%TO.C,J111*%
X151530296Y-127300296D03*
D19*
%TO.N,/OUT1*%
X153730001Y-126030296D03*
%TO.N,/ENC_A*%
X152800296Y-129500001D03*
%TO.N,/ENC_B*%
X155000000Y-128230001D03*
%TO.N,/OUT2*%
X154070296Y-131699705D03*
%TO.N,+5V*%
X156270001Y-130429705D03*
%TD*%
D12*
%TO.N,GNDPWR*%
%TO.C,J110*%
X134509937Y-97920191D03*
D11*
%TO.N,/CAP*%
X138840064Y-95420191D03*
%TD*%
D10*
%TO.N,GND*%
%TO.C,J105*%
X176464466Y-113464466D03*
D11*
%TO.N,VBAT*%
X180000000Y-117000000D03*
%TD*%
D20*
%TO.N,unconnected-(J109-Pin_1-Pad1)*%
%TO.C,J109*%
X150000000Y-94540000D03*
D21*
%TO.N,unconnected-(J109-Pin_2-Pad2)*%
X150000000Y-92000000D03*
%TO.N,unconnected-(J109-Pin_3-Pad3)*%
X152540000Y-94540000D03*
%TO.N,unconnected-(J109-Pin_4-Pad4)*%
X152540000Y-92000000D03*
%TO.N,unconnected-(J109-Pin_5-Pad5)*%
X155080000Y-94540000D03*
%TO.N,unconnected-(J109-Pin_6-Pad6)*%
X155080000Y-92000000D03*
%TO.N,+3.3V*%
X157620000Y-94540000D03*
%TO.N,GND*%
X157620000Y-92000000D03*
%TO.N,unconnected-(J109-Pin_9-Pad9)*%
X160160000Y-94540000D03*
%TO.N,unconnected-(J109-Pin_10-Pad10)*%
X160160000Y-92000000D03*
%TO.N,unconnected-(J109-Pin_11-Pad11)*%
X162700000Y-94540000D03*
%TO.N,unconnected-(J109-Pin_12-Pad12)*%
X162700000Y-92000000D03*
%TO.N,GND*%
X165240000Y-94540000D03*
X165240000Y-92000000D03*
%TO.N,unconnected-(J109-Pin_15-Pad15)*%
X167780000Y-94540000D03*
%TO.N,unconnected-(J109-Pin_16-Pad16)*%
X167780000Y-92000000D03*
%TO.N,unconnected-(J109-Pin_17-Pad17)*%
X170320000Y-94540000D03*
%TO.N,unconnected-(J109-Pin_18-Pad18)*%
X170320000Y-92000000D03*
%TO.N,GND*%
X172860000Y-94540000D03*
X172860000Y-92000000D03*
%TO.N,/MOTOR_PH*%
X175400000Y-94540000D03*
%TO.N,unconnected-(J109-Pin_22-Pad22)*%
X175400000Y-92000000D03*
%TO.N,/MOTOR_EN*%
X177940000Y-94540000D03*
%TO.N,unconnected-(J109-Pin_24-Pad24)*%
X177940000Y-92000000D03*
%TO.N,GND*%
X180480000Y-94540000D03*
X180480000Y-92000000D03*
%TO.N,/ENC_A_3V3*%
X183020000Y-94540000D03*
%TO.N,/~{SLEEP}*%
X183020000Y-92000000D03*
%TO.N,/ENC_B_3V3*%
X185560000Y-94540000D03*
%TO.N,/TRIG*%
X185560000Y-92000000D03*
%TO.N,GND*%
X188100000Y-94540000D03*
X188100000Y-92000000D03*
%TO.N,+3.3V*%
X190640000Y-94540000D03*
X190640000Y-92000000D03*
%TO.N,+12V*%
X193180000Y-94540000D03*
%TO.N,+5V*%
X193180000Y-92000000D03*
%TO.N,GND*%
X195720000Y-94540000D03*
X195720000Y-92000000D03*
%TO.N,/ICOP*%
X198260000Y-94540000D03*
%TO.N,VSYS*%
X198260000Y-92000000D03*
%TD*%
D10*
%TO.N,GND*%
%TO.C,J104*%
X181767767Y-108161165D03*
D11*
%TO.N,VBAT*%
X185303301Y-111696699D03*
%TD*%
D22*
%TO.N,GND*%
%TO.C,J101*%
X205750000Y-68400000D03*
D23*
%TO.N,VBAT*%
X205750000Y-75600000D03*
%TD*%
D24*
%TO.N,GND*%
X122500000Y-54500000D03*
X122500000Y-64500000D03*
X180000000Y-112000000D03*
X207500000Y-54500000D03*
X167500000Y-57000000D03*
X170000000Y-74500000D03*
X112500000Y-57000000D03*
X174000000Y-116000000D03*
X168000000Y-120000000D03*
X182500000Y-77000000D03*
X162500000Y-109500000D03*
X170000000Y-57000000D03*
X182500000Y-57000000D03*
X150000000Y-79500000D03*
X170000000Y-52000000D03*
X160000000Y-89500000D03*
X185000000Y-57000000D03*
X185250000Y-64750000D03*
X197500000Y-59500000D03*
X175000000Y-117000000D03*
X180000000Y-102000000D03*
X132500000Y-67000000D03*
X210000000Y-64500000D03*
X170000000Y-97000000D03*
X117500000Y-59500000D03*
X150000000Y-52000000D03*
X185250000Y-69750000D03*
X172500000Y-79500000D03*
X172500000Y-54500000D03*
X163750000Y-68000000D03*
X163500000Y-73500000D03*
X186000000Y-69750000D03*
X112500000Y-82000000D03*
X132500000Y-52000000D03*
X200000000Y-62000000D03*
X112500000Y-62000000D03*
X156000000Y-74500000D03*
X115000000Y-59500000D03*
X182750000Y-101000000D03*
X160000000Y-52000000D03*
X172500000Y-97000000D03*
X137500000Y-64500000D03*
X135000000Y-72000000D03*
X180000000Y-72000000D03*
X153500000Y-72500000D03*
X175000000Y-52000000D03*
X172500000Y-77000000D03*
X165000000Y-82000000D03*
X157500000Y-89500000D03*
X122500000Y-69500000D03*
X150000000Y-72500000D03*
X117500000Y-67000000D03*
X120000000Y-59500000D03*
X170000000Y-108000000D03*
X162500000Y-79500000D03*
X175000000Y-54500000D03*
X205000000Y-57000000D03*
X167500000Y-54500000D03*
X185000000Y-87000000D03*
X140000000Y-69500000D03*
X185000000Y-59500000D03*
X162500000Y-102000000D03*
X172000000Y-68000000D03*
X180000000Y-77000000D03*
X165000000Y-69000000D03*
X117500000Y-69500000D03*
X147500000Y-52000000D03*
X200000000Y-69500000D03*
X165000000Y-102000000D03*
X172500000Y-57000000D03*
X150000000Y-57000000D03*
X185000000Y-107000000D03*
X149000000Y-73500000D03*
X122500000Y-52000000D03*
X161100000Y-122100000D03*
X172500000Y-82000000D03*
X165000000Y-104500000D03*
X159000000Y-74500000D03*
X122500000Y-57000000D03*
X172500000Y-52000000D03*
X135000000Y-67000000D03*
X137500000Y-69500000D03*
X132500000Y-59500000D03*
X210000000Y-54500000D03*
X115000000Y-74500000D03*
X148000000Y-72500000D03*
X117500000Y-74500000D03*
X130000000Y-64500000D03*
X112500000Y-67000000D03*
X162500000Y-54500000D03*
X182500000Y-52000000D03*
X148000000Y-74500000D03*
X164500000Y-72500000D03*
X122500000Y-79500000D03*
X190000000Y-57000000D03*
X127500000Y-54500000D03*
X185000000Y-52000000D03*
X182500000Y-72000000D03*
X120000000Y-74500000D03*
X165000000Y-99500000D03*
X162500000Y-82000000D03*
X165000000Y-52000000D03*
X152500000Y-79500000D03*
X165000000Y-107000000D03*
X137500000Y-67000000D03*
X180000000Y-52000000D03*
X165000000Y-57000000D03*
X135000000Y-69500000D03*
X187500000Y-82000000D03*
X187500000Y-87000000D03*
X166000000Y-112000000D03*
X122500000Y-74500000D03*
X205000000Y-64500000D03*
X122500000Y-87000000D03*
X205000000Y-59500000D03*
X150000000Y-68000000D03*
X140000000Y-54500000D03*
X192500000Y-57000000D03*
X151500000Y-72500000D03*
X162500000Y-89500000D03*
X120000000Y-62000000D03*
X175000000Y-57000000D03*
X150000000Y-54500000D03*
X175000000Y-79500000D03*
X120000000Y-52000000D03*
X142500000Y-52000000D03*
X115000000Y-67000000D03*
X167500000Y-52000000D03*
X125000000Y-59500000D03*
X157500000Y-87000000D03*
X182500000Y-74500000D03*
X190000000Y-54500000D03*
X115000000Y-72000000D03*
X162500000Y-72500000D03*
X112500000Y-72000000D03*
X182500000Y-79500000D03*
X202500000Y-54500000D03*
X125000000Y-64500000D03*
X159500000Y-101500000D03*
X115000000Y-79500000D03*
X172500000Y-102000000D03*
X137500000Y-74500000D03*
X167500000Y-104500000D03*
X165000000Y-84500000D03*
X137500000Y-72000000D03*
X192500000Y-52000000D03*
X177500000Y-54500000D03*
X130000000Y-57000000D03*
X207500000Y-57000000D03*
X200000000Y-64500000D03*
X130000000Y-54500000D03*
X155000000Y-89500000D03*
X207500000Y-64500000D03*
X187500000Y-52000000D03*
X197500000Y-69500000D03*
X205000000Y-52000000D03*
X155000000Y-57000000D03*
X185000000Y-54500000D03*
X183000000Y-105000000D03*
X160000000Y-82000000D03*
X127500000Y-62000000D03*
X157500000Y-52000000D03*
X152500000Y-87000000D03*
X167000000Y-74500000D03*
X177500000Y-59500000D03*
X170000000Y-122000000D03*
X160000000Y-99500000D03*
X160000000Y-109500000D03*
X200000000Y-67000000D03*
X180000000Y-57000000D03*
X165000000Y-54500000D03*
X169000000Y-121000000D03*
X170000000Y-72500000D03*
X173000000Y-115000000D03*
X167500000Y-97000000D03*
X120000000Y-69500000D03*
X202500000Y-59500000D03*
X195000000Y-62000000D03*
X150000000Y-82000000D03*
X150000000Y-84500000D03*
X145000000Y-52000000D03*
X161000000Y-72500000D03*
X189000000Y-101000000D03*
X145000000Y-74500000D03*
X132500000Y-64500000D03*
X130000000Y-67000000D03*
X207500000Y-62000000D03*
X120000000Y-54500000D03*
X161000000Y-68000000D03*
X202500000Y-52000000D03*
X186000000Y-64750000D03*
X177500000Y-97000000D03*
X135000000Y-52000000D03*
X197500000Y-67000000D03*
X210000000Y-62000000D03*
X170000000Y-102000000D03*
X162500000Y-104500000D03*
X159000000Y-72500000D03*
X152500000Y-57000000D03*
X117500000Y-64500000D03*
X205000000Y-62000000D03*
X174750000Y-68000000D03*
X125000000Y-52000000D03*
X150000000Y-89500000D03*
X112500000Y-79500000D03*
X182500000Y-84500000D03*
X120000000Y-57000000D03*
X190000000Y-102000000D03*
X167500000Y-102000000D03*
X160000000Y-54500000D03*
X135000000Y-64500000D03*
X127500000Y-69500000D03*
X140000000Y-57000000D03*
X200000000Y-59500000D03*
X122500000Y-72000000D03*
X125000000Y-69500000D03*
X155000000Y-84500000D03*
X177500000Y-77000000D03*
X112500000Y-77000000D03*
X177500000Y-57000000D03*
X162500000Y-84500000D03*
X162900000Y-123900000D03*
X187500000Y-59500000D03*
X168000000Y-110000000D03*
X125000000Y-62000000D03*
X144000000Y-70000000D03*
X200000000Y-54500000D03*
X187500000Y-54500000D03*
X155000000Y-54500000D03*
X112500000Y-59500000D03*
X184000000Y-106000000D03*
X142500000Y-54500000D03*
X157500000Y-97000000D03*
X185000000Y-79500000D03*
X195000000Y-97000000D03*
X115000000Y-77000000D03*
X187500000Y-84500000D03*
X177500000Y-74500000D03*
X157500000Y-82000000D03*
X137500000Y-54500000D03*
X207500000Y-52000000D03*
X117500000Y-62000000D03*
X172500000Y-99500000D03*
X180000000Y-54500000D03*
X180000000Y-97000000D03*
X197500000Y-64500000D03*
X127500000Y-64500000D03*
X177500000Y-52000000D03*
X152500000Y-89500000D03*
X125000000Y-67000000D03*
X202500000Y-57000000D03*
X171000000Y-73500000D03*
X122500000Y-77000000D03*
X152500000Y-73500000D03*
X210000000Y-52000000D03*
X115000000Y-62000000D03*
X122500000Y-82000000D03*
X170000000Y-54500000D03*
X115000000Y-64500000D03*
X160000000Y-73500000D03*
X122500000Y-62000000D03*
X117500000Y-79500000D03*
X152500000Y-82000000D03*
X170000000Y-82000000D03*
X145000000Y-87000000D03*
X165000000Y-113000000D03*
X167000000Y-111000000D03*
X180000000Y-74500000D03*
X140000000Y-72000000D03*
X210000000Y-67000000D03*
X165000000Y-87000000D03*
X181500000Y-65000000D03*
X157500000Y-57000000D03*
X140000000Y-64500000D03*
X120000000Y-77000000D03*
X198000000Y-88000000D03*
X122500000Y-59500000D03*
X135000000Y-54500000D03*
X120000000Y-84500000D03*
X187500000Y-57000000D03*
X190000000Y-52000000D03*
X145000000Y-57000000D03*
X153500000Y-70500000D03*
X200000000Y-57000000D03*
X177500000Y-72000000D03*
X172000000Y-72500000D03*
X155000000Y-52000000D03*
X170000000Y-99500000D03*
X144000000Y-73000000D03*
X140000000Y-67000000D03*
X185000000Y-82000000D03*
X155750000Y-79500000D03*
X192500000Y-99500000D03*
X160000000Y-57000000D03*
X150000000Y-87000000D03*
X157500000Y-54500000D03*
X155000000Y-82000000D03*
X207500000Y-59500000D03*
X127500000Y-67000000D03*
X152500000Y-54500000D03*
X180000000Y-79500000D03*
X182500000Y-54500000D03*
X162500000Y-99500000D03*
X154000000Y-69000000D03*
X160000000Y-87000000D03*
X179000000Y-111000000D03*
X152500000Y-52000000D03*
X183000000Y-64000000D03*
X127500000Y-57000000D03*
X165000000Y-97000000D03*
X210000000Y-69500000D03*
X192500000Y-62000000D03*
X120000000Y-87000000D03*
X122500000Y-84500000D03*
X205000000Y-54500000D03*
X202500000Y-64500000D03*
X182500000Y-59500000D03*
X152500000Y-84500000D03*
X159500000Y-106500000D03*
X180000000Y-59500000D03*
X140500000Y-73500000D03*
X112500000Y-74500000D03*
X147500000Y-54500000D03*
X210000000Y-59500000D03*
X175000000Y-74500000D03*
X162500000Y-107000000D03*
X182500000Y-82000000D03*
X117500000Y-72000000D03*
X120000000Y-82000000D03*
X112500000Y-69500000D03*
X175000000Y-72000000D03*
X182500000Y-87000000D03*
X137500000Y-59500000D03*
X169000000Y-109000000D03*
X197500000Y-62000000D03*
X162500000Y-52000000D03*
X145000000Y-84500000D03*
X190500000Y-67750000D03*
X122500000Y-67000000D03*
X120000000Y-72000000D03*
X120000000Y-64500000D03*
X185000000Y-84500000D03*
X167500000Y-82000000D03*
X150000000Y-77000000D03*
X140000000Y-52000000D03*
X164500000Y-70500000D03*
X162500000Y-57000000D03*
X159500000Y-104000000D03*
X120000000Y-79500000D03*
X117500000Y-77000000D03*
X175000000Y-77000000D03*
X135000000Y-59500000D03*
X177500000Y-79500000D03*
X130000000Y-59500000D03*
X210000000Y-57000000D03*
X170000000Y-87000000D03*
X155000000Y-87000000D03*
X147500000Y-57000000D03*
X130000000Y-69500000D03*
X120000000Y-67000000D03*
X132500000Y-69500000D03*
X200000000Y-52000000D03*
X166750000Y-79500000D03*
X178000000Y-110000000D03*
X137500000Y-52000000D03*
X115000000Y-69500000D03*
X145000000Y-54500000D03*
X142500000Y-57000000D03*
X192500000Y-59500000D03*
X167500000Y-87000000D03*
X195000000Y-59500000D03*
X167500000Y-99500000D03*
X202500000Y-62000000D03*
X190000000Y-59500000D03*
X162500000Y-97000000D03*
X152710000Y-68040000D03*
X112500000Y-64500000D03*
%TO.N,+5V*%
X159500000Y-103000000D03*
%TO.N,+3.3V*%
X163700000Y-121300000D03*
%TO.N,VBAT*%
X205000000Y-84500000D03*
X200000000Y-97000000D03*
X202500000Y-87000000D03*
X200000000Y-94500000D03*
X202500000Y-89500000D03*
X192500000Y-102000000D03*
X197500000Y-99500000D03*
X195000000Y-102000000D03*
X185000000Y-114500000D03*
X200000000Y-84500000D03*
X197500000Y-97000000D03*
X195000000Y-104500000D03*
X200000000Y-79500000D03*
X182500000Y-114500000D03*
X180000000Y-119500000D03*
X195000000Y-99500000D03*
X202500000Y-97000000D03*
X192500000Y-104500000D03*
X202500000Y-92000000D03*
X200000000Y-87000000D03*
X205000000Y-92000000D03*
X182500000Y-117000000D03*
X207500000Y-89500000D03*
X200000000Y-82000000D03*
X202500000Y-74500000D03*
X182500000Y-112000000D03*
X202500000Y-84500000D03*
X205000000Y-87000000D03*
X175000000Y-119500000D03*
X205000000Y-82000000D03*
X205000000Y-79500000D03*
X200000000Y-99500000D03*
X207500000Y-84500000D03*
X202500000Y-79500000D03*
X207500000Y-87000000D03*
X187500000Y-109500000D03*
X210000000Y-82000000D03*
X202500000Y-77000000D03*
X205000000Y-94500000D03*
X210000000Y-74500000D03*
X197500000Y-102000000D03*
X202500000Y-82000000D03*
X207500000Y-82000000D03*
X200000000Y-89500000D03*
X200000000Y-74500000D03*
X177500000Y-122000000D03*
X177500000Y-119500000D03*
X187500000Y-107000000D03*
X200000000Y-77000000D03*
X210000000Y-77000000D03*
X207500000Y-79500000D03*
X177500000Y-117000000D03*
X210000000Y-79500000D03*
X205000000Y-89500000D03*
X202500000Y-94500000D03*
X190000000Y-109500000D03*
%TO.N,/ICOP*%
X182470000Y-69500000D03*
X186250000Y-71750000D03*
%TO.N,/MOTOR_EN*%
X166000000Y-114500000D03*
%TO.N,/MOTOR_PH*%
X165000000Y-114500000D03*
%TO.N,/TRIG*%
X138500000Y-60250000D03*
%TO.N,/~{SLEEP}*%
X164000000Y-120400000D03*
%TO.N,/ENC_A*%
X178000000Y-102000000D03*
%TO.N,/ENC_B*%
X181000000Y-102000000D03*
%TO.N,/PGOOD_5V*%
X170500000Y-66000000D03*
X166000000Y-79500000D03*
%TO.N,/PGOOD_3V3*%
X159500000Y-66000000D03*
X155000000Y-79500000D03*
%TD*%
%TA.AperFunction,Conductor*%
%TO.N,GND*%
G36*
X208072364Y-49667160D02*
G01*
X208075171Y-49667198D01*
X208233136Y-49669385D01*
X208245223Y-49670145D01*
X208565624Y-49706115D01*
X208579277Y-49708426D01*
X208579605Y-49708501D01*
X208892811Y-49779713D01*
X208906125Y-49783534D01*
X209057938Y-49836440D01*
X209209756Y-49889348D01*
X209222553Y-49894627D01*
X209512489Y-50033645D01*
X209524610Y-50040314D01*
X209779804Y-50199905D01*
X209797234Y-50210805D01*
X209808550Y-50218794D01*
X210060449Y-50418622D01*
X210070803Y-50427823D01*
X210298846Y-50654502D01*
X210308109Y-50664801D01*
X210509442Y-50915494D01*
X210517499Y-50926762D01*
X210689615Y-51198348D01*
X210696365Y-51210444D01*
X210837120Y-51499539D01*
X210842478Y-51512312D01*
X210950106Y-51815289D01*
X210954007Y-51828580D01*
X211027174Y-52141682D01*
X211029568Y-52155326D01*
X211067457Y-52475496D01*
X211068291Y-52487603D01*
X211071481Y-52647951D01*
X211071506Y-52650417D01*
X211071506Y-71820500D01*
X211051821Y-71887539D01*
X210999017Y-71933294D01*
X210947506Y-71944500D01*
X199874000Y-71944500D01*
X199873991Y-71944500D01*
X199873990Y-71944501D01*
X199809064Y-71951481D01*
X199809052Y-71951483D01*
X199757546Y-71962688D01*
X199719345Y-71973644D01*
X199719341Y-71973646D01*
X199622431Y-72030323D01*
X199622428Y-72030325D01*
X199569623Y-72076081D01*
X199569612Y-72076091D01*
X199527451Y-72120807D01*
X199527445Y-72120816D01*
X199476560Y-72220890D01*
X199456877Y-72287921D01*
X199444500Y-72374002D01*
X199444500Y-91492523D01*
X199424815Y-91559562D01*
X199372011Y-91605317D01*
X199302853Y-91615261D01*
X199239297Y-91586236D01*
X199211142Y-91550977D01*
X199179897Y-91492523D01*
X199137685Y-91413550D01*
X199085702Y-91350209D01*
X199006410Y-91253589D01*
X198888677Y-91156969D01*
X198846450Y-91122315D01*
X198663954Y-91024768D01*
X198465934Y-90964700D01*
X198465932Y-90964699D01*
X198465934Y-90964699D01*
X198260000Y-90944417D01*
X198054067Y-90964699D01*
X197856043Y-91024769D01*
X197745898Y-91083643D01*
X197673550Y-91122315D01*
X197673548Y-91122316D01*
X197673547Y-91122317D01*
X197513589Y-91253589D01*
X197382317Y-91413547D01*
X197284769Y-91596043D01*
X197224699Y-91794067D01*
X197204417Y-92000000D01*
X197224699Y-92205932D01*
X197254734Y-92304944D01*
X197284768Y-92403954D01*
X197382315Y-92586450D01*
X197382317Y-92586452D01*
X197513589Y-92746410D01*
X197610209Y-92825702D01*
X197673550Y-92877685D01*
X197856046Y-92975232D01*
X198054066Y-93035300D01*
X198054065Y-93035300D01*
X198072529Y-93037118D01*
X198260000Y-93055583D01*
X198465934Y-93035300D01*
X198663954Y-92975232D01*
X198846450Y-92877685D01*
X199006410Y-92746410D01*
X199137685Y-92586450D01*
X199211142Y-92449021D01*
X199260105Y-92399178D01*
X199328242Y-92383718D01*
X199393922Y-92407550D01*
X199436291Y-92463108D01*
X199444500Y-92507476D01*
X199444500Y-94032523D01*
X199424815Y-94099562D01*
X199372011Y-94145317D01*
X199302853Y-94155261D01*
X199239297Y-94126236D01*
X199211142Y-94090977D01*
X199179897Y-94032523D01*
X199137685Y-93953550D01*
X199085702Y-93890209D01*
X199006410Y-93793589D01*
X198856121Y-93670252D01*
X198846450Y-93662315D01*
X198663954Y-93564768D01*
X198465934Y-93504700D01*
X198465932Y-93504699D01*
X198465934Y-93504699D01*
X198260000Y-93484417D01*
X198054067Y-93504699D01*
X197856043Y-93564769D01*
X197768114Y-93611769D01*
X197673550Y-93662315D01*
X197673548Y-93662316D01*
X197673547Y-93662317D01*
X197513589Y-93793589D01*
X197382317Y-93953547D01*
X197284769Y-94136043D01*
X197224699Y-94334067D01*
X197204417Y-94540000D01*
X197224699Y-94745932D01*
X197254734Y-94844944D01*
X197284768Y-94943954D01*
X197382315Y-95126450D01*
X197382317Y-95126452D01*
X197513589Y-95286410D01*
X197673548Y-95417684D01*
X197673550Y-95417685D01*
X197836765Y-95504926D01*
X197886609Y-95553887D01*
X197902069Y-95622025D01*
X197878237Y-95687705D01*
X197865992Y-95701964D01*
X171118881Y-122449074D01*
X171080585Y-122495820D01*
X171053555Y-122536426D01*
X171053544Y-122536444D01*
X171035931Y-122566484D01*
X171003995Y-122674114D01*
X171003994Y-122674118D01*
X170996766Y-122743603D01*
X170996765Y-122743627D01*
X170996589Y-122805092D01*
X170996590Y-122805098D01*
X171027911Y-122912904D01*
X171059403Y-122975279D01*
X171059406Y-122975284D01*
X171109238Y-123046530D01*
X171109240Y-123046532D01*
X171109241Y-123046533D01*
X174723644Y-126901896D01*
X174723649Y-126901900D01*
X174726392Y-126904223D01*
X174764836Y-126962566D01*
X174765635Y-127032431D01*
X174733947Y-127086539D01*
X164805569Y-137014917D01*
X164804144Y-137016320D01*
X164665269Y-137150787D01*
X164654161Y-137160338D01*
X164345930Y-137395173D01*
X164332045Y-137404347D01*
X163995149Y-137595791D01*
X163982019Y-137602259D01*
X163804067Y-137677211D01*
X163801872Y-137678111D01*
X162955041Y-138015866D01*
X162952665Y-138016785D01*
X161243533Y-138658096D01*
X161240799Y-138659086D01*
X159517196Y-139260106D01*
X159514439Y-139261031D01*
X157777081Y-139821512D01*
X157774649Y-139822269D01*
X156901404Y-140084304D01*
X156899279Y-140084921D01*
X156732617Y-140131707D01*
X156719862Y-140134572D01*
X156377390Y-140192726D01*
X156362552Y-140194335D01*
X156016495Y-140210879D01*
X156001572Y-140210693D01*
X155656035Y-140185541D01*
X155641242Y-140183563D01*
X155301240Y-140117082D01*
X155286792Y-140113342D01*
X154957235Y-140006494D01*
X154943340Y-140001045D01*
X154629009Y-139855378D01*
X154615870Y-139848300D01*
X154321302Y-139665915D01*
X154309109Y-139657308D01*
X154038605Y-139440869D01*
X154027534Y-139430861D01*
X153784987Y-139183485D01*
X153775199Y-139172219D01*
X153563554Y-138896748D01*
X153556146Y-138885974D01*
X153465747Y-138738405D01*
X153464612Y-138736516D01*
X153418469Y-138658096D01*
X149324129Y-131699705D01*
X153014713Y-131699705D01*
X153034995Y-131905637D01*
X153034996Y-131905639D01*
X153095064Y-132103659D01*
X153192611Y-132286155D01*
X153192613Y-132286157D01*
X153323885Y-132446115D01*
X153420505Y-132525407D01*
X153483846Y-132577390D01*
X153666342Y-132674937D01*
X153864362Y-132735005D01*
X153864361Y-132735005D01*
X153882825Y-132736823D01*
X154070296Y-132755288D01*
X154276230Y-132735005D01*
X154474250Y-132674937D01*
X154656746Y-132577390D01*
X154816706Y-132446115D01*
X154947981Y-132286155D01*
X155045528Y-132103659D01*
X155105596Y-131905639D01*
X155125879Y-131699705D01*
X155105596Y-131493771D01*
X155045528Y-131295751D01*
X154947981Y-131113255D01*
X154868294Y-131016155D01*
X154816706Y-130953294D01*
X154698973Y-130856674D01*
X154656746Y-130822020D01*
X154474250Y-130724473D01*
X154276230Y-130664405D01*
X154276228Y-130664404D01*
X154276230Y-130664404D01*
X154070296Y-130644122D01*
X153864363Y-130664404D01*
X153666339Y-130724474D01*
X153556194Y-130783348D01*
X153483846Y-130822020D01*
X153483844Y-130822021D01*
X153483843Y-130822022D01*
X153323885Y-130953294D01*
X153192613Y-131113252D01*
X153095065Y-131295748D01*
X153034995Y-131493772D01*
X153014713Y-131699705D01*
X149324129Y-131699705D01*
X148029816Y-129500001D01*
X151744713Y-129500001D01*
X151764995Y-129705933D01*
X151764996Y-129705935D01*
X151825064Y-129903955D01*
X151922611Y-130086451D01*
X151922613Y-130086453D01*
X152053885Y-130246411D01*
X152150505Y-130325703D01*
X152213846Y-130377686D01*
X152396342Y-130475233D01*
X152594362Y-130535301D01*
X152594361Y-130535301D01*
X152612825Y-130537119D01*
X152800296Y-130555584D01*
X153006230Y-130535301D01*
X153204250Y-130475233D01*
X153289426Y-130429705D01*
X155214418Y-130429705D01*
X155234700Y-130635637D01*
X155243427Y-130664405D01*
X155294769Y-130833659D01*
X155392316Y-131016155D01*
X155392318Y-131016157D01*
X155523590Y-131176115D01*
X155620210Y-131255407D01*
X155683551Y-131307390D01*
X155866047Y-131404937D01*
X156064067Y-131465005D01*
X156064066Y-131465005D01*
X156082530Y-131466823D01*
X156270001Y-131485288D01*
X156475935Y-131465005D01*
X156673955Y-131404937D01*
X156856451Y-131307390D01*
X157016411Y-131176115D01*
X157147686Y-131016155D01*
X157245233Y-130833659D01*
X157305301Y-130635639D01*
X157325584Y-130429705D01*
X157305301Y-130223771D01*
X157245233Y-130025751D01*
X157147686Y-129843255D01*
X157095703Y-129779914D01*
X157016411Y-129683294D01*
X156856453Y-129552022D01*
X156856454Y-129552022D01*
X156856451Y-129552020D01*
X156673955Y-129454473D01*
X156475935Y-129394405D01*
X156475933Y-129394404D01*
X156475935Y-129394404D01*
X156270001Y-129374122D01*
X156064068Y-129394404D01*
X155866044Y-129454474D01*
X155780871Y-129500001D01*
X155683551Y-129552020D01*
X155683549Y-129552021D01*
X155683548Y-129552022D01*
X155523590Y-129683294D01*
X155392318Y-129843252D01*
X155294770Y-130025748D01*
X155234700Y-130223772D01*
X155214418Y-130429705D01*
X153289426Y-130429705D01*
X153386746Y-130377686D01*
X153546706Y-130246411D01*
X153677981Y-130086451D01*
X153775528Y-129903955D01*
X153835596Y-129705935D01*
X153855879Y-129500001D01*
X153835596Y-129294067D01*
X153775528Y-129096047D01*
X153677981Y-128913551D01*
X153598294Y-128816451D01*
X153546706Y-128753590D01*
X153428973Y-128656970D01*
X153386746Y-128622316D01*
X153204250Y-128524769D01*
X153006230Y-128464701D01*
X153006228Y-128464700D01*
X153006230Y-128464700D01*
X152800296Y-128444418D01*
X152594363Y-128464700D01*
X152396339Y-128524770D01*
X152286194Y-128583644D01*
X152213846Y-128622316D01*
X152213844Y-128622317D01*
X152213843Y-128622318D01*
X152053885Y-128753590D01*
X151922613Y-128913548D01*
X151825065Y-129096044D01*
X151764995Y-129294068D01*
X151744713Y-129500001D01*
X148029816Y-129500001D01*
X147856372Y-129205231D01*
X147282544Y-128230001D01*
X153944417Y-128230001D01*
X153964699Y-128435933D01*
X153973426Y-128464701D01*
X154024768Y-128633955D01*
X154122315Y-128816451D01*
X154122317Y-128816453D01*
X154253589Y-128976411D01*
X154350209Y-129055703D01*
X154413550Y-129107686D01*
X154596046Y-129205233D01*
X154794066Y-129265301D01*
X154794065Y-129265301D01*
X154812529Y-129267119D01*
X155000000Y-129285584D01*
X155205934Y-129265301D01*
X155403954Y-129205233D01*
X155586450Y-129107686D01*
X155746410Y-128976411D01*
X155877685Y-128816451D01*
X155975232Y-128633955D01*
X156035300Y-128435935D01*
X156055583Y-128230001D01*
X156035300Y-128024067D01*
X155975232Y-127826047D01*
X155877685Y-127643551D01*
X155825702Y-127580210D01*
X155746410Y-127483590D01*
X155586452Y-127352318D01*
X155586453Y-127352318D01*
X155586450Y-127352316D01*
X155403954Y-127254769D01*
X155205934Y-127194701D01*
X155205932Y-127194700D01*
X155205934Y-127194700D01*
X155000000Y-127174418D01*
X154794067Y-127194700D01*
X154596043Y-127254770D01*
X154485898Y-127313644D01*
X154413550Y-127352316D01*
X154413548Y-127352317D01*
X154413547Y-127352318D01*
X154253589Y-127483590D01*
X154122317Y-127643548D01*
X154024769Y-127826044D01*
X153964699Y-128024068D01*
X153944417Y-128230001D01*
X147282544Y-128230001D01*
X145988230Y-126030296D01*
X152674418Y-126030296D01*
X152694700Y-126236228D01*
X152694701Y-126236230D01*
X152754769Y-126434250D01*
X152852316Y-126616746D01*
X152852318Y-126616748D01*
X152983590Y-126776706D01*
X153080210Y-126855998D01*
X153143551Y-126907981D01*
X153326047Y-127005528D01*
X153524067Y-127065596D01*
X153524066Y-127065596D01*
X153542530Y-127067414D01*
X153730001Y-127085879D01*
X153935935Y-127065596D01*
X154133955Y-127005528D01*
X154316451Y-126907981D01*
X154476411Y-126776706D01*
X154607686Y-126616746D01*
X154705233Y-126434250D01*
X154765301Y-126236230D01*
X154785584Y-126030296D01*
X154765301Y-125824362D01*
X154705233Y-125626342D01*
X154607686Y-125443846D01*
X154555703Y-125380505D01*
X154476411Y-125283885D01*
X154316453Y-125152613D01*
X154316454Y-125152613D01*
X154316451Y-125152611D01*
X154133955Y-125055064D01*
X153935935Y-124994996D01*
X153935933Y-124994995D01*
X153935935Y-124994995D01*
X153730001Y-124974713D01*
X153524068Y-124994995D01*
X153326044Y-125055065D01*
X153215899Y-125113939D01*
X153143551Y-125152611D01*
X153143549Y-125152612D01*
X153143548Y-125152613D01*
X152983590Y-125283885D01*
X152852318Y-125443843D01*
X152754770Y-125626339D01*
X152694700Y-125824363D01*
X152674418Y-126030296D01*
X145988230Y-126030296D01*
X143204909Y-121300002D01*
X163269196Y-121300002D01*
X163290279Y-121433121D01*
X163290280Y-121433124D01*
X163290281Y-121433126D01*
X163351472Y-121553220D01*
X163351473Y-121553221D01*
X163351476Y-121553225D01*
X163446774Y-121648523D01*
X163446778Y-121648526D01*
X163446780Y-121648528D01*
X163566874Y-121709719D01*
X163566876Y-121709719D01*
X163566878Y-121709720D01*
X163699998Y-121730804D01*
X163700000Y-121730804D01*
X163700002Y-121730804D01*
X163833121Y-121709720D01*
X163833121Y-121709719D01*
X163833126Y-121709719D01*
X163953220Y-121648528D01*
X164048528Y-121553220D01*
X164109719Y-121433126D01*
X164130804Y-121300000D01*
X164109719Y-121166874D01*
X164048528Y-121046780D01*
X164048526Y-121046778D01*
X164048523Y-121046774D01*
X164027532Y-121025783D01*
X163994047Y-120964460D01*
X163999031Y-120894768D01*
X164040903Y-120838835D01*
X164095816Y-120815629D01*
X164133121Y-120809720D01*
X164133121Y-120809719D01*
X164133126Y-120809719D01*
X164253220Y-120748528D01*
X164348528Y-120653220D01*
X164409719Y-120533126D01*
X164430804Y-120400000D01*
X164427593Y-120379729D01*
X164409720Y-120266878D01*
X164409719Y-120266876D01*
X164409719Y-120266874D01*
X164348528Y-120146780D01*
X164348526Y-120146778D01*
X164348523Y-120146774D01*
X164253225Y-120051476D01*
X164253221Y-120051473D01*
X164253220Y-120051472D01*
X164133126Y-119990281D01*
X164133124Y-119990280D01*
X164133121Y-119990279D01*
X164000002Y-119969196D01*
X163999998Y-119969196D01*
X163866878Y-119990279D01*
X163746778Y-120051473D01*
X163746774Y-120051476D01*
X163651476Y-120146774D01*
X163651473Y-120146778D01*
X163590279Y-120266878D01*
X163569196Y-120399997D01*
X163569196Y-120400002D01*
X163590279Y-120533121D01*
X163590280Y-120533124D01*
X163590281Y-120533126D01*
X163609648Y-120571135D01*
X163651473Y-120653221D01*
X163651476Y-120653225D01*
X163672467Y-120674216D01*
X163705952Y-120735539D01*
X163700968Y-120805231D01*
X163659096Y-120861164D01*
X163604186Y-120884370D01*
X163566877Y-120890279D01*
X163446778Y-120951473D01*
X163446774Y-120951476D01*
X163351476Y-121046774D01*
X163351473Y-121046778D01*
X163290279Y-121166878D01*
X163269196Y-121299997D01*
X163269196Y-121300002D01*
X143204909Y-121300002D01*
X142131448Y-119475640D01*
X143319500Y-119475640D01*
X143343993Y-119661678D01*
X143350992Y-119714834D01*
X143413436Y-119947878D01*
X143413439Y-119947888D01*
X143505762Y-120170775D01*
X143505767Y-120170786D01*
X143626392Y-120379713D01*
X143626403Y-120379729D01*
X143773268Y-120571128D01*
X143773274Y-120571135D01*
X143943864Y-120741725D01*
X143943871Y-120741731D01*
X143952729Y-120748528D01*
X144135279Y-120888603D01*
X144135286Y-120888607D01*
X144344213Y-121009232D01*
X144344218Y-121009234D01*
X144344221Y-121009236D01*
X144567121Y-121101564D01*
X144800166Y-121164008D01*
X145039367Y-121195500D01*
X145039374Y-121195500D01*
X145280626Y-121195500D01*
X145280633Y-121195500D01*
X145519834Y-121164008D01*
X145752879Y-121101564D01*
X145975779Y-121009236D01*
X146184721Y-120888603D01*
X146376130Y-120741730D01*
X146546730Y-120571130D01*
X146693603Y-120379721D01*
X146814236Y-120170779D01*
X146906564Y-119947879D01*
X146969008Y-119714834D01*
X147000500Y-119475633D01*
X147000500Y-119234367D01*
X146969008Y-118995166D01*
X146906564Y-118762121D01*
X146814236Y-118539221D01*
X146814234Y-118539218D01*
X146814232Y-118539213D01*
X146693607Y-118330286D01*
X146693603Y-118330279D01*
X146546730Y-118138870D01*
X146546725Y-118138864D01*
X146376135Y-117968274D01*
X146376128Y-117968268D01*
X146184729Y-117821403D01*
X146184727Y-117821401D01*
X146184721Y-117821397D01*
X146184716Y-117821394D01*
X146184713Y-117821392D01*
X145975786Y-117700767D01*
X145975775Y-117700762D01*
X145752888Y-117608439D01*
X145752881Y-117608437D01*
X145752879Y-117608436D01*
X145519834Y-117545992D01*
X145466678Y-117538993D01*
X145280640Y-117514500D01*
X145280633Y-117514500D01*
X145039367Y-117514500D01*
X145039359Y-117514500D01*
X144826743Y-117542492D01*
X144800166Y-117545992D01*
X144567121Y-117608436D01*
X144567111Y-117608439D01*
X144344224Y-117700762D01*
X144344213Y-117700767D01*
X144135286Y-117821392D01*
X144135270Y-117821403D01*
X143943871Y-117968268D01*
X143943864Y-117968274D01*
X143773274Y-118138864D01*
X143773268Y-118138871D01*
X143626403Y-118330270D01*
X143626392Y-118330286D01*
X143505767Y-118539213D01*
X143505762Y-118539224D01*
X143413439Y-118762111D01*
X143413436Y-118762121D01*
X143350992Y-118995167D01*
X143319500Y-119234359D01*
X143319500Y-119475640D01*
X142131448Y-119475640D01*
X137982828Y-112425000D01*
X140554715Y-112425000D01*
X140573581Y-112712837D01*
X140573583Y-112712849D01*
X140629854Y-112995745D01*
X140629858Y-112995760D01*
X140722579Y-113268905D01*
X140850156Y-113527606D01*
X140850160Y-113527613D01*
X141010415Y-113767452D01*
X141200609Y-113984327D01*
X141417484Y-114174521D01*
X141646018Y-114327222D01*
X141657326Y-114334778D01*
X141916035Y-114462359D01*
X142189184Y-114555081D01*
X142472098Y-114611356D01*
X142759937Y-114630222D01*
X143047776Y-114611356D01*
X143330690Y-114555081D01*
X143492947Y-114500002D01*
X164569196Y-114500002D01*
X164590279Y-114633121D01*
X164590280Y-114633124D01*
X164590281Y-114633126D01*
X164651472Y-114753220D01*
X164651473Y-114753221D01*
X164651476Y-114753225D01*
X164746774Y-114848523D01*
X164746778Y-114848526D01*
X164746780Y-114848528D01*
X164866874Y-114909719D01*
X164866876Y-114909719D01*
X164866878Y-114909720D01*
X164999998Y-114930804D01*
X165000000Y-114930804D01*
X165000002Y-114930804D01*
X165133121Y-114909720D01*
X165133121Y-114909719D01*
X165133126Y-114909719D01*
X165253220Y-114848528D01*
X165348528Y-114753220D01*
X165389516Y-114672775D01*
X165437489Y-114621981D01*
X165505310Y-114605186D01*
X165571445Y-114627723D01*
X165610483Y-114672774D01*
X165651472Y-114753220D01*
X165651473Y-114753221D01*
X165651476Y-114753225D01*
X165746774Y-114848523D01*
X165746778Y-114848526D01*
X165746780Y-114848528D01*
X165866874Y-114909719D01*
X165866876Y-114909719D01*
X165866878Y-114909720D01*
X165999998Y-114930804D01*
X166000000Y-114930804D01*
X166000002Y-114930804D01*
X166133121Y-114909720D01*
X166133121Y-114909719D01*
X166133126Y-114909719D01*
X166253220Y-114848528D01*
X166348528Y-114753220D01*
X166409719Y-114633126D01*
X166413167Y-114611355D01*
X166430804Y-114500002D01*
X166430804Y-114499997D01*
X166409720Y-114366878D01*
X166409719Y-114366876D01*
X166409719Y-114366874D01*
X166348528Y-114246780D01*
X166348526Y-114246778D01*
X166348523Y-114246774D01*
X166253225Y-114151476D01*
X166253221Y-114151473D01*
X166253220Y-114151472D01*
X166133126Y-114090281D01*
X166133124Y-114090280D01*
X166133121Y-114090279D01*
X166000002Y-114069196D01*
X165999998Y-114069196D01*
X165866878Y-114090279D01*
X165746778Y-114151473D01*
X165746774Y-114151476D01*
X165651476Y-114246774D01*
X165651473Y-114246779D01*
X165610485Y-114327222D01*
X165562510Y-114378018D01*
X165494689Y-114394813D01*
X165428554Y-114372275D01*
X165389515Y-114327222D01*
X165348528Y-114246780D01*
X165348524Y-114246776D01*
X165348523Y-114246774D01*
X165253225Y-114151476D01*
X165253221Y-114151473D01*
X165253220Y-114151472D01*
X165133126Y-114090281D01*
X165133124Y-114090280D01*
X165133121Y-114090279D01*
X165000002Y-114069196D01*
X164999998Y-114069196D01*
X164866878Y-114090279D01*
X164746778Y-114151473D01*
X164746774Y-114151476D01*
X164651476Y-114246774D01*
X164651473Y-114246778D01*
X164590279Y-114366878D01*
X164569196Y-114499997D01*
X164569196Y-114500002D01*
X143492947Y-114500002D01*
X143603839Y-114462359D01*
X143862548Y-114334778D01*
X144102391Y-114174520D01*
X144319264Y-113984327D01*
X144509457Y-113767454D01*
X144669715Y-113527611D01*
X144797296Y-113268902D01*
X144890018Y-112995753D01*
X144946293Y-112712839D01*
X144965159Y-112425000D01*
X144946293Y-112137161D01*
X144890018Y-111854247D01*
X144797296Y-111581098D01*
X144669715Y-111322389D01*
X144509457Y-111082546D01*
X144319264Y-110865672D01*
X144102389Y-110675478D01*
X143862550Y-110515223D01*
X143862543Y-110515219D01*
X143603842Y-110387642D01*
X143330697Y-110294921D01*
X143330691Y-110294919D01*
X143330690Y-110294919D01*
X143330688Y-110294918D01*
X143330682Y-110294917D01*
X143047786Y-110238646D01*
X143047776Y-110238644D01*
X142759937Y-110219778D01*
X142472098Y-110238644D01*
X142472092Y-110238645D01*
X142472087Y-110238646D01*
X142189191Y-110294917D01*
X142189176Y-110294921D01*
X141916031Y-110387642D01*
X141657330Y-110515219D01*
X141657323Y-110515223D01*
X141417484Y-110675478D01*
X141200609Y-110865672D01*
X141010415Y-111082547D01*
X140850160Y-111322386D01*
X140850156Y-111322393D01*
X140722579Y-111581094D01*
X140629858Y-111854239D01*
X140629854Y-111854254D01*
X140573583Y-112137150D01*
X140573581Y-112137162D01*
X140554715Y-112425000D01*
X137982828Y-112425000D01*
X136600904Y-110076400D01*
X148000000Y-103500000D01*
X148000000Y-103000002D01*
X159069196Y-103000002D01*
X159090279Y-103133121D01*
X159090280Y-103133124D01*
X159090281Y-103133126D01*
X159151472Y-103253220D01*
X159151473Y-103253221D01*
X159151476Y-103253225D01*
X159246774Y-103348523D01*
X159246778Y-103348526D01*
X159246780Y-103348528D01*
X159366874Y-103409719D01*
X159366876Y-103409719D01*
X159366878Y-103409720D01*
X159499998Y-103430804D01*
X159500000Y-103430804D01*
X159500002Y-103430804D01*
X159633121Y-103409720D01*
X159633121Y-103409719D01*
X159633126Y-103409719D01*
X159753220Y-103348528D01*
X159848528Y-103253220D01*
X159909719Y-103133126D01*
X159909720Y-103133121D01*
X159930804Y-103000002D01*
X159930804Y-102999997D01*
X159909720Y-102866878D01*
X159909719Y-102866876D01*
X159909719Y-102866874D01*
X159848528Y-102746780D01*
X159848526Y-102746778D01*
X159848523Y-102746774D01*
X159753225Y-102651476D01*
X159753221Y-102651473D01*
X159753220Y-102651472D01*
X159633126Y-102590281D01*
X159633124Y-102590280D01*
X159633121Y-102590279D01*
X159500002Y-102569196D01*
X159499998Y-102569196D01*
X159366878Y-102590279D01*
X159246778Y-102651473D01*
X159246774Y-102651476D01*
X159151476Y-102746774D01*
X159151473Y-102746778D01*
X159090279Y-102866878D01*
X159069196Y-102999997D01*
X159069196Y-103000002D01*
X148000000Y-103000002D01*
X148000000Y-102000002D01*
X177569196Y-102000002D01*
X177590279Y-102133121D01*
X177590280Y-102133124D01*
X177590281Y-102133126D01*
X177651472Y-102253220D01*
X177651473Y-102253221D01*
X177651476Y-102253225D01*
X177746774Y-102348523D01*
X177746778Y-102348526D01*
X177746780Y-102348528D01*
X177866874Y-102409719D01*
X177866876Y-102409719D01*
X177866878Y-102409720D01*
X177999998Y-102430804D01*
X178000000Y-102430804D01*
X178000002Y-102430804D01*
X178133121Y-102409720D01*
X178133121Y-102409719D01*
X178133126Y-102409719D01*
X178253220Y-102348528D01*
X178348528Y-102253220D01*
X178409719Y-102133126D01*
X178430804Y-102000002D01*
X180569196Y-102000002D01*
X180590279Y-102133121D01*
X180590280Y-102133124D01*
X180590281Y-102133126D01*
X180651472Y-102253220D01*
X180651473Y-102253221D01*
X180651476Y-102253225D01*
X180746774Y-102348523D01*
X180746778Y-102348526D01*
X180746780Y-102348528D01*
X180866874Y-102409719D01*
X180866876Y-102409719D01*
X180866878Y-102409720D01*
X180999998Y-102430804D01*
X181000000Y-102430804D01*
X181000002Y-102430804D01*
X181133121Y-102409720D01*
X181133121Y-102409719D01*
X181133126Y-102409719D01*
X181253220Y-102348528D01*
X181348528Y-102253220D01*
X181409719Y-102133126D01*
X181430804Y-102000000D01*
X181409719Y-101866874D01*
X181348528Y-101746780D01*
X181348526Y-101746778D01*
X181348523Y-101746774D01*
X181253225Y-101651476D01*
X181253221Y-101651473D01*
X181253220Y-101651472D01*
X181133126Y-101590281D01*
X181133124Y-101590280D01*
X181133121Y-101590279D01*
X181000002Y-101569196D01*
X180999998Y-101569196D01*
X180866878Y-101590279D01*
X180746778Y-101651473D01*
X180746774Y-101651476D01*
X180651476Y-101746774D01*
X180651473Y-101746778D01*
X180590279Y-101866878D01*
X180569196Y-101999997D01*
X180569196Y-102000002D01*
X178430804Y-102000002D01*
X178430804Y-102000000D01*
X178409719Y-101866874D01*
X178348528Y-101746780D01*
X178348526Y-101746778D01*
X178348523Y-101746774D01*
X178253225Y-101651476D01*
X178253221Y-101651473D01*
X178253220Y-101651472D01*
X178133126Y-101590281D01*
X178133124Y-101590280D01*
X178133121Y-101590279D01*
X178000002Y-101569196D01*
X177999998Y-101569196D01*
X177866878Y-101590279D01*
X177746778Y-101651473D01*
X177746774Y-101651476D01*
X177651476Y-101746774D01*
X177651473Y-101746778D01*
X177590279Y-101866878D01*
X177569196Y-101999997D01*
X177569196Y-102000002D01*
X148000000Y-102000002D01*
X148000000Y-95409752D01*
X148949500Y-95409752D01*
X148961131Y-95468229D01*
X148961132Y-95468230D01*
X149005447Y-95534552D01*
X149071769Y-95578867D01*
X149071770Y-95578868D01*
X149130247Y-95590499D01*
X149130250Y-95590500D01*
X149130252Y-95590500D01*
X150869750Y-95590500D01*
X150869751Y-95590499D01*
X150884568Y-95587552D01*
X150928229Y-95578868D01*
X150928229Y-95578867D01*
X150928231Y-95578867D01*
X150994552Y-95534552D01*
X151038867Y-95468231D01*
X151038867Y-95468229D01*
X151038868Y-95468229D01*
X151050499Y-95409752D01*
X151050500Y-95409750D01*
X151050500Y-94540000D01*
X151484417Y-94540000D01*
X151504699Y-94745932D01*
X151534734Y-94844944D01*
X151564768Y-94943954D01*
X151662315Y-95126450D01*
X151662317Y-95126452D01*
X151793589Y-95286410D01*
X151890209Y-95365702D01*
X151953550Y-95417685D01*
X152136046Y-95515232D01*
X152334066Y-95575300D01*
X152334065Y-95575300D01*
X152352529Y-95577118D01*
X152540000Y-95595583D01*
X152745934Y-95575300D01*
X152943954Y-95515232D01*
X153126450Y-95417685D01*
X153286410Y-95286410D01*
X153417685Y-95126450D01*
X153515232Y-94943954D01*
X153575300Y-94745934D01*
X153595583Y-94540000D01*
X154024417Y-94540000D01*
X154044699Y-94745932D01*
X154074734Y-94844944D01*
X154104768Y-94943954D01*
X154202315Y-95126450D01*
X154202317Y-95126452D01*
X154333589Y-95286410D01*
X154430209Y-95365702D01*
X154493550Y-95417685D01*
X154676046Y-95515232D01*
X154874066Y-95575300D01*
X154874065Y-95575300D01*
X154892529Y-95577118D01*
X155080000Y-95595583D01*
X155285934Y-95575300D01*
X155483954Y-95515232D01*
X155666450Y-95417685D01*
X155826410Y-95286410D01*
X155957685Y-95126450D01*
X156055232Y-94943954D01*
X156115300Y-94745934D01*
X156135583Y-94540000D01*
X156564417Y-94540000D01*
X156584699Y-94745932D01*
X156614734Y-94844944D01*
X156644768Y-94943954D01*
X156742315Y-95126450D01*
X156742317Y-95126452D01*
X156873589Y-95286410D01*
X156970209Y-95365702D01*
X157033550Y-95417685D01*
X157216046Y-95515232D01*
X157414066Y-95575300D01*
X157414065Y-95575300D01*
X157432529Y-95577118D01*
X157620000Y-95595583D01*
X157825934Y-95575300D01*
X158023954Y-95515232D01*
X158206450Y-95417685D01*
X158366410Y-95286410D01*
X158497685Y-95126450D01*
X158595232Y-94943954D01*
X158655300Y-94745934D01*
X158675583Y-94540000D01*
X159104417Y-94540000D01*
X159124699Y-94745932D01*
X159154734Y-94844944D01*
X159184768Y-94943954D01*
X159282315Y-95126450D01*
X159282317Y-95126452D01*
X159413589Y-95286410D01*
X159510209Y-95365702D01*
X159573550Y-95417685D01*
X159756046Y-95515232D01*
X159954066Y-95575300D01*
X159954065Y-95575300D01*
X159972529Y-95577118D01*
X160160000Y-95595583D01*
X160365934Y-95575300D01*
X160563954Y-95515232D01*
X160746450Y-95417685D01*
X160906410Y-95286410D01*
X161037685Y-95126450D01*
X161135232Y-94943954D01*
X161195300Y-94745934D01*
X161215583Y-94540000D01*
X161644417Y-94540000D01*
X161664699Y-94745932D01*
X161694734Y-94844944D01*
X161724768Y-94943954D01*
X161822315Y-95126450D01*
X161822317Y-95126452D01*
X161953589Y-95286410D01*
X162050209Y-95365702D01*
X162113550Y-95417685D01*
X162296046Y-95515232D01*
X162494066Y-95575300D01*
X162494065Y-95575300D01*
X162512529Y-95577118D01*
X162700000Y-95595583D01*
X162905934Y-95575300D01*
X163103954Y-95515232D01*
X163286450Y-95417685D01*
X163446410Y-95286410D01*
X163577685Y-95126450D01*
X163675232Y-94943954D01*
X163735300Y-94745934D01*
X163755583Y-94540000D01*
X166724417Y-94540000D01*
X166744699Y-94745932D01*
X166774734Y-94844944D01*
X166804768Y-94943954D01*
X166902315Y-95126450D01*
X166902317Y-95126452D01*
X167033589Y-95286410D01*
X167130209Y-95365702D01*
X167193550Y-95417685D01*
X167376046Y-95515232D01*
X167574066Y-95575300D01*
X167574065Y-95575300D01*
X167592529Y-95577118D01*
X167780000Y-95595583D01*
X167985934Y-95575300D01*
X168183954Y-95515232D01*
X168366450Y-95417685D01*
X168526410Y-95286410D01*
X168657685Y-95126450D01*
X168755232Y-94943954D01*
X168815300Y-94745934D01*
X168835583Y-94540000D01*
X169264417Y-94540000D01*
X169284699Y-94745932D01*
X169314734Y-94844944D01*
X169344768Y-94943954D01*
X169442315Y-95126450D01*
X169442317Y-95126452D01*
X169573589Y-95286410D01*
X169670209Y-95365702D01*
X169733550Y-95417685D01*
X169916046Y-95515232D01*
X170114066Y-95575300D01*
X170114065Y-95575300D01*
X170132529Y-95577118D01*
X170320000Y-95595583D01*
X170525934Y-95575300D01*
X170723954Y-95515232D01*
X170906450Y-95417685D01*
X171066410Y-95286410D01*
X171197685Y-95126450D01*
X171295232Y-94943954D01*
X171355300Y-94745934D01*
X171375583Y-94540000D01*
X174344417Y-94540000D01*
X174364699Y-94745932D01*
X174394734Y-94844944D01*
X174424768Y-94943954D01*
X174522315Y-95126450D01*
X174522317Y-95126452D01*
X174653589Y-95286410D01*
X174750209Y-95365702D01*
X174813550Y-95417685D01*
X174996046Y-95515232D01*
X175194066Y-95575300D01*
X175194065Y-95575300D01*
X175212529Y-95577118D01*
X175400000Y-95595583D01*
X175605934Y-95575300D01*
X175803954Y-95515232D01*
X175986450Y-95417685D01*
X176146410Y-95286410D01*
X176277685Y-95126450D01*
X176375232Y-94943954D01*
X176435300Y-94745934D01*
X176455583Y-94540000D01*
X176884417Y-94540000D01*
X176904699Y-94745932D01*
X176934734Y-94844944D01*
X176964768Y-94943954D01*
X177062315Y-95126450D01*
X177062317Y-95126452D01*
X177193589Y-95286410D01*
X177290209Y-95365702D01*
X177353550Y-95417685D01*
X177536046Y-95515232D01*
X177734066Y-95575300D01*
X177734065Y-95575300D01*
X177752529Y-95577118D01*
X177940000Y-95595583D01*
X178145934Y-95575300D01*
X178343954Y-95515232D01*
X178526450Y-95417685D01*
X178686410Y-95286410D01*
X178817685Y-95126450D01*
X178915232Y-94943954D01*
X178975300Y-94745934D01*
X178995583Y-94540000D01*
X181964417Y-94540000D01*
X181984699Y-94745932D01*
X182014734Y-94844944D01*
X182044768Y-94943954D01*
X182142315Y-95126450D01*
X182142317Y-95126452D01*
X182273589Y-95286410D01*
X182370209Y-95365702D01*
X182433550Y-95417685D01*
X182616046Y-95515232D01*
X182814066Y-95575300D01*
X182814065Y-95575300D01*
X182832529Y-95577118D01*
X183020000Y-95595583D01*
X183225934Y-95575300D01*
X183423954Y-95515232D01*
X183606450Y-95417685D01*
X183766410Y-95286410D01*
X183897685Y-95126450D01*
X183995232Y-94943954D01*
X184055300Y-94745934D01*
X184075583Y-94540000D01*
X184504417Y-94540000D01*
X184524699Y-94745932D01*
X184554734Y-94844944D01*
X184584768Y-94943954D01*
X184682315Y-95126450D01*
X184682317Y-95126452D01*
X184813589Y-95286410D01*
X184910209Y-95365702D01*
X184973550Y-95417685D01*
X185156046Y-95515232D01*
X185354066Y-95575300D01*
X185354065Y-95575300D01*
X185372529Y-95577118D01*
X185560000Y-95595583D01*
X185765934Y-95575300D01*
X185963954Y-95515232D01*
X186146450Y-95417685D01*
X186306410Y-95286410D01*
X186437685Y-95126450D01*
X186535232Y-94943954D01*
X186595300Y-94745934D01*
X186615583Y-94540000D01*
X189584417Y-94540000D01*
X189604699Y-94745932D01*
X189634734Y-94844944D01*
X189664768Y-94943954D01*
X189762315Y-95126450D01*
X189762317Y-95126452D01*
X189893589Y-95286410D01*
X189990209Y-95365702D01*
X190053550Y-95417685D01*
X190236046Y-95515232D01*
X190434066Y-95575300D01*
X190434065Y-95575300D01*
X190452529Y-95577118D01*
X190640000Y-95595583D01*
X190845934Y-95575300D01*
X191043954Y-95515232D01*
X191226450Y-95417685D01*
X191386410Y-95286410D01*
X191517685Y-95126450D01*
X191615232Y-94943954D01*
X191675300Y-94745934D01*
X191695583Y-94540000D01*
X192124417Y-94540000D01*
X192144699Y-94745932D01*
X192174734Y-94844944D01*
X192204768Y-94943954D01*
X192302315Y-95126450D01*
X192302317Y-95126452D01*
X192433589Y-95286410D01*
X192530209Y-95365702D01*
X192593550Y-95417685D01*
X192776046Y-95515232D01*
X192974066Y-95575300D01*
X192974065Y-95575300D01*
X192992529Y-95577118D01*
X193180000Y-95595583D01*
X193385934Y-95575300D01*
X193583954Y-95515232D01*
X193766450Y-95417685D01*
X193926410Y-95286410D01*
X194057685Y-95126450D01*
X194155232Y-94943954D01*
X194215300Y-94745934D01*
X194235583Y-94540000D01*
X194215300Y-94334066D01*
X194155232Y-94136046D01*
X194057685Y-93953550D01*
X194005702Y-93890209D01*
X193926410Y-93793589D01*
X193776121Y-93670252D01*
X193766450Y-93662315D01*
X193583954Y-93564768D01*
X193385934Y-93504700D01*
X193385932Y-93504699D01*
X193385934Y-93504699D01*
X193180000Y-93484417D01*
X192974067Y-93504699D01*
X192776043Y-93564769D01*
X192688114Y-93611769D01*
X192593550Y-93662315D01*
X192593548Y-93662316D01*
X192593547Y-93662317D01*
X192433589Y-93793589D01*
X192302317Y-93953547D01*
X192204769Y-94136043D01*
X192144699Y-94334067D01*
X192124417Y-94540000D01*
X191695583Y-94540000D01*
X191675300Y-94334066D01*
X191615232Y-94136046D01*
X191517685Y-93953550D01*
X191465702Y-93890209D01*
X191386410Y-93793589D01*
X191236121Y-93670252D01*
X191226450Y-93662315D01*
X191043954Y-93564768D01*
X190845934Y-93504700D01*
X190845932Y-93504699D01*
X190845934Y-93504699D01*
X190640000Y-93484417D01*
X190434067Y-93504699D01*
X190236043Y-93564769D01*
X190148114Y-93611769D01*
X190053550Y-93662315D01*
X190053548Y-93662316D01*
X190053547Y-93662317D01*
X189893589Y-93793589D01*
X189762317Y-93953547D01*
X189664769Y-94136043D01*
X189604699Y-94334067D01*
X189584417Y-94540000D01*
X186615583Y-94540000D01*
X186595300Y-94334066D01*
X186535232Y-94136046D01*
X186437685Y-93953550D01*
X186385702Y-93890209D01*
X186306410Y-93793589D01*
X186156121Y-93670252D01*
X186146450Y-93662315D01*
X185963954Y-93564768D01*
X185765934Y-93504700D01*
X185765932Y-93504699D01*
X185765934Y-93504699D01*
X185560000Y-93484417D01*
X185354067Y-93504699D01*
X185156043Y-93564769D01*
X185068114Y-93611769D01*
X184973550Y-93662315D01*
X184973548Y-93662316D01*
X184973547Y-93662317D01*
X184813589Y-93793589D01*
X184682317Y-93953547D01*
X184584769Y-94136043D01*
X184524699Y-94334067D01*
X184504417Y-94540000D01*
X184075583Y-94540000D01*
X184055300Y-94334066D01*
X183995232Y-94136046D01*
X183897685Y-93953550D01*
X183845702Y-93890209D01*
X183766410Y-93793589D01*
X183616121Y-93670252D01*
X183606450Y-93662315D01*
X183423954Y-93564768D01*
X183225934Y-93504700D01*
X183225932Y-93504699D01*
X183225934Y-93504699D01*
X183020000Y-93484417D01*
X182814067Y-93504699D01*
X182616043Y-93564769D01*
X182528114Y-93611769D01*
X182433550Y-93662315D01*
X182433548Y-93662316D01*
X182433547Y-93662317D01*
X182273589Y-93793589D01*
X182142317Y-93953547D01*
X182044769Y-94136043D01*
X181984699Y-94334067D01*
X181964417Y-94540000D01*
X178995583Y-94540000D01*
X178975300Y-94334066D01*
X178915232Y-94136046D01*
X178817685Y-93953550D01*
X178765702Y-93890209D01*
X178686410Y-93793589D01*
X178536121Y-93670252D01*
X178526450Y-93662315D01*
X178343954Y-93564768D01*
X178145934Y-93504700D01*
X178145932Y-93504699D01*
X178145934Y-93504699D01*
X177940000Y-93484417D01*
X177734067Y-93504699D01*
X177536043Y-93564769D01*
X177448114Y-93611769D01*
X177353550Y-93662315D01*
X177353548Y-93662316D01*
X177353547Y-93662317D01*
X177193589Y-93793589D01*
X177062317Y-93953547D01*
X176964769Y-94136043D01*
X176904699Y-94334067D01*
X176884417Y-94540000D01*
X176455583Y-94540000D01*
X176435300Y-94334066D01*
X176375232Y-94136046D01*
X176277685Y-93953550D01*
X176225702Y-93890209D01*
X176146410Y-93793589D01*
X175996121Y-93670252D01*
X175986450Y-93662315D01*
X175803954Y-93564768D01*
X175605934Y-93504700D01*
X175605932Y-93504699D01*
X175605934Y-93504699D01*
X175400000Y-93484417D01*
X175194067Y-93504699D01*
X174996043Y-93564769D01*
X174908114Y-93611769D01*
X174813550Y-93662315D01*
X174813548Y-93662316D01*
X174813547Y-93662317D01*
X174653589Y-93793589D01*
X174522317Y-93953547D01*
X174424769Y-94136043D01*
X174364699Y-94334067D01*
X174344417Y-94540000D01*
X171375583Y-94540000D01*
X171355300Y-94334066D01*
X171295232Y-94136046D01*
X171197685Y-93953550D01*
X171145702Y-93890209D01*
X171066410Y-93793589D01*
X170916121Y-93670252D01*
X170906450Y-93662315D01*
X170723954Y-93564768D01*
X170525934Y-93504700D01*
X170525932Y-93504699D01*
X170525934Y-93504699D01*
X170320000Y-93484417D01*
X170114067Y-93504699D01*
X169916043Y-93564769D01*
X169828114Y-93611769D01*
X169733550Y-93662315D01*
X169733548Y-93662316D01*
X169733547Y-93662317D01*
X169573589Y-93793589D01*
X169442317Y-93953547D01*
X169344769Y-94136043D01*
X169284699Y-94334067D01*
X169264417Y-94540000D01*
X168835583Y-94540000D01*
X168815300Y-94334066D01*
X168755232Y-94136046D01*
X168657685Y-93953550D01*
X168605702Y-93890209D01*
X168526410Y-93793589D01*
X168376121Y-93670252D01*
X168366450Y-93662315D01*
X168183954Y-93564768D01*
X167985934Y-93504700D01*
X167985932Y-93504699D01*
X167985934Y-93504699D01*
X167780000Y-93484417D01*
X167574067Y-93504699D01*
X167376043Y-93564769D01*
X167288114Y-93611769D01*
X167193550Y-93662315D01*
X167193548Y-93662316D01*
X167193547Y-93662317D01*
X167033589Y-93793589D01*
X166902317Y-93953547D01*
X166804769Y-94136043D01*
X166744699Y-94334067D01*
X166724417Y-94540000D01*
X163755583Y-94540000D01*
X163735300Y-94334066D01*
X163675232Y-94136046D01*
X163577685Y-93953550D01*
X163525702Y-93890209D01*
X163446410Y-93793589D01*
X163296121Y-93670252D01*
X163286450Y-93662315D01*
X163103954Y-93564768D01*
X162905934Y-93504700D01*
X162905932Y-93504699D01*
X162905934Y-93504699D01*
X162700000Y-93484417D01*
X162494067Y-93504699D01*
X162296043Y-93564769D01*
X162208114Y-93611769D01*
X162113550Y-93662315D01*
X162113548Y-93662316D01*
X162113547Y-93662317D01*
X161953589Y-93793589D01*
X161822317Y-93953547D01*
X161724769Y-94136043D01*
X161664699Y-94334067D01*
X161644417Y-94540000D01*
X161215583Y-94540000D01*
X161195300Y-94334066D01*
X161135232Y-94136046D01*
X161037685Y-93953550D01*
X160985702Y-93890209D01*
X160906410Y-93793589D01*
X160756121Y-93670252D01*
X160746450Y-93662315D01*
X160563954Y-93564768D01*
X160365934Y-93504700D01*
X160365932Y-93504699D01*
X160365934Y-93504699D01*
X160160000Y-93484417D01*
X159954067Y-93504699D01*
X159756043Y-93564769D01*
X159668114Y-93611769D01*
X159573550Y-93662315D01*
X159573548Y-93662316D01*
X159573547Y-93662317D01*
X159413589Y-93793589D01*
X159282317Y-93953547D01*
X159184769Y-94136043D01*
X159124699Y-94334067D01*
X159104417Y-94540000D01*
X158675583Y-94540000D01*
X158655300Y-94334066D01*
X158595232Y-94136046D01*
X158497685Y-93953550D01*
X158445702Y-93890209D01*
X158366410Y-93793589D01*
X158216121Y-93670252D01*
X158206450Y-93662315D01*
X158023954Y-93564768D01*
X157825934Y-93504700D01*
X157825932Y-93504699D01*
X157825934Y-93504699D01*
X157620000Y-93484417D01*
X157414067Y-93504699D01*
X157216043Y-93564769D01*
X157128114Y-93611769D01*
X157033550Y-93662315D01*
X157033548Y-93662316D01*
X157033547Y-93662317D01*
X156873589Y-93793589D01*
X156742317Y-93953547D01*
X156644769Y-94136043D01*
X156584699Y-94334067D01*
X156564417Y-94540000D01*
X156135583Y-94540000D01*
X156115300Y-94334066D01*
X156055232Y-94136046D01*
X155957685Y-93953550D01*
X155905702Y-93890209D01*
X155826410Y-93793589D01*
X155676121Y-93670252D01*
X155666450Y-93662315D01*
X155483954Y-93564768D01*
X155285934Y-93504700D01*
X155285932Y-93504699D01*
X155285934Y-93504699D01*
X155080000Y-93484417D01*
X154874067Y-93504699D01*
X154676043Y-93564769D01*
X154588114Y-93611769D01*
X154493550Y-93662315D01*
X154493548Y-93662316D01*
X154493547Y-93662317D01*
X154333589Y-93793589D01*
X154202317Y-93953547D01*
X154104769Y-94136043D01*
X154044699Y-94334067D01*
X154024417Y-94540000D01*
X153595583Y-94540000D01*
X153575300Y-94334066D01*
X153515232Y-94136046D01*
X153417685Y-93953550D01*
X153365702Y-93890209D01*
X153286410Y-93793589D01*
X153136121Y-93670252D01*
X153126450Y-93662315D01*
X152943954Y-93564768D01*
X152745934Y-93504700D01*
X152745932Y-93504699D01*
X152745934Y-93504699D01*
X152540000Y-93484417D01*
X152334067Y-93504699D01*
X152136043Y-93564769D01*
X152048114Y-93611769D01*
X151953550Y-93662315D01*
X151953548Y-93662316D01*
X151953547Y-93662317D01*
X151793589Y-93793589D01*
X151662317Y-93953547D01*
X151564769Y-94136043D01*
X151504699Y-94334067D01*
X151484417Y-94540000D01*
X151050500Y-94540000D01*
X151050500Y-93670249D01*
X151050499Y-93670247D01*
X151038868Y-93611770D01*
X151038867Y-93611769D01*
X150994552Y-93545447D01*
X150928230Y-93501132D01*
X150928229Y-93501131D01*
X150869752Y-93489500D01*
X150869748Y-93489500D01*
X149130252Y-93489500D01*
X149130247Y-93489500D01*
X149071770Y-93501131D01*
X149071769Y-93501132D01*
X149005447Y-93545447D01*
X148961132Y-93611769D01*
X148961131Y-93611770D01*
X148949500Y-93670247D01*
X148949500Y-95409752D01*
X148000000Y-95409752D01*
X148000000Y-92000000D01*
X148944417Y-92000000D01*
X148964699Y-92205932D01*
X148994734Y-92304944D01*
X149024768Y-92403954D01*
X149122315Y-92586450D01*
X149122317Y-92586452D01*
X149253589Y-92746410D01*
X149350209Y-92825702D01*
X149413550Y-92877685D01*
X149596046Y-92975232D01*
X149794066Y-93035300D01*
X149794065Y-93035300D01*
X149812529Y-93037118D01*
X150000000Y-93055583D01*
X150205934Y-93035300D01*
X150403954Y-92975232D01*
X150586450Y-92877685D01*
X150746410Y-92746410D01*
X150877685Y-92586450D01*
X150975232Y-92403954D01*
X151035300Y-92205934D01*
X151055583Y-92000000D01*
X151484417Y-92000000D01*
X151504699Y-92205932D01*
X151534734Y-92304944D01*
X151564768Y-92403954D01*
X151662315Y-92586450D01*
X151662317Y-92586452D01*
X151793589Y-92746410D01*
X151890209Y-92825702D01*
X151953550Y-92877685D01*
X152136046Y-92975232D01*
X152334066Y-93035300D01*
X152334065Y-93035300D01*
X152352529Y-93037118D01*
X152540000Y-93055583D01*
X152745934Y-93035300D01*
X152943954Y-92975232D01*
X153126450Y-92877685D01*
X153286410Y-92746410D01*
X153417685Y-92586450D01*
X153515232Y-92403954D01*
X153575300Y-92205934D01*
X153595583Y-92000000D01*
X154024417Y-92000000D01*
X154044699Y-92205932D01*
X154074734Y-92304944D01*
X154104768Y-92403954D01*
X154202315Y-92586450D01*
X154202317Y-92586452D01*
X154333589Y-92746410D01*
X154430209Y-92825702D01*
X154493550Y-92877685D01*
X154676046Y-92975232D01*
X154874066Y-93035300D01*
X154874065Y-93035300D01*
X154892529Y-93037118D01*
X155080000Y-93055583D01*
X155285934Y-93035300D01*
X155483954Y-92975232D01*
X155666450Y-92877685D01*
X155826410Y-92746410D01*
X155957685Y-92586450D01*
X156055232Y-92403954D01*
X156115300Y-92205934D01*
X156135583Y-92000000D01*
X159104417Y-92000000D01*
X159124699Y-92205932D01*
X159154734Y-92304944D01*
X159184768Y-92403954D01*
X159282315Y-92586450D01*
X159282317Y-92586452D01*
X159413589Y-92746410D01*
X159510209Y-92825702D01*
X159573550Y-92877685D01*
X159756046Y-92975232D01*
X159954066Y-93035300D01*
X159954065Y-93035300D01*
X159972529Y-93037118D01*
X160160000Y-93055583D01*
X160365934Y-93035300D01*
X160563954Y-92975232D01*
X160746450Y-92877685D01*
X160906410Y-92746410D01*
X161037685Y-92586450D01*
X161135232Y-92403954D01*
X161195300Y-92205934D01*
X161215583Y-92000000D01*
X161644417Y-92000000D01*
X161664699Y-92205932D01*
X161694734Y-92304944D01*
X161724768Y-92403954D01*
X161822315Y-92586450D01*
X161822317Y-92586452D01*
X161953589Y-92746410D01*
X162050209Y-92825702D01*
X162113550Y-92877685D01*
X162296046Y-92975232D01*
X162494066Y-93035300D01*
X162494065Y-93035300D01*
X162512529Y-93037118D01*
X162700000Y-93055583D01*
X162905934Y-93035300D01*
X163103954Y-92975232D01*
X163286450Y-92877685D01*
X163446410Y-92746410D01*
X163577685Y-92586450D01*
X163675232Y-92403954D01*
X163735300Y-92205934D01*
X163755583Y-92000000D01*
X166724417Y-92000000D01*
X166744699Y-92205932D01*
X166774734Y-92304944D01*
X166804768Y-92403954D01*
X166902315Y-92586450D01*
X166902317Y-92586452D01*
X167033589Y-92746410D01*
X167130209Y-92825702D01*
X167193550Y-92877685D01*
X167376046Y-92975232D01*
X167574066Y-93035300D01*
X167574065Y-93035300D01*
X167592529Y-93037118D01*
X167780000Y-93055583D01*
X167985934Y-93035300D01*
X168183954Y-92975232D01*
X168366450Y-92877685D01*
X168526410Y-92746410D01*
X168657685Y-92586450D01*
X168755232Y-92403954D01*
X168815300Y-92205934D01*
X168835583Y-92000000D01*
X169264417Y-92000000D01*
X169284699Y-92205932D01*
X169314734Y-92304944D01*
X169344768Y-92403954D01*
X169442315Y-92586450D01*
X169442317Y-92586452D01*
X169573589Y-92746410D01*
X169670209Y-92825702D01*
X169733550Y-92877685D01*
X169916046Y-92975232D01*
X170114066Y-93035300D01*
X170114065Y-93035300D01*
X170132529Y-93037118D01*
X170320000Y-93055583D01*
X170525934Y-93035300D01*
X170723954Y-92975232D01*
X170906450Y-92877685D01*
X171066410Y-92746410D01*
X171197685Y-92586450D01*
X171295232Y-92403954D01*
X171355300Y-92205934D01*
X171375583Y-92000000D01*
X174344417Y-92000000D01*
X174364699Y-92205932D01*
X174394734Y-92304944D01*
X174424768Y-92403954D01*
X174522315Y-92586450D01*
X174522317Y-92586452D01*
X174653589Y-92746410D01*
X174750209Y-92825702D01*
X174813550Y-92877685D01*
X174996046Y-92975232D01*
X175194066Y-93035300D01*
X175194065Y-93035300D01*
X175212529Y-93037118D01*
X175400000Y-93055583D01*
X175605934Y-93035300D01*
X175803954Y-92975232D01*
X175986450Y-92877685D01*
X176146410Y-92746410D01*
X176277685Y-92586450D01*
X176375232Y-92403954D01*
X176435300Y-92205934D01*
X176455583Y-92000000D01*
X176884417Y-92000000D01*
X176904699Y-92205932D01*
X176934734Y-92304944D01*
X176964768Y-92403954D01*
X177062315Y-92586450D01*
X177062317Y-92586452D01*
X177193589Y-92746410D01*
X177290209Y-92825702D01*
X177353550Y-92877685D01*
X177536046Y-92975232D01*
X177734066Y-93035300D01*
X177734065Y-93035300D01*
X177752529Y-93037118D01*
X177940000Y-93055583D01*
X178145934Y-93035300D01*
X178343954Y-92975232D01*
X178526450Y-92877685D01*
X178686410Y-92746410D01*
X178817685Y-92586450D01*
X178915232Y-92403954D01*
X178975300Y-92205934D01*
X178995583Y-92000000D01*
X181964417Y-92000000D01*
X181984699Y-92205932D01*
X182014734Y-92304944D01*
X182044768Y-92403954D01*
X182142315Y-92586450D01*
X182142317Y-92586452D01*
X182273589Y-92746410D01*
X182370209Y-92825702D01*
X182433550Y-92877685D01*
X182616046Y-92975232D01*
X182814066Y-93035300D01*
X182814065Y-93035300D01*
X182832529Y-93037118D01*
X183020000Y-93055583D01*
X183225934Y-93035300D01*
X183423954Y-92975232D01*
X183606450Y-92877685D01*
X183766410Y-92746410D01*
X183897685Y-92586450D01*
X183995232Y-92403954D01*
X184055300Y-92205934D01*
X184075583Y-92000000D01*
X184504417Y-92000000D01*
X184524699Y-92205932D01*
X184554734Y-92304944D01*
X184584768Y-92403954D01*
X184682315Y-92586450D01*
X184682317Y-92586452D01*
X184813589Y-92746410D01*
X184910209Y-92825702D01*
X184973550Y-92877685D01*
X185156046Y-92975232D01*
X185354066Y-93035300D01*
X185354065Y-93035300D01*
X185372529Y-93037118D01*
X185560000Y-93055583D01*
X185765934Y-93035300D01*
X185963954Y-92975232D01*
X186146450Y-92877685D01*
X186306410Y-92746410D01*
X186437685Y-92586450D01*
X186535232Y-92403954D01*
X186595300Y-92205934D01*
X186615583Y-92000000D01*
X189584417Y-92000000D01*
X189604699Y-92205932D01*
X189634734Y-92304944D01*
X189664768Y-92403954D01*
X189762315Y-92586450D01*
X189762317Y-92586452D01*
X189893589Y-92746410D01*
X189990209Y-92825702D01*
X190053550Y-92877685D01*
X190236046Y-92975232D01*
X190434066Y-93035300D01*
X190434065Y-93035300D01*
X190452529Y-93037118D01*
X190640000Y-93055583D01*
X190845934Y-93035300D01*
X191043954Y-92975232D01*
X191226450Y-92877685D01*
X191386410Y-92746410D01*
X191517685Y-92586450D01*
X191615232Y-92403954D01*
X191675300Y-92205934D01*
X191695583Y-92000000D01*
X192124417Y-92000000D01*
X192144699Y-92205932D01*
X192174734Y-92304944D01*
X192204768Y-92403954D01*
X192302315Y-92586450D01*
X192302317Y-92586452D01*
X192433589Y-92746410D01*
X192530209Y-92825702D01*
X192593550Y-92877685D01*
X192776046Y-92975232D01*
X192974066Y-93035300D01*
X192974065Y-93035300D01*
X192992529Y-93037118D01*
X193180000Y-93055583D01*
X193385934Y-93035300D01*
X193583954Y-92975232D01*
X193766450Y-92877685D01*
X193926410Y-92746410D01*
X194057685Y-92586450D01*
X194155232Y-92403954D01*
X194215300Y-92205934D01*
X194235583Y-92000000D01*
X194215300Y-91794066D01*
X194155232Y-91596046D01*
X194057685Y-91413550D01*
X194005702Y-91350209D01*
X193926410Y-91253589D01*
X193808677Y-91156969D01*
X193766450Y-91122315D01*
X193583954Y-91024768D01*
X193385934Y-90964700D01*
X193385932Y-90964699D01*
X193385934Y-90964699D01*
X193180000Y-90944417D01*
X192974067Y-90964699D01*
X192776043Y-91024769D01*
X192665898Y-91083643D01*
X192593550Y-91122315D01*
X192593548Y-91122316D01*
X192593547Y-91122317D01*
X192433589Y-91253589D01*
X192302317Y-91413547D01*
X192204769Y-91596043D01*
X192144699Y-91794067D01*
X192124417Y-92000000D01*
X191695583Y-92000000D01*
X191675300Y-91794066D01*
X191615232Y-91596046D01*
X191517685Y-91413550D01*
X191465702Y-91350209D01*
X191386410Y-91253589D01*
X191268677Y-91156969D01*
X191226450Y-91122315D01*
X191043954Y-91024768D01*
X190845934Y-90964700D01*
X190845932Y-90964699D01*
X190845934Y-90964699D01*
X190640000Y-90944417D01*
X190434067Y-90964699D01*
X190236043Y-91024769D01*
X190125898Y-91083643D01*
X190053550Y-91122315D01*
X190053548Y-91122316D01*
X190053547Y-91122317D01*
X189893589Y-91253589D01*
X189762317Y-91413547D01*
X189664769Y-91596043D01*
X189604699Y-91794067D01*
X189584417Y-92000000D01*
X186615583Y-92000000D01*
X186595300Y-91794066D01*
X186535232Y-91596046D01*
X186437685Y-91413550D01*
X186385702Y-91350209D01*
X186306410Y-91253589D01*
X186188677Y-91156969D01*
X186146450Y-91122315D01*
X185963954Y-91024768D01*
X185765934Y-90964700D01*
X185765932Y-90964699D01*
X185765934Y-90964699D01*
X185560000Y-90944417D01*
X185354067Y-90964699D01*
X185156043Y-91024769D01*
X185045898Y-91083643D01*
X184973550Y-91122315D01*
X184973548Y-91122316D01*
X184973547Y-91122317D01*
X184813589Y-91253589D01*
X184682317Y-91413547D01*
X184584769Y-91596043D01*
X184524699Y-91794067D01*
X184504417Y-92000000D01*
X184075583Y-92000000D01*
X184055300Y-91794066D01*
X183995232Y-91596046D01*
X183897685Y-91413550D01*
X183845702Y-91350209D01*
X183766410Y-91253589D01*
X183648677Y-91156969D01*
X183606450Y-91122315D01*
X183423954Y-91024768D01*
X183225934Y-90964700D01*
X183225932Y-90964699D01*
X183225934Y-90964699D01*
X183020000Y-90944417D01*
X182814067Y-90964699D01*
X182616043Y-91024769D01*
X182505898Y-91083643D01*
X182433550Y-91122315D01*
X182433548Y-91122316D01*
X182433547Y-91122317D01*
X182273589Y-91253589D01*
X182142317Y-91413547D01*
X182044769Y-91596043D01*
X181984699Y-91794067D01*
X181964417Y-92000000D01*
X178995583Y-92000000D01*
X178975300Y-91794066D01*
X178915232Y-91596046D01*
X178817685Y-91413550D01*
X178765702Y-91350209D01*
X178686410Y-91253589D01*
X178568677Y-91156969D01*
X178526450Y-91122315D01*
X178343954Y-91024768D01*
X178145934Y-90964700D01*
X178145932Y-90964699D01*
X178145934Y-90964699D01*
X177940000Y-90944417D01*
X177734067Y-90964699D01*
X177536043Y-91024769D01*
X177425898Y-91083643D01*
X177353550Y-91122315D01*
X177353548Y-91122316D01*
X177353547Y-91122317D01*
X177193589Y-91253589D01*
X177062317Y-91413547D01*
X176964769Y-91596043D01*
X176904699Y-91794067D01*
X176884417Y-92000000D01*
X176455583Y-92000000D01*
X176435300Y-91794066D01*
X176375232Y-91596046D01*
X176277685Y-91413550D01*
X176225702Y-91350209D01*
X176146410Y-91253589D01*
X176028677Y-91156969D01*
X175986450Y-91122315D01*
X175803954Y-91024768D01*
X175605934Y-90964700D01*
X175605932Y-90964699D01*
X175605934Y-90964699D01*
X175400000Y-90944417D01*
X175194067Y-90964699D01*
X174996043Y-91024769D01*
X174885898Y-91083643D01*
X174813550Y-91122315D01*
X174813548Y-91122316D01*
X174813547Y-91122317D01*
X174653589Y-91253589D01*
X174522317Y-91413547D01*
X174424769Y-91596043D01*
X174364699Y-91794067D01*
X174344417Y-92000000D01*
X171375583Y-92000000D01*
X171355300Y-91794066D01*
X171295232Y-91596046D01*
X171197685Y-91413550D01*
X171145702Y-91350209D01*
X171066410Y-91253589D01*
X170948677Y-91156969D01*
X170906450Y-91122315D01*
X170723954Y-91024768D01*
X170525934Y-90964700D01*
X170525932Y-90964699D01*
X170525934Y-90964699D01*
X170320000Y-90944417D01*
X170114067Y-90964699D01*
X169916043Y-91024769D01*
X169805898Y-91083643D01*
X169733550Y-91122315D01*
X169733548Y-91122316D01*
X169733547Y-91122317D01*
X169573589Y-91253589D01*
X169442317Y-91413547D01*
X169344769Y-91596043D01*
X169284699Y-91794067D01*
X169264417Y-92000000D01*
X168835583Y-92000000D01*
X168815300Y-91794066D01*
X168755232Y-91596046D01*
X168657685Y-91413550D01*
X168605702Y-91350209D01*
X168526410Y-91253589D01*
X168408677Y-91156969D01*
X168366450Y-91122315D01*
X168183954Y-91024768D01*
X167985934Y-90964700D01*
X167985932Y-90964699D01*
X167985934Y-90964699D01*
X167780000Y-90944417D01*
X167574067Y-90964699D01*
X167376043Y-91024769D01*
X167265898Y-91083643D01*
X167193550Y-91122315D01*
X167193548Y-91122316D01*
X167193547Y-91122317D01*
X167033589Y-91253589D01*
X166902317Y-91413547D01*
X166804769Y-91596043D01*
X166744699Y-91794067D01*
X166724417Y-92000000D01*
X163755583Y-92000000D01*
X163735300Y-91794066D01*
X163675232Y-91596046D01*
X163577685Y-91413550D01*
X163525702Y-91350209D01*
X163446410Y-91253589D01*
X163328677Y-91156969D01*
X163286450Y-91122315D01*
X163103954Y-91024768D01*
X162905934Y-90964700D01*
X162905932Y-90964699D01*
X162905934Y-90964699D01*
X162700000Y-90944417D01*
X162494067Y-90964699D01*
X162296043Y-91024769D01*
X162185898Y-91083643D01*
X162113550Y-91122315D01*
X162113548Y-91122316D01*
X162113547Y-91122317D01*
X161953589Y-91253589D01*
X161822317Y-91413547D01*
X161724769Y-91596043D01*
X161664699Y-91794067D01*
X161644417Y-92000000D01*
X161215583Y-92000000D01*
X161195300Y-91794066D01*
X161135232Y-91596046D01*
X161037685Y-91413550D01*
X160985702Y-91350209D01*
X160906410Y-91253589D01*
X160788677Y-91156969D01*
X160746450Y-91122315D01*
X160563954Y-91024768D01*
X160365934Y-90964700D01*
X160365932Y-90964699D01*
X160365934Y-90964699D01*
X160160000Y-90944417D01*
X159954067Y-90964699D01*
X159756043Y-91024769D01*
X159645898Y-91083643D01*
X159573550Y-91122315D01*
X159573548Y-91122316D01*
X159573547Y-91122317D01*
X159413589Y-91253589D01*
X159282317Y-91413547D01*
X159184769Y-91596043D01*
X159124699Y-91794067D01*
X159104417Y-92000000D01*
X156135583Y-92000000D01*
X156115300Y-91794066D01*
X156055232Y-91596046D01*
X155957685Y-91413550D01*
X155905702Y-91350209D01*
X155826410Y-91253589D01*
X155708677Y-91156969D01*
X155666450Y-91122315D01*
X155483954Y-91024768D01*
X155285934Y-90964700D01*
X155285932Y-90964699D01*
X155285934Y-90964699D01*
X155080000Y-90944417D01*
X154874067Y-90964699D01*
X154676043Y-91024769D01*
X154565898Y-91083643D01*
X154493550Y-91122315D01*
X154493548Y-91122316D01*
X154493547Y-91122317D01*
X154333589Y-91253589D01*
X154202317Y-91413547D01*
X154104769Y-91596043D01*
X154044699Y-91794067D01*
X154024417Y-92000000D01*
X153595583Y-92000000D01*
X153575300Y-91794066D01*
X153515232Y-91596046D01*
X153417685Y-91413550D01*
X153365702Y-91350209D01*
X153286410Y-91253589D01*
X153168677Y-91156969D01*
X153126450Y-91122315D01*
X152943954Y-91024768D01*
X152745934Y-90964700D01*
X152745932Y-90964699D01*
X152745934Y-90964699D01*
X152540000Y-90944417D01*
X152334067Y-90964699D01*
X152136043Y-91024769D01*
X152025898Y-91083643D01*
X151953550Y-91122315D01*
X151953548Y-91122316D01*
X151953547Y-91122317D01*
X151793589Y-91253589D01*
X151662317Y-91413547D01*
X151564769Y-91596043D01*
X151504699Y-91794067D01*
X151484417Y-92000000D01*
X151055583Y-92000000D01*
X151035300Y-91794066D01*
X150975232Y-91596046D01*
X150877685Y-91413550D01*
X150825702Y-91350209D01*
X150746410Y-91253589D01*
X150628677Y-91156969D01*
X150586450Y-91122315D01*
X150403954Y-91024768D01*
X150205934Y-90964700D01*
X150205932Y-90964699D01*
X150205934Y-90964699D01*
X150000000Y-90944417D01*
X149794067Y-90964699D01*
X149596043Y-91024769D01*
X149485898Y-91083643D01*
X149413550Y-91122315D01*
X149413548Y-91122316D01*
X149413547Y-91122317D01*
X149253589Y-91253589D01*
X149122317Y-91413547D01*
X149024769Y-91596043D01*
X148964699Y-91794067D01*
X148944417Y-92000000D01*
X148000000Y-92000000D01*
X148000000Y-82000000D01*
X145500002Y-79500002D01*
X154569196Y-79500002D01*
X154590279Y-79633121D01*
X154590280Y-79633124D01*
X154590281Y-79633126D01*
X154595700Y-79643761D01*
X154651473Y-79753221D01*
X154651476Y-79753225D01*
X154746774Y-79848523D01*
X154746778Y-79848526D01*
X154746780Y-79848528D01*
X154866874Y-79909719D01*
X154866876Y-79909719D01*
X154866878Y-79909720D01*
X154999998Y-79930804D01*
X155000000Y-79930804D01*
X155000002Y-79930804D01*
X155133121Y-79909720D01*
X155133121Y-79909719D01*
X155133126Y-79909719D01*
X155253220Y-79848528D01*
X155348528Y-79753220D01*
X155409719Y-79633126D01*
X155409720Y-79633121D01*
X155430804Y-79500002D01*
X165569196Y-79500002D01*
X165590279Y-79633121D01*
X165590280Y-79633124D01*
X165590281Y-79633126D01*
X165595700Y-79643761D01*
X165651473Y-79753221D01*
X165651476Y-79753225D01*
X165746774Y-79848523D01*
X165746778Y-79848526D01*
X165746780Y-79848528D01*
X165866874Y-79909719D01*
X165866876Y-79909719D01*
X165866878Y-79909720D01*
X165999998Y-79930804D01*
X166000000Y-79930804D01*
X166000002Y-79930804D01*
X166133121Y-79909720D01*
X166133121Y-79909719D01*
X166133126Y-79909719D01*
X166253220Y-79848528D01*
X166348528Y-79753220D01*
X166409719Y-79633126D01*
X166409720Y-79633121D01*
X166430804Y-79500002D01*
X166430804Y-79499997D01*
X166409720Y-79366878D01*
X166409719Y-79366876D01*
X166409719Y-79366874D01*
X166348528Y-79246780D01*
X166348526Y-79246778D01*
X166348523Y-79246774D01*
X166253225Y-79151476D01*
X166253221Y-79151473D01*
X166253220Y-79151472D01*
X166133126Y-79090281D01*
X166133124Y-79090280D01*
X166133121Y-79090279D01*
X166000002Y-79069196D01*
X165999998Y-79069196D01*
X165866878Y-79090279D01*
X165746778Y-79151473D01*
X165746774Y-79151476D01*
X165651476Y-79246774D01*
X165651473Y-79246778D01*
X165590279Y-79366878D01*
X165569196Y-79499997D01*
X165569196Y-79500002D01*
X155430804Y-79500002D01*
X155430804Y-79499997D01*
X155409720Y-79366878D01*
X155409719Y-79366876D01*
X155409719Y-79366874D01*
X155348528Y-79246780D01*
X155348526Y-79246778D01*
X155348523Y-79246774D01*
X155253225Y-79151476D01*
X155253221Y-79151473D01*
X155253220Y-79151472D01*
X155133126Y-79090281D01*
X155133124Y-79090280D01*
X155133121Y-79090279D01*
X155000002Y-79069196D01*
X154999998Y-79069196D01*
X154866878Y-79090279D01*
X154746778Y-79151473D01*
X154746774Y-79151476D01*
X154651476Y-79246774D01*
X154651473Y-79246778D01*
X154590279Y-79366878D01*
X154569196Y-79499997D01*
X154569196Y-79500002D01*
X145500002Y-79500002D01*
X137750002Y-71750002D01*
X185819196Y-71750002D01*
X185840279Y-71883121D01*
X185840280Y-71883124D01*
X185840281Y-71883126D01*
X185887889Y-71976561D01*
X185901473Y-72003221D01*
X185901476Y-72003225D01*
X185996774Y-72098523D01*
X185996778Y-72098526D01*
X185996780Y-72098528D01*
X186116874Y-72159719D01*
X186116876Y-72159719D01*
X186116878Y-72159720D01*
X186249998Y-72180804D01*
X186250000Y-72180804D01*
X186250002Y-72180804D01*
X186383121Y-72159720D01*
X186383121Y-72159719D01*
X186383126Y-72159719D01*
X186503220Y-72098528D01*
X186598528Y-72003220D01*
X186659719Y-71883126D01*
X186680804Y-71750000D01*
X186659719Y-71616874D01*
X186598528Y-71496780D01*
X186598526Y-71496778D01*
X186598523Y-71496774D01*
X186503225Y-71401476D01*
X186503221Y-71401473D01*
X186503220Y-71401472D01*
X186383126Y-71340281D01*
X186383124Y-71340280D01*
X186383121Y-71340279D01*
X186250002Y-71319196D01*
X186249998Y-71319196D01*
X186116878Y-71340279D01*
X185996778Y-71401473D01*
X185996774Y-71401476D01*
X185901476Y-71496774D01*
X185901473Y-71496778D01*
X185840279Y-71616878D01*
X185819196Y-71749997D01*
X185819196Y-71750002D01*
X137750002Y-71750002D01*
X135500002Y-69500002D01*
X182039196Y-69500002D01*
X182060279Y-69633121D01*
X182060280Y-69633124D01*
X182060281Y-69633126D01*
X182121472Y-69753220D01*
X182121473Y-69753221D01*
X182121476Y-69753225D01*
X182216774Y-69848523D01*
X182216778Y-69848526D01*
X182216780Y-69848528D01*
X182336874Y-69909719D01*
X182336876Y-69909719D01*
X182336878Y-69909720D01*
X182469998Y-69930804D01*
X182470000Y-69930804D01*
X182470002Y-69930804D01*
X182603121Y-69909720D01*
X182603121Y-69909719D01*
X182603126Y-69909719D01*
X182723220Y-69848528D01*
X182818528Y-69753220D01*
X182879719Y-69633126D01*
X182900804Y-69500000D01*
X182879719Y-69366874D01*
X182818528Y-69246780D01*
X182818526Y-69246778D01*
X182818523Y-69246774D01*
X182723225Y-69151476D01*
X182723221Y-69151473D01*
X182723220Y-69151472D01*
X182603126Y-69090281D01*
X182603124Y-69090280D01*
X182603121Y-69090279D01*
X182470002Y-69069196D01*
X182469998Y-69069196D01*
X182336878Y-69090279D01*
X182216778Y-69151473D01*
X182216774Y-69151476D01*
X182121476Y-69246774D01*
X182121473Y-69246778D01*
X182060279Y-69366878D01*
X182039196Y-69499997D01*
X182039196Y-69500002D01*
X135500002Y-69500002D01*
X135000000Y-69000000D01*
X111071506Y-69000000D01*
X111071506Y-66000002D01*
X159069196Y-66000002D01*
X159090279Y-66133121D01*
X159090280Y-66133124D01*
X159090281Y-66133126D01*
X159151472Y-66253220D01*
X159151473Y-66253221D01*
X159151476Y-66253225D01*
X159246774Y-66348523D01*
X159246778Y-66348526D01*
X159246780Y-66348528D01*
X159366874Y-66409719D01*
X159366876Y-66409719D01*
X159366878Y-66409720D01*
X159499998Y-66430804D01*
X159500000Y-66430804D01*
X159500002Y-66430804D01*
X159633121Y-66409720D01*
X159633121Y-66409719D01*
X159633126Y-66409719D01*
X159753220Y-66348528D01*
X159848528Y-66253220D01*
X159909719Y-66133126D01*
X159930804Y-66000002D01*
X170069196Y-66000002D01*
X170090279Y-66133121D01*
X170090280Y-66133124D01*
X170090281Y-66133126D01*
X170151472Y-66253220D01*
X170151473Y-66253221D01*
X170151476Y-66253225D01*
X170246774Y-66348523D01*
X170246778Y-66348526D01*
X170246780Y-66348528D01*
X170366874Y-66409719D01*
X170366876Y-66409719D01*
X170366878Y-66409720D01*
X170499998Y-66430804D01*
X170500000Y-66430804D01*
X170500002Y-66430804D01*
X170633121Y-66409720D01*
X170633121Y-66409719D01*
X170633126Y-66409719D01*
X170753220Y-66348528D01*
X170848528Y-66253220D01*
X170909719Y-66133126D01*
X170930804Y-66000000D01*
X170909719Y-65866874D01*
X170848528Y-65746780D01*
X170848526Y-65746778D01*
X170848523Y-65746774D01*
X170753225Y-65651476D01*
X170753221Y-65651473D01*
X170753220Y-65651472D01*
X170633126Y-65590281D01*
X170633124Y-65590280D01*
X170633121Y-65590279D01*
X170500002Y-65569196D01*
X170499998Y-65569196D01*
X170366878Y-65590279D01*
X170246778Y-65651473D01*
X170246774Y-65651476D01*
X170151476Y-65746774D01*
X170151473Y-65746778D01*
X170090279Y-65866878D01*
X170069196Y-65999997D01*
X170069196Y-66000002D01*
X159930804Y-66000002D01*
X159930804Y-66000000D01*
X159909719Y-65866874D01*
X159848528Y-65746780D01*
X159848526Y-65746778D01*
X159848523Y-65746774D01*
X159753225Y-65651476D01*
X159753221Y-65651473D01*
X159753220Y-65651472D01*
X159633126Y-65590281D01*
X159633124Y-65590280D01*
X159633121Y-65590279D01*
X159500002Y-65569196D01*
X159499998Y-65569196D01*
X159366878Y-65590279D01*
X159246778Y-65651473D01*
X159246774Y-65651476D01*
X159151476Y-65746774D01*
X159151473Y-65746778D01*
X159090279Y-65866878D01*
X159069196Y-65999997D01*
X159069196Y-66000002D01*
X111071506Y-66000002D01*
X111071506Y-60250002D01*
X138069196Y-60250002D01*
X138090279Y-60383121D01*
X138090280Y-60383124D01*
X138090281Y-60383126D01*
X138151472Y-60503220D01*
X138151473Y-60503221D01*
X138151476Y-60503225D01*
X138246774Y-60598523D01*
X138246778Y-60598526D01*
X138246780Y-60598528D01*
X138366874Y-60659719D01*
X138366876Y-60659719D01*
X138366878Y-60659720D01*
X138499998Y-60680804D01*
X138500000Y-60680804D01*
X138500002Y-60680804D01*
X138633121Y-60659720D01*
X138633121Y-60659719D01*
X138633126Y-60659719D01*
X138753220Y-60598528D01*
X138848528Y-60503220D01*
X138909719Y-60383126D01*
X138930804Y-60250000D01*
X138909719Y-60116874D01*
X138848528Y-59996780D01*
X138848526Y-59996778D01*
X138848523Y-59996774D01*
X138753225Y-59901476D01*
X138753221Y-59901473D01*
X138753220Y-59901472D01*
X138633126Y-59840281D01*
X138633124Y-59840280D01*
X138633121Y-59840279D01*
X138500002Y-59819196D01*
X138499998Y-59819196D01*
X138366878Y-59840279D01*
X138246778Y-59901473D01*
X138246774Y-59901476D01*
X138151476Y-59996774D01*
X138151473Y-59996778D01*
X138090279Y-60116878D01*
X138069196Y-60249997D01*
X138069196Y-60250002D01*
X111071506Y-60250002D01*
X111071506Y-57982252D01*
X123712000Y-57982252D01*
X123723631Y-58040729D01*
X123723632Y-58040730D01*
X123767947Y-58107052D01*
X123834269Y-58151367D01*
X123834270Y-58151368D01*
X123892747Y-58162999D01*
X123892750Y-58163000D01*
X123892752Y-58163000D01*
X125932250Y-58163000D01*
X125932251Y-58162999D01*
X125947068Y-58160052D01*
X125990729Y-58151368D01*
X125990729Y-58151367D01*
X125990731Y-58151367D01*
X126057052Y-58107052D01*
X126101367Y-58040731D01*
X126101367Y-58040729D01*
X126101368Y-58040729D01*
X126112999Y-57982252D01*
X126113000Y-57982250D01*
X126113000Y-56962500D01*
X131206857Y-56962500D01*
X131227384Y-57184035D01*
X131227385Y-57184037D01*
X131288269Y-57398023D01*
X131288275Y-57398038D01*
X131387438Y-57597183D01*
X131387443Y-57597191D01*
X131521520Y-57774738D01*
X131685937Y-57924623D01*
X131685939Y-57924625D01*
X131875095Y-58041745D01*
X131875096Y-58041745D01*
X131875099Y-58041747D01*
X132082560Y-58122118D01*
X132301257Y-58163000D01*
X132301259Y-58163000D01*
X132523741Y-58163000D01*
X132523743Y-58163000D01*
X132742440Y-58122118D01*
X132949901Y-58041747D01*
X133139062Y-57924624D01*
X133303481Y-57774736D01*
X133437558Y-57597189D01*
X133536729Y-57398028D01*
X133597615Y-57184036D01*
X133618143Y-56962500D01*
X133597615Y-56740964D01*
X133536729Y-56526972D01*
X133536724Y-56526961D01*
X133437561Y-56327816D01*
X133437556Y-56327808D01*
X133303479Y-56150261D01*
X133139062Y-56000376D01*
X133139060Y-56000374D01*
X132949904Y-55883254D01*
X132949898Y-55883252D01*
X132742440Y-55802882D01*
X132523743Y-55762000D01*
X132301257Y-55762000D01*
X132082560Y-55802882D01*
X131951364Y-55853707D01*
X131875101Y-55883252D01*
X131875095Y-55883254D01*
X131685939Y-56000374D01*
X131685937Y-56000376D01*
X131521520Y-56150261D01*
X131387443Y-56327808D01*
X131387438Y-56327816D01*
X131288275Y-56526961D01*
X131288269Y-56526976D01*
X131227385Y-56740962D01*
X131227384Y-56740964D01*
X131206857Y-56962499D01*
X131206857Y-56962500D01*
X126113000Y-56962500D01*
X126113000Y-55942749D01*
X126112999Y-55942747D01*
X126101368Y-55884270D01*
X126101367Y-55884269D01*
X126057052Y-55817947D01*
X125990730Y-55773632D01*
X125990729Y-55773631D01*
X125932252Y-55762000D01*
X125932248Y-55762000D01*
X123892752Y-55762000D01*
X123892747Y-55762000D01*
X123834270Y-55773631D01*
X123834269Y-55773632D01*
X123767947Y-55817947D01*
X123723632Y-55884269D01*
X123723631Y-55884270D01*
X123712000Y-55942747D01*
X123712000Y-57982252D01*
X111071506Y-57982252D01*
X111071506Y-54667774D01*
X111071513Y-54666452D01*
X111073781Y-54453659D01*
X111074246Y-54444172D01*
X111111403Y-54019539D01*
X111112809Y-54008864D01*
X111186723Y-53589716D01*
X111189063Y-53579166D01*
X111299216Y-53168095D01*
X111302464Y-53157792D01*
X111448038Y-52757849D01*
X111452159Y-52747900D01*
X111632039Y-52362159D01*
X111637005Y-52352618D01*
X111849820Y-51984024D01*
X111855624Y-51974916D01*
X112099729Y-51626305D01*
X112106301Y-51617737D01*
X112379891Y-51291693D01*
X112387176Y-51283744D01*
X112688119Y-50982807D01*
X112696072Y-50975519D01*
X113022097Y-50701955D01*
X113030663Y-50695382D01*
X113379302Y-50451267D01*
X113388408Y-50445466D01*
X113756999Y-50232664D01*
X113766555Y-50227691D01*
X114152285Y-50047825D01*
X114162240Y-50043700D01*
X114562176Y-49898138D01*
X114572485Y-49894888D01*
X114983578Y-49784737D01*
X114994116Y-49782401D01*
X115413238Y-49708500D01*
X115423949Y-49707089D01*
X115848591Y-49669939D01*
X115858022Y-49669475D01*
X116070864Y-49667155D01*
X116072216Y-49667148D01*
X208070649Y-49667148D01*
X208072364Y-49667160D01*
G37*
%TD.AperFunction*%
%TD*%
%TA.AperFunction,Conductor*%
%TO.N,GNDPWR*%
G36*
X131511193Y-88951897D02*
G01*
X131545845Y-88990438D01*
X140689933Y-104895521D01*
X140706282Y-104963452D01*
X140683309Y-105029437D01*
X140647276Y-105063020D01*
X135614335Y-108150691D01*
X135546898Y-108168969D01*
X135480285Y-108147886D01*
X135442620Y-108107880D01*
X126030271Y-92111457D01*
X126013239Y-92043695D01*
X126035546Y-91977482D01*
X126076124Y-91940626D01*
X131377334Y-88944291D01*
X131445378Y-88928442D01*
X131511193Y-88951897D01*
G37*
%TD.AperFunction*%
%TD*%
%TA.AperFunction,Conductor*%
%TO.N,/COIL*%
G36*
X132515677Y-80269685D02*
G01*
X132536319Y-80286319D01*
X133963681Y-81713681D01*
X133997166Y-81775004D01*
X134000000Y-81801362D01*
X134000000Y-82750000D01*
X135602798Y-85688463D01*
X136938463Y-88137183D01*
X136953284Y-88205463D01*
X136928837Y-88270916D01*
X136885058Y-88307470D01*
X133610908Y-89944545D01*
X133542143Y-89956920D01*
X133477604Y-89930152D01*
X133444545Y-89889090D01*
X132500001Y-88000001D01*
X132500000Y-88000000D01*
X132499999Y-88000000D01*
X124051362Y-88000000D01*
X123984323Y-87980315D01*
X123963681Y-87963681D01*
X123536319Y-87536319D01*
X123502834Y-87474996D01*
X123500000Y-87448638D01*
X123500000Y-80801362D01*
X123519685Y-80734323D01*
X123536319Y-80713681D01*
X123963681Y-80286319D01*
X124025004Y-80252834D01*
X124051362Y-80250000D01*
X132448638Y-80250000D01*
X132515677Y-80269685D01*
G37*
%TD.AperFunction*%
%TD*%
%TA.AperFunction,Conductor*%
%TO.N,/CAP*%
G36*
X135515677Y-74019685D02*
G01*
X135536319Y-74036319D01*
X143213681Y-81713681D01*
X143247166Y-81775004D01*
X143250000Y-81801362D01*
X143250000Y-92948638D01*
X143230315Y-93015677D01*
X143213681Y-93036319D01*
X140786319Y-95463681D01*
X140724996Y-95497166D01*
X140698638Y-95500000D01*
X137124000Y-95500000D01*
X137056961Y-95480315D01*
X137011206Y-95427511D01*
X137000000Y-95376000D01*
X137000000Y-90583746D01*
X137019685Y-90516707D01*
X137028450Y-90504714D01*
X137117011Y-90397663D01*
X137285601Y-90132007D01*
X137419567Y-89847315D01*
X137516795Y-89548079D01*
X137575752Y-89239015D01*
X137595508Y-88925000D01*
X137575752Y-88610985D01*
X137516795Y-88301921D01*
X137442497Y-88073255D01*
X137439250Y-88061239D01*
X137432462Y-88029969D01*
X137432459Y-88029955D01*
X137382239Y-87895123D01*
X134520641Y-82648858D01*
X134505500Y-82589480D01*
X134505500Y-81801359D01*
X134502602Y-81747311D01*
X134502602Y-81747310D01*
X134499770Y-81720977D01*
X134499767Y-81720950D01*
X134491114Y-81667554D01*
X134491114Y-81667552D01*
X134440833Y-81532747D01*
X134440832Y-81532743D01*
X134407347Y-81471420D01*
X134321123Y-81356239D01*
X134321118Y-81356234D01*
X134321113Y-81356228D01*
X132893776Y-79928892D01*
X132893761Y-79928877D01*
X132893737Y-79928855D01*
X132853519Y-79892728D01*
X132853507Y-79892718D01*
X132832856Y-79876076D01*
X132788974Y-79844433D01*
X132658100Y-79784663D01*
X132591055Y-79764976D01*
X132543582Y-79758150D01*
X132448638Y-79744500D01*
X124051362Y-79744500D01*
X124051346Y-79744500D01*
X124049705Y-79744544D01*
X124049704Y-79744500D01*
X124049702Y-79744500D01*
X124049702Y-79744427D01*
X124049685Y-79743820D01*
X123984356Y-79728218D01*
X123958291Y-79708291D01*
X123536319Y-79286319D01*
X123502834Y-79224996D01*
X123500000Y-79198638D01*
X123500000Y-74551362D01*
X123519685Y-74484323D01*
X123536319Y-74463681D01*
X123963681Y-74036319D01*
X124025004Y-74002834D01*
X124051362Y-74000000D01*
X135448638Y-74000000D01*
X135515677Y-74019685D01*
G37*
%TD.AperFunction*%
%TD*%
%TA.AperFunction,Conductor*%
%TO.N,VBAT*%
G36*
X211014545Y-72269685D02*
G01*
X211060300Y-72322489D01*
X211071506Y-72374000D01*
X211071506Y-80735051D01*
X211071496Y-80736606D01*
X211069632Y-80885209D01*
X211068981Y-80896445D01*
X211038156Y-81193682D01*
X211036488Y-81204810D01*
X211007847Y-81350499D01*
X211007467Y-81352355D01*
X210829921Y-82187832D01*
X210829403Y-82190162D01*
X210441819Y-83855711D01*
X210441173Y-83858357D01*
X210017126Y-85514873D01*
X210016421Y-85517504D01*
X209556109Y-87164219D01*
X209555347Y-87166835D01*
X209058950Y-88803118D01*
X209058130Y-88805716D01*
X208525930Y-90430631D01*
X208525054Y-90433210D01*
X207957267Y-92046097D01*
X207956334Y-92048656D01*
X207353213Y-93648790D01*
X207352350Y-93651015D01*
X207035850Y-94444131D01*
X207034957Y-94446309D01*
X206959995Y-94624264D01*
X206953529Y-94637391D01*
X206762089Y-94974278D01*
X206752915Y-94988161D01*
X206518098Y-95296371D01*
X206508556Y-95307470D01*
X206374134Y-95446330D01*
X206372722Y-95447765D01*
X175124662Y-126695824D01*
X175063339Y-126729309D01*
X174993647Y-126724325D01*
X174946518Y-126692952D01*
X173245622Y-124878664D01*
X171332115Y-122837589D01*
X171300626Y-122775220D01*
X171307855Y-122705725D01*
X171334896Y-122665103D01*
X198273181Y-95726819D01*
X198334504Y-95693334D01*
X198360862Y-95690500D01*
X198366608Y-95690500D01*
X198366610Y-95690500D01*
X198576198Y-95651321D01*
X198775019Y-95574298D01*
X198956302Y-95462052D01*
X199113872Y-95318407D01*
X199242366Y-95148255D01*
X199322083Y-94988161D01*
X199337403Y-94957394D01*
X199337403Y-94957393D01*
X199337405Y-94957389D01*
X199395756Y-94752310D01*
X199406746Y-94633700D01*
X199432532Y-94568765D01*
X199442512Y-94557487D01*
X199750000Y-94250000D01*
X199750000Y-72374000D01*
X199769685Y-72306961D01*
X199822489Y-72261206D01*
X199874000Y-72250000D01*
X210947506Y-72250000D01*
X211014545Y-72269685D01*
G37*
%TD.AperFunction*%
%TD*%
%TA.AperFunction,Conductor*%
%TO.N,GND*%
G36*
X154331028Y-129408166D02*
G01*
X154536337Y-129503904D01*
X154764592Y-129565064D01*
X154990258Y-129584807D01*
X155055326Y-129610259D01*
X155096305Y-129666850D01*
X155100183Y-129736612D01*
X155091832Y-129760740D01*
X154996099Y-129966040D01*
X154996095Y-129966049D01*
X154934939Y-130194291D01*
X154934937Y-130194301D01*
X154915194Y-130419962D01*
X154889741Y-130485030D01*
X154833150Y-130526009D01*
X154763388Y-130529887D01*
X154739261Y-130521536D01*
X154660973Y-130485030D01*
X154533959Y-130425802D01*
X154533955Y-130425801D01*
X154533951Y-130425799D01*
X154305709Y-130364643D01*
X154305699Y-130364641D01*
X154080038Y-130344898D01*
X154014970Y-130319445D01*
X153973991Y-130262854D01*
X153970113Y-130193092D01*
X153978460Y-130168975D01*
X154074199Y-129963664D01*
X154135359Y-129735409D01*
X154155102Y-129509742D01*
X154180554Y-129444675D01*
X154237145Y-129403696D01*
X154306907Y-129399818D01*
X154331028Y-129408166D01*
G37*
%TD.AperFunction*%
%TA.AperFunction,Conductor*%
G36*
X153894855Y-92666546D02*
G01*
X153911575Y-92685842D01*
X154041501Y-92871396D01*
X154041506Y-92871402D01*
X154208597Y-93038493D01*
X154208603Y-93038498D01*
X154394158Y-93168425D01*
X154437783Y-93223002D01*
X154444977Y-93292500D01*
X154413454Y-93354855D01*
X154394158Y-93371575D01*
X154208597Y-93501505D01*
X154041505Y-93668597D01*
X153911575Y-93854158D01*
X153856998Y-93897783D01*
X153787500Y-93904977D01*
X153725145Y-93873454D01*
X153708425Y-93854158D01*
X153578494Y-93668597D01*
X153411402Y-93501506D01*
X153411396Y-93501501D01*
X153225842Y-93371575D01*
X153182217Y-93316998D01*
X153175023Y-93247500D01*
X153206546Y-93185145D01*
X153225842Y-93168425D01*
X153336333Y-93091058D01*
X153411401Y-93038495D01*
X153578495Y-92871401D01*
X153708425Y-92685842D01*
X153763002Y-92642217D01*
X153832500Y-92635023D01*
X153894855Y-92666546D01*
G37*
%TD.AperFunction*%
%TA.AperFunction,Conductor*%
G36*
X161514855Y-92666546D02*
G01*
X161531575Y-92685842D01*
X161661501Y-92871396D01*
X161661506Y-92871402D01*
X161828597Y-93038493D01*
X161828603Y-93038498D01*
X162014158Y-93168425D01*
X162057783Y-93223002D01*
X162064977Y-93292500D01*
X162033454Y-93354855D01*
X162014158Y-93371575D01*
X161828597Y-93501505D01*
X161661505Y-93668597D01*
X161531575Y-93854158D01*
X161476998Y-93897783D01*
X161407500Y-93904977D01*
X161345145Y-93873454D01*
X161328425Y-93854158D01*
X161198494Y-93668597D01*
X161031402Y-93501506D01*
X161031396Y-93501501D01*
X160845842Y-93371575D01*
X160802217Y-93316998D01*
X160795023Y-93247500D01*
X160826546Y-93185145D01*
X160845842Y-93168425D01*
X160956333Y-93091058D01*
X161031401Y-93038495D01*
X161198495Y-92871401D01*
X161328425Y-92685842D01*
X161383002Y-92642217D01*
X161452500Y-92635023D01*
X161514855Y-92666546D01*
G37*
%TD.AperFunction*%
%TA.AperFunction,Conductor*%
G36*
X151354855Y-92666546D02*
G01*
X151371575Y-92685842D01*
X151501501Y-92871396D01*
X151501506Y-92871402D01*
X151668597Y-93038493D01*
X151668603Y-93038498D01*
X151854158Y-93168425D01*
X151897783Y-93223002D01*
X151904977Y-93292500D01*
X151873454Y-93354855D01*
X151854158Y-93371575D01*
X151668600Y-93501503D01*
X151546673Y-93623430D01*
X151485350Y-93656914D01*
X151415658Y-93651930D01*
X151359725Y-93610058D01*
X151342810Y-93579081D01*
X151293797Y-93447671D01*
X151293793Y-93447664D01*
X151207547Y-93332455D01*
X151207544Y-93332452D01*
X151092335Y-93246206D01*
X151092328Y-93246202D01*
X150960917Y-93197189D01*
X150904983Y-93155318D01*
X150880566Y-93089853D01*
X150895418Y-93021580D01*
X150916563Y-92993332D01*
X151038495Y-92871401D01*
X151168425Y-92685842D01*
X151223002Y-92642217D01*
X151292500Y-92635023D01*
X151354855Y-92666546D01*
G37*
%TD.AperFunction*%
%TA.AperFunction,Conductor*%
G36*
X169134855Y-92666546D02*
G01*
X169151575Y-92685842D01*
X169281501Y-92871396D01*
X169281506Y-92871402D01*
X169448597Y-93038493D01*
X169448603Y-93038498D01*
X169634158Y-93168425D01*
X169677783Y-93223002D01*
X169684977Y-93292500D01*
X169653454Y-93354855D01*
X169634158Y-93371575D01*
X169448597Y-93501505D01*
X169281505Y-93668597D01*
X169151575Y-93854158D01*
X169096998Y-93897783D01*
X169027500Y-93904977D01*
X168965145Y-93873454D01*
X168948425Y-93854158D01*
X168818494Y-93668597D01*
X168651402Y-93501506D01*
X168651396Y-93501501D01*
X168465842Y-93371575D01*
X168422217Y-93316998D01*
X168415023Y-93247500D01*
X168446546Y-93185145D01*
X168465842Y-93168425D01*
X168576333Y-93091058D01*
X168651401Y-93038495D01*
X168818495Y-92871401D01*
X168948425Y-92685842D01*
X169003002Y-92642217D01*
X169072500Y-92635023D01*
X169134855Y-92666546D01*
G37*
%TD.AperFunction*%
%TA.AperFunction,Conductor*%
G36*
X176754855Y-92666546D02*
G01*
X176771575Y-92685842D01*
X176901501Y-92871396D01*
X176901506Y-92871402D01*
X177068597Y-93038493D01*
X177068603Y-93038498D01*
X177254158Y-93168425D01*
X177297783Y-93223002D01*
X177304977Y-93292500D01*
X177273454Y-93354855D01*
X177254158Y-93371575D01*
X177068597Y-93501505D01*
X176901505Y-93668597D01*
X176771575Y-93854158D01*
X176716998Y-93897783D01*
X176647500Y-93904977D01*
X176585145Y-93873454D01*
X176568425Y-93854158D01*
X176438494Y-93668597D01*
X176271402Y-93501506D01*
X176271396Y-93501501D01*
X176085842Y-93371575D01*
X176042217Y-93316998D01*
X176035023Y-93247500D01*
X176066546Y-93185145D01*
X176085842Y-93168425D01*
X176196333Y-93091058D01*
X176271401Y-93038495D01*
X176438495Y-92871401D01*
X176568425Y-92685842D01*
X176623002Y-92642217D01*
X176692500Y-92635023D01*
X176754855Y-92666546D01*
G37*
%TD.AperFunction*%
%TA.AperFunction,Conductor*%
G36*
X184374855Y-92666546D02*
G01*
X184391575Y-92685842D01*
X184521501Y-92871396D01*
X184521506Y-92871402D01*
X184688597Y-93038493D01*
X184688603Y-93038498D01*
X184874158Y-93168425D01*
X184917783Y-93223002D01*
X184924977Y-93292500D01*
X184893454Y-93354855D01*
X184874158Y-93371575D01*
X184688597Y-93501505D01*
X184521505Y-93668597D01*
X184391575Y-93854158D01*
X184336998Y-93897783D01*
X184267500Y-93904977D01*
X184205145Y-93873454D01*
X184188425Y-93854158D01*
X184058494Y-93668597D01*
X183891402Y-93501506D01*
X183891396Y-93501501D01*
X183705842Y-93371575D01*
X183662217Y-93316998D01*
X183655023Y-93247500D01*
X183686546Y-93185145D01*
X183705842Y-93168425D01*
X183816333Y-93091058D01*
X183891401Y-93038495D01*
X184058495Y-92871401D01*
X184188425Y-92685842D01*
X184243002Y-92642217D01*
X184312500Y-92635023D01*
X184374855Y-92666546D01*
G37*
%TD.AperFunction*%
%TA.AperFunction,Conductor*%
G36*
X191994855Y-92666546D02*
G01*
X192011575Y-92685842D01*
X192141501Y-92871396D01*
X192141506Y-92871402D01*
X192308597Y-93038493D01*
X192308603Y-93038498D01*
X192494158Y-93168425D01*
X192537783Y-93223002D01*
X192544977Y-93292500D01*
X192513454Y-93354855D01*
X192494158Y-93371575D01*
X192308597Y-93501505D01*
X192141505Y-93668597D01*
X192011575Y-93854158D01*
X191956998Y-93897783D01*
X191887500Y-93904977D01*
X191825145Y-93873454D01*
X191808425Y-93854158D01*
X191678494Y-93668597D01*
X191511402Y-93501506D01*
X191511396Y-93501501D01*
X191325842Y-93371575D01*
X191282217Y-93316998D01*
X191275023Y-93247500D01*
X191306546Y-93185145D01*
X191325842Y-93168425D01*
X191436333Y-93091058D01*
X191511401Y-93038495D01*
X191678495Y-92871401D01*
X191808425Y-92685842D01*
X191863002Y-92642217D01*
X191932500Y-92635023D01*
X191994855Y-92666546D01*
G37*
%TD.AperFunction*%
%TA.AperFunction,Conductor*%
G36*
X208072364Y-49667160D02*
G01*
X208075171Y-49667198D01*
X208233136Y-49669385D01*
X208245223Y-49670145D01*
X208565624Y-49706115D01*
X208579277Y-49708426D01*
X208579605Y-49708501D01*
X208892811Y-49779713D01*
X208906125Y-49783534D01*
X209057938Y-49836440D01*
X209209756Y-49889348D01*
X209222553Y-49894627D01*
X209512489Y-50033645D01*
X209524610Y-50040314D01*
X209779804Y-50199905D01*
X209797234Y-50210805D01*
X209808550Y-50218794D01*
X210060449Y-50418622D01*
X210070803Y-50427823D01*
X210298846Y-50654502D01*
X210308109Y-50664801D01*
X210509442Y-50915494D01*
X210517499Y-50926762D01*
X210689615Y-51198348D01*
X210696365Y-51210444D01*
X210837120Y-51499539D01*
X210842478Y-51512312D01*
X210950106Y-51815289D01*
X210954007Y-51828580D01*
X211027174Y-52141682D01*
X211029568Y-52155326D01*
X211067457Y-52475496D01*
X211068291Y-52487603D01*
X211071481Y-52647951D01*
X211071506Y-52650417D01*
X211071506Y-71620500D01*
X211051821Y-71687539D01*
X210999017Y-71733294D01*
X210947506Y-71744500D01*
X199874000Y-71744500D01*
X199873991Y-71744500D01*
X199873990Y-71744501D01*
X199766549Y-71756052D01*
X199766537Y-71756054D01*
X199715027Y-71767260D01*
X199612502Y-71801383D01*
X199612496Y-71801386D01*
X199491462Y-71879171D01*
X199491451Y-71879179D01*
X199438659Y-71924923D01*
X199344433Y-72033664D01*
X199344430Y-72033668D01*
X199284664Y-72164534D01*
X199264976Y-72231582D01*
X199244500Y-72374001D01*
X199244500Y-90802495D01*
X199224815Y-90869534D01*
X199172011Y-90915289D01*
X199102853Y-90925233D01*
X199049377Y-90904070D01*
X198937834Y-90825967D01*
X198937830Y-90825965D01*
X198890756Y-90804014D01*
X198723663Y-90726097D01*
X198723659Y-90726096D01*
X198723655Y-90726094D01*
X198495413Y-90664938D01*
X198495403Y-90664936D01*
X198260001Y-90644341D01*
X198259999Y-90644341D01*
X198024596Y-90664936D01*
X198024586Y-90664938D01*
X197796344Y-90726094D01*
X197796335Y-90726098D01*
X197582171Y-90825964D01*
X197582169Y-90825965D01*
X197388597Y-90961505D01*
X197221505Y-91128597D01*
X197085965Y-91322169D01*
X197085964Y-91322171D01*
X196986098Y-91536335D01*
X196986094Y-91536344D01*
X196924938Y-91764586D01*
X196924936Y-91764596D01*
X196904341Y-91999999D01*
X196904341Y-92000000D01*
X196924936Y-92235403D01*
X196924938Y-92235413D01*
X196986094Y-92463655D01*
X196986096Y-92463659D01*
X196986097Y-92463663D01*
X196990000Y-92472032D01*
X197085965Y-92677830D01*
X197085967Y-92677834D01*
X197194281Y-92832521D01*
X197221501Y-92871396D01*
X197221506Y-92871402D01*
X197388597Y-93038493D01*
X197388603Y-93038498D01*
X197574158Y-93168425D01*
X197617783Y-93223002D01*
X197624977Y-93292500D01*
X197593454Y-93354855D01*
X197574158Y-93371575D01*
X197388597Y-93501505D01*
X197221505Y-93668597D01*
X197085965Y-93862169D01*
X197085964Y-93862171D01*
X196986098Y-94076335D01*
X196986094Y-94076344D01*
X196924938Y-94304586D01*
X196924936Y-94304596D01*
X196904341Y-94539999D01*
X196904341Y-94540000D01*
X196924936Y-94775403D01*
X196924938Y-94775413D01*
X196986094Y-95003655D01*
X196986096Y-95003659D01*
X196986097Y-95003663D01*
X197066004Y-95175023D01*
X197085965Y-95217830D01*
X197085967Y-95217834D01*
X197194281Y-95372521D01*
X197221505Y-95411401D01*
X197388599Y-95578495D01*
X197454596Y-95624707D01*
X197498220Y-95679282D01*
X197505412Y-95748781D01*
X197473890Y-95811135D01*
X197471152Y-95813961D01*
X170977455Y-122307658D01*
X170914100Y-122384992D01*
X170887065Y-122425605D01*
X170887060Y-122425614D01*
X170840168Y-122513893D01*
X170805068Y-122653420D01*
X170805068Y-122653421D01*
X170797839Y-122722906D01*
X170797839Y-122722917D01*
X170803469Y-122866683D01*
X170803470Y-122866687D01*
X170849376Y-123003043D01*
X170849377Y-123003046D01*
X170849378Y-123003047D01*
X170880671Y-123065027D01*
X170880869Y-123065421D01*
X170963330Y-123183316D01*
X170963331Y-123183318D01*
X170963334Y-123183321D01*
X174577737Y-127038684D01*
X174577742Y-127038688D01*
X174585413Y-127045182D01*
X174623863Y-127103521D01*
X174624669Y-127173386D01*
X174592978Y-127227507D01*
X164805569Y-137014917D01*
X164804144Y-137016320D01*
X164665269Y-137150787D01*
X164654161Y-137160338D01*
X164345930Y-137395173D01*
X164332045Y-137404347D01*
X163995149Y-137595791D01*
X163982019Y-137602259D01*
X163804067Y-137677211D01*
X163801872Y-137678111D01*
X162955041Y-138015866D01*
X162952665Y-138016785D01*
X161243533Y-138658096D01*
X161240799Y-138659086D01*
X159517196Y-139260106D01*
X159514439Y-139261031D01*
X157777081Y-139821512D01*
X157774649Y-139822269D01*
X156901404Y-140084304D01*
X156899279Y-140084921D01*
X156732617Y-140131707D01*
X156719862Y-140134572D01*
X156377390Y-140192726D01*
X156362552Y-140194335D01*
X156016495Y-140210879D01*
X156001572Y-140210693D01*
X155656035Y-140185541D01*
X155641242Y-140183563D01*
X155301240Y-140117082D01*
X155286792Y-140113342D01*
X154957235Y-140006494D01*
X154943340Y-140001045D01*
X154629009Y-139855378D01*
X154615870Y-139848300D01*
X154321302Y-139665915D01*
X154309109Y-139657308D01*
X154038605Y-139440869D01*
X154027534Y-139430861D01*
X153784987Y-139183485D01*
X153775199Y-139172219D01*
X153563554Y-138896748D01*
X153556146Y-138885974D01*
X153465747Y-138738405D01*
X153464612Y-138736516D01*
X153418775Y-138658615D01*
X148029816Y-129500001D01*
X151444637Y-129500001D01*
X151465232Y-129735404D01*
X151465234Y-129735414D01*
X151526390Y-129963656D01*
X151526392Y-129963660D01*
X151526393Y-129963664D01*
X151622127Y-130168965D01*
X151626261Y-130177831D01*
X151626263Y-130177835D01*
X151725420Y-130319445D01*
X151761801Y-130371402D01*
X151928895Y-130538496D01*
X152025680Y-130606266D01*
X152122461Y-130674033D01*
X152122463Y-130674034D01*
X152122466Y-130674036D01*
X152336633Y-130773904D01*
X152564888Y-130835064D01*
X152790553Y-130854807D01*
X152855621Y-130880259D01*
X152896600Y-130936850D01*
X152900478Y-131006612D01*
X152892127Y-131030740D01*
X152796394Y-131236040D01*
X152796390Y-131236049D01*
X152735234Y-131464291D01*
X152735232Y-131464301D01*
X152714637Y-131699704D01*
X152714637Y-131699705D01*
X152735232Y-131935108D01*
X152735234Y-131935118D01*
X152796390Y-132163360D01*
X152796392Y-132163364D01*
X152796393Y-132163368D01*
X152896261Y-132377535D01*
X152896263Y-132377539D01*
X153004577Y-132532226D01*
X153031801Y-132571106D01*
X153198895Y-132738200D01*
X153295680Y-132805970D01*
X153392461Y-132873737D01*
X153392463Y-132873738D01*
X153392466Y-132873740D01*
X153606633Y-132973608D01*
X153834888Y-133034768D01*
X154023214Y-133051244D01*
X154070295Y-133055364D01*
X154070296Y-133055364D01*
X154070297Y-133055364D01*
X154109530Y-133051931D01*
X154305704Y-133034768D01*
X154533959Y-132973608D01*
X154748126Y-132873740D01*
X154941697Y-132738200D01*
X155108791Y-132571106D01*
X155244331Y-132377535D01*
X155344199Y-132163368D01*
X155405359Y-131935113D01*
X155425102Y-131709446D01*
X155450554Y-131644379D01*
X155507145Y-131603400D01*
X155576907Y-131599522D01*
X155601031Y-131607871D01*
X155806338Y-131703608D01*
X156034593Y-131764768D01*
X156222919Y-131781244D01*
X156270000Y-131785364D01*
X156270001Y-131785364D01*
X156270002Y-131785364D01*
X156309235Y-131781931D01*
X156505409Y-131764768D01*
X156733664Y-131703608D01*
X156947831Y-131603740D01*
X157141402Y-131468200D01*
X157308496Y-131301106D01*
X157444036Y-131107535D01*
X157543904Y-130893368D01*
X157605064Y-130665113D01*
X157625660Y-130429705D01*
X157605064Y-130194297D01*
X157543904Y-129966042D01*
X157444036Y-129751876D01*
X157432510Y-129735414D01*
X157308495Y-129558302D01*
X157141403Y-129391211D01*
X157141396Y-129391206D01*
X156947835Y-129255672D01*
X156947831Y-129255670D01*
X156733664Y-129155802D01*
X156733660Y-129155801D01*
X156733656Y-129155799D01*
X156505414Y-129094643D01*
X156505404Y-129094641D01*
X156279743Y-129074898D01*
X156214675Y-129049445D01*
X156173696Y-128992854D01*
X156169818Y-128923092D01*
X156178169Y-128898965D01*
X156273903Y-128693664D01*
X156335063Y-128465409D01*
X156355659Y-128230001D01*
X156335063Y-127994593D01*
X156273903Y-127766338D01*
X156174035Y-127552172D01*
X156163347Y-127536907D01*
X156038494Y-127358598D01*
X155871402Y-127191507D01*
X155871395Y-127191502D01*
X155677834Y-127055968D01*
X155677830Y-127055966D01*
X155640769Y-127038684D01*
X155463663Y-126956098D01*
X155463659Y-126956097D01*
X155463655Y-126956095D01*
X155235413Y-126894939D01*
X155235403Y-126894937D01*
X155009743Y-126875194D01*
X154944675Y-126849741D01*
X154903696Y-126793150D01*
X154899818Y-126723388D01*
X154908166Y-126699267D01*
X155003904Y-126493959D01*
X155065064Y-126265704D01*
X155085660Y-126030296D01*
X155065064Y-125794888D01*
X155003904Y-125566633D01*
X154904036Y-125352467D01*
X154768496Y-125158895D01*
X154768495Y-125158893D01*
X154601403Y-124991802D01*
X154601396Y-124991797D01*
X154407835Y-124856263D01*
X154407831Y-124856261D01*
X154407829Y-124856260D01*
X154193664Y-124756393D01*
X154193660Y-124756392D01*
X154193656Y-124756390D01*
X153965414Y-124695234D01*
X153965404Y-124695232D01*
X153730002Y-124674637D01*
X153730000Y-124674637D01*
X153494597Y-124695232D01*
X153494587Y-124695234D01*
X153266345Y-124756390D01*
X153266336Y-124756394D01*
X153052172Y-124856260D01*
X153052170Y-124856261D01*
X152858598Y-124991801D01*
X152691506Y-125158893D01*
X152555966Y-125352465D01*
X152555965Y-125352467D01*
X152456099Y-125566631D01*
X152456095Y-125566640D01*
X152394939Y-125794882D01*
X152394937Y-125794892D01*
X152374342Y-126030295D01*
X152374342Y-126030296D01*
X152394937Y-126265699D01*
X152394939Y-126265709D01*
X152456095Y-126493951D01*
X152456097Y-126493955D01*
X152456098Y-126493959D01*
X152551832Y-126699261D01*
X152555966Y-126708126D01*
X152555968Y-126708130D01*
X152655126Y-126849741D01*
X152691506Y-126901697D01*
X152858600Y-127068791D01*
X152955385Y-127136561D01*
X153052166Y-127204328D01*
X153052168Y-127204329D01*
X153052171Y-127204331D01*
X153266338Y-127304199D01*
X153494593Y-127365359D01*
X153720258Y-127385102D01*
X153785326Y-127410554D01*
X153826305Y-127467145D01*
X153830183Y-127536907D01*
X153821832Y-127561035D01*
X153726098Y-127766336D01*
X153726094Y-127766345D01*
X153664938Y-127994587D01*
X153664936Y-127994597D01*
X153645193Y-128220258D01*
X153619740Y-128285326D01*
X153563149Y-128326305D01*
X153493387Y-128330183D01*
X153469262Y-128321832D01*
X153263959Y-128226098D01*
X153263955Y-128226097D01*
X153263951Y-128226095D01*
X153035709Y-128164939D01*
X153035699Y-128164937D01*
X152800297Y-128144342D01*
X152800295Y-128144342D01*
X152564892Y-128164937D01*
X152564882Y-128164939D01*
X152336640Y-128226095D01*
X152336631Y-128226099D01*
X152122467Y-128325965D01*
X152122465Y-128325966D01*
X151928893Y-128461506D01*
X151761801Y-128628598D01*
X151626261Y-128822170D01*
X151626260Y-128822172D01*
X151526394Y-129036336D01*
X151526390Y-129036345D01*
X151465234Y-129264587D01*
X151465232Y-129264597D01*
X151444637Y-129500000D01*
X151444637Y-129500001D01*
X148029816Y-129500001D01*
X143204909Y-121300003D01*
X162969909Y-121300003D01*
X162988212Y-121462455D01*
X163042210Y-121616774D01*
X163042211Y-121616775D01*
X163129192Y-121755204D01*
X163244796Y-121870808D01*
X163383225Y-121957789D01*
X163537539Y-122011786D01*
X163537542Y-122011786D01*
X163537544Y-122011787D01*
X163699996Y-122030091D01*
X163700000Y-122030091D01*
X163700004Y-122030091D01*
X163862455Y-122011787D01*
X163862456Y-122011786D01*
X163862461Y-122011786D01*
X164016775Y-121957789D01*
X164155204Y-121870808D01*
X164270808Y-121755204D01*
X164357789Y-121616775D01*
X164411786Y-121462461D01*
X164430091Y-121300000D01*
X164414768Y-121164008D01*
X164411787Y-121137544D01*
X164411786Y-121137542D01*
X164411786Y-121137539D01*
X164404444Y-121116559D01*
X164400882Y-121046784D01*
X164435610Y-120986156D01*
X164452338Y-120973093D01*
X164455198Y-120970811D01*
X164455204Y-120970808D01*
X164570808Y-120855204D01*
X164657789Y-120716775D01*
X164711786Y-120562461D01*
X164730091Y-120400000D01*
X164727806Y-120379721D01*
X164711787Y-120237544D01*
X164711786Y-120237542D01*
X164711786Y-120237539D01*
X164657789Y-120083225D01*
X164570808Y-119944796D01*
X164455204Y-119829192D01*
X164316774Y-119742210D01*
X164162455Y-119688212D01*
X164000004Y-119669909D01*
X163999996Y-119669909D01*
X163837544Y-119688212D01*
X163683225Y-119742210D01*
X163544795Y-119829192D01*
X163429192Y-119944795D01*
X163342210Y-120083225D01*
X163288212Y-120237544D01*
X163269909Y-120399996D01*
X163269909Y-120400003D01*
X163288213Y-120562459D01*
X163295555Y-120583443D01*
X163299115Y-120653222D01*
X163264384Y-120713848D01*
X163247607Y-120726950D01*
X163244793Y-120729194D01*
X163129192Y-120844795D01*
X163042210Y-120983225D01*
X162988212Y-121137544D01*
X162969909Y-121299996D01*
X162969909Y-121300003D01*
X143204909Y-121300003D01*
X142131448Y-119475640D01*
X143319500Y-119475640D01*
X143343993Y-119661678D01*
X143350992Y-119714834D01*
X143358328Y-119742211D01*
X143413436Y-119947878D01*
X143413439Y-119947888D01*
X143505762Y-120170775D01*
X143505767Y-120170786D01*
X143626392Y-120379713D01*
X143626403Y-120379729D01*
X143773268Y-120571128D01*
X143773274Y-120571135D01*
X143943864Y-120741725D01*
X143943870Y-120741730D01*
X144135279Y-120888603D01*
X144135286Y-120888607D01*
X144344213Y-121009232D01*
X144344218Y-121009234D01*
X144344221Y-121009236D01*
X144567121Y-121101564D01*
X144800166Y-121164008D01*
X145039367Y-121195500D01*
X145039374Y-121195500D01*
X145280626Y-121195500D01*
X145280633Y-121195500D01*
X145519834Y-121164008D01*
X145752879Y-121101564D01*
X145975779Y-121009236D01*
X146184721Y-120888603D01*
X146376130Y-120741730D01*
X146546730Y-120571130D01*
X146693603Y-120379721D01*
X146814236Y-120170779D01*
X146906564Y-119947879D01*
X146969008Y-119714834D01*
X147000500Y-119475633D01*
X147000500Y-119234367D01*
X146969008Y-118995166D01*
X146906564Y-118762121D01*
X146814236Y-118539221D01*
X146814234Y-118539218D01*
X146814232Y-118539213D01*
X146693607Y-118330286D01*
X146693603Y-118330279D01*
X146546730Y-118138870D01*
X146546725Y-118138864D01*
X146376135Y-117968274D01*
X146376128Y-117968268D01*
X146184729Y-117821403D01*
X146184727Y-117821401D01*
X146184721Y-117821397D01*
X146184716Y-117821394D01*
X146184713Y-117821392D01*
X145975786Y-117700767D01*
X145975775Y-117700762D01*
X145752888Y-117608439D01*
X145752881Y-117608437D01*
X145752879Y-117608436D01*
X145519834Y-117545992D01*
X145466678Y-117538993D01*
X145280640Y-117514500D01*
X145280633Y-117514500D01*
X145039367Y-117514500D01*
X145039359Y-117514500D01*
X144826743Y-117542492D01*
X144800166Y-117545992D01*
X144567121Y-117608436D01*
X144567111Y-117608439D01*
X144344224Y-117700762D01*
X144344213Y-117700767D01*
X144135286Y-117821392D01*
X144135270Y-117821403D01*
X143943871Y-117968268D01*
X143943864Y-117968274D01*
X143773274Y-118138864D01*
X143773268Y-118138871D01*
X143626403Y-118330270D01*
X143626392Y-118330286D01*
X143505767Y-118539213D01*
X143505762Y-118539224D01*
X143413439Y-118762111D01*
X143413436Y-118762121D01*
X143350992Y-118995167D01*
X143319500Y-119234359D01*
X143319500Y-119475640D01*
X142131448Y-119475640D01*
X137982831Y-112425005D01*
X140254493Y-112425005D01*
X140274247Y-112739004D01*
X140274248Y-112739011D01*
X140333207Y-113048083D01*
X140430434Y-113347316D01*
X140430436Y-113347321D01*
X140564398Y-113632003D01*
X140564401Y-113632009D01*
X140732988Y-113897661D01*
X140732991Y-113897665D01*
X140933543Y-114140090D01*
X140933545Y-114140092D01*
X141162905Y-114355476D01*
X141162915Y-114355484D01*
X141417441Y-114540408D01*
X141417446Y-114540410D01*
X141417453Y-114540416D01*
X141693171Y-114691994D01*
X141693176Y-114691996D01*
X141693178Y-114691997D01*
X141693179Y-114691998D01*
X141985708Y-114807818D01*
X141985711Y-114807819D01*
X142290460Y-114886065D01*
X142290464Y-114886066D01*
X142355947Y-114894338D01*
X142602607Y-114925499D01*
X142602616Y-114925499D01*
X142602619Y-114925500D01*
X142602621Y-114925500D01*
X142917253Y-114925500D01*
X142917255Y-114925500D01*
X142917258Y-114925499D01*
X142917266Y-114925499D01*
X143103530Y-114901968D01*
X143229410Y-114886066D01*
X143534162Y-114807819D01*
X143534165Y-114807818D01*
X143826694Y-114691998D01*
X143826695Y-114691997D01*
X143826693Y-114691997D01*
X143826703Y-114691994D01*
X144102421Y-114540416D01*
X144158045Y-114500003D01*
X164269909Y-114500003D01*
X164288212Y-114662455D01*
X164342210Y-114816774D01*
X164385750Y-114886067D01*
X164429192Y-114955204D01*
X164544796Y-115070808D01*
X164683225Y-115157789D01*
X164837539Y-115211786D01*
X164837542Y-115211786D01*
X164837544Y-115211787D01*
X164999996Y-115230091D01*
X165000000Y-115230091D01*
X165000004Y-115230091D01*
X165162455Y-115211787D01*
X165162456Y-115211786D01*
X165162461Y-115211786D01*
X165316775Y-115157789D01*
X165434028Y-115084113D01*
X165501264Y-115065113D01*
X165565971Y-115084113D01*
X165683225Y-115157789D01*
X165837539Y-115211786D01*
X165837542Y-115211786D01*
X165837544Y-115211787D01*
X165999996Y-115230091D01*
X166000000Y-115230091D01*
X166000004Y-115230091D01*
X166162455Y-115211787D01*
X166162456Y-115211786D01*
X166162461Y-115211786D01*
X166316775Y-115157789D01*
X166455204Y-115070808D01*
X166570808Y-114955204D01*
X166657789Y-114816775D01*
X166711786Y-114662461D01*
X166711787Y-114662455D01*
X166730091Y-114500003D01*
X166730091Y-114499996D01*
X166711787Y-114337544D01*
X166711786Y-114337542D01*
X166711786Y-114337539D01*
X166657789Y-114183225D01*
X166570808Y-114044796D01*
X166455204Y-113929192D01*
X166405023Y-113897661D01*
X166316774Y-113842210D01*
X166162455Y-113788212D01*
X166000004Y-113769909D01*
X165999996Y-113769909D01*
X165837544Y-113788212D01*
X165683225Y-113842210D01*
X165565972Y-113915886D01*
X165498735Y-113934886D01*
X165434028Y-113915886D01*
X165316774Y-113842210D01*
X165162455Y-113788212D01*
X165000004Y-113769909D01*
X164999996Y-113769909D01*
X164837544Y-113788212D01*
X164683225Y-113842210D01*
X164544795Y-113929192D01*
X164429192Y-114044795D01*
X164342210Y-114183225D01*
X164288212Y-114337544D01*
X164269909Y-114499996D01*
X164269909Y-114500003D01*
X144158045Y-114500003D01*
X144356967Y-114355478D01*
X144586327Y-114140094D01*
X144786884Y-113897663D01*
X144955474Y-113632007D01*
X145089440Y-113347315D01*
X145186668Y-113048079D01*
X145245625Y-112739015D01*
X145265381Y-112425000D01*
X145245625Y-112110985D01*
X145186668Y-111801921D01*
X145089440Y-111502685D01*
X144955474Y-111217993D01*
X144786884Y-110952337D01*
X144786882Y-110952334D01*
X144586330Y-110709909D01*
X144586328Y-110709907D01*
X144356968Y-110494523D01*
X144356958Y-110494515D01*
X144102432Y-110309591D01*
X144102425Y-110309586D01*
X144102421Y-110309584D01*
X143826703Y-110158006D01*
X143826700Y-110158004D01*
X143826695Y-110158002D01*
X143826694Y-110158001D01*
X143534165Y-110042181D01*
X143534162Y-110042180D01*
X143229413Y-109963934D01*
X143229400Y-109963932D01*
X142917266Y-109924500D01*
X142917255Y-109924500D01*
X142602619Y-109924500D01*
X142602607Y-109924500D01*
X142290473Y-109963932D01*
X142290460Y-109963934D01*
X141985711Y-110042180D01*
X141985708Y-110042181D01*
X141693179Y-110158001D01*
X141693178Y-110158002D01*
X141417453Y-110309584D01*
X141417441Y-110309591D01*
X141162915Y-110494515D01*
X141162905Y-110494523D01*
X140933545Y-110709907D01*
X140933543Y-110709909D01*
X140732991Y-110952334D01*
X140732988Y-110952338D01*
X140564401Y-111217990D01*
X140564398Y-111217996D01*
X140430436Y-111502678D01*
X140430434Y-111502683D01*
X140333207Y-111801916D01*
X140274248Y-112110988D01*
X140274247Y-112110995D01*
X140254493Y-112424994D01*
X140254493Y-112425005D01*
X137982831Y-112425005D01*
X135824439Y-108756787D01*
X135807408Y-108689028D01*
X135829715Y-108622815D01*
X135875668Y-108585393D01*
X135874742Y-108583610D01*
X135878669Y-108581570D01*
X135878675Y-108581568D01*
X137609028Y-107520008D01*
X137653308Y-107503421D01*
X137718446Y-107492468D01*
X137718446Y-107492467D01*
X137718451Y-107492467D01*
X137773279Y-107468212D01*
X141147093Y-105520339D01*
X141195514Y-105484984D01*
X141287148Y-105374003D01*
X141343802Y-105241701D01*
X141360889Y-105098797D01*
X141337022Y-104956868D01*
X141312767Y-104902040D01*
X141197753Y-104702830D01*
X140779362Y-103978155D01*
X140762889Y-103910255D01*
X140785742Y-103844228D01*
X140840663Y-103801037D01*
X140910216Y-103794396D01*
X140971633Y-103825763D01*
X140993032Y-103845858D01*
X140993042Y-103845866D01*
X141247568Y-104030790D01*
X141247573Y-104030792D01*
X141247580Y-104030798D01*
X141523298Y-104182376D01*
X141523303Y-104182378D01*
X141523305Y-104182379D01*
X141523306Y-104182380D01*
X141815835Y-104298200D01*
X141815838Y-104298201D01*
X142120587Y-104376447D01*
X142120591Y-104376448D01*
X142186074Y-104384720D01*
X142432734Y-104415881D01*
X142432743Y-104415881D01*
X142432746Y-104415882D01*
X142432748Y-104415882D01*
X142747380Y-104415882D01*
X142747382Y-104415882D01*
X142747385Y-104415881D01*
X142747393Y-104415881D01*
X142933657Y-104392350D01*
X143059537Y-104376448D01*
X143364289Y-104298201D01*
X143364292Y-104298200D01*
X143656821Y-104182380D01*
X143656822Y-104182379D01*
X143656820Y-104182379D01*
X143656830Y-104182376D01*
X143932548Y-104030798D01*
X144187094Y-103845860D01*
X144416454Y-103630476D01*
X144617011Y-103388045D01*
X144785601Y-103122389D01*
X144843192Y-103000003D01*
X158769909Y-103000003D01*
X158788212Y-103162455D01*
X158842210Y-103316774D01*
X158842211Y-103316775D01*
X158929192Y-103455204D01*
X159044796Y-103570808D01*
X159183225Y-103657789D01*
X159337539Y-103711786D01*
X159337542Y-103711786D01*
X159337544Y-103711787D01*
X159499996Y-103730091D01*
X159500000Y-103730091D01*
X159500004Y-103730091D01*
X159662455Y-103711787D01*
X159662456Y-103711786D01*
X159662461Y-103711786D01*
X159816775Y-103657789D01*
X159955204Y-103570808D01*
X160070808Y-103455204D01*
X160157789Y-103316775D01*
X160211786Y-103162461D01*
X160216301Y-103122389D01*
X160230091Y-103000003D01*
X160230091Y-102999996D01*
X160211787Y-102837544D01*
X160211786Y-102837542D01*
X160211786Y-102837539D01*
X160157789Y-102683225D01*
X160070808Y-102544796D01*
X159955204Y-102429192D01*
X159868836Y-102374923D01*
X159816774Y-102342210D01*
X159662455Y-102288212D01*
X159500004Y-102269909D01*
X159499996Y-102269909D01*
X159337544Y-102288212D01*
X159183225Y-102342210D01*
X159044795Y-102429192D01*
X158929192Y-102544795D01*
X158842210Y-102683225D01*
X158788212Y-102837544D01*
X158769909Y-102999996D01*
X158769909Y-103000003D01*
X144843192Y-103000003D01*
X144919567Y-102837697D01*
X145016795Y-102538461D01*
X145075752Y-102229397D01*
X145075753Y-102229386D01*
X145090184Y-102000003D01*
X177269909Y-102000003D01*
X177288212Y-102162455D01*
X177342210Y-102316774D01*
X177422443Y-102444463D01*
X177429192Y-102455204D01*
X177544796Y-102570808D01*
X177683225Y-102657789D01*
X177837539Y-102711786D01*
X177837542Y-102711786D01*
X177837544Y-102711787D01*
X177999996Y-102730091D01*
X178000000Y-102730091D01*
X178000004Y-102730091D01*
X178162455Y-102711787D01*
X178162456Y-102711786D01*
X178162461Y-102711786D01*
X178316775Y-102657789D01*
X178455204Y-102570808D01*
X178570808Y-102455204D01*
X178657789Y-102316775D01*
X178711786Y-102162461D01*
X178730091Y-102000003D01*
X180269909Y-102000003D01*
X180288212Y-102162455D01*
X180342210Y-102316774D01*
X180422443Y-102444463D01*
X180429192Y-102455204D01*
X180544796Y-102570808D01*
X180683225Y-102657789D01*
X180837539Y-102711786D01*
X180837542Y-102711786D01*
X180837544Y-102711787D01*
X180999996Y-102730091D01*
X181000000Y-102730091D01*
X181000004Y-102730091D01*
X181162455Y-102711787D01*
X181162456Y-102711786D01*
X181162461Y-102711786D01*
X181316775Y-102657789D01*
X181455204Y-102570808D01*
X181570808Y-102455204D01*
X181657789Y-102316775D01*
X181711786Y-102162461D01*
X181730091Y-102000000D01*
X181720557Y-101915387D01*
X181711787Y-101837544D01*
X181711786Y-101837542D01*
X181711786Y-101837539D01*
X181657789Y-101683225D01*
X181570808Y-101544796D01*
X181455204Y-101429192D01*
X181454023Y-101428450D01*
X181316774Y-101342210D01*
X181162455Y-101288212D01*
X181000004Y-101269909D01*
X180999996Y-101269909D01*
X180837544Y-101288212D01*
X180683225Y-101342210D01*
X180544795Y-101429192D01*
X180429192Y-101544795D01*
X180342210Y-101683225D01*
X180288212Y-101837544D01*
X180269909Y-101999996D01*
X180269909Y-102000003D01*
X178730091Y-102000003D01*
X178730091Y-102000000D01*
X178720557Y-101915387D01*
X178711787Y-101837544D01*
X178711786Y-101837542D01*
X178711786Y-101837539D01*
X178657789Y-101683225D01*
X178570808Y-101544796D01*
X178455204Y-101429192D01*
X178454023Y-101428450D01*
X178316774Y-101342210D01*
X178162455Y-101288212D01*
X178000004Y-101269909D01*
X177999996Y-101269909D01*
X177837544Y-101288212D01*
X177683225Y-101342210D01*
X177544795Y-101429192D01*
X177429192Y-101544795D01*
X177342210Y-101683225D01*
X177288212Y-101837544D01*
X177269909Y-101999996D01*
X177269909Y-102000003D01*
X145090184Y-102000003D01*
X145095508Y-101915387D01*
X145095508Y-101915376D01*
X145075753Y-101601377D01*
X145075752Y-101601370D01*
X145075752Y-101601367D01*
X145016795Y-101292303D01*
X144919567Y-100993067D01*
X144785601Y-100708375D01*
X144617011Y-100442719D01*
X144617009Y-100442716D01*
X144416457Y-100200291D01*
X144416455Y-100200289D01*
X144187095Y-99984905D01*
X144187085Y-99984897D01*
X143932559Y-99799973D01*
X143932552Y-99799968D01*
X143932548Y-99799966D01*
X143656830Y-99648388D01*
X143656827Y-99648386D01*
X143656822Y-99648384D01*
X143656821Y-99648383D01*
X143364292Y-99532563D01*
X143364289Y-99532562D01*
X143059540Y-99454316D01*
X143059527Y-99454314D01*
X142747393Y-99414882D01*
X142747382Y-99414882D01*
X142432746Y-99414882D01*
X142432734Y-99414882D01*
X142120600Y-99454314D01*
X142120587Y-99454316D01*
X141815838Y-99532562D01*
X141815835Y-99532563D01*
X141523306Y-99648383D01*
X141523305Y-99648384D01*
X141247580Y-99799966D01*
X141247568Y-99799973D01*
X140993042Y-99984897D01*
X140993032Y-99984905D01*
X140763672Y-100200289D01*
X140763670Y-100200291D01*
X140563118Y-100442716D01*
X140563115Y-100442720D01*
X140394528Y-100708372D01*
X140394525Y-100708378D01*
X140260563Y-100993060D01*
X140260561Y-100993065D01*
X140163334Y-101292298D01*
X140104375Y-101601370D01*
X140104374Y-101601377D01*
X140084620Y-101915376D01*
X140084620Y-101915387D01*
X140104374Y-102229386D01*
X140104375Y-102229393D01*
X140104376Y-102229397D01*
X140125896Y-102342211D01*
X140132137Y-102374923D01*
X140125363Y-102444463D01*
X140082068Y-102499302D01*
X140015997Y-102522029D01*
X139948129Y-102505427D01*
X139902946Y-102460158D01*
X139364894Y-101528226D01*
X139364892Y-101528222D01*
X139345175Y-101501220D01*
X139329539Y-101479805D01*
X139308295Y-101462264D01*
X139279745Y-101428450D01*
X139230165Y-101342211D01*
X137603455Y-98512737D01*
X137588673Y-98471496D01*
X137587022Y-98461677D01*
X137587021Y-98461675D01*
X137587021Y-98461673D01*
X137562769Y-98406853D01*
X137562765Y-98406844D01*
X137029362Y-97482964D01*
X137012889Y-97415064D01*
X137035742Y-97349037D01*
X137090663Y-97305846D01*
X137160216Y-97299205D01*
X137221633Y-97330572D01*
X137243032Y-97350667D01*
X137243042Y-97350675D01*
X137497568Y-97535599D01*
X137497573Y-97535601D01*
X137497580Y-97535607D01*
X137773298Y-97687185D01*
X137773303Y-97687187D01*
X137773305Y-97687188D01*
X137773306Y-97687189D01*
X138065835Y-97803009D01*
X138065838Y-97803010D01*
X138370587Y-97881256D01*
X138370591Y-97881257D01*
X138436074Y-97889529D01*
X138682734Y-97920690D01*
X138682743Y-97920690D01*
X138682746Y-97920691D01*
X138682748Y-97920691D01*
X138997380Y-97920691D01*
X138997382Y-97920691D01*
X138997385Y-97920690D01*
X138997393Y-97920690D01*
X139183657Y-97897159D01*
X139309537Y-97881257D01*
X139614289Y-97803010D01*
X139614292Y-97803009D01*
X139906821Y-97687189D01*
X139906822Y-97687188D01*
X139906820Y-97687188D01*
X139906830Y-97687185D01*
X140182548Y-97535607D01*
X140437094Y-97350669D01*
X140666454Y-97135285D01*
X140867011Y-96892854D01*
X141035601Y-96627198D01*
X141169567Y-96342506D01*
X141266795Y-96043270D01*
X141325752Y-95734206D01*
X141329193Y-95679512D01*
X141353047Y-95613840D01*
X141365260Y-95599622D01*
X143571123Y-93393761D01*
X143607288Y-93353500D01*
X143623922Y-93332858D01*
X143655567Y-93288974D01*
X143715338Y-93158097D01*
X143735023Y-93091058D01*
X143735024Y-93091054D01*
X143755500Y-92948638D01*
X143755500Y-92000000D01*
X148644341Y-92000000D01*
X148664936Y-92235403D01*
X148664938Y-92235413D01*
X148726094Y-92463655D01*
X148726096Y-92463659D01*
X148726097Y-92463663D01*
X148730000Y-92472032D01*
X148825965Y-92677830D01*
X148825967Y-92677834D01*
X148934281Y-92832521D01*
X148961501Y-92871396D01*
X148961506Y-92871402D01*
X149083430Y-92993326D01*
X149116915Y-93054649D01*
X149111931Y-93124341D01*
X149070059Y-93180274D01*
X149039083Y-93197189D01*
X148907669Y-93246203D01*
X148907664Y-93246206D01*
X148792455Y-93332452D01*
X148792452Y-93332455D01*
X148706206Y-93447664D01*
X148706202Y-93447671D01*
X148655908Y-93582517D01*
X148649501Y-93642116D01*
X148649500Y-93642135D01*
X148649500Y-95437870D01*
X148649501Y-95437876D01*
X148655908Y-95497483D01*
X148706202Y-95632328D01*
X148706206Y-95632335D01*
X148792452Y-95747544D01*
X148792455Y-95747547D01*
X148907664Y-95833793D01*
X148907671Y-95833797D01*
X149042517Y-95884091D01*
X149042516Y-95884091D01*
X149049444Y-95884835D01*
X149102127Y-95890500D01*
X150897872Y-95890499D01*
X150957483Y-95884091D01*
X151092331Y-95833796D01*
X151207546Y-95747546D01*
X151293796Y-95632331D01*
X151342810Y-95500916D01*
X151384681Y-95444984D01*
X151450145Y-95420566D01*
X151518418Y-95435417D01*
X151546673Y-95456569D01*
X151668599Y-95578495D01*
X151746080Y-95632748D01*
X151862165Y-95714032D01*
X151862167Y-95714033D01*
X151862170Y-95714035D01*
X152076337Y-95813903D01*
X152304592Y-95875063D01*
X152481034Y-95890500D01*
X152539999Y-95895659D01*
X152540000Y-95895659D01*
X152540001Y-95895659D01*
X152598966Y-95890500D01*
X152775408Y-95875063D01*
X153003663Y-95813903D01*
X153217830Y-95714035D01*
X153411401Y-95578495D01*
X153578495Y-95411401D01*
X153708425Y-95225842D01*
X153763002Y-95182217D01*
X153832500Y-95175023D01*
X153894855Y-95206546D01*
X153911575Y-95225842D01*
X154041500Y-95411395D01*
X154041505Y-95411401D01*
X154208599Y-95578495D01*
X154286080Y-95632748D01*
X154402165Y-95714032D01*
X154402167Y-95714033D01*
X154402170Y-95714035D01*
X154616337Y-95813903D01*
X154844592Y-95875063D01*
X155021034Y-95890500D01*
X155079999Y-95895659D01*
X155080000Y-95895659D01*
X155080001Y-95895659D01*
X155138966Y-95890500D01*
X155315408Y-95875063D01*
X155543663Y-95813903D01*
X155757830Y-95714035D01*
X155951401Y-95578495D01*
X156118495Y-95411401D01*
X156248425Y-95225842D01*
X156303002Y-95182217D01*
X156372500Y-95175023D01*
X156434855Y-95206546D01*
X156451575Y-95225842D01*
X156581500Y-95411395D01*
X156581505Y-95411401D01*
X156748599Y-95578495D01*
X156826080Y-95632748D01*
X156942165Y-95714032D01*
X156942167Y-95714033D01*
X156942170Y-95714035D01*
X157156337Y-95813903D01*
X157384592Y-95875063D01*
X157561034Y-95890500D01*
X157619999Y-95895659D01*
X157620000Y-95895659D01*
X157620001Y-95895659D01*
X157678966Y-95890500D01*
X157855408Y-95875063D01*
X158083663Y-95813903D01*
X158297830Y-95714035D01*
X158491401Y-95578495D01*
X158658495Y-95411401D01*
X158788425Y-95225842D01*
X158843002Y-95182217D01*
X158912500Y-95175023D01*
X158974855Y-95206546D01*
X158991575Y-95225842D01*
X159121500Y-95411395D01*
X159121505Y-95411401D01*
X159288599Y-95578495D01*
X159366080Y-95632748D01*
X159482165Y-95714032D01*
X159482167Y-95714033D01*
X159482170Y-95714035D01*
X159696337Y-95813903D01*
X159924592Y-95875063D01*
X160101034Y-95890500D01*
X160159999Y-95895659D01*
X160160000Y-95895659D01*
X160160001Y-95895659D01*
X160218966Y-95890500D01*
X160395408Y-95875063D01*
X160623663Y-95813903D01*
X160837830Y-95714035D01*
X161031401Y-95578495D01*
X161198495Y-95411401D01*
X161328425Y-95225842D01*
X161383002Y-95182217D01*
X161452500Y-95175023D01*
X161514855Y-95206546D01*
X161531575Y-95225842D01*
X161661500Y-95411395D01*
X161661505Y-95411401D01*
X161828599Y-95578495D01*
X161906080Y-95632748D01*
X162022165Y-95714032D01*
X162022167Y-95714033D01*
X162022170Y-95714035D01*
X162236337Y-95813903D01*
X162464592Y-95875063D01*
X162641034Y-95890500D01*
X162699999Y-95895659D01*
X162700000Y-95895659D01*
X162700001Y-95895659D01*
X162758966Y-95890500D01*
X162935408Y-95875063D01*
X163163663Y-95813903D01*
X163377830Y-95714035D01*
X163571401Y-95578495D01*
X163738495Y-95411401D01*
X163874035Y-95217830D01*
X163973903Y-95003663D01*
X164035063Y-94775408D01*
X164055659Y-94540000D01*
X166424341Y-94540000D01*
X166444936Y-94775403D01*
X166444938Y-94775413D01*
X166506094Y-95003655D01*
X166506096Y-95003659D01*
X166506097Y-95003663D01*
X166586004Y-95175023D01*
X166605965Y-95217830D01*
X166605967Y-95217834D01*
X166714281Y-95372521D01*
X166741505Y-95411401D01*
X166908599Y-95578495D01*
X166986080Y-95632748D01*
X167102165Y-95714032D01*
X167102167Y-95714033D01*
X167102170Y-95714035D01*
X167316337Y-95813903D01*
X167544592Y-95875063D01*
X167721034Y-95890500D01*
X167779999Y-95895659D01*
X167780000Y-95895659D01*
X167780001Y-95895659D01*
X167838966Y-95890500D01*
X168015408Y-95875063D01*
X168243663Y-95813903D01*
X168457830Y-95714035D01*
X168651401Y-95578495D01*
X168818495Y-95411401D01*
X168948425Y-95225842D01*
X169003002Y-95182217D01*
X169072500Y-95175023D01*
X169134855Y-95206546D01*
X169151575Y-95225842D01*
X169281500Y-95411395D01*
X169281505Y-95411401D01*
X169448599Y-95578495D01*
X169526080Y-95632748D01*
X169642165Y-95714032D01*
X169642167Y-95714033D01*
X169642170Y-95714035D01*
X169856337Y-95813903D01*
X170084592Y-95875063D01*
X170261034Y-95890500D01*
X170319999Y-95895659D01*
X170320000Y-95895659D01*
X170320001Y-95895659D01*
X170378966Y-95890500D01*
X170555408Y-95875063D01*
X170783663Y-95813903D01*
X170997830Y-95714035D01*
X171191401Y-95578495D01*
X171358495Y-95411401D01*
X171494035Y-95217830D01*
X171593903Y-95003663D01*
X171655063Y-94775408D01*
X171675659Y-94540000D01*
X174044341Y-94540000D01*
X174064936Y-94775403D01*
X174064938Y-94775413D01*
X174126094Y-95003655D01*
X174126096Y-95003659D01*
X174126097Y-95003663D01*
X174206004Y-95175023D01*
X174225965Y-95217830D01*
X174225967Y-95217834D01*
X174334281Y-95372521D01*
X174361505Y-95411401D01*
X174528599Y-95578495D01*
X174606080Y-95632748D01*
X174722165Y-95714032D01*
X174722167Y-95714033D01*
X174722170Y-95714035D01*
X174936337Y-95813903D01*
X175164592Y-95875063D01*
X175341034Y-95890500D01*
X175399999Y-95895659D01*
X175400000Y-95895659D01*
X175400001Y-95895659D01*
X175458966Y-95890500D01*
X175635408Y-95875063D01*
X175863663Y-95813903D01*
X176077830Y-95714035D01*
X176271401Y-95578495D01*
X176438495Y-95411401D01*
X176568425Y-95225842D01*
X176623002Y-95182217D01*
X176692500Y-95175023D01*
X176754855Y-95206546D01*
X176771575Y-95225842D01*
X176901500Y-95411395D01*
X176901505Y-95411401D01*
X177068599Y-95578495D01*
X177146080Y-95632748D01*
X177262165Y-95714032D01*
X177262167Y-95714033D01*
X177262170Y-95714035D01*
X177476337Y-95813903D01*
X177704592Y-95875063D01*
X177881034Y-95890500D01*
X177939999Y-95895659D01*
X177940000Y-95895659D01*
X177940001Y-95895659D01*
X177998966Y-95890500D01*
X178175408Y-95875063D01*
X178403663Y-95813903D01*
X178617830Y-95714035D01*
X178811401Y-95578495D01*
X178978495Y-95411401D01*
X179114035Y-95217830D01*
X179213903Y-95003663D01*
X179275063Y-94775408D01*
X179295659Y-94540000D01*
X181664341Y-94540000D01*
X181684936Y-94775403D01*
X181684938Y-94775413D01*
X181746094Y-95003655D01*
X181746096Y-95003659D01*
X181746097Y-95003663D01*
X181826004Y-95175023D01*
X181845965Y-95217830D01*
X181845967Y-95217834D01*
X181954281Y-95372521D01*
X181981505Y-95411401D01*
X182148599Y-95578495D01*
X182226080Y-95632748D01*
X182342165Y-95714032D01*
X182342167Y-95714033D01*
X182342170Y-95714035D01*
X182556337Y-95813903D01*
X182784592Y-95875063D01*
X182961034Y-95890500D01*
X183019999Y-95895659D01*
X183020000Y-95895659D01*
X183020001Y-95895659D01*
X183078966Y-95890500D01*
X183255408Y-95875063D01*
X183483663Y-95813903D01*
X183697830Y-95714035D01*
X183891401Y-95578495D01*
X184058495Y-95411401D01*
X184188425Y-95225842D01*
X184243002Y-95182217D01*
X184312500Y-95175023D01*
X184374855Y-95206546D01*
X184391575Y-95225842D01*
X184521500Y-95411395D01*
X184521505Y-95411401D01*
X184688599Y-95578495D01*
X184766080Y-95632748D01*
X184882165Y-95714032D01*
X184882167Y-95714033D01*
X184882170Y-95714035D01*
X185096337Y-95813903D01*
X185324592Y-95875063D01*
X185501034Y-95890500D01*
X185559999Y-95895659D01*
X185560000Y-95895659D01*
X185560001Y-95895659D01*
X185618966Y-95890500D01*
X185795408Y-95875063D01*
X186023663Y-95813903D01*
X186237830Y-95714035D01*
X186431401Y-95578495D01*
X186598495Y-95411401D01*
X186734035Y-95217830D01*
X186833903Y-95003663D01*
X186895063Y-94775408D01*
X186915659Y-94540000D01*
X189284341Y-94540000D01*
X189304936Y-94775403D01*
X189304938Y-94775413D01*
X189366094Y-95003655D01*
X189366096Y-95003659D01*
X189366097Y-95003663D01*
X189446004Y-95175023D01*
X189465965Y-95217830D01*
X189465967Y-95217834D01*
X189574281Y-95372521D01*
X189601505Y-95411401D01*
X189768599Y-95578495D01*
X189846080Y-95632748D01*
X189962165Y-95714032D01*
X189962167Y-95714033D01*
X189962170Y-95714035D01*
X190176337Y-95813903D01*
X190404592Y-95875063D01*
X190581034Y-95890500D01*
X190639999Y-95895659D01*
X190640000Y-95895659D01*
X190640001Y-95895659D01*
X190698966Y-95890500D01*
X190875408Y-95875063D01*
X191103663Y-95813903D01*
X191317830Y-95714035D01*
X191511401Y-95578495D01*
X191678495Y-95411401D01*
X191808425Y-95225842D01*
X191863002Y-95182217D01*
X191932500Y-95175023D01*
X191994855Y-95206546D01*
X192011575Y-95225842D01*
X192141500Y-95411395D01*
X192141505Y-95411401D01*
X192308599Y-95578495D01*
X192386080Y-95632748D01*
X192502165Y-95714032D01*
X192502167Y-95714033D01*
X192502170Y-95714035D01*
X192716337Y-95813903D01*
X192944592Y-95875063D01*
X193121034Y-95890500D01*
X193179999Y-95895659D01*
X193180000Y-95895659D01*
X193180001Y-95895659D01*
X193238966Y-95890500D01*
X193415408Y-95875063D01*
X193643663Y-95813903D01*
X193857830Y-95714035D01*
X194051401Y-95578495D01*
X194218495Y-95411401D01*
X194354035Y-95217830D01*
X194453903Y-95003663D01*
X194515063Y-94775408D01*
X194535659Y-94540000D01*
X194515063Y-94304592D01*
X194453903Y-94076337D01*
X194354035Y-93862171D01*
X194348425Y-93854158D01*
X194218494Y-93668597D01*
X194051402Y-93501506D01*
X194051396Y-93501501D01*
X193865842Y-93371575D01*
X193822217Y-93316998D01*
X193815023Y-93247500D01*
X193846546Y-93185145D01*
X193865842Y-93168425D01*
X193976333Y-93091058D01*
X194051401Y-93038495D01*
X194218495Y-92871401D01*
X194354035Y-92677830D01*
X194453903Y-92463663D01*
X194515063Y-92235408D01*
X194535659Y-92000000D01*
X194515063Y-91764592D01*
X194453903Y-91536337D01*
X194354035Y-91322171D01*
X194348425Y-91314158D01*
X194218494Y-91128597D01*
X194051402Y-90961506D01*
X194051395Y-90961501D01*
X193857834Y-90825967D01*
X193857830Y-90825965D01*
X193810756Y-90804014D01*
X193643663Y-90726097D01*
X193643659Y-90726096D01*
X193643655Y-90726094D01*
X193415413Y-90664938D01*
X193415403Y-90664936D01*
X193180001Y-90644341D01*
X193179999Y-90644341D01*
X192944596Y-90664936D01*
X192944586Y-90664938D01*
X192716344Y-90726094D01*
X192716335Y-90726098D01*
X192502171Y-90825964D01*
X192502169Y-90825965D01*
X192308597Y-90961505D01*
X192141505Y-91128597D01*
X192011575Y-91314158D01*
X191956998Y-91357783D01*
X191887500Y-91364977D01*
X191825145Y-91333454D01*
X191808425Y-91314158D01*
X191678494Y-91128597D01*
X191511402Y-90961506D01*
X191511395Y-90961501D01*
X191317834Y-90825967D01*
X191317830Y-90825965D01*
X191270756Y-90804014D01*
X191103663Y-90726097D01*
X191103659Y-90726096D01*
X191103655Y-90726094D01*
X190875413Y-90664938D01*
X190875403Y-90664936D01*
X190640001Y-90644341D01*
X190639999Y-90644341D01*
X190404596Y-90664936D01*
X190404586Y-90664938D01*
X190176344Y-90726094D01*
X190176335Y-90726098D01*
X189962171Y-90825964D01*
X189962169Y-90825965D01*
X189768597Y-90961505D01*
X189601505Y-91128597D01*
X189465965Y-91322169D01*
X189465964Y-91322171D01*
X189366098Y-91536335D01*
X189366094Y-91536344D01*
X189304938Y-91764586D01*
X189304936Y-91764596D01*
X189284341Y-91999999D01*
X189284341Y-92000000D01*
X189304936Y-92235403D01*
X189304938Y-92235413D01*
X189366094Y-92463655D01*
X189366096Y-92463659D01*
X189366097Y-92463663D01*
X189370000Y-92472032D01*
X189465965Y-92677830D01*
X189465967Y-92677834D01*
X189574281Y-92832521D01*
X189601501Y-92871396D01*
X189601506Y-92871402D01*
X189768597Y-93038493D01*
X189768603Y-93038498D01*
X189954158Y-93168425D01*
X189997783Y-93223002D01*
X190004977Y-93292500D01*
X189973454Y-93354855D01*
X189954158Y-93371575D01*
X189768597Y-93501505D01*
X189601505Y-93668597D01*
X189465965Y-93862169D01*
X189465964Y-93862171D01*
X189366098Y-94076335D01*
X189366094Y-94076344D01*
X189304938Y-94304586D01*
X189304936Y-94304596D01*
X189284341Y-94539999D01*
X189284341Y-94540000D01*
X186915659Y-94540000D01*
X186895063Y-94304592D01*
X186833903Y-94076337D01*
X186734035Y-93862171D01*
X186728425Y-93854158D01*
X186598494Y-93668597D01*
X186431402Y-93501506D01*
X186431396Y-93501501D01*
X186245842Y-93371575D01*
X186202217Y-93316998D01*
X186195023Y-93247500D01*
X186226546Y-93185145D01*
X186245842Y-93168425D01*
X186356333Y-93091058D01*
X186431401Y-93038495D01*
X186598495Y-92871401D01*
X186734035Y-92677830D01*
X186833903Y-92463663D01*
X186895063Y-92235408D01*
X186915659Y-92000000D01*
X186895063Y-91764592D01*
X186833903Y-91536337D01*
X186734035Y-91322171D01*
X186728425Y-91314158D01*
X186598494Y-91128597D01*
X186431402Y-90961506D01*
X186431395Y-90961501D01*
X186237834Y-90825967D01*
X186237830Y-90825965D01*
X186190756Y-90804014D01*
X186023663Y-90726097D01*
X186023659Y-90726096D01*
X186023655Y-90726094D01*
X185795413Y-90664938D01*
X185795403Y-90664936D01*
X185560001Y-90644341D01*
X185559999Y-90644341D01*
X185324596Y-90664936D01*
X185324586Y-90664938D01*
X185096344Y-90726094D01*
X185096335Y-90726098D01*
X184882171Y-90825964D01*
X184882169Y-90825965D01*
X184688597Y-90961505D01*
X184521505Y-91128597D01*
X184391575Y-91314158D01*
X184336998Y-91357783D01*
X184267500Y-91364977D01*
X184205145Y-91333454D01*
X184188425Y-91314158D01*
X184058494Y-91128597D01*
X183891402Y-90961506D01*
X183891395Y-90961501D01*
X183697834Y-90825967D01*
X183697830Y-90825965D01*
X183650756Y-90804014D01*
X183483663Y-90726097D01*
X183483659Y-90726096D01*
X183483655Y-90726094D01*
X183255413Y-90664938D01*
X183255403Y-90664936D01*
X183020001Y-90644341D01*
X183019999Y-90644341D01*
X182784596Y-90664936D01*
X182784586Y-90664938D01*
X182556344Y-90726094D01*
X182556335Y-90726098D01*
X182342171Y-90825964D01*
X182342169Y-90825965D01*
X182148597Y-90961505D01*
X181981505Y-91128597D01*
X181845965Y-91322169D01*
X181845964Y-91322171D01*
X181746098Y-91536335D01*
X181746094Y-91536344D01*
X181684938Y-91764586D01*
X181684936Y-91764596D01*
X181664341Y-91999999D01*
X181664341Y-92000000D01*
X181684936Y-92235403D01*
X181684938Y-92235413D01*
X181746094Y-92463655D01*
X181746096Y-92463659D01*
X181746097Y-92463663D01*
X181750000Y-92472032D01*
X181845965Y-92677830D01*
X181845967Y-92677834D01*
X181954281Y-92832521D01*
X181981501Y-92871396D01*
X181981506Y-92871402D01*
X182148597Y-93038493D01*
X182148603Y-93038498D01*
X182334158Y-93168425D01*
X182377783Y-93223002D01*
X182384977Y-93292500D01*
X182353454Y-93354855D01*
X182334158Y-93371575D01*
X182148597Y-93501505D01*
X181981505Y-93668597D01*
X181845965Y-93862169D01*
X181845964Y-93862171D01*
X181746098Y-94076335D01*
X181746094Y-94076344D01*
X181684938Y-94304586D01*
X181684936Y-94304596D01*
X181664341Y-94539999D01*
X181664341Y-94540000D01*
X179295659Y-94540000D01*
X179275063Y-94304592D01*
X179213903Y-94076337D01*
X179114035Y-93862171D01*
X179108425Y-93854158D01*
X178978494Y-93668597D01*
X178811402Y-93501506D01*
X178811396Y-93501501D01*
X178625842Y-93371575D01*
X178582217Y-93316998D01*
X178575023Y-93247500D01*
X178606546Y-93185145D01*
X178625842Y-93168425D01*
X178736333Y-93091058D01*
X178811401Y-93038495D01*
X178978495Y-92871401D01*
X179114035Y-92677830D01*
X179213903Y-92463663D01*
X179275063Y-92235408D01*
X179295659Y-92000000D01*
X179275063Y-91764592D01*
X179213903Y-91536337D01*
X179114035Y-91322171D01*
X179108425Y-91314158D01*
X178978494Y-91128597D01*
X178811402Y-90961506D01*
X178811395Y-90961501D01*
X178617834Y-90825967D01*
X178617830Y-90825965D01*
X178570756Y-90804014D01*
X178403663Y-90726097D01*
X178403659Y-90726096D01*
X178403655Y-90726094D01*
X178175413Y-90664938D01*
X178175403Y-90664936D01*
X177940001Y-90644341D01*
X177939999Y-90644341D01*
X177704596Y-90664936D01*
X177704586Y-90664938D01*
X177476344Y-90726094D01*
X177476335Y-90726098D01*
X177262171Y-90825964D01*
X177262169Y-90825965D01*
X177068597Y-90961505D01*
X176901505Y-91128597D01*
X176771575Y-91314158D01*
X176716998Y-91357783D01*
X176647500Y-91364977D01*
X176585145Y-91333454D01*
X176568425Y-91314158D01*
X176438494Y-91128597D01*
X176271402Y-90961506D01*
X176271395Y-90961501D01*
X176077834Y-90825967D01*
X176077830Y-90825965D01*
X176030756Y-90804014D01*
X175863663Y-90726097D01*
X175863659Y-90726096D01*
X175863655Y-90726094D01*
X175635413Y-90664938D01*
X175635403Y-90664936D01*
X175400001Y-90644341D01*
X175399999Y-90644341D01*
X175164596Y-90664936D01*
X175164586Y-90664938D01*
X174936344Y-90726094D01*
X174936335Y-90726098D01*
X174722171Y-90825964D01*
X174722169Y-90825965D01*
X174528597Y-90961505D01*
X174361505Y-91128597D01*
X174225965Y-91322169D01*
X174225964Y-91322171D01*
X174126098Y-91536335D01*
X174126094Y-91536344D01*
X174064938Y-91764586D01*
X174064936Y-91764596D01*
X174044341Y-91999999D01*
X174044341Y-92000000D01*
X174064936Y-92235403D01*
X174064938Y-92235413D01*
X174126094Y-92463655D01*
X174126096Y-92463659D01*
X174126097Y-92463663D01*
X174130000Y-92472032D01*
X174225965Y-92677830D01*
X174225967Y-92677834D01*
X174334281Y-92832521D01*
X174361501Y-92871396D01*
X174361506Y-92871402D01*
X174528597Y-93038493D01*
X174528603Y-93038498D01*
X174714158Y-93168425D01*
X174757783Y-93223002D01*
X174764977Y-93292500D01*
X174733454Y-93354855D01*
X174714158Y-93371575D01*
X174528597Y-93501505D01*
X174361505Y-93668597D01*
X174225965Y-93862169D01*
X174225964Y-93862171D01*
X174126098Y-94076335D01*
X174126094Y-94076344D01*
X174064938Y-94304586D01*
X174064936Y-94304596D01*
X174044341Y-94539999D01*
X174044341Y-94540000D01*
X171675659Y-94540000D01*
X171655063Y-94304592D01*
X171593903Y-94076337D01*
X171494035Y-93862171D01*
X171488425Y-93854158D01*
X171358494Y-93668597D01*
X171191402Y-93501506D01*
X171191396Y-93501501D01*
X171005842Y-93371575D01*
X170962217Y-93316998D01*
X170955023Y-93247500D01*
X170986546Y-93185145D01*
X171005842Y-93168425D01*
X171116333Y-93091058D01*
X171191401Y-93038495D01*
X171358495Y-92871401D01*
X171494035Y-92677830D01*
X171593903Y-92463663D01*
X171655063Y-92235408D01*
X171675659Y-92000000D01*
X171655063Y-91764592D01*
X171593903Y-91536337D01*
X171494035Y-91322171D01*
X171488425Y-91314158D01*
X171358494Y-91128597D01*
X171191402Y-90961506D01*
X171191395Y-90961501D01*
X170997834Y-90825967D01*
X170997830Y-90825965D01*
X170950756Y-90804014D01*
X170783663Y-90726097D01*
X170783659Y-90726096D01*
X170783655Y-90726094D01*
X170555413Y-90664938D01*
X170555403Y-90664936D01*
X170320001Y-90644341D01*
X170319999Y-90644341D01*
X170084596Y-90664936D01*
X170084586Y-90664938D01*
X169856344Y-90726094D01*
X169856335Y-90726098D01*
X169642171Y-90825964D01*
X169642169Y-90825965D01*
X169448597Y-90961505D01*
X169281505Y-91128597D01*
X169151575Y-91314158D01*
X169096998Y-91357783D01*
X169027500Y-91364977D01*
X168965145Y-91333454D01*
X168948425Y-91314158D01*
X168818494Y-91128597D01*
X168651402Y-90961506D01*
X168651395Y-90961501D01*
X168457834Y-90825967D01*
X168457830Y-90825965D01*
X168410756Y-90804014D01*
X168243663Y-90726097D01*
X168243659Y-90726096D01*
X168243655Y-90726094D01*
X168015413Y-90664938D01*
X168015403Y-90664936D01*
X167780001Y-90644341D01*
X167779999Y-90644341D01*
X167544596Y-90664936D01*
X167544586Y-90664938D01*
X167316344Y-90726094D01*
X167316335Y-90726098D01*
X167102171Y-90825964D01*
X167102169Y-90825965D01*
X166908597Y-90961505D01*
X166741505Y-91128597D01*
X166605965Y-91322169D01*
X166605964Y-91322171D01*
X166506098Y-91536335D01*
X166506094Y-91536344D01*
X166444938Y-91764586D01*
X166444936Y-91764596D01*
X166424341Y-91999999D01*
X166424341Y-92000000D01*
X166444936Y-92235403D01*
X166444938Y-92235413D01*
X166506094Y-92463655D01*
X166506096Y-92463659D01*
X166506097Y-92463663D01*
X166510000Y-92472032D01*
X166605965Y-92677830D01*
X166605967Y-92677834D01*
X166714281Y-92832521D01*
X166741501Y-92871396D01*
X166741506Y-92871402D01*
X166908597Y-93038493D01*
X166908603Y-93038498D01*
X167094158Y-93168425D01*
X167137783Y-93223002D01*
X167144977Y-93292500D01*
X167113454Y-93354855D01*
X167094158Y-93371575D01*
X166908597Y-93501505D01*
X166741505Y-93668597D01*
X166605965Y-93862169D01*
X166605964Y-93862171D01*
X166506098Y-94076335D01*
X166506094Y-94076344D01*
X166444938Y-94304586D01*
X166444936Y-94304596D01*
X166424341Y-94539999D01*
X166424341Y-94540000D01*
X164055659Y-94540000D01*
X164035063Y-94304592D01*
X163973903Y-94076337D01*
X163874035Y-93862171D01*
X163868425Y-93854158D01*
X163738494Y-93668597D01*
X163571402Y-93501506D01*
X163571396Y-93501501D01*
X163385842Y-93371575D01*
X163342217Y-93316998D01*
X163335023Y-93247500D01*
X163366546Y-93185145D01*
X163385842Y-93168425D01*
X163496333Y-93091058D01*
X163571401Y-93038495D01*
X163738495Y-92871401D01*
X163874035Y-92677830D01*
X163973903Y-92463663D01*
X164035063Y-92235408D01*
X164055659Y-92000000D01*
X164035063Y-91764592D01*
X163973903Y-91536337D01*
X163874035Y-91322171D01*
X163868425Y-91314158D01*
X163738494Y-91128597D01*
X163571402Y-90961506D01*
X163571395Y-90961501D01*
X163377834Y-90825967D01*
X163377830Y-90825965D01*
X163330756Y-90804014D01*
X163163663Y-90726097D01*
X163163659Y-90726096D01*
X163163655Y-90726094D01*
X162935413Y-90664938D01*
X162935403Y-90664936D01*
X162700001Y-90644341D01*
X162699999Y-90644341D01*
X162464596Y-90664936D01*
X162464586Y-90664938D01*
X162236344Y-90726094D01*
X162236335Y-90726098D01*
X162022171Y-90825964D01*
X162022169Y-90825965D01*
X161828597Y-90961505D01*
X161661505Y-91128597D01*
X161531575Y-91314158D01*
X161476998Y-91357783D01*
X161407500Y-91364977D01*
X161345145Y-91333454D01*
X161328425Y-91314158D01*
X161198494Y-91128597D01*
X161031402Y-90961506D01*
X161031395Y-90961501D01*
X160837834Y-90825967D01*
X160837830Y-90825965D01*
X160790756Y-90804014D01*
X160623663Y-90726097D01*
X160623659Y-90726096D01*
X160623655Y-90726094D01*
X160395413Y-90664938D01*
X160395403Y-90664936D01*
X160160001Y-90644341D01*
X160159999Y-90644341D01*
X159924596Y-90664936D01*
X159924586Y-90664938D01*
X159696344Y-90726094D01*
X159696335Y-90726098D01*
X159482171Y-90825964D01*
X159482169Y-90825965D01*
X159288597Y-90961505D01*
X159121505Y-91128597D01*
X158985965Y-91322169D01*
X158985964Y-91322171D01*
X158886098Y-91536335D01*
X158886094Y-91536344D01*
X158824938Y-91764586D01*
X158824936Y-91764596D01*
X158804341Y-91999999D01*
X158804341Y-92000000D01*
X158824936Y-92235403D01*
X158824938Y-92235413D01*
X158886094Y-92463655D01*
X158886096Y-92463659D01*
X158886097Y-92463663D01*
X158890000Y-92472032D01*
X158985965Y-92677830D01*
X158985967Y-92677834D01*
X159094281Y-92832521D01*
X159121501Y-92871396D01*
X159121506Y-92871402D01*
X159288597Y-93038493D01*
X159288603Y-93038498D01*
X159474158Y-93168425D01*
X159517783Y-93223002D01*
X159524977Y-93292500D01*
X159493454Y-93354855D01*
X159474158Y-93371575D01*
X159288597Y-93501505D01*
X159121505Y-93668597D01*
X158991575Y-93854158D01*
X158936998Y-93897783D01*
X158867500Y-93904977D01*
X158805145Y-93873454D01*
X158788425Y-93854158D01*
X158658494Y-93668597D01*
X158491402Y-93501506D01*
X158491395Y-93501501D01*
X158297834Y-93365967D01*
X158297830Y-93365965D01*
X158297828Y-93365964D01*
X158083663Y-93266097D01*
X158083659Y-93266096D01*
X158083655Y-93266094D01*
X157855413Y-93204938D01*
X157855403Y-93204936D01*
X157620001Y-93184341D01*
X157619999Y-93184341D01*
X157384596Y-93204936D01*
X157384586Y-93204938D01*
X157156344Y-93266094D01*
X157156335Y-93266098D01*
X156942171Y-93365964D01*
X156942169Y-93365965D01*
X156748597Y-93501505D01*
X156581505Y-93668597D01*
X156451575Y-93854158D01*
X156396998Y-93897783D01*
X156327500Y-93904977D01*
X156265145Y-93873454D01*
X156248425Y-93854158D01*
X156118494Y-93668597D01*
X155951402Y-93501506D01*
X155951396Y-93501501D01*
X155765842Y-93371575D01*
X155722217Y-93316998D01*
X155715023Y-93247500D01*
X155746546Y-93185145D01*
X155765842Y-93168425D01*
X155876333Y-93091058D01*
X155951401Y-93038495D01*
X156118495Y-92871401D01*
X156254035Y-92677830D01*
X156353903Y-92463663D01*
X156415063Y-92235408D01*
X156435659Y-92000000D01*
X156415063Y-91764592D01*
X156353903Y-91536337D01*
X156254035Y-91322171D01*
X156248425Y-91314158D01*
X156118494Y-91128597D01*
X155951402Y-90961506D01*
X155951395Y-90961501D01*
X155757834Y-90825967D01*
X155757830Y-90825965D01*
X155710756Y-90804014D01*
X155543663Y-90726097D01*
X155543659Y-90726096D01*
X155543655Y-90726094D01*
X155315413Y-90664938D01*
X155315403Y-90664936D01*
X155080001Y-90644341D01*
X155079999Y-90644341D01*
X154844596Y-90664936D01*
X154844586Y-90664938D01*
X154616344Y-90726094D01*
X154616335Y-90726098D01*
X154402171Y-90825964D01*
X154402169Y-90825965D01*
X154208597Y-90961505D01*
X154041505Y-91128597D01*
X153911575Y-91314158D01*
X153856998Y-91357783D01*
X153787500Y-91364977D01*
X153725145Y-91333454D01*
X153708425Y-91314158D01*
X153578494Y-91128597D01*
X153411402Y-90961506D01*
X153411395Y-90961501D01*
X153217834Y-90825967D01*
X153217830Y-90825965D01*
X153170756Y-90804014D01*
X153003663Y-90726097D01*
X153003659Y-90726096D01*
X153003655Y-90726094D01*
X152775413Y-90664938D01*
X152775403Y-90664936D01*
X152540001Y-90644341D01*
X152539999Y-90644341D01*
X152304596Y-90664936D01*
X152304586Y-90664938D01*
X152076344Y-90726094D01*
X152076335Y-90726098D01*
X151862171Y-90825964D01*
X151862169Y-90825965D01*
X151668597Y-90961505D01*
X151501505Y-91128597D01*
X151371575Y-91314158D01*
X151316998Y-91357783D01*
X151247500Y-91364977D01*
X151185145Y-91333454D01*
X151168425Y-91314158D01*
X151038494Y-91128597D01*
X150871402Y-90961506D01*
X150871395Y-90961501D01*
X150677834Y-90825967D01*
X150677830Y-90825965D01*
X150630756Y-90804014D01*
X150463663Y-90726097D01*
X150463659Y-90726096D01*
X150463655Y-90726094D01*
X150235413Y-90664938D01*
X150235403Y-90664936D01*
X150000001Y-90644341D01*
X149999999Y-90644341D01*
X149764596Y-90664936D01*
X149764586Y-90664938D01*
X149536344Y-90726094D01*
X149536335Y-90726098D01*
X149322171Y-90825964D01*
X149322169Y-90825965D01*
X149128597Y-90961505D01*
X148961505Y-91128597D01*
X148825965Y-91322169D01*
X148825964Y-91322171D01*
X148726098Y-91536335D01*
X148726094Y-91536344D01*
X148664938Y-91764586D01*
X148664936Y-91764596D01*
X148644341Y-91999999D01*
X148644341Y-92000000D01*
X143755500Y-92000000D01*
X143755500Y-81801362D01*
X143752603Y-81747322D01*
X143749769Y-81720964D01*
X143741114Y-81667552D01*
X143690832Y-81532743D01*
X143657347Y-81471420D01*
X143571123Y-81356239D01*
X143571118Y-81356234D01*
X143571113Y-81356228D01*
X141714888Y-79500003D01*
X154269909Y-79500003D01*
X154288212Y-79662455D01*
X154342210Y-79816774D01*
X154342211Y-79816775D01*
X154429192Y-79955204D01*
X154544796Y-80070808D01*
X154683225Y-80157789D01*
X154837539Y-80211786D01*
X154837542Y-80211786D01*
X154837544Y-80211787D01*
X154999996Y-80230091D01*
X155000000Y-80230091D01*
X155000004Y-80230091D01*
X155162455Y-80211787D01*
X155162456Y-80211786D01*
X155162461Y-80211786D01*
X155316775Y-80157789D01*
X155455204Y-80070808D01*
X155570808Y-79955204D01*
X155657789Y-79816775D01*
X155711786Y-79662461D01*
X155713893Y-79643761D01*
X155730091Y-79500003D01*
X165269909Y-79500003D01*
X165288212Y-79662455D01*
X165342210Y-79816774D01*
X165342211Y-79816775D01*
X165429192Y-79955204D01*
X165544796Y-80070808D01*
X165683225Y-80157789D01*
X165837539Y-80211786D01*
X165837542Y-80211786D01*
X165837544Y-80211787D01*
X165999996Y-80230091D01*
X166000000Y-80230091D01*
X166000004Y-80230091D01*
X166162455Y-80211787D01*
X166162456Y-80211786D01*
X166162461Y-80211786D01*
X166316775Y-80157789D01*
X166455204Y-80070808D01*
X166570808Y-79955204D01*
X166657789Y-79816775D01*
X166711786Y-79662461D01*
X166713893Y-79643761D01*
X166730091Y-79500003D01*
X166730091Y-79499996D01*
X166711787Y-79337544D01*
X166711786Y-79337542D01*
X166711786Y-79337539D01*
X166657789Y-79183225D01*
X166570808Y-79044796D01*
X166455204Y-78929192D01*
X166316774Y-78842210D01*
X166162455Y-78788212D01*
X166000004Y-78769909D01*
X165999996Y-78769909D01*
X165837544Y-78788212D01*
X165683225Y-78842210D01*
X165544795Y-78929192D01*
X165429192Y-79044795D01*
X165342210Y-79183225D01*
X165288212Y-79337544D01*
X165269909Y-79499996D01*
X165269909Y-79500003D01*
X155730091Y-79500003D01*
X155730091Y-79499996D01*
X155711787Y-79337544D01*
X155711786Y-79337542D01*
X155711786Y-79337539D01*
X155657789Y-79183225D01*
X155570808Y-79044796D01*
X155455204Y-78929192D01*
X155316774Y-78842210D01*
X155162455Y-78788212D01*
X155000004Y-78769909D01*
X154999996Y-78769909D01*
X154837544Y-78788212D01*
X154683225Y-78842210D01*
X154544795Y-78929192D01*
X154429192Y-79044795D01*
X154342210Y-79183225D01*
X154288212Y-79337544D01*
X154269909Y-79499996D01*
X154269909Y-79500003D01*
X141714888Y-79500003D01*
X135893776Y-73678892D01*
X135893770Y-73678886D01*
X135893761Y-73678877D01*
X135893737Y-73678855D01*
X135853519Y-73642728D01*
X135853507Y-73642718D01*
X135832856Y-73626076D01*
X135788974Y-73594433D01*
X135658100Y-73534663D01*
X135591055Y-73514976D01*
X135543582Y-73508150D01*
X135448638Y-73494500D01*
X133223938Y-73494500D01*
X133156899Y-73474815D01*
X133111144Y-73422011D01*
X133101200Y-73352853D01*
X133130225Y-73289297D01*
X133164921Y-73261445D01*
X133236003Y-73222977D01*
X133236005Y-73222976D01*
X133236004Y-73222976D01*
X133236009Y-73222974D01*
X133432244Y-73070238D01*
X133600664Y-72887285D01*
X133736673Y-72679107D01*
X133836563Y-72451381D01*
X133897608Y-72210321D01*
X133898032Y-72205204D01*
X133918143Y-71962505D01*
X133918143Y-71962494D01*
X133900535Y-71750003D01*
X185519909Y-71750003D01*
X185538212Y-71912455D01*
X185592210Y-72066774D01*
X185653637Y-72164534D01*
X185679192Y-72205204D01*
X185794796Y-72320808D01*
X185933225Y-72407789D01*
X186087539Y-72461786D01*
X186087542Y-72461786D01*
X186087544Y-72461787D01*
X186249996Y-72480091D01*
X186250000Y-72480091D01*
X186250004Y-72480091D01*
X186412455Y-72461787D01*
X186412456Y-72461786D01*
X186412461Y-72461786D01*
X186566775Y-72407789D01*
X186705204Y-72320808D01*
X186820808Y-72205204D01*
X186907789Y-72066775D01*
X186961786Y-71912461D01*
X186965536Y-71879179D01*
X186980091Y-71750003D01*
X186980091Y-71749996D01*
X186961787Y-71587544D01*
X186961786Y-71587542D01*
X186961786Y-71587539D01*
X186907789Y-71433225D01*
X186820808Y-71294796D01*
X186705204Y-71179192D01*
X186566774Y-71092210D01*
X186412455Y-71038212D01*
X186250004Y-71019909D01*
X186249996Y-71019909D01*
X186087544Y-71038212D01*
X185933225Y-71092210D01*
X185794795Y-71179192D01*
X185679192Y-71294795D01*
X185592210Y-71433225D01*
X185538212Y-71587544D01*
X185519909Y-71749996D01*
X185519909Y-71750003D01*
X133900535Y-71750003D01*
X133897609Y-71714687D01*
X133897607Y-71714675D01*
X133836563Y-71473618D01*
X133736673Y-71245893D01*
X133600666Y-71037717D01*
X133579057Y-71014244D01*
X133432244Y-70854762D01*
X133236009Y-70702026D01*
X133236007Y-70702025D01*
X133236006Y-70702024D01*
X133017311Y-70583672D01*
X133017302Y-70583669D01*
X132782116Y-70502929D01*
X132536835Y-70462000D01*
X132288165Y-70462000D01*
X132042883Y-70502929D01*
X131807697Y-70583669D01*
X131807688Y-70583672D01*
X131588993Y-70702024D01*
X131392757Y-70854761D01*
X131224333Y-71037717D01*
X131088326Y-71245893D01*
X130988436Y-71473618D01*
X130927392Y-71714675D01*
X130927390Y-71714687D01*
X130906857Y-71962494D01*
X130906857Y-71962505D01*
X130927390Y-72210312D01*
X130927392Y-72210324D01*
X130988436Y-72451381D01*
X131088326Y-72679106D01*
X131224333Y-72887282D01*
X131224336Y-72887285D01*
X131392756Y-73070238D01*
X131588991Y-73222974D01*
X131588994Y-73222976D01*
X131588996Y-73222977D01*
X131660079Y-73261445D01*
X131709670Y-73310664D01*
X131724778Y-73378881D01*
X131700608Y-73444437D01*
X131644832Y-73486518D01*
X131601062Y-73494500D01*
X125723938Y-73494500D01*
X125656899Y-73474815D01*
X125611144Y-73422011D01*
X125601200Y-73352853D01*
X125630225Y-73289297D01*
X125664921Y-73261445D01*
X125736003Y-73222977D01*
X125736005Y-73222976D01*
X125736004Y-73222976D01*
X125736009Y-73222974D01*
X125932244Y-73070238D01*
X126100664Y-72887285D01*
X126236673Y-72679107D01*
X126336563Y-72451381D01*
X126397608Y-72210321D01*
X126398032Y-72205204D01*
X126418143Y-71962505D01*
X126418143Y-71962494D01*
X126397609Y-71714687D01*
X126397607Y-71714675D01*
X126336563Y-71473618D01*
X126236673Y-71245893D01*
X126100666Y-71037717D01*
X126079057Y-71014244D01*
X125932244Y-70854762D01*
X125736009Y-70702026D01*
X125736007Y-70702025D01*
X125736006Y-70702024D01*
X125517311Y-70583672D01*
X125517302Y-70583669D01*
X125282116Y-70502929D01*
X125036835Y-70462000D01*
X124788165Y-70462000D01*
X124542883Y-70502929D01*
X124307697Y-70583669D01*
X124307688Y-70583672D01*
X124088993Y-70702024D01*
X123892757Y-70854761D01*
X123724333Y-71037717D01*
X123588326Y-71245893D01*
X123488436Y-71473618D01*
X123427392Y-71714675D01*
X123427390Y-71714687D01*
X123406857Y-71962494D01*
X123406857Y-71962505D01*
X123427390Y-72210312D01*
X123427392Y-72210324D01*
X123488436Y-72451381D01*
X123588326Y-72679106D01*
X123724333Y-72887282D01*
X123724336Y-72887285D01*
X123892756Y-73070238D01*
X124088991Y-73222974D01*
X124088994Y-73222976D01*
X124088996Y-73222977D01*
X124160079Y-73261445D01*
X124209670Y-73310664D01*
X124224778Y-73378881D01*
X124200608Y-73444437D01*
X124144832Y-73486518D01*
X124101062Y-73494500D01*
X124051360Y-73494500D01*
X123997311Y-73497397D01*
X123997310Y-73497397D01*
X123970977Y-73500229D01*
X123970950Y-73500232D01*
X123917554Y-73508885D01*
X123917552Y-73508885D01*
X123782747Y-73559166D01*
X123721422Y-73592651D01*
X123606240Y-73678876D01*
X123606228Y-73678886D01*
X123178892Y-74106223D01*
X123178855Y-74106262D01*
X123142728Y-74146480D01*
X123142718Y-74146492D01*
X123126076Y-74167143D01*
X123094433Y-74211025D01*
X123034663Y-74341899D01*
X123014976Y-74408944D01*
X122994500Y-74551363D01*
X122994500Y-79198640D01*
X122997397Y-79252688D01*
X122997397Y-79252689D01*
X123000229Y-79279022D01*
X123000232Y-79279049D01*
X123008885Y-79332445D01*
X123008885Y-79332447D01*
X123059166Y-79467252D01*
X123059168Y-79467257D01*
X123092653Y-79528580D01*
X123178877Y-79643761D01*
X123178881Y-79643765D01*
X123178886Y-79643771D01*
X123447434Y-79912319D01*
X123480919Y-79973642D01*
X123475935Y-80043334D01*
X123447434Y-80087681D01*
X123178892Y-80356223D01*
X123178855Y-80356262D01*
X123142728Y-80396480D01*
X123142718Y-80396492D01*
X123126076Y-80417143D01*
X123094433Y-80461025D01*
X123034663Y-80591899D01*
X123014976Y-80658944D01*
X122994500Y-80801363D01*
X122994500Y-87448640D01*
X122997397Y-87502688D01*
X122997397Y-87502689D01*
X123000229Y-87529022D01*
X123000232Y-87529049D01*
X123008885Y-87582445D01*
X123008885Y-87582447D01*
X123049286Y-87690763D01*
X123059168Y-87717257D01*
X123092653Y-87778580D01*
X123178877Y-87893761D01*
X123178881Y-87893765D01*
X123178886Y-87893771D01*
X123554876Y-88269760D01*
X123588361Y-88331083D01*
X123583377Y-88400774D01*
X123554876Y-88445122D01*
X123359946Y-88640051D01*
X123298623Y-88673536D01*
X123230175Y-88669008D01*
X123029473Y-88596582D01*
X123029472Y-88596581D01*
X123029470Y-88596581D01*
X123029465Y-88596579D01*
X123029462Y-88596579D01*
X122692239Y-88517308D01*
X122692237Y-88517307D01*
X122692234Y-88517307D01*
X122348112Y-88477404D01*
X122174898Y-88474946D01*
X122174865Y-88474946D01*
X116072162Y-88474946D01*
X116070780Y-88474938D01*
X115858022Y-88472566D01*
X115848597Y-88472102D01*
X115423953Y-88434951D01*
X115413228Y-88433539D01*
X114994126Y-88359640D01*
X114983565Y-88357299D01*
X114656860Y-88269760D01*
X114572488Y-88247152D01*
X114562186Y-88243904D01*
X114162258Y-88098343D01*
X114152280Y-88094209D01*
X113766580Y-87914356D01*
X113756985Y-87909361D01*
X113388427Y-87696575D01*
X113379304Y-87690763D01*
X113030696Y-87446667D01*
X113022114Y-87440082D01*
X112696110Y-87166535D01*
X112688134Y-87159226D01*
X112387202Y-86858295D01*
X112379894Y-86850320D01*
X112106343Y-86524319D01*
X112099758Y-86515737D01*
X111855665Y-86167141D01*
X111849852Y-86158018D01*
X111637048Y-85789436D01*
X111632070Y-85779874D01*
X111452208Y-85394164D01*
X111448070Y-85384173D01*
X111302513Y-84984267D01*
X111299260Y-84973951D01*
X111189108Y-84562873D01*
X111186767Y-84552311D01*
X111112866Y-84133214D01*
X111111454Y-84122489D01*
X111074301Y-83697869D01*
X111073836Y-83688414D01*
X111071513Y-83475586D01*
X111071506Y-83474233D01*
X111071506Y-69500003D01*
X181739909Y-69500003D01*
X181758212Y-69662455D01*
X181812210Y-69816774D01*
X181812211Y-69816775D01*
X181899192Y-69955204D01*
X182014796Y-70070808D01*
X182153225Y-70157789D01*
X182307539Y-70211786D01*
X182307542Y-70211786D01*
X182307544Y-70211787D01*
X182469996Y-70230091D01*
X182470000Y-70230091D01*
X182470004Y-70230091D01*
X182632455Y-70211787D01*
X182632456Y-70211786D01*
X182632461Y-70211786D01*
X182786775Y-70157789D01*
X182925204Y-70070808D01*
X183040808Y-69955204D01*
X183127789Y-69816775D01*
X183181786Y-69662461D01*
X183200091Y-69500000D01*
X183181786Y-69337539D01*
X183127789Y-69183225D01*
X183040808Y-69044796D01*
X182925204Y-68929192D01*
X182786774Y-68842210D01*
X182632455Y-68788212D01*
X182470004Y-68769909D01*
X182469996Y-68769909D01*
X182307544Y-68788212D01*
X182153225Y-68842210D01*
X182014795Y-68929192D01*
X181899192Y-69044795D01*
X181812210Y-69183225D01*
X181758212Y-69337544D01*
X181739909Y-69499996D01*
X181739909Y-69500003D01*
X111071506Y-69500003D01*
X111071506Y-66000003D01*
X158769909Y-66000003D01*
X158788212Y-66162455D01*
X158842210Y-66316774D01*
X158842211Y-66316775D01*
X158929192Y-66455204D01*
X159044796Y-66570808D01*
X159183225Y-66657789D01*
X159337539Y-66711786D01*
X159337542Y-66711786D01*
X159337544Y-66711787D01*
X159499996Y-66730091D01*
X159500000Y-66730091D01*
X159500004Y-66730091D01*
X159662455Y-66711787D01*
X159662456Y-66711786D01*
X159662461Y-66711786D01*
X159816775Y-66657789D01*
X159955204Y-66570808D01*
X160070808Y-66455204D01*
X160157789Y-66316775D01*
X160211786Y-66162461D01*
X160230091Y-66000003D01*
X169769909Y-66000003D01*
X169788212Y-66162455D01*
X169842210Y-66316774D01*
X169842211Y-66316775D01*
X169929192Y-66455204D01*
X170044796Y-66570808D01*
X170183225Y-66657789D01*
X170337539Y-66711786D01*
X170337542Y-66711786D01*
X170337544Y-66711787D01*
X170499996Y-66730091D01*
X170500000Y-66730091D01*
X170500004Y-66730091D01*
X170662455Y-66711787D01*
X170662456Y-66711786D01*
X170662461Y-66711786D01*
X170816775Y-66657789D01*
X170955204Y-66570808D01*
X171070808Y-66455204D01*
X171157789Y-66316775D01*
X171211786Y-66162461D01*
X171230091Y-66000000D01*
X171211786Y-65837539D01*
X171157789Y-65683225D01*
X171070808Y-65544796D01*
X170955204Y-65429192D01*
X170816774Y-65342210D01*
X170662455Y-65288212D01*
X170500004Y-65269909D01*
X170499996Y-65269909D01*
X170337544Y-65288212D01*
X170183225Y-65342210D01*
X170044795Y-65429192D01*
X169929192Y-65544795D01*
X169842210Y-65683225D01*
X169788212Y-65837544D01*
X169769909Y-65999996D01*
X169769909Y-66000003D01*
X160230091Y-66000003D01*
X160230091Y-66000000D01*
X160211786Y-65837539D01*
X160157789Y-65683225D01*
X160070808Y-65544796D01*
X159955204Y-65429192D01*
X159816774Y-65342210D01*
X159662455Y-65288212D01*
X159500004Y-65269909D01*
X159499996Y-65269909D01*
X159337544Y-65288212D01*
X159183225Y-65342210D01*
X159044795Y-65429192D01*
X158929192Y-65544795D01*
X158842210Y-65683225D01*
X158788212Y-65837544D01*
X158769909Y-65999996D01*
X158769909Y-66000003D01*
X111071506Y-66000003D01*
X111071506Y-60250003D01*
X137769909Y-60250003D01*
X137788212Y-60412455D01*
X137842210Y-60566774D01*
X137842211Y-60566775D01*
X137929192Y-60705204D01*
X138044796Y-60820808D01*
X138183225Y-60907789D01*
X138337539Y-60961786D01*
X138337542Y-60961786D01*
X138337544Y-60961787D01*
X138499996Y-60980091D01*
X138500000Y-60980091D01*
X138500004Y-60980091D01*
X138662455Y-60961787D01*
X138662456Y-60961786D01*
X138662461Y-60961786D01*
X138816775Y-60907789D01*
X138955204Y-60820808D01*
X139070808Y-60705204D01*
X139157789Y-60566775D01*
X139211786Y-60412461D01*
X139230091Y-60250000D01*
X139211786Y-60087539D01*
X139157789Y-59933225D01*
X139070808Y-59794796D01*
X138955204Y-59679192D01*
X138816774Y-59592210D01*
X138662455Y-59538212D01*
X138500004Y-59519909D01*
X138499996Y-59519909D01*
X138337544Y-59538212D01*
X138183225Y-59592210D01*
X138044795Y-59679192D01*
X137929192Y-59794795D01*
X137842210Y-59933225D01*
X137788212Y-60087544D01*
X137769909Y-60249996D01*
X137769909Y-60250003D01*
X111071506Y-60250003D01*
X111071506Y-58010370D01*
X123412000Y-58010370D01*
X123412001Y-58010376D01*
X123418408Y-58069983D01*
X123468702Y-58204828D01*
X123468706Y-58204835D01*
X123554952Y-58320044D01*
X123554955Y-58320047D01*
X123670164Y-58406293D01*
X123670171Y-58406297D01*
X123805017Y-58456591D01*
X123805016Y-58456591D01*
X123811944Y-58457335D01*
X123864627Y-58463000D01*
X125960372Y-58462999D01*
X126019983Y-58456591D01*
X126154831Y-58406296D01*
X126270046Y-58320046D01*
X126356296Y-58204831D01*
X126406591Y-58069983D01*
X126413000Y-58010373D01*
X126413000Y-56962505D01*
X130906857Y-56962505D01*
X130927390Y-57210312D01*
X130927392Y-57210324D01*
X130988436Y-57451381D01*
X131088326Y-57679106D01*
X131224333Y-57887282D01*
X131224336Y-57887285D01*
X131392756Y-58070238D01*
X131588991Y-58222974D01*
X131807690Y-58341328D01*
X132042886Y-58422071D01*
X132288165Y-58463000D01*
X132536835Y-58463000D01*
X132782114Y-58422071D01*
X133017310Y-58341328D01*
X133236009Y-58222974D01*
X133432244Y-58070238D01*
X133600664Y-57887285D01*
X133736673Y-57679107D01*
X133836563Y-57451381D01*
X133897608Y-57210321D01*
X133918143Y-56962500D01*
X133897608Y-56714679D01*
X133836563Y-56473619D01*
X133736673Y-56245893D01*
X133600666Y-56037717D01*
X133579057Y-56014244D01*
X133432244Y-55854762D01*
X133236009Y-55702026D01*
X133236007Y-55702025D01*
X133236006Y-55702024D01*
X133017311Y-55583672D01*
X133017302Y-55583669D01*
X132782116Y-55502929D01*
X132536835Y-55462000D01*
X132288165Y-55462000D01*
X132042883Y-55502929D01*
X131807697Y-55583669D01*
X131807688Y-55583672D01*
X131588993Y-55702024D01*
X131392757Y-55854761D01*
X131224333Y-56037717D01*
X131088326Y-56245893D01*
X130988436Y-56473618D01*
X130927392Y-56714675D01*
X130927390Y-56714687D01*
X130906857Y-56962494D01*
X130906857Y-56962505D01*
X126413000Y-56962505D01*
X126412999Y-55914628D01*
X126406591Y-55855017D01*
X126356296Y-55720169D01*
X126356295Y-55720168D01*
X126356293Y-55720164D01*
X126270047Y-55604955D01*
X126270044Y-55604952D01*
X126154835Y-55518706D01*
X126154828Y-55518702D01*
X126019982Y-55468408D01*
X126019983Y-55468408D01*
X125960383Y-55462001D01*
X125960381Y-55462000D01*
X125960373Y-55462000D01*
X125960364Y-55462000D01*
X123864629Y-55462000D01*
X123864623Y-55462001D01*
X123805016Y-55468408D01*
X123670171Y-55518702D01*
X123670164Y-55518706D01*
X123554955Y-55604952D01*
X123554952Y-55604955D01*
X123468706Y-55720164D01*
X123468702Y-55720171D01*
X123418408Y-55855017D01*
X123412001Y-55914616D01*
X123412001Y-55914623D01*
X123412000Y-55914635D01*
X123412000Y-58010370D01*
X111071506Y-58010370D01*
X111071506Y-54667774D01*
X111071513Y-54666452D01*
X111073781Y-54453659D01*
X111074246Y-54444172D01*
X111111403Y-54019539D01*
X111112809Y-54008864D01*
X111186723Y-53589716D01*
X111189063Y-53579166D01*
X111299216Y-53168095D01*
X111302464Y-53157792D01*
X111448038Y-52757849D01*
X111452159Y-52747900D01*
X111632039Y-52362159D01*
X111637005Y-52352618D01*
X111849820Y-51984024D01*
X111855624Y-51974916D01*
X112099729Y-51626305D01*
X112106301Y-51617737D01*
X112379891Y-51291693D01*
X112387176Y-51283744D01*
X112688119Y-50982807D01*
X112696072Y-50975519D01*
X113022097Y-50701955D01*
X113030663Y-50695382D01*
X113379302Y-50451267D01*
X113388408Y-50445466D01*
X113756999Y-50232664D01*
X113766555Y-50227691D01*
X114152285Y-50047825D01*
X114162240Y-50043700D01*
X114562176Y-49898138D01*
X114572485Y-49894888D01*
X114983578Y-49784737D01*
X114994116Y-49782401D01*
X115413238Y-49708500D01*
X115423949Y-49707089D01*
X115848591Y-49669939D01*
X115858022Y-49669475D01*
X116070864Y-49667155D01*
X116072216Y-49667148D01*
X208070649Y-49667148D01*
X208072364Y-49667160D01*
G37*
%TD.AperFunction*%
%TD*%
M02*
