%TF.GenerationSoftware,KiCad,Pcbnew,8.0.0*%
%TF.CreationDate,2024-03-25T03:27:08+00:00*%
%TF.ProjectId,main_PCB_v2,6d61696e-5f50-4434-925f-76322e6b6963,rev?*%
%TF.SameCoordinates,Original*%
%TF.FileFunction,Copper,L3,Inr*%
%TF.FilePolarity,Positive*%
%FSLAX46Y46*%
G04 Gerber Fmt 4.6, Leading zero omitted, Abs format (unit mm)*
G04 Created by KiCad (PCBNEW 8.0.0) date 2024-03-25 03:27:08*
%MOMM*%
%LPD*%
G01*
G04 APERTURE LIST*
G04 Aperture macros list*
%AMRoundRect*
0 Rectangle with rounded corners*
0 $1 Rounding radius*
0 $2 $3 $4 $5 $6 $7 $8 $9 X,Y pos of 4 corners*
0 Add a 4 corners polygon primitive as box body*
4,1,4,$2,$3,$4,$5,$6,$7,$8,$9,$2,$3,0*
0 Add four circle primitives for the rounded corners*
1,1,$1+$1,$2,$3*
1,1,$1+$1,$4,$5*
1,1,$1+$1,$6,$7*
1,1,$1+$1,$8,$9*
0 Add four rect primitives between the rounded corners*
20,1,$1+$1,$2,$3,$4,$5,0*
20,1,$1+$1,$4,$5,$6,$7,0*
20,1,$1+$1,$6,$7,$8,$9,0*
20,1,$1+$1,$8,$9,$2,$3,0*%
%AMRotRect*
0 Rectangle, with rotation*
0 The origin of the aperture is its center*
0 $1 length*
0 $2 width*
0 $3 Rotation angle, in degrees counterclockwise*
0 Add horizontal line*
21,1,$1,$2,0,0,$3*%
G04 Aperture macros list end*
%TA.AperFunction,ComponentPad*%
%ADD10RotRect,3.800000X3.800000X315.000000*%
%TD*%
%TA.AperFunction,ComponentPad*%
%ADD11C,4.000000*%
%TD*%
%TA.AperFunction,ComponentPad*%
%ADD12RotRect,3.800000X3.800000X30.000000*%
%TD*%
%TA.AperFunction,ComponentPad*%
%ADD13C,0.800000*%
%TD*%
%TA.AperFunction,ComponentPad*%
%ADD14C,6.400000*%
%TD*%
%TA.AperFunction,ComponentPad*%
%ADD15RotRect,3.800000X3.800000X210.000000*%
%TD*%
%TA.AperFunction,ComponentPad*%
%ADD16C,2.000000*%
%TD*%
%TA.AperFunction,ComponentPad*%
%ADD17R,2.000000X2.000000*%
%TD*%
%TA.AperFunction,ComponentPad*%
%ADD18RoundRect,0.250000X-0.219615X-0.819615X0.819615X-0.219615X0.219615X0.819615X-0.819615X0.219615X0*%
%TD*%
%TA.AperFunction,ComponentPad*%
%ADD19C,1.700000*%
%TD*%
%TA.AperFunction,ComponentPad*%
%ADD20R,1.700000X1.700000*%
%TD*%
%TA.AperFunction,ComponentPad*%
%ADD21O,1.700000X1.700000*%
%TD*%
%TA.AperFunction,ComponentPad*%
%ADD22RoundRect,1.500000X-1.500000X1.500000X-1.500000X-1.500000X1.500000X-1.500000X1.500000X1.500000X0*%
%TD*%
%TA.AperFunction,ComponentPad*%
%ADD23C,6.000000*%
%TD*%
%TA.AperFunction,ViaPad*%
%ADD24C,0.450000*%
%TD*%
%TA.AperFunction,Conductor*%
%ADD25C,1.000000*%
%TD*%
%TA.AperFunction,Conductor*%
%ADD26C,0.250000*%
%TD*%
G04 APERTURE END LIST*
D10*
%TO.N,GND*%
%TO.C,J106*%
X171161165Y-118767767D03*
D11*
%TO.N,VBAT*%
X174696699Y-122303301D03*
%TD*%
D12*
%TO.N,GNDPWR*%
%TO.C,J103*%
X130759937Y-91425000D03*
D11*
%TO.N,/COIL*%
X135090064Y-88925000D03*
%TD*%
D12*
%TO.N,GNDPWR*%
%TO.C,J107*%
X138259937Y-104415382D03*
D11*
%TO.N,/HV*%
X142590064Y-101915382D03*
%TD*%
D10*
%TO.N,GND*%
%TO.C,J102*%
X187071068Y-102857864D03*
D11*
%TO.N,VBAT*%
X190606602Y-106393398D03*
%TD*%
D13*
%TO.N,GND*%
%TO.C,OL102*%
X113675000Y-54670000D03*
X113675000Y-83475000D03*
X114377944Y-52972944D03*
X114377944Y-56367056D03*
X114377944Y-81777944D03*
X114377944Y-85172056D03*
X116075000Y-52270000D03*
X116075000Y-57070000D03*
X116075000Y-81075000D03*
X116075000Y-85875000D03*
X117772056Y-52972944D03*
X117772056Y-56367056D03*
X117772056Y-81777944D03*
X117772056Y-85172056D03*
X118475000Y-54670000D03*
X118475000Y-83475000D03*
X175132682Y-84154465D03*
X175835626Y-82457409D03*
X175835626Y-85851521D03*
X177532682Y-81754465D03*
X177532682Y-86554465D03*
X179229738Y-82457409D03*
X179229738Y-85851521D03*
X179932682Y-84154465D03*
X193126738Y-54667148D03*
X193130000Y-83850000D03*
X193829682Y-52970092D03*
X193829682Y-56364204D03*
X193832944Y-82152944D03*
X193832944Y-85547056D03*
X195526738Y-52267148D03*
X195526738Y-57067148D03*
X195530000Y-81450000D03*
X195530000Y-86250000D03*
X197223794Y-52970092D03*
X197223794Y-56364204D03*
X197227056Y-82152944D03*
X197227056Y-85547056D03*
X197926738Y-54667148D03*
X197930000Y-83850000D03*
D14*
X116075000Y-54670000D03*
X116075000Y-83475000D03*
X195526738Y-54667148D03*
X177532682Y-84154465D03*
X195530000Y-83850000D03*
%TD*%
D15*
%TO.N,GND*%
%TO.C,J108*%
X147090064Y-109925000D03*
D11*
%TO.N,+12V*%
X142759937Y-112425000D03*
%TD*%
D16*
%TO.N,/CAP*%
%TO.C,K101*%
X124912500Y-76962500D03*
X132412500Y-76962500D03*
%TO.N,/HV*%
X124912500Y-71962500D03*
X132412500Y-71962500D03*
%TO.N,/COIL*%
X124912500Y-81962500D03*
X132412500Y-81962500D03*
D17*
%TO.N,+5V*%
X124912500Y-56962500D03*
D16*
%TO.N,/TRIG_D*%
X132412500Y-56962500D03*
%TD*%
D18*
%TO.N,GND*%
%TO.C,J111*%
X151530296Y-127300296D03*
D19*
%TO.N,/OUT1*%
X153730001Y-126030296D03*
%TO.N,/ENC_A*%
X152800296Y-129500001D03*
%TO.N,/ENC_B*%
X155000000Y-128230001D03*
%TO.N,/OUT2*%
X154070296Y-131699705D03*
%TO.N,+5V*%
X156270001Y-130429705D03*
%TD*%
D12*
%TO.N,GNDPWR*%
%TO.C,J110*%
X134509937Y-97920191D03*
D11*
%TO.N,/CAP*%
X138840064Y-95420191D03*
%TD*%
D10*
%TO.N,GND*%
%TO.C,J105*%
X176464466Y-113464466D03*
D11*
%TO.N,VBAT*%
X180000000Y-117000000D03*
%TD*%
D20*
%TO.N,unconnected-(J109-Pin_1-Pad1)*%
%TO.C,J109*%
X150000000Y-94540000D03*
D21*
%TO.N,unconnected-(J109-Pin_2-Pad2)*%
X150000000Y-92000000D03*
%TO.N,unconnected-(J109-Pin_3-Pad3)*%
X152540000Y-94540000D03*
%TO.N,unconnected-(J109-Pin_4-Pad4)*%
X152540000Y-92000000D03*
%TO.N,unconnected-(J109-Pin_5-Pad5)*%
X155080000Y-94540000D03*
%TO.N,unconnected-(J109-Pin_6-Pad6)*%
X155080000Y-92000000D03*
%TO.N,+3.3V*%
X157620000Y-94540000D03*
%TO.N,GND*%
X157620000Y-92000000D03*
%TO.N,unconnected-(J109-Pin_9-Pad9)*%
X160160000Y-94540000D03*
%TO.N,unconnected-(J109-Pin_10-Pad10)*%
X160160000Y-92000000D03*
%TO.N,unconnected-(J109-Pin_11-Pad11)*%
X162700000Y-94540000D03*
%TO.N,unconnected-(J109-Pin_12-Pad12)*%
X162700000Y-92000000D03*
%TO.N,GND*%
X165240000Y-94540000D03*
X165240000Y-92000000D03*
%TO.N,unconnected-(J109-Pin_15-Pad15)*%
X167780000Y-94540000D03*
%TO.N,unconnected-(J109-Pin_16-Pad16)*%
X167780000Y-92000000D03*
%TO.N,unconnected-(J109-Pin_17-Pad17)*%
X170320000Y-94540000D03*
%TO.N,unconnected-(J109-Pin_18-Pad18)*%
X170320000Y-92000000D03*
%TO.N,GND*%
X172860000Y-94540000D03*
X172860000Y-92000000D03*
%TO.N,/MOTOR_PH*%
X175400000Y-94540000D03*
%TO.N,unconnected-(J109-Pin_22-Pad22)*%
X175400000Y-92000000D03*
%TO.N,/MOTOR_EN*%
X177940000Y-94540000D03*
%TO.N,unconnected-(J109-Pin_24-Pad24)*%
X177940000Y-92000000D03*
%TO.N,GND*%
X180480000Y-94540000D03*
X180480000Y-92000000D03*
%TO.N,/ENC_A_3V3*%
X183020000Y-94540000D03*
%TO.N,/~{SLEEP}*%
X183020000Y-92000000D03*
%TO.N,/ENC_B_3V3*%
X185560000Y-94540000D03*
%TO.N,/TRIG*%
X185560000Y-92000000D03*
%TO.N,GND*%
X188100000Y-94540000D03*
X188100000Y-92000000D03*
%TO.N,+3.3V*%
X190640000Y-94540000D03*
X190640000Y-92000000D03*
%TO.N,+12V*%
X193180000Y-94540000D03*
%TO.N,+5V*%
X193180000Y-92000000D03*
%TO.N,GND*%
X195720000Y-94540000D03*
X195720000Y-92000000D03*
%TO.N,/ICOP*%
X198260000Y-94540000D03*
%TO.N,VSYS*%
X198260000Y-92000000D03*
%TD*%
D10*
%TO.N,GND*%
%TO.C,J104*%
X181767767Y-108161165D03*
D11*
%TO.N,VBAT*%
X185303301Y-111696699D03*
%TD*%
D22*
%TO.N,GND*%
%TO.C,J101*%
X205750000Y-68400000D03*
D23*
%TO.N,VBAT*%
X205750000Y-75600000D03*
%TD*%
D24*
%TO.N,GND*%
X122500000Y-54500000D03*
X122500000Y-64500000D03*
X180000000Y-112000000D03*
X207500000Y-54500000D03*
X167500000Y-57000000D03*
X170000000Y-74500000D03*
X112500000Y-57000000D03*
X174000000Y-116000000D03*
X168000000Y-120000000D03*
X182500000Y-77000000D03*
X162500000Y-109500000D03*
X170000000Y-57000000D03*
X182500000Y-57000000D03*
X150000000Y-79500000D03*
X170000000Y-52000000D03*
X160000000Y-89500000D03*
X185000000Y-57000000D03*
X185250000Y-64750000D03*
X197500000Y-59500000D03*
X175000000Y-117000000D03*
X180000000Y-102000000D03*
X132500000Y-67000000D03*
X210000000Y-64500000D03*
X170000000Y-97000000D03*
X117500000Y-59500000D03*
X150000000Y-52000000D03*
X185250000Y-69750000D03*
X172500000Y-79500000D03*
X172500000Y-54500000D03*
X163750000Y-68000000D03*
X163500000Y-73500000D03*
X186000000Y-69750000D03*
X112500000Y-82000000D03*
X132500000Y-52000000D03*
X200000000Y-62000000D03*
X112500000Y-62000000D03*
X156000000Y-74500000D03*
X115000000Y-59500000D03*
X182750000Y-101000000D03*
X160000000Y-52000000D03*
X172500000Y-97000000D03*
X137500000Y-64500000D03*
X135000000Y-72000000D03*
X180000000Y-72000000D03*
X153500000Y-72500000D03*
X175000000Y-52000000D03*
X172500000Y-77000000D03*
X165000000Y-82000000D03*
X157500000Y-89500000D03*
X122500000Y-69500000D03*
X150000000Y-72500000D03*
X117500000Y-67000000D03*
X120000000Y-59500000D03*
X170000000Y-108000000D03*
X162500000Y-79500000D03*
X175000000Y-54500000D03*
X205000000Y-57000000D03*
X167500000Y-54500000D03*
X185000000Y-87000000D03*
X140000000Y-69500000D03*
X185000000Y-59500000D03*
X162500000Y-102000000D03*
X172000000Y-68000000D03*
X180000000Y-77000000D03*
X165000000Y-69000000D03*
X117500000Y-69500000D03*
X147500000Y-52000000D03*
X200000000Y-69500000D03*
X165000000Y-102000000D03*
X172500000Y-57000000D03*
X150000000Y-57000000D03*
X185000000Y-107000000D03*
X149000000Y-73500000D03*
X122500000Y-52000000D03*
X161100000Y-122100000D03*
X172500000Y-82000000D03*
X165000000Y-104500000D03*
X159000000Y-74500000D03*
X122500000Y-57000000D03*
X172500000Y-52000000D03*
X135000000Y-67000000D03*
X137500000Y-69500000D03*
X132500000Y-59500000D03*
X210000000Y-54500000D03*
X115000000Y-74500000D03*
X148000000Y-72500000D03*
X117500000Y-74500000D03*
X130000000Y-64500000D03*
X112500000Y-67000000D03*
X162500000Y-54500000D03*
X182500000Y-52000000D03*
X148000000Y-74500000D03*
X164500000Y-72500000D03*
X122500000Y-79500000D03*
X190000000Y-57000000D03*
X127500000Y-54500000D03*
X185000000Y-52000000D03*
X182500000Y-72000000D03*
X120000000Y-74500000D03*
X165000000Y-99500000D03*
X162500000Y-82000000D03*
X165000000Y-52000000D03*
X152500000Y-79500000D03*
X165000000Y-107000000D03*
X137500000Y-67000000D03*
X180000000Y-52000000D03*
X165000000Y-57000000D03*
X135000000Y-69500000D03*
X187500000Y-82000000D03*
X187500000Y-87000000D03*
X166000000Y-112000000D03*
X122500000Y-74500000D03*
X205000000Y-64500000D03*
X122500000Y-87000000D03*
X205000000Y-59500000D03*
X150000000Y-68000000D03*
X140000000Y-54500000D03*
X192500000Y-57000000D03*
X151500000Y-72500000D03*
X162500000Y-89500000D03*
X120000000Y-62000000D03*
X175000000Y-57000000D03*
X150000000Y-54500000D03*
X175000000Y-79500000D03*
X120000000Y-52000000D03*
X142500000Y-52000000D03*
X115000000Y-67000000D03*
X167500000Y-52000000D03*
X125000000Y-59500000D03*
X157500000Y-87000000D03*
X182500000Y-74500000D03*
X190000000Y-54500000D03*
X115000000Y-72000000D03*
X162500000Y-72500000D03*
X112500000Y-72000000D03*
X182500000Y-79500000D03*
X202500000Y-54500000D03*
X125000000Y-64500000D03*
X159500000Y-101500000D03*
X115000000Y-79500000D03*
X172500000Y-102000000D03*
X137500000Y-74500000D03*
X167500000Y-104500000D03*
X165000000Y-84500000D03*
X137500000Y-72000000D03*
X192500000Y-52000000D03*
X177500000Y-54500000D03*
X130000000Y-57000000D03*
X207500000Y-57000000D03*
X200000000Y-64500000D03*
X130000000Y-54500000D03*
X155000000Y-89500000D03*
X207500000Y-64500000D03*
X187500000Y-52000000D03*
X197500000Y-69500000D03*
X205000000Y-52000000D03*
X155000000Y-57000000D03*
X185000000Y-54500000D03*
X183000000Y-105000000D03*
X160000000Y-82000000D03*
X127500000Y-62000000D03*
X157500000Y-52000000D03*
X152500000Y-87000000D03*
X167000000Y-74500000D03*
X177500000Y-59500000D03*
X170000000Y-122000000D03*
X160000000Y-99500000D03*
X160000000Y-109500000D03*
X200000000Y-67000000D03*
X180000000Y-57000000D03*
X165000000Y-54500000D03*
X169000000Y-121000000D03*
X170000000Y-72500000D03*
X173000000Y-115000000D03*
X167500000Y-97000000D03*
X120000000Y-69500000D03*
X202500000Y-59500000D03*
X195000000Y-62000000D03*
X150000000Y-82000000D03*
X150000000Y-84500000D03*
X145000000Y-52000000D03*
X161000000Y-72500000D03*
X189000000Y-101000000D03*
X145000000Y-74500000D03*
X132500000Y-64500000D03*
X130000000Y-67000000D03*
X207500000Y-62000000D03*
X120000000Y-54500000D03*
X161000000Y-68000000D03*
X202500000Y-52000000D03*
X186000000Y-64750000D03*
X177500000Y-97000000D03*
X135000000Y-52000000D03*
X197500000Y-67000000D03*
X210000000Y-62000000D03*
X170000000Y-102000000D03*
X162500000Y-104500000D03*
X159000000Y-72500000D03*
X152500000Y-57000000D03*
X117500000Y-64500000D03*
X205000000Y-62000000D03*
X174750000Y-68000000D03*
X125000000Y-52000000D03*
X150000000Y-89500000D03*
X112500000Y-79500000D03*
X182500000Y-84500000D03*
X120000000Y-57000000D03*
X190000000Y-102000000D03*
X167500000Y-102000000D03*
X160000000Y-54500000D03*
X135000000Y-64500000D03*
X127500000Y-69500000D03*
X140000000Y-57000000D03*
X200000000Y-59500000D03*
X122500000Y-72000000D03*
X125000000Y-69500000D03*
X155000000Y-84500000D03*
X177500000Y-77000000D03*
X112500000Y-77000000D03*
X177500000Y-57000000D03*
X162500000Y-84500000D03*
X162900000Y-123900000D03*
X187500000Y-59500000D03*
X168000000Y-110000000D03*
X125000000Y-62000000D03*
X144000000Y-70000000D03*
X200000000Y-54500000D03*
X187500000Y-54500000D03*
X155000000Y-54500000D03*
X112500000Y-59500000D03*
X184000000Y-106000000D03*
X142500000Y-54500000D03*
X157500000Y-97000000D03*
X185000000Y-79500000D03*
X195000000Y-97000000D03*
X115000000Y-77000000D03*
X187500000Y-84500000D03*
X177500000Y-74500000D03*
X157500000Y-82000000D03*
X137500000Y-54500000D03*
X207500000Y-52000000D03*
X117500000Y-62000000D03*
X172500000Y-99500000D03*
X180000000Y-54500000D03*
X180000000Y-97000000D03*
X197500000Y-64500000D03*
X127500000Y-64500000D03*
X177500000Y-52000000D03*
X152500000Y-89500000D03*
X125000000Y-67000000D03*
X202500000Y-57000000D03*
X171000000Y-73500000D03*
X122500000Y-77000000D03*
X152500000Y-73500000D03*
X210000000Y-52000000D03*
X115000000Y-62000000D03*
X122500000Y-82000000D03*
X170000000Y-54500000D03*
X115000000Y-64500000D03*
X160000000Y-73500000D03*
X122500000Y-62000000D03*
X117500000Y-79500000D03*
X152500000Y-82000000D03*
X170000000Y-82000000D03*
X145000000Y-87000000D03*
X165000000Y-113000000D03*
X167000000Y-111000000D03*
X180000000Y-74500000D03*
X140000000Y-72000000D03*
X210000000Y-67000000D03*
X165000000Y-87000000D03*
X181500000Y-65000000D03*
X157500000Y-57000000D03*
X140000000Y-64500000D03*
X120000000Y-77000000D03*
X198000000Y-88000000D03*
X122500000Y-59500000D03*
X135000000Y-54500000D03*
X120000000Y-84500000D03*
X187500000Y-57000000D03*
X190000000Y-52000000D03*
X145000000Y-57000000D03*
X153500000Y-70500000D03*
X200000000Y-57000000D03*
X177500000Y-72000000D03*
X172000000Y-72500000D03*
X155000000Y-52000000D03*
X170000000Y-99500000D03*
X144000000Y-73000000D03*
X140000000Y-67000000D03*
X185000000Y-82000000D03*
X155750000Y-79500000D03*
X192500000Y-99500000D03*
X160000000Y-57000000D03*
X150000000Y-87000000D03*
X157500000Y-54500000D03*
X155000000Y-82000000D03*
X207500000Y-59500000D03*
X127500000Y-67000000D03*
X152500000Y-54500000D03*
X180000000Y-79500000D03*
X182500000Y-54500000D03*
X162500000Y-99500000D03*
X154000000Y-69000000D03*
X160000000Y-87000000D03*
X179000000Y-111000000D03*
X152500000Y-52000000D03*
X183000000Y-64000000D03*
X127500000Y-57000000D03*
X165000000Y-97000000D03*
X210000000Y-69500000D03*
X192500000Y-62000000D03*
X120000000Y-87000000D03*
X122500000Y-84500000D03*
X205000000Y-54500000D03*
X202500000Y-64500000D03*
X182500000Y-59500000D03*
X152500000Y-84500000D03*
X159500000Y-106500000D03*
X180000000Y-59500000D03*
X140500000Y-73500000D03*
X112500000Y-74500000D03*
X147500000Y-54500000D03*
X210000000Y-59500000D03*
X175000000Y-74500000D03*
X162500000Y-107000000D03*
X182500000Y-82000000D03*
X117500000Y-72000000D03*
X120000000Y-82000000D03*
X112500000Y-69500000D03*
X175000000Y-72000000D03*
X182500000Y-87000000D03*
X137500000Y-59500000D03*
X169000000Y-109000000D03*
X197500000Y-62000000D03*
X162500000Y-52000000D03*
X145000000Y-84500000D03*
X190500000Y-67750000D03*
X122500000Y-67000000D03*
X120000000Y-72000000D03*
X120000000Y-64500000D03*
X185000000Y-84500000D03*
X167500000Y-82000000D03*
X150000000Y-77000000D03*
X140000000Y-52000000D03*
X164500000Y-70500000D03*
X162500000Y-57000000D03*
X159500000Y-104000000D03*
X120000000Y-79500000D03*
X117500000Y-77000000D03*
X175000000Y-77000000D03*
X135000000Y-59500000D03*
X177500000Y-79500000D03*
X130000000Y-59500000D03*
X210000000Y-57000000D03*
X170000000Y-87000000D03*
X155000000Y-87000000D03*
X147500000Y-57000000D03*
X130000000Y-69500000D03*
X120000000Y-67000000D03*
X132500000Y-69500000D03*
X200000000Y-52000000D03*
X166750000Y-79500000D03*
X178000000Y-110000000D03*
X137500000Y-52000000D03*
X115000000Y-69500000D03*
X145000000Y-54500000D03*
X142500000Y-57000000D03*
X192500000Y-59500000D03*
X167500000Y-87000000D03*
X195000000Y-59500000D03*
X167500000Y-99500000D03*
X202500000Y-62000000D03*
X190000000Y-59500000D03*
X162500000Y-97000000D03*
X152710000Y-68040000D03*
X112500000Y-64500000D03*
%TO.N,+5V*%
X159500000Y-103000000D03*
%TO.N,+3.3V*%
X163700000Y-121300000D03*
%TO.N,VBAT*%
X205000000Y-84500000D03*
X200000000Y-97000000D03*
X202500000Y-87000000D03*
X200000000Y-94500000D03*
X202500000Y-89500000D03*
X192500000Y-102000000D03*
X197500000Y-99500000D03*
X195000000Y-102000000D03*
X185000000Y-114500000D03*
X200000000Y-84500000D03*
X197500000Y-97000000D03*
X195000000Y-104500000D03*
X200000000Y-79500000D03*
X182500000Y-114500000D03*
X180000000Y-119500000D03*
X195000000Y-99500000D03*
X202500000Y-97000000D03*
X192500000Y-104500000D03*
X202500000Y-92000000D03*
X200000000Y-87000000D03*
X205000000Y-92000000D03*
X182500000Y-117000000D03*
X207500000Y-89500000D03*
X200000000Y-82000000D03*
X202500000Y-74500000D03*
X182500000Y-112000000D03*
X202500000Y-84500000D03*
X205000000Y-87000000D03*
X175000000Y-119500000D03*
X205000000Y-82000000D03*
X205000000Y-79500000D03*
X200000000Y-99500000D03*
X207500000Y-84500000D03*
X202500000Y-79500000D03*
X207500000Y-87000000D03*
X187500000Y-109500000D03*
X210000000Y-82000000D03*
X202500000Y-77000000D03*
X205000000Y-94500000D03*
X210000000Y-74500000D03*
X197500000Y-102000000D03*
X202500000Y-82000000D03*
X207500000Y-82000000D03*
X200000000Y-89500000D03*
X200000000Y-74500000D03*
X177500000Y-122000000D03*
X177500000Y-119500000D03*
X187500000Y-107000000D03*
X200000000Y-77000000D03*
X210000000Y-77000000D03*
X207500000Y-79500000D03*
X177500000Y-117000000D03*
X210000000Y-79500000D03*
X205000000Y-89500000D03*
X202500000Y-94500000D03*
X190000000Y-109500000D03*
%TO.N,/ICOP*%
X182470000Y-69500000D03*
X186250000Y-71750000D03*
%TO.N,/MOTOR_EN*%
X166000000Y-114500000D03*
%TO.N,/MOTOR_PH*%
X165000000Y-114500000D03*
%TO.N,/TRIG*%
X138500000Y-60250000D03*
%TO.N,/~{SLEEP}*%
X164000000Y-120400000D03*
%TO.N,/ENC_A*%
X178000000Y-102000000D03*
%TO.N,/ENC_B*%
X181000000Y-102000000D03*
%TO.N,/PGOOD_5V*%
X170500000Y-66000000D03*
X166000000Y-79500000D03*
%TO.N,/PGOOD_3V3*%
X159500000Y-66000000D03*
X155000000Y-79500000D03*
%TD*%
D25*
%TO.N,+5V*%
X193180000Y-89430000D02*
X189500000Y-85750000D01*
X153500000Y-133750000D02*
X155500000Y-133750000D01*
X147250000Y-99750000D02*
X153250000Y-105750000D01*
X189500000Y-64000000D02*
X187500000Y-62000000D01*
X156270001Y-132979999D02*
X156270001Y-130429705D01*
X144250000Y-62000000D02*
X142500000Y-63750000D01*
X153250000Y-121000000D02*
X149250000Y-125000000D01*
X155500000Y-133750000D02*
X156270001Y-132979999D01*
X187500000Y-62000000D02*
X129950000Y-62000000D01*
X153250000Y-105750000D02*
X153250000Y-121000000D01*
X193180000Y-92000000D02*
X193180000Y-89430000D01*
X129950000Y-62000000D02*
X124912500Y-56962500D01*
D26*
X159500000Y-103000000D02*
X156000000Y-103000000D01*
D25*
X147250000Y-83000000D02*
X147250000Y-99750000D01*
X149250000Y-129500000D02*
X153500000Y-133750000D01*
X142500000Y-78250000D02*
X147250000Y-83000000D01*
X149250000Y-125000000D02*
X149250000Y-129500000D01*
X189500000Y-85750000D02*
X189500000Y-64000000D01*
D26*
X156000000Y-103000000D02*
X153250000Y-105750000D01*
D25*
X142500000Y-63750000D02*
X142500000Y-78250000D01*
D26*
%TO.N,+3.3V*%
X165000000Y-121300000D02*
X190640000Y-95660000D01*
X163700000Y-121300000D02*
X165000000Y-121300000D01*
X190640000Y-95660000D02*
X190640000Y-94540000D01*
%TO.N,/ICOP*%
X186250000Y-71750000D02*
X184000000Y-69500000D01*
X184000000Y-69500000D02*
X182470000Y-69500000D01*
%TO.N,/MOTOR_EN*%
X166000000Y-114500000D02*
X166000000Y-114300000D01*
X166000000Y-114300000D02*
X176800000Y-103500000D01*
X176800000Y-103500000D02*
X176800000Y-95680000D01*
X176800000Y-95680000D02*
X177940000Y-94540000D01*
%TO.N,/MOTOR_PH*%
X175400000Y-103700000D02*
X175400000Y-94540000D01*
X165000000Y-114500000D02*
X165000000Y-114100000D01*
X165000000Y-114100000D02*
X175400000Y-103700000D01*
%TO.N,/TRIG*%
X138500000Y-60250000D02*
X188500000Y-60250000D01*
X191250000Y-63000000D02*
X191250000Y-85500000D01*
X186810000Y-93250000D02*
X185560000Y-92000000D01*
X194500000Y-88750000D02*
X194500000Y-92750000D01*
X194000000Y-93250000D02*
X186810000Y-93250000D01*
X188500000Y-60250000D02*
X191250000Y-63000000D01*
X191250000Y-85500000D02*
X194500000Y-88750000D01*
X194500000Y-92750000D02*
X194000000Y-93250000D01*
%TO.N,/~{SLEEP}*%
X181605000Y-103145000D02*
X181605000Y-93415000D01*
X164350000Y-120400000D02*
X181605000Y-103145000D01*
X164000000Y-120400000D02*
X164350000Y-120400000D01*
X181605000Y-93415000D02*
X183020000Y-92000000D01*
%TO.N,/ENC_A*%
X152800296Y-128838714D02*
X152800296Y-129500000D01*
X178000000Y-102000000D02*
X178000000Y-103639010D01*
X178000000Y-103639010D02*
X152800296Y-128838714D01*
%TO.N,/ENC_B*%
X181000000Y-102000000D02*
X181000000Y-102230001D01*
X159715001Y-123515001D02*
X155000000Y-128230001D01*
X162200000Y-121030001D02*
X162200000Y-122500000D01*
X161184999Y-123515001D02*
X159715001Y-123515001D01*
X162200000Y-122500000D02*
X161184999Y-123515001D01*
X181000000Y-102230001D02*
X162200000Y-121030001D01*
%TO.N,/PGOOD_5V*%
X166000000Y-70500000D02*
X166000000Y-79500000D01*
X170500000Y-66000000D02*
X166000000Y-70500000D01*
%TO.N,/PGOOD_3V3*%
X155000000Y-70500000D02*
X159500000Y-66000000D01*
X155000000Y-79500000D02*
X155000000Y-70500000D01*
%TD*%
%TA.AperFunction,Conductor*%
%TO.N,GND*%
G36*
X208072364Y-49667160D02*
G01*
X208075171Y-49667198D01*
X208233136Y-49669385D01*
X208245223Y-49670145D01*
X208565624Y-49706115D01*
X208579277Y-49708426D01*
X208579605Y-49708501D01*
X208892811Y-49779713D01*
X208906125Y-49783534D01*
X209057938Y-49836440D01*
X209209756Y-49889348D01*
X209222553Y-49894627D01*
X209512489Y-50033645D01*
X209524610Y-50040314D01*
X209779804Y-50199905D01*
X209797234Y-50210805D01*
X209808550Y-50218794D01*
X210060449Y-50418622D01*
X210070803Y-50427823D01*
X210298846Y-50654502D01*
X210308109Y-50664801D01*
X210509442Y-50915494D01*
X210517499Y-50926762D01*
X210689615Y-51198348D01*
X210696365Y-51210444D01*
X210837120Y-51499539D01*
X210842478Y-51512312D01*
X210950106Y-51815289D01*
X210954007Y-51828580D01*
X211027174Y-52141682D01*
X211029568Y-52155326D01*
X211067457Y-52475496D01*
X211068291Y-52487603D01*
X211071481Y-52647951D01*
X211071506Y-52650417D01*
X211071506Y-71820500D01*
X211051821Y-71887539D01*
X210999017Y-71933294D01*
X210947506Y-71944500D01*
X199874000Y-71944500D01*
X199873991Y-71944500D01*
X199873990Y-71944501D01*
X199809064Y-71951481D01*
X199809052Y-71951483D01*
X199757546Y-71962688D01*
X199719345Y-71973644D01*
X199719341Y-71973646D01*
X199622431Y-72030323D01*
X199622428Y-72030325D01*
X199569623Y-72076081D01*
X199569612Y-72076091D01*
X199527451Y-72120807D01*
X199527445Y-72120816D01*
X199476560Y-72220890D01*
X199456877Y-72287921D01*
X199444500Y-72374002D01*
X199444500Y-91492523D01*
X199424815Y-91559562D01*
X199372011Y-91605317D01*
X199302853Y-91615261D01*
X199239297Y-91586236D01*
X199211142Y-91550977D01*
X199179897Y-91492523D01*
X199137685Y-91413550D01*
X199085702Y-91350209D01*
X199006410Y-91253589D01*
X198888677Y-91156969D01*
X198846450Y-91122315D01*
X198663954Y-91024768D01*
X198465934Y-90964700D01*
X198465932Y-90964699D01*
X198465934Y-90964699D01*
X198260000Y-90944417D01*
X198054067Y-90964699D01*
X197856043Y-91024769D01*
X197745898Y-91083643D01*
X197673550Y-91122315D01*
X197673548Y-91122316D01*
X197673547Y-91122317D01*
X197513589Y-91253589D01*
X197382317Y-91413547D01*
X197284769Y-91596043D01*
X197224699Y-91794067D01*
X197204417Y-92000000D01*
X197224699Y-92205932D01*
X197254734Y-92304944D01*
X197284768Y-92403954D01*
X197382315Y-92586450D01*
X197382317Y-92586452D01*
X197513589Y-92746410D01*
X197570180Y-92792852D01*
X197673550Y-92877685D01*
X197856046Y-92975232D01*
X198054066Y-93035300D01*
X198054065Y-93035300D01*
X198072529Y-93037118D01*
X198260000Y-93055583D01*
X198465934Y-93035300D01*
X198663954Y-92975232D01*
X198846450Y-92877685D01*
X199006410Y-92746410D01*
X199137685Y-92586450D01*
X199211142Y-92449021D01*
X199260105Y-92399178D01*
X199328242Y-92383718D01*
X199393922Y-92407550D01*
X199436291Y-92463108D01*
X199444500Y-92507476D01*
X199444500Y-94032523D01*
X199424815Y-94099562D01*
X199372011Y-94145317D01*
X199302853Y-94155261D01*
X199239297Y-94126236D01*
X199211142Y-94090977D01*
X199179897Y-94032523D01*
X199137685Y-93953550D01*
X199061620Y-93860864D01*
X199006410Y-93793589D01*
X198856121Y-93670252D01*
X198846450Y-93662315D01*
X198663954Y-93564768D01*
X198465934Y-93504700D01*
X198465932Y-93504699D01*
X198465934Y-93504699D01*
X198260000Y-93484417D01*
X198054067Y-93504699D01*
X197856043Y-93564769D01*
X197775178Y-93607993D01*
X197673550Y-93662315D01*
X197673548Y-93662316D01*
X197673547Y-93662317D01*
X197513589Y-93793589D01*
X197382317Y-93953547D01*
X197284769Y-94136043D01*
X197224699Y-94334067D01*
X197204417Y-94540000D01*
X197224699Y-94745932D01*
X197254734Y-94844944D01*
X197284768Y-94943954D01*
X197382315Y-95126450D01*
X197382317Y-95126452D01*
X197513589Y-95286410D01*
X197673548Y-95417684D01*
X197673550Y-95417685D01*
X197836765Y-95504926D01*
X197886609Y-95553887D01*
X197902069Y-95622025D01*
X197878237Y-95687705D01*
X197865992Y-95701964D01*
X171118881Y-122449074D01*
X171080585Y-122495820D01*
X171053555Y-122536426D01*
X171053544Y-122536444D01*
X171035931Y-122566484D01*
X171003995Y-122674114D01*
X171003994Y-122674118D01*
X170996766Y-122743603D01*
X170996765Y-122743627D01*
X170996589Y-122805092D01*
X170996590Y-122805098D01*
X171027911Y-122912904D01*
X171059403Y-122975279D01*
X171059406Y-122975284D01*
X171109238Y-123046530D01*
X171109240Y-123046532D01*
X171264069Y-123211683D01*
X174723644Y-126901896D01*
X174723649Y-126901900D01*
X174726392Y-126904223D01*
X174764836Y-126962566D01*
X174765635Y-127032431D01*
X174733947Y-127086539D01*
X164805569Y-137014917D01*
X164804144Y-137016320D01*
X164665269Y-137150787D01*
X164654161Y-137160338D01*
X164345930Y-137395173D01*
X164332045Y-137404347D01*
X163995149Y-137595791D01*
X163982019Y-137602259D01*
X163804067Y-137677211D01*
X163801872Y-137678111D01*
X162955041Y-138015866D01*
X162952665Y-138016785D01*
X161243533Y-138658096D01*
X161240799Y-138659086D01*
X159517196Y-139260106D01*
X159514439Y-139261031D01*
X157777081Y-139821512D01*
X157774649Y-139822269D01*
X156901404Y-140084304D01*
X156899279Y-140084921D01*
X156732617Y-140131707D01*
X156719862Y-140134572D01*
X156377390Y-140192726D01*
X156362552Y-140194335D01*
X156016495Y-140210879D01*
X156001572Y-140210693D01*
X155656035Y-140185541D01*
X155641242Y-140183563D01*
X155301240Y-140117082D01*
X155286792Y-140113342D01*
X154957235Y-140006494D01*
X154943340Y-140001045D01*
X154629009Y-139855378D01*
X154615870Y-139848300D01*
X154321302Y-139665915D01*
X154309109Y-139657308D01*
X154038605Y-139440869D01*
X154027534Y-139430861D01*
X153784987Y-139183485D01*
X153775199Y-139172219D01*
X153563554Y-138896748D01*
X153556146Y-138885974D01*
X153465747Y-138738405D01*
X153464612Y-138736516D01*
X153418469Y-138658096D01*
X149018971Y-131181084D01*
X142131448Y-119475640D01*
X143319500Y-119475640D01*
X143343993Y-119661678D01*
X143350992Y-119714834D01*
X143413436Y-119947878D01*
X143413439Y-119947888D01*
X143505762Y-120170775D01*
X143505767Y-120170786D01*
X143626392Y-120379713D01*
X143626403Y-120379729D01*
X143773268Y-120571128D01*
X143773274Y-120571135D01*
X143943864Y-120741725D01*
X143943871Y-120741731D01*
X143954898Y-120750192D01*
X144135279Y-120888603D01*
X144135286Y-120888607D01*
X144344213Y-121009232D01*
X144344218Y-121009234D01*
X144344221Y-121009236D01*
X144567121Y-121101564D01*
X144800166Y-121164008D01*
X145039367Y-121195500D01*
X145039374Y-121195500D01*
X145280626Y-121195500D01*
X145280633Y-121195500D01*
X145519834Y-121164008D01*
X145752879Y-121101564D01*
X145975779Y-121009236D01*
X146184721Y-120888603D01*
X146376130Y-120741730D01*
X146546730Y-120571130D01*
X146693603Y-120379721D01*
X146814236Y-120170779D01*
X146906564Y-119947879D01*
X146969008Y-119714834D01*
X147000500Y-119475633D01*
X147000500Y-119234367D01*
X146969008Y-118995166D01*
X146906564Y-118762121D01*
X146814236Y-118539221D01*
X146814234Y-118539218D01*
X146814232Y-118539213D01*
X146693607Y-118330286D01*
X146693603Y-118330279D01*
X146546730Y-118138870D01*
X146546725Y-118138864D01*
X146376135Y-117968274D01*
X146376128Y-117968268D01*
X146184729Y-117821403D01*
X146184727Y-117821401D01*
X146184721Y-117821397D01*
X146184716Y-117821394D01*
X146184713Y-117821392D01*
X145975786Y-117700767D01*
X145975775Y-117700762D01*
X145752888Y-117608439D01*
X145752881Y-117608437D01*
X145752879Y-117608436D01*
X145519834Y-117545992D01*
X145466678Y-117538993D01*
X145280640Y-117514500D01*
X145280633Y-117514500D01*
X145039367Y-117514500D01*
X145039359Y-117514500D01*
X144826743Y-117542492D01*
X144800166Y-117545992D01*
X144567121Y-117608436D01*
X144567111Y-117608439D01*
X144344224Y-117700762D01*
X144344213Y-117700767D01*
X144135286Y-117821392D01*
X144135270Y-117821403D01*
X143943871Y-117968268D01*
X143943864Y-117968274D01*
X143773274Y-118138864D01*
X143773268Y-118138871D01*
X143626403Y-118330270D01*
X143626392Y-118330286D01*
X143505767Y-118539213D01*
X143505762Y-118539224D01*
X143413439Y-118762111D01*
X143413436Y-118762121D01*
X143350992Y-118995167D01*
X143319500Y-119234359D01*
X143319500Y-119475640D01*
X142131448Y-119475640D01*
X137982828Y-112425000D01*
X140554715Y-112425000D01*
X140573581Y-112712837D01*
X140573583Y-112712849D01*
X140629854Y-112995745D01*
X140629858Y-112995760D01*
X140722579Y-113268905D01*
X140850156Y-113527606D01*
X140850160Y-113527613D01*
X141010415Y-113767452D01*
X141200609Y-113984327D01*
X141417484Y-114174521D01*
X141617482Y-114308155D01*
X141657326Y-114334778D01*
X141916035Y-114462359D01*
X142189184Y-114555081D01*
X142472098Y-114611356D01*
X142759937Y-114630222D01*
X143047776Y-114611356D01*
X143330690Y-114555081D01*
X143603839Y-114462359D01*
X143862548Y-114334778D01*
X144102391Y-114174520D01*
X144319264Y-113984327D01*
X144509457Y-113767454D01*
X144669715Y-113527611D01*
X144797296Y-113268902D01*
X144890018Y-112995753D01*
X144946293Y-112712839D01*
X144965159Y-112425000D01*
X144946293Y-112137161D01*
X144890018Y-111854247D01*
X144797296Y-111581098D01*
X144669715Y-111322389D01*
X144509457Y-111082546D01*
X144319264Y-110865672D01*
X144102389Y-110675478D01*
X143862550Y-110515223D01*
X143862543Y-110515219D01*
X143603842Y-110387642D01*
X143330697Y-110294921D01*
X143330691Y-110294919D01*
X143330690Y-110294919D01*
X143330688Y-110294918D01*
X143330682Y-110294917D01*
X143047786Y-110238646D01*
X143047776Y-110238644D01*
X142759937Y-110219778D01*
X142472098Y-110238644D01*
X142472092Y-110238645D01*
X142472087Y-110238646D01*
X142189191Y-110294917D01*
X142189176Y-110294921D01*
X141916031Y-110387642D01*
X141657330Y-110515219D01*
X141657323Y-110515223D01*
X141417484Y-110675478D01*
X141200609Y-110865672D01*
X141010415Y-111082547D01*
X140850160Y-111322386D01*
X140850156Y-111322393D01*
X140722579Y-111581094D01*
X140629858Y-111854239D01*
X140629854Y-111854254D01*
X140573583Y-112137150D01*
X140573581Y-112137162D01*
X140554715Y-112425000D01*
X137982828Y-112425000D01*
X136600904Y-110076400D01*
X148000000Y-103500000D01*
X148000000Y-101490656D01*
X149642465Y-103133121D01*
X152513181Y-106003837D01*
X152546666Y-106065160D01*
X152549500Y-106091518D01*
X152549500Y-120658480D01*
X152529815Y-120725519D01*
X152513181Y-120746161D01*
X148705888Y-124553453D01*
X148705887Y-124553454D01*
X148629222Y-124668192D01*
X148576421Y-124795667D01*
X148576418Y-124795677D01*
X148549500Y-124931004D01*
X148549500Y-124931007D01*
X148549500Y-129431006D01*
X148549500Y-129568994D01*
X148549500Y-129568996D01*
X148549499Y-129568996D01*
X148576418Y-129704322D01*
X148576421Y-129704332D01*
X148629222Y-129831807D01*
X148705887Y-129946545D01*
X153053454Y-134294112D01*
X153168192Y-134370777D01*
X153295667Y-134423578D01*
X153295672Y-134423580D01*
X153295676Y-134423580D01*
X153295677Y-134423581D01*
X153431003Y-134450500D01*
X153431006Y-134450500D01*
X155568996Y-134450500D01*
X155660040Y-134432389D01*
X155704328Y-134423580D01*
X155768069Y-134397177D01*
X155831807Y-134370777D01*
X155831808Y-134370776D01*
X155831811Y-134370775D01*
X155946543Y-134294114D01*
X156814115Y-133426542D01*
X156890776Y-133311810D01*
X156943581Y-133184327D01*
X156952390Y-133140039D01*
X156970501Y-133048995D01*
X156970501Y-131272439D01*
X156990186Y-131205400D01*
X157012276Y-131180586D01*
X157012108Y-131180418D01*
X157015004Y-131177521D01*
X157015839Y-131176584D01*
X157016411Y-131176115D01*
X157147686Y-131016155D01*
X157245233Y-130833659D01*
X157305301Y-130635639D01*
X157325584Y-130429705D01*
X157305301Y-130223771D01*
X157245233Y-130025751D01*
X157147686Y-129843255D01*
X157095703Y-129779914D01*
X157016411Y-129683294D01*
X156856453Y-129552022D01*
X156856454Y-129552022D01*
X156856451Y-129552020D01*
X156673955Y-129454473D01*
X156475935Y-129394405D01*
X156475933Y-129394404D01*
X156475935Y-129394404D01*
X156270001Y-129374122D01*
X156064068Y-129394404D01*
X155866044Y-129454474D01*
X155780871Y-129500001D01*
X155683551Y-129552020D01*
X155683549Y-129552021D01*
X155683548Y-129552022D01*
X155523590Y-129683294D01*
X155392318Y-129843252D01*
X155294770Y-130025748D01*
X155234700Y-130223772D01*
X155214418Y-130429705D01*
X155234700Y-130635637D01*
X155243427Y-130664405D01*
X155294769Y-130833659D01*
X155392316Y-131016155D01*
X155523591Y-131176115D01*
X155524160Y-131176582D01*
X155524380Y-131176904D01*
X155527894Y-131180418D01*
X155527227Y-131181084D01*
X155563497Y-131234323D01*
X155569501Y-131272439D01*
X155569501Y-132638480D01*
X155549816Y-132705519D01*
X155533182Y-132726161D01*
X155246162Y-133013181D01*
X155184839Y-133046666D01*
X155158481Y-133049500D01*
X153841519Y-133049500D01*
X153774480Y-133029815D01*
X153753838Y-133013181D01*
X153656451Y-132915794D01*
X153622966Y-132854471D01*
X153627950Y-132784779D01*
X153669822Y-132728846D01*
X153735286Y-132704429D01*
X153780126Y-132709452D01*
X153864359Y-132735004D01*
X153864361Y-132735005D01*
X153882825Y-132736823D01*
X154070296Y-132755288D01*
X154276230Y-132735005D01*
X154474250Y-132674937D01*
X154656746Y-132577390D01*
X154816706Y-132446115D01*
X154947981Y-132286155D01*
X155045528Y-132103659D01*
X155105596Y-131905639D01*
X155125879Y-131699705D01*
X155105596Y-131493771D01*
X155045528Y-131295751D01*
X154947981Y-131113255D01*
X154868294Y-131016155D01*
X154816706Y-130953294D01*
X154698973Y-130856674D01*
X154656746Y-130822020D01*
X154474250Y-130724473D01*
X154276230Y-130664405D01*
X154276228Y-130664404D01*
X154276230Y-130664404D01*
X154070296Y-130644122D01*
X153864363Y-130664404D01*
X153666339Y-130724474D01*
X153556194Y-130783348D01*
X153483846Y-130822020D01*
X153483844Y-130822021D01*
X153483843Y-130822022D01*
X153323885Y-130953294D01*
X153192613Y-131113252D01*
X153095065Y-131295748D01*
X153034995Y-131493772D01*
X153014713Y-131699705D01*
X153034995Y-131905637D01*
X153060548Y-131989873D01*
X153061171Y-132059740D01*
X153023923Y-132118853D01*
X152960628Y-132148444D01*
X152891384Y-132139117D01*
X152854206Y-132113549D01*
X149986819Y-129246162D01*
X149953334Y-129184839D01*
X149950500Y-129158481D01*
X149950500Y-125341519D01*
X149970185Y-125274480D01*
X149986819Y-125253838D01*
X153794112Y-121446545D01*
X153794114Y-121446543D01*
X153870775Y-121331811D01*
X153923580Y-121204329D01*
X153944021Y-121101564D01*
X153950500Y-121068993D01*
X153950500Y-105681007D01*
X153935029Y-105603231D01*
X153941256Y-105533642D01*
X153968963Y-105491362D01*
X156098508Y-103361819D01*
X156159831Y-103328334D01*
X156186189Y-103325500D01*
X159174795Y-103325500D01*
X159241834Y-103345185D01*
X159246555Y-103348412D01*
X159246777Y-103348525D01*
X159246780Y-103348528D01*
X159366874Y-103409719D01*
X159366876Y-103409719D01*
X159366878Y-103409720D01*
X159499998Y-103430804D01*
X159500000Y-103430804D01*
X159500002Y-103430804D01*
X159633121Y-103409720D01*
X159633121Y-103409719D01*
X159633126Y-103409719D01*
X159753220Y-103348528D01*
X159848528Y-103253220D01*
X159909719Y-103133126D01*
X159926710Y-103025849D01*
X159930804Y-103000002D01*
X159930804Y-102999997D01*
X159909720Y-102866878D01*
X159909719Y-102866876D01*
X159909719Y-102866874D01*
X159848528Y-102746780D01*
X159848526Y-102746778D01*
X159848523Y-102746774D01*
X159753225Y-102651476D01*
X159753221Y-102651473D01*
X159753220Y-102651472D01*
X159633126Y-102590281D01*
X159633124Y-102590280D01*
X159633121Y-102590279D01*
X159500002Y-102569196D01*
X159499998Y-102569196D01*
X159366878Y-102590279D01*
X159366874Y-102590280D01*
X159366874Y-102590281D01*
X159246780Y-102651472D01*
X159246778Y-102651473D01*
X159238085Y-102655903D01*
X159237368Y-102654497D01*
X159181872Y-102674298D01*
X159174795Y-102674500D01*
X155957147Y-102674500D01*
X155874362Y-102696682D01*
X155874355Y-102696685D01*
X155800144Y-102739530D01*
X155800136Y-102739536D01*
X153602845Y-104936827D01*
X153541522Y-104970312D01*
X153471830Y-104965328D01*
X153427483Y-104936827D01*
X148000000Y-99509343D01*
X148000000Y-95409752D01*
X148949500Y-95409752D01*
X148961131Y-95468229D01*
X148961132Y-95468230D01*
X149005447Y-95534552D01*
X149071769Y-95578867D01*
X149071770Y-95578868D01*
X149130247Y-95590499D01*
X149130250Y-95590500D01*
X149130252Y-95590500D01*
X150869750Y-95590500D01*
X150869751Y-95590499D01*
X150884568Y-95587552D01*
X150928229Y-95578868D01*
X150928229Y-95578867D01*
X150928231Y-95578867D01*
X150994552Y-95534552D01*
X151038867Y-95468231D01*
X151038867Y-95468229D01*
X151038868Y-95468229D01*
X151050499Y-95409752D01*
X151050500Y-95409750D01*
X151050500Y-94540000D01*
X151484417Y-94540000D01*
X151504699Y-94745932D01*
X151534734Y-94844944D01*
X151564768Y-94943954D01*
X151662315Y-95126450D01*
X151662317Y-95126452D01*
X151793589Y-95286410D01*
X151890209Y-95365702D01*
X151953550Y-95417685D01*
X152136046Y-95515232D01*
X152334066Y-95575300D01*
X152334065Y-95575300D01*
X152352529Y-95577118D01*
X152540000Y-95595583D01*
X152745934Y-95575300D01*
X152943954Y-95515232D01*
X153126450Y-95417685D01*
X153286410Y-95286410D01*
X153417685Y-95126450D01*
X153515232Y-94943954D01*
X153575300Y-94745934D01*
X153595583Y-94540000D01*
X154024417Y-94540000D01*
X154044699Y-94745932D01*
X154074734Y-94844944D01*
X154104768Y-94943954D01*
X154202315Y-95126450D01*
X154202317Y-95126452D01*
X154333589Y-95286410D01*
X154430209Y-95365702D01*
X154493550Y-95417685D01*
X154676046Y-95515232D01*
X154874066Y-95575300D01*
X154874065Y-95575300D01*
X154892529Y-95577118D01*
X155080000Y-95595583D01*
X155285934Y-95575300D01*
X155483954Y-95515232D01*
X155666450Y-95417685D01*
X155826410Y-95286410D01*
X155957685Y-95126450D01*
X156055232Y-94943954D01*
X156115300Y-94745934D01*
X156135583Y-94540000D01*
X156564417Y-94540000D01*
X156584699Y-94745932D01*
X156614734Y-94844944D01*
X156644768Y-94943954D01*
X156742315Y-95126450D01*
X156742317Y-95126452D01*
X156873589Y-95286410D01*
X156970209Y-95365702D01*
X157033550Y-95417685D01*
X157216046Y-95515232D01*
X157414066Y-95575300D01*
X157414065Y-95575300D01*
X157432529Y-95577118D01*
X157620000Y-95595583D01*
X157825934Y-95575300D01*
X158023954Y-95515232D01*
X158206450Y-95417685D01*
X158366410Y-95286410D01*
X158497685Y-95126450D01*
X158595232Y-94943954D01*
X158655300Y-94745934D01*
X158675583Y-94540000D01*
X159104417Y-94540000D01*
X159124699Y-94745932D01*
X159154734Y-94844944D01*
X159184768Y-94943954D01*
X159282315Y-95126450D01*
X159282317Y-95126452D01*
X159413589Y-95286410D01*
X159510209Y-95365702D01*
X159573550Y-95417685D01*
X159756046Y-95515232D01*
X159954066Y-95575300D01*
X159954065Y-95575300D01*
X159972529Y-95577118D01*
X160160000Y-95595583D01*
X160365934Y-95575300D01*
X160563954Y-95515232D01*
X160746450Y-95417685D01*
X160906410Y-95286410D01*
X161037685Y-95126450D01*
X161135232Y-94943954D01*
X161195300Y-94745934D01*
X161215583Y-94540000D01*
X161644417Y-94540000D01*
X161664699Y-94745932D01*
X161694734Y-94844944D01*
X161724768Y-94943954D01*
X161822315Y-95126450D01*
X161822317Y-95126452D01*
X161953589Y-95286410D01*
X162050209Y-95365702D01*
X162113550Y-95417685D01*
X162296046Y-95515232D01*
X162494066Y-95575300D01*
X162494065Y-95575300D01*
X162512529Y-95577118D01*
X162700000Y-95595583D01*
X162905934Y-95575300D01*
X163103954Y-95515232D01*
X163286450Y-95417685D01*
X163446410Y-95286410D01*
X163577685Y-95126450D01*
X163675232Y-94943954D01*
X163735300Y-94745934D01*
X163755583Y-94540000D01*
X166724417Y-94540000D01*
X166744699Y-94745932D01*
X166774734Y-94844944D01*
X166804768Y-94943954D01*
X166902315Y-95126450D01*
X166902317Y-95126452D01*
X167033589Y-95286410D01*
X167130209Y-95365702D01*
X167193550Y-95417685D01*
X167376046Y-95515232D01*
X167574066Y-95575300D01*
X167574065Y-95575300D01*
X167592529Y-95577118D01*
X167780000Y-95595583D01*
X167985934Y-95575300D01*
X168183954Y-95515232D01*
X168366450Y-95417685D01*
X168526410Y-95286410D01*
X168657685Y-95126450D01*
X168755232Y-94943954D01*
X168815300Y-94745934D01*
X168835583Y-94540000D01*
X169264417Y-94540000D01*
X169284699Y-94745932D01*
X169314734Y-94844944D01*
X169344768Y-94943954D01*
X169442315Y-95126450D01*
X169442317Y-95126452D01*
X169573589Y-95286410D01*
X169670209Y-95365702D01*
X169733550Y-95417685D01*
X169916046Y-95515232D01*
X170114066Y-95575300D01*
X170114065Y-95575300D01*
X170132529Y-95577118D01*
X170320000Y-95595583D01*
X170525934Y-95575300D01*
X170723954Y-95515232D01*
X170906450Y-95417685D01*
X171066410Y-95286410D01*
X171197685Y-95126450D01*
X171295232Y-94943954D01*
X171355300Y-94745934D01*
X171375583Y-94540000D01*
X171355300Y-94334066D01*
X171295232Y-94136046D01*
X171197685Y-93953550D01*
X171121620Y-93860864D01*
X171066410Y-93793589D01*
X170916121Y-93670252D01*
X170906450Y-93662315D01*
X170723954Y-93564768D01*
X170525934Y-93504700D01*
X170525932Y-93504699D01*
X170525934Y-93504699D01*
X170320000Y-93484417D01*
X170114067Y-93504699D01*
X169916043Y-93564769D01*
X169835178Y-93607993D01*
X169733550Y-93662315D01*
X169733548Y-93662316D01*
X169733547Y-93662317D01*
X169573589Y-93793589D01*
X169442317Y-93953547D01*
X169344769Y-94136043D01*
X169284699Y-94334067D01*
X169264417Y-94540000D01*
X168835583Y-94540000D01*
X168815300Y-94334066D01*
X168755232Y-94136046D01*
X168657685Y-93953550D01*
X168581620Y-93860864D01*
X168526410Y-93793589D01*
X168376121Y-93670252D01*
X168366450Y-93662315D01*
X168183954Y-93564768D01*
X167985934Y-93504700D01*
X167985932Y-93504699D01*
X167985934Y-93504699D01*
X167780000Y-93484417D01*
X167574067Y-93504699D01*
X167376043Y-93564769D01*
X167295178Y-93607993D01*
X167193550Y-93662315D01*
X167193548Y-93662316D01*
X167193547Y-93662317D01*
X167033589Y-93793589D01*
X166902317Y-93953547D01*
X166804769Y-94136043D01*
X166744699Y-94334067D01*
X166724417Y-94540000D01*
X163755583Y-94540000D01*
X163735300Y-94334066D01*
X163675232Y-94136046D01*
X163577685Y-93953550D01*
X163501620Y-93860864D01*
X163446410Y-93793589D01*
X163296121Y-93670252D01*
X163286450Y-93662315D01*
X163103954Y-93564768D01*
X162905934Y-93504700D01*
X162905932Y-93504699D01*
X162905934Y-93504699D01*
X162700000Y-93484417D01*
X162494067Y-93504699D01*
X162296043Y-93564769D01*
X162215178Y-93607993D01*
X162113550Y-93662315D01*
X162113548Y-93662316D01*
X162113547Y-93662317D01*
X161953589Y-93793589D01*
X161822317Y-93953547D01*
X161724769Y-94136043D01*
X161664699Y-94334067D01*
X161644417Y-94540000D01*
X161215583Y-94540000D01*
X161195300Y-94334066D01*
X161135232Y-94136046D01*
X161037685Y-93953550D01*
X160961620Y-93860864D01*
X160906410Y-93793589D01*
X160756121Y-93670252D01*
X160746450Y-93662315D01*
X160563954Y-93564768D01*
X160365934Y-93504700D01*
X160365932Y-93504699D01*
X160365934Y-93504699D01*
X160160000Y-93484417D01*
X159954067Y-93504699D01*
X159756043Y-93564769D01*
X159675178Y-93607993D01*
X159573550Y-93662315D01*
X159573548Y-93662316D01*
X159573547Y-93662317D01*
X159413589Y-93793589D01*
X159282317Y-93953547D01*
X159184769Y-94136043D01*
X159124699Y-94334067D01*
X159104417Y-94540000D01*
X158675583Y-94540000D01*
X158655300Y-94334066D01*
X158595232Y-94136046D01*
X158497685Y-93953550D01*
X158421620Y-93860864D01*
X158366410Y-93793589D01*
X158216121Y-93670252D01*
X158206450Y-93662315D01*
X158023954Y-93564768D01*
X157825934Y-93504700D01*
X157825932Y-93504699D01*
X157825934Y-93504699D01*
X157620000Y-93484417D01*
X157414067Y-93504699D01*
X157216043Y-93564769D01*
X157135178Y-93607993D01*
X157033550Y-93662315D01*
X157033548Y-93662316D01*
X157033547Y-93662317D01*
X156873589Y-93793589D01*
X156742317Y-93953547D01*
X156644769Y-94136043D01*
X156584699Y-94334067D01*
X156564417Y-94540000D01*
X156135583Y-94540000D01*
X156115300Y-94334066D01*
X156055232Y-94136046D01*
X155957685Y-93953550D01*
X155881620Y-93860864D01*
X155826410Y-93793589D01*
X155676121Y-93670252D01*
X155666450Y-93662315D01*
X155483954Y-93564768D01*
X155285934Y-93504700D01*
X155285932Y-93504699D01*
X155285934Y-93504699D01*
X155080000Y-93484417D01*
X154874067Y-93504699D01*
X154676043Y-93564769D01*
X154595178Y-93607993D01*
X154493550Y-93662315D01*
X154493548Y-93662316D01*
X154493547Y-93662317D01*
X154333589Y-93793589D01*
X154202317Y-93953547D01*
X154104769Y-94136043D01*
X154044699Y-94334067D01*
X154024417Y-94540000D01*
X153595583Y-94540000D01*
X153575300Y-94334066D01*
X153515232Y-94136046D01*
X153417685Y-93953550D01*
X153341620Y-93860864D01*
X153286410Y-93793589D01*
X153136121Y-93670252D01*
X153126450Y-93662315D01*
X152943954Y-93564768D01*
X152745934Y-93504700D01*
X152745932Y-93504699D01*
X152745934Y-93504699D01*
X152540000Y-93484417D01*
X152334067Y-93504699D01*
X152136043Y-93564769D01*
X152055178Y-93607993D01*
X151953550Y-93662315D01*
X151953548Y-93662316D01*
X151953547Y-93662317D01*
X151793589Y-93793589D01*
X151662317Y-93953547D01*
X151564769Y-94136043D01*
X151504699Y-94334067D01*
X151484417Y-94540000D01*
X151050500Y-94540000D01*
X151050500Y-93670249D01*
X151050499Y-93670247D01*
X151038868Y-93611770D01*
X151038867Y-93611769D01*
X150994552Y-93545447D01*
X150928230Y-93501132D01*
X150928229Y-93501131D01*
X150869752Y-93489500D01*
X150869748Y-93489500D01*
X149130252Y-93489500D01*
X149130247Y-93489500D01*
X149071770Y-93501131D01*
X149071769Y-93501132D01*
X149005447Y-93545447D01*
X148961132Y-93611769D01*
X148961131Y-93611770D01*
X148949500Y-93670247D01*
X148949500Y-95409752D01*
X148000000Y-95409752D01*
X148000000Y-92000000D01*
X148944417Y-92000000D01*
X148964699Y-92205932D01*
X148994734Y-92304944D01*
X149024768Y-92403954D01*
X149122315Y-92586450D01*
X149122317Y-92586452D01*
X149253589Y-92746410D01*
X149310180Y-92792852D01*
X149413550Y-92877685D01*
X149596046Y-92975232D01*
X149794066Y-93035300D01*
X149794065Y-93035300D01*
X149812529Y-93037118D01*
X150000000Y-93055583D01*
X150205934Y-93035300D01*
X150403954Y-92975232D01*
X150586450Y-92877685D01*
X150746410Y-92746410D01*
X150877685Y-92586450D01*
X150975232Y-92403954D01*
X151035300Y-92205934D01*
X151055583Y-92000000D01*
X151484417Y-92000000D01*
X151504699Y-92205932D01*
X151534734Y-92304944D01*
X151564768Y-92403954D01*
X151662315Y-92586450D01*
X151662317Y-92586452D01*
X151793589Y-92746410D01*
X151850180Y-92792852D01*
X151953550Y-92877685D01*
X152136046Y-92975232D01*
X152334066Y-93035300D01*
X152334065Y-93035300D01*
X152352529Y-93037118D01*
X152540000Y-93055583D01*
X152745934Y-93035300D01*
X152943954Y-92975232D01*
X153126450Y-92877685D01*
X153286410Y-92746410D01*
X153417685Y-92586450D01*
X153515232Y-92403954D01*
X153575300Y-92205934D01*
X153595583Y-92000000D01*
X154024417Y-92000000D01*
X154044699Y-92205932D01*
X154074734Y-92304944D01*
X154104768Y-92403954D01*
X154202315Y-92586450D01*
X154202317Y-92586452D01*
X154333589Y-92746410D01*
X154390180Y-92792852D01*
X154493550Y-92877685D01*
X154676046Y-92975232D01*
X154874066Y-93035300D01*
X154874065Y-93035300D01*
X154892529Y-93037118D01*
X155080000Y-93055583D01*
X155285934Y-93035300D01*
X155483954Y-92975232D01*
X155666450Y-92877685D01*
X155826410Y-92746410D01*
X155957685Y-92586450D01*
X156055232Y-92403954D01*
X156115300Y-92205934D01*
X156135583Y-92000000D01*
X159104417Y-92000000D01*
X159124699Y-92205932D01*
X159154734Y-92304944D01*
X159184768Y-92403954D01*
X159282315Y-92586450D01*
X159282317Y-92586452D01*
X159413589Y-92746410D01*
X159470180Y-92792852D01*
X159573550Y-92877685D01*
X159756046Y-92975232D01*
X159954066Y-93035300D01*
X159954065Y-93035300D01*
X159972529Y-93037118D01*
X160160000Y-93055583D01*
X160365934Y-93035300D01*
X160563954Y-92975232D01*
X160746450Y-92877685D01*
X160906410Y-92746410D01*
X161037685Y-92586450D01*
X161135232Y-92403954D01*
X161195300Y-92205934D01*
X161215583Y-92000000D01*
X161644417Y-92000000D01*
X161664699Y-92205932D01*
X161694734Y-92304944D01*
X161724768Y-92403954D01*
X161822315Y-92586450D01*
X161822317Y-92586452D01*
X161953589Y-92746410D01*
X162010180Y-92792852D01*
X162113550Y-92877685D01*
X162296046Y-92975232D01*
X162494066Y-93035300D01*
X162494065Y-93035300D01*
X162512529Y-93037118D01*
X162700000Y-93055583D01*
X162905934Y-93035300D01*
X163103954Y-92975232D01*
X163286450Y-92877685D01*
X163446410Y-92746410D01*
X163577685Y-92586450D01*
X163675232Y-92403954D01*
X163735300Y-92205934D01*
X163755583Y-92000000D01*
X166724417Y-92000000D01*
X166744699Y-92205932D01*
X166774734Y-92304944D01*
X166804768Y-92403954D01*
X166902315Y-92586450D01*
X166902317Y-92586452D01*
X167033589Y-92746410D01*
X167090180Y-92792852D01*
X167193550Y-92877685D01*
X167376046Y-92975232D01*
X167574066Y-93035300D01*
X167574065Y-93035300D01*
X167592529Y-93037118D01*
X167780000Y-93055583D01*
X167985934Y-93035300D01*
X168183954Y-92975232D01*
X168366450Y-92877685D01*
X168526410Y-92746410D01*
X168657685Y-92586450D01*
X168755232Y-92403954D01*
X168815300Y-92205934D01*
X168835583Y-92000000D01*
X169264417Y-92000000D01*
X169284699Y-92205932D01*
X169314734Y-92304944D01*
X169344768Y-92403954D01*
X169442315Y-92586450D01*
X169442317Y-92586452D01*
X169573589Y-92746410D01*
X169630180Y-92792852D01*
X169733550Y-92877685D01*
X169916046Y-92975232D01*
X170114066Y-93035300D01*
X170114065Y-93035300D01*
X170132529Y-93037118D01*
X170320000Y-93055583D01*
X170525934Y-93035300D01*
X170723954Y-92975232D01*
X170906450Y-92877685D01*
X171066410Y-92746410D01*
X171197685Y-92586450D01*
X171295232Y-92403954D01*
X171355300Y-92205934D01*
X171375583Y-92000000D01*
X174344417Y-92000000D01*
X174364699Y-92205932D01*
X174394734Y-92304944D01*
X174424768Y-92403954D01*
X174522315Y-92586450D01*
X174522317Y-92586452D01*
X174653589Y-92746410D01*
X174710180Y-92792852D01*
X174813550Y-92877685D01*
X174996046Y-92975232D01*
X175194066Y-93035300D01*
X175194065Y-93035300D01*
X175212529Y-93037118D01*
X175400000Y-93055583D01*
X175605934Y-93035300D01*
X175803954Y-92975232D01*
X175986450Y-92877685D01*
X176146410Y-92746410D01*
X176277685Y-92586450D01*
X176375232Y-92403954D01*
X176435300Y-92205934D01*
X176455583Y-92000000D01*
X176884417Y-92000000D01*
X176904699Y-92205932D01*
X176934734Y-92304944D01*
X176964768Y-92403954D01*
X177062315Y-92586450D01*
X177062317Y-92586452D01*
X177193589Y-92746410D01*
X177250180Y-92792852D01*
X177353550Y-92877685D01*
X177536046Y-92975232D01*
X177734066Y-93035300D01*
X177734065Y-93035300D01*
X177752529Y-93037118D01*
X177940000Y-93055583D01*
X178145934Y-93035300D01*
X178343954Y-92975232D01*
X178526450Y-92877685D01*
X178686410Y-92746410D01*
X178817685Y-92586450D01*
X178915232Y-92403954D01*
X178975300Y-92205934D01*
X178995583Y-92000000D01*
X178975300Y-91794066D01*
X178915232Y-91596046D01*
X178817685Y-91413550D01*
X178765702Y-91350209D01*
X178686410Y-91253589D01*
X178568677Y-91156969D01*
X178526450Y-91122315D01*
X178343954Y-91024768D01*
X178145934Y-90964700D01*
X178145932Y-90964699D01*
X178145934Y-90964699D01*
X177940000Y-90944417D01*
X177734067Y-90964699D01*
X177536043Y-91024769D01*
X177425898Y-91083643D01*
X177353550Y-91122315D01*
X177353548Y-91122316D01*
X177353547Y-91122317D01*
X177193589Y-91253589D01*
X177062317Y-91413547D01*
X176964769Y-91596043D01*
X176904699Y-91794067D01*
X176884417Y-92000000D01*
X176455583Y-92000000D01*
X176435300Y-91794066D01*
X176375232Y-91596046D01*
X176277685Y-91413550D01*
X176225702Y-91350209D01*
X176146410Y-91253589D01*
X176028677Y-91156969D01*
X175986450Y-91122315D01*
X175803954Y-91024768D01*
X175605934Y-90964700D01*
X175605932Y-90964699D01*
X175605934Y-90964699D01*
X175400000Y-90944417D01*
X175194067Y-90964699D01*
X174996043Y-91024769D01*
X174885898Y-91083643D01*
X174813550Y-91122315D01*
X174813548Y-91122316D01*
X174813547Y-91122317D01*
X174653589Y-91253589D01*
X174522317Y-91413547D01*
X174424769Y-91596043D01*
X174364699Y-91794067D01*
X174344417Y-92000000D01*
X171375583Y-92000000D01*
X171355300Y-91794066D01*
X171295232Y-91596046D01*
X171197685Y-91413550D01*
X171145702Y-91350209D01*
X171066410Y-91253589D01*
X170948677Y-91156969D01*
X170906450Y-91122315D01*
X170723954Y-91024768D01*
X170525934Y-90964700D01*
X170525932Y-90964699D01*
X170525934Y-90964699D01*
X170320000Y-90944417D01*
X170114067Y-90964699D01*
X169916043Y-91024769D01*
X169805898Y-91083643D01*
X169733550Y-91122315D01*
X169733548Y-91122316D01*
X169733547Y-91122317D01*
X169573589Y-91253589D01*
X169442317Y-91413547D01*
X169344769Y-91596043D01*
X169284699Y-91794067D01*
X169264417Y-92000000D01*
X168835583Y-92000000D01*
X168815300Y-91794066D01*
X168755232Y-91596046D01*
X168657685Y-91413550D01*
X168605702Y-91350209D01*
X168526410Y-91253589D01*
X168408677Y-91156969D01*
X168366450Y-91122315D01*
X168183954Y-91024768D01*
X167985934Y-90964700D01*
X167985932Y-90964699D01*
X167985934Y-90964699D01*
X167780000Y-90944417D01*
X167574067Y-90964699D01*
X167376043Y-91024769D01*
X167265898Y-91083643D01*
X167193550Y-91122315D01*
X167193548Y-91122316D01*
X167193547Y-91122317D01*
X167033589Y-91253589D01*
X166902317Y-91413547D01*
X166804769Y-91596043D01*
X166744699Y-91794067D01*
X166724417Y-92000000D01*
X163755583Y-92000000D01*
X163735300Y-91794066D01*
X163675232Y-91596046D01*
X163577685Y-91413550D01*
X163525702Y-91350209D01*
X163446410Y-91253589D01*
X163328677Y-91156969D01*
X163286450Y-91122315D01*
X163103954Y-91024768D01*
X162905934Y-90964700D01*
X162905932Y-90964699D01*
X162905934Y-90964699D01*
X162700000Y-90944417D01*
X162494067Y-90964699D01*
X162296043Y-91024769D01*
X162185898Y-91083643D01*
X162113550Y-91122315D01*
X162113548Y-91122316D01*
X162113547Y-91122317D01*
X161953589Y-91253589D01*
X161822317Y-91413547D01*
X161724769Y-91596043D01*
X161664699Y-91794067D01*
X161644417Y-92000000D01*
X161215583Y-92000000D01*
X161195300Y-91794066D01*
X161135232Y-91596046D01*
X161037685Y-91413550D01*
X160985702Y-91350209D01*
X160906410Y-91253589D01*
X160788677Y-91156969D01*
X160746450Y-91122315D01*
X160563954Y-91024768D01*
X160365934Y-90964700D01*
X160365932Y-90964699D01*
X160365934Y-90964699D01*
X160160000Y-90944417D01*
X159954067Y-90964699D01*
X159756043Y-91024769D01*
X159645898Y-91083643D01*
X159573550Y-91122315D01*
X159573548Y-91122316D01*
X159573547Y-91122317D01*
X159413589Y-91253589D01*
X159282317Y-91413547D01*
X159184769Y-91596043D01*
X159124699Y-91794067D01*
X159104417Y-92000000D01*
X156135583Y-92000000D01*
X156115300Y-91794066D01*
X156055232Y-91596046D01*
X155957685Y-91413550D01*
X155905702Y-91350209D01*
X155826410Y-91253589D01*
X155708677Y-91156969D01*
X155666450Y-91122315D01*
X155483954Y-91024768D01*
X155285934Y-90964700D01*
X155285932Y-90964699D01*
X155285934Y-90964699D01*
X155080000Y-90944417D01*
X154874067Y-90964699D01*
X154676043Y-91024769D01*
X154565898Y-91083643D01*
X154493550Y-91122315D01*
X154493548Y-91122316D01*
X154493547Y-91122317D01*
X154333589Y-91253589D01*
X154202317Y-91413547D01*
X154104769Y-91596043D01*
X154044699Y-91794067D01*
X154024417Y-92000000D01*
X153595583Y-92000000D01*
X153575300Y-91794066D01*
X153515232Y-91596046D01*
X153417685Y-91413550D01*
X153365702Y-91350209D01*
X153286410Y-91253589D01*
X153168677Y-91156969D01*
X153126450Y-91122315D01*
X152943954Y-91024768D01*
X152745934Y-90964700D01*
X152745932Y-90964699D01*
X152745934Y-90964699D01*
X152540000Y-90944417D01*
X152334067Y-90964699D01*
X152136043Y-91024769D01*
X152025898Y-91083643D01*
X151953550Y-91122315D01*
X151953548Y-91122316D01*
X151953547Y-91122317D01*
X151793589Y-91253589D01*
X151662317Y-91413547D01*
X151564769Y-91596043D01*
X151504699Y-91794067D01*
X151484417Y-92000000D01*
X151055583Y-92000000D01*
X151035300Y-91794066D01*
X150975232Y-91596046D01*
X150877685Y-91413550D01*
X150825702Y-91350209D01*
X150746410Y-91253589D01*
X150628677Y-91156969D01*
X150586450Y-91122315D01*
X150403954Y-91024768D01*
X150205934Y-90964700D01*
X150205932Y-90964699D01*
X150205934Y-90964699D01*
X150000000Y-90944417D01*
X149794067Y-90964699D01*
X149596043Y-91024769D01*
X149485898Y-91083643D01*
X149413550Y-91122315D01*
X149413548Y-91122316D01*
X149413547Y-91122317D01*
X149253589Y-91253589D01*
X149122317Y-91413547D01*
X149024769Y-91596043D01*
X148964699Y-91794067D01*
X148944417Y-92000000D01*
X148000000Y-92000000D01*
X148000000Y-82000000D01*
X145500002Y-79500002D01*
X154569196Y-79500002D01*
X154590279Y-79633121D01*
X154590280Y-79633124D01*
X154590281Y-79633126D01*
X154651472Y-79753220D01*
X154651473Y-79753221D01*
X154651476Y-79753225D01*
X154746774Y-79848523D01*
X154746778Y-79848526D01*
X154746780Y-79848528D01*
X154866874Y-79909719D01*
X154866876Y-79909719D01*
X154866878Y-79909720D01*
X154999998Y-79930804D01*
X155000000Y-79930804D01*
X155000002Y-79930804D01*
X155133121Y-79909720D01*
X155133121Y-79909719D01*
X155133126Y-79909719D01*
X155253220Y-79848528D01*
X155348528Y-79753220D01*
X155409719Y-79633126D01*
X155430804Y-79500002D01*
X165569196Y-79500002D01*
X165590279Y-79633121D01*
X165590280Y-79633124D01*
X165590281Y-79633126D01*
X165651472Y-79753220D01*
X165651473Y-79753221D01*
X165651476Y-79753225D01*
X165746774Y-79848523D01*
X165746778Y-79848526D01*
X165746780Y-79848528D01*
X165866874Y-79909719D01*
X165866876Y-79909719D01*
X165866878Y-79909720D01*
X165999998Y-79930804D01*
X166000000Y-79930804D01*
X166000002Y-79930804D01*
X166133121Y-79909720D01*
X166133121Y-79909719D01*
X166133126Y-79909719D01*
X166253220Y-79848528D01*
X166348528Y-79753220D01*
X166409719Y-79633126D01*
X166430804Y-79500000D01*
X166409719Y-79366874D01*
X166348528Y-79246780D01*
X166348526Y-79246778D01*
X166344097Y-79238085D01*
X166345501Y-79237369D01*
X166325702Y-79181863D01*
X166325500Y-79174794D01*
X166325500Y-70686188D01*
X166345185Y-70619149D01*
X166361814Y-70598512D01*
X167460324Y-69500002D01*
X182039196Y-69500002D01*
X182060279Y-69633121D01*
X182060280Y-69633124D01*
X182060281Y-69633126D01*
X182121472Y-69753220D01*
X182121473Y-69753221D01*
X182121476Y-69753225D01*
X182216774Y-69848523D01*
X182216778Y-69848526D01*
X182216780Y-69848528D01*
X182336874Y-69909719D01*
X182336876Y-69909719D01*
X182336878Y-69909720D01*
X182469998Y-69930804D01*
X182470000Y-69930804D01*
X182470002Y-69930804D01*
X182603121Y-69909720D01*
X182603121Y-69909719D01*
X182603126Y-69909719D01*
X182723220Y-69848528D01*
X182723221Y-69848526D01*
X182731915Y-69844097D01*
X182732631Y-69845502D01*
X182788128Y-69825702D01*
X182795205Y-69825500D01*
X183813811Y-69825500D01*
X183880850Y-69845185D01*
X183901492Y-69861819D01*
X185796261Y-71756587D01*
X185829746Y-71817910D01*
X185831053Y-71824869D01*
X185840280Y-71883123D01*
X185840279Y-71883123D01*
X185859884Y-71921600D01*
X185901472Y-72003220D01*
X185901474Y-72003222D01*
X185901476Y-72003225D01*
X185996774Y-72098523D01*
X185996778Y-72098526D01*
X185996780Y-72098528D01*
X186116874Y-72159719D01*
X186116876Y-72159719D01*
X186116878Y-72159720D01*
X186249998Y-72180804D01*
X186250000Y-72180804D01*
X186250002Y-72180804D01*
X186383121Y-72159720D01*
X186383121Y-72159719D01*
X186383126Y-72159719D01*
X186503220Y-72098528D01*
X186598528Y-72003220D01*
X186659719Y-71883126D01*
X186670048Y-71817910D01*
X186680804Y-71750002D01*
X186680804Y-71749997D01*
X186659720Y-71616878D01*
X186659719Y-71616876D01*
X186659719Y-71616874D01*
X186598528Y-71496780D01*
X186598526Y-71496778D01*
X186598523Y-71496774D01*
X186503225Y-71401476D01*
X186503222Y-71401474D01*
X186503220Y-71401472D01*
X186383126Y-71340281D01*
X186383124Y-71340280D01*
X186383123Y-71340280D01*
X186324869Y-71331053D01*
X186261735Y-71301123D01*
X186256587Y-71296261D01*
X184199864Y-69239537D01*
X184199863Y-69239536D01*
X184199862Y-69239535D01*
X184162750Y-69218108D01*
X184125640Y-69196682D01*
X184084246Y-69185591D01*
X184042853Y-69174500D01*
X184042852Y-69174500D01*
X182795205Y-69174500D01*
X182728166Y-69154815D01*
X182723444Y-69151587D01*
X182723221Y-69151473D01*
X182723220Y-69151472D01*
X182603126Y-69090281D01*
X182603124Y-69090280D01*
X182603121Y-69090279D01*
X182470002Y-69069196D01*
X182469998Y-69069196D01*
X182336878Y-69090279D01*
X182216778Y-69151473D01*
X182216774Y-69151476D01*
X182121476Y-69246774D01*
X182121473Y-69246778D01*
X182060279Y-69366878D01*
X182039196Y-69499997D01*
X182039196Y-69500002D01*
X167460324Y-69500002D01*
X170506590Y-66453735D01*
X170567911Y-66420252D01*
X170574832Y-66418951D01*
X170633126Y-66409719D01*
X170753220Y-66348528D01*
X170848528Y-66253220D01*
X170909719Y-66133126D01*
X170930804Y-66000000D01*
X170929760Y-65993409D01*
X170909720Y-65866878D01*
X170909719Y-65866876D01*
X170909719Y-65866874D01*
X170848528Y-65746780D01*
X170848526Y-65746778D01*
X170848523Y-65746774D01*
X170753225Y-65651476D01*
X170753221Y-65651473D01*
X170753220Y-65651472D01*
X170633126Y-65590281D01*
X170633124Y-65590280D01*
X170633121Y-65590279D01*
X170500002Y-65569196D01*
X170499998Y-65569196D01*
X170366878Y-65590279D01*
X170246778Y-65651473D01*
X170246774Y-65651476D01*
X170151476Y-65746774D01*
X170151473Y-65746779D01*
X170090281Y-65866873D01*
X170081054Y-65925128D01*
X170051124Y-65988262D01*
X170046262Y-65993409D01*
X165739537Y-70300135D01*
X165739533Y-70300141D01*
X165696681Y-70374361D01*
X165696682Y-70374362D01*
X165674500Y-70457147D01*
X165674500Y-79174794D01*
X165654815Y-79241833D01*
X165651588Y-79246552D01*
X165590279Y-79366878D01*
X165569196Y-79499997D01*
X165569196Y-79500002D01*
X155430804Y-79500002D01*
X155430804Y-79500000D01*
X155409719Y-79366874D01*
X155348528Y-79246780D01*
X155348526Y-79246778D01*
X155344097Y-79238085D01*
X155345501Y-79237369D01*
X155325702Y-79181863D01*
X155325500Y-79174794D01*
X155325500Y-70686188D01*
X155345185Y-70619149D01*
X155361814Y-70598512D01*
X159506590Y-66453735D01*
X159567911Y-66420252D01*
X159574832Y-66418951D01*
X159633126Y-66409719D01*
X159753220Y-66348528D01*
X159848528Y-66253220D01*
X159909719Y-66133126D01*
X159930804Y-66000000D01*
X159929760Y-65993409D01*
X159909720Y-65866878D01*
X159909719Y-65866876D01*
X159909719Y-65866874D01*
X159848528Y-65746780D01*
X159848526Y-65746778D01*
X159848523Y-65746774D01*
X159753225Y-65651476D01*
X159753221Y-65651473D01*
X159753220Y-65651472D01*
X159633126Y-65590281D01*
X159633124Y-65590280D01*
X159633121Y-65590279D01*
X159500002Y-65569196D01*
X159499998Y-65569196D01*
X159366878Y-65590279D01*
X159246778Y-65651473D01*
X159246774Y-65651476D01*
X159151476Y-65746774D01*
X159151473Y-65746779D01*
X159090281Y-65866873D01*
X159081054Y-65925128D01*
X159051124Y-65988262D01*
X159046262Y-65993409D01*
X154739537Y-70300135D01*
X154739533Y-70300141D01*
X154696681Y-70374361D01*
X154696682Y-70374362D01*
X154674500Y-70457147D01*
X154674500Y-79174794D01*
X154654815Y-79241833D01*
X154651588Y-79246552D01*
X154590279Y-79366878D01*
X154569196Y-79499997D01*
X154569196Y-79500002D01*
X145500002Y-79500002D01*
X143200500Y-77200500D01*
X143200500Y-64091519D01*
X143220185Y-64024480D01*
X143236819Y-64003838D01*
X144503838Y-62736819D01*
X144565161Y-62703334D01*
X144591519Y-62700500D01*
X187158481Y-62700500D01*
X187225520Y-62720185D01*
X187246162Y-62736819D01*
X188763181Y-64253838D01*
X188796666Y-64315161D01*
X188799500Y-64341519D01*
X188799500Y-85681006D01*
X188799500Y-85818994D01*
X188799500Y-85818996D01*
X188799499Y-85818996D01*
X188826418Y-85954322D01*
X188826421Y-85954332D01*
X188879222Y-86081807D01*
X188955887Y-86196545D01*
X188955888Y-86196546D01*
X192443181Y-89683838D01*
X192476666Y-89745161D01*
X192479500Y-89771519D01*
X192479500Y-91157265D01*
X192459815Y-91224304D01*
X192437729Y-91249115D01*
X192437897Y-91249283D01*
X192435021Y-91252158D01*
X192434173Y-91253110D01*
X192433590Y-91253590D01*
X192433588Y-91253592D01*
X192302317Y-91413546D01*
X192204769Y-91596043D01*
X192144699Y-91794067D01*
X192124417Y-92000000D01*
X192144699Y-92205932D01*
X192174734Y-92304944D01*
X192204768Y-92403954D01*
X192302315Y-92586450D01*
X192302317Y-92586452D01*
X192413422Y-92721836D01*
X192440734Y-92786146D01*
X192428943Y-92855013D01*
X192381790Y-92906573D01*
X192317568Y-92924500D01*
X191502432Y-92924500D01*
X191435393Y-92904815D01*
X191389638Y-92852011D01*
X191379694Y-92782853D01*
X191406578Y-92721836D01*
X191446403Y-92673307D01*
X191517685Y-92586450D01*
X191615232Y-92403954D01*
X191675300Y-92205934D01*
X191695583Y-92000000D01*
X191675300Y-91794066D01*
X191615232Y-91596046D01*
X191517685Y-91413550D01*
X191465702Y-91350209D01*
X191386410Y-91253589D01*
X191268677Y-91156969D01*
X191226450Y-91122315D01*
X191043954Y-91024768D01*
X190845934Y-90964700D01*
X190845932Y-90964699D01*
X190845934Y-90964699D01*
X190640000Y-90944417D01*
X190434067Y-90964699D01*
X190236043Y-91024769D01*
X190125898Y-91083643D01*
X190053550Y-91122315D01*
X190053548Y-91122316D01*
X190053547Y-91122317D01*
X189893589Y-91253589D01*
X189762317Y-91413547D01*
X189664769Y-91596043D01*
X189604699Y-91794067D01*
X189584417Y-92000000D01*
X189604699Y-92205932D01*
X189634734Y-92304944D01*
X189664768Y-92403954D01*
X189762315Y-92586450D01*
X189762317Y-92586452D01*
X189873422Y-92721836D01*
X189900734Y-92786146D01*
X189888943Y-92855013D01*
X189841790Y-92906573D01*
X189777568Y-92924500D01*
X186996189Y-92924500D01*
X186929150Y-92904815D01*
X186908508Y-92888181D01*
X186561321Y-92540994D01*
X186527836Y-92479671D01*
X186532820Y-92409979D01*
X186534448Y-92405843D01*
X186535223Y-92403969D01*
X186535232Y-92403954D01*
X186595300Y-92205934D01*
X186615583Y-92000000D01*
X186595300Y-91794066D01*
X186535232Y-91596046D01*
X186437685Y-91413550D01*
X186385702Y-91350209D01*
X186306410Y-91253589D01*
X186188677Y-91156969D01*
X186146450Y-91122315D01*
X185963954Y-91024768D01*
X185765934Y-90964700D01*
X185765932Y-90964699D01*
X185765934Y-90964699D01*
X185560000Y-90944417D01*
X185354067Y-90964699D01*
X185156043Y-91024769D01*
X185045898Y-91083643D01*
X184973550Y-91122315D01*
X184973548Y-91122316D01*
X184973547Y-91122317D01*
X184813589Y-91253589D01*
X184682317Y-91413547D01*
X184584769Y-91596043D01*
X184524699Y-91794067D01*
X184504417Y-92000000D01*
X184524699Y-92205932D01*
X184554734Y-92304944D01*
X184584768Y-92403954D01*
X184682315Y-92586450D01*
X184682317Y-92586452D01*
X184813589Y-92746410D01*
X184870180Y-92792852D01*
X184973550Y-92877685D01*
X185156046Y-92975232D01*
X185354066Y-93035300D01*
X185354065Y-93035300D01*
X185372529Y-93037118D01*
X185560000Y-93055583D01*
X185765934Y-93035300D01*
X185963954Y-92975232D01*
X185963969Y-92975223D01*
X185965843Y-92974448D01*
X185966918Y-92974332D01*
X185969784Y-92973463D01*
X185969948Y-92974005D01*
X186035311Y-92966969D01*
X186097795Y-92998234D01*
X186100994Y-93001321D01*
X186610138Y-93510465D01*
X186684361Y-93553318D01*
X186767147Y-93575500D01*
X189812776Y-93575500D01*
X189879815Y-93595185D01*
X189925570Y-93647989D01*
X189935514Y-93717147D01*
X189906489Y-93780703D01*
X189897788Y-93789173D01*
X189897897Y-93789282D01*
X189893592Y-93793586D01*
X189762317Y-93953547D01*
X189664769Y-94136043D01*
X189604699Y-94334067D01*
X189584417Y-94540000D01*
X189604699Y-94745932D01*
X189634734Y-94844944D01*
X189664768Y-94943954D01*
X189762315Y-95126450D01*
X189762317Y-95126452D01*
X189893589Y-95286410D01*
X189990209Y-95365702D01*
X190053550Y-95417685D01*
X190146199Y-95467207D01*
X190196043Y-95516170D01*
X190211503Y-95584308D01*
X190187671Y-95649987D01*
X190175426Y-95664246D01*
X164901492Y-120938181D01*
X164840169Y-120971666D01*
X164813811Y-120974500D01*
X164323829Y-120974500D01*
X164256790Y-120954815D01*
X164211035Y-120902011D01*
X164201091Y-120832853D01*
X164230116Y-120769297D01*
X164250930Y-120750192D01*
X164252306Y-120749192D01*
X164318110Y-120725703D01*
X164325205Y-120725500D01*
X164392851Y-120725500D01*
X164392853Y-120725500D01*
X164475639Y-120703318D01*
X164549862Y-120660465D01*
X181865465Y-103344862D01*
X181908318Y-103270639D01*
X181930500Y-103187853D01*
X181930500Y-103102147D01*
X181930500Y-95214909D01*
X181950185Y-95147870D01*
X182002989Y-95102115D01*
X182072147Y-95092171D01*
X182135703Y-95121196D01*
X182150350Y-95136241D01*
X182159894Y-95147870D01*
X182273589Y-95286410D01*
X182370209Y-95365702D01*
X182433550Y-95417685D01*
X182616046Y-95515232D01*
X182814066Y-95575300D01*
X182814065Y-95575300D01*
X182832529Y-95577118D01*
X183020000Y-95595583D01*
X183225934Y-95575300D01*
X183423954Y-95515232D01*
X183606450Y-95417685D01*
X183766410Y-95286410D01*
X183897685Y-95126450D01*
X183995232Y-94943954D01*
X184055300Y-94745934D01*
X184075583Y-94540000D01*
X184504417Y-94540000D01*
X184524699Y-94745932D01*
X184554734Y-94844944D01*
X184584768Y-94943954D01*
X184682315Y-95126450D01*
X184682317Y-95126452D01*
X184813589Y-95286410D01*
X184910209Y-95365702D01*
X184973550Y-95417685D01*
X185156046Y-95515232D01*
X185354066Y-95575300D01*
X185354065Y-95575300D01*
X185372529Y-95577118D01*
X185560000Y-95595583D01*
X185765934Y-95575300D01*
X185963954Y-95515232D01*
X186146450Y-95417685D01*
X186306410Y-95286410D01*
X186437685Y-95126450D01*
X186535232Y-94943954D01*
X186595300Y-94745934D01*
X186615583Y-94540000D01*
X186595300Y-94334066D01*
X186535232Y-94136046D01*
X186437685Y-93953550D01*
X186361620Y-93860864D01*
X186306410Y-93793589D01*
X186156121Y-93670252D01*
X186146450Y-93662315D01*
X185963954Y-93564768D01*
X185765934Y-93504700D01*
X185765932Y-93504699D01*
X185765934Y-93504699D01*
X185560000Y-93484417D01*
X185354067Y-93504699D01*
X185156043Y-93564769D01*
X185075178Y-93607993D01*
X184973550Y-93662315D01*
X184973548Y-93662316D01*
X184973547Y-93662317D01*
X184813589Y-93793589D01*
X184682317Y-93953547D01*
X184584769Y-94136043D01*
X184524699Y-94334067D01*
X184504417Y-94540000D01*
X184075583Y-94540000D01*
X184055300Y-94334066D01*
X183995232Y-94136046D01*
X183897685Y-93953550D01*
X183821620Y-93860864D01*
X183766410Y-93793589D01*
X183616121Y-93670252D01*
X183606450Y-93662315D01*
X183423954Y-93564768D01*
X183225934Y-93504700D01*
X183225932Y-93504699D01*
X183225934Y-93504699D01*
X183020000Y-93484417D01*
X182814067Y-93504699D01*
X182616043Y-93564769D01*
X182535178Y-93607993D01*
X182433550Y-93662315D01*
X182433548Y-93662316D01*
X182433547Y-93662317D01*
X182273589Y-93793589D01*
X182150354Y-93943754D01*
X182092608Y-93983089D01*
X182022763Y-93984960D01*
X181962995Y-93948773D01*
X181932279Y-93886017D01*
X181930500Y-93865090D01*
X181930500Y-93601188D01*
X181950185Y-93534149D01*
X181966815Y-93513511D01*
X182479006Y-93001319D01*
X182540327Y-92967836D01*
X182610018Y-92972820D01*
X182614144Y-92974444D01*
X182616041Y-92975230D01*
X182616043Y-92975230D01*
X182616046Y-92975232D01*
X182814066Y-93035300D01*
X182814065Y-93035300D01*
X182832529Y-93037118D01*
X183020000Y-93055583D01*
X183225934Y-93035300D01*
X183423954Y-92975232D01*
X183606450Y-92877685D01*
X183766410Y-92746410D01*
X183897685Y-92586450D01*
X183995232Y-92403954D01*
X184055300Y-92205934D01*
X184075583Y-92000000D01*
X184055300Y-91794066D01*
X183995232Y-91596046D01*
X183897685Y-91413550D01*
X183845702Y-91350209D01*
X183766410Y-91253589D01*
X183648677Y-91156969D01*
X183606450Y-91122315D01*
X183423954Y-91024768D01*
X183225934Y-90964700D01*
X183225932Y-90964699D01*
X183225934Y-90964699D01*
X183020000Y-90944417D01*
X182814067Y-90964699D01*
X182616043Y-91024769D01*
X182505898Y-91083643D01*
X182433550Y-91122315D01*
X182433548Y-91122316D01*
X182433547Y-91122317D01*
X182273589Y-91253589D01*
X182142317Y-91413547D01*
X182044769Y-91596043D01*
X181984699Y-91794067D01*
X181964417Y-92000000D01*
X181984699Y-92205932D01*
X182044769Y-92403958D01*
X182045561Y-92405869D01*
X182045677Y-92406949D01*
X182046537Y-92409784D01*
X182045999Y-92409947D01*
X182053024Y-92475339D01*
X182021744Y-92537816D01*
X182018677Y-92540994D01*
X181344537Y-93215135D01*
X181344535Y-93215138D01*
X181301682Y-93289359D01*
X181279500Y-93372147D01*
X181279500Y-101468278D01*
X181259815Y-101535317D01*
X181207011Y-101581072D01*
X181137853Y-101591016D01*
X181136103Y-101590751D01*
X181000004Y-101569196D01*
X180999998Y-101569196D01*
X180866878Y-101590279D01*
X180866874Y-101590280D01*
X180866874Y-101590281D01*
X180793743Y-101627543D01*
X180746778Y-101651473D01*
X180746774Y-101651476D01*
X180651476Y-101746774D01*
X180651473Y-101746778D01*
X180590279Y-101866878D01*
X180569196Y-101999997D01*
X180569196Y-102000000D01*
X180578896Y-102061245D01*
X180586723Y-102110664D01*
X180577767Y-102179957D01*
X180551930Y-102217742D01*
X161939537Y-120830136D01*
X161939535Y-120830139D01*
X161896682Y-120904360D01*
X161874500Y-120987148D01*
X161874500Y-122313811D01*
X161854815Y-122380850D01*
X161838181Y-122401492D01*
X161086491Y-123153182D01*
X161025168Y-123186667D01*
X160998810Y-123189501D01*
X159765466Y-123189501D01*
X159765450Y-123189500D01*
X159757854Y-123189500D01*
X159672148Y-123189500D01*
X159639034Y-123198373D01*
X159589360Y-123211683D01*
X159589359Y-123211684D01*
X159515142Y-123254533D01*
X159515137Y-123254537D01*
X159454534Y-123315141D01*
X155540994Y-127228678D01*
X155479671Y-127262163D01*
X155409979Y-127257179D01*
X155405869Y-127255562D01*
X155403958Y-127254770D01*
X155253543Y-127209143D01*
X155205934Y-127194701D01*
X155205932Y-127194700D01*
X155205930Y-127194700D01*
X155205927Y-127194699D01*
X155192557Y-127193382D01*
X155127771Y-127167219D01*
X155087415Y-127110182D01*
X155084301Y-127040382D01*
X155117034Y-126982301D01*
X178260465Y-103838872D01*
X178303318Y-103764649D01*
X178325500Y-103681863D01*
X178325500Y-103596157D01*
X178325500Y-102325205D01*
X178345185Y-102258166D01*
X178348412Y-102253444D01*
X178348524Y-102253223D01*
X178348528Y-102253220D01*
X178409719Y-102133126D01*
X178430804Y-102000000D01*
X178409719Y-101866874D01*
X178348528Y-101746780D01*
X178348526Y-101746778D01*
X178348523Y-101746774D01*
X178253225Y-101651476D01*
X178253221Y-101651473D01*
X178253220Y-101651472D01*
X178133126Y-101590281D01*
X178133124Y-101590280D01*
X178133121Y-101590279D01*
X178000002Y-101569196D01*
X177999998Y-101569196D01*
X177866878Y-101590279D01*
X177866874Y-101590280D01*
X177866874Y-101590281D01*
X177793743Y-101627543D01*
X177746778Y-101651473D01*
X177746774Y-101651476D01*
X177651476Y-101746774D01*
X177651473Y-101746778D01*
X177590279Y-101866878D01*
X177569196Y-101999997D01*
X177569196Y-102000002D01*
X177590279Y-102133121D01*
X177590280Y-102133124D01*
X177590281Y-102133126D01*
X177651472Y-102253220D01*
X177651473Y-102253221D01*
X177655903Y-102261915D01*
X177654497Y-102262631D01*
X177674298Y-102318128D01*
X177674500Y-102325205D01*
X177674500Y-103452820D01*
X177654815Y-103519859D01*
X177638181Y-103540501D01*
X166636780Y-114541902D01*
X166575457Y-114575387D01*
X166505765Y-114570403D01*
X166449832Y-114528531D01*
X166426626Y-114473620D01*
X166424633Y-114461041D01*
X166417378Y-114415232D01*
X166426332Y-114345942D01*
X166452167Y-114308158D01*
X177060465Y-103699862D01*
X177080649Y-103664902D01*
X177095156Y-103639776D01*
X177103317Y-103625639D01*
X177103318Y-103625638D01*
X177125500Y-103542853D01*
X177125500Y-95866188D01*
X177145185Y-95799149D01*
X177161815Y-95778511D01*
X177399006Y-95541319D01*
X177460327Y-95507836D01*
X177530018Y-95512820D01*
X177534144Y-95514444D01*
X177536041Y-95515230D01*
X177536043Y-95515230D01*
X177536046Y-95515232D01*
X177734066Y-95575300D01*
X177734065Y-95575300D01*
X177752529Y-95577118D01*
X177940000Y-95595583D01*
X178145934Y-95575300D01*
X178343954Y-95515232D01*
X178526450Y-95417685D01*
X178686410Y-95286410D01*
X178817685Y-95126450D01*
X178915232Y-94943954D01*
X178975300Y-94745934D01*
X178995583Y-94540000D01*
X178975300Y-94334066D01*
X178915232Y-94136046D01*
X178817685Y-93953550D01*
X178741620Y-93860864D01*
X178686410Y-93793589D01*
X178536121Y-93670252D01*
X178526450Y-93662315D01*
X178343954Y-93564768D01*
X178145934Y-93504700D01*
X178145932Y-93504699D01*
X178145934Y-93504699D01*
X177940000Y-93484417D01*
X177734067Y-93504699D01*
X177536043Y-93564769D01*
X177455178Y-93607993D01*
X177353550Y-93662315D01*
X177353548Y-93662316D01*
X177353547Y-93662317D01*
X177193589Y-93793589D01*
X177062317Y-93953547D01*
X176964769Y-94136043D01*
X176904699Y-94334067D01*
X176884417Y-94540000D01*
X176904699Y-94745932D01*
X176964769Y-94943958D01*
X176965561Y-94945869D01*
X176965677Y-94946949D01*
X176966537Y-94949784D01*
X176965999Y-94949947D01*
X176973024Y-95015339D01*
X176941744Y-95077816D01*
X176938677Y-95080994D01*
X176539537Y-95480135D01*
X176539533Y-95480141D01*
X176496681Y-95554361D01*
X176496682Y-95554362D01*
X176474500Y-95637147D01*
X176474500Y-103313811D01*
X176454815Y-103380850D01*
X176438181Y-103401492D01*
X175916817Y-103922855D01*
X175855494Y-103956340D01*
X175785802Y-103951356D01*
X175729869Y-103909484D01*
X175705452Y-103844020D01*
X175709360Y-103803088D01*
X175725500Y-103742853D01*
X175725500Y-103657147D01*
X175725500Y-95630582D01*
X175745185Y-95563544D01*
X175797989Y-95517789D01*
X175802049Y-95516021D01*
X175803945Y-95515234D01*
X175803954Y-95515232D01*
X175986450Y-95417685D01*
X176146410Y-95286410D01*
X176277685Y-95126450D01*
X176375232Y-94943954D01*
X176435300Y-94745934D01*
X176455583Y-94540000D01*
X176435300Y-94334066D01*
X176375232Y-94136046D01*
X176277685Y-93953550D01*
X176201620Y-93860864D01*
X176146410Y-93793589D01*
X175996121Y-93670252D01*
X175986450Y-93662315D01*
X175803954Y-93564768D01*
X175605934Y-93504700D01*
X175605932Y-93504699D01*
X175605934Y-93504699D01*
X175400000Y-93484417D01*
X175194067Y-93504699D01*
X174996043Y-93564769D01*
X174915178Y-93607993D01*
X174813550Y-93662315D01*
X174813548Y-93662316D01*
X174813547Y-93662317D01*
X174653589Y-93793589D01*
X174522317Y-93953547D01*
X174424769Y-94136043D01*
X174364699Y-94334067D01*
X174344417Y-94540000D01*
X174364699Y-94745932D01*
X174394734Y-94844944D01*
X174424768Y-94943954D01*
X174522315Y-95126450D01*
X174522317Y-95126452D01*
X174653589Y-95286410D01*
X174750209Y-95365702D01*
X174813550Y-95417685D01*
X174996046Y-95515232D01*
X174996051Y-95515233D01*
X174997951Y-95516021D01*
X174998796Y-95516701D01*
X175001419Y-95518104D01*
X175001153Y-95518601D01*
X175052355Y-95559862D01*
X175074421Y-95626156D01*
X175074500Y-95630583D01*
X175074500Y-103513811D01*
X175054815Y-103580850D01*
X175038181Y-103601492D01*
X164739537Y-113900135D01*
X164739533Y-113900141D01*
X164696681Y-113974361D01*
X164696682Y-113974362D01*
X164674500Y-114057147D01*
X164674500Y-114174794D01*
X164654815Y-114241833D01*
X164651588Y-114246552D01*
X164590279Y-114366878D01*
X164569196Y-114499997D01*
X164569196Y-114500002D01*
X164590279Y-114633121D01*
X164590280Y-114633124D01*
X164590281Y-114633126D01*
X164651472Y-114753220D01*
X164651473Y-114753221D01*
X164651476Y-114753225D01*
X164746774Y-114848523D01*
X164746778Y-114848526D01*
X164746780Y-114848528D01*
X164866874Y-114909719D01*
X164866876Y-114909719D01*
X164866878Y-114909720D01*
X164999998Y-114930804D01*
X165000000Y-114930804D01*
X165000002Y-114930804D01*
X165133121Y-114909720D01*
X165133121Y-114909719D01*
X165133126Y-114909719D01*
X165253220Y-114848528D01*
X165348528Y-114753220D01*
X165389516Y-114672775D01*
X165437489Y-114621981D01*
X165505310Y-114605186D01*
X165571445Y-114627723D01*
X165610483Y-114672774D01*
X165651472Y-114753220D01*
X165651473Y-114753221D01*
X165651476Y-114753225D01*
X165746774Y-114848523D01*
X165746778Y-114848526D01*
X165746780Y-114848528D01*
X165866874Y-114909719D01*
X165866876Y-114909719D01*
X165866878Y-114909720D01*
X165973618Y-114926626D01*
X166036753Y-114956555D01*
X166073685Y-115015866D01*
X166072687Y-115085729D01*
X166041902Y-115136780D01*
X154990999Y-126187682D01*
X154929676Y-126221167D01*
X154859984Y-126216183D01*
X154804051Y-126174311D01*
X154779634Y-126108847D01*
X154779914Y-126087854D01*
X154785584Y-126030296D01*
X154765301Y-125824362D01*
X154705233Y-125626342D01*
X154607686Y-125443846D01*
X154523709Y-125341519D01*
X154476411Y-125283885D01*
X154316453Y-125152613D01*
X154316454Y-125152613D01*
X154316451Y-125152611D01*
X154133955Y-125055064D01*
X153935935Y-124994996D01*
X153935933Y-124994995D01*
X153935935Y-124994995D01*
X153730001Y-124974713D01*
X153524068Y-124994995D01*
X153326044Y-125055065D01*
X153215899Y-125113939D01*
X153143551Y-125152611D01*
X153143549Y-125152612D01*
X153143548Y-125152613D01*
X152983590Y-125283885D01*
X152852318Y-125443843D01*
X152754770Y-125626339D01*
X152694700Y-125824363D01*
X152674418Y-126030296D01*
X152694700Y-126236228D01*
X152694701Y-126236230D01*
X152754769Y-126434250D01*
X152852316Y-126616746D01*
X152852318Y-126616748D01*
X152983590Y-126776706D01*
X153080210Y-126855998D01*
X153143551Y-126907981D01*
X153326047Y-127005528D01*
X153524067Y-127065596D01*
X153524066Y-127065596D01*
X153544349Y-127067593D01*
X153730001Y-127085879D01*
X153787553Y-127080210D01*
X153856197Y-127093228D01*
X153906908Y-127141293D01*
X153923583Y-127209143D01*
X153900928Y-127275238D01*
X153887387Y-127291294D01*
X152758423Y-128420258D01*
X152697100Y-128453743D01*
X152682897Y-128455980D01*
X152594363Y-128464700D01*
X152396339Y-128524770D01*
X152318709Y-128566265D01*
X152213846Y-128622316D01*
X152213844Y-128622317D01*
X152213843Y-128622318D01*
X152053885Y-128753590D01*
X151922613Y-128913548D01*
X151825065Y-129096044D01*
X151764995Y-129294068D01*
X151744713Y-129500001D01*
X151764995Y-129705933D01*
X151764996Y-129705935D01*
X151825064Y-129903955D01*
X151922611Y-130086451D01*
X151922613Y-130086453D01*
X152053885Y-130246411D01*
X152150505Y-130325703D01*
X152213846Y-130377686D01*
X152396342Y-130475233D01*
X152594362Y-130535301D01*
X152594361Y-130535301D01*
X152612825Y-130537119D01*
X152800296Y-130555584D01*
X153006230Y-130535301D01*
X153204250Y-130475233D01*
X153386746Y-130377686D01*
X153546706Y-130246411D01*
X153677981Y-130086451D01*
X153775528Y-129903955D01*
X153835596Y-129705935D01*
X153855879Y-129500001D01*
X153835596Y-129294067D01*
X153775528Y-129096047D01*
X153677981Y-128913551D01*
X153598294Y-128816451D01*
X153546706Y-128753590D01*
X153542087Y-128749800D01*
X153502752Y-128692054D01*
X153500881Y-128622210D01*
X153533068Y-128566267D01*
X153752300Y-128347035D01*
X153813621Y-128313552D01*
X153883313Y-128318536D01*
X153939246Y-128360408D01*
X153963381Y-128422558D01*
X153964698Y-128435928D01*
X153964699Y-128435931D01*
X153964699Y-128435933D01*
X153964700Y-128435935D01*
X154024768Y-128633955D01*
X154122315Y-128816451D01*
X154122317Y-128816453D01*
X154253589Y-128976411D01*
X154350209Y-129055703D01*
X154413550Y-129107686D01*
X154596046Y-129205233D01*
X154794066Y-129265301D01*
X154794065Y-129265301D01*
X154812529Y-129267119D01*
X155000000Y-129285584D01*
X155205934Y-129265301D01*
X155403954Y-129205233D01*
X155586450Y-129107686D01*
X155746410Y-128976411D01*
X155877685Y-128816451D01*
X155975232Y-128633955D01*
X156035300Y-128435935D01*
X156055583Y-128230001D01*
X156035300Y-128024067D01*
X155975232Y-127826047D01*
X155975230Y-127826044D01*
X155975230Y-127826042D01*
X155974444Y-127824145D01*
X155974328Y-127823069D01*
X155973463Y-127820217D01*
X155974003Y-127820052D01*
X155966971Y-127754676D01*
X155998242Y-127692195D01*
X156001292Y-127689034D01*
X159813508Y-123876820D01*
X159874831Y-123843335D01*
X159901189Y-123840501D01*
X161227850Y-123840501D01*
X161227852Y-123840501D01*
X161310638Y-123818319D01*
X161384861Y-123775466D01*
X162460465Y-122699862D01*
X162503318Y-122625639D01*
X162525500Y-122542853D01*
X162525500Y-122457147D01*
X162525500Y-121216190D01*
X162545185Y-121149151D01*
X162561819Y-121128509D01*
X162954789Y-120735539D01*
X163358984Y-120331343D01*
X163420305Y-120297860D01*
X163489996Y-120302844D01*
X163545930Y-120344716D01*
X163569136Y-120399628D01*
X163590279Y-120533121D01*
X163590280Y-120533124D01*
X163590281Y-120533126D01*
X163609648Y-120571135D01*
X163651473Y-120653221D01*
X163651476Y-120653225D01*
X163672467Y-120674216D01*
X163705952Y-120735539D01*
X163700968Y-120805231D01*
X163659096Y-120861164D01*
X163604186Y-120884370D01*
X163566877Y-120890279D01*
X163446778Y-120951473D01*
X163446774Y-120951476D01*
X163351476Y-121046774D01*
X163351473Y-121046778D01*
X163351472Y-121046780D01*
X163291324Y-121164828D01*
X163290279Y-121166878D01*
X163269196Y-121299997D01*
X163269196Y-121300002D01*
X163290279Y-121433121D01*
X163290280Y-121433124D01*
X163290281Y-121433126D01*
X163351472Y-121553220D01*
X163351473Y-121553221D01*
X163351476Y-121553225D01*
X163446774Y-121648523D01*
X163446778Y-121648526D01*
X163446780Y-121648528D01*
X163566874Y-121709719D01*
X163566876Y-121709719D01*
X163566878Y-121709720D01*
X163699998Y-121730804D01*
X163700000Y-121730804D01*
X163700002Y-121730804D01*
X163833121Y-121709720D01*
X163833121Y-121709719D01*
X163833126Y-121709719D01*
X163953220Y-121648528D01*
X163953221Y-121648526D01*
X163961915Y-121644097D01*
X163962631Y-121645502D01*
X164018128Y-121625702D01*
X164025205Y-121625500D01*
X165042851Y-121625500D01*
X165042853Y-121625500D01*
X165125639Y-121603318D01*
X165199862Y-121560465D01*
X190829652Y-95930672D01*
X190829657Y-95930669D01*
X190839860Y-95920465D01*
X190839862Y-95920465D01*
X190900465Y-95859862D01*
X190921891Y-95822750D01*
X190943318Y-95785639D01*
X190965501Y-95702853D01*
X190965501Y-95630582D01*
X190985186Y-95563543D01*
X191037990Y-95517788D01*
X191042057Y-95516017D01*
X191043945Y-95515234D01*
X191043954Y-95515232D01*
X191226450Y-95417685D01*
X191386410Y-95286410D01*
X191517685Y-95126450D01*
X191615232Y-94943954D01*
X191675300Y-94745934D01*
X191695583Y-94540000D01*
X191675300Y-94334066D01*
X191615232Y-94136046D01*
X191517685Y-93953550D01*
X191386410Y-93793590D01*
X191386409Y-93793589D01*
X191386407Y-93793586D01*
X191382103Y-93789282D01*
X191383483Y-93787901D01*
X191349224Y-93737606D01*
X191347355Y-93667761D01*
X191383543Y-93607993D01*
X191446299Y-93577278D01*
X191467224Y-93575500D01*
X192352776Y-93575500D01*
X192419815Y-93595185D01*
X192465570Y-93647989D01*
X192475514Y-93717147D01*
X192446489Y-93780703D01*
X192437788Y-93789173D01*
X192437897Y-93789282D01*
X192433592Y-93793586D01*
X192302317Y-93953547D01*
X192204769Y-94136043D01*
X192144699Y-94334067D01*
X192124417Y-94540000D01*
X192144699Y-94745932D01*
X192174734Y-94844944D01*
X192204768Y-94943954D01*
X192302315Y-95126450D01*
X192302317Y-95126452D01*
X192433589Y-95286410D01*
X192530209Y-95365702D01*
X192593550Y-95417685D01*
X192776046Y-95515232D01*
X192974066Y-95575300D01*
X192974065Y-95575300D01*
X192992529Y-95577118D01*
X193180000Y-95595583D01*
X193385934Y-95575300D01*
X193583954Y-95515232D01*
X193766450Y-95417685D01*
X193926410Y-95286410D01*
X194057685Y-95126450D01*
X194155232Y-94943954D01*
X194215300Y-94745934D01*
X194235583Y-94540000D01*
X194215300Y-94334066D01*
X194155232Y-94136046D01*
X194057685Y-93953550D01*
X193926410Y-93793590D01*
X193926409Y-93793589D01*
X193926407Y-93793586D01*
X193922103Y-93789282D01*
X193923483Y-93787901D01*
X193889224Y-93737606D01*
X193887355Y-93667761D01*
X193923543Y-93607993D01*
X193986299Y-93577278D01*
X194007224Y-93575500D01*
X194042851Y-93575500D01*
X194042853Y-93575500D01*
X194125639Y-93553318D01*
X194199862Y-93510465D01*
X194689655Y-93020669D01*
X194689660Y-93020666D01*
X194699860Y-93010465D01*
X194699862Y-93010465D01*
X194760465Y-92949862D01*
X194789843Y-92898976D01*
X194789845Y-92898975D01*
X194796077Y-92888181D01*
X194803318Y-92875639D01*
X194825500Y-92792853D01*
X194825500Y-92707147D01*
X194825500Y-88707147D01*
X194809127Y-88646040D01*
X194803318Y-88624361D01*
X194760465Y-88550138D01*
X191611819Y-85401492D01*
X191578334Y-85340169D01*
X191575500Y-85313811D01*
X191575500Y-62957149D01*
X191575500Y-62957147D01*
X191553318Y-62874362D01*
X191534719Y-62842147D01*
X191510469Y-62800144D01*
X191510463Y-62800136D01*
X188699864Y-59989537D01*
X188699862Y-59989535D01*
X188662750Y-59968108D01*
X188625640Y-59946682D01*
X188584246Y-59935591D01*
X188542853Y-59924500D01*
X188542852Y-59924500D01*
X138825205Y-59924500D01*
X138758166Y-59904815D01*
X138753444Y-59901587D01*
X138753221Y-59901473D01*
X138753220Y-59901472D01*
X138633126Y-59840281D01*
X138633124Y-59840280D01*
X138633121Y-59840279D01*
X138500002Y-59819196D01*
X138499998Y-59819196D01*
X138366878Y-59840279D01*
X138246778Y-59901473D01*
X138246774Y-59901476D01*
X138151476Y-59996774D01*
X138151473Y-59996778D01*
X138090279Y-60116878D01*
X138069196Y-60249997D01*
X138069196Y-60250002D01*
X138090279Y-60383121D01*
X138090280Y-60383124D01*
X138090281Y-60383126D01*
X138151472Y-60503220D01*
X138151473Y-60503221D01*
X138151476Y-60503225D01*
X138246774Y-60598523D01*
X138246778Y-60598526D01*
X138246780Y-60598528D01*
X138366874Y-60659719D01*
X138366876Y-60659719D01*
X138366878Y-60659720D01*
X138499998Y-60680804D01*
X138500000Y-60680804D01*
X138500002Y-60680804D01*
X138633121Y-60659720D01*
X138633121Y-60659719D01*
X138633126Y-60659719D01*
X138753220Y-60598528D01*
X138753221Y-60598526D01*
X138761915Y-60594097D01*
X138762631Y-60595502D01*
X138818128Y-60575702D01*
X138825205Y-60575500D01*
X188313811Y-60575500D01*
X188380850Y-60595185D01*
X188401492Y-60611819D01*
X190888181Y-63098508D01*
X190921666Y-63159831D01*
X190924500Y-63186189D01*
X190924500Y-85542852D01*
X190946682Y-85625640D01*
X190968108Y-85662750D01*
X190989535Y-85699862D01*
X190989537Y-85699864D01*
X194138181Y-88848508D01*
X194171666Y-88909831D01*
X194174500Y-88936189D01*
X194174500Y-91209332D01*
X194154815Y-91276371D01*
X194102011Y-91322126D01*
X194032853Y-91332070D01*
X193969297Y-91303045D01*
X193954647Y-91287997D01*
X193945106Y-91276371D01*
X193926410Y-91253590D01*
X193925827Y-91253112D01*
X193925604Y-91252784D01*
X193922103Y-91249283D01*
X193922767Y-91248618D01*
X193886498Y-91195365D01*
X193880500Y-91157265D01*
X193880500Y-89361004D01*
X193853581Y-89225677D01*
X193853580Y-89225676D01*
X193853580Y-89225672D01*
X193800775Y-89098189D01*
X193785615Y-89075500D01*
X193724114Y-88983456D01*
X190236819Y-85496161D01*
X190203334Y-85434838D01*
X190200500Y-85408480D01*
X190200500Y-63931004D01*
X190173581Y-63795677D01*
X190173580Y-63795676D01*
X190173580Y-63795672D01*
X190173578Y-63795667D01*
X190120776Y-63668191D01*
X190044112Y-63553454D01*
X187946545Y-61455887D01*
X187831807Y-61379222D01*
X187704332Y-61326421D01*
X187704322Y-61326418D01*
X187568996Y-61299500D01*
X187568994Y-61299500D01*
X187568993Y-61299500D01*
X130291519Y-61299500D01*
X130224480Y-61279815D01*
X130203838Y-61263181D01*
X126149319Y-57208662D01*
X126115834Y-57147339D01*
X126113000Y-57120981D01*
X126113000Y-56962500D01*
X131206857Y-56962500D01*
X131227384Y-57184035D01*
X131227385Y-57184037D01*
X131288269Y-57398023D01*
X131288275Y-57398038D01*
X131387438Y-57597183D01*
X131387443Y-57597191D01*
X131521520Y-57774738D01*
X131685937Y-57924623D01*
X131685939Y-57924625D01*
X131875095Y-58041745D01*
X131875096Y-58041745D01*
X131875099Y-58041747D01*
X132082560Y-58122118D01*
X132301257Y-58163000D01*
X132301259Y-58163000D01*
X132523741Y-58163000D01*
X132523743Y-58163000D01*
X132742440Y-58122118D01*
X132949901Y-58041747D01*
X133139062Y-57924624D01*
X133303481Y-57774736D01*
X133437558Y-57597189D01*
X133536729Y-57398028D01*
X133597615Y-57184036D01*
X133618143Y-56962500D01*
X133597615Y-56740964D01*
X133536729Y-56526972D01*
X133536724Y-56526961D01*
X133437561Y-56327816D01*
X133437556Y-56327808D01*
X133303479Y-56150261D01*
X133139062Y-56000376D01*
X133139060Y-56000374D01*
X132949904Y-55883254D01*
X132949898Y-55883252D01*
X132742440Y-55802882D01*
X132523743Y-55762000D01*
X132301257Y-55762000D01*
X132082560Y-55802882D01*
X131951364Y-55853707D01*
X131875101Y-55883252D01*
X131875095Y-55883254D01*
X131685939Y-56000374D01*
X131685937Y-56000376D01*
X131521520Y-56150261D01*
X131387443Y-56327808D01*
X131387438Y-56327816D01*
X131288275Y-56526961D01*
X131288269Y-56526976D01*
X131227385Y-56740962D01*
X131227384Y-56740964D01*
X131206857Y-56962499D01*
X131206857Y-56962500D01*
X126113000Y-56962500D01*
X126113000Y-55942749D01*
X126112999Y-55942747D01*
X126101368Y-55884270D01*
X126101367Y-55884269D01*
X126057052Y-55817947D01*
X125990730Y-55773632D01*
X125990729Y-55773631D01*
X125932252Y-55762000D01*
X125932248Y-55762000D01*
X123892752Y-55762000D01*
X123892747Y-55762000D01*
X123834270Y-55773631D01*
X123834269Y-55773632D01*
X123767947Y-55817947D01*
X123723632Y-55884269D01*
X123723631Y-55884270D01*
X123712000Y-55942747D01*
X123712000Y-57982252D01*
X123723631Y-58040729D01*
X123723632Y-58040730D01*
X123767947Y-58107052D01*
X123834269Y-58151367D01*
X123834270Y-58151368D01*
X123892747Y-58162999D01*
X123892750Y-58163000D01*
X123892752Y-58163000D01*
X125070981Y-58163000D01*
X125138020Y-58182685D01*
X125158662Y-58199319D01*
X129503453Y-62544111D01*
X129503454Y-62544112D01*
X129618192Y-62620777D01*
X129745667Y-62673578D01*
X129745672Y-62673580D01*
X129745676Y-62673580D01*
X129745677Y-62673581D01*
X129881003Y-62700500D01*
X129881006Y-62700500D01*
X129881007Y-62700500D01*
X142259481Y-62700500D01*
X142326520Y-62720185D01*
X142372275Y-62772989D01*
X142382219Y-62842147D01*
X142353194Y-62905703D01*
X142347162Y-62912181D01*
X141955888Y-63303453D01*
X141955887Y-63303454D01*
X141879222Y-63418192D01*
X141826421Y-63545667D01*
X141826418Y-63545679D01*
X141802050Y-63668186D01*
X141802049Y-63668191D01*
X141799500Y-63681002D01*
X141799500Y-75799500D01*
X135000000Y-69000000D01*
X111071506Y-69000000D01*
X111071506Y-54667774D01*
X111071513Y-54666452D01*
X111073781Y-54453659D01*
X111074246Y-54444172D01*
X111111403Y-54019539D01*
X111112809Y-54008864D01*
X111186723Y-53589716D01*
X111189063Y-53579166D01*
X111299216Y-53168095D01*
X111302464Y-53157792D01*
X111448038Y-52757849D01*
X111452159Y-52747900D01*
X111632039Y-52362159D01*
X111637005Y-52352618D01*
X111849820Y-51984024D01*
X111855624Y-51974916D01*
X112099729Y-51626305D01*
X112106301Y-51617737D01*
X112379891Y-51291693D01*
X112387176Y-51283744D01*
X112688119Y-50982807D01*
X112696072Y-50975519D01*
X113022097Y-50701955D01*
X113030663Y-50695382D01*
X113379302Y-50451267D01*
X113388408Y-50445466D01*
X113756999Y-50232664D01*
X113766555Y-50227691D01*
X114152285Y-50047825D01*
X114162240Y-50043700D01*
X114562176Y-49898138D01*
X114572485Y-49894888D01*
X114983578Y-49784737D01*
X114994116Y-49782401D01*
X115413238Y-49708500D01*
X115423949Y-49707089D01*
X115848591Y-49669939D01*
X115858022Y-49669475D01*
X116070864Y-49667155D01*
X116072216Y-49667148D01*
X208070649Y-49667148D01*
X208072364Y-49667160D01*
G37*
%TD.AperFunction*%
%TD*%
%TA.AperFunction,Conductor*%
%TO.N,GNDPWR*%
G36*
X131511193Y-88951897D02*
G01*
X131545845Y-88990438D01*
X140689933Y-104895521D01*
X140706282Y-104963452D01*
X140683309Y-105029437D01*
X140647276Y-105063020D01*
X135614335Y-108150691D01*
X135546898Y-108168969D01*
X135480285Y-108147886D01*
X135442620Y-108107880D01*
X126030271Y-92111457D01*
X126013239Y-92043695D01*
X126035546Y-91977482D01*
X126076124Y-91940626D01*
X131377334Y-88944291D01*
X131445378Y-88928442D01*
X131511193Y-88951897D01*
G37*
%TD.AperFunction*%
%TD*%
%TA.AperFunction,Conductor*%
%TO.N,/COIL*%
G36*
X132515677Y-80269685D02*
G01*
X132536319Y-80286319D01*
X133963681Y-81713681D01*
X133997166Y-81775004D01*
X134000000Y-81801362D01*
X134000000Y-82750000D01*
X135602798Y-85688463D01*
X136938463Y-88137183D01*
X136953284Y-88205463D01*
X136928837Y-88270916D01*
X136885058Y-88307470D01*
X133610908Y-89944545D01*
X133542143Y-89956920D01*
X133477604Y-89930152D01*
X133444545Y-89889090D01*
X132500001Y-88000001D01*
X132500000Y-88000000D01*
X132499999Y-88000000D01*
X124051362Y-88000000D01*
X123984323Y-87980315D01*
X123963681Y-87963681D01*
X123536319Y-87536319D01*
X123502834Y-87474996D01*
X123500000Y-87448638D01*
X123500000Y-80801362D01*
X123519685Y-80734323D01*
X123536319Y-80713681D01*
X123963681Y-80286319D01*
X124025004Y-80252834D01*
X124051362Y-80250000D01*
X132448638Y-80250000D01*
X132515677Y-80269685D01*
G37*
%TD.AperFunction*%
%TD*%
%TA.AperFunction,Conductor*%
%TO.N,/CAP*%
G36*
X135515677Y-74019685D02*
G01*
X135536319Y-74036319D01*
X143213681Y-81713681D01*
X143247166Y-81775004D01*
X143250000Y-81801362D01*
X143250000Y-92948638D01*
X143230315Y-93015677D01*
X143213681Y-93036319D01*
X140786319Y-95463681D01*
X140724996Y-95497166D01*
X140698638Y-95500000D01*
X137124000Y-95500000D01*
X137056961Y-95480315D01*
X137011206Y-95427511D01*
X137000000Y-95376000D01*
X137000000Y-90583746D01*
X137019685Y-90516707D01*
X137028450Y-90504714D01*
X137117011Y-90397663D01*
X137285601Y-90132007D01*
X137419567Y-89847315D01*
X137516795Y-89548079D01*
X137575752Y-89239015D01*
X137595508Y-88925000D01*
X137575752Y-88610985D01*
X137516795Y-88301921D01*
X137442497Y-88073255D01*
X137439250Y-88061239D01*
X137432462Y-88029969D01*
X137432459Y-88029955D01*
X137382239Y-87895123D01*
X135236928Y-83962051D01*
X134520641Y-82648858D01*
X134505500Y-82589480D01*
X134505500Y-81801359D01*
X134502602Y-81747311D01*
X134502602Y-81747310D01*
X134499770Y-81720977D01*
X134499767Y-81720950D01*
X134491114Y-81667554D01*
X134491114Y-81667552D01*
X134440833Y-81532747D01*
X134440832Y-81532743D01*
X134407347Y-81471420D01*
X134321123Y-81356239D01*
X134321118Y-81356234D01*
X134321113Y-81356228D01*
X132893776Y-79928892D01*
X132893761Y-79928877D01*
X132893737Y-79928855D01*
X132853519Y-79892728D01*
X132853507Y-79892718D01*
X132832856Y-79876076D01*
X132788974Y-79844433D01*
X132658100Y-79784663D01*
X132591055Y-79764976D01*
X132543582Y-79758150D01*
X132448638Y-79744500D01*
X124051362Y-79744500D01*
X124051346Y-79744500D01*
X124049705Y-79744544D01*
X124049704Y-79744500D01*
X124049702Y-79744500D01*
X124049702Y-79744427D01*
X124049685Y-79743820D01*
X123984356Y-79728218D01*
X123958291Y-79708291D01*
X123536319Y-79286319D01*
X123502834Y-79224996D01*
X123500000Y-79198638D01*
X123500000Y-74551362D01*
X123519685Y-74484323D01*
X123536319Y-74463681D01*
X123963681Y-74036319D01*
X124025004Y-74002834D01*
X124051362Y-74000000D01*
X135448638Y-74000000D01*
X135515677Y-74019685D01*
G37*
%TD.AperFunction*%
%TD*%
%TA.AperFunction,Conductor*%
%TO.N,VBAT*%
G36*
X211014545Y-72269685D02*
G01*
X211060300Y-72322489D01*
X211071506Y-72374000D01*
X211071506Y-80735051D01*
X211071496Y-80736606D01*
X211069632Y-80885209D01*
X211068981Y-80896445D01*
X211038156Y-81193682D01*
X211036488Y-81204810D01*
X211007847Y-81350499D01*
X211007467Y-81352355D01*
X210829921Y-82187832D01*
X210829403Y-82190162D01*
X210441819Y-83855711D01*
X210441173Y-83858357D01*
X210017126Y-85514873D01*
X210016421Y-85517504D01*
X209556109Y-87164219D01*
X209555347Y-87166835D01*
X209058950Y-88803118D01*
X209058130Y-88805716D01*
X208525930Y-90430631D01*
X208525054Y-90433210D01*
X207957267Y-92046097D01*
X207956334Y-92048656D01*
X207353213Y-93648790D01*
X207352350Y-93651015D01*
X207035850Y-94444131D01*
X207034957Y-94446309D01*
X206959995Y-94624264D01*
X206953529Y-94637391D01*
X206762089Y-94974278D01*
X206752915Y-94988161D01*
X206518098Y-95296371D01*
X206508556Y-95307470D01*
X206374134Y-95446330D01*
X206372722Y-95447765D01*
X175124662Y-126695824D01*
X175063339Y-126729309D01*
X174993647Y-126724325D01*
X174946518Y-126692952D01*
X173245622Y-124878664D01*
X171332115Y-122837589D01*
X171300626Y-122775220D01*
X171307855Y-122705725D01*
X171334896Y-122665103D01*
X198273181Y-95726819D01*
X198334504Y-95693334D01*
X198360862Y-95690500D01*
X198366608Y-95690500D01*
X198366610Y-95690500D01*
X198576198Y-95651321D01*
X198775019Y-95574298D01*
X198956302Y-95462052D01*
X199113872Y-95318407D01*
X199242366Y-95148255D01*
X199249500Y-95133927D01*
X199337403Y-94957394D01*
X199337403Y-94957393D01*
X199337405Y-94957389D01*
X199395756Y-94752310D01*
X199406746Y-94633700D01*
X199432532Y-94568765D01*
X199442512Y-94557487D01*
X199750000Y-94250000D01*
X199750000Y-72374000D01*
X199769685Y-72306961D01*
X199822489Y-72261206D01*
X199874000Y-72250000D01*
X210947506Y-72250000D01*
X211014545Y-72269685D01*
G37*
%TD.AperFunction*%
%TD*%
%TA.AperFunction,Conductor*%
%TO.N,GND*%
G36*
X208072364Y-49667160D02*
G01*
X208075171Y-49667198D01*
X208233136Y-49669385D01*
X208245223Y-49670145D01*
X208565624Y-49706115D01*
X208579277Y-49708426D01*
X208579605Y-49708501D01*
X208892811Y-49779713D01*
X208906125Y-49783534D01*
X209057938Y-49836440D01*
X209209756Y-49889348D01*
X209222553Y-49894627D01*
X209512489Y-50033645D01*
X209524610Y-50040314D01*
X209779804Y-50199905D01*
X209797234Y-50210805D01*
X209808550Y-50218794D01*
X210060449Y-50418622D01*
X210070803Y-50427823D01*
X210298846Y-50654502D01*
X210308109Y-50664801D01*
X210509442Y-50915494D01*
X210517499Y-50926762D01*
X210689615Y-51198348D01*
X210696365Y-51210444D01*
X210837120Y-51499539D01*
X210842478Y-51512312D01*
X210950106Y-51815289D01*
X210954007Y-51828580D01*
X211027174Y-52141682D01*
X211029568Y-52155326D01*
X211067457Y-52475496D01*
X211068291Y-52487603D01*
X211071481Y-52647951D01*
X211071506Y-52650417D01*
X211071506Y-71620500D01*
X211051821Y-71687539D01*
X210999017Y-71733294D01*
X210947506Y-71744500D01*
X199874000Y-71744500D01*
X199873991Y-71744500D01*
X199873990Y-71744501D01*
X199766549Y-71756052D01*
X199766537Y-71756054D01*
X199715027Y-71767260D01*
X199612502Y-71801383D01*
X199612496Y-71801386D01*
X199491462Y-71879171D01*
X199491451Y-71879179D01*
X199438659Y-71924923D01*
X199344433Y-72033664D01*
X199344430Y-72033668D01*
X199284664Y-72164534D01*
X199264976Y-72231582D01*
X199244500Y-72374001D01*
X199244500Y-90802495D01*
X199224815Y-90869534D01*
X199172011Y-90915289D01*
X199102853Y-90925233D01*
X199049377Y-90904070D01*
X198937834Y-90825967D01*
X198937830Y-90825965D01*
X198890756Y-90804014D01*
X198723663Y-90726097D01*
X198723659Y-90726096D01*
X198723655Y-90726094D01*
X198495413Y-90664938D01*
X198495403Y-90664936D01*
X198260001Y-90644341D01*
X198259999Y-90644341D01*
X198024596Y-90664936D01*
X198024586Y-90664938D01*
X197796344Y-90726094D01*
X197796335Y-90726098D01*
X197582171Y-90825964D01*
X197582169Y-90825965D01*
X197388597Y-90961505D01*
X197221505Y-91128597D01*
X197085965Y-91322169D01*
X197085964Y-91322171D01*
X196986098Y-91536335D01*
X196986094Y-91536344D01*
X196924938Y-91764586D01*
X196924936Y-91764596D01*
X196904341Y-91999999D01*
X196904341Y-92000000D01*
X196924936Y-92235403D01*
X196924938Y-92235413D01*
X196986094Y-92463655D01*
X196986096Y-92463659D01*
X196986097Y-92463663D01*
X197060688Y-92623623D01*
X197085965Y-92677830D01*
X197085967Y-92677834D01*
X197179634Y-92811603D01*
X197221505Y-92871401D01*
X197388599Y-93038495D01*
X197388601Y-93038496D01*
X197388603Y-93038498D01*
X197574158Y-93168425D01*
X197617783Y-93223002D01*
X197624977Y-93292500D01*
X197593454Y-93354855D01*
X197574158Y-93371575D01*
X197388597Y-93501505D01*
X197221505Y-93668597D01*
X197085965Y-93862169D01*
X197085964Y-93862171D01*
X196986098Y-94076335D01*
X196986094Y-94076344D01*
X196924938Y-94304586D01*
X196924936Y-94304596D01*
X196904341Y-94539999D01*
X196904341Y-94540000D01*
X196924936Y-94775403D01*
X196924938Y-94775413D01*
X196986094Y-95003655D01*
X196986096Y-95003659D01*
X196986097Y-95003663D01*
X197066004Y-95175023D01*
X197085965Y-95217830D01*
X197085967Y-95217834D01*
X197194281Y-95372521D01*
X197221505Y-95411401D01*
X197388599Y-95578495D01*
X197454596Y-95624707D01*
X197498220Y-95679282D01*
X197505412Y-95748781D01*
X197473890Y-95811135D01*
X197471152Y-95813961D01*
X170977455Y-122307658D01*
X170914100Y-122384992D01*
X170887065Y-122425605D01*
X170887060Y-122425614D01*
X170840168Y-122513893D01*
X170805068Y-122653420D01*
X170805068Y-122653421D01*
X170797839Y-122722906D01*
X170797839Y-122722917D01*
X170803469Y-122866683D01*
X170803470Y-122866687D01*
X170849376Y-123003043D01*
X170849377Y-123003046D01*
X170849378Y-123003047D01*
X170880671Y-123065027D01*
X170880869Y-123065421D01*
X170963330Y-123183316D01*
X170963331Y-123183318D01*
X170963334Y-123183321D01*
X174577737Y-127038684D01*
X174577742Y-127038688D01*
X174585413Y-127045182D01*
X174623863Y-127103521D01*
X174624669Y-127173386D01*
X174592978Y-127227507D01*
X164805569Y-137014917D01*
X164804144Y-137016320D01*
X164665269Y-137150787D01*
X164654161Y-137160338D01*
X164345930Y-137395173D01*
X164332045Y-137404347D01*
X163995149Y-137595791D01*
X163982019Y-137602259D01*
X163804067Y-137677211D01*
X163801872Y-137678111D01*
X162955041Y-138015866D01*
X162952665Y-138016785D01*
X161243533Y-138658096D01*
X161240799Y-138659086D01*
X159517196Y-139260106D01*
X159514439Y-139261031D01*
X157777081Y-139821512D01*
X157774649Y-139822269D01*
X156901404Y-140084304D01*
X156899279Y-140084921D01*
X156732617Y-140131707D01*
X156719862Y-140134572D01*
X156377390Y-140192726D01*
X156362552Y-140194335D01*
X156016495Y-140210879D01*
X156001572Y-140210693D01*
X155656035Y-140185541D01*
X155641242Y-140183563D01*
X155301240Y-140117082D01*
X155286792Y-140113342D01*
X154957235Y-140006494D01*
X154943340Y-140001045D01*
X154629009Y-139855378D01*
X154615870Y-139848300D01*
X154321302Y-139665915D01*
X154309109Y-139657308D01*
X154038605Y-139440869D01*
X154027534Y-139430861D01*
X153784987Y-139183485D01*
X153775199Y-139172219D01*
X153563554Y-138896748D01*
X153556146Y-138885974D01*
X153465747Y-138738405D01*
X153464612Y-138736516D01*
X153418469Y-138658096D01*
X148801568Y-130811606D01*
X148784537Y-130743845D01*
X148806844Y-130677632D01*
X148861407Y-130633990D01*
X148930903Y-130626774D01*
X148993268Y-130658277D01*
X148996122Y-130661042D01*
X152862215Y-134527137D01*
X152862219Y-134527140D01*
X153026079Y-134636628D01*
X153026085Y-134636631D01*
X153026086Y-134636632D01*
X153208165Y-134712052D01*
X153369389Y-134744121D01*
X153401457Y-134750499D01*
X153401458Y-134750500D01*
X153401459Y-134750500D01*
X155598542Y-134750500D01*
X155630614Y-134744120D01*
X155695188Y-134731275D01*
X155791836Y-134712051D01*
X155845165Y-134689961D01*
X155973914Y-134636632D01*
X156137782Y-134527139D01*
X156277139Y-134387782D01*
X156277140Y-134387779D01*
X156284206Y-134380714D01*
X156284209Y-134380710D01*
X156907779Y-133757140D01*
X156907783Y-133757138D01*
X157047140Y-133617781D01*
X157156633Y-133453913D01*
X157232052Y-133271834D01*
X157270501Y-133078540D01*
X157270501Y-131390463D01*
X157290186Y-131323424D01*
X157306820Y-131302782D01*
X157308496Y-131301106D01*
X157444036Y-131107535D01*
X157543904Y-130893368D01*
X157605064Y-130665113D01*
X157625660Y-130429705D01*
X157605064Y-130194297D01*
X157543904Y-129966042D01*
X157444036Y-129751876D01*
X157432510Y-129735414D01*
X157308495Y-129558302D01*
X157141403Y-129391211D01*
X157141396Y-129391206D01*
X156947835Y-129255672D01*
X156947831Y-129255670D01*
X156733664Y-129155802D01*
X156733660Y-129155801D01*
X156733656Y-129155799D01*
X156505414Y-129094643D01*
X156505404Y-129094641D01*
X156279743Y-129074898D01*
X156214675Y-129049445D01*
X156173696Y-128992854D01*
X156169818Y-128923092D01*
X156178169Y-128898965D01*
X156273903Y-128693664D01*
X156335063Y-128465409D01*
X156355659Y-128230001D01*
X156335063Y-127994593D01*
X156308143Y-127894126D01*
X156309806Y-127824277D01*
X156340235Y-127774354D01*
X159937773Y-124176820D01*
X159999096Y-124143335D01*
X160025454Y-124140501D01*
X161246606Y-124140501D01*
X161307028Y-124128482D01*
X161367451Y-124116464D01*
X161367454Y-124116462D01*
X161367457Y-124116462D01*
X161400786Y-124102655D01*
X161400785Y-124102655D01*
X161400791Y-124102653D01*
X161481285Y-124069313D01*
X161532508Y-124035085D01*
X161583732Y-124000859D01*
X161670857Y-123913734D01*
X161670858Y-123913732D01*
X161677924Y-123906666D01*
X161677927Y-123906662D01*
X162598729Y-122985860D01*
X162598733Y-122985858D01*
X162685858Y-122898733D01*
X162754311Y-122796286D01*
X162801463Y-122682452D01*
X162825500Y-122561606D01*
X162825500Y-121702295D01*
X162845185Y-121635256D01*
X162897989Y-121589501D01*
X162967147Y-121579557D01*
X163030703Y-121608582D01*
X163054493Y-121636322D01*
X163129192Y-121755204D01*
X163244796Y-121870808D01*
X163383225Y-121957789D01*
X163537539Y-122011786D01*
X163537542Y-122011786D01*
X163537544Y-122011787D01*
X163699996Y-122030091D01*
X163700000Y-122030091D01*
X163700004Y-122030091D01*
X163862457Y-122011787D01*
X163862459Y-122011786D01*
X163862461Y-122011786D01*
X164016775Y-121957789D01*
X164037915Y-121944506D01*
X164103886Y-121925500D01*
X165061608Y-121925500D01*
X165061608Y-121925499D01*
X165125978Y-121912696D01*
X165125979Y-121912696D01*
X165140193Y-121909868D01*
X165182452Y-121901463D01*
X165218257Y-121886632D01*
X165296286Y-121854312D01*
X165347509Y-121820084D01*
X165398733Y-121785858D01*
X165485858Y-121698733D01*
X165485859Y-121698731D01*
X165492925Y-121691665D01*
X165492928Y-121691661D01*
X191038729Y-96145860D01*
X191038733Y-96145858D01*
X191125858Y-96058733D01*
X191194311Y-95956286D01*
X191194312Y-95956285D01*
X191194313Y-95956282D01*
X191194315Y-95956279D01*
X191194315Y-95956277D01*
X191221561Y-95890500D01*
X191241463Y-95842451D01*
X191246879Y-95815226D01*
X191247143Y-95813900D01*
X191248495Y-95807098D01*
X191249548Y-95801803D01*
X191281926Y-95739889D01*
X191313493Y-95717366D01*
X191313135Y-95716746D01*
X191317826Y-95714037D01*
X191317826Y-95714036D01*
X191317830Y-95714035D01*
X191511401Y-95578495D01*
X191678495Y-95411401D01*
X191808425Y-95225842D01*
X191863002Y-95182217D01*
X191932500Y-95175023D01*
X191994855Y-95206546D01*
X192011575Y-95225842D01*
X192141500Y-95411395D01*
X192141505Y-95411401D01*
X192308599Y-95578495D01*
X192386080Y-95632748D01*
X192502165Y-95714032D01*
X192502167Y-95714033D01*
X192502170Y-95714035D01*
X192716337Y-95813903D01*
X192716343Y-95813904D01*
X192716344Y-95813905D01*
X192771285Y-95828626D01*
X192944592Y-95875063D01*
X193121034Y-95890500D01*
X193179999Y-95895659D01*
X193180000Y-95895659D01*
X193180001Y-95895659D01*
X193238966Y-95890500D01*
X193415408Y-95875063D01*
X193643663Y-95813903D01*
X193857830Y-95714035D01*
X194051401Y-95578495D01*
X194218495Y-95411401D01*
X194354035Y-95217830D01*
X194453903Y-95003663D01*
X194515063Y-94775408D01*
X194535659Y-94540000D01*
X194515063Y-94304592D01*
X194453903Y-94076337D01*
X194364474Y-93884559D01*
X194353983Y-93815483D01*
X194382503Y-93751699D01*
X194398198Y-93736297D01*
X194398727Y-93735861D01*
X194398733Y-93735858D01*
X194485858Y-93648733D01*
X194485859Y-93648731D01*
X194492925Y-93641665D01*
X194492928Y-93641661D01*
X194898729Y-93235860D01*
X194898733Y-93235858D01*
X194985858Y-93148733D01*
X195016584Y-93102746D01*
X195037254Y-93071813D01*
X195037256Y-93071810D01*
X195054310Y-93046288D01*
X195054314Y-93046280D01*
X195057540Y-93038493D01*
X195076248Y-92993326D01*
X195087179Y-92966937D01*
X195087179Y-92966936D01*
X195094759Y-92948636D01*
X195101463Y-92932452D01*
X195125500Y-92811606D01*
X195125500Y-88688394D01*
X195125500Y-88688389D01*
X195122729Y-88674462D01*
X195122727Y-88674456D01*
X195122544Y-88673536D01*
X195101463Y-88567549D01*
X195099666Y-88563211D01*
X195075232Y-88504221D01*
X195062120Y-88472566D01*
X195054314Y-88453719D01*
X195054312Y-88453714D01*
X195018938Y-88400774D01*
X195006615Y-88382331D01*
X195006615Y-88382330D01*
X195006613Y-88382329D01*
X194985859Y-88351268D01*
X194985855Y-88351263D01*
X194895637Y-88261045D01*
X194895606Y-88261016D01*
X191911819Y-85277229D01*
X191878334Y-85215906D01*
X191875500Y-85189548D01*
X191875500Y-62938391D01*
X191875499Y-62938389D01*
X191851464Y-62817555D01*
X191851463Y-62817548D01*
X191804311Y-62703714D01*
X191804310Y-62703713D01*
X191804307Y-62703707D01*
X191735858Y-62601267D01*
X191735855Y-62601263D01*
X191645637Y-62511045D01*
X191645606Y-62511016D01*
X188990198Y-59855608D01*
X188990178Y-59855586D01*
X188898733Y-59764141D01*
X188847509Y-59729915D01*
X188796287Y-59695689D01*
X188796286Y-59695688D01*
X188796283Y-59695686D01*
X188796280Y-59695685D01*
X188715792Y-59662347D01*
X188682453Y-59648537D01*
X188672427Y-59646543D01*
X188622029Y-59636518D01*
X188561610Y-59624500D01*
X188561607Y-59624500D01*
X188561606Y-59624500D01*
X138903886Y-59624500D01*
X138837915Y-59605494D01*
X138816774Y-59592210D01*
X138662457Y-59538212D01*
X138500004Y-59519909D01*
X138499996Y-59519909D01*
X138337544Y-59538212D01*
X138183225Y-59592210D01*
X138044795Y-59679192D01*
X137929192Y-59794795D01*
X137842210Y-59933225D01*
X137788212Y-60087544D01*
X137769909Y-60249996D01*
X137769909Y-60250003D01*
X137788212Y-60412455D01*
X137842210Y-60566774D01*
X137929192Y-60705204D01*
X138011807Y-60787819D01*
X138045292Y-60849142D01*
X138040308Y-60918834D01*
X137998436Y-60974767D01*
X137932972Y-60999184D01*
X137924126Y-60999500D01*
X130415782Y-60999500D01*
X130348743Y-60979815D01*
X130328101Y-60963181D01*
X126449318Y-57084398D01*
X126415833Y-57023075D01*
X126412999Y-56996717D01*
X126412999Y-56962505D01*
X130906857Y-56962505D01*
X130927390Y-57210312D01*
X130927392Y-57210324D01*
X130988436Y-57451381D01*
X131088326Y-57679106D01*
X131224333Y-57887282D01*
X131224336Y-57887285D01*
X131392756Y-58070238D01*
X131588991Y-58222974D01*
X131807690Y-58341328D01*
X132042886Y-58422071D01*
X132288165Y-58463000D01*
X132536835Y-58463000D01*
X132782114Y-58422071D01*
X133017310Y-58341328D01*
X133236009Y-58222974D01*
X133432244Y-58070238D01*
X133600664Y-57887285D01*
X133736673Y-57679107D01*
X133836563Y-57451381D01*
X133897608Y-57210321D01*
X133897609Y-57210312D01*
X133918143Y-56962505D01*
X133918143Y-56962494D01*
X133897609Y-56714687D01*
X133897607Y-56714675D01*
X133836563Y-56473618D01*
X133736673Y-56245893D01*
X133600666Y-56037717D01*
X133579057Y-56014244D01*
X133432244Y-55854762D01*
X133236009Y-55702026D01*
X133236007Y-55702025D01*
X133236006Y-55702024D01*
X133017311Y-55583672D01*
X133017302Y-55583669D01*
X132782116Y-55502929D01*
X132536835Y-55462000D01*
X132288165Y-55462000D01*
X132042883Y-55502929D01*
X131807697Y-55583669D01*
X131807688Y-55583672D01*
X131588993Y-55702024D01*
X131392757Y-55854761D01*
X131224333Y-56037717D01*
X131088326Y-56245893D01*
X130988436Y-56473618D01*
X130927392Y-56714675D01*
X130927390Y-56714687D01*
X130906857Y-56962494D01*
X130906857Y-56962505D01*
X126412999Y-56962505D01*
X126412999Y-55914629D01*
X126412998Y-55914623D01*
X126412997Y-55914616D01*
X126406591Y-55855017D01*
X126356296Y-55720169D01*
X126356295Y-55720168D01*
X126356293Y-55720164D01*
X126270047Y-55604955D01*
X126270044Y-55604952D01*
X126154835Y-55518706D01*
X126154828Y-55518702D01*
X126019982Y-55468408D01*
X126019983Y-55468408D01*
X125960383Y-55462001D01*
X125960381Y-55462000D01*
X125960373Y-55462000D01*
X125960364Y-55462000D01*
X123864629Y-55462000D01*
X123864623Y-55462001D01*
X123805016Y-55468408D01*
X123670171Y-55518702D01*
X123670164Y-55518706D01*
X123554955Y-55604952D01*
X123554952Y-55604955D01*
X123468706Y-55720164D01*
X123468702Y-55720171D01*
X123418408Y-55855017D01*
X123412001Y-55914616D01*
X123412001Y-55914623D01*
X123412000Y-55914635D01*
X123412000Y-58010370D01*
X123412001Y-58010376D01*
X123418408Y-58069983D01*
X123468702Y-58204828D01*
X123468706Y-58204835D01*
X123554952Y-58320044D01*
X123554955Y-58320047D01*
X123670164Y-58406293D01*
X123670171Y-58406297D01*
X123805017Y-58456591D01*
X123805016Y-58456591D01*
X123811944Y-58457335D01*
X123864627Y-58463000D01*
X124946717Y-58462999D01*
X125013756Y-58482684D01*
X125034398Y-58499318D01*
X129169735Y-62634655D01*
X129169764Y-62634686D01*
X129312214Y-62777136D01*
X129312218Y-62777139D01*
X129476079Y-62886628D01*
X129476083Y-62886630D01*
X129476086Y-62886632D01*
X129601049Y-62938393D01*
X129658164Y-62962051D01*
X129754812Y-62981275D01*
X129803135Y-62990887D01*
X129851458Y-63000500D01*
X129851459Y-63000500D01*
X129851460Y-63000500D01*
X130048540Y-63000500D01*
X141565521Y-63000500D01*
X141632560Y-63020185D01*
X141678315Y-63072989D01*
X141688259Y-63142147D01*
X141668623Y-63193391D01*
X141613371Y-63276080D01*
X141613364Y-63276093D01*
X141577691Y-63362218D01*
X141577691Y-63362219D01*
X141537949Y-63458163D01*
X141537947Y-63458171D01*
X141518824Y-63554311D01*
X141518824Y-63554312D01*
X141499500Y-63651456D01*
X141499500Y-63651459D01*
X141499500Y-78348541D01*
X141499500Y-78348543D01*
X141499499Y-78348543D01*
X141537947Y-78541829D01*
X141537950Y-78541839D01*
X141613364Y-78723907D01*
X141613371Y-78723920D01*
X141722859Y-78887780D01*
X141722860Y-78887781D01*
X141722861Y-78887782D01*
X141862218Y-79027139D01*
X141862219Y-79027139D01*
X141869286Y-79034206D01*
X141869285Y-79034206D01*
X141869289Y-79034209D01*
X146213181Y-83378101D01*
X146246666Y-83439424D01*
X146249500Y-83465782D01*
X146249500Y-99848541D01*
X146249500Y-99848543D01*
X146249499Y-99848543D01*
X146287947Y-100041829D01*
X146287950Y-100041839D01*
X146363364Y-100223907D01*
X146363371Y-100223920D01*
X146472859Y-100387780D01*
X146472860Y-100387781D01*
X146472861Y-100387782D01*
X146612218Y-100527139D01*
X146612219Y-100527139D01*
X146619286Y-100534206D01*
X146619285Y-100534206D01*
X146619289Y-100534209D01*
X152213181Y-106128101D01*
X152246666Y-106189424D01*
X152249500Y-106215782D01*
X152249500Y-120534217D01*
X152229815Y-120601256D01*
X152213181Y-120621898D01*
X148612220Y-124222859D01*
X148612218Y-124222861D01*
X148542538Y-124292540D01*
X148472859Y-124362219D01*
X148363371Y-124526079D01*
X148363366Y-124526089D01*
X148310038Y-124654831D01*
X148310038Y-124654834D01*
X148293306Y-124695233D01*
X148287947Y-124708171D01*
X148287946Y-124708173D01*
X148249500Y-124901454D01*
X148249500Y-129418103D01*
X148229815Y-129485142D01*
X148177011Y-129530897D01*
X148107853Y-129540841D01*
X148044297Y-129511816D01*
X148018628Y-129480987D01*
X145732287Y-125595317D01*
X142131448Y-119475640D01*
X143319500Y-119475640D01*
X143343993Y-119661678D01*
X143350992Y-119714834D01*
X143413436Y-119947878D01*
X143413439Y-119947888D01*
X143505762Y-120170775D01*
X143505767Y-120170786D01*
X143626392Y-120379713D01*
X143626403Y-120379729D01*
X143773268Y-120571128D01*
X143773274Y-120571135D01*
X143943864Y-120741725D01*
X143943870Y-120741730D01*
X144135279Y-120888603D01*
X144135286Y-120888607D01*
X144344213Y-121009232D01*
X144344218Y-121009234D01*
X144344221Y-121009236D01*
X144484779Y-121067457D01*
X144559815Y-121098538D01*
X144567121Y-121101564D01*
X144800166Y-121164008D01*
X145039367Y-121195500D01*
X145039374Y-121195500D01*
X145280626Y-121195500D01*
X145280633Y-121195500D01*
X145519834Y-121164008D01*
X145752879Y-121101564D01*
X145975779Y-121009236D01*
X146184721Y-120888603D01*
X146376130Y-120741730D01*
X146546730Y-120571130D01*
X146693603Y-120379721D01*
X146814236Y-120170779D01*
X146906564Y-119947879D01*
X146969008Y-119714834D01*
X147000500Y-119475633D01*
X147000500Y-119234367D01*
X146969008Y-118995166D01*
X146906564Y-118762121D01*
X146814236Y-118539221D01*
X146814234Y-118539218D01*
X146814232Y-118539213D01*
X146693607Y-118330286D01*
X146693603Y-118330279D01*
X146546730Y-118138870D01*
X146546725Y-118138864D01*
X146376135Y-117968274D01*
X146376128Y-117968268D01*
X146184729Y-117821403D01*
X146184727Y-117821401D01*
X146184721Y-117821397D01*
X146184716Y-117821394D01*
X146184713Y-117821392D01*
X145975786Y-117700767D01*
X145975775Y-117700762D01*
X145752888Y-117608439D01*
X145752881Y-117608437D01*
X145752879Y-117608436D01*
X145519834Y-117545992D01*
X145466678Y-117538993D01*
X145280640Y-117514500D01*
X145280633Y-117514500D01*
X145039367Y-117514500D01*
X145039359Y-117514500D01*
X144826743Y-117542492D01*
X144800166Y-117545992D01*
X144567121Y-117608436D01*
X144567111Y-117608439D01*
X144344224Y-117700762D01*
X144344213Y-117700767D01*
X144135286Y-117821392D01*
X144135270Y-117821403D01*
X143943871Y-117968268D01*
X143943864Y-117968274D01*
X143773274Y-118138864D01*
X143773268Y-118138871D01*
X143626403Y-118330270D01*
X143626392Y-118330286D01*
X143505767Y-118539213D01*
X143505762Y-118539224D01*
X143413439Y-118762111D01*
X143413436Y-118762121D01*
X143350992Y-118995167D01*
X143319500Y-119234359D01*
X143319500Y-119475640D01*
X142131448Y-119475640D01*
X137982831Y-112425005D01*
X140254493Y-112425005D01*
X140274247Y-112739004D01*
X140274248Y-112739011D01*
X140333207Y-113048083D01*
X140430434Y-113347316D01*
X140430436Y-113347321D01*
X140564398Y-113632003D01*
X140564401Y-113632009D01*
X140732988Y-113897661D01*
X140732991Y-113897665D01*
X140933543Y-114140090D01*
X140933545Y-114140092D01*
X141162905Y-114355476D01*
X141162915Y-114355484D01*
X141417441Y-114540408D01*
X141417446Y-114540410D01*
X141417453Y-114540416D01*
X141693171Y-114691994D01*
X141693176Y-114691996D01*
X141693178Y-114691997D01*
X141693179Y-114691998D01*
X141985708Y-114807818D01*
X141985711Y-114807819D01*
X142290460Y-114886065D01*
X142290464Y-114886066D01*
X142355947Y-114894338D01*
X142602607Y-114925499D01*
X142602616Y-114925499D01*
X142602619Y-114925500D01*
X142602621Y-114925500D01*
X142917253Y-114925500D01*
X142917255Y-114925500D01*
X142917258Y-114925499D01*
X142917266Y-114925499D01*
X143103530Y-114901968D01*
X143229410Y-114886066D01*
X143534162Y-114807819D01*
X143534165Y-114807818D01*
X143826694Y-114691998D01*
X143826695Y-114691997D01*
X143826693Y-114691997D01*
X143826703Y-114691994D01*
X144102421Y-114540416D01*
X144356967Y-114355478D01*
X144586327Y-114140094D01*
X144786884Y-113897663D01*
X144955474Y-113632007D01*
X145089440Y-113347315D01*
X145186668Y-113048079D01*
X145245625Y-112739015D01*
X145265381Y-112425000D01*
X145245625Y-112110985D01*
X145186668Y-111801921D01*
X145089440Y-111502685D01*
X144955474Y-111217993D01*
X144786884Y-110952337D01*
X144786882Y-110952334D01*
X144586330Y-110709909D01*
X144586328Y-110709907D01*
X144356968Y-110494523D01*
X144356958Y-110494515D01*
X144102432Y-110309591D01*
X144102425Y-110309586D01*
X144102421Y-110309584D01*
X143826703Y-110158006D01*
X143826700Y-110158004D01*
X143826695Y-110158002D01*
X143826694Y-110158001D01*
X143534165Y-110042181D01*
X143534162Y-110042180D01*
X143229413Y-109963934D01*
X143229400Y-109963932D01*
X142917266Y-109924500D01*
X142917255Y-109924500D01*
X142602619Y-109924500D01*
X142602607Y-109924500D01*
X142290473Y-109963932D01*
X142290460Y-109963934D01*
X141985711Y-110042180D01*
X141985708Y-110042181D01*
X141693179Y-110158001D01*
X141693178Y-110158002D01*
X141417453Y-110309584D01*
X141417441Y-110309591D01*
X141162915Y-110494515D01*
X141162905Y-110494523D01*
X140933545Y-110709907D01*
X140933543Y-110709909D01*
X140732991Y-110952334D01*
X140732988Y-110952338D01*
X140564401Y-111217990D01*
X140564398Y-111217996D01*
X140430436Y-111502678D01*
X140430434Y-111502683D01*
X140333207Y-111801916D01*
X140274248Y-112110988D01*
X140274247Y-112110995D01*
X140254493Y-112424994D01*
X140254493Y-112425005D01*
X137982831Y-112425005D01*
X135824439Y-108756787D01*
X135807408Y-108689028D01*
X135829715Y-108622815D01*
X135875668Y-108585393D01*
X135874742Y-108583610D01*
X135878669Y-108581570D01*
X135878675Y-108581568D01*
X137609028Y-107520008D01*
X137653308Y-107503421D01*
X137718446Y-107492468D01*
X137718446Y-107492467D01*
X137718451Y-107492467D01*
X137773279Y-107468212D01*
X141147093Y-105520339D01*
X141195514Y-105484984D01*
X141287148Y-105374003D01*
X141343802Y-105241701D01*
X141360889Y-105098797D01*
X141337022Y-104956868D01*
X141312767Y-104902040D01*
X141087902Y-104512563D01*
X140779362Y-103978155D01*
X140762889Y-103910255D01*
X140785742Y-103844228D01*
X140840663Y-103801037D01*
X140910216Y-103794396D01*
X140971633Y-103825763D01*
X140993032Y-103845858D01*
X140993042Y-103845866D01*
X141247568Y-104030790D01*
X141247573Y-104030792D01*
X141247580Y-104030798D01*
X141523298Y-104182376D01*
X141523303Y-104182378D01*
X141523305Y-104182379D01*
X141523306Y-104182380D01*
X141815835Y-104298200D01*
X141815838Y-104298201D01*
X142120587Y-104376447D01*
X142120591Y-104376448D01*
X142186074Y-104384720D01*
X142432734Y-104415881D01*
X142432743Y-104415881D01*
X142432746Y-104415882D01*
X142432748Y-104415882D01*
X142747380Y-104415882D01*
X142747382Y-104415882D01*
X142747385Y-104415881D01*
X142747393Y-104415881D01*
X142933657Y-104392350D01*
X143059537Y-104376448D01*
X143364289Y-104298201D01*
X143364292Y-104298200D01*
X143656821Y-104182380D01*
X143656822Y-104182379D01*
X143656820Y-104182379D01*
X143656830Y-104182376D01*
X143932548Y-104030798D01*
X144187094Y-103845860D01*
X144416454Y-103630476D01*
X144617011Y-103388045D01*
X144785601Y-103122389D01*
X144919567Y-102837697D01*
X145016795Y-102538461D01*
X145075752Y-102229397D01*
X145075753Y-102229386D01*
X145095508Y-101915387D01*
X145095508Y-101915376D01*
X145075753Y-101601377D01*
X145075752Y-101601370D01*
X145075752Y-101601367D01*
X145016795Y-101292303D01*
X144919567Y-100993067D01*
X144785601Y-100708375D01*
X144670586Y-100527140D01*
X144617012Y-100442720D01*
X144617009Y-100442716D01*
X144416457Y-100200291D01*
X144416455Y-100200289D01*
X144187095Y-99984905D01*
X144187085Y-99984897D01*
X143932559Y-99799973D01*
X143932552Y-99799968D01*
X143932548Y-99799966D01*
X143656830Y-99648388D01*
X143656827Y-99648386D01*
X143656822Y-99648384D01*
X143656821Y-99648383D01*
X143364292Y-99532563D01*
X143364289Y-99532562D01*
X143059540Y-99454316D01*
X143059527Y-99454314D01*
X142747393Y-99414882D01*
X142747382Y-99414882D01*
X142432746Y-99414882D01*
X142432734Y-99414882D01*
X142120600Y-99454314D01*
X142120587Y-99454316D01*
X141815838Y-99532562D01*
X141815835Y-99532563D01*
X141523306Y-99648383D01*
X141523305Y-99648384D01*
X141247580Y-99799966D01*
X141247568Y-99799973D01*
X140993042Y-99984897D01*
X140993032Y-99984905D01*
X140763672Y-100200289D01*
X140763670Y-100200291D01*
X140563118Y-100442716D01*
X140563115Y-100442720D01*
X140394528Y-100708372D01*
X140394525Y-100708378D01*
X140260563Y-100993060D01*
X140260561Y-100993065D01*
X140163334Y-101292298D01*
X140104375Y-101601370D01*
X140104374Y-101601377D01*
X140084620Y-101915376D01*
X140084620Y-101915387D01*
X140104374Y-102229386D01*
X140104375Y-102229393D01*
X140104376Y-102229397D01*
X140128430Y-102355494D01*
X140132137Y-102374923D01*
X140125363Y-102444463D01*
X140082068Y-102499302D01*
X140015997Y-102522029D01*
X139948129Y-102505427D01*
X139902946Y-102460158D01*
X139364894Y-101528226D01*
X139364892Y-101528222D01*
X139345175Y-101501220D01*
X139329539Y-101479805D01*
X139308295Y-101462264D01*
X139279745Y-101428450D01*
X139265564Y-101403783D01*
X137603455Y-98512737D01*
X137588673Y-98471496D01*
X137587022Y-98461677D01*
X137587021Y-98461675D01*
X137587021Y-98461673D01*
X137562769Y-98406853D01*
X137562765Y-98406844D01*
X137029362Y-97482964D01*
X137012889Y-97415064D01*
X137035742Y-97349037D01*
X137090663Y-97305846D01*
X137160216Y-97299205D01*
X137221633Y-97330572D01*
X137243032Y-97350667D01*
X137243042Y-97350675D01*
X137497568Y-97535599D01*
X137497573Y-97535601D01*
X137497580Y-97535607D01*
X137773298Y-97687185D01*
X137773303Y-97687187D01*
X137773305Y-97687188D01*
X137773306Y-97687189D01*
X138065835Y-97803009D01*
X138065838Y-97803010D01*
X138370587Y-97881256D01*
X138370591Y-97881257D01*
X138436074Y-97889529D01*
X138682734Y-97920690D01*
X138682743Y-97920690D01*
X138682746Y-97920691D01*
X138682748Y-97920691D01*
X138997380Y-97920691D01*
X138997382Y-97920691D01*
X138997385Y-97920690D01*
X138997393Y-97920690D01*
X139183657Y-97897159D01*
X139309537Y-97881257D01*
X139614289Y-97803010D01*
X139614292Y-97803009D01*
X139906821Y-97687189D01*
X139906822Y-97687188D01*
X139906820Y-97687188D01*
X139906830Y-97687185D01*
X140182548Y-97535607D01*
X140437094Y-97350669D01*
X140666454Y-97135285D01*
X140867011Y-96892854D01*
X141035601Y-96627198D01*
X141169567Y-96342506D01*
X141266795Y-96043270D01*
X141325752Y-95734206D01*
X141325774Y-95733865D01*
X141329193Y-95679512D01*
X141353047Y-95613840D01*
X141365260Y-95599622D01*
X143571123Y-93393761D01*
X143607288Y-93353500D01*
X143623922Y-93332858D01*
X143655567Y-93288974D01*
X143715338Y-93158097D01*
X143735023Y-93091058D01*
X143735024Y-93091054D01*
X143755500Y-92948638D01*
X143755500Y-81801362D01*
X143752603Y-81747322D01*
X143749769Y-81720964D01*
X143741114Y-81667552D01*
X143690832Y-81532743D01*
X143657347Y-81471420D01*
X143571123Y-81356239D01*
X143571118Y-81356234D01*
X143571113Y-81356228D01*
X135893776Y-73678892D01*
X135893770Y-73678886D01*
X135893761Y-73678877D01*
X135893737Y-73678855D01*
X135853519Y-73642728D01*
X135853507Y-73642718D01*
X135832856Y-73626076D01*
X135788974Y-73594433D01*
X135658100Y-73534663D01*
X135591055Y-73514976D01*
X135543582Y-73508150D01*
X135448638Y-73494500D01*
X133223938Y-73494500D01*
X133156899Y-73474815D01*
X133111144Y-73422011D01*
X133101200Y-73352853D01*
X133130225Y-73289297D01*
X133164921Y-73261445D01*
X133236003Y-73222977D01*
X133236005Y-73222976D01*
X133236004Y-73222976D01*
X133236009Y-73222974D01*
X133432244Y-73070238D01*
X133600664Y-72887285D01*
X133736673Y-72679107D01*
X133836563Y-72451381D01*
X133897608Y-72210321D01*
X133898032Y-72205204D01*
X133918143Y-71962505D01*
X133918143Y-71962494D01*
X133897609Y-71714687D01*
X133897607Y-71714675D01*
X133836563Y-71473618D01*
X133736673Y-71245893D01*
X133600666Y-71037717D01*
X133579057Y-71014244D01*
X133432244Y-70854762D01*
X133236009Y-70702026D01*
X133236007Y-70702025D01*
X133236006Y-70702024D01*
X133017311Y-70583672D01*
X133017302Y-70583669D01*
X132782116Y-70502929D01*
X132536835Y-70462000D01*
X132288165Y-70462000D01*
X132042883Y-70502929D01*
X131807697Y-70583669D01*
X131807688Y-70583672D01*
X131588993Y-70702024D01*
X131392757Y-70854761D01*
X131224333Y-71037717D01*
X131088326Y-71245893D01*
X130988436Y-71473618D01*
X130927392Y-71714675D01*
X130927390Y-71714687D01*
X130906857Y-71962494D01*
X130906857Y-71962505D01*
X130927390Y-72210312D01*
X130927392Y-72210324D01*
X130988436Y-72451381D01*
X131088326Y-72679106D01*
X131224333Y-72887282D01*
X131224336Y-72887285D01*
X131392756Y-73070238D01*
X131588991Y-73222974D01*
X131588994Y-73222976D01*
X131588996Y-73222977D01*
X131660079Y-73261445D01*
X131709670Y-73310664D01*
X131724778Y-73378881D01*
X131700608Y-73444437D01*
X131644832Y-73486518D01*
X131601062Y-73494500D01*
X125723938Y-73494500D01*
X125656899Y-73474815D01*
X125611144Y-73422011D01*
X125601200Y-73352853D01*
X125630225Y-73289297D01*
X125664921Y-73261445D01*
X125736003Y-73222977D01*
X125736005Y-73222976D01*
X125736004Y-73222976D01*
X125736009Y-73222974D01*
X125932244Y-73070238D01*
X126100664Y-72887285D01*
X126236673Y-72679107D01*
X126336563Y-72451381D01*
X126397608Y-72210321D01*
X126398032Y-72205204D01*
X126418143Y-71962505D01*
X126418143Y-71962494D01*
X126397609Y-71714687D01*
X126397607Y-71714675D01*
X126336563Y-71473618D01*
X126236673Y-71245893D01*
X126100666Y-71037717D01*
X126079057Y-71014244D01*
X125932244Y-70854762D01*
X125736009Y-70702026D01*
X125736007Y-70702025D01*
X125736006Y-70702024D01*
X125517311Y-70583672D01*
X125517302Y-70583669D01*
X125282116Y-70502929D01*
X125036835Y-70462000D01*
X124788165Y-70462000D01*
X124542883Y-70502929D01*
X124307697Y-70583669D01*
X124307688Y-70583672D01*
X124088993Y-70702024D01*
X123892757Y-70854761D01*
X123724333Y-71037717D01*
X123588326Y-71245893D01*
X123488436Y-71473618D01*
X123427392Y-71714675D01*
X123427390Y-71714687D01*
X123406857Y-71962494D01*
X123406857Y-71962505D01*
X123427390Y-72210312D01*
X123427392Y-72210324D01*
X123488436Y-72451381D01*
X123588326Y-72679106D01*
X123724333Y-72887282D01*
X123724336Y-72887285D01*
X123892756Y-73070238D01*
X124088991Y-73222974D01*
X124088994Y-73222976D01*
X124088996Y-73222977D01*
X124160079Y-73261445D01*
X124209670Y-73310664D01*
X124224778Y-73378881D01*
X124200608Y-73444437D01*
X124144832Y-73486518D01*
X124101062Y-73494500D01*
X124051360Y-73494500D01*
X123997311Y-73497397D01*
X123997310Y-73497397D01*
X123970977Y-73500229D01*
X123970950Y-73500232D01*
X123917554Y-73508885D01*
X123917552Y-73508885D01*
X123782747Y-73559166D01*
X123721422Y-73592651D01*
X123606240Y-73678876D01*
X123606228Y-73678886D01*
X123178892Y-74106223D01*
X123178855Y-74106262D01*
X123142728Y-74146480D01*
X123142718Y-74146492D01*
X123126076Y-74167143D01*
X123094433Y-74211025D01*
X123034663Y-74341899D01*
X123014976Y-74408944D01*
X122994500Y-74551363D01*
X122994500Y-79198640D01*
X122997397Y-79252688D01*
X122997397Y-79252689D01*
X123000229Y-79279022D01*
X123000232Y-79279049D01*
X123008885Y-79332445D01*
X123008885Y-79332447D01*
X123059166Y-79467252D01*
X123059168Y-79467257D01*
X123092653Y-79528580D01*
X123178877Y-79643761D01*
X123178881Y-79643765D01*
X123178886Y-79643771D01*
X123447434Y-79912319D01*
X123480919Y-79973642D01*
X123475935Y-80043334D01*
X123447434Y-80087681D01*
X123178892Y-80356223D01*
X123178855Y-80356262D01*
X123142728Y-80396480D01*
X123142718Y-80396492D01*
X123126076Y-80417143D01*
X123094433Y-80461025D01*
X123034663Y-80591899D01*
X123014976Y-80658944D01*
X122994500Y-80801363D01*
X122994500Y-87448640D01*
X122997397Y-87502688D01*
X122997397Y-87502689D01*
X123000229Y-87529022D01*
X123000232Y-87529049D01*
X123008885Y-87582445D01*
X123008885Y-87582447D01*
X123049286Y-87690763D01*
X123059168Y-87717257D01*
X123092653Y-87778580D01*
X123178877Y-87893761D01*
X123178881Y-87893765D01*
X123178886Y-87893771D01*
X123554876Y-88269760D01*
X123588361Y-88331083D01*
X123583377Y-88400774D01*
X123554876Y-88445122D01*
X123359946Y-88640051D01*
X123298623Y-88673536D01*
X123230175Y-88669008D01*
X123029473Y-88596582D01*
X123029472Y-88596581D01*
X123029470Y-88596581D01*
X123029465Y-88596579D01*
X123029462Y-88596579D01*
X122692239Y-88517308D01*
X122692237Y-88517307D01*
X122692234Y-88517307D01*
X122348112Y-88477404D01*
X122174898Y-88474946D01*
X122174865Y-88474946D01*
X116072162Y-88474946D01*
X116070780Y-88474938D01*
X115858022Y-88472566D01*
X115848597Y-88472102D01*
X115423953Y-88434951D01*
X115413228Y-88433539D01*
X114994126Y-88359640D01*
X114983565Y-88357299D01*
X114624335Y-88261045D01*
X114572488Y-88247152D01*
X114562186Y-88243904D01*
X114162258Y-88098343D01*
X114152280Y-88094209D01*
X113766580Y-87914356D01*
X113756985Y-87909361D01*
X113388427Y-87696575D01*
X113379304Y-87690763D01*
X113030696Y-87446667D01*
X113022114Y-87440082D01*
X112696110Y-87166535D01*
X112688134Y-87159226D01*
X112387202Y-86858295D01*
X112379894Y-86850320D01*
X112106343Y-86524319D01*
X112099758Y-86515737D01*
X111895423Y-86223920D01*
X111855661Y-86167135D01*
X111849852Y-86158018D01*
X111782774Y-86041837D01*
X111637048Y-85789436D01*
X111632070Y-85779874D01*
X111452208Y-85394164D01*
X111448070Y-85384173D01*
X111302513Y-84984267D01*
X111299260Y-84973951D01*
X111189108Y-84562873D01*
X111186767Y-84552311D01*
X111112866Y-84133214D01*
X111111454Y-84122489D01*
X111074301Y-83697869D01*
X111073836Y-83688414D01*
X111071513Y-83475586D01*
X111071506Y-83474233D01*
X111071506Y-54667774D01*
X111071513Y-54666452D01*
X111073781Y-54453659D01*
X111074246Y-54444172D01*
X111111403Y-54019539D01*
X111112809Y-54008864D01*
X111186723Y-53589716D01*
X111189063Y-53579166D01*
X111299216Y-53168095D01*
X111302464Y-53157792D01*
X111448038Y-52757849D01*
X111452159Y-52747900D01*
X111632039Y-52362159D01*
X111637005Y-52352618D01*
X111849820Y-51984024D01*
X111855624Y-51974916D01*
X112099729Y-51626305D01*
X112106301Y-51617737D01*
X112379891Y-51291693D01*
X112387176Y-51283744D01*
X112688119Y-50982807D01*
X112696072Y-50975519D01*
X113022097Y-50701955D01*
X113030663Y-50695382D01*
X113379302Y-50451267D01*
X113388408Y-50445466D01*
X113756999Y-50232664D01*
X113766555Y-50227691D01*
X114152285Y-50047825D01*
X114162240Y-50043700D01*
X114562176Y-49898138D01*
X114572485Y-49894888D01*
X114983578Y-49784737D01*
X114994116Y-49782401D01*
X115413238Y-49708500D01*
X115423949Y-49707089D01*
X115848591Y-49669939D01*
X115858022Y-49669475D01*
X116070864Y-49667155D01*
X116072216Y-49667148D01*
X208070649Y-49667148D01*
X208072364Y-49667160D01*
G37*
%TD.AperFunction*%
%TA.AperFunction,Conductor*%
G36*
X152228590Y-130723522D02*
G01*
X152336633Y-130773904D01*
X152564888Y-130835064D01*
X152790553Y-130854807D01*
X152855621Y-130880259D01*
X152896600Y-130936850D01*
X152900478Y-131006612D01*
X152892127Y-131030740D01*
X152796394Y-131236040D01*
X152796391Y-131236046D01*
X152768416Y-131340453D01*
X152732051Y-131400113D01*
X152669204Y-131430642D01*
X152599828Y-131422347D01*
X152560960Y-131396040D01*
X152088506Y-130923586D01*
X152055021Y-130862263D01*
X152060005Y-130792571D01*
X152101877Y-130736638D01*
X152167341Y-130712221D01*
X152228590Y-130723522D01*
G37*
%TD.AperFunction*%
%TA.AperFunction,Conductor*%
G36*
X154331028Y-129408166D02*
G01*
X154536337Y-129503904D01*
X154764592Y-129565064D01*
X154990258Y-129584807D01*
X155055326Y-129610259D01*
X155096305Y-129666850D01*
X155100183Y-129736612D01*
X155091832Y-129760740D01*
X154996099Y-129966040D01*
X154996095Y-129966049D01*
X154934939Y-130194291D01*
X154934937Y-130194301D01*
X154915194Y-130419962D01*
X154889741Y-130485030D01*
X154833150Y-130526009D01*
X154763388Y-130529887D01*
X154739261Y-130521536D01*
X154660973Y-130485030D01*
X154533959Y-130425802D01*
X154533955Y-130425801D01*
X154533951Y-130425799D01*
X154305709Y-130364643D01*
X154305699Y-130364641D01*
X154080038Y-130344898D01*
X154014970Y-130319445D01*
X153973991Y-130262854D01*
X153970113Y-130193092D01*
X153978460Y-130168975D01*
X154074199Y-129963664D01*
X154135359Y-129735409D01*
X154155102Y-129509742D01*
X154180554Y-129444675D01*
X154237145Y-129403696D01*
X154306907Y-129399818D01*
X154331028Y-129408166D01*
G37*
%TD.AperFunction*%
%TA.AperFunction,Conductor*%
G36*
X153894855Y-92666546D02*
G01*
X153911575Y-92685842D01*
X154041500Y-92871395D01*
X154041505Y-92871401D01*
X154208599Y-93038495D01*
X154208601Y-93038496D01*
X154208603Y-93038498D01*
X154394158Y-93168425D01*
X154437783Y-93223002D01*
X154444977Y-93292500D01*
X154413454Y-93354855D01*
X154394158Y-93371575D01*
X154208597Y-93501505D01*
X154041505Y-93668597D01*
X153911575Y-93854158D01*
X153856998Y-93897783D01*
X153787500Y-93904977D01*
X153725145Y-93873454D01*
X153708425Y-93854158D01*
X153578494Y-93668597D01*
X153411402Y-93501506D01*
X153411396Y-93501501D01*
X153225842Y-93371575D01*
X153182217Y-93316998D01*
X153175023Y-93247500D01*
X153206546Y-93185145D01*
X153225842Y-93168425D01*
X153296832Y-93118717D01*
X153411401Y-93038495D01*
X153578495Y-92871401D01*
X153708425Y-92685842D01*
X153763002Y-92642217D01*
X153832500Y-92635023D01*
X153894855Y-92666546D01*
G37*
%TD.AperFunction*%
%TA.AperFunction,Conductor*%
G36*
X161514855Y-92666546D02*
G01*
X161531575Y-92685842D01*
X161661500Y-92871395D01*
X161661505Y-92871401D01*
X161828599Y-93038495D01*
X161828601Y-93038496D01*
X161828603Y-93038498D01*
X162014158Y-93168425D01*
X162057783Y-93223002D01*
X162064977Y-93292500D01*
X162033454Y-93354855D01*
X162014158Y-93371575D01*
X161828597Y-93501505D01*
X161661505Y-93668597D01*
X161531575Y-93854158D01*
X161476998Y-93897783D01*
X161407500Y-93904977D01*
X161345145Y-93873454D01*
X161328425Y-93854158D01*
X161198494Y-93668597D01*
X161031402Y-93501506D01*
X161031396Y-93501501D01*
X160845842Y-93371575D01*
X160802217Y-93316998D01*
X160795023Y-93247500D01*
X160826546Y-93185145D01*
X160845842Y-93168425D01*
X160916832Y-93118717D01*
X161031401Y-93038495D01*
X161198495Y-92871401D01*
X161328425Y-92685842D01*
X161383002Y-92642217D01*
X161452500Y-92635023D01*
X161514855Y-92666546D01*
G37*
%TD.AperFunction*%
%TA.AperFunction,Conductor*%
G36*
X151354855Y-92666546D02*
G01*
X151371575Y-92685842D01*
X151501500Y-92871395D01*
X151501505Y-92871401D01*
X151668599Y-93038495D01*
X151668601Y-93038496D01*
X151668603Y-93038498D01*
X151854158Y-93168425D01*
X151897783Y-93223002D01*
X151904977Y-93292500D01*
X151873454Y-93354855D01*
X151854158Y-93371575D01*
X151668600Y-93501503D01*
X151546673Y-93623430D01*
X151485350Y-93656914D01*
X151415658Y-93651930D01*
X151359725Y-93610058D01*
X151342810Y-93579081D01*
X151293797Y-93447671D01*
X151293793Y-93447664D01*
X151207547Y-93332455D01*
X151207544Y-93332452D01*
X151092335Y-93246206D01*
X151092328Y-93246202D01*
X150960917Y-93197189D01*
X150904983Y-93155318D01*
X150880566Y-93089853D01*
X150895418Y-93021580D01*
X150916563Y-92993332D01*
X151038495Y-92871401D01*
X151168425Y-92685842D01*
X151223002Y-92642217D01*
X151292500Y-92635023D01*
X151354855Y-92666546D01*
G37*
%TD.AperFunction*%
%TA.AperFunction,Conductor*%
G36*
X169134855Y-92666546D02*
G01*
X169151575Y-92685842D01*
X169281500Y-92871395D01*
X169281505Y-92871401D01*
X169448599Y-93038495D01*
X169448601Y-93038496D01*
X169448603Y-93038498D01*
X169634158Y-93168425D01*
X169677783Y-93223002D01*
X169684977Y-93292500D01*
X169653454Y-93354855D01*
X169634158Y-93371575D01*
X169448597Y-93501505D01*
X169281505Y-93668597D01*
X169151575Y-93854158D01*
X169096998Y-93897783D01*
X169027500Y-93904977D01*
X168965145Y-93873454D01*
X168948425Y-93854158D01*
X168818494Y-93668597D01*
X168651402Y-93501506D01*
X168651396Y-93501501D01*
X168465842Y-93371575D01*
X168422217Y-93316998D01*
X168415023Y-93247500D01*
X168446546Y-93185145D01*
X168465842Y-93168425D01*
X168536832Y-93118717D01*
X168651401Y-93038495D01*
X168818495Y-92871401D01*
X168948425Y-92685842D01*
X169003002Y-92642217D01*
X169072500Y-92635023D01*
X169134855Y-92666546D01*
G37*
%TD.AperFunction*%
%TA.AperFunction,Conductor*%
G36*
X187101257Y-63020185D02*
G01*
X187121899Y-63036819D01*
X188463181Y-64378101D01*
X188496666Y-64439424D01*
X188499500Y-64465782D01*
X188499500Y-85848544D01*
X188537947Y-86041833D01*
X188537949Y-86041837D01*
X188560038Y-86095164D01*
X188613366Y-86223911D01*
X188613371Y-86223920D01*
X188722860Y-86387781D01*
X188722863Y-86387785D01*
X188866537Y-86531459D01*
X188866559Y-86531479D01*
X192143181Y-89808101D01*
X192176666Y-89869424D01*
X192179500Y-89895782D01*
X192179500Y-91039241D01*
X192159815Y-91106280D01*
X192143181Y-91126922D01*
X192141505Y-91128597D01*
X192011575Y-91314158D01*
X191956998Y-91357783D01*
X191887500Y-91364977D01*
X191825145Y-91333454D01*
X191808425Y-91314158D01*
X191678494Y-91128597D01*
X191511402Y-90961506D01*
X191511395Y-90961501D01*
X191317834Y-90825967D01*
X191317830Y-90825965D01*
X191270756Y-90804014D01*
X191103663Y-90726097D01*
X191103659Y-90726096D01*
X191103655Y-90726094D01*
X190875413Y-90664938D01*
X190875403Y-90664936D01*
X190640001Y-90644341D01*
X190639999Y-90644341D01*
X190404596Y-90664936D01*
X190404586Y-90664938D01*
X190176344Y-90726094D01*
X190176335Y-90726098D01*
X189962171Y-90825964D01*
X189962169Y-90825965D01*
X189768597Y-90961505D01*
X189601505Y-91128597D01*
X189465965Y-91322169D01*
X189465964Y-91322171D01*
X189366098Y-91536335D01*
X189366094Y-91536344D01*
X189304938Y-91764586D01*
X189304936Y-91764596D01*
X189284341Y-91999999D01*
X189284341Y-92000000D01*
X189304936Y-92235403D01*
X189304938Y-92235413D01*
X189367368Y-92468407D01*
X189365705Y-92538257D01*
X189326542Y-92596119D01*
X189262314Y-92623623D01*
X189247593Y-92624500D01*
X187120452Y-92624500D01*
X187053413Y-92604815D01*
X187032771Y-92588181D01*
X186900237Y-92455647D01*
X186866752Y-92394324D01*
X186868143Y-92335872D01*
X186895063Y-92235408D01*
X186915659Y-92000000D01*
X186895063Y-91764592D01*
X186833903Y-91536337D01*
X186734035Y-91322171D01*
X186728425Y-91314158D01*
X186598494Y-91128597D01*
X186431402Y-90961506D01*
X186431395Y-90961501D01*
X186237834Y-90825967D01*
X186237830Y-90825965D01*
X186190756Y-90804014D01*
X186023663Y-90726097D01*
X186023659Y-90726096D01*
X186023655Y-90726094D01*
X185795413Y-90664938D01*
X185795403Y-90664936D01*
X185560001Y-90644341D01*
X185559999Y-90644341D01*
X185324596Y-90664936D01*
X185324586Y-90664938D01*
X185096344Y-90726094D01*
X185096335Y-90726098D01*
X184882171Y-90825964D01*
X184882169Y-90825965D01*
X184688597Y-90961505D01*
X184521505Y-91128597D01*
X184391575Y-91314158D01*
X184336998Y-91357783D01*
X184267500Y-91364977D01*
X184205145Y-91333454D01*
X184188425Y-91314158D01*
X184058494Y-91128597D01*
X183891402Y-90961506D01*
X183891395Y-90961501D01*
X183697834Y-90825967D01*
X183697830Y-90825965D01*
X183650756Y-90804014D01*
X183483663Y-90726097D01*
X183483659Y-90726096D01*
X183483655Y-90726094D01*
X183255413Y-90664938D01*
X183255403Y-90664936D01*
X183020001Y-90644341D01*
X183019999Y-90644341D01*
X182784596Y-90664936D01*
X182784586Y-90664938D01*
X182556344Y-90726094D01*
X182556335Y-90726098D01*
X182342171Y-90825964D01*
X182342169Y-90825965D01*
X182148597Y-90961505D01*
X181981505Y-91128597D01*
X181845965Y-91322169D01*
X181845964Y-91322171D01*
X181746098Y-91536335D01*
X181746094Y-91536344D01*
X181684938Y-91764586D01*
X181684936Y-91764596D01*
X181664341Y-91999999D01*
X181664341Y-92000000D01*
X181684936Y-92235403D01*
X181684938Y-92235413D01*
X181711856Y-92335872D01*
X181710193Y-92405722D01*
X181679762Y-92455646D01*
X181323806Y-92811603D01*
X181206270Y-92929139D01*
X181206267Y-92929142D01*
X181168473Y-92966936D01*
X181119144Y-93016264D01*
X181119142Y-93016267D01*
X181104290Y-93038495D01*
X181104289Y-93038497D01*
X181104288Y-93038496D01*
X181050686Y-93118717D01*
X181050685Y-93118718D01*
X181021368Y-93189500D01*
X181017347Y-93199207D01*
X181011823Y-93212543D01*
X181003537Y-93232545D01*
X181003535Y-93232553D01*
X180979500Y-93353389D01*
X180979500Y-101161405D01*
X180959815Y-101228444D01*
X180907011Y-101274199D01*
X180869384Y-101284625D01*
X180837544Y-101288212D01*
X180683225Y-101342210D01*
X180544795Y-101429192D01*
X180429192Y-101544795D01*
X180342210Y-101683225D01*
X180288212Y-101837544D01*
X180269909Y-101999995D01*
X180269909Y-101999996D01*
X180269909Y-102000000D01*
X180270869Y-102008517D01*
X180258813Y-102077339D01*
X180235329Y-102110080D01*
X178837181Y-103508229D01*
X178775858Y-103541714D01*
X178706166Y-103536730D01*
X178650233Y-103494858D01*
X178625816Y-103429394D01*
X178625500Y-103420548D01*
X178625500Y-102403885D01*
X178644506Y-102337913D01*
X178657789Y-102316775D01*
X178711786Y-102162461D01*
X178711786Y-102162459D01*
X178711787Y-102162457D01*
X178730091Y-102000003D01*
X178730091Y-101999996D01*
X178711787Y-101837544D01*
X178711786Y-101837542D01*
X178711786Y-101837539D01*
X178657789Y-101683225D01*
X178570808Y-101544796D01*
X178455204Y-101429192D01*
X178382351Y-101383415D01*
X178316774Y-101342210D01*
X178162455Y-101288212D01*
X178000004Y-101269909D01*
X177999996Y-101269909D01*
X177837544Y-101288212D01*
X177683225Y-101342210D01*
X177615472Y-101384783D01*
X177548236Y-101403783D01*
X177481400Y-101383415D01*
X177436186Y-101330148D01*
X177425500Y-101279789D01*
X177425500Y-95990452D01*
X177445185Y-95923413D01*
X177461819Y-95902771D01*
X177484353Y-95880237D01*
X177545676Y-95846752D01*
X177604125Y-95848142D01*
X177704592Y-95875063D01*
X177881034Y-95890500D01*
X177939999Y-95895659D01*
X177940000Y-95895659D01*
X177940001Y-95895659D01*
X177998966Y-95890500D01*
X178175408Y-95875063D01*
X178403663Y-95813903D01*
X178617830Y-95714035D01*
X178811401Y-95578495D01*
X178978495Y-95411401D01*
X179114035Y-95217830D01*
X179213903Y-95003663D01*
X179275063Y-94775408D01*
X179295659Y-94540000D01*
X179275063Y-94304592D01*
X179213903Y-94076337D01*
X179114035Y-93862171D01*
X179108425Y-93854158D01*
X178978494Y-93668597D01*
X178811402Y-93501506D01*
X178811396Y-93501501D01*
X178625842Y-93371575D01*
X178582217Y-93316998D01*
X178575023Y-93247500D01*
X178606546Y-93185145D01*
X178625842Y-93168425D01*
X178696832Y-93118717D01*
X178811401Y-93038495D01*
X178978495Y-92871401D01*
X179114035Y-92677830D01*
X179213903Y-92463663D01*
X179275063Y-92235408D01*
X179295659Y-92000000D01*
X179275063Y-91764592D01*
X179213903Y-91536337D01*
X179114035Y-91322171D01*
X179108425Y-91314158D01*
X178978494Y-91128597D01*
X178811402Y-90961506D01*
X178811395Y-90961501D01*
X178617834Y-90825967D01*
X178617830Y-90825965D01*
X178570756Y-90804014D01*
X178403663Y-90726097D01*
X178403659Y-90726096D01*
X178403655Y-90726094D01*
X178175413Y-90664938D01*
X178175403Y-90664936D01*
X177940001Y-90644341D01*
X177939999Y-90644341D01*
X177704596Y-90664936D01*
X177704586Y-90664938D01*
X177476344Y-90726094D01*
X177476335Y-90726098D01*
X177262171Y-90825964D01*
X177262169Y-90825965D01*
X177068597Y-90961505D01*
X176901505Y-91128597D01*
X176771575Y-91314158D01*
X176716998Y-91357783D01*
X176647500Y-91364977D01*
X176585145Y-91333454D01*
X176568425Y-91314158D01*
X176438494Y-91128597D01*
X176271402Y-90961506D01*
X176271395Y-90961501D01*
X176077834Y-90825967D01*
X176077830Y-90825965D01*
X176030756Y-90804014D01*
X175863663Y-90726097D01*
X175863659Y-90726096D01*
X175863655Y-90726094D01*
X175635413Y-90664938D01*
X175635403Y-90664936D01*
X175400001Y-90644341D01*
X175399999Y-90644341D01*
X175164596Y-90664936D01*
X175164586Y-90664938D01*
X174936344Y-90726094D01*
X174936335Y-90726098D01*
X174722171Y-90825964D01*
X174722169Y-90825965D01*
X174528597Y-90961505D01*
X174361505Y-91128597D01*
X174225965Y-91322169D01*
X174225964Y-91322171D01*
X174126098Y-91536335D01*
X174126094Y-91536344D01*
X174064938Y-91764586D01*
X174064936Y-91764596D01*
X174044341Y-91999999D01*
X174044341Y-92000000D01*
X174064936Y-92235403D01*
X174064938Y-92235413D01*
X174126094Y-92463655D01*
X174126096Y-92463659D01*
X174126097Y-92463663D01*
X174200688Y-92623623D01*
X174225965Y-92677830D01*
X174225967Y-92677834D01*
X174319634Y-92811603D01*
X174361505Y-92871401D01*
X174528599Y-93038495D01*
X174528601Y-93038496D01*
X174528603Y-93038498D01*
X174714158Y-93168425D01*
X174757783Y-93223002D01*
X174764977Y-93292500D01*
X174733454Y-93354855D01*
X174714158Y-93371575D01*
X174528597Y-93501505D01*
X174361505Y-93668597D01*
X174225965Y-93862169D01*
X174225964Y-93862171D01*
X174126098Y-94076335D01*
X174126094Y-94076344D01*
X174064938Y-94304586D01*
X174064936Y-94304596D01*
X174044341Y-94539999D01*
X174044341Y-94540000D01*
X174064936Y-94775403D01*
X174064938Y-94775413D01*
X174126094Y-95003655D01*
X174126096Y-95003659D01*
X174126097Y-95003663D01*
X174206004Y-95175023D01*
X174225965Y-95217830D01*
X174225967Y-95217834D01*
X174334281Y-95372521D01*
X174361505Y-95411401D01*
X174528599Y-95578495D01*
X174721624Y-95713653D01*
X174765248Y-95768228D01*
X174774500Y-95815226D01*
X174774500Y-103389547D01*
X174754815Y-103456586D01*
X174738181Y-103477228D01*
X169648081Y-108567328D01*
X164601270Y-113614139D01*
X164601267Y-113614142D01*
X164557704Y-113657704D01*
X164514142Y-113701266D01*
X164499251Y-113723552D01*
X164484460Y-113745689D01*
X164445688Y-113803714D01*
X164445684Y-113803720D01*
X164412347Y-113884207D01*
X164406823Y-113897543D01*
X164398537Y-113917545D01*
X164398535Y-113917553D01*
X164374500Y-114038389D01*
X164374500Y-114096113D01*
X164355495Y-114162084D01*
X164342209Y-114183228D01*
X164288212Y-114337544D01*
X164269909Y-114499996D01*
X164269909Y-114500003D01*
X164288212Y-114662455D01*
X164342210Y-114816774D01*
X164385750Y-114886067D01*
X164429192Y-114955204D01*
X164544796Y-115070808D01*
X164683225Y-115157789D01*
X164837539Y-115211786D01*
X164837542Y-115211786D01*
X164837544Y-115211787D01*
X164999996Y-115230091D01*
X165000000Y-115230091D01*
X165000004Y-115230091D01*
X165162457Y-115211787D01*
X165162459Y-115211786D01*
X165162461Y-115211786D01*
X165234472Y-115186587D01*
X165304251Y-115183026D01*
X165364878Y-115217754D01*
X165397106Y-115279748D01*
X165390701Y-115349323D01*
X165363108Y-115391310D01*
X155187602Y-125566816D01*
X155126279Y-125600301D01*
X155056587Y-125595317D01*
X155000654Y-125553445D01*
X154987542Y-125531545D01*
X154904036Y-125352467D01*
X154768496Y-125158895D01*
X154768495Y-125158893D01*
X154601403Y-124991802D01*
X154601396Y-124991797D01*
X154407835Y-124856263D01*
X154407831Y-124856261D01*
X154407829Y-124856260D01*
X154193664Y-124756393D01*
X154193660Y-124756392D01*
X154193656Y-124756390D01*
X153965414Y-124695234D01*
X153965404Y-124695232D01*
X153730002Y-124674637D01*
X153730000Y-124674637D01*
X153494597Y-124695232D01*
X153494587Y-124695234D01*
X153266345Y-124756390D01*
X153266336Y-124756394D01*
X153052172Y-124856260D01*
X153052170Y-124856261D01*
X152858598Y-124991801D01*
X152691506Y-125158893D01*
X152555966Y-125352465D01*
X152555965Y-125352467D01*
X152456099Y-125566631D01*
X152456095Y-125566640D01*
X152394939Y-125794882D01*
X152394937Y-125794892D01*
X152374342Y-126030295D01*
X152374342Y-126030296D01*
X152394937Y-126265699D01*
X152394939Y-126265709D01*
X152456095Y-126493951D01*
X152456097Y-126493955D01*
X152456098Y-126493959D01*
X152555966Y-126708126D01*
X152555968Y-126708130D01*
X152664282Y-126862817D01*
X152691506Y-126901697D01*
X152858600Y-127068791D01*
X152955385Y-127136561D01*
X153052166Y-127204328D01*
X153052168Y-127204329D01*
X153052171Y-127204331D01*
X153231246Y-127287835D01*
X153283684Y-127334006D01*
X153302836Y-127401200D01*
X153282620Y-127468081D01*
X153266521Y-127487897D01*
X152621977Y-128132441D01*
X152566389Y-128164535D01*
X152336640Y-128226095D01*
X152336631Y-128226099D01*
X152122467Y-128325965D01*
X152122465Y-128325966D01*
X151928893Y-128461506D01*
X151761801Y-128628598D01*
X151626261Y-128822170D01*
X151626260Y-128822172D01*
X151526394Y-129036336D01*
X151526390Y-129036345D01*
X151465234Y-129264587D01*
X151465232Y-129264597D01*
X151444637Y-129500000D01*
X151444637Y-129500001D01*
X151465232Y-129735404D01*
X151465234Y-129735414D01*
X151526390Y-129963656D01*
X151526393Y-129963665D01*
X151576773Y-130071703D01*
X151587265Y-130140780D01*
X151558745Y-130204564D01*
X151500269Y-130242804D01*
X151430401Y-130243359D01*
X151376710Y-130211789D01*
X150286819Y-129121898D01*
X150253334Y-129060575D01*
X150250500Y-129034217D01*
X150250500Y-125465782D01*
X150270185Y-125398743D01*
X150286819Y-125378101D01*
X154027136Y-121637785D01*
X154027137Y-121637784D01*
X154027137Y-121637783D01*
X154027139Y-121637782D01*
X154049362Y-121604523D01*
X154136632Y-121473914D01*
X154212051Y-121291835D01*
X154216413Y-121269909D01*
X154247865Y-121111786D01*
X154250500Y-121098541D01*
X154250500Y-105685451D01*
X154270185Y-105618412D01*
X154286819Y-105597770D01*
X156222771Y-103661819D01*
X156284094Y-103628334D01*
X156310452Y-103625500D01*
X159096114Y-103625500D01*
X159162085Y-103644506D01*
X159183225Y-103657789D01*
X159337542Y-103711787D01*
X159499996Y-103730091D01*
X159500000Y-103730091D01*
X159500004Y-103730091D01*
X159662455Y-103711787D01*
X159662456Y-103711786D01*
X159662461Y-103711786D01*
X159816775Y-103657789D01*
X159955204Y-103570808D01*
X160070808Y-103455204D01*
X160157789Y-103316775D01*
X160211786Y-103162461D01*
X160216301Y-103122389D01*
X160230091Y-103000003D01*
X160230091Y-102999996D01*
X160211787Y-102837544D01*
X160211786Y-102837542D01*
X160211786Y-102837539D01*
X160157789Y-102683225D01*
X160070808Y-102544796D01*
X159955204Y-102429192D01*
X159868836Y-102374923D01*
X159816774Y-102342210D01*
X159662455Y-102288212D01*
X159500004Y-102269909D01*
X159499996Y-102269909D01*
X159337542Y-102288212D01*
X159183225Y-102342210D01*
X159162085Y-102355494D01*
X159096114Y-102374500D01*
X155938389Y-102374500D01*
X155877971Y-102386518D01*
X155834743Y-102395116D01*
X155817546Y-102398537D01*
X155703716Y-102445687D01*
X155703707Y-102445692D01*
X155601268Y-102514140D01*
X155576948Y-102538461D01*
X155514142Y-102601267D01*
X153602846Y-104512563D01*
X153541523Y-104546048D01*
X153471831Y-104541064D01*
X153427484Y-104512563D01*
X148286819Y-99371898D01*
X148253334Y-99310575D01*
X148250500Y-99284217D01*
X148250500Y-92000000D01*
X148644341Y-92000000D01*
X148664936Y-92235403D01*
X148664938Y-92235413D01*
X148726094Y-92463655D01*
X148726096Y-92463659D01*
X148726097Y-92463663D01*
X148800688Y-92623623D01*
X148825965Y-92677830D01*
X148825967Y-92677834D01*
X148919634Y-92811603D01*
X148961501Y-92871396D01*
X148961506Y-92871402D01*
X149083430Y-92993326D01*
X149116915Y-93054649D01*
X149111931Y-93124341D01*
X149070059Y-93180274D01*
X149039083Y-93197189D01*
X148907669Y-93246203D01*
X148907664Y-93246206D01*
X148792455Y-93332452D01*
X148792452Y-93332455D01*
X148706206Y-93447664D01*
X148706202Y-93447671D01*
X148655908Y-93582517D01*
X148649501Y-93642116D01*
X148649500Y-93642135D01*
X148649500Y-95437870D01*
X148649501Y-95437876D01*
X148655908Y-95497483D01*
X148706202Y-95632328D01*
X148706206Y-95632335D01*
X148792452Y-95747544D01*
X148792455Y-95747547D01*
X148907664Y-95833793D01*
X148907671Y-95833797D01*
X149042517Y-95884091D01*
X149042516Y-95884091D01*
X149049444Y-95884835D01*
X149102127Y-95890500D01*
X150897872Y-95890499D01*
X150957483Y-95884091D01*
X151092331Y-95833796D01*
X151207546Y-95747546D01*
X151293796Y-95632331D01*
X151342810Y-95500916D01*
X151384681Y-95444984D01*
X151450145Y-95420566D01*
X151518418Y-95435417D01*
X151546673Y-95456569D01*
X151668599Y-95578495D01*
X151746080Y-95632748D01*
X151862165Y-95714032D01*
X151862167Y-95714033D01*
X151862170Y-95714035D01*
X152076337Y-95813903D01*
X152076343Y-95813904D01*
X152076344Y-95813905D01*
X152131285Y-95828626D01*
X152304592Y-95875063D01*
X152481034Y-95890500D01*
X152539999Y-95895659D01*
X152540000Y-95895659D01*
X152540001Y-95895659D01*
X152598966Y-95890500D01*
X152775408Y-95875063D01*
X153003663Y-95813903D01*
X153217830Y-95714035D01*
X153411401Y-95578495D01*
X153578495Y-95411401D01*
X153708425Y-95225842D01*
X153763002Y-95182217D01*
X153832500Y-95175023D01*
X153894855Y-95206546D01*
X153911575Y-95225842D01*
X154041500Y-95411395D01*
X154041505Y-95411401D01*
X154208599Y-95578495D01*
X154286080Y-95632748D01*
X154402165Y-95714032D01*
X154402167Y-95714033D01*
X154402170Y-95714035D01*
X154616337Y-95813903D01*
X154616343Y-95813904D01*
X154616344Y-95813905D01*
X154671285Y-95828626D01*
X154844592Y-95875063D01*
X155021034Y-95890500D01*
X155079999Y-95895659D01*
X155080000Y-95895659D01*
X155080001Y-95895659D01*
X155138966Y-95890500D01*
X155315408Y-95875063D01*
X155543663Y-95813903D01*
X155757830Y-95714035D01*
X155951401Y-95578495D01*
X156118495Y-95411401D01*
X156248425Y-95225842D01*
X156303002Y-95182217D01*
X156372500Y-95175023D01*
X156434855Y-95206546D01*
X156451575Y-95225842D01*
X156581500Y-95411395D01*
X156581505Y-95411401D01*
X156748599Y-95578495D01*
X156826080Y-95632748D01*
X156942165Y-95714032D01*
X156942167Y-95714033D01*
X156942170Y-95714035D01*
X157156337Y-95813903D01*
X157156343Y-95813904D01*
X157156344Y-95813905D01*
X157211285Y-95828626D01*
X157384592Y-95875063D01*
X157561034Y-95890500D01*
X157619999Y-95895659D01*
X157620000Y-95895659D01*
X157620001Y-95895659D01*
X157678966Y-95890500D01*
X157855408Y-95875063D01*
X158083663Y-95813903D01*
X158297830Y-95714035D01*
X158491401Y-95578495D01*
X158658495Y-95411401D01*
X158788425Y-95225842D01*
X158843002Y-95182217D01*
X158912500Y-95175023D01*
X158974855Y-95206546D01*
X158991575Y-95225842D01*
X159121500Y-95411395D01*
X159121505Y-95411401D01*
X159288599Y-95578495D01*
X159366080Y-95632748D01*
X159482165Y-95714032D01*
X159482167Y-95714033D01*
X159482170Y-95714035D01*
X159696337Y-95813903D01*
X159696343Y-95813904D01*
X159696344Y-95813905D01*
X159751285Y-95828626D01*
X159924592Y-95875063D01*
X160101034Y-95890500D01*
X160159999Y-95895659D01*
X160160000Y-95895659D01*
X160160001Y-95895659D01*
X160218966Y-95890500D01*
X160395408Y-95875063D01*
X160623663Y-95813903D01*
X160837830Y-95714035D01*
X161031401Y-95578495D01*
X161198495Y-95411401D01*
X161328425Y-95225842D01*
X161383002Y-95182217D01*
X161452500Y-95175023D01*
X161514855Y-95206546D01*
X161531575Y-95225842D01*
X161661500Y-95411395D01*
X161661505Y-95411401D01*
X161828599Y-95578495D01*
X161906080Y-95632748D01*
X162022165Y-95714032D01*
X162022167Y-95714033D01*
X162022170Y-95714035D01*
X162236337Y-95813903D01*
X162236343Y-95813904D01*
X162236344Y-95813905D01*
X162291285Y-95828626D01*
X162464592Y-95875063D01*
X162641034Y-95890500D01*
X162699999Y-95895659D01*
X162700000Y-95895659D01*
X162700001Y-95895659D01*
X162758966Y-95890500D01*
X162935408Y-95875063D01*
X163163663Y-95813903D01*
X163377830Y-95714035D01*
X163571401Y-95578495D01*
X163738495Y-95411401D01*
X163874035Y-95217830D01*
X163973903Y-95003663D01*
X164035063Y-94775408D01*
X164055659Y-94540000D01*
X166424341Y-94540000D01*
X166444936Y-94775403D01*
X166444938Y-94775413D01*
X166506094Y-95003655D01*
X166506096Y-95003659D01*
X166506097Y-95003663D01*
X166586004Y-95175023D01*
X166605965Y-95217830D01*
X166605967Y-95217834D01*
X166714281Y-95372521D01*
X166741505Y-95411401D01*
X166908599Y-95578495D01*
X166986080Y-95632748D01*
X167102165Y-95714032D01*
X167102167Y-95714033D01*
X167102170Y-95714035D01*
X167316337Y-95813903D01*
X167316343Y-95813904D01*
X167316344Y-95813905D01*
X167371285Y-95828626D01*
X167544592Y-95875063D01*
X167721034Y-95890500D01*
X167779999Y-95895659D01*
X167780000Y-95895659D01*
X167780001Y-95895659D01*
X167838966Y-95890500D01*
X168015408Y-95875063D01*
X168243663Y-95813903D01*
X168457830Y-95714035D01*
X168651401Y-95578495D01*
X168818495Y-95411401D01*
X168948425Y-95225842D01*
X169003002Y-95182217D01*
X169072500Y-95175023D01*
X169134855Y-95206546D01*
X169151575Y-95225842D01*
X169281500Y-95411395D01*
X169281505Y-95411401D01*
X169448599Y-95578495D01*
X169526080Y-95632748D01*
X169642165Y-95714032D01*
X169642167Y-95714033D01*
X169642170Y-95714035D01*
X169856337Y-95813903D01*
X169856343Y-95813904D01*
X169856344Y-95813905D01*
X169911285Y-95828626D01*
X170084592Y-95875063D01*
X170261034Y-95890500D01*
X170319999Y-95895659D01*
X170320000Y-95895659D01*
X170320001Y-95895659D01*
X170378966Y-95890500D01*
X170555408Y-95875063D01*
X170783663Y-95813903D01*
X170997830Y-95714035D01*
X171191401Y-95578495D01*
X171358495Y-95411401D01*
X171494035Y-95217830D01*
X171593903Y-95003663D01*
X171655063Y-94775408D01*
X171675659Y-94540000D01*
X171655063Y-94304592D01*
X171593903Y-94076337D01*
X171494035Y-93862171D01*
X171488425Y-93854158D01*
X171358494Y-93668597D01*
X171191402Y-93501506D01*
X171191396Y-93501501D01*
X171005842Y-93371575D01*
X170962217Y-93316998D01*
X170955023Y-93247500D01*
X170986546Y-93185145D01*
X171005842Y-93168425D01*
X171076832Y-93118717D01*
X171191401Y-93038495D01*
X171358495Y-92871401D01*
X171494035Y-92677830D01*
X171593903Y-92463663D01*
X171655063Y-92235408D01*
X171675659Y-92000000D01*
X171655063Y-91764592D01*
X171593903Y-91536337D01*
X171494035Y-91322171D01*
X171488425Y-91314158D01*
X171358494Y-91128597D01*
X171191402Y-90961506D01*
X171191395Y-90961501D01*
X170997834Y-90825967D01*
X170997830Y-90825965D01*
X170950756Y-90804014D01*
X170783663Y-90726097D01*
X170783659Y-90726096D01*
X170783655Y-90726094D01*
X170555413Y-90664938D01*
X170555403Y-90664936D01*
X170320001Y-90644341D01*
X170319999Y-90644341D01*
X170084596Y-90664936D01*
X170084586Y-90664938D01*
X169856344Y-90726094D01*
X169856335Y-90726098D01*
X169642171Y-90825964D01*
X169642169Y-90825965D01*
X169448597Y-90961505D01*
X169281505Y-91128597D01*
X169151575Y-91314158D01*
X169096998Y-91357783D01*
X169027500Y-91364977D01*
X168965145Y-91333454D01*
X168948425Y-91314158D01*
X168818494Y-91128597D01*
X168651402Y-90961506D01*
X168651395Y-90961501D01*
X168457834Y-90825967D01*
X168457830Y-90825965D01*
X168410756Y-90804014D01*
X168243663Y-90726097D01*
X168243659Y-90726096D01*
X168243655Y-90726094D01*
X168015413Y-90664938D01*
X168015403Y-90664936D01*
X167780001Y-90644341D01*
X167779999Y-90644341D01*
X167544596Y-90664936D01*
X167544586Y-90664938D01*
X167316344Y-90726094D01*
X167316335Y-90726098D01*
X167102171Y-90825964D01*
X167102169Y-90825965D01*
X166908597Y-90961505D01*
X166741505Y-91128597D01*
X166605965Y-91322169D01*
X166605964Y-91322171D01*
X166506098Y-91536335D01*
X166506094Y-91536344D01*
X166444938Y-91764586D01*
X166444936Y-91764596D01*
X166424341Y-91999999D01*
X166424341Y-92000000D01*
X166444936Y-92235403D01*
X166444938Y-92235413D01*
X166506094Y-92463655D01*
X166506096Y-92463659D01*
X166506097Y-92463663D01*
X166580688Y-92623623D01*
X166605965Y-92677830D01*
X166605967Y-92677834D01*
X166699634Y-92811603D01*
X166741505Y-92871401D01*
X166908599Y-93038495D01*
X166908601Y-93038496D01*
X166908603Y-93038498D01*
X167094158Y-93168425D01*
X167137783Y-93223002D01*
X167144977Y-93292500D01*
X167113454Y-93354855D01*
X167094158Y-93371575D01*
X166908597Y-93501505D01*
X166741505Y-93668597D01*
X166605965Y-93862169D01*
X166605964Y-93862171D01*
X166506098Y-94076335D01*
X166506094Y-94076344D01*
X166444938Y-94304586D01*
X166444936Y-94304596D01*
X166424341Y-94539999D01*
X166424341Y-94540000D01*
X164055659Y-94540000D01*
X164035063Y-94304592D01*
X163973903Y-94076337D01*
X163874035Y-93862171D01*
X163868425Y-93854158D01*
X163738494Y-93668597D01*
X163571402Y-93501506D01*
X163571396Y-93501501D01*
X163385842Y-93371575D01*
X163342217Y-93316998D01*
X163335023Y-93247500D01*
X163366546Y-93185145D01*
X163385842Y-93168425D01*
X163456832Y-93118717D01*
X163571401Y-93038495D01*
X163738495Y-92871401D01*
X163874035Y-92677830D01*
X163973903Y-92463663D01*
X164035063Y-92235408D01*
X164055659Y-92000000D01*
X164035063Y-91764592D01*
X163973903Y-91536337D01*
X163874035Y-91322171D01*
X163868425Y-91314158D01*
X163738494Y-91128597D01*
X163571402Y-90961506D01*
X163571395Y-90961501D01*
X163377834Y-90825967D01*
X163377830Y-90825965D01*
X163330756Y-90804014D01*
X163163663Y-90726097D01*
X163163659Y-90726096D01*
X163163655Y-90726094D01*
X162935413Y-90664938D01*
X162935403Y-90664936D01*
X162700001Y-90644341D01*
X162699999Y-90644341D01*
X162464596Y-90664936D01*
X162464586Y-90664938D01*
X162236344Y-90726094D01*
X162236335Y-90726098D01*
X162022171Y-90825964D01*
X162022169Y-90825965D01*
X161828597Y-90961505D01*
X161661505Y-91128597D01*
X161531575Y-91314158D01*
X161476998Y-91357783D01*
X161407500Y-91364977D01*
X161345145Y-91333454D01*
X161328425Y-91314158D01*
X161198494Y-91128597D01*
X161031402Y-90961506D01*
X161031395Y-90961501D01*
X160837834Y-90825967D01*
X160837830Y-90825965D01*
X160790756Y-90804014D01*
X160623663Y-90726097D01*
X160623659Y-90726096D01*
X160623655Y-90726094D01*
X160395413Y-90664938D01*
X160395403Y-90664936D01*
X160160001Y-90644341D01*
X160159999Y-90644341D01*
X159924596Y-90664936D01*
X159924586Y-90664938D01*
X159696344Y-90726094D01*
X159696335Y-90726098D01*
X159482171Y-90825964D01*
X159482169Y-90825965D01*
X159288597Y-90961505D01*
X159121505Y-91128597D01*
X158985965Y-91322169D01*
X158985964Y-91322171D01*
X158886098Y-91536335D01*
X158886094Y-91536344D01*
X158824938Y-91764586D01*
X158824936Y-91764596D01*
X158804341Y-91999999D01*
X158804341Y-92000000D01*
X158824936Y-92235403D01*
X158824938Y-92235413D01*
X158886094Y-92463655D01*
X158886096Y-92463659D01*
X158886097Y-92463663D01*
X158960688Y-92623623D01*
X158985965Y-92677830D01*
X158985967Y-92677834D01*
X159079634Y-92811603D01*
X159121505Y-92871401D01*
X159288599Y-93038495D01*
X159288601Y-93038496D01*
X159288603Y-93038498D01*
X159474158Y-93168425D01*
X159517783Y-93223002D01*
X159524977Y-93292500D01*
X159493454Y-93354855D01*
X159474158Y-93371575D01*
X159288597Y-93501505D01*
X159121505Y-93668597D01*
X158991575Y-93854158D01*
X158936998Y-93897783D01*
X158867500Y-93904977D01*
X158805145Y-93873454D01*
X158788425Y-93854158D01*
X158658494Y-93668597D01*
X158491402Y-93501506D01*
X158491395Y-93501501D01*
X158297834Y-93365967D01*
X158297830Y-93365965D01*
X158297828Y-93365964D01*
X158083663Y-93266097D01*
X158083659Y-93266096D01*
X158083655Y-93266094D01*
X157855413Y-93204938D01*
X157855403Y-93204936D01*
X157620001Y-93184341D01*
X157619999Y-93184341D01*
X157384596Y-93204936D01*
X157384586Y-93204938D01*
X157156344Y-93266094D01*
X157156335Y-93266098D01*
X156942171Y-93365964D01*
X156942169Y-93365965D01*
X156748597Y-93501505D01*
X156581505Y-93668597D01*
X156451575Y-93854158D01*
X156396998Y-93897783D01*
X156327500Y-93904977D01*
X156265145Y-93873454D01*
X156248425Y-93854158D01*
X156118494Y-93668597D01*
X155951402Y-93501506D01*
X155951396Y-93501501D01*
X155765842Y-93371575D01*
X155722217Y-93316998D01*
X155715023Y-93247500D01*
X155746546Y-93185145D01*
X155765842Y-93168425D01*
X155836832Y-93118717D01*
X155951401Y-93038495D01*
X156118495Y-92871401D01*
X156254035Y-92677830D01*
X156353903Y-92463663D01*
X156415063Y-92235408D01*
X156435659Y-92000000D01*
X156415063Y-91764592D01*
X156353903Y-91536337D01*
X156254035Y-91322171D01*
X156248425Y-91314158D01*
X156118494Y-91128597D01*
X155951402Y-90961506D01*
X155951395Y-90961501D01*
X155757834Y-90825967D01*
X155757830Y-90825965D01*
X155710756Y-90804014D01*
X155543663Y-90726097D01*
X155543659Y-90726096D01*
X155543655Y-90726094D01*
X155315413Y-90664938D01*
X155315403Y-90664936D01*
X155080001Y-90644341D01*
X155079999Y-90644341D01*
X154844596Y-90664936D01*
X154844586Y-90664938D01*
X154616344Y-90726094D01*
X154616335Y-90726098D01*
X154402171Y-90825964D01*
X154402169Y-90825965D01*
X154208597Y-90961505D01*
X154041505Y-91128597D01*
X153911575Y-91314158D01*
X153856998Y-91357783D01*
X153787500Y-91364977D01*
X153725145Y-91333454D01*
X153708425Y-91314158D01*
X153578494Y-91128597D01*
X153411402Y-90961506D01*
X153411395Y-90961501D01*
X153217834Y-90825967D01*
X153217830Y-90825965D01*
X153170756Y-90804014D01*
X153003663Y-90726097D01*
X153003659Y-90726096D01*
X153003655Y-90726094D01*
X152775413Y-90664938D01*
X152775403Y-90664936D01*
X152540001Y-90644341D01*
X152539999Y-90644341D01*
X152304596Y-90664936D01*
X152304586Y-90664938D01*
X152076344Y-90726094D01*
X152076335Y-90726098D01*
X151862171Y-90825964D01*
X151862169Y-90825965D01*
X151668597Y-90961505D01*
X151501505Y-91128597D01*
X151371575Y-91314158D01*
X151316998Y-91357783D01*
X151247500Y-91364977D01*
X151185145Y-91333454D01*
X151168425Y-91314158D01*
X151038494Y-91128597D01*
X150871402Y-90961506D01*
X150871395Y-90961501D01*
X150677834Y-90825967D01*
X150677830Y-90825965D01*
X150630756Y-90804014D01*
X150463663Y-90726097D01*
X150463659Y-90726096D01*
X150463655Y-90726094D01*
X150235413Y-90664938D01*
X150235403Y-90664936D01*
X150000001Y-90644341D01*
X149999999Y-90644341D01*
X149764596Y-90664936D01*
X149764586Y-90664938D01*
X149536344Y-90726094D01*
X149536335Y-90726098D01*
X149322171Y-90825964D01*
X149322169Y-90825965D01*
X149128597Y-90961505D01*
X148961505Y-91128597D01*
X148825965Y-91322169D01*
X148825964Y-91322171D01*
X148726098Y-91536335D01*
X148726094Y-91536344D01*
X148664938Y-91764586D01*
X148664936Y-91764596D01*
X148644341Y-91999999D01*
X148644341Y-92000000D01*
X148250500Y-92000000D01*
X148250500Y-82901460D01*
X148247680Y-82887280D01*
X148247680Y-82887279D01*
X148212052Y-82708169D01*
X148212051Y-82708168D01*
X148212051Y-82708164D01*
X148142098Y-82539283D01*
X148136632Y-82526086D01*
X148027139Y-82362218D01*
X147887782Y-82222861D01*
X147887781Y-82222860D01*
X145164924Y-79500003D01*
X154269909Y-79500003D01*
X154288212Y-79662455D01*
X154342210Y-79816774D01*
X154342211Y-79816775D01*
X154429192Y-79955204D01*
X154544796Y-80070808D01*
X154683225Y-80157789D01*
X154837539Y-80211786D01*
X154837542Y-80211786D01*
X154837544Y-80211787D01*
X154999996Y-80230091D01*
X155000000Y-80230091D01*
X155000004Y-80230091D01*
X155162455Y-80211787D01*
X155162456Y-80211786D01*
X155162461Y-80211786D01*
X155316775Y-80157789D01*
X155455204Y-80070808D01*
X155570808Y-79955204D01*
X155657789Y-79816775D01*
X155711786Y-79662461D01*
X155713893Y-79643761D01*
X155730091Y-79500003D01*
X165269909Y-79500003D01*
X165288212Y-79662455D01*
X165342210Y-79816774D01*
X165342211Y-79816775D01*
X165429192Y-79955204D01*
X165544796Y-80070808D01*
X165683225Y-80157789D01*
X165837539Y-80211786D01*
X165837542Y-80211786D01*
X165837544Y-80211787D01*
X165999996Y-80230091D01*
X166000000Y-80230091D01*
X166000004Y-80230091D01*
X166162455Y-80211787D01*
X166162456Y-80211786D01*
X166162461Y-80211786D01*
X166316775Y-80157789D01*
X166455204Y-80070808D01*
X166570808Y-79955204D01*
X166657789Y-79816775D01*
X166711786Y-79662461D01*
X166713893Y-79643761D01*
X166730091Y-79500003D01*
X166730091Y-79499996D01*
X166711787Y-79337544D01*
X166711786Y-79337542D01*
X166711786Y-79337539D01*
X166657789Y-79183225D01*
X166644504Y-79162083D01*
X166625500Y-79096113D01*
X166625500Y-70810451D01*
X166645185Y-70743412D01*
X166661814Y-70722775D01*
X167884586Y-69500003D01*
X181739909Y-69500003D01*
X181758212Y-69662455D01*
X181812210Y-69816774D01*
X181812211Y-69816775D01*
X181899192Y-69955204D01*
X182014796Y-70070808D01*
X182153225Y-70157789D01*
X182307539Y-70211786D01*
X182307542Y-70211786D01*
X182307544Y-70211787D01*
X182469996Y-70230091D01*
X182470000Y-70230091D01*
X182470004Y-70230091D01*
X182632457Y-70211787D01*
X182632459Y-70211786D01*
X182632461Y-70211786D01*
X182786775Y-70157789D01*
X182807915Y-70144506D01*
X182873886Y-70125500D01*
X183689548Y-70125500D01*
X183756587Y-70145185D01*
X183777229Y-70161819D01*
X185523768Y-71908359D01*
X185553128Y-71955085D01*
X185592210Y-72066773D01*
X185592212Y-72066777D01*
X185653637Y-72164534D01*
X185679192Y-72205204D01*
X185794796Y-72320808D01*
X185933225Y-72407789D01*
X186087539Y-72461786D01*
X186087542Y-72461786D01*
X186087544Y-72461787D01*
X186249996Y-72480091D01*
X186250000Y-72480091D01*
X186250004Y-72480091D01*
X186412455Y-72461787D01*
X186412456Y-72461786D01*
X186412461Y-72461786D01*
X186566775Y-72407789D01*
X186705204Y-72320808D01*
X186820808Y-72205204D01*
X186907789Y-72066775D01*
X186961786Y-71912461D01*
X186961787Y-71912455D01*
X186980091Y-71750003D01*
X186980091Y-71749996D01*
X186961787Y-71587544D01*
X186961786Y-71587542D01*
X186961786Y-71587539D01*
X186907789Y-71433225D01*
X186820808Y-71294796D01*
X186705204Y-71179192D01*
X186566775Y-71092211D01*
X186566773Y-71092210D01*
X186455085Y-71053128D01*
X186408359Y-71023768D01*
X184492928Y-69108338D01*
X184492925Y-69108334D01*
X184492925Y-69108335D01*
X184485858Y-69101268D01*
X184485858Y-69101267D01*
X184398733Y-69014142D01*
X184398732Y-69014141D01*
X184398731Y-69014140D01*
X184347509Y-68979915D01*
X184296287Y-68945689D01*
X184296286Y-68945688D01*
X184296283Y-68945686D01*
X184296280Y-68945685D01*
X184215792Y-68912347D01*
X184182453Y-68898537D01*
X184172427Y-68896543D01*
X184122029Y-68886518D01*
X184061610Y-68874500D01*
X184061607Y-68874500D01*
X184061606Y-68874500D01*
X182873886Y-68874500D01*
X182807915Y-68855494D01*
X182786774Y-68842210D01*
X182632457Y-68788212D01*
X182470004Y-68769909D01*
X182469996Y-68769909D01*
X182307544Y-68788212D01*
X182153225Y-68842210D01*
X182014795Y-68929192D01*
X181899192Y-69044795D01*
X181812210Y-69183225D01*
X181758212Y-69337544D01*
X181739909Y-69499996D01*
X181739909Y-69500003D01*
X167884586Y-69500003D01*
X170658359Y-66726229D01*
X170705083Y-66696871D01*
X170816775Y-66657789D01*
X170955204Y-66570808D01*
X171070808Y-66455204D01*
X171157789Y-66316775D01*
X171211786Y-66162461D01*
X171230091Y-66000000D01*
X171212248Y-65841640D01*
X171211787Y-65837544D01*
X171211786Y-65837542D01*
X171211786Y-65837539D01*
X171157789Y-65683225D01*
X171070808Y-65544796D01*
X170955204Y-65429192D01*
X170816774Y-65342210D01*
X170662455Y-65288212D01*
X170500004Y-65269909D01*
X170499996Y-65269909D01*
X170337544Y-65288212D01*
X170183225Y-65342210D01*
X170044795Y-65429192D01*
X169929192Y-65544795D01*
X169842212Y-65683222D01*
X169842211Y-65683223D01*
X169803128Y-65794915D01*
X169773768Y-65841640D01*
X166845500Y-68769909D01*
X165601270Y-70014139D01*
X165601267Y-70014142D01*
X165557704Y-70057704D01*
X165514142Y-70101266D01*
X165481247Y-70150498D01*
X165481246Y-70150500D01*
X165445687Y-70203714D01*
X165442348Y-70211778D01*
X165442345Y-70211786D01*
X165398538Y-70317545D01*
X165398535Y-70317555D01*
X165374500Y-70438389D01*
X165374500Y-79096113D01*
X165355495Y-79162084D01*
X165342209Y-79183228D01*
X165288212Y-79337544D01*
X165269909Y-79499996D01*
X165269909Y-79500003D01*
X155730091Y-79500003D01*
X155730091Y-79499996D01*
X155711787Y-79337544D01*
X155711786Y-79337542D01*
X155711786Y-79337539D01*
X155657789Y-79183225D01*
X155644504Y-79162083D01*
X155625500Y-79096113D01*
X155625500Y-70810451D01*
X155645185Y-70743412D01*
X155661814Y-70722775D01*
X159658359Y-66726229D01*
X159705083Y-66696871D01*
X159816775Y-66657789D01*
X159955204Y-66570808D01*
X160070808Y-66455204D01*
X160157789Y-66316775D01*
X160211786Y-66162461D01*
X160230091Y-66000000D01*
X160212248Y-65841640D01*
X160211787Y-65837544D01*
X160211786Y-65837542D01*
X160211786Y-65837539D01*
X160157789Y-65683225D01*
X160070808Y-65544796D01*
X159955204Y-65429192D01*
X159816774Y-65342210D01*
X159662455Y-65288212D01*
X159500004Y-65269909D01*
X159499996Y-65269909D01*
X159337544Y-65288212D01*
X159183225Y-65342210D01*
X159044795Y-65429192D01*
X158929192Y-65544795D01*
X158842212Y-65683222D01*
X158842211Y-65683223D01*
X158803128Y-65794915D01*
X158773768Y-65841640D01*
X155845500Y-68769909D01*
X154601270Y-70014139D01*
X154601267Y-70014142D01*
X154557704Y-70057704D01*
X154514142Y-70101266D01*
X154481247Y-70150498D01*
X154481246Y-70150500D01*
X154445687Y-70203714D01*
X154442348Y-70211778D01*
X154442345Y-70211786D01*
X154398538Y-70317545D01*
X154398535Y-70317555D01*
X154374500Y-70438389D01*
X154374500Y-79096113D01*
X154355495Y-79162084D01*
X154342209Y-79183228D01*
X154288212Y-79337544D01*
X154269909Y-79499996D01*
X154269909Y-79500003D01*
X145164924Y-79500003D01*
X143536819Y-77871898D01*
X143503334Y-77810575D01*
X143500500Y-77784217D01*
X143500500Y-64215782D01*
X143520185Y-64148743D01*
X143536819Y-64128101D01*
X144628102Y-63036819D01*
X144689425Y-63003334D01*
X144715783Y-63000500D01*
X187034218Y-63000500D01*
X187101257Y-63020185D01*
G37*
%TD.AperFunction*%
%TA.AperFunction,Conductor*%
G36*
X161493834Y-121132279D02*
G01*
X161549767Y-121174151D01*
X161574184Y-121239615D01*
X161574500Y-121248461D01*
X161574500Y-122189548D01*
X161554815Y-122256587D01*
X161538181Y-122277229D01*
X160962228Y-122853182D01*
X160900905Y-122886667D01*
X160874547Y-122889501D01*
X159933460Y-122889501D01*
X159866421Y-122869816D01*
X159820666Y-122817012D01*
X159810722Y-122747854D01*
X159839747Y-122684298D01*
X159845779Y-122677820D01*
X161362819Y-121160780D01*
X161424142Y-121127295D01*
X161493834Y-121132279D01*
G37*
%TD.AperFunction*%
%TA.AperFunction,Conductor*%
G36*
X189332147Y-93895185D02*
G01*
X189377902Y-93947989D01*
X189387846Y-94017147D01*
X189377490Y-94051905D01*
X189366098Y-94076335D01*
X189366094Y-94076344D01*
X189304938Y-94304586D01*
X189304936Y-94304596D01*
X189284341Y-94539999D01*
X189284341Y-94540000D01*
X189304936Y-94775403D01*
X189304938Y-94775413D01*
X189366094Y-95003655D01*
X189366096Y-95003659D01*
X189366097Y-95003663D01*
X189446004Y-95175023D01*
X189465965Y-95217830D01*
X189465967Y-95217834D01*
X189574281Y-95372521D01*
X189601501Y-95411396D01*
X189601506Y-95411402D01*
X189715075Y-95524971D01*
X189748560Y-95586294D01*
X189743576Y-95655986D01*
X189715075Y-95700333D01*
X182442181Y-102973228D01*
X182380858Y-103006713D01*
X182311166Y-103001729D01*
X182255233Y-102959857D01*
X182230816Y-102894393D01*
X182230500Y-102885547D01*
X182230500Y-95856603D01*
X182250185Y-95789564D01*
X182302989Y-95743809D01*
X182372147Y-95733865D01*
X182406901Y-95744220D01*
X182556337Y-95813903D01*
X182556342Y-95813904D01*
X182556344Y-95813905D01*
X182611285Y-95828626D01*
X182784592Y-95875063D01*
X182961034Y-95890500D01*
X183019999Y-95895659D01*
X183020000Y-95895659D01*
X183020001Y-95895659D01*
X183078966Y-95890500D01*
X183255408Y-95875063D01*
X183483663Y-95813903D01*
X183697830Y-95714035D01*
X183891401Y-95578495D01*
X184058495Y-95411401D01*
X184188425Y-95225842D01*
X184243002Y-95182217D01*
X184312500Y-95175023D01*
X184374855Y-95206546D01*
X184391575Y-95225842D01*
X184521500Y-95411395D01*
X184521505Y-95411401D01*
X184688599Y-95578495D01*
X184766080Y-95632748D01*
X184882165Y-95714032D01*
X184882167Y-95714033D01*
X184882170Y-95714035D01*
X185096337Y-95813903D01*
X185096343Y-95813904D01*
X185096344Y-95813905D01*
X185151285Y-95828626D01*
X185324592Y-95875063D01*
X185501034Y-95890500D01*
X185559999Y-95895659D01*
X185560000Y-95895659D01*
X185560001Y-95895659D01*
X185618966Y-95890500D01*
X185795408Y-95875063D01*
X186023663Y-95813903D01*
X186237830Y-95714035D01*
X186431401Y-95578495D01*
X186598495Y-95411401D01*
X186734035Y-95217830D01*
X186833903Y-95003663D01*
X186895063Y-94775408D01*
X186915659Y-94540000D01*
X186895063Y-94304592D01*
X186833903Y-94076337D01*
X186822509Y-94051904D01*
X186812018Y-93982827D01*
X186840538Y-93919043D01*
X186899014Y-93880804D01*
X186934892Y-93875500D01*
X189265108Y-93875500D01*
X189332147Y-93895185D01*
G37*
%TD.AperFunction*%
%TA.AperFunction,Conductor*%
G36*
X176754855Y-92666546D02*
G01*
X176771575Y-92685842D01*
X176901500Y-92871395D01*
X176901505Y-92871401D01*
X177068599Y-93038495D01*
X177068601Y-93038496D01*
X177068603Y-93038498D01*
X177254158Y-93168425D01*
X177297783Y-93223002D01*
X177304977Y-93292500D01*
X177273454Y-93354855D01*
X177254158Y-93371575D01*
X177068597Y-93501505D01*
X176901505Y-93668597D01*
X176771575Y-93854158D01*
X176716998Y-93897783D01*
X176647500Y-93904977D01*
X176585145Y-93873454D01*
X176568425Y-93854158D01*
X176438494Y-93668597D01*
X176271402Y-93501506D01*
X176271396Y-93501501D01*
X176085842Y-93371575D01*
X176042217Y-93316998D01*
X176035023Y-93247500D01*
X176066546Y-93185145D01*
X176085842Y-93168425D01*
X176156832Y-93118717D01*
X176271401Y-93038495D01*
X176438495Y-92871401D01*
X176568425Y-92685842D01*
X176623002Y-92642217D01*
X176692500Y-92635023D01*
X176754855Y-92666546D01*
G37*
%TD.AperFunction*%
%TA.AperFunction,Conductor*%
G36*
X184374855Y-92666546D02*
G01*
X184391575Y-92685842D01*
X184521500Y-92871395D01*
X184521505Y-92871401D01*
X184688599Y-93038495D01*
X184688601Y-93038496D01*
X184688603Y-93038498D01*
X184874158Y-93168425D01*
X184917783Y-93223002D01*
X184924977Y-93292500D01*
X184893454Y-93354855D01*
X184874158Y-93371575D01*
X184688597Y-93501505D01*
X184521505Y-93668597D01*
X184391575Y-93854158D01*
X184336998Y-93897783D01*
X184267500Y-93904977D01*
X184205145Y-93873454D01*
X184188425Y-93854158D01*
X184058494Y-93668597D01*
X183891402Y-93501506D01*
X183891396Y-93501501D01*
X183705842Y-93371575D01*
X183662217Y-93316998D01*
X183655023Y-93247500D01*
X183686546Y-93185145D01*
X183705842Y-93168425D01*
X183776832Y-93118717D01*
X183891401Y-93038495D01*
X184058495Y-92871401D01*
X184188425Y-92685842D01*
X184243002Y-92642217D01*
X184312500Y-92635023D01*
X184374855Y-92666546D01*
G37*
%TD.AperFunction*%
%TA.AperFunction,Conductor*%
G36*
X188256587Y-60895185D02*
G01*
X188277229Y-60911819D01*
X190588181Y-63222771D01*
X190621666Y-63284094D01*
X190624500Y-63310452D01*
X190624500Y-63476959D01*
X190604815Y-63543998D01*
X190552011Y-63589753D01*
X190482853Y-63599697D01*
X190419297Y-63570672D01*
X190390595Y-63530871D01*
X190389502Y-63531456D01*
X190386628Y-63526079D01*
X190277139Y-63362218D01*
X190277136Y-63362214D01*
X190134686Y-63219764D01*
X190134655Y-63219735D01*
X188281479Y-61366559D01*
X188281459Y-61366537D01*
X188137785Y-61222863D01*
X188137781Y-61222860D01*
X187973920Y-61113371D01*
X187968544Y-61110498D01*
X187969332Y-61109021D01*
X187921182Y-61070216D01*
X187899120Y-61003921D01*
X187916402Y-60936222D01*
X187967541Y-60888614D01*
X188023041Y-60875500D01*
X188189548Y-60875500D01*
X188256587Y-60895185D01*
G37*
%TD.AperFunction*%
%TD*%
M02*
