%TF.GenerationSoftware,KiCad,Pcbnew,8.0.0*%
%TF.CreationDate,2024-03-25T03:27:09+00:00*%
%TF.ProjectId,main_PCB_v2,6d61696e-5f50-4434-925f-76322e6b6963,rev?*%
%TF.SameCoordinates,Original*%
%TF.FileFunction,Legend,Top*%
%TF.FilePolarity,Positive*%
%FSLAX46Y46*%
G04 Gerber Fmt 4.6, Leading zero omitted, Abs format (unit mm)*
G04 Created by KiCad (PCBNEW 8.0.0) date 2024-03-25 03:27:09*
%MOMM*%
%LPD*%
G01*
G04 APERTURE LIST*
G04 Aperture macros list*
%AMRoundRect*
0 Rectangle with rounded corners*
0 $1 Rounding radius*
0 $2 $3 $4 $5 $6 $7 $8 $9 X,Y pos of 4 corners*
0 Add a 4 corners polygon primitive as box body*
4,1,4,$2,$3,$4,$5,$6,$7,$8,$9,$2,$3,0*
0 Add four circle primitives for the rounded corners*
1,1,$1+$1,$2,$3*
1,1,$1+$1,$4,$5*
1,1,$1+$1,$6,$7*
1,1,$1+$1,$8,$9*
0 Add four rect primitives between the rounded corners*
20,1,$1+$1,$2,$3,$4,$5,0*
20,1,$1+$1,$4,$5,$6,$7,0*
20,1,$1+$1,$6,$7,$8,$9,0*
20,1,$1+$1,$8,$9,$2,$3,0*%
%AMRotRect*
0 Rectangle, with rotation*
0 The origin of the aperture is its center*
0 $1 length*
0 $2 width*
0 $3 Rotation angle, in degrees counterclockwise*
0 Add horizontal line*
21,1,$1,$2,0,0,$3*%
%AMFreePoly0*
4,1,7,0.114300,0.025000,0.470000,0.025000,0.470000,-0.381000,-0.114300,-0.381000,-0.114300,0.381000,0.114300,0.381000,0.114300,0.025000,0.114300,0.025000,$1*%
%AMFreePoly1*
4,1,7,0.470000,-0.025000,0.114300,-0.025000,0.114300,-0.381000,-0.114300,-0.381000,-0.114300,0.381000,0.470000,0.381000,0.470000,-0.025000,0.470000,-0.025000,$1*%
G04 Aperture macros list end*
%ADD10C,0.500000*%
%ADD11C,0.400000*%
%ADD12C,0.200000*%
%ADD13C,0.100000*%
%ADD14C,0.120000*%
%ADD15C,0.152400*%
%ADD16C,0.173329*%
%ADD17C,0.250000*%
%ADD18RoundRect,0.135000X0.185000X-0.135000X0.185000X0.135000X-0.185000X0.135000X-0.185000X-0.135000X0*%
%ADD19RotRect,3.800000X3.800000X315.000000*%
%ADD20C,4.000000*%
%ADD21RoundRect,0.225000X0.250000X-0.225000X0.250000X0.225000X-0.250000X0.225000X-0.250000X-0.225000X0*%
%ADD22RoundRect,0.135000X0.135000X0.185000X-0.135000X0.185000X-0.135000X-0.185000X0.135000X-0.185000X0*%
%ADD23RoundRect,0.140000X0.170000X-0.140000X0.170000X0.140000X-0.170000X0.140000X-0.170000X-0.140000X0*%
%ADD24RoundRect,0.093750X-0.106250X0.093750X-0.106250X-0.093750X0.106250X-0.093750X0.106250X0.093750X0*%
%ADD25R,1.600000X1.000000*%
%ADD26RoundRect,0.135000X-0.135000X-0.185000X0.135000X-0.185000X0.135000X0.185000X-0.135000X0.185000X0*%
%ADD27RoundRect,0.135000X-0.185000X0.135000X-0.185000X-0.135000X0.185000X-0.135000X0.185000X0.135000X0*%
%ADD28RotRect,3.800000X3.800000X30.000000*%
%ADD29RoundRect,0.140000X-0.170000X0.140000X-0.170000X-0.140000X0.170000X-0.140000X0.170000X0.140000X0*%
%ADD30R,0.240000X0.600000*%
%ADD31R,2.400000X1.650000*%
%ADD32R,0.500000X0.250000*%
%ADD33RoundRect,0.250000X0.550000X-1.500000X0.550000X1.500000X-0.550000X1.500000X-0.550000X-1.500000X0*%
%ADD34RoundRect,0.140000X-0.140000X-0.170000X0.140000X-0.170000X0.140000X0.170000X-0.140000X0.170000X0*%
%ADD35R,2.500000X1.500000*%
%ADD36FreePoly0,0.000000*%
%ADD37R,0.254000X0.609600*%
%ADD38FreePoly1,180.000000*%
%ADD39FreePoly0,180.000000*%
%ADD40FreePoly1,0.000000*%
%ADD41R,1.295400X0.355600*%
%ADD42RoundRect,0.140000X0.140000X0.170000X-0.140000X0.170000X-0.140000X-0.170000X0.140000X-0.170000X0*%
%ADD43C,3.200000*%
%ADD44C,0.800000*%
%ADD45C,6.400000*%
%ADD46RotRect,0.300000X0.700000X135.000000*%
%ADD47RotRect,1.000000X1.700000X45.000000*%
%ADD48RoundRect,0.147500X-0.147500X-0.172500X0.147500X-0.172500X0.147500X0.172500X-0.147500X0.172500X0*%
%ADD49RoundRect,0.225000X-0.250000X0.225000X-0.250000X-0.225000X0.250000X-0.225000X0.250000X0.225000X0*%
%ADD50RotRect,3.800000X3.800000X210.000000*%
%ADD51C,2.000000*%
%ADD52R,2.000000X2.000000*%
%ADD53R,0.600000X0.240000*%
%ADD54R,1.650000X2.400000*%
%ADD55R,0.250000X0.500000*%
%ADD56RoundRect,0.250000X-0.219615X-0.819615X0.819615X-0.219615X0.219615X0.819615X-0.819615X0.219615X0*%
%ADD57C,1.700000*%
%ADD58RoundRect,0.250000X-0.800000X0.450000X-0.800000X-0.450000X0.800000X-0.450000X0.800000X0.450000X0*%
%ADD59RoundRect,0.140000X0.021213X-0.219203X0.219203X-0.021213X-0.021213X0.219203X-0.219203X0.021213X0*%
%ADD60R,1.700000X1.700000*%
%ADD61O,1.700000X1.700000*%
%ADD62RoundRect,0.225000X-0.225000X-0.375000X0.225000X-0.375000X0.225000X0.375000X-0.225000X0.375000X0*%
%ADD63RoundRect,0.062500X0.137500X-0.062500X0.137500X0.062500X-0.137500X0.062500X-0.137500X-0.062500X0*%
%ADD64RoundRect,0.100000X-0.100000X-0.250000X0.100000X-0.250000X0.100000X0.250000X-0.100000X0.250000X0*%
%ADD65RoundRect,1.500000X-1.500000X1.500000X-1.500000X-1.500000X1.500000X-1.500000X1.500000X1.500000X0*%
%ADD66C,6.000000*%
G04 APERTURE END LIST*
D10*
X205800000Y-80600000D02*
X205800000Y-82700000D01*
X204700000Y-81600000D02*
X206900000Y-81600000D01*
X204900000Y-62400000D02*
X206700000Y-62400000D01*
X173300000Y-110400000D02*
X166700000Y-117000000D01*
X178800000Y-104900000D02*
X185300000Y-98200000D01*
D11*
G36*
X175994394Y-108133738D02*
G01*
X176073596Y-108191022D01*
X176122810Y-108253576D01*
X176152695Y-108350948D01*
X176146881Y-108418224D01*
X176104338Y-108511219D01*
X176057215Y-108569523D01*
X175985819Y-108645929D01*
X175915743Y-108717084D01*
X175649431Y-108983396D01*
X175273623Y-108607588D01*
X175505740Y-108375472D01*
X175541559Y-108340011D01*
X175617108Y-108268084D01*
X175697728Y-108197853D01*
X175781378Y-108140592D01*
X175835113Y-108120118D01*
X175935432Y-108115031D01*
X175994394Y-108133738D01*
G37*
G36*
X175334823Y-107583069D02*
G01*
X175418005Y-107640436D01*
X175462957Y-107699411D01*
X175487433Y-107794835D01*
X175473412Y-107873792D01*
X175422841Y-107962360D01*
X175366153Y-108025659D01*
X175294736Y-108099531D01*
X175219048Y-108175824D01*
X175030453Y-108364419D01*
X174698858Y-108032824D01*
X174863965Y-107867717D01*
X174876507Y-107855184D01*
X174955801Y-107776485D01*
X175035893Y-107698518D01*
X175114734Y-107626620D01*
X175174916Y-107589040D01*
X175273278Y-107568936D01*
X175334823Y-107583069D01*
G37*
G36*
X177212764Y-106756873D02*
G01*
X176824176Y-107145461D01*
X176508124Y-106444621D01*
X177212764Y-106756873D01*
G37*
G36*
X179658914Y-105774523D02*
G01*
X174138947Y-111294490D01*
X172387765Y-109543308D01*
X172702034Y-109543308D01*
X174648083Y-110471084D01*
X174955154Y-110164013D01*
X174028069Y-108217273D01*
X173723071Y-108522272D01*
X174435309Y-109932242D01*
X173013941Y-109231402D01*
X172702034Y-109543308D01*
X172387765Y-109543308D01*
X173854037Y-108077036D01*
X174168306Y-108077036D01*
X174698858Y-108607588D01*
X175605218Y-109513948D01*
X176090176Y-109028990D01*
X176139506Y-108978786D01*
X176213574Y-108902829D01*
X176289009Y-108824415D01*
X176358476Y-108750490D01*
X176427298Y-108672526D01*
X176478385Y-108600394D01*
X176523905Y-108511046D01*
X176552337Y-108412085D01*
X176559547Y-108345335D01*
X176554010Y-108244237D01*
X176528849Y-108141974D01*
X176502209Y-108075741D01*
X176450429Y-107985783D01*
X176384467Y-107907094D01*
X176368861Y-107892036D01*
X176286381Y-107828728D01*
X176196479Y-107785390D01*
X176099157Y-107762021D01*
X176068851Y-107758943D01*
X175966954Y-107763152D01*
X175863709Y-107789625D01*
X175769634Y-107832485D01*
X175789452Y-107764871D01*
X175800235Y-107662478D01*
X175788286Y-107558919D01*
X175768339Y-107491823D01*
X175721903Y-107399922D01*
X175655648Y-107318512D01*
X175619530Y-107285478D01*
X175535191Y-107228985D01*
X175442529Y-107193128D01*
X175412867Y-107185918D01*
X175311089Y-107173601D01*
X175212485Y-107181384D01*
X175184895Y-107187159D01*
X175091732Y-107219441D01*
X175003857Y-107270500D01*
X174957820Y-107305231D01*
X174880183Y-107371534D01*
X174808019Y-107438711D01*
X174737544Y-107507798D01*
X174212518Y-108032824D01*
X174168306Y-108077036D01*
X173854037Y-108077036D01*
X175691626Y-106239447D01*
X176005896Y-106239447D01*
X176096776Y-106444621D01*
X176888077Y-108231090D01*
X177193075Y-107926091D01*
X176978920Y-107477056D01*
X177548504Y-106907473D01*
X178004447Y-107114720D01*
X178317044Y-106802122D01*
X176309858Y-105935485D01*
X176005896Y-106239447D01*
X175691626Y-106239447D01*
X176461894Y-105469179D01*
X176776163Y-105469179D01*
X177019333Y-105712349D01*
X177441771Y-105289910D01*
X178635514Y-106483653D01*
X178923241Y-106195925D01*
X177729499Y-105002183D01*
X178150901Y-104580781D01*
X177907732Y-104337611D01*
X176776163Y-105469179D01*
X176461894Y-105469179D01*
X177907732Y-104023341D01*
X179658914Y-105774523D01*
G37*
G36*
X138755733Y-86084942D02*
G01*
X138783881Y-86091342D01*
X138888455Y-86130380D01*
X138980203Y-86190925D01*
X139049963Y-86261543D01*
X139109904Y-86348627D01*
X139124818Y-86375810D01*
X139164752Y-86470985D01*
X139187032Y-86579825D01*
X139184395Y-86688739D01*
X139161647Y-86784098D01*
X139156836Y-86797668D01*
X139110536Y-86890354D01*
X139042148Y-86979004D01*
X138965950Y-87051776D01*
X138873524Y-87121584D01*
X138784107Y-87177492D01*
X138764959Y-87188372D01*
X138671435Y-87236218D01*
X138564082Y-87279220D01*
X138462049Y-87306501D01*
X138349732Y-87318456D01*
X138244656Y-87309011D01*
X138216150Y-87302583D01*
X138123139Y-87269970D01*
X138029712Y-87213434D01*
X137950016Y-87136351D01*
X137891545Y-87052047D01*
X137877112Y-87025651D01*
X137838736Y-86932294D01*
X137818003Y-86823750D01*
X137821935Y-86713234D01*
X137845611Y-86614914D01*
X137856032Y-86586836D01*
X137906285Y-86491814D01*
X137966421Y-86414393D01*
X138042307Y-86340690D01*
X138133942Y-86270704D01*
X138222336Y-86215222D01*
X138241324Y-86204433D01*
X138334021Y-86156987D01*
X138440319Y-86114355D01*
X138541229Y-86087327D01*
X138652148Y-86075515D01*
X138755733Y-86084942D01*
G37*
G36*
X141454936Y-89278109D02*
G01*
X139256035Y-90547645D01*
X138362956Y-89000787D01*
X138655656Y-89000787D01*
X139364449Y-90228452D01*
X139662270Y-90056505D01*
X139156687Y-89180810D01*
X140618717Y-88336707D01*
X140415507Y-87984737D01*
X138655656Y-89000787D01*
X138362956Y-89000787D01*
X137962398Y-88307000D01*
X138255098Y-88307000D01*
X138458308Y-88658970D01*
X140218159Y-87642919D01*
X140014949Y-87290949D01*
X138255098Y-88307000D01*
X137962398Y-88307000D01*
X137034820Y-86700388D01*
X137441786Y-86700388D01*
X137449035Y-86817874D01*
X137450195Y-86823750D01*
X137472431Y-86936421D01*
X137502773Y-87032022D01*
X137543448Y-87128303D01*
X137594457Y-87225263D01*
X137652255Y-87316717D01*
X137714763Y-87399017D01*
X137781981Y-87472165D01*
X137872627Y-87550729D01*
X137970631Y-87614990D01*
X138075995Y-87664951D01*
X138188718Y-87700610D01*
X138235483Y-87710698D01*
X138354181Y-87724421D01*
X138475431Y-87721716D01*
X138574267Y-87707724D01*
X138674736Y-87683218D01*
X138776838Y-87648197D01*
X138880572Y-87602663D01*
X138985939Y-87546615D01*
X139038250Y-87515209D01*
X139135327Y-87449519D01*
X139222346Y-87379995D01*
X139299307Y-87306636D01*
X139366211Y-87229442D01*
X139423056Y-87148413D01*
X139479969Y-87041735D01*
X139521166Y-86929064D01*
X139546585Y-86812944D01*
X139555897Y-86696070D01*
X139549103Y-86578443D01*
X139526202Y-86460062D01*
X139496285Y-86364815D01*
X139456060Y-86269085D01*
X139405526Y-86172873D01*
X139390010Y-86146624D01*
X139333193Y-86060262D01*
X139272472Y-85982471D01*
X139198294Y-85904061D01*
X139119016Y-85836845D01*
X139111335Y-85831116D01*
X139021180Y-85774641D01*
X138930196Y-85733717D01*
X138830617Y-85702711D01*
X138809913Y-85697756D01*
X138706043Y-85679926D01*
X138601585Y-85673671D01*
X138496540Y-85678993D01*
X138394955Y-85696325D01*
X138289545Y-85726013D01*
X138196149Y-85761294D01*
X138099945Y-85805654D01*
X138000930Y-85859092D01*
X137975059Y-85874327D01*
X137877679Y-85937728D01*
X137790062Y-86005064D01*
X137712207Y-86076334D01*
X137644116Y-86151539D01*
X137572731Y-86251079D01*
X137516601Y-86356766D01*
X137475725Y-86468601D01*
X137450682Y-86583964D01*
X137441786Y-86700388D01*
X137034820Y-86700388D01*
X136052379Y-84998750D01*
X136455640Y-84998750D01*
X136468912Y-85109263D01*
X136497151Y-85219178D01*
X136540357Y-85328493D01*
X136585698Y-85415514D01*
X136606295Y-85449926D01*
X136671982Y-85544750D01*
X136743512Y-85626960D01*
X136820888Y-85696555D01*
X136904107Y-85753535D01*
X136993170Y-85797900D01*
X137055937Y-85820411D01*
X137155266Y-85843058D01*
X137260811Y-85852360D01*
X137372572Y-85848316D01*
X137470454Y-85834752D01*
X137572653Y-85811921D01*
X137483848Y-85408001D01*
X137416325Y-85426794D01*
X137315596Y-85444911D01*
X137213024Y-85447709D01*
X137112404Y-85428983D01*
X137025515Y-85389770D01*
X136945427Y-85325859D01*
X136881565Y-85240183D01*
X136837889Y-85144445D01*
X136816770Y-85047599D01*
X136818208Y-84949645D01*
X136842204Y-84850584D01*
X136857693Y-84813316D01*
X136911424Y-84727036D01*
X136977079Y-84653839D01*
X137060826Y-84581341D01*
X137144436Y-84521461D01*
X137240609Y-84462065D01*
X137334764Y-84411630D01*
X137441194Y-84365253D01*
X137540471Y-84334310D01*
X137647255Y-84317713D01*
X137757373Y-84324467D01*
X137855261Y-84354675D01*
X137941162Y-84403930D01*
X138015075Y-84472234D01*
X138077001Y-84559587D01*
X138117488Y-84647744D01*
X138138477Y-84745588D01*
X138134799Y-84844344D01*
X138110790Y-84931235D01*
X138062546Y-85019190D01*
X137991427Y-85099156D01*
X138246832Y-85416479D01*
X138269753Y-85392996D01*
X138341520Y-85310828D01*
X138400136Y-85228695D01*
X138451023Y-85134872D01*
X138484733Y-85041096D01*
X138494332Y-85001646D01*
X138509098Y-84902859D01*
X138510675Y-84803837D01*
X138499061Y-84704581D01*
X138474257Y-84605090D01*
X138436263Y-84505366D01*
X138385080Y-84405407D01*
X138344041Y-84339169D01*
X138285029Y-84258481D01*
X138204363Y-84169884D01*
X138116031Y-84094912D01*
X138020032Y-84033565D01*
X137916366Y-83985845D01*
X137805033Y-83951749D01*
X137758750Y-83942201D01*
X137640882Y-83929817D01*
X137519928Y-83933839D01*
X137420941Y-83948870D01*
X137319980Y-83974401D01*
X137217043Y-84010432D01*
X137112131Y-84056963D01*
X137005243Y-84113995D01*
X136980049Y-84128831D01*
X136885164Y-84190594D01*
X136799703Y-84256222D01*
X136723666Y-84325716D01*
X136657052Y-84399076D01*
X136587037Y-84496213D01*
X136531747Y-84599391D01*
X136491181Y-84708610D01*
X136473999Y-84775925D01*
X136457336Y-84887637D01*
X136455640Y-84998750D01*
X136052379Y-84998750D01*
X135796374Y-84555336D01*
X137995275Y-83285800D01*
X141454936Y-89278109D01*
G37*
G36*
X143891133Y-94692487D02*
G01*
X143935134Y-94770007D01*
X143983821Y-94860746D01*
X144025590Y-94952727D01*
X144043945Y-95040677D01*
X144031264Y-95138410D01*
X143986382Y-95220163D01*
X143909094Y-95283400D01*
X143851372Y-95309269D01*
X143752454Y-95320815D01*
X143693895Y-95309147D01*
X143604343Y-95259672D01*
X143595736Y-95252219D01*
X143529707Y-95174579D01*
X143473752Y-95091186D01*
X143416979Y-94996699D01*
X143305605Y-94803792D01*
X143792948Y-94522424D01*
X143891133Y-94692487D01*
G37*
G36*
X142354886Y-93782361D02*
G01*
X142080113Y-93306440D01*
X142838873Y-93182549D01*
X142354886Y-93782361D01*
G37*
G36*
X144989513Y-95400179D02*
G01*
X142817688Y-96654082D01*
X141870864Y-95014134D01*
X142127464Y-95014134D01*
X142330918Y-95366528D01*
X143007784Y-94975739D01*
X143140408Y-95205450D01*
X143198855Y-95303926D01*
X143253450Y-95390213D01*
X143311128Y-95473902D01*
X143376149Y-95556124D01*
X143400261Y-95580872D01*
X143478146Y-95643005D01*
X143564154Y-95691251D01*
X143615397Y-95711985D01*
X143717895Y-95735658D01*
X143820971Y-95740397D01*
X143838894Y-95739475D01*
X143939852Y-95722159D01*
X144035131Y-95688434D01*
X144123731Y-95643438D01*
X144208148Y-95588249D01*
X144288811Y-95518508D01*
X144352606Y-95441654D01*
X144404212Y-95346693D01*
X144424009Y-95291538D01*
X144444810Y-95192772D01*
X144446538Y-95094666D01*
X144429195Y-94997221D01*
X144416035Y-94956978D01*
X144373193Y-94858816D01*
X144322844Y-94759602D01*
X144267830Y-94658635D01*
X144213623Y-94563267D01*
X143887314Y-93998084D01*
X142491787Y-94803792D01*
X142127464Y-95014134D01*
X141870864Y-95014134D01*
X140758338Y-93087183D01*
X141014938Y-93087183D01*
X141141526Y-93306440D01*
X141230604Y-93460728D01*
X141719766Y-93370089D01*
X142122522Y-94067683D01*
X141804330Y-94454451D01*
X142025370Y-94837303D01*
X143381976Y-93122812D01*
X143167042Y-92750536D01*
X141014938Y-93087183D01*
X140758338Y-93087183D01*
X140032897Y-91830682D01*
X140400058Y-91830682D01*
X140413329Y-91941195D01*
X140441568Y-92051110D01*
X140484774Y-92160425D01*
X140530116Y-92247446D01*
X140550712Y-92281858D01*
X140616399Y-92376682D01*
X140687930Y-92458892D01*
X140765305Y-92528487D01*
X140848524Y-92585467D01*
X140937588Y-92629832D01*
X141000354Y-92652343D01*
X141099683Y-92674990D01*
X141205228Y-92684292D01*
X141316989Y-92680248D01*
X141414872Y-92666684D01*
X141517071Y-92643853D01*
X141428265Y-92239933D01*
X141360743Y-92258726D01*
X141260013Y-92276843D01*
X141157442Y-92279641D01*
X141056822Y-92260915D01*
X140969933Y-92221702D01*
X140889844Y-92157791D01*
X140825982Y-92072115D01*
X140782306Y-91976377D01*
X140761188Y-91879531D01*
X140762626Y-91781577D01*
X140786621Y-91682516D01*
X140802111Y-91645248D01*
X140855842Y-91558968D01*
X140921497Y-91485771D01*
X141005244Y-91413273D01*
X141088853Y-91353393D01*
X141185026Y-91293997D01*
X141279181Y-91243562D01*
X141385611Y-91197185D01*
X141484888Y-91166242D01*
X141591672Y-91149645D01*
X141701790Y-91156399D01*
X141799679Y-91186607D01*
X141885579Y-91235862D01*
X141959493Y-91304166D01*
X142021418Y-91391519D01*
X142061905Y-91479676D01*
X142082895Y-91577520D01*
X142079216Y-91676276D01*
X142055208Y-91763167D01*
X142006963Y-91851122D01*
X141935844Y-91931088D01*
X142191250Y-92248411D01*
X142214170Y-92224928D01*
X142285938Y-92142760D01*
X142344554Y-92060627D01*
X142395441Y-91966804D01*
X142429150Y-91873028D01*
X142438750Y-91833578D01*
X142453516Y-91734791D01*
X142455092Y-91635769D01*
X142443478Y-91536513D01*
X142418675Y-91437022D01*
X142380681Y-91337298D01*
X142329497Y-91237339D01*
X142288458Y-91171101D01*
X142229446Y-91090413D01*
X142148781Y-91001816D01*
X142060449Y-90926844D01*
X141964449Y-90865497D01*
X141860783Y-90817777D01*
X141749451Y-90783681D01*
X141703168Y-90774133D01*
X141585300Y-90761749D01*
X141464345Y-90765771D01*
X141365359Y-90780802D01*
X141264398Y-90806333D01*
X141161461Y-90842364D01*
X141056548Y-90888895D01*
X140949661Y-90945927D01*
X140924467Y-90960763D01*
X140829582Y-91022526D01*
X140744121Y-91088154D01*
X140668083Y-91157648D01*
X140601469Y-91231008D01*
X140531454Y-91328145D01*
X140476164Y-91431323D01*
X140435598Y-91540542D01*
X140418416Y-91607857D01*
X140401753Y-91719569D01*
X140400058Y-91830682D01*
X140032897Y-91830682D01*
X139767867Y-91371636D01*
X141939691Y-90117733D01*
X144989513Y-95400179D01*
G37*
G36*
X148270359Y-101145295D02*
G01*
X146125608Y-102383568D01*
X145372713Y-101079515D01*
X145629313Y-101079515D01*
X145846445Y-101455599D01*
X147966798Y-101063957D01*
X147751131Y-100690412D01*
X146204864Y-101013455D01*
X147249701Y-99821909D01*
X147029149Y-99439903D01*
X145629313Y-101079515D01*
X145372713Y-101079515D01*
X144106315Y-98886048D01*
X144362914Y-98886048D01*
X144566124Y-99238018D01*
X145324213Y-98800335D01*
X145722818Y-99490738D01*
X144964728Y-99928421D01*
X145167938Y-100280391D01*
X146927789Y-99264341D01*
X146724579Y-98912371D01*
X146020638Y-99318791D01*
X145622034Y-98628388D01*
X146325974Y-98221968D01*
X146122764Y-97869997D01*
X144362914Y-98886048D01*
X144106315Y-98886048D01*
X144059353Y-98804708D01*
X146204104Y-97566436D01*
X148270359Y-101145295D01*
G37*
G36*
X153043911Y-109628719D02*
G01*
X150899160Y-110866992D01*
X150146265Y-109562939D01*
X150402865Y-109562939D01*
X150619997Y-109939023D01*
X152740350Y-109547381D01*
X152524683Y-109173836D01*
X150978416Y-109496878D01*
X152023253Y-108305333D01*
X151802701Y-107923327D01*
X150402865Y-109562939D01*
X150146265Y-109562939D01*
X149043264Y-107652486D01*
X149299864Y-107652486D01*
X149976661Y-108824733D01*
X150301556Y-108637154D01*
X149918095Y-107972980D01*
X149952772Y-107974326D01*
X150049886Y-107988268D01*
X150064864Y-107991554D01*
X150162957Y-108018029D01*
X150262458Y-108048003D01*
X150357717Y-108077903D01*
X150400884Y-108091395D01*
X150505350Y-108122370D01*
X150604367Y-108148518D01*
X150705909Y-108169055D01*
X150797945Y-108179274D01*
X150902076Y-108182533D01*
X151005186Y-108174508D01*
X151069651Y-108161967D01*
X151163201Y-108131751D01*
X151252976Y-108087852D01*
X151278182Y-108072530D01*
X151356970Y-108012239D01*
X151429043Y-107930642D01*
X151481947Y-107835505D01*
X151512513Y-107741153D01*
X151525463Y-107654680D01*
X151522575Y-107551103D01*
X151500306Y-107444625D01*
X151465793Y-107351050D01*
X151417042Y-107255345D01*
X151381787Y-107198785D01*
X151314105Y-107111108D01*
X151238804Y-107037817D01*
X151155883Y-106978911D01*
X151065343Y-106934391D01*
X151051820Y-106929286D01*
X150952317Y-106905626D01*
X150844344Y-106903105D01*
X150745054Y-106917769D01*
X150639541Y-106947964D01*
X150546859Y-106984990D01*
X150706326Y-107337397D01*
X150752267Y-107316621D01*
X150851993Y-107286661D01*
X150955739Y-107288724D01*
X150961844Y-107290402D01*
X151049511Y-107338321D01*
X151114581Y-107419254D01*
X151152922Y-107515932D01*
X151150675Y-107619524D01*
X151147219Y-107631219D01*
X151095418Y-107716192D01*
X151014872Y-107778026D01*
X150968981Y-107800121D01*
X150873003Y-107824020D01*
X150772001Y-107826307D01*
X150733867Y-107821294D01*
X150636179Y-107800308D01*
X150534379Y-107773351D01*
X150429141Y-107742839D01*
X150328763Y-107712190D01*
X150226867Y-107681256D01*
X150108690Y-107648162D01*
X150000727Y-107621262D01*
X149902977Y-107600557D01*
X149799160Y-107583886D01*
X149696628Y-107575709D01*
X149592684Y-107578611D01*
X149491908Y-107592374D01*
X149394302Y-107616999D01*
X149299864Y-107652486D01*
X149043264Y-107652486D01*
X148590438Y-106868168D01*
X148847038Y-106868168D01*
X149039990Y-107202370D01*
X150799840Y-106186320D01*
X150643281Y-105915151D01*
X150547484Y-105924348D01*
X150449591Y-105918679D01*
X150349602Y-105898145D01*
X150247517Y-105862746D01*
X150185352Y-105835396D01*
X150094874Y-105789540D01*
X150006309Y-105734870D01*
X149924323Y-105670298D01*
X149599427Y-105857876D01*
X149628604Y-105882148D01*
X149718840Y-105949301D01*
X149813137Y-106007962D01*
X149911495Y-106058132D01*
X150013913Y-106099810D01*
X150120391Y-106132997D01*
X148847038Y-106868168D01*
X148590438Y-106868168D01*
X148294105Y-106354904D01*
X150438856Y-105116632D01*
X153043911Y-109628719D01*
G37*
G36*
X161651480Y-129114288D02*
G01*
X161700533Y-129199904D01*
X161748857Y-129286369D01*
X161793813Y-129374493D01*
X161812623Y-129448103D01*
X161803665Y-129545919D01*
X161769531Y-129608426D01*
X161691595Y-129673232D01*
X161643967Y-129696048D01*
X161542653Y-129711279D01*
X161499221Y-129703162D01*
X161413405Y-129654476D01*
X161374220Y-129609747D01*
X161314134Y-129522505D01*
X161261710Y-129437922D01*
X161209982Y-129350009D01*
X161059528Y-129089416D01*
X161492722Y-128839311D01*
X161651480Y-129114288D01*
G37*
G36*
X160321279Y-127097542D02*
G01*
X160349426Y-127103941D01*
X160454000Y-127142980D01*
X160545749Y-127203525D01*
X160615509Y-127274143D01*
X160675449Y-127361227D01*
X160690363Y-127388410D01*
X160730298Y-127483585D01*
X160752578Y-127592425D01*
X160749941Y-127701339D01*
X160727193Y-127796698D01*
X160722382Y-127810268D01*
X160676082Y-127902954D01*
X160607694Y-127991603D01*
X160531496Y-128064376D01*
X160439070Y-128134184D01*
X160349653Y-128190092D01*
X160330505Y-128200971D01*
X160236981Y-128248817D01*
X160129628Y-128291820D01*
X160027594Y-128319100D01*
X159915278Y-128331056D01*
X159810202Y-128321611D01*
X159781696Y-128315182D01*
X159688684Y-128282570D01*
X159595258Y-128226034D01*
X159515562Y-128148950D01*
X159457091Y-128064646D01*
X159442658Y-128038250D01*
X159404282Y-127944894D01*
X159383548Y-127836350D01*
X159387481Y-127725834D01*
X159411157Y-127627514D01*
X159421577Y-127599435D01*
X159471831Y-127504414D01*
X159531967Y-127426993D01*
X159607852Y-127353290D01*
X159699488Y-127283304D01*
X159787881Y-127227822D01*
X159806870Y-127217033D01*
X159899567Y-127169587D01*
X160005865Y-127126955D01*
X160106775Y-127099927D01*
X160217694Y-127088115D01*
X160321279Y-127097542D01*
G37*
G36*
X158403484Y-123775824D02*
G01*
X158431632Y-123782223D01*
X158536205Y-123821262D01*
X158627954Y-123881807D01*
X158697714Y-123952425D01*
X158757655Y-124039509D01*
X158772568Y-124066692D01*
X158812503Y-124161867D01*
X158834783Y-124270707D01*
X158832146Y-124379621D01*
X158809398Y-124474980D01*
X158804587Y-124488550D01*
X158758287Y-124581236D01*
X158689899Y-124669885D01*
X158613701Y-124742658D01*
X158521275Y-124812466D01*
X158431858Y-124868374D01*
X158412710Y-124879253D01*
X158319186Y-124927099D01*
X158211833Y-124970102D01*
X158109800Y-124997382D01*
X157997483Y-125009338D01*
X157892407Y-124999893D01*
X157863901Y-124993464D01*
X157770890Y-124960852D01*
X157677463Y-124904316D01*
X157597767Y-124827232D01*
X157539296Y-124742928D01*
X157524863Y-124716532D01*
X157486487Y-124623175D01*
X157465754Y-124514632D01*
X157469686Y-124404116D01*
X157493362Y-124305796D01*
X157503782Y-124277717D01*
X157554036Y-124182695D01*
X157614172Y-124105275D01*
X157690058Y-124031572D01*
X157781693Y-123961586D01*
X157870087Y-123906104D01*
X157889075Y-123895314D01*
X157981772Y-123847869D01*
X158088070Y-123805237D01*
X158188980Y-123778209D01*
X158299899Y-123766397D01*
X158403484Y-123775824D01*
G37*
G36*
X162823377Y-129949315D02*
G01*
X160624478Y-131218850D01*
X159534784Y-129331445D01*
X159827482Y-129331445D01*
X160030692Y-129683415D01*
X160761707Y-129261363D01*
X160802984Y-129332857D01*
X160807310Y-129340392D01*
X160853349Y-129428693D01*
X160885862Y-129521346D01*
X160890346Y-129569013D01*
X160875006Y-129668628D01*
X160857218Y-129719334D01*
X160817596Y-129812881D01*
X160771991Y-129911851D01*
X160729673Y-130000156D01*
X160489625Y-130478309D01*
X160732891Y-130899658D01*
X160952456Y-130488608D01*
X160998747Y-130401268D01*
X161044274Y-130310382D01*
X161085123Y-130221033D01*
X161121814Y-130123467D01*
X161140111Y-130053140D01*
X161155570Y-129951345D01*
X161160767Y-129849973D01*
X161181689Y-129875582D01*
X161256699Y-129954779D01*
X161334483Y-130017745D01*
X161426777Y-130069832D01*
X161522696Y-130100718D01*
X161620718Y-130111494D01*
X161719077Y-130102828D01*
X161817774Y-130074718D01*
X161916808Y-130027164D01*
X161936065Y-130015650D01*
X162023082Y-129951529D01*
X162094654Y-129876496D01*
X162150782Y-129790549D01*
X162189096Y-129698363D01*
X162207929Y-129595148D01*
X162202339Y-129490037D01*
X162191009Y-129438889D01*
X162159088Y-129344279D01*
X162117234Y-129248596D01*
X162071014Y-129157001D01*
X162015247Y-129056562D01*
X161587333Y-128315394D01*
X160246688Y-129089416D01*
X159827482Y-129331445D01*
X159534784Y-129331445D01*
X158600368Y-127712988D01*
X159007331Y-127712988D01*
X159014581Y-127830474D01*
X159015741Y-127836350D01*
X159037977Y-127949020D01*
X159068319Y-128044622D01*
X159108994Y-128140903D01*
X159160003Y-128237862D01*
X159217801Y-128329316D01*
X159280309Y-128411617D01*
X159347527Y-128484765D01*
X159438172Y-128563328D01*
X159536177Y-128627590D01*
X159641541Y-128677551D01*
X159754264Y-128713209D01*
X159801029Y-128723298D01*
X159919727Y-128737021D01*
X160040977Y-128734316D01*
X160139813Y-128720324D01*
X160240282Y-128695817D01*
X160342384Y-128660797D01*
X160446118Y-128615263D01*
X160551485Y-128559215D01*
X160603795Y-128527808D01*
X160700873Y-128462119D01*
X160787892Y-128392595D01*
X160864853Y-128319236D01*
X160931756Y-128242042D01*
X160988602Y-128161013D01*
X161045515Y-128054334D01*
X161086712Y-127941664D01*
X161112131Y-127825544D01*
X161121443Y-127708670D01*
X161114648Y-127591043D01*
X161091748Y-127472662D01*
X161061831Y-127377415D01*
X161021605Y-127281685D01*
X160971072Y-127185473D01*
X160955556Y-127159224D01*
X160898739Y-127072862D01*
X160838017Y-126995071D01*
X160763840Y-126916661D01*
X160684561Y-126849445D01*
X160676881Y-126843716D01*
X160586725Y-126787241D01*
X160495741Y-126746316D01*
X160396163Y-126715311D01*
X160375459Y-126710356D01*
X160271589Y-126692525D01*
X160167131Y-126686271D01*
X160062086Y-126691593D01*
X159960500Y-126708925D01*
X159855090Y-126738612D01*
X159761695Y-126773894D01*
X159665490Y-126818254D01*
X159566476Y-126871692D01*
X159540605Y-126886927D01*
X159443225Y-126950328D01*
X159355607Y-127017664D01*
X159277753Y-127088934D01*
X159209662Y-127164139D01*
X159138277Y-127263678D01*
X159082147Y-127369366D01*
X159041271Y-127481201D01*
X159016228Y-127596564D01*
X159007331Y-127712988D01*
X158600368Y-127712988D01*
X157842914Y-126401039D01*
X158135612Y-126401039D01*
X158339067Y-126753433D01*
X159801096Y-125909329D01*
X160099073Y-126425439D01*
X160396893Y-126253492D01*
X159596754Y-124867610D01*
X159298933Y-125039557D01*
X159597642Y-125556936D01*
X158135612Y-126401039D01*
X157842914Y-126401039D01*
X156682573Y-124391270D01*
X157089536Y-124391270D01*
X157096786Y-124508756D01*
X157097946Y-124514632D01*
X157120182Y-124627302D01*
X157150524Y-124722904D01*
X157191199Y-124819185D01*
X157242208Y-124916144D01*
X157300006Y-125007598D01*
X157362514Y-125089899D01*
X157429732Y-125163047D01*
X157520377Y-125241610D01*
X157618382Y-125305872D01*
X157723746Y-125355832D01*
X157836469Y-125391491D01*
X157883234Y-125401580D01*
X158001932Y-125415303D01*
X158123182Y-125412598D01*
X158222018Y-125398605D01*
X158322487Y-125374099D01*
X158424589Y-125339079D01*
X158528323Y-125293545D01*
X158633690Y-125237497D01*
X158686001Y-125206090D01*
X158783078Y-125140401D01*
X158870097Y-125070877D01*
X158947058Y-124997518D01*
X159013962Y-124920324D01*
X159070807Y-124839295D01*
X159127720Y-124732616D01*
X159168917Y-124619946D01*
X159194336Y-124503826D01*
X159203648Y-124386952D01*
X159196854Y-124269325D01*
X159173953Y-124150944D01*
X159144036Y-124055697D01*
X159103811Y-123959967D01*
X159053277Y-123863755D01*
X159037761Y-123837506D01*
X158980944Y-123751144D01*
X158920222Y-123673353D01*
X158846045Y-123594943D01*
X158766767Y-123527727D01*
X158759086Y-123521998D01*
X158668931Y-123465523D01*
X158577947Y-123424598D01*
X158478368Y-123393593D01*
X158457664Y-123388638D01*
X158353794Y-123370807D01*
X158249336Y-123364553D01*
X158144291Y-123369875D01*
X158042706Y-123387206D01*
X157937296Y-123416894D01*
X157843900Y-123452176D01*
X157747696Y-123496536D01*
X157648681Y-123549974D01*
X157622810Y-123565209D01*
X157525430Y-123628610D01*
X157437813Y-123695946D01*
X157359958Y-123767216D01*
X157291867Y-123842421D01*
X157220482Y-123941960D01*
X157164352Y-124047647D01*
X157123476Y-124159482D01*
X157098433Y-124274846D01*
X157089536Y-124391270D01*
X156682573Y-124391270D01*
X155359697Y-122099981D01*
X155652395Y-122099981D01*
X155841195Y-122426992D01*
X157226654Y-121627097D01*
X156040497Y-122772193D01*
X156236136Y-123111049D01*
X157821630Y-122657625D01*
X156436171Y-123457520D01*
X156624970Y-123784531D01*
X158384821Y-122768480D01*
X158080006Y-122240525D01*
X156698676Y-122620636D01*
X157716572Y-121611040D01*
X157412246Y-121083931D01*
X155652395Y-122099981D01*
X155359697Y-122099981D01*
X155321760Y-122034273D01*
X157520659Y-120764738D01*
X162823377Y-129949315D01*
G37*
D12*
G36*
X192273677Y-67848579D02*
G01*
X191998904Y-67848579D01*
X192134947Y-67489054D01*
X192273677Y-67848579D01*
G37*
G36*
X191355612Y-66137443D02*
G01*
X191407753Y-66138724D01*
X191461087Y-66142397D01*
X191510907Y-66151727D01*
X191537144Y-66163486D01*
X191574410Y-66197156D01*
X191588642Y-66224616D01*
X191596392Y-66272871D01*
X191591675Y-66312387D01*
X191567815Y-66357379D01*
X191541974Y-66379109D01*
X191494054Y-66396946D01*
X191456780Y-66400900D01*
X191404524Y-66402671D01*
X191354591Y-66403053D01*
X191166280Y-66403053D01*
X191166280Y-66137316D01*
X191330411Y-66137316D01*
X191355612Y-66137443D01*
G37*
G36*
X191291893Y-65730900D02*
G01*
X191347752Y-65731110D01*
X191403634Y-65731861D01*
X191456929Y-65734316D01*
X191491493Y-65742307D01*
X191533377Y-65769975D01*
X191550140Y-65796731D01*
X191559267Y-65846423D01*
X191554309Y-65883167D01*
X191529225Y-65925558D01*
X191496352Y-65948516D01*
X191447159Y-65961950D01*
X191404737Y-65964287D01*
X191353370Y-65965156D01*
X191299637Y-65965369D01*
X191166280Y-65965369D01*
X191166280Y-65730896D01*
X191283028Y-65730896D01*
X191291893Y-65730900D01*
G37*
G36*
X192506196Y-66168579D02*
G01*
X192231423Y-66168579D01*
X192367466Y-65809054D01*
X192506196Y-66168579D01*
G37*
G36*
X195933899Y-65731060D02*
G01*
X195983421Y-65731751D01*
X196032819Y-65734316D01*
X196069395Y-65744573D01*
X196109511Y-65772906D01*
X196128044Y-65803313D01*
X196136622Y-65853262D01*
X196134595Y-65879590D01*
X196115861Y-65927267D01*
X196101488Y-65944045D01*
X196058953Y-65969033D01*
X196029788Y-65974818D01*
X195976990Y-65979026D01*
X195927258Y-65980580D01*
X195876259Y-65981001D01*
X195725806Y-65981001D01*
X195725806Y-65730896D01*
X195884563Y-65730896D01*
X195933899Y-65731060D01*
G37*
G36*
X197428891Y-68381742D02*
G01*
X190851959Y-68381742D01*
X190851959Y-67238949D01*
X190963803Y-67238949D01*
X190963803Y-68255000D01*
X191167013Y-68255000D01*
X191637669Y-68255000D01*
X191853335Y-68255000D01*
X191936378Y-68020526D01*
X192339134Y-68020526D01*
X192427062Y-68255000D01*
X192648101Y-68255000D01*
X192244856Y-67238949D01*
X192748729Y-67238949D01*
X192748729Y-67779947D01*
X192749218Y-67831119D01*
X192751096Y-67887173D01*
X192754382Y-67937387D01*
X192759995Y-67988592D01*
X192768757Y-68037379D01*
X192776155Y-68062886D01*
X192797399Y-68108954D01*
X192825666Y-68149975D01*
X192859081Y-68184411D01*
X192899885Y-68214172D01*
X192943391Y-68237170D01*
X192953004Y-68241222D01*
X193002970Y-68256220D01*
X193056597Y-68265109D01*
X193110632Y-68269455D01*
X193162233Y-68270631D01*
X193198517Y-68269880D01*
X193251934Y-68265552D01*
X193305203Y-68256085D01*
X193355917Y-68239856D01*
X193395306Y-68220884D01*
X193436994Y-68193183D01*
X193474375Y-68157302D01*
X193497157Y-68126184D01*
X193520622Y-68078923D01*
X193535191Y-68029808D01*
X193543220Y-67978874D01*
X193547648Y-67927531D01*
X193550178Y-67875355D01*
X193551394Y-67826117D01*
X193551800Y-67771643D01*
X193551800Y-67238949D01*
X193766001Y-67238949D01*
X193766001Y-68255000D01*
X194474794Y-68255000D01*
X194474794Y-68083053D01*
X193969211Y-68083053D01*
X193969211Y-67238949D01*
X194439623Y-67238949D01*
X194439623Y-67410896D01*
X194738332Y-67410896D01*
X194738332Y-68255000D01*
X194941786Y-68255000D01*
X194941786Y-67410896D01*
X195239762Y-67410896D01*
X195239762Y-67238949D01*
X194439623Y-67238949D01*
X193969211Y-67238949D01*
X193766001Y-67238949D01*
X193551800Y-67238949D01*
X193348590Y-67238949D01*
X193348590Y-67802173D01*
X193348510Y-67824237D01*
X193347522Y-67877153D01*
X193345060Y-67926394D01*
X193339553Y-67975097D01*
X193338969Y-67978333D01*
X193320284Y-68025823D01*
X193286796Y-68063025D01*
X193255145Y-68081829D01*
X193206144Y-68095202D01*
X193156127Y-68098684D01*
X193115857Y-68096318D01*
X193067765Y-68085338D01*
X193021793Y-68060826D01*
X193007334Y-68048394D01*
X192976239Y-68007174D01*
X192959755Y-67960443D01*
X192957182Y-67942634D01*
X192953847Y-67893125D01*
X192952546Y-67843414D01*
X192952184Y-67790450D01*
X192952184Y-67238949D01*
X192748729Y-67238949D01*
X192244856Y-67238949D01*
X192029923Y-67238949D01*
X191794571Y-67848579D01*
X191637669Y-68255000D01*
X191167013Y-68255000D01*
X191167013Y-67817316D01*
X191587355Y-67817316D01*
X191587355Y-67645369D01*
X191167013Y-67645369D01*
X191167013Y-67410896D01*
X191654033Y-67410896D01*
X191654033Y-67238949D01*
X190963803Y-67238949D01*
X190851959Y-67238949D01*
X190851959Y-65558949D01*
X190963070Y-65558949D01*
X190963070Y-65730896D01*
X190963070Y-66137316D01*
X190963070Y-66575000D01*
X191305987Y-66575000D01*
X191870188Y-66575000D01*
X192085854Y-66575000D01*
X192168897Y-66340526D01*
X192571653Y-66340526D01*
X192659581Y-66575000D01*
X192880621Y-66575000D01*
X192477376Y-65558949D01*
X192807103Y-65558949D01*
X192807103Y-65730896D01*
X193105812Y-65730896D01*
X193105812Y-66575000D01*
X193309267Y-66575000D01*
X193309267Y-65730896D01*
X193607243Y-65730896D01*
X193607243Y-65558949D01*
X193661953Y-65558949D01*
X193661953Y-65730896D01*
X193960662Y-65730896D01*
X193960662Y-66575000D01*
X194164117Y-66575000D01*
X194164117Y-65730896D01*
X194462093Y-65730896D01*
X194462093Y-65558949D01*
X194588855Y-65558949D01*
X194588855Y-66575000D01*
X195354801Y-66575000D01*
X195354801Y-66403053D01*
X194792309Y-66403053D01*
X194792309Y-66121685D01*
X195297892Y-66121685D01*
X195297892Y-65949738D01*
X194792309Y-65949738D01*
X194792309Y-65730896D01*
X195335505Y-65730896D01*
X195335505Y-65558949D01*
X195522595Y-65558949D01*
X195522595Y-65730896D01*
X195522595Y-66575000D01*
X195725806Y-66575000D01*
X195725806Y-66152948D01*
X195767083Y-66152948D01*
X195771427Y-66152959D01*
X195821172Y-66155098D01*
X195869420Y-66164183D01*
X195891181Y-66174158D01*
X195930481Y-66205704D01*
X195947990Y-66226083D01*
X195978592Y-66266627D01*
X196010046Y-66311117D01*
X196037704Y-66351517D01*
X196184738Y-66575000D01*
X196428004Y-66575000D01*
X196304905Y-66377163D01*
X196278659Y-66335283D01*
X196250686Y-66292847D01*
X196222209Y-66252822D01*
X196189134Y-66212543D01*
X196163256Y-66187039D01*
X196123042Y-66154896D01*
X196080446Y-66127302D01*
X196096766Y-66124645D01*
X196149811Y-66111964D01*
X196196523Y-66094024D01*
X196242150Y-66067081D01*
X196279504Y-66033269D01*
X196308676Y-65993518D01*
X196329513Y-65948761D01*
X196342015Y-65898996D01*
X196346182Y-65844225D01*
X196346011Y-65833008D01*
X196340000Y-65779298D01*
X196325403Y-65729548D01*
X196302219Y-65683757D01*
X196271879Y-65644120D01*
X196231894Y-65610162D01*
X196184982Y-65586304D01*
X196160002Y-65578424D01*
X196111054Y-65568593D01*
X196059159Y-65562796D01*
X196007942Y-65559911D01*
X195950509Y-65558949D01*
X196375980Y-65558949D01*
X196744787Y-66147330D01*
X196744787Y-66575000D01*
X196947508Y-66575000D01*
X196947508Y-66148796D01*
X197317780Y-65558949D01*
X197083307Y-65558949D01*
X196851277Y-65966346D01*
X196614361Y-65558949D01*
X196375980Y-65558949D01*
X195950509Y-65558949D01*
X195522595Y-65558949D01*
X195335505Y-65558949D01*
X194588855Y-65558949D01*
X194462093Y-65558949D01*
X193661953Y-65558949D01*
X193607243Y-65558949D01*
X192807103Y-65558949D01*
X192477376Y-65558949D01*
X192262442Y-65558949D01*
X192027090Y-66168579D01*
X191870188Y-66575000D01*
X191305987Y-66575000D01*
X191341178Y-66574690D01*
X191394220Y-66574023D01*
X191448613Y-66572969D01*
X191499310Y-66571393D01*
X191551207Y-66568161D01*
X191594771Y-66560720D01*
X191642454Y-66545225D01*
X191687494Y-66520289D01*
X191713644Y-66499238D01*
X191747429Y-66461537D01*
X191774689Y-66416486D01*
X191788687Y-66383650D01*
X191802185Y-66333539D01*
X191806685Y-66282397D01*
X191806491Y-66271555D01*
X191799712Y-66220012D01*
X191783250Y-66172904D01*
X191757103Y-66130233D01*
X191747477Y-66118430D01*
X191709963Y-66083893D01*
X191664101Y-66056749D01*
X191615687Y-66038642D01*
X191646599Y-66021744D01*
X191686613Y-65989355D01*
X191719002Y-65948517D01*
X191735671Y-65917742D01*
X191751745Y-65868832D01*
X191757103Y-65816625D01*
X191756013Y-65792176D01*
X191746168Y-65742385D01*
X191726085Y-65696946D01*
X191718147Y-65683910D01*
X191686517Y-65643572D01*
X191648904Y-65611461D01*
X191637108Y-65603749D01*
X191592756Y-65582224D01*
X191543635Y-65569207D01*
X191515080Y-65565210D01*
X191464189Y-65561203D01*
X191414925Y-65559440D01*
X191365582Y-65558949D01*
X190963070Y-65558949D01*
X190851959Y-65558949D01*
X190851959Y-65447838D01*
X197428891Y-65447838D01*
X197428891Y-68381742D01*
G37*
G36*
X163907978Y-101789167D02*
G01*
X160000395Y-101789167D01*
X160000395Y-100754949D01*
X160167062Y-100754949D01*
X160193768Y-100745100D01*
X160271224Y-100711672D01*
X160344687Y-100672422D01*
X160414157Y-100627351D01*
X160479635Y-100576458D01*
X160541120Y-100519743D01*
X160541120Y-101622500D01*
X160830547Y-101622500D01*
X161220359Y-101622500D01*
X162235554Y-101622500D01*
X162235554Y-101341132D01*
X161660362Y-101341132D01*
X161674241Y-101319113D01*
X161719713Y-101261264D01*
X161727465Y-101252768D01*
X161781446Y-101198982D01*
X161838227Y-101145595D01*
X161893370Y-101094935D01*
X161918321Y-101071957D01*
X161977615Y-101015720D01*
X162031730Y-100961212D01*
X162083147Y-100902960D01*
X162124298Y-100847013D01*
X162165464Y-100780600D01*
X162198918Y-100710619D01*
X162214946Y-100664045D01*
X162230402Y-100591951D01*
X162235554Y-100517178D01*
X162235055Y-100495061D01*
X162225440Y-100421277D01*
X162199468Y-100343866D01*
X162157514Y-100273827D01*
X162107693Y-100218592D01*
X162056384Y-100177753D01*
X161988025Y-100140788D01*
X161910515Y-100115323D01*
X161836794Y-100102649D01*
X161756350Y-100098424D01*
X162334839Y-100098424D01*
X162874860Y-101622500D01*
X163200558Y-101622500D01*
X163741311Y-100098424D01*
X163417812Y-100098424D01*
X163047784Y-101223895D01*
X162665666Y-100098424D01*
X162334839Y-100098424D01*
X161756350Y-100098424D01*
X161706393Y-100100113D01*
X161624064Y-100111195D01*
X161548222Y-100132621D01*
X161478866Y-100164389D01*
X161415997Y-100206502D01*
X161407610Y-100213371D01*
X161354929Y-100269127D01*
X161312802Y-100338312D01*
X161285093Y-100408302D01*
X161265137Y-100488158D01*
X161254431Y-100562241D01*
X161543126Y-100590818D01*
X161546859Y-100553187D01*
X161564797Y-100477178D01*
X161605041Y-100410566D01*
X161608421Y-100407231D01*
X161672420Y-100368259D01*
X161749389Y-100356345D01*
X161826562Y-100367695D01*
X161893004Y-100408002D01*
X161899303Y-100414632D01*
X161935070Y-100480143D01*
X161945027Y-100555647D01*
X161942170Y-100593739D01*
X161921700Y-100665041D01*
X161885310Y-100731502D01*
X161867754Y-100754390D01*
X161817490Y-100809971D01*
X161761806Y-100865983D01*
X161702524Y-100922895D01*
X161644975Y-100976599D01*
X161586672Y-101031182D01*
X161520860Y-101095530D01*
X161462902Y-101155567D01*
X161412797Y-101211292D01*
X161363037Y-101272472D01*
X161319277Y-101336003D01*
X161282183Y-101404604D01*
X161253332Y-101475221D01*
X161232724Y-101547853D01*
X161220359Y-101622500D01*
X160830547Y-101622500D01*
X160830547Y-100098424D01*
X160595708Y-100098424D01*
X160565758Y-100164095D01*
X160525366Y-100225553D01*
X160474533Y-100282797D01*
X160413258Y-100335828D01*
X160372182Y-100365949D01*
X160308469Y-100407520D01*
X160239748Y-100444544D01*
X160167062Y-100473581D01*
X160167062Y-100754949D01*
X160000395Y-100754949D01*
X160000395Y-99931757D01*
X163907978Y-99931757D01*
X163907978Y-101789167D01*
G37*
G36*
X162740009Y-104312614D02*
G01*
X159927122Y-104312614D01*
X159927122Y-103686526D01*
X160093789Y-103686526D01*
X160104397Y-103750150D01*
X160123974Y-103820972D01*
X160156257Y-103895980D01*
X160198707Y-103962784D01*
X160251325Y-104021383D01*
X160294429Y-104057268D01*
X160361114Y-104097289D01*
X160435198Y-104125389D01*
X160516680Y-104141568D01*
X160592411Y-104145947D01*
X160656106Y-104142838D01*
X160730687Y-104130211D01*
X160812793Y-104102235D01*
X160886835Y-104060272D01*
X160952815Y-104004322D01*
X161001639Y-103947011D01*
X161026970Y-103909940D01*
X161063172Y-103842089D01*
X161089030Y-103770452D01*
X161104545Y-103695028D01*
X161109717Y-103615818D01*
X161106443Y-103548248D01*
X161093872Y-103472548D01*
X161067290Y-103391654D01*
X161027875Y-103318755D01*
X160975628Y-103253850D01*
X160941275Y-103221135D01*
X160876723Y-103174379D01*
X160806526Y-103140982D01*
X160730684Y-103120944D01*
X160649197Y-103114265D01*
X160592667Y-103118496D01*
X160518375Y-103137301D01*
X160451360Y-103167754D01*
X160496789Y-102903239D01*
X161042672Y-102903239D01*
X161042672Y-102621871D01*
X160277337Y-102621871D01*
X160128960Y-103453152D01*
X160363799Y-103489422D01*
X160382572Y-103468471D01*
X160441594Y-103417981D01*
X160511933Y-103383634D01*
X160587281Y-103372185D01*
X160611696Y-103373164D01*
X160687861Y-103392008D01*
X160749581Y-103434834D01*
X160776829Y-103469913D01*
X160804503Y-103543717D01*
X160811863Y-103622412D01*
X160807924Y-103684900D01*
X160789648Y-103757137D01*
X160748848Y-103822081D01*
X160732745Y-103837537D01*
X160669443Y-103875404D01*
X160595341Y-103888026D01*
X160590413Y-103887965D01*
X160516431Y-103870242D01*
X160455390Y-103825012D01*
X160431097Y-103795144D01*
X160398260Y-103728326D01*
X160382117Y-103653553D01*
X160093789Y-103686526D01*
X159927122Y-103686526D01*
X159927122Y-102598424D01*
X161166870Y-102598424D01*
X161706891Y-104122500D01*
X162032588Y-104122500D01*
X162573342Y-102598424D01*
X162249842Y-102598424D01*
X161879815Y-103723895D01*
X161497697Y-102598424D01*
X161166870Y-102598424D01*
X159927122Y-102598424D01*
X159927122Y-102431757D01*
X162740009Y-102431757D01*
X162740009Y-104312614D01*
G37*
G36*
X163817120Y-106812614D02*
G01*
X159912834Y-106812614D01*
X159912834Y-106189823D01*
X160079501Y-106189823D01*
X160086673Y-106239540D01*
X160107738Y-106320732D01*
X160139637Y-106394525D01*
X160182371Y-106460920D01*
X160235938Y-106519918D01*
X160279884Y-106556225D01*
X160347118Y-106596717D01*
X160421014Y-106625147D01*
X160501572Y-106641516D01*
X160575924Y-106645947D01*
X160654608Y-106640898D01*
X160728269Y-106625751D01*
X160807857Y-106595317D01*
X160880609Y-106551139D01*
X160937526Y-106502332D01*
X160979427Y-106455986D01*
X161026157Y-106386172D01*
X161058968Y-106310608D01*
X161077859Y-106229293D01*
X161082972Y-106155019D01*
X161082286Y-106129073D01*
X161071999Y-106055602D01*
X161046088Y-105981650D01*
X161004937Y-105915783D01*
X160995025Y-105903648D01*
X160939369Y-105851263D01*
X160873552Y-105812687D01*
X160797575Y-105787922D01*
X160860162Y-105749820D01*
X160921265Y-105699021D01*
X160973245Y-105632756D01*
X161004433Y-105558953D01*
X161014829Y-105477611D01*
X161012235Y-105435376D01*
X160994492Y-105362868D01*
X160959942Y-105294881D01*
X160908583Y-105231414D01*
X160866331Y-105193102D01*
X160800236Y-105150373D01*
X160726042Y-105120373D01*
X160643749Y-105103100D01*
X160566765Y-105098424D01*
X161166870Y-105098424D01*
X161706891Y-106622500D01*
X162032588Y-106622500D01*
X162186105Y-106189823D01*
X162646981Y-106189823D01*
X162654154Y-106239540D01*
X162675219Y-106320732D01*
X162707118Y-106394525D01*
X162749851Y-106460920D01*
X162803419Y-106519918D01*
X162847365Y-106556225D01*
X162914599Y-106596717D01*
X162988495Y-106625147D01*
X163069053Y-106641516D01*
X163143405Y-106645947D01*
X163222089Y-106640898D01*
X163295750Y-106625751D01*
X163375338Y-106595317D01*
X163448090Y-106551139D01*
X163505006Y-106502332D01*
X163546908Y-106455986D01*
X163593638Y-106386172D01*
X163626449Y-106310608D01*
X163645340Y-106229293D01*
X163650453Y-106155019D01*
X163649767Y-106129073D01*
X163639479Y-106055602D01*
X163613569Y-105981650D01*
X163572418Y-105915783D01*
X163562506Y-105903648D01*
X163506850Y-105851263D01*
X163441033Y-105812687D01*
X163365055Y-105787922D01*
X163427643Y-105749820D01*
X163488746Y-105699021D01*
X163540726Y-105632756D01*
X163571913Y-105558953D01*
X163582309Y-105477611D01*
X163579715Y-105435376D01*
X163561973Y-105362868D01*
X163527423Y-105294881D01*
X163476064Y-105231414D01*
X163433812Y-105193102D01*
X163367717Y-105150373D01*
X163293523Y-105120373D01*
X163211230Y-105103100D01*
X163134246Y-105098424D01*
X163058719Y-105103111D01*
X162981011Y-105119093D01*
X162908932Y-105146418D01*
X162861511Y-105172659D01*
X162800768Y-105220435D01*
X162752494Y-105278309D01*
X162745598Y-105288971D01*
X162711606Y-105355489D01*
X162686490Y-105427532D01*
X162668597Y-105501791D01*
X162935310Y-105543923D01*
X162954973Y-105467453D01*
X162999057Y-105404338D01*
X163053186Y-105369890D01*
X163125819Y-105356345D01*
X163178147Y-105362166D01*
X163246353Y-105397744D01*
X163275767Y-105435739D01*
X163291782Y-105508019D01*
X163276304Y-105581292D01*
X163229867Y-105638445D01*
X163195589Y-105659740D01*
X163124943Y-105680475D01*
X163050715Y-105684607D01*
X163018841Y-105917248D01*
X163078082Y-105903253D01*
X163151831Y-105895633D01*
X163162264Y-105895885D01*
X163234124Y-105913831D01*
X163294713Y-105960113D01*
X163317697Y-105990497D01*
X163345403Y-106058459D01*
X163353698Y-106134502D01*
X163350753Y-106183176D01*
X163332000Y-106255931D01*
X163292149Y-106319516D01*
X163276412Y-106335573D01*
X163214392Y-106374913D01*
X163141573Y-106388026D01*
X163131229Y-106387792D01*
X163059852Y-106371069D01*
X162999424Y-106327943D01*
X162972931Y-106294375D01*
X162941894Y-106225566D01*
X162927250Y-106153553D01*
X162646981Y-106189823D01*
X162186105Y-106189823D01*
X162573342Y-105098424D01*
X162249842Y-105098424D01*
X161879815Y-106223895D01*
X161497697Y-105098424D01*
X161166870Y-105098424D01*
X160566765Y-105098424D01*
X160491238Y-105103111D01*
X160413531Y-105119093D01*
X160341451Y-105146418D01*
X160294030Y-105172659D01*
X160233288Y-105220435D01*
X160185013Y-105278309D01*
X160178117Y-105288971D01*
X160144126Y-105355489D01*
X160119010Y-105427532D01*
X160101116Y-105501791D01*
X160367829Y-105543923D01*
X160387493Y-105467453D01*
X160431577Y-105404338D01*
X160485705Y-105369890D01*
X160558339Y-105356345D01*
X160610666Y-105362166D01*
X160678872Y-105397744D01*
X160708286Y-105435739D01*
X160724302Y-105508019D01*
X160708823Y-105581292D01*
X160662386Y-105638445D01*
X160628108Y-105659740D01*
X160557462Y-105680475D01*
X160483234Y-105684607D01*
X160451360Y-105917248D01*
X160510601Y-105903253D01*
X160584351Y-105895633D01*
X160594783Y-105895885D01*
X160666643Y-105913831D01*
X160727233Y-105960113D01*
X160750216Y-105990497D01*
X160777923Y-106058459D01*
X160786217Y-106134502D01*
X160783272Y-106183176D01*
X160764519Y-106255931D01*
X160724668Y-106319516D01*
X160708932Y-106335573D01*
X160646912Y-106374913D01*
X160574092Y-106388026D01*
X160563748Y-106387792D01*
X160492372Y-106371069D01*
X160431943Y-106327943D01*
X160405450Y-106294375D01*
X160374413Y-106225566D01*
X160359769Y-106153553D01*
X160079501Y-106189823D01*
X159912834Y-106189823D01*
X159912834Y-104931757D01*
X163817120Y-104931757D01*
X163817120Y-106812614D01*
G37*
D13*
X148071428Y-142757419D02*
X148261904Y-142757419D01*
X148261904Y-142757419D02*
X148357142Y-142805038D01*
X148357142Y-142805038D02*
X148452380Y-142900276D01*
X148452380Y-142900276D02*
X148499999Y-143090752D01*
X148499999Y-143090752D02*
X148499999Y-143424085D01*
X148499999Y-143424085D02*
X148452380Y-143614561D01*
X148452380Y-143614561D02*
X148357142Y-143709800D01*
X148357142Y-143709800D02*
X148261904Y-143757419D01*
X148261904Y-143757419D02*
X148071428Y-143757419D01*
X148071428Y-143757419D02*
X147976190Y-143709800D01*
X147976190Y-143709800D02*
X147880952Y-143614561D01*
X147880952Y-143614561D02*
X147833333Y-143424085D01*
X147833333Y-143424085D02*
X147833333Y-143090752D01*
X147833333Y-143090752D02*
X147880952Y-142900276D01*
X147880952Y-142900276D02*
X147976190Y-142805038D01*
X147976190Y-142805038D02*
X148071428Y-142757419D01*
X149404761Y-143757419D02*
X148928571Y-143757419D01*
X148928571Y-143757419D02*
X148928571Y-142757419D01*
X150261904Y-143757419D02*
X149690476Y-143757419D01*
X149976190Y-143757419D02*
X149976190Y-142757419D01*
X149976190Y-142757419D02*
X149880952Y-142900276D01*
X149880952Y-142900276D02*
X149785714Y-142995514D01*
X149785714Y-142995514D02*
X149690476Y-143043133D01*
X150880952Y-142757419D02*
X150976190Y-142757419D01*
X150976190Y-142757419D02*
X151071428Y-142805038D01*
X151071428Y-142805038D02*
X151119047Y-142852657D01*
X151119047Y-142852657D02*
X151166666Y-142947895D01*
X151166666Y-142947895D02*
X151214285Y-143138371D01*
X151214285Y-143138371D02*
X151214285Y-143376466D01*
X151214285Y-143376466D02*
X151166666Y-143566942D01*
X151166666Y-143566942D02*
X151119047Y-143662180D01*
X151119047Y-143662180D02*
X151071428Y-143709800D01*
X151071428Y-143709800D02*
X150976190Y-143757419D01*
X150976190Y-143757419D02*
X150880952Y-143757419D01*
X150880952Y-143757419D02*
X150785714Y-143709800D01*
X150785714Y-143709800D02*
X150738095Y-143662180D01*
X150738095Y-143662180D02*
X150690476Y-143566942D01*
X150690476Y-143566942D02*
X150642857Y-143376466D01*
X150642857Y-143376466D02*
X150642857Y-143138371D01*
X150642857Y-143138371D02*
X150690476Y-142947895D01*
X150690476Y-142947895D02*
X150738095Y-142852657D01*
X150738095Y-142852657D02*
X150785714Y-142805038D01*
X150785714Y-142805038D02*
X150880952Y-142757419D01*
X151595238Y-142852657D02*
X151642857Y-142805038D01*
X151642857Y-142805038D02*
X151738095Y-142757419D01*
X151738095Y-142757419D02*
X151976190Y-142757419D01*
X151976190Y-142757419D02*
X152071428Y-142805038D01*
X152071428Y-142805038D02*
X152119047Y-142852657D01*
X152119047Y-142852657D02*
X152166666Y-142947895D01*
X152166666Y-142947895D02*
X152166666Y-143043133D01*
X152166666Y-143043133D02*
X152119047Y-143185990D01*
X152119047Y-143185990D02*
X151547619Y-143757419D01*
X151547619Y-143757419D02*
X152166666Y-143757419D01*
D14*
%TO.C,R116*%
X150370000Y-70953641D02*
X150370000Y-70646359D01*
X151130000Y-70953641D02*
X151130000Y-70646359D01*
%TO.C,J106*%
X168247885Y-117848528D02*
X168530728Y-119969849D01*
X168530728Y-119969849D02*
X174696699Y-126135820D01*
X170241926Y-115854487D02*
X168247885Y-117848528D01*
X170241926Y-115854487D02*
X172363247Y-116137330D01*
X172363247Y-116137330D02*
X178529218Y-122303301D01*
X178529218Y-122303301D02*
X174696699Y-126135820D01*
%TO.C,C124*%
X141740000Y-75690580D02*
X141740000Y-75409420D01*
X142760000Y-75690580D02*
X142760000Y-75409420D01*
%TO.C,R103*%
X189413641Y-68370000D02*
X189106359Y-68370000D01*
X189413641Y-69130000D02*
X189106359Y-69130000D01*
%TO.C,C120*%
X151640000Y-70907836D02*
X151640000Y-70692164D01*
X152360000Y-70907836D02*
X152360000Y-70692164D01*
%TO.C,U101*%
X197990000Y-71137500D02*
X197990000Y-73137500D01*
X200210000Y-71137500D02*
X200210000Y-73137500D01*
X200390000Y-70897500D02*
X200110000Y-70897500D01*
X200110000Y-70617500D01*
X200390000Y-70897500D01*
G36*
X200390000Y-70897500D02*
G01*
X200110000Y-70897500D01*
X200110000Y-70617500D01*
X200390000Y-70897500D01*
G37*
%TO.C,R129*%
X154346359Y-80120000D02*
X154653641Y-80120000D01*
X154346359Y-80880000D02*
X154653641Y-80880000D01*
%TO.C,R131*%
X157870000Y-85326359D02*
X157870000Y-85633641D01*
X158630000Y-85326359D02*
X158630000Y-85633641D01*
%TO.C,J103*%
X127708008Y-91558904D02*
X128530251Y-89583071D01*
X127708008Y-91558904D02*
X129118008Y-94001096D01*
X128530251Y-89583071D02*
X136081993Y-85223071D01*
X129118008Y-94001096D02*
X131240251Y-94276929D01*
X131240251Y-94276929D02*
X138791993Y-89916929D01*
X136081993Y-85223071D02*
X138791993Y-89916929D01*
%TO.C,R113*%
X172370000Y-68653641D02*
X172370000Y-68346359D01*
X173130000Y-68653641D02*
X173130000Y-68346359D01*
%TO.C,C111*%
X159890000Y-70642164D02*
X159890000Y-70857836D01*
X160610000Y-70642164D02*
X160610000Y-70857836D01*
%TO.C,R106*%
X138846359Y-57620000D02*
X139153641Y-57620000D01*
X138846359Y-58380000D02*
X139153641Y-58380000D01*
D13*
%TO.C,U110*%
X156250000Y-80350000D02*
X156250000Y-81250000D01*
X156250000Y-82450000D02*
X156250000Y-83350000D01*
X156250000Y-83350000D02*
X156450000Y-83350000D01*
X156450000Y-80350000D02*
X156250000Y-80350000D01*
D12*
X158650000Y-79750000D02*
X158650000Y-79750000D01*
X158850000Y-79750000D02*
X158850000Y-79750000D01*
D13*
X159050000Y-80350000D02*
X159250000Y-80350000D01*
X159250000Y-80350000D02*
X159250000Y-81250000D01*
X159250000Y-82450000D02*
X159250000Y-83350000D01*
X159250000Y-83350000D02*
X159050000Y-83350000D01*
D12*
X158650000Y-79750000D02*
G75*
G02*
X158850000Y-79750000I100000J0D01*
G01*
X158850000Y-79750000D02*
G75*
G02*
X158650000Y-79750000I-100000J0D01*
G01*
D14*
%TO.C,J107*%
X135208008Y-104549286D02*
X136030251Y-102573453D01*
X135208008Y-104549286D02*
X136618008Y-106991478D01*
X136030251Y-102573453D02*
X143581993Y-98213453D01*
X136618008Y-106991478D02*
X138740251Y-107267311D01*
X138740251Y-107267311D02*
X146291993Y-102907311D01*
X143581993Y-98213453D02*
X146291993Y-102907311D01*
%TO.C,C109*%
X145390000Y-67192164D02*
X145390000Y-67407836D01*
X146110000Y-67192164D02*
X146110000Y-67407836D01*
%TO.C,C132*%
X155890000Y-85372164D02*
X155890000Y-85587836D01*
X156610000Y-85372164D02*
X156610000Y-85587836D01*
%TO.C,C103*%
X166840000Y-54340000D02*
X169190000Y-54340000D01*
X166840000Y-60095563D02*
X166840000Y-54340000D01*
X167904437Y-61160000D02*
X166840000Y-60095563D01*
X167904437Y-61160000D02*
X169190000Y-61160000D01*
X168008750Y-61793750D02*
X168796250Y-61793750D01*
X168402500Y-62187500D02*
X168402500Y-61400000D01*
X172595563Y-61160000D02*
X171310000Y-61160000D01*
X172595563Y-61160000D02*
X173660000Y-60095563D01*
X173660000Y-54340000D02*
X171310000Y-54340000D01*
X173660000Y-60095563D02*
X173660000Y-54340000D01*
%TO.C,R125*%
X178620000Y-100356359D02*
X178620000Y-100663641D01*
X179380000Y-100356359D02*
X179380000Y-100663641D01*
%TO.C,R135*%
X156403641Y-78370000D02*
X156096359Y-78370000D01*
X156403641Y-79130000D02*
X156096359Y-79130000D01*
%TO.C,R137*%
X167403641Y-78370000D02*
X167096359Y-78370000D01*
X167403641Y-79130000D02*
X167096359Y-79130000D01*
%TO.C,J102*%
X184157788Y-101938625D02*
X184440631Y-104059946D01*
X184440631Y-104059946D02*
X190606602Y-110225917D01*
X186151829Y-99944584D02*
X184157788Y-101938625D01*
X186151829Y-99944584D02*
X188273150Y-100227427D01*
X188273150Y-100227427D02*
X194439121Y-106393398D01*
X194439121Y-106393398D02*
X190606602Y-110225917D01*
%TO.C,C114*%
X158394514Y-69988300D02*
X158610186Y-69988300D01*
X158394514Y-70708300D02*
X158610186Y-70708300D01*
%TO.C,L101*%
X165692350Y-71690000D02*
X165692350Y-76810000D01*
X165692350Y-71690000D02*
X166492350Y-71690000D01*
X165692350Y-76810000D02*
X166492350Y-76810000D01*
X170312350Y-71690000D02*
X169512350Y-71690000D01*
X170312350Y-71690000D02*
X170312350Y-76810000D01*
X170312350Y-76810000D02*
X169512350Y-76810000D01*
%TO.C,R127*%
X180620000Y-100653641D02*
X180620000Y-100346359D01*
X181380000Y-100653641D02*
X181380000Y-100346359D01*
%TO.C,R133*%
X169870000Y-85346359D02*
X169870000Y-85653641D01*
X170630000Y-85346359D02*
X170630000Y-85653641D01*
D15*
%TO.C,U103*%
X168814900Y-66314900D02*
X168814900Y-66663485D01*
X168814900Y-67541115D02*
X168814900Y-67958885D01*
X168814900Y-68836515D02*
X168814900Y-69185100D01*
X168814900Y-69185100D02*
X169138269Y-69185100D01*
X169138269Y-66314900D02*
X168814900Y-66314900D01*
X171361731Y-69185100D02*
X171685100Y-69185100D01*
X171685100Y-66314900D02*
X171361731Y-66314900D01*
X171685100Y-66663485D02*
X171685100Y-66314900D01*
X171685100Y-69185100D02*
X171685100Y-68836515D01*
D16*
X171067664Y-65898000D02*
G75*
G02*
X170894336Y-65898000I-86664J0D01*
G01*
X170894336Y-65898000D02*
G75*
G02*
X171067664Y-65898000I86664J0D01*
G01*
D14*
%TO.C,R134*%
X158403641Y-78370000D02*
X158096359Y-78370000D01*
X158403641Y-79130000D02*
X158096359Y-79130000D01*
%TO.C,C102*%
X182067836Y-65390000D02*
X181852164Y-65390000D01*
X182067836Y-66110000D02*
X181852164Y-66110000D01*
%TO.C,R112*%
X172370000Y-70903641D02*
X172370000Y-70596359D01*
X173130000Y-70903641D02*
X173130000Y-70596359D01*
D15*
%TO.C,U104*%
X157814900Y-66314900D02*
X157814900Y-66663485D01*
X157814900Y-67541115D02*
X157814900Y-67958885D01*
X157814900Y-68836515D02*
X157814900Y-69185100D01*
X157814900Y-69185100D02*
X158138269Y-69185100D01*
X158138269Y-66314900D02*
X157814900Y-66314900D01*
X160361731Y-69185100D02*
X160685100Y-69185100D01*
X160685100Y-66314900D02*
X160361731Y-66314900D01*
X160685100Y-66663485D02*
X160685100Y-66314900D01*
X160685100Y-69185100D02*
X160685100Y-68836515D01*
D16*
X160067664Y-65898000D02*
G75*
G02*
X159894336Y-65898000I-86664J0D01*
G01*
X159894336Y-65898000D02*
G75*
G02*
X160067664Y-65898000I86664J0D01*
G01*
D17*
%TO.C,U108*%
X160167893Y-123037868D02*
G75*
G02*
X159917893Y-123037868I-125000J0D01*
G01*
X159917893Y-123037868D02*
G75*
G02*
X160167893Y-123037868I125000J0D01*
G01*
D13*
%TO.C,D105*%
X157210000Y-105500000D02*
G75*
G02*
X157110000Y-105500000I-50000J0D01*
G01*
X157110000Y-105500000D02*
G75*
G02*
X157210000Y-105500000I50000J0D01*
G01*
D14*
%TO.C,C126*%
X150990000Y-75640580D02*
X150990000Y-75359420D01*
X152010000Y-75640580D02*
X152010000Y-75359420D01*
%TO.C,R132*%
X168870000Y-85346359D02*
X168870000Y-85653641D01*
X169630000Y-85346359D02*
X169630000Y-85653641D01*
%TO.C,C105*%
X154740000Y-67609420D02*
X154740000Y-67890580D01*
X155760000Y-67609420D02*
X155760000Y-67890580D01*
%TO.C,R110*%
X182113641Y-68370000D02*
X181806359Y-68370000D01*
X182113641Y-69130000D02*
X181806359Y-69130000D01*
%TO.C,J108*%
X141768008Y-116126929D02*
X139058008Y-111433071D01*
X146609750Y-107073071D02*
X139058008Y-111433071D01*
X148731993Y-107348904D02*
X146609750Y-107073071D01*
X149319750Y-111766929D02*
X141768008Y-116126929D01*
X150141993Y-109791096D02*
X148731993Y-107348904D01*
X150141993Y-109791096D02*
X149319750Y-111766929D01*
%TO.C,C129*%
X144840000Y-54390000D02*
X147190000Y-54390000D01*
X144840000Y-60145563D02*
X144840000Y-54390000D01*
X145904437Y-61210000D02*
X144840000Y-60145563D01*
X145904437Y-61210000D02*
X147190000Y-61210000D01*
X146008750Y-61843750D02*
X146796250Y-61843750D01*
X146402500Y-62237500D02*
X146402500Y-61450000D01*
X150595563Y-61210000D02*
X149310000Y-61210000D01*
X150595563Y-61210000D02*
X151660000Y-60145563D01*
X151660000Y-54390000D02*
X149310000Y-54390000D01*
X151660000Y-60145563D02*
X151660000Y-54390000D01*
%TO.C,R114*%
X161370000Y-70903641D02*
X161370000Y-70596359D01*
X162130000Y-70903641D02*
X162130000Y-70596359D01*
%TO.C,C133*%
X166890000Y-85392164D02*
X166890000Y-85607836D01*
X167610000Y-85392164D02*
X167610000Y-85607836D01*
%TO.C,C101*%
X182067836Y-66390000D02*
X181852164Y-66390000D01*
X182067836Y-67110000D02*
X181852164Y-67110000D01*
%TO.C,K101*%
X122072500Y-54322500D02*
X124262500Y-54322500D01*
X122072500Y-56662500D02*
X122072500Y-54322500D01*
X122312500Y-54562500D02*
X122312500Y-83562500D01*
X122312500Y-83562500D02*
X135012500Y-83562500D01*
X128312500Y-56362500D02*
X128312500Y-57562500D01*
X128312500Y-57162500D02*
X129012500Y-56762500D01*
X128312500Y-57562500D02*
X129012500Y-57562500D01*
X129012500Y-56362500D02*
X128312500Y-56362500D01*
X129012500Y-57562500D02*
X129012500Y-56362500D01*
X135012500Y-54562500D02*
X122312500Y-54562500D01*
X135012500Y-83562500D02*
X135012500Y-54562500D01*
%TO.C,C106*%
X143740000Y-67659420D02*
X143740000Y-67940580D01*
X144760000Y-67659420D02*
X144760000Y-67940580D01*
D13*
%TO.C,U102*%
X184110000Y-65750000D02*
X184110000Y-65950000D01*
X184110000Y-68750000D02*
X184110000Y-68550000D01*
X185010000Y-65750000D02*
X184110000Y-65750000D01*
X185010000Y-68750000D02*
X184110000Y-68750000D01*
X187110000Y-65750000D02*
X186210000Y-65750000D01*
X187110000Y-65950000D02*
X187110000Y-65750000D01*
X187110000Y-68550000D02*
X187110000Y-68750000D01*
X187110000Y-68750000D02*
X186210000Y-68750000D01*
D12*
X187710000Y-68150000D02*
X187710000Y-68150000D01*
X187710000Y-68350000D02*
X187710000Y-68350000D01*
X187710000Y-68150000D02*
G75*
G02*
X187710000Y-68350000I0J-100000D01*
G01*
X187710000Y-68350000D02*
G75*
G02*
X187710000Y-68150000I0J100000D01*
G01*
D14*
%TO.C,J111*%
X146076072Y-124433304D02*
X153974223Y-119873303D01*
X147227297Y-129207283D02*
X147727297Y-130073309D01*
X147727297Y-130073309D02*
X148343323Y-129140296D01*
X147860566Y-124904137D02*
X153489731Y-121654137D01*
X148343323Y-129140296D02*
X147227297Y-129207283D01*
X148926073Y-129369649D02*
X150060566Y-128714649D01*
X150060566Y-128714649D02*
X147860566Y-124904137D01*
X152110566Y-132265353D02*
X150976073Y-132920352D01*
X152110566Y-132265353D02*
X152110566Y-132265353D01*
X153489731Y-121654137D02*
X159939731Y-132825865D01*
X153826072Y-137856698D02*
X146076072Y-124433304D01*
X153974223Y-119873303D02*
X161724224Y-133296697D01*
X154310566Y-136075864D02*
X152110566Y-132265353D01*
X159939731Y-132825865D02*
X154310566Y-136075864D01*
X161724224Y-133296697D02*
X153826072Y-137856698D01*
%TO.C,L102*%
X154692350Y-71690000D02*
X154692350Y-76810000D01*
X154692350Y-71690000D02*
X155492350Y-71690000D01*
X154692350Y-76810000D02*
X155492350Y-76810000D01*
X159312350Y-71690000D02*
X158512350Y-71690000D01*
X159312350Y-71690000D02*
X159312350Y-76810000D01*
X159312350Y-76810000D02*
X158512350Y-76810000D01*
D15*
%TO.C,U105*%
X146814900Y-66364900D02*
X146814900Y-66713485D01*
X146814900Y-67591115D02*
X146814900Y-68008885D01*
X146814900Y-68886515D02*
X146814900Y-69235100D01*
X146814900Y-69235100D02*
X147138269Y-69235100D01*
X147138269Y-66364900D02*
X146814900Y-66364900D01*
X149361731Y-69235100D02*
X149685100Y-69235100D01*
X149685100Y-66364900D02*
X149361731Y-66364900D01*
X149685100Y-66713485D02*
X149685100Y-66364900D01*
X149685100Y-69235100D02*
X149685100Y-68886515D01*
D16*
X149067664Y-65948000D02*
G75*
G02*
X148894336Y-65948000I-86664J0D01*
G01*
X148894336Y-65948000D02*
G75*
G02*
X149067664Y-65948000I86664J0D01*
G01*
D14*
%TO.C,C128*%
X155840000Y-54340000D02*
X158190000Y-54340000D01*
X155840000Y-60095563D02*
X155840000Y-54340000D01*
X156904437Y-61160000D02*
X155840000Y-60095563D01*
X156904437Y-61160000D02*
X158190000Y-61160000D01*
X157008750Y-61793750D02*
X157796250Y-61793750D01*
X157402500Y-62187500D02*
X157402500Y-61400000D01*
X161595563Y-61160000D02*
X160310000Y-61160000D01*
X161595563Y-61160000D02*
X162660000Y-60095563D01*
X162660000Y-54340000D02*
X160310000Y-54340000D01*
X162660000Y-60095563D02*
X162660000Y-54340000D01*
%TO.C,C116*%
X173640000Y-70857836D02*
X173640000Y-70642164D01*
X174360000Y-70857836D02*
X174360000Y-70642164D01*
%TO.C,R109*%
X182113641Y-67370000D02*
X181806359Y-67370000D01*
X182113641Y-68130000D02*
X181806359Y-68130000D01*
%TO.C,C122*%
X161990000Y-75640580D02*
X161990000Y-75359420D01*
X163010000Y-75640580D02*
X163010000Y-75359420D01*
%TO.C,D106*%
X144760000Y-83740000D02*
X144760000Y-88800000D01*
X144760000Y-83740000D02*
X142040000Y-83740000D01*
X142040000Y-83740000D02*
X142040000Y-88800000D01*
%TO.C,C130*%
X159691982Y-121609561D02*
X159844485Y-121457058D01*
X160201099Y-122118678D02*
X160353602Y-121966175D01*
%TO.C,R117*%
X150370000Y-68633641D02*
X150370000Y-68326359D01*
X151130000Y-68633641D02*
X151130000Y-68326359D01*
D13*
%TO.C,D103*%
X157210000Y-100500000D02*
G75*
G02*
X157110000Y-100500000I-50000J0D01*
G01*
X157110000Y-100500000D02*
G75*
G02*
X157210000Y-100500000I50000J0D01*
G01*
D14*
%TO.C,C118*%
X162640000Y-70857836D02*
X162640000Y-70642164D01*
X163360000Y-70857836D02*
X163360000Y-70642164D01*
%TO.C,R138*%
X165346359Y-80120000D02*
X165653641Y-80120000D01*
X165346359Y-80880000D02*
X165653641Y-80880000D01*
%TO.C,R111*%
X158403641Y-101120000D02*
X158096359Y-101120000D01*
X158403641Y-101880000D02*
X158096359Y-101880000D01*
%TO.C,R119*%
X158403641Y-106120000D02*
X158096359Y-106120000D01*
X158403641Y-106880000D02*
X158096359Y-106880000D01*
%TO.C,C119*%
X162640000Y-68607836D02*
X162640000Y-68392164D01*
X163360000Y-68607836D02*
X163360000Y-68392164D01*
%TO.C,C112*%
X148890000Y-70692164D02*
X148890000Y-70907836D01*
X149610000Y-70692164D02*
X149610000Y-70907836D01*
D13*
%TO.C,U109*%
X167250000Y-80350000D02*
X167250000Y-81250000D01*
X167250000Y-82450000D02*
X167250000Y-83350000D01*
X167250000Y-83350000D02*
X167450000Y-83350000D01*
X167450000Y-80350000D02*
X167250000Y-80350000D01*
D12*
X169650000Y-79750000D02*
X169650000Y-79750000D01*
X169850000Y-79750000D02*
X169850000Y-79750000D01*
D13*
X170050000Y-80350000D02*
X170250000Y-80350000D01*
X170250000Y-80350000D02*
X170250000Y-81250000D01*
X170250000Y-82450000D02*
X170250000Y-83350000D01*
X170250000Y-83350000D02*
X170050000Y-83350000D01*
D12*
X169650000Y-79750000D02*
G75*
G02*
X169850000Y-79750000I100000J0D01*
G01*
X169850000Y-79750000D02*
G75*
G02*
X169650000Y-79750000I-100000J0D01*
G01*
D14*
%TO.C,R105*%
X189106359Y-65370000D02*
X189413641Y-65370000D01*
X189106359Y-66130000D02*
X189413641Y-66130000D01*
%TO.C,R118*%
X158403641Y-103620000D02*
X158096359Y-103620000D01*
X158403641Y-104380000D02*
X158096359Y-104380000D01*
%TO.C,J110*%
X131458008Y-98054095D02*
X132280251Y-96078262D01*
X131458008Y-98054095D02*
X132868008Y-100496287D01*
X132280251Y-96078262D02*
X139831993Y-91718262D01*
X132868008Y-100496287D02*
X134990251Y-100772120D01*
X134990251Y-100772120D02*
X142541993Y-96412120D01*
X139831993Y-91718262D02*
X142541993Y-96412120D01*
%TO.C,C104*%
X165740000Y-67609420D02*
X165740000Y-67890580D01*
X166760000Y-67609420D02*
X166760000Y-67890580D01*
%TO.C,C134*%
X167890000Y-85392164D02*
X167890000Y-85607836D01*
X168610000Y-85392164D02*
X168610000Y-85607836D01*
%TO.C,C123*%
X152740000Y-75640580D02*
X152740000Y-75359420D01*
X153760000Y-75640580D02*
X153760000Y-75359420D01*
%TO.C,J105*%
X173551186Y-112545227D02*
X173834029Y-114666548D01*
X173834029Y-114666548D02*
X180000000Y-120832519D01*
X175545227Y-110551186D02*
X173551186Y-112545227D01*
X175545227Y-110551186D02*
X177666548Y-110834029D01*
X177666548Y-110834029D02*
X183832519Y-117000000D01*
X183832519Y-117000000D02*
X180000000Y-120832519D01*
%TO.C,C113*%
X169394514Y-69988300D02*
X169610186Y-69988300D01*
X169394514Y-70708300D02*
X169610186Y-70708300D01*
%TO.C,C127*%
X139990000Y-75690580D02*
X139990000Y-75409420D01*
X141010000Y-75690580D02*
X141010000Y-75409420D01*
%TO.C,J109*%
X148670000Y-90670000D02*
X199590000Y-90670000D01*
X148670000Y-93270000D02*
X148670000Y-90670000D01*
X148670000Y-95870000D02*
X148670000Y-94540000D01*
X150000000Y-95870000D02*
X148670000Y-95870000D01*
X151270000Y-93270000D02*
X148670000Y-93270000D01*
X151270000Y-95870000D02*
X151270000Y-93270000D01*
X151270000Y-95870000D02*
X199590000Y-95870000D01*
X199590000Y-95870000D02*
X199590000Y-90670000D01*
%TO.C,L103*%
X143692350Y-71740000D02*
X143692350Y-76860000D01*
X143692350Y-71740000D02*
X144492350Y-71740000D01*
X143692350Y-76860000D02*
X144492350Y-76860000D01*
X148312350Y-71740000D02*
X147512350Y-71740000D01*
X148312350Y-71740000D02*
X148312350Y-76860000D01*
X148312350Y-76860000D02*
X147512350Y-76860000D01*
%TO.C,C107*%
X167390000Y-67142164D02*
X167390000Y-67357836D01*
X168110000Y-67142164D02*
X168110000Y-67357836D01*
%TO.C,J104*%
X178854487Y-107241926D02*
X179137330Y-109363247D01*
X179137330Y-109363247D02*
X185303301Y-115529218D01*
X180848528Y-105247885D02*
X178854487Y-107241926D01*
X180848528Y-105247885D02*
X182969849Y-105530728D01*
X182969849Y-105530728D02*
X189135820Y-111696699D01*
X189135820Y-111696699D02*
X185303301Y-115529218D01*
%TO.C,R104*%
X189106359Y-67370000D02*
X189413641Y-67370000D01*
X189106359Y-68130000D02*
X189413641Y-68130000D01*
%TO.C,R136*%
X169403641Y-78370000D02*
X169096359Y-78370000D01*
X169403641Y-79130000D02*
X169096359Y-79130000D01*
%TO.C,R102*%
X138846359Y-58620000D02*
X139153641Y-58620000D01*
X138846359Y-59380000D02*
X139153641Y-59380000D01*
%TO.C,R130*%
X158870000Y-85326359D02*
X158870000Y-85633641D01*
X159630000Y-85326359D02*
X159630000Y-85633641D01*
%TO.C,C108*%
X156390000Y-67142164D02*
X156390000Y-67357836D01*
X157110000Y-67142164D02*
X157110000Y-67357836D01*
D13*
%TO.C,D101*%
X188220000Y-66750000D02*
G75*
G02*
X188120000Y-66750000I-50000J0D01*
G01*
X188120000Y-66750000D02*
G75*
G02*
X188220000Y-66750000I50000J0D01*
G01*
D14*
%TO.C,D102*%
X126390000Y-51000000D02*
X126390000Y-53000000D01*
X126390000Y-51000000D02*
X130400000Y-51000000D01*
X126390000Y-53000000D02*
X130400000Y-53000000D01*
%TO.C,C121*%
X151640000Y-68587836D02*
X151640000Y-68372164D01*
X152360000Y-68587836D02*
X152360000Y-68372164D01*
%TO.C,C131*%
X156890000Y-85372164D02*
X156890000Y-85587836D01*
X157610000Y-85372164D02*
X157610000Y-85587836D01*
%TO.C,C117*%
X173640000Y-68607836D02*
X173640000Y-68392164D01*
X174360000Y-68607836D02*
X174360000Y-68392164D01*
D13*
%TO.C,D104*%
X157210000Y-103000000D02*
G75*
G02*
X157110000Y-103000000I-50000J0D01*
G01*
X157110000Y-103000000D02*
G75*
G02*
X157210000Y-103000000I50000J0D01*
G01*
D14*
%TO.C,Q101*%
X139850000Y-56700000D02*
X139850000Y-57300000D01*
%TO.C,C110*%
X170890000Y-70642164D02*
X170890000Y-70857836D01*
X171610000Y-70642164D02*
X171610000Y-70857836D01*
%TO.C,C115*%
X147394514Y-70038300D02*
X147610186Y-70038300D01*
X147394514Y-70758300D02*
X147610186Y-70758300D01*
%TO.C,R107*%
X181620000Y-100346359D02*
X181620000Y-100653641D01*
X182380000Y-100346359D02*
X182380000Y-100653641D01*
%TO.C,R115*%
X161370000Y-68653641D02*
X161370000Y-68346359D01*
X162130000Y-68653641D02*
X162130000Y-68346359D01*
%TO.C,J101*%
X201600000Y-67000000D02*
X201600000Y-79850000D01*
X201600000Y-79850000D02*
X209900000Y-79850000D01*
X204200000Y-64150000D02*
X201600000Y-67000000D01*
X207350000Y-64150000D02*
X204200000Y-64150000D01*
X209900000Y-67000000D02*
X207350000Y-64150000D01*
X209900000Y-79850000D02*
X209900000Y-67000000D01*
%TO.C,C125*%
X163740000Y-75640580D02*
X163740000Y-75359420D01*
X164760000Y-75640580D02*
X164760000Y-75359420D01*
%TO.C,R126*%
X177620000Y-100663641D02*
X177620000Y-100356359D01*
X178380000Y-100663641D02*
X178380000Y-100356359D01*
%TD*%
%LPC*%
D18*
%TO.C,R116*%
X150750000Y-71310000D03*
X150750000Y-70290000D03*
%TD*%
D19*
%TO.C,J106*%
X171161165Y-118767767D03*
D20*
X174696699Y-122303301D03*
%TD*%
D21*
%TO.C,C124*%
X142250000Y-76325000D03*
X142250000Y-74775000D03*
%TD*%
D22*
%TO.C,R103*%
X189770000Y-68750000D03*
X188750000Y-68750000D03*
%TD*%
D23*
%TO.C,C120*%
X152000000Y-71280000D03*
X152000000Y-70320000D03*
%TD*%
D24*
%TO.C,U101*%
X199750000Y-71250000D03*
X199100000Y-71250000D03*
X198450000Y-71250000D03*
X198450000Y-73025000D03*
X199100000Y-73025000D03*
X199750000Y-73025000D03*
D25*
X199100000Y-72137500D03*
%TD*%
D26*
%TO.C,R129*%
X153990000Y-80500000D03*
X155010000Y-80500000D03*
%TD*%
D27*
%TO.C,R131*%
X158250000Y-84970000D03*
X158250000Y-85990000D03*
%TD*%
D28*
%TO.C,J103*%
X130759937Y-91425000D03*
D20*
X135090064Y-88925000D03*
%TD*%
D18*
%TO.C,R113*%
X172750000Y-69010000D03*
X172750000Y-67990000D03*
%TD*%
D29*
%TO.C,C111*%
X160250000Y-70270000D03*
X160250000Y-71230000D03*
%TD*%
D26*
%TO.C,R106*%
X138490000Y-58000000D03*
X139510000Y-58000000D03*
%TD*%
D30*
%TO.C,U110*%
X158750000Y-80450000D03*
X158250000Y-80450000D03*
X157750000Y-80450000D03*
X157250000Y-80450000D03*
X156750000Y-80450000D03*
X156750000Y-83250000D03*
X157250000Y-83250000D03*
X157750000Y-83250000D03*
X158250000Y-83250000D03*
X158750000Y-83250000D03*
D31*
X157750000Y-81850000D03*
D32*
X159200000Y-81600000D03*
X159200000Y-82100000D03*
X156300000Y-81600000D03*
X156300000Y-82100000D03*
%TD*%
D28*
%TO.C,J107*%
X138259937Y-104415382D03*
D20*
X142590064Y-101915382D03*
%TD*%
D29*
%TO.C,C109*%
X145750000Y-66820000D03*
X145750000Y-67780000D03*
%TD*%
%TO.C,C132*%
X156250000Y-85000000D03*
X156250000Y-85960000D03*
%TD*%
D33*
%TO.C,C103*%
X170250000Y-60550000D03*
X170250000Y-54950000D03*
%TD*%
D27*
%TO.C,R125*%
X179000000Y-100000000D03*
X179000000Y-101020000D03*
%TD*%
D22*
%TO.C,R135*%
X156760000Y-78750000D03*
X155740000Y-78750000D03*
%TD*%
%TO.C,R137*%
X167760000Y-78750000D03*
X166740000Y-78750000D03*
%TD*%
D19*
%TO.C,J102*%
X187071068Y-102857864D03*
D20*
X190606602Y-106393398D03*
%TD*%
D34*
%TO.C,C114*%
X158022350Y-70348300D03*
X158982350Y-70348300D03*
%TD*%
D35*
%TO.C,L101*%
X168002350Y-72400000D03*
X168002350Y-76100000D03*
%TD*%
D18*
%TO.C,R127*%
X181000000Y-101010000D03*
X181000000Y-99990000D03*
%TD*%
D27*
%TO.C,R133*%
X170250000Y-84990000D03*
X170250000Y-86010000D03*
%TD*%
D36*
%TO.C,U103*%
X170980250Y-66924500D03*
D37*
X170497650Y-66848300D03*
X170002350Y-66848300D03*
D38*
X169519750Y-66924500D03*
D39*
X169519750Y-68575500D03*
D37*
X170002350Y-68651700D03*
X170497650Y-68651700D03*
D40*
X170980250Y-68575500D03*
D41*
X170802450Y-67750000D03*
%TD*%
D22*
%TO.C,R134*%
X158760000Y-78750000D03*
X157740000Y-78750000D03*
%TD*%
D42*
%TO.C,C102*%
X182440000Y-65750000D03*
X181480000Y-65750000D03*
%TD*%
D18*
%TO.C,R112*%
X172750000Y-71260000D03*
X172750000Y-70240000D03*
%TD*%
D36*
%TO.C,U104*%
X159980250Y-66924500D03*
D37*
X159497650Y-66848300D03*
X159002350Y-66848300D03*
D38*
X158519750Y-66924500D03*
D39*
X158519750Y-68575500D03*
D37*
X159002350Y-68651700D03*
X159497650Y-68651700D03*
D40*
X159980250Y-68575500D03*
D41*
X159802450Y-67750000D03*
%TD*%
D43*
%TO.C,OL102*%
X145160000Y-119355000D03*
D44*
X113675000Y-54670000D03*
X113675000Y-83475000D03*
X114377944Y-52972944D03*
X114377944Y-56367056D03*
X114377944Y-81777944D03*
X114377944Y-85172056D03*
X116075000Y-52270000D03*
X116075000Y-57070000D03*
X116075000Y-81075000D03*
X116075000Y-85875000D03*
X117772056Y-52972944D03*
X117772056Y-56367056D03*
X117772056Y-81777944D03*
X117772056Y-85172056D03*
X118475000Y-54670000D03*
X118475000Y-83475000D03*
X175132682Y-84154465D03*
X175835626Y-82457409D03*
X175835626Y-85851521D03*
X177532682Y-81754465D03*
X177532682Y-86554465D03*
X179229738Y-82457409D03*
X179229738Y-85851521D03*
X179932682Y-84154465D03*
X193126738Y-54667148D03*
X193130000Y-83850000D03*
X193829682Y-52970092D03*
X193829682Y-56364204D03*
X193832944Y-82152944D03*
X193832944Y-85547056D03*
X195526738Y-52267148D03*
X195526738Y-57067148D03*
X195530000Y-81450000D03*
X195530000Y-86250000D03*
X197223794Y-52970092D03*
X197223794Y-56364204D03*
X197227056Y-82152944D03*
X197227056Y-85547056D03*
X197926738Y-54667148D03*
X197930000Y-83850000D03*
D45*
X116075000Y-54670000D03*
X116075000Y-83475000D03*
X195526738Y-54667148D03*
X177532682Y-84154465D03*
X195530000Y-83850000D03*
%TD*%
D46*
%TO.C,U108*%
X160750000Y-123250000D03*
X161103553Y-123603553D03*
X161457107Y-123957107D03*
X161810660Y-124310660D03*
X163295584Y-122825736D03*
X162942031Y-122472183D03*
X162588477Y-122118629D03*
X162234924Y-121765076D03*
D47*
X162022792Y-123037868D03*
%TD*%
D48*
%TO.C,D105*%
X157765000Y-105500000D03*
X158735000Y-105500000D03*
%TD*%
D21*
%TO.C,C126*%
X151500000Y-76275000D03*
X151500000Y-74725000D03*
%TD*%
D27*
%TO.C,R132*%
X169250000Y-84990000D03*
X169250000Y-86010000D03*
%TD*%
D49*
%TO.C,C105*%
X155250000Y-66975000D03*
X155250000Y-68525000D03*
%TD*%
D22*
%TO.C,R110*%
X182470000Y-68750000D03*
X181450000Y-68750000D03*
%TD*%
D50*
%TO.C,J108*%
X147090064Y-109925000D03*
D20*
X142759937Y-112425000D03*
%TD*%
D33*
%TO.C,C129*%
X148250000Y-60600000D03*
X148250000Y-55000000D03*
%TD*%
D18*
%TO.C,R114*%
X161750000Y-71260000D03*
X161750000Y-70240000D03*
%TD*%
D29*
%TO.C,C133*%
X167250000Y-85020000D03*
X167250000Y-85980000D03*
%TD*%
D42*
%TO.C,C101*%
X182440000Y-66750000D03*
X181480000Y-66750000D03*
%TD*%
D51*
%TO.C,K101*%
X124912500Y-76962500D03*
X132412500Y-76962500D03*
X124912500Y-71962500D03*
X132412500Y-71962500D03*
X124912500Y-81962500D03*
X132412500Y-81962500D03*
D52*
X124912500Y-56962500D03*
D51*
X132412500Y-56962500D03*
%TD*%
D49*
%TO.C,C106*%
X144250000Y-67025000D03*
X144250000Y-68575000D03*
%TD*%
D53*
%TO.C,U102*%
X187010000Y-68250000D03*
X187010000Y-67750000D03*
X187010000Y-67250000D03*
X187010000Y-66750000D03*
X187010000Y-66250000D03*
X184210000Y-66250000D03*
X184210000Y-66750000D03*
X184210000Y-67250000D03*
X184210000Y-67750000D03*
X184210000Y-68250000D03*
D54*
X185610000Y-67250000D03*
D55*
X185860000Y-68700000D03*
X185360000Y-68700000D03*
X185860000Y-65800000D03*
X185360000Y-65800000D03*
%TD*%
D56*
%TO.C,J111*%
X151530296Y-127300296D03*
D57*
X153730001Y-126030296D03*
X152800296Y-129500001D03*
X155000000Y-128230001D03*
X154070296Y-131699705D03*
X156270001Y-130429705D03*
%TD*%
D35*
%TO.C,L102*%
X157002350Y-72400000D03*
X157002350Y-76100000D03*
%TD*%
D36*
%TO.C,U105*%
X148980250Y-66974500D03*
D37*
X148497650Y-66898300D03*
X148002350Y-66898300D03*
D38*
X147519750Y-66974500D03*
D39*
X147519750Y-68625500D03*
D37*
X148002350Y-68701700D03*
X148497650Y-68701700D03*
D40*
X148980250Y-68625500D03*
D41*
X148802450Y-67800000D03*
%TD*%
D33*
%TO.C,C128*%
X159250000Y-60550000D03*
X159250000Y-54950000D03*
%TD*%
D23*
%TO.C,C116*%
X174000000Y-71230000D03*
X174000000Y-70270000D03*
%TD*%
D22*
%TO.C,R109*%
X182470000Y-67750000D03*
X181450000Y-67750000D03*
%TD*%
D21*
%TO.C,C122*%
X162500000Y-76275000D03*
X162500000Y-74725000D03*
%TD*%
D58*
%TO.C,D106*%
X143400000Y-89100000D03*
X143400000Y-84700000D03*
%TD*%
D59*
%TO.C,C130*%
X159683381Y-122127279D03*
X160362203Y-121448457D03*
%TD*%
D18*
%TO.C,R117*%
X150750000Y-68990000D03*
X150750000Y-67970000D03*
%TD*%
D48*
%TO.C,D103*%
X157765000Y-100500000D03*
X158735000Y-100500000D03*
%TD*%
D23*
%TO.C,C118*%
X163000000Y-71230000D03*
X163000000Y-70270000D03*
%TD*%
D26*
%TO.C,R138*%
X164990000Y-80500000D03*
X166010000Y-80500000D03*
%TD*%
D22*
%TO.C,R111*%
X158760000Y-101500000D03*
X157740000Y-101500000D03*
%TD*%
%TO.C,R119*%
X158760000Y-106500000D03*
X157740000Y-106500000D03*
%TD*%
D23*
%TO.C,C119*%
X163000000Y-68980000D03*
X163000000Y-68020000D03*
%TD*%
D29*
%TO.C,C112*%
X149250000Y-70320000D03*
X149250000Y-71280000D03*
%TD*%
D30*
%TO.C,U109*%
X169750000Y-80450000D03*
X169250000Y-80450000D03*
X168750000Y-80450000D03*
X168250000Y-80450000D03*
X167750000Y-80450000D03*
X167750000Y-83250000D03*
X168250000Y-83250000D03*
X168750000Y-83250000D03*
X169250000Y-83250000D03*
X169750000Y-83250000D03*
D31*
X168750000Y-81850000D03*
D32*
X170200000Y-81600000D03*
X170200000Y-82100000D03*
X167300000Y-81600000D03*
X167300000Y-82100000D03*
%TD*%
D26*
%TO.C,R105*%
X188750000Y-65750000D03*
X189770000Y-65750000D03*
%TD*%
D22*
%TO.C,R118*%
X158760000Y-104000000D03*
X157740000Y-104000000D03*
%TD*%
D28*
%TO.C,J110*%
X134509937Y-97920191D03*
D20*
X138840064Y-95420191D03*
%TD*%
D49*
%TO.C,C104*%
X166250000Y-66975000D03*
X166250000Y-68525000D03*
%TD*%
D29*
%TO.C,C134*%
X168250000Y-85020000D03*
X168250000Y-85980000D03*
%TD*%
D21*
%TO.C,C123*%
X153250000Y-76275000D03*
X153250000Y-74725000D03*
%TD*%
D19*
%TO.C,J105*%
X176464466Y-113464466D03*
D20*
X180000000Y-117000000D03*
%TD*%
D34*
%TO.C,C113*%
X169022350Y-70348300D03*
X169982350Y-70348300D03*
%TD*%
D21*
%TO.C,C127*%
X140500000Y-76325000D03*
X140500000Y-74775000D03*
%TD*%
D60*
%TO.C,J109*%
X150000000Y-94540000D03*
D61*
X150000000Y-92000000D03*
X152540000Y-94540000D03*
X152540000Y-92000000D03*
X155080000Y-94540000D03*
X155080000Y-92000000D03*
X157620000Y-94540000D03*
X157620000Y-92000000D03*
X160160000Y-94540000D03*
X160160000Y-92000000D03*
X162700000Y-94540000D03*
X162700000Y-92000000D03*
X165240000Y-94540000D03*
X165240000Y-92000000D03*
X167780000Y-94540000D03*
X167780000Y-92000000D03*
X170320000Y-94540000D03*
X170320000Y-92000000D03*
X172860000Y-94540000D03*
X172860000Y-92000000D03*
X175400000Y-94540000D03*
X175400000Y-92000000D03*
X177940000Y-94540000D03*
X177940000Y-92000000D03*
X180480000Y-94540000D03*
X180480000Y-92000000D03*
X183020000Y-94540000D03*
X183020000Y-92000000D03*
X185560000Y-94540000D03*
X185560000Y-92000000D03*
X188100000Y-94540000D03*
X188100000Y-92000000D03*
X190640000Y-94540000D03*
X190640000Y-92000000D03*
X193180000Y-94540000D03*
X193180000Y-92000000D03*
X195720000Y-94540000D03*
X195720000Y-92000000D03*
X198260000Y-94540000D03*
X198260000Y-92000000D03*
%TD*%
D35*
%TO.C,L103*%
X146002350Y-72450000D03*
X146002350Y-76150000D03*
%TD*%
D29*
%TO.C,C107*%
X167750000Y-66770000D03*
X167750000Y-67730000D03*
%TD*%
D19*
%TO.C,J104*%
X181767767Y-108161165D03*
D20*
X185303301Y-111696699D03*
%TD*%
D26*
%TO.C,R104*%
X188750000Y-67750000D03*
X189770000Y-67750000D03*
%TD*%
D22*
%TO.C,R136*%
X169760000Y-78750000D03*
X168740000Y-78750000D03*
%TD*%
D26*
%TO.C,R102*%
X138490000Y-59000000D03*
X139510000Y-59000000D03*
%TD*%
D27*
%TO.C,R130*%
X159250000Y-84970000D03*
X159250000Y-85990000D03*
%TD*%
D29*
%TO.C,C108*%
X156750000Y-66770000D03*
X156750000Y-67730000D03*
%TD*%
D48*
%TO.C,D101*%
X188775000Y-66750000D03*
X189745000Y-66750000D03*
%TD*%
D62*
%TO.C,D102*%
X127100000Y-52000000D03*
X130400000Y-52000000D03*
%TD*%
D23*
%TO.C,C121*%
X152000000Y-68960000D03*
X152000000Y-68000000D03*
%TD*%
D29*
%TO.C,C131*%
X157250000Y-85000000D03*
X157250000Y-85960000D03*
%TD*%
D23*
%TO.C,C117*%
X174000000Y-68980000D03*
X174000000Y-68020000D03*
%TD*%
D48*
%TO.C,D104*%
X157765000Y-103000000D03*
X158735000Y-103000000D03*
%TD*%
D63*
%TO.C,Q101*%
X139350000Y-57225000D03*
X139350000Y-56775000D03*
D64*
X138650000Y-57000000D03*
%TD*%
D29*
%TO.C,C110*%
X171250000Y-70270000D03*
X171250000Y-71230000D03*
%TD*%
D34*
%TO.C,C115*%
X147022350Y-70398300D03*
X147982350Y-70398300D03*
%TD*%
D27*
%TO.C,R107*%
X182000000Y-99990000D03*
X182000000Y-101010000D03*
%TD*%
D18*
%TO.C,R115*%
X161750000Y-69010000D03*
X161750000Y-67990000D03*
%TD*%
D65*
%TO.C,J101*%
X205750000Y-68400000D03*
D66*
X205750000Y-75600000D03*
%TD*%
D21*
%TO.C,C125*%
X164250000Y-76275000D03*
X164250000Y-74725000D03*
%TD*%
D18*
%TO.C,R126*%
X178000000Y-101020000D03*
X178000000Y-100000000D03*
%TD*%
%LPD*%
M02*
