%TF.GenerationSoftware,KiCad,Pcbnew,8.0.0*%
%TF.CreationDate,2024-03-25T03:27:09+00:00*%
%TF.ProjectId,main_PCB_v2,6d61696e-5f50-4434-925f-76322e6b6963,rev?*%
%TF.SameCoordinates,Original*%
%TF.FileFunction,Paste,Top*%
%TF.FilePolarity,Positive*%
%FSLAX46Y46*%
G04 Gerber Fmt 4.6, Leading zero omitted, Abs format (unit mm)*
G04 Created by KiCad (PCBNEW 8.0.0) date 2024-03-25 03:27:09*
%MOMM*%
%LPD*%
G01*
G04 APERTURE LIST*
G04 Aperture macros list*
%AMRoundRect*
0 Rectangle with rounded corners*
0 $1 Rounding radius*
0 $2 $3 $4 $5 $6 $7 $8 $9 X,Y pos of 4 corners*
0 Add a 4 corners polygon primitive as box body*
4,1,4,$2,$3,$4,$5,$6,$7,$8,$9,$2,$3,0*
0 Add four circle primitives for the rounded corners*
1,1,$1+$1,$2,$3*
1,1,$1+$1,$4,$5*
1,1,$1+$1,$6,$7*
1,1,$1+$1,$8,$9*
0 Add four rect primitives between the rounded corners*
20,1,$1+$1,$2,$3,$4,$5,0*
20,1,$1+$1,$4,$5,$6,$7,0*
20,1,$1+$1,$6,$7,$8,$9,0*
20,1,$1+$1,$8,$9,$2,$3,0*%
%AMRotRect*
0 Rectangle, with rotation*
0 The origin of the aperture is its center*
0 $1 length*
0 $2 width*
0 $3 Rotation angle, in degrees counterclockwise*
0 Add horizontal line*
21,1,$1,$2,0,0,$3*%
%AMFreePoly0*
4,1,7,0.114300,0.025000,0.470000,0.025000,0.470000,-0.381000,-0.114300,-0.381000,-0.114300,0.381000,0.114300,0.381000,0.114300,0.025000,0.114300,0.025000,$1*%
%AMFreePoly1*
4,1,7,0.470000,-0.025000,0.114300,-0.025000,0.114300,-0.381000,-0.114300,-0.381000,-0.114300,0.381000,0.470000,0.381000,0.470000,-0.025000,0.470000,-0.025000,$1*%
G04 Aperture macros list end*
%ADD10RoundRect,0.135000X0.185000X-0.135000X0.185000X0.135000X-0.185000X0.135000X-0.185000X-0.135000X0*%
%ADD11RoundRect,0.225000X0.250000X-0.225000X0.250000X0.225000X-0.250000X0.225000X-0.250000X-0.225000X0*%
%ADD12RoundRect,0.135000X0.135000X0.185000X-0.135000X0.185000X-0.135000X-0.185000X0.135000X-0.185000X0*%
%ADD13RoundRect,0.140000X0.170000X-0.140000X0.170000X0.140000X-0.170000X0.140000X-0.170000X-0.140000X0*%
%ADD14RoundRect,0.160000X-0.160000X0.245000X-0.160000X-0.245000X0.160000X-0.245000X0.160000X0.245000X0*%
%ADD15RoundRect,0.093750X-0.106250X0.093750X-0.106250X-0.093750X0.106250X-0.093750X0.106250X0.093750X0*%
%ADD16RoundRect,0.135000X-0.135000X-0.185000X0.135000X-0.185000X0.135000X0.185000X-0.135000X0.185000X0*%
%ADD17RoundRect,0.135000X-0.185000X0.135000X-0.185000X-0.135000X0.185000X-0.135000X0.185000X0.135000X0*%
%ADD18RoundRect,0.140000X-0.170000X0.140000X-0.170000X-0.140000X0.170000X-0.140000X0.170000X0.140000X0*%
%ADD19R,0.240000X0.600000*%
%ADD20R,2.400000X1.650000*%
%ADD21R,0.500000X0.250000*%
%ADD22RoundRect,0.250000X0.550000X-1.500000X0.550000X1.500000X-0.550000X1.500000X-0.550000X-1.500000X0*%
%ADD23RoundRect,0.140000X-0.140000X-0.170000X0.140000X-0.170000X0.140000X0.170000X-0.140000X0.170000X0*%
%ADD24R,2.500000X1.500000*%
%ADD25FreePoly0,0.000000*%
%ADD26R,0.254000X0.609600*%
%ADD27FreePoly1,180.000000*%
%ADD28FreePoly0,180.000000*%
%ADD29FreePoly1,0.000000*%
%ADD30R,1.295400X0.355600*%
%ADD31RoundRect,0.140000X0.140000X0.170000X-0.140000X0.170000X-0.140000X-0.170000X0.140000X-0.170000X0*%
%ADD32RotRect,0.300000X0.700000X135.000000*%
%ADD33RotRect,1.000000X1.700000X45.000000*%
%ADD34RoundRect,0.147500X-0.147500X-0.172500X0.147500X-0.172500X0.147500X0.172500X-0.147500X0.172500X0*%
%ADD35RoundRect,0.225000X-0.250000X0.225000X-0.250000X-0.225000X0.250000X-0.225000X0.250000X0.225000X0*%
%ADD36R,0.600000X0.240000*%
%ADD37R,1.650000X2.400000*%
%ADD38R,0.250000X0.500000*%
%ADD39RoundRect,0.250000X-0.800000X0.450000X-0.800000X-0.450000X0.800000X-0.450000X0.800000X0.450000X0*%
%ADD40RoundRect,0.140000X0.021213X-0.219203X0.219203X-0.021213X-0.021213X0.219203X-0.219203X0.021213X0*%
%ADD41RoundRect,0.225000X-0.225000X-0.375000X0.225000X-0.375000X0.225000X0.375000X-0.225000X0.375000X0*%
%ADD42RoundRect,0.062500X0.137500X-0.062500X0.137500X0.062500X-0.137500X0.062500X-0.137500X-0.062500X0*%
%ADD43RoundRect,0.100000X-0.100000X-0.250000X0.100000X-0.250000X0.100000X0.250000X-0.100000X0.250000X0*%
G04 APERTURE END LIST*
D10*
%TO.C,R116*%
X150750000Y-71310000D03*
X150750000Y-70290000D03*
%TD*%
D11*
%TO.C,C124*%
X142250000Y-76325000D03*
X142250000Y-74775000D03*
%TD*%
D12*
%TO.C,R103*%
X189770000Y-68750000D03*
X188750000Y-68750000D03*
%TD*%
D13*
%TO.C,C120*%
X152000000Y-71280000D03*
X152000000Y-70320000D03*
%TD*%
D14*
%TO.C,U101*%
X199500000Y-72137500D03*
X198700000Y-72137500D03*
D15*
X199750000Y-71250000D03*
X199100000Y-71250000D03*
X198450000Y-71250000D03*
X198450000Y-73025000D03*
X199100000Y-73025000D03*
X199750000Y-73025000D03*
%TD*%
D16*
%TO.C,R129*%
X153990000Y-80500000D03*
X155010000Y-80500000D03*
%TD*%
D17*
%TO.C,R131*%
X158250000Y-84970000D03*
X158250000Y-85990000D03*
%TD*%
D10*
%TO.C,R113*%
X172750000Y-69010000D03*
X172750000Y-67990000D03*
%TD*%
D18*
%TO.C,C111*%
X160250000Y-70270000D03*
X160250000Y-71230000D03*
%TD*%
D16*
%TO.C,R106*%
X138490000Y-58000000D03*
X139510000Y-58000000D03*
%TD*%
D19*
%TO.C,U110*%
X158750000Y-80450000D03*
X158250000Y-80450000D03*
X157750000Y-80450000D03*
X157250000Y-80450000D03*
X156750000Y-80450000D03*
X156750000Y-83250000D03*
X157250000Y-83250000D03*
X157750000Y-83250000D03*
X158250000Y-83250000D03*
X158750000Y-83250000D03*
D20*
X157750000Y-81850000D03*
D21*
X159200000Y-81600000D03*
X159200000Y-82100000D03*
X156300000Y-81600000D03*
X156300000Y-82100000D03*
%TD*%
D18*
%TO.C,C109*%
X145750000Y-66820000D03*
X145750000Y-67780000D03*
%TD*%
%TO.C,C132*%
X156250000Y-85000000D03*
X156250000Y-85960000D03*
%TD*%
D22*
%TO.C,C103*%
X170250000Y-60550000D03*
X170250000Y-54950000D03*
%TD*%
D17*
%TO.C,R125*%
X179000000Y-100000000D03*
X179000000Y-101020000D03*
%TD*%
D12*
%TO.C,R135*%
X156760000Y-78750000D03*
X155740000Y-78750000D03*
%TD*%
%TO.C,R137*%
X167760000Y-78750000D03*
X166740000Y-78750000D03*
%TD*%
D23*
%TO.C,C114*%
X158022350Y-70348300D03*
X158982350Y-70348300D03*
%TD*%
D24*
%TO.C,L101*%
X168002350Y-72400000D03*
X168002350Y-76100000D03*
%TD*%
D10*
%TO.C,R127*%
X181000000Y-101010000D03*
X181000000Y-99990000D03*
%TD*%
D17*
%TO.C,R133*%
X170250000Y-84990000D03*
X170250000Y-86010000D03*
%TD*%
D25*
%TO.C,U103*%
X170980250Y-66924500D03*
D26*
X170497650Y-66848300D03*
X170002350Y-66848300D03*
D27*
X169519750Y-66924500D03*
D28*
X169519750Y-68575500D03*
D26*
X170002350Y-68651700D03*
X170497650Y-68651700D03*
D29*
X170980250Y-68575500D03*
D30*
X170802450Y-67750000D03*
%TD*%
D12*
%TO.C,R134*%
X158760000Y-78750000D03*
X157740000Y-78750000D03*
%TD*%
D31*
%TO.C,C102*%
X182440000Y-65750000D03*
X181480000Y-65750000D03*
%TD*%
D10*
%TO.C,R112*%
X172750000Y-71260000D03*
X172750000Y-70240000D03*
%TD*%
D25*
%TO.C,U104*%
X159980250Y-66924500D03*
D26*
X159497650Y-66848300D03*
X159002350Y-66848300D03*
D27*
X158519750Y-66924500D03*
D28*
X158519750Y-68575500D03*
D26*
X159002350Y-68651700D03*
X159497650Y-68651700D03*
D29*
X159980250Y-68575500D03*
D30*
X159802450Y-67750000D03*
%TD*%
D32*
%TO.C,U108*%
X160750000Y-123250000D03*
X161103553Y-123603553D03*
X161457107Y-123957107D03*
X161810660Y-124310660D03*
X163295584Y-122825736D03*
X162942031Y-122472183D03*
X162588477Y-122118629D03*
X162234924Y-121765076D03*
D33*
X162022792Y-123037868D03*
%TD*%
D34*
%TO.C,D105*%
X157765000Y-105500000D03*
X158735000Y-105500000D03*
%TD*%
D11*
%TO.C,C126*%
X151500000Y-76275000D03*
X151500000Y-74725000D03*
%TD*%
D17*
%TO.C,R132*%
X169250000Y-84990000D03*
X169250000Y-86010000D03*
%TD*%
D35*
%TO.C,C105*%
X155250000Y-66975000D03*
X155250000Y-68525000D03*
%TD*%
D12*
%TO.C,R110*%
X182470000Y-68750000D03*
X181450000Y-68750000D03*
%TD*%
D22*
%TO.C,C129*%
X148250000Y-60600000D03*
X148250000Y-55000000D03*
%TD*%
D10*
%TO.C,R114*%
X161750000Y-71260000D03*
X161750000Y-70240000D03*
%TD*%
D18*
%TO.C,C133*%
X167250000Y-85020000D03*
X167250000Y-85980000D03*
%TD*%
D31*
%TO.C,C101*%
X182440000Y-66750000D03*
X181480000Y-66750000D03*
%TD*%
D35*
%TO.C,C106*%
X144250000Y-67025000D03*
X144250000Y-68575000D03*
%TD*%
D36*
%TO.C,U102*%
X187010000Y-68250000D03*
X187010000Y-67750000D03*
X187010000Y-67250000D03*
X187010000Y-66750000D03*
X187010000Y-66250000D03*
X184210000Y-66250000D03*
X184210000Y-66750000D03*
X184210000Y-67250000D03*
X184210000Y-67750000D03*
X184210000Y-68250000D03*
D37*
X185610000Y-67250000D03*
D38*
X185860000Y-68700000D03*
X185360000Y-68700000D03*
X185860000Y-65800000D03*
X185360000Y-65800000D03*
%TD*%
D24*
%TO.C,L102*%
X157002350Y-72400000D03*
X157002350Y-76100000D03*
%TD*%
D25*
%TO.C,U105*%
X148980250Y-66974500D03*
D26*
X148497650Y-66898300D03*
X148002350Y-66898300D03*
D27*
X147519750Y-66974500D03*
D28*
X147519750Y-68625500D03*
D26*
X148002350Y-68701700D03*
X148497650Y-68701700D03*
D29*
X148980250Y-68625500D03*
D30*
X148802450Y-67800000D03*
%TD*%
D22*
%TO.C,C128*%
X159250000Y-60550000D03*
X159250000Y-54950000D03*
%TD*%
D13*
%TO.C,C116*%
X174000000Y-71230000D03*
X174000000Y-70270000D03*
%TD*%
D12*
%TO.C,R109*%
X182470000Y-67750000D03*
X181450000Y-67750000D03*
%TD*%
D11*
%TO.C,C122*%
X162500000Y-76275000D03*
X162500000Y-74725000D03*
%TD*%
D39*
%TO.C,D106*%
X143400000Y-89100000D03*
X143400000Y-84700000D03*
%TD*%
D40*
%TO.C,C130*%
X159683381Y-122127279D03*
X160362203Y-121448457D03*
%TD*%
D10*
%TO.C,R117*%
X150750000Y-68990000D03*
X150750000Y-67970000D03*
%TD*%
D34*
%TO.C,D103*%
X157765000Y-100500000D03*
X158735000Y-100500000D03*
%TD*%
D13*
%TO.C,C118*%
X163000000Y-71230000D03*
X163000000Y-70270000D03*
%TD*%
D16*
%TO.C,R138*%
X164990000Y-80500000D03*
X166010000Y-80500000D03*
%TD*%
D12*
%TO.C,R111*%
X158760000Y-101500000D03*
X157740000Y-101500000D03*
%TD*%
%TO.C,R119*%
X158760000Y-106500000D03*
X157740000Y-106500000D03*
%TD*%
D13*
%TO.C,C119*%
X163000000Y-68980000D03*
X163000000Y-68020000D03*
%TD*%
D18*
%TO.C,C112*%
X149250000Y-70320000D03*
X149250000Y-71280000D03*
%TD*%
D19*
%TO.C,U109*%
X169750000Y-80450000D03*
X169250000Y-80450000D03*
X168750000Y-80450000D03*
X168250000Y-80450000D03*
X167750000Y-80450000D03*
X167750000Y-83250000D03*
X168250000Y-83250000D03*
X168750000Y-83250000D03*
X169250000Y-83250000D03*
X169750000Y-83250000D03*
D20*
X168750000Y-81850000D03*
D21*
X170200000Y-81600000D03*
X170200000Y-82100000D03*
X167300000Y-81600000D03*
X167300000Y-82100000D03*
%TD*%
D16*
%TO.C,R105*%
X188750000Y-65750000D03*
X189770000Y-65750000D03*
%TD*%
D12*
%TO.C,R118*%
X158760000Y-104000000D03*
X157740000Y-104000000D03*
%TD*%
D35*
%TO.C,C104*%
X166250000Y-66975000D03*
X166250000Y-68525000D03*
%TD*%
D18*
%TO.C,C134*%
X168250000Y-85020000D03*
X168250000Y-85980000D03*
%TD*%
D11*
%TO.C,C123*%
X153250000Y-76275000D03*
X153250000Y-74725000D03*
%TD*%
D23*
%TO.C,C113*%
X169022350Y-70348300D03*
X169982350Y-70348300D03*
%TD*%
D11*
%TO.C,C127*%
X140500000Y-76325000D03*
X140500000Y-74775000D03*
%TD*%
D24*
%TO.C,L103*%
X146002350Y-72450000D03*
X146002350Y-76150000D03*
%TD*%
D18*
%TO.C,C107*%
X167750000Y-66770000D03*
X167750000Y-67730000D03*
%TD*%
D16*
%TO.C,R104*%
X188750000Y-67750000D03*
X189770000Y-67750000D03*
%TD*%
D12*
%TO.C,R136*%
X169760000Y-78750000D03*
X168740000Y-78750000D03*
%TD*%
D16*
%TO.C,R102*%
X138490000Y-59000000D03*
X139510000Y-59000000D03*
%TD*%
D17*
%TO.C,R130*%
X159250000Y-84970000D03*
X159250000Y-85990000D03*
%TD*%
D18*
%TO.C,C108*%
X156750000Y-66770000D03*
X156750000Y-67730000D03*
%TD*%
D34*
%TO.C,D101*%
X188775000Y-66750000D03*
X189745000Y-66750000D03*
%TD*%
D41*
%TO.C,D102*%
X127100000Y-52000000D03*
X130400000Y-52000000D03*
%TD*%
D13*
%TO.C,C121*%
X152000000Y-68960000D03*
X152000000Y-68000000D03*
%TD*%
D18*
%TO.C,C131*%
X157250000Y-85000000D03*
X157250000Y-85960000D03*
%TD*%
D13*
%TO.C,C117*%
X174000000Y-68980000D03*
X174000000Y-68020000D03*
%TD*%
D34*
%TO.C,D104*%
X157765000Y-103000000D03*
X158735000Y-103000000D03*
%TD*%
D42*
%TO.C,Q101*%
X139350000Y-57225000D03*
X139350000Y-56775000D03*
D43*
X138650000Y-57000000D03*
%TD*%
D18*
%TO.C,C110*%
X171250000Y-70270000D03*
X171250000Y-71230000D03*
%TD*%
D23*
%TO.C,C115*%
X147022350Y-70398300D03*
X147982350Y-70398300D03*
%TD*%
D17*
%TO.C,R107*%
X182000000Y-99990000D03*
X182000000Y-101010000D03*
%TD*%
D10*
%TO.C,R115*%
X161750000Y-69010000D03*
X161750000Y-67990000D03*
%TD*%
D11*
%TO.C,C125*%
X164250000Y-76275000D03*
X164250000Y-74725000D03*
%TD*%
D10*
%TO.C,R126*%
X178000000Y-101020000D03*
X178000000Y-100000000D03*
%TD*%
M02*
