M48
; DRILL file {KiCad 8.0.0} date 2024-03-25T03:27:12+0000
; FORMAT={-:-/ absolute / inch / decimal}
; #@! TF.CreationDate,2024-03-25T03:27:12+00:00
; #@! TF.GenerationSoftware,Kicad,Pcbnew,8.0.0
; #@! TF.FileFunction,Plated,1,4,PTH
FMAT,2
INCH
; #@! TA.AperFunction,Plated,PTH,ViaDrill
T1C0.0118
; #@! TA.AperFunction,Plated,PTH,ComponentDrill
T2C0.0197
; #@! TA.AperFunction,Plated,PTH,ComponentDrill
T3C0.0394
; #@! TA.AperFunction,Plated,PTH,ComponentDrill
T4C0.0512
; #@! TA.AperFunction,Plated,PTH,ComponentDrill
T5C0.1063
; #@! TA.AperFunction,Plated,PTH,ComponentDrill
T6C0.1260
; #@! TA.AperFunction,Plated,PTH,ComponentDrill
T7C0.1772
%
G90
G05
T1
X4.4291Y-2.2441
X4.4291Y-2.3425
X4.4291Y-2.4409
X4.4291Y-2.5394
X4.4291Y-2.6378
X4.4291Y-2.7362
X4.4291Y-2.8346
X4.4291Y-2.9331
X4.4291Y-3.0315
X4.4291Y-3.1299
X4.4291Y-3.2283
X4.5276Y-2.3425
X4.5276Y-2.4409
X4.5276Y-2.5394
X4.5276Y-2.6378
X4.5276Y-2.7362
X4.5276Y-2.8346
X4.5276Y-2.9331
X4.5276Y-3.0315
X4.5276Y-3.1299
X4.626Y-2.3425
X4.626Y-2.4409
X4.626Y-2.5394
X4.626Y-2.6378
X4.626Y-2.7362
X4.626Y-2.8346
X4.626Y-2.9331
X4.626Y-3.0315
X4.626Y-3.1299
X4.7244Y-2.0472
X4.7244Y-2.1457
X4.7244Y-2.2441
X4.7244Y-2.3425
X4.7244Y-2.4409
X4.7244Y-2.5394
X4.7244Y-2.6378
X4.7244Y-2.7362
X4.7244Y-2.8346
X4.7244Y-2.9331
X4.7244Y-3.0315
X4.7244Y-3.1299
X4.7244Y-3.2283
X4.7244Y-3.3268
X4.7244Y-3.4252
X4.8228Y-2.0472
X4.8228Y-2.1457
X4.8228Y-2.2441
X4.8228Y-2.3425
X4.8228Y-2.4409
X4.8228Y-2.5394
X4.8228Y-2.6378
X4.8228Y-2.7362
X4.8228Y-2.8346
X4.8228Y-2.9331
X4.8228Y-3.0315
X4.8228Y-3.1299
X4.8228Y-3.2283
X4.8228Y-3.3268
X4.8228Y-3.4252
X4.9213Y-2.0472
X4.9213Y-2.3425
X4.9213Y-2.4409
X4.9213Y-2.5394
X4.9213Y-2.6378
X4.9213Y-2.7362
X5.0197Y-2.1457
X5.0197Y-2.2441
X5.0197Y-2.4409
X5.0197Y-2.5394
X5.0197Y-2.6378
X5.0197Y-2.7362
X5.1181Y-2.1457
X5.1181Y-2.2441
X5.1181Y-2.3425
X5.1181Y-2.5394
X5.1181Y-2.6378
X5.1181Y-2.7362
X5.2165Y-2.0472
X5.2165Y-2.3425
X5.2165Y-2.5394
X5.2165Y-2.6378
X5.2165Y-2.7362
X5.315Y-2.0472
X5.315Y-2.1457
X5.315Y-2.3425
X5.315Y-2.5394
X5.315Y-2.6378
X5.315Y-2.7362
X5.315Y-2.8346
X5.4134Y-2.0472
X5.4134Y-2.1457
X5.4134Y-2.3425
X5.4134Y-2.5394
X5.4134Y-2.6378
X5.4134Y-2.7362
X5.4134Y-2.8346
X5.4134Y-2.9331
X5.4528Y-2.372
X5.5118Y-2.0472
X5.5118Y-2.1457
X5.5118Y-2.2441
X5.5118Y-2.5394
X5.5118Y-2.6378
X5.5118Y-2.7362
X5.5118Y-2.8346
X5.5315Y-2.8937
X5.6102Y-2.0472
X5.6102Y-2.1457
X5.6102Y-2.2441
X5.6693Y-2.7559
X5.6693Y-2.874
X5.7087Y-2.0472
X5.7087Y-2.1457
X5.7087Y-2.2441
X5.7087Y-2.9331
X5.7087Y-3.3268
X5.7087Y-3.4252
X5.8071Y-2.0472
X5.8071Y-2.1457
X5.8071Y-2.2441
X5.8268Y-2.8543
X5.8268Y-2.9331
X5.8661Y-2.8937
X5.9055Y-2.0472
X5.9055Y-2.1457
X5.9055Y-2.2441
X5.9055Y-2.6772
X5.9055Y-2.8543
X5.9055Y-3.0315
X5.9055Y-3.1299
X5.9055Y-3.2283
X5.9055Y-3.3268
X5.9055Y-3.4252
X5.9055Y-3.5236
X5.9646Y-2.8543
X6.0039Y-2.0472
X6.0039Y-2.1457
X6.0039Y-2.2441
X6.0039Y-2.8937
X6.0039Y-3.1299
X6.0039Y-3.2283
X6.0039Y-3.3268
X6.0039Y-3.4252
X6.0039Y-3.5236
X6.0122Y-2.6787
X6.0433Y-2.7756
X6.0433Y-2.8543
X6.063Y-2.7165
X6.1024Y-2.0472
X6.1024Y-2.1457
X6.1024Y-2.2441
X6.1024Y-3.1299
X6.1024Y-3.2283
X6.1024Y-3.3268
X6.1024Y-3.4252
X6.1024Y-3.5236
X6.1319Y-3.1299
X6.1417Y-2.9331
X6.2008Y-2.0472
X6.2008Y-2.1457
X6.2008Y-2.2441
X6.2008Y-3.2283
X6.2008Y-3.4252
X6.2008Y-3.5236
X6.2008Y-3.8189
X6.2598Y-2.8543
X6.2598Y-2.9331
X6.2795Y-2.5984
X6.2795Y-3.9961
X6.2795Y-4.0551
X6.2795Y-4.0945
X6.2795Y-4.1929
X6.2992Y-2.0472
X6.2992Y-2.1457
X6.2992Y-2.2441
X6.2992Y-2.8937
X6.2992Y-3.2283
X6.2992Y-3.4252
X6.2992Y-3.5236
X6.2992Y-3.9173
X6.2992Y-4.311
X6.3386Y-2.6772
X6.3386Y-2.8543
X6.3425Y-4.8071
X6.3976Y-2.0472
X6.3976Y-2.1457
X6.3976Y-2.2441
X6.3976Y-2.8543
X6.3976Y-3.1299
X6.3976Y-3.2283
X6.3976Y-3.3268
X6.3976Y-3.5236
X6.3976Y-3.8189
X6.3976Y-3.9173
X6.3976Y-4.0157
X6.3976Y-4.1142
X6.3976Y-4.2126
X6.3976Y-4.311
X6.4134Y-4.878
X6.437Y-2.8937
X6.4449Y-4.7756
X6.4469Y-2.6772
X6.4567Y-4.7402
X6.4764Y-2.7756
X6.4764Y-2.8543
X6.4961Y-2.0472
X6.4961Y-2.1457
X6.4961Y-2.2441
X6.4961Y-2.7165
X6.4961Y-3.2283
X6.4961Y-3.3268
X6.4961Y-3.4252
X6.4961Y-3.8189
X6.4961Y-3.9173
X6.4961Y-4.0157
X6.4961Y-4.1142
X6.4961Y-4.2126
X6.4961Y-4.4488
X6.4961Y-4.5079
X6.5354Y-3.1299
X6.5354Y-4.4094
X6.5354Y-4.5079
X6.565Y-3.1299
X6.5748Y-2.9331
X6.5748Y-4.3701
X6.5945Y-2.0472
X6.5945Y-2.1457
X6.5945Y-2.2441
X6.5945Y-3.2283
X6.5945Y-3.4252
X6.5945Y-3.8189
X6.5945Y-3.9173
X6.5945Y-4.0157
X6.5945Y-4.1142
X6.6142Y-4.3307
X6.6142Y-4.7244
X6.6535Y-4.2913
X6.6535Y-4.7638
X6.6929Y-2.0472
X6.6929Y-2.1457
X6.6929Y-2.2441
X6.6929Y-2.8543
X6.6929Y-2.9331
X6.6929Y-3.2283
X6.6929Y-3.4252
X6.6929Y-3.8189
X6.6929Y-3.9173
X6.6929Y-4.0157
X6.6929Y-4.252
X6.6929Y-4.8031
X6.7126Y-2.5984
X6.7323Y-2.8937
X6.7717Y-2.6772
X6.7717Y-2.8543
X6.7913Y-2.0472
X6.7913Y-2.1457
X6.7913Y-2.2441
X6.7913Y-3.0315
X6.7913Y-3.1299
X6.7913Y-3.2283
X6.7913Y-3.8189
X6.7913Y-3.9173
X6.7913Y-4.0157
X6.811Y-4.5276
X6.8504Y-4.5669
X6.8799Y-2.6772
X6.8898Y-2.0472
X6.8898Y-2.1457
X6.8898Y-2.2441
X6.8898Y-2.8346
X6.8898Y-2.9331
X6.8898Y-3.0315
X6.8898Y-3.1299
X6.8898Y-4.6063
X6.8898Y-4.7047
X6.9882Y-2.0472
X6.9882Y-2.1457
X6.9882Y-2.2441
X6.9882Y-2.3425
X6.9882Y-2.8346
X6.9882Y-2.9331
X6.9882Y-3.0315
X6.9882Y-3.1299
X6.9882Y-3.8189
X6.9882Y-4.6063
X6.9882Y-4.7047
X6.9882Y-4.8031
X7.0079Y-4.0157
X7.0079Y-4.3307
X7.0472Y-4.3701
X7.0866Y-2.0472
X7.0866Y-2.1457
X7.0866Y-2.2441
X7.0866Y-2.3425
X7.0866Y-2.8346
X7.0866Y-2.9331
X7.0866Y-3.0315
X7.0866Y-3.1299
X7.0866Y-3.8189
X7.0866Y-4.0157
X7.0866Y-4.4094
X7.0866Y-4.7047
X7.126Y-4.0157
X7.1457Y-2.5591
X7.1839Y-2.7362
X7.185Y-2.0472
X7.185Y-2.1457
X7.185Y-2.2441
X7.185Y-2.3425
X7.185Y-2.8346
X7.185Y-2.9331
X7.185Y-3.0315
X7.185Y-3.1299
X7.185Y-3.2283
X7.185Y-3.3268
X7.185Y-3.4252
X7.185Y-4.4094
X7.185Y-4.5079
X7.185Y-4.6063
X7.1949Y-3.9764
X7.2047Y-2.5197
X7.2047Y-4.1339
X7.2441Y-4.1732
X7.2835Y-2.0472
X7.2835Y-2.1457
X7.2835Y-2.2441
X7.2835Y-2.3425
X7.2835Y-3.1299
X7.2835Y-3.2283
X7.2835Y-3.3268
X7.2835Y-3.4252
X7.2835Y-4.2126
X7.2835Y-4.5079
X7.2933Y-2.5492
X7.2933Y-2.7461
X7.3228Y-2.5492
X7.3228Y-2.7461
X7.3327Y-2.8248
X7.3819Y-2.0472
X7.3819Y-2.1457
X7.3819Y-2.2441
X7.3819Y-2.3425
X7.3819Y-3.2283
X7.3819Y-3.3268
X7.3819Y-3.4252
X7.3819Y-4.2126
X7.3819Y-4.311
X7.4409Y-3.9764
X7.4803Y-2.0472
X7.4803Y-2.1457
X7.4803Y-2.2441
X7.4803Y-2.3425
X7.4803Y-4.0157
X7.4803Y-4.311
X7.5Y-2.6673
X7.5787Y-2.0472
X7.5787Y-2.2441
X7.5787Y-2.3425
X7.5787Y-2.4409
X7.5787Y-3.9173
X7.5787Y-4.0157
X7.5787Y-4.1142
X7.6772Y-2.3425
X7.6772Y-2.4409
X7.6772Y-3.8189
X7.6772Y-3.9173
X7.6772Y-4.0157
X7.6772Y-4.1142
X7.7756Y-2.3425
X7.7756Y-2.4409
X7.7756Y-2.5394
X7.7756Y-2.6378
X7.7756Y-2.7362
X7.7756Y-3.8189
X7.7756Y-3.9173
X7.7756Y-4.0157
X7.7953Y-3.4646
X7.874Y-2.0472
X7.874Y-2.1457
X7.874Y-2.2441
X7.874Y-2.3425
X7.874Y-2.4409
X7.874Y-2.5394
X7.874Y-2.6378
X7.874Y-2.7362
X7.874Y-2.9331
X7.874Y-3.0315
X7.874Y-3.1299
X7.874Y-3.2283
X7.874Y-3.3268
X7.874Y-3.4252
X7.874Y-3.5236
X7.874Y-3.7205
X7.874Y-3.8189
X7.874Y-3.9173
X7.9724Y-2.0472
X7.9724Y-2.1457
X7.9724Y-2.2441
X7.9724Y-2.3425
X7.9724Y-2.4409
X7.9724Y-2.5394
X7.9724Y-2.9331
X7.9724Y-3.0315
X7.9724Y-3.1299
X7.9724Y-3.2283
X7.9724Y-3.3268
X7.9724Y-3.4252
X7.9724Y-3.5236
X7.9724Y-3.622
X7.9724Y-3.7205
X7.9724Y-3.8189
X8.0709Y-2.0472
X8.0709Y-2.1457
X8.0709Y-2.2441
X8.0709Y-2.3425
X8.0709Y-2.4409
X8.0709Y-2.5394
X8.0709Y-3.1299
X8.0709Y-3.2283
X8.0709Y-3.3268
X8.0709Y-3.4252
X8.0709Y-3.5236
X8.0709Y-3.622
X8.0709Y-3.7205
X8.1693Y-2.0472
X8.1693Y-2.1457
X8.1693Y-2.2441
X8.1693Y-2.3425
X8.1693Y-2.4409
X8.1693Y-2.5394
X8.1693Y-3.1299
X8.1693Y-3.2283
X8.1693Y-3.3268
X8.1693Y-3.4252
X8.1693Y-3.5236
X8.2677Y-2.0472
X8.2677Y-2.1457
X8.2677Y-2.2441
X8.2677Y-2.3425
X8.2677Y-2.4409
X8.2677Y-2.5394
X8.2677Y-2.6378
X8.2677Y-2.7362
X8.2677Y-2.9331
X8.2677Y-3.0315
X8.2677Y-3.1299
X8.2677Y-3.2283
T2
X4.4754Y-2.1524
X4.4754Y-3.2864
X4.5031Y-2.0855
X4.5031Y-2.2192
X4.5031Y-3.2196
X4.5031Y-3.3532
X4.5699Y-2.0579
X4.5699Y-2.2469
X4.5699Y-3.1919
X4.5699Y-3.3809
X4.6367Y-2.0855
X4.6367Y-2.2192
X4.6367Y-3.2196
X4.6367Y-3.3532
X4.6644Y-2.1524
X4.6644Y-3.2864
X6.895Y-3.3132
X6.9227Y-3.2464
X6.9227Y-3.38
X6.9895Y-3.2187
X6.9895Y-3.4077
X7.0563Y-3.2464
X7.0563Y-3.38
X7.084Y-3.3132
X7.6034Y-2.1522
X7.6035Y-3.3012
X7.6311Y-2.0854
X7.6311Y-2.2191
X7.6312Y-3.2344
X7.6312Y-3.368
X7.6979Y-2.0578
X7.6979Y-2.2467
X7.698Y-3.2067
X7.698Y-3.3957
X7.7647Y-2.0854
X7.7647Y-2.2191
X7.7648Y-3.2344
X7.7648Y-3.368
X7.7924Y-2.1522
X7.7925Y-3.3012
T3
X5.9055Y-3.622
X5.9055Y-3.722
X5.9658Y-5.0118
X6.0055Y-3.622
X6.0055Y-3.722
X6.0158Y-5.0984
X6.0524Y-4.9618
X6.0658Y-5.185
X6.1024Y-5.0484
X6.1055Y-3.622
X6.1055Y-3.722
X6.1524Y-5.135
X6.2055Y-3.622
X6.2055Y-3.722
X6.3055Y-3.622
X6.3055Y-3.722
X6.4055Y-3.622
X6.4055Y-3.722
X6.5055Y-3.622
X6.5055Y-3.722
X6.6055Y-3.622
X6.6055Y-3.722
X6.7055Y-3.622
X6.7055Y-3.722
X6.8055Y-3.622
X6.8055Y-3.722
X6.9055Y-3.622
X6.9055Y-3.722
X7.0055Y-3.622
X7.0055Y-3.722
X7.1055Y-3.622
X7.1055Y-3.722
X7.2055Y-3.622
X7.2055Y-3.722
X7.3055Y-3.622
X7.3055Y-3.722
X7.4055Y-3.622
X7.4055Y-3.722
X7.5055Y-3.622
X7.5055Y-3.722
X7.6055Y-3.622
X7.6055Y-3.722
X7.7055Y-3.622
X7.7055Y-3.722
X7.8055Y-3.622
X7.8055Y-3.722
T4
X4.9178Y-2.2426
X4.9178Y-2.8332
X4.9178Y-3.03
X4.9178Y-3.2269
X5.2131Y-2.2426
X5.2131Y-2.8332
X5.2131Y-3.03
X5.2131Y-3.2269
T5
X5.148Y-3.5994
X5.2957Y-3.8551
X5.3185Y-3.501
X5.4433Y-4.1108
X5.4661Y-3.7567
X5.6138Y-4.0124
X5.6205Y-4.4262
X5.7909Y-4.3278
X6.7386Y-4.6759
X6.8778Y-4.8151
X6.9474Y-4.4671
X7.0866Y-4.6063
X7.1562Y-4.2583
X7.2954Y-4.3975
X7.365Y-4.0495
X7.5042Y-4.1887
T6
X4.5699Y-2.1524
X4.5699Y-3.2864
X6.9895Y-3.3132
X7.6979Y-2.1522
X7.698Y-3.3012
T7
X8.1004Y-2.6929
X8.1004Y-2.9764
M30
