%TF.GenerationSoftware,KiCad,Pcbnew,8.0.0*%
%TF.CreationDate,2024-03-25T03:31:52+00:00*%
%TF.ProjectId,main_PCB_v2,6d61696e-5f50-4434-925f-76322e6b6963,rev?*%
%TF.SameCoordinates,Original*%
%TF.FileFunction,Soldermask,Bot*%
%TF.FilePolarity,Negative*%
%FSLAX46Y46*%
G04 Gerber Fmt 4.6, Leading zero omitted, Abs format (unit mm)*
G04 Created by KiCad (PCBNEW 8.0.0) date 2024-03-25 03:31:52*
%MOMM*%
%LPD*%
G01*
G04 APERTURE LIST*
G04 Aperture macros list*
%AMHorizOval*
0 Thick line with rounded ends*
0 $1 width*
0 $2 $3 position (X,Y) of the first rounded end (center of the circle)*
0 $4 $5 position (X,Y) of the second rounded end (center of the circle)*
0 Add line between two ends*
20,1,$1,$2,$3,$4,$5,0*
0 Add two circle primitives to create the rounded ends*
1,1,$1,$2,$3*
1,1,$1,$4,$5*%
%AMRotRect*
0 Rectangle, with rotation*
0 The origin of the aperture is its center*
0 $1 length*
0 $2 width*
0 $3 Rotation angle, in degrees counterclockwise*
0 Add horizontal line*
21,1,$1,$2,0,0,$3*%
G04 Aperture macros list end*
%ADD10C,3.200000*%
%ADD11C,0.600000*%
%ADD12HorizOval,0.900000X-0.142350X0.531259X0.142350X-0.531259X0*%
%ADD13HorizOval,0.900000X-0.103528X0.386370X0.103528X-0.386370X0*%
%ADD14R,1.700000X1.700000*%
%ADD15O,1.700000X1.700000*%
%ADD16RotRect,1.000000X1.000000X135.000000*%
%ADD17HorizOval,1.000000X0.000000X0.000000X0.000000X0.000000X0*%
G04 APERTURE END LIST*
D10*
%TO.C,OL101*%
X135156269Y-107354968D03*
%TD*%
D11*
%TO.C,J108*%
X141256020Y-123593380D03*
X146839072Y-122097406D03*
D12*
X139743095Y-123491482D03*
X148098354Y-121252697D03*
D13*
X140822371Y-127519392D03*
X149177629Y-125280608D03*
%TD*%
D14*
%TO.C,J112*%
X140000001Y-82540001D03*
D15*
X140000001Y-80000001D03*
X142540001Y-82540001D03*
X142540001Y-80000001D03*
X145080001Y-82540001D03*
X145080001Y-80000001D03*
X147620001Y-82540001D03*
X147620001Y-80000002D03*
X150160000Y-82540001D03*
X150160001Y-80000001D03*
X152700001Y-82540001D03*
X152700001Y-80000001D03*
X155240001Y-82540001D03*
X155240001Y-80000001D03*
X157780001Y-82540001D03*
X157780001Y-80000001D03*
X160320001Y-82540001D03*
X160320001Y-80000001D03*
X162860001Y-82540001D03*
X162860001Y-80000001D03*
X165400001Y-82540001D03*
X165400001Y-80000001D03*
X167940001Y-82540001D03*
X167940001Y-80000001D03*
X170480001Y-82540001D03*
X170480001Y-80000001D03*
X173020001Y-82540001D03*
X173020001Y-80000001D03*
X175560001Y-82540001D03*
X175560001Y-80000001D03*
X178100001Y-82540001D03*
X178100001Y-80000001D03*
X180640001Y-82540001D03*
X180640001Y-80000001D03*
X183180001Y-82540001D03*
X183180001Y-80000001D03*
X185720001Y-82540001D03*
X185720001Y-80000001D03*
X188260001Y-82540001D03*
X188260001Y-80000001D03*
%TD*%
D16*
%TO.C,J110*%
X154137258Y-119946625D03*
D17*
X153239232Y-119048599D03*
X155035284Y-119048599D03*
X154137258Y-118150574D03*
X155933309Y-118150574D03*
X155035284Y-117252548D03*
X156831335Y-117252548D03*
X155933309Y-116354523D03*
X157729360Y-116354523D03*
X156831335Y-115456497D03*
X158627386Y-115456497D03*
X157729360Y-114558471D03*
X159525412Y-114558471D03*
X158627386Y-113660446D03*
%TD*%
M02*
