%TF.GenerationSoftware,KiCad,Pcbnew,8.0.0*%
%TF.CreationDate,2024-03-25T03:31:57+00:00*%
%TF.ProjectId,main_PCB_v2,6d61696e-5f50-4434-925f-76322e6b6963,rev?*%
%TF.SameCoordinates,Original*%
%TF.FileFunction,Drillmap*%
%TF.FilePolarity,Positive*%
%FSLAX45Y45*%
G04 Gerber Fmt 4.5, Leading zero omitted, Abs format (unit mm)*
G04 Created by KiCad (PCBNEW 8.0.0) date 2024-03-25 03:31:57*
%MOMM*%
%LPD*%
G01*
G04 APERTURE LIST*
%ADD10C,0.350000*%
%ADD11C,0.200000*%
%ADD12C,0.100000*%
%ADD13C,0.320000*%
G04 APERTURE END LIST*
D10*
X11394036Y-11925982D02*
X13685251Y-7801794D01*
X11510586Y-12333920D02*
X12844754Y-13075124D01*
X15480477Y-12501572D02*
X19091061Y-8890987D01*
X18878505Y-7647494D02*
X13947485Y-7647494D01*
X19178506Y-7949283D02*
X19178506Y-8679280D01*
X11510586Y-12333920D02*
G75*
G02*
X11394036Y-11925982I145695J262244D01*
G01*
X13011224Y-13112156D02*
G75*
G02*
X12844754Y-13075124I-20779J299276D01*
G01*
X13685251Y-7801794D02*
G75*
G02*
X13947485Y-7647494I262235J-145686D01*
G01*
X15380297Y-12567767D02*
G75*
G02*
X13011224Y-13112156I-2908972J7232211D01*
G01*
X15480477Y-12501572D02*
G75*
G02*
X15380297Y-12567766I-212127J212132D01*
G01*
X18878505Y-7647494D02*
G75*
G02*
X19178510Y-7949283I-5J-300016D01*
G01*
X19178506Y-8679280D02*
G75*
G02*
X19091060Y-8890986I-299996J0D01*
G01*
D11*
D12*
X14095602Y-12329338D02*
X14155602Y-12389338D01*
X14155602Y-12329338D02*
X14095602Y-12389338D01*
X14653907Y-12179741D02*
X14713907Y-12239741D01*
X14713907Y-12179741D02*
X14653907Y-12239741D01*
D13*
X13675627Y-10735497D02*
G75*
G02*
X13355627Y-10735497I-160000J0D01*
G01*
X13355627Y-10735497D02*
G75*
G02*
X13675627Y-10735497I160000J0D01*
G01*
D11*
X11599559Y-13441860D02*
X11599559Y-13241860D01*
X11599559Y-13241860D02*
X11647178Y-13241860D01*
X11647178Y-13241860D02*
X11675750Y-13251384D01*
X11675750Y-13251384D02*
X11694797Y-13270432D01*
X11694797Y-13270432D02*
X11704321Y-13289479D01*
X11704321Y-13289479D02*
X11713845Y-13327575D01*
X11713845Y-13327575D02*
X11713845Y-13356146D01*
X11713845Y-13356146D02*
X11704321Y-13394241D01*
X11704321Y-13394241D02*
X11694797Y-13413289D01*
X11694797Y-13413289D02*
X11675750Y-13432337D01*
X11675750Y-13432337D02*
X11647178Y-13441860D01*
X11647178Y-13441860D02*
X11599559Y-13441860D01*
X11799559Y-13441860D02*
X11799559Y-13308527D01*
X11799559Y-13346622D02*
X11809083Y-13327575D01*
X11809083Y-13327575D02*
X11818607Y-13318051D01*
X11818607Y-13318051D02*
X11837655Y-13308527D01*
X11837655Y-13308527D02*
X11856702Y-13308527D01*
X11923369Y-13441860D02*
X11923369Y-13308527D01*
X11923369Y-13241860D02*
X11913845Y-13251384D01*
X11913845Y-13251384D02*
X11923369Y-13260908D01*
X11923369Y-13260908D02*
X11932893Y-13251384D01*
X11932893Y-13251384D02*
X11923369Y-13241860D01*
X11923369Y-13241860D02*
X11923369Y-13260908D01*
X12047178Y-13441860D02*
X12028131Y-13432337D01*
X12028131Y-13432337D02*
X12018607Y-13413289D01*
X12018607Y-13413289D02*
X12018607Y-13241860D01*
X12151940Y-13441860D02*
X12132893Y-13432337D01*
X12132893Y-13432337D02*
X12123369Y-13413289D01*
X12123369Y-13413289D02*
X12123369Y-13241860D01*
X12380512Y-13441860D02*
X12380512Y-13241860D01*
X12380512Y-13241860D02*
X12447178Y-13384717D01*
X12447178Y-13384717D02*
X12513845Y-13241860D01*
X12513845Y-13241860D02*
X12513845Y-13441860D01*
X12694797Y-13441860D02*
X12694797Y-13337098D01*
X12694797Y-13337098D02*
X12685274Y-13318051D01*
X12685274Y-13318051D02*
X12666226Y-13308527D01*
X12666226Y-13308527D02*
X12628131Y-13308527D01*
X12628131Y-13308527D02*
X12609083Y-13318051D01*
X12694797Y-13432337D02*
X12675750Y-13441860D01*
X12675750Y-13441860D02*
X12628131Y-13441860D01*
X12628131Y-13441860D02*
X12609083Y-13432337D01*
X12609083Y-13432337D02*
X12599559Y-13413289D01*
X12599559Y-13413289D02*
X12599559Y-13394241D01*
X12599559Y-13394241D02*
X12609083Y-13375194D01*
X12609083Y-13375194D02*
X12628131Y-13365670D01*
X12628131Y-13365670D02*
X12675750Y-13365670D01*
X12675750Y-13365670D02*
X12694797Y-13356146D01*
X12790036Y-13308527D02*
X12790036Y-13508527D01*
X12790036Y-13318051D02*
X12809083Y-13308527D01*
X12809083Y-13308527D02*
X12847178Y-13308527D01*
X12847178Y-13308527D02*
X12866226Y-13318051D01*
X12866226Y-13318051D02*
X12875750Y-13327575D01*
X12875750Y-13327575D02*
X12885274Y-13346622D01*
X12885274Y-13346622D02*
X12885274Y-13403765D01*
X12885274Y-13403765D02*
X12875750Y-13422813D01*
X12875750Y-13422813D02*
X12866226Y-13432337D01*
X12866226Y-13432337D02*
X12847178Y-13441860D01*
X12847178Y-13441860D02*
X12809083Y-13441860D01*
X12809083Y-13441860D02*
X12790036Y-13432337D01*
X12970988Y-13422813D02*
X12980512Y-13432337D01*
X12980512Y-13432337D02*
X12970988Y-13441860D01*
X12970988Y-13441860D02*
X12961464Y-13432337D01*
X12961464Y-13432337D02*
X12970988Y-13422813D01*
X12970988Y-13422813D02*
X12970988Y-13441860D01*
X12970988Y-13318051D02*
X12980512Y-13327575D01*
X12980512Y-13327575D02*
X12970988Y-13337098D01*
X12970988Y-13337098D02*
X12961464Y-13327575D01*
X12961464Y-13327575D02*
X12970988Y-13318051D01*
X12970988Y-13318051D02*
X12970988Y-13337098D01*
D12*
X11278783Y-13740377D02*
X11338783Y-13800377D01*
X11338783Y-13740377D02*
X11278783Y-13800377D01*
D11*
X11637655Y-13661860D02*
X11656702Y-13661860D01*
X11656702Y-13661860D02*
X11675750Y-13671384D01*
X11675750Y-13671384D02*
X11685274Y-13680908D01*
X11685274Y-13680908D02*
X11694797Y-13699956D01*
X11694797Y-13699956D02*
X11704321Y-13738051D01*
X11704321Y-13738051D02*
X11704321Y-13785670D01*
X11704321Y-13785670D02*
X11694797Y-13823765D01*
X11694797Y-13823765D02*
X11685274Y-13842813D01*
X11685274Y-13842813D02*
X11675750Y-13852337D01*
X11675750Y-13852337D02*
X11656702Y-13861860D01*
X11656702Y-13861860D02*
X11637655Y-13861860D01*
X11637655Y-13861860D02*
X11618607Y-13852337D01*
X11618607Y-13852337D02*
X11609083Y-13842813D01*
X11609083Y-13842813D02*
X11599559Y-13823765D01*
X11599559Y-13823765D02*
X11590036Y-13785670D01*
X11590036Y-13785670D02*
X11590036Y-13738051D01*
X11590036Y-13738051D02*
X11599559Y-13699956D01*
X11599559Y-13699956D02*
X11609083Y-13680908D01*
X11609083Y-13680908D02*
X11618607Y-13671384D01*
X11618607Y-13671384D02*
X11637655Y-13661860D01*
X11790036Y-13842813D02*
X11799559Y-13852337D01*
X11799559Y-13852337D02*
X11790036Y-13861860D01*
X11790036Y-13861860D02*
X11780512Y-13852337D01*
X11780512Y-13852337D02*
X11790036Y-13842813D01*
X11790036Y-13842813D02*
X11790036Y-13861860D01*
X11970988Y-13661860D02*
X11932893Y-13661860D01*
X11932893Y-13661860D02*
X11913845Y-13671384D01*
X11913845Y-13671384D02*
X11904321Y-13680908D01*
X11904321Y-13680908D02*
X11885274Y-13709479D01*
X11885274Y-13709479D02*
X11875750Y-13747575D01*
X11875750Y-13747575D02*
X11875750Y-13823765D01*
X11875750Y-13823765D02*
X11885274Y-13842813D01*
X11885274Y-13842813D02*
X11894797Y-13852337D01*
X11894797Y-13852337D02*
X11913845Y-13861860D01*
X11913845Y-13861860D02*
X11951940Y-13861860D01*
X11951940Y-13861860D02*
X11970988Y-13852337D01*
X11970988Y-13852337D02*
X11980512Y-13842813D01*
X11980512Y-13842813D02*
X11990036Y-13823765D01*
X11990036Y-13823765D02*
X11990036Y-13776146D01*
X11990036Y-13776146D02*
X11980512Y-13757098D01*
X11980512Y-13757098D02*
X11970988Y-13747575D01*
X11970988Y-13747575D02*
X11951940Y-13738051D01*
X11951940Y-13738051D02*
X11913845Y-13738051D01*
X11913845Y-13738051D02*
X11894797Y-13747575D01*
X11894797Y-13747575D02*
X11885274Y-13757098D01*
X11885274Y-13757098D02*
X11875750Y-13776146D01*
X12113845Y-13661860D02*
X12132893Y-13661860D01*
X12132893Y-13661860D02*
X12151940Y-13671384D01*
X12151940Y-13671384D02*
X12161464Y-13680908D01*
X12161464Y-13680908D02*
X12170988Y-13699956D01*
X12170988Y-13699956D02*
X12180512Y-13738051D01*
X12180512Y-13738051D02*
X12180512Y-13785670D01*
X12180512Y-13785670D02*
X12170988Y-13823765D01*
X12170988Y-13823765D02*
X12161464Y-13842813D01*
X12161464Y-13842813D02*
X12151940Y-13852337D01*
X12151940Y-13852337D02*
X12132893Y-13861860D01*
X12132893Y-13861860D02*
X12113845Y-13861860D01*
X12113845Y-13861860D02*
X12094797Y-13852337D01*
X12094797Y-13852337D02*
X12085274Y-13842813D01*
X12085274Y-13842813D02*
X12075750Y-13823765D01*
X12075750Y-13823765D02*
X12066226Y-13785670D01*
X12066226Y-13785670D02*
X12066226Y-13738051D01*
X12066226Y-13738051D02*
X12075750Y-13699956D01*
X12075750Y-13699956D02*
X12085274Y-13680908D01*
X12085274Y-13680908D02*
X12094797Y-13671384D01*
X12094797Y-13671384D02*
X12113845Y-13661860D01*
X12304321Y-13661860D02*
X12323369Y-13661860D01*
X12323369Y-13661860D02*
X12342417Y-13671384D01*
X12342417Y-13671384D02*
X12351940Y-13680908D01*
X12351940Y-13680908D02*
X12361464Y-13699956D01*
X12361464Y-13699956D02*
X12370988Y-13738051D01*
X12370988Y-13738051D02*
X12370988Y-13785670D01*
X12370988Y-13785670D02*
X12361464Y-13823765D01*
X12361464Y-13823765D02*
X12351940Y-13842813D01*
X12351940Y-13842813D02*
X12342417Y-13852337D01*
X12342417Y-13852337D02*
X12323369Y-13861860D01*
X12323369Y-13861860D02*
X12304321Y-13861860D01*
X12304321Y-13861860D02*
X12285274Y-13852337D01*
X12285274Y-13852337D02*
X12275750Y-13842813D01*
X12275750Y-13842813D02*
X12266226Y-13823765D01*
X12266226Y-13823765D02*
X12256702Y-13785670D01*
X12256702Y-13785670D02*
X12256702Y-13738051D01*
X12256702Y-13738051D02*
X12266226Y-13699956D01*
X12266226Y-13699956D02*
X12275750Y-13680908D01*
X12275750Y-13680908D02*
X12285274Y-13671384D01*
X12285274Y-13671384D02*
X12304321Y-13661860D01*
X12456702Y-13861860D02*
X12456702Y-13728527D01*
X12456702Y-13747575D02*
X12466226Y-13738051D01*
X12466226Y-13738051D02*
X12485274Y-13728527D01*
X12485274Y-13728527D02*
X12513845Y-13728527D01*
X12513845Y-13728527D02*
X12532893Y-13738051D01*
X12532893Y-13738051D02*
X12542417Y-13757098D01*
X12542417Y-13757098D02*
X12542417Y-13861860D01*
X12542417Y-13757098D02*
X12551940Y-13738051D01*
X12551940Y-13738051D02*
X12570988Y-13728527D01*
X12570988Y-13728527D02*
X12599559Y-13728527D01*
X12599559Y-13728527D02*
X12618607Y-13738051D01*
X12618607Y-13738051D02*
X12628131Y-13757098D01*
X12628131Y-13757098D02*
X12628131Y-13861860D01*
X12723369Y-13861860D02*
X12723369Y-13728527D01*
X12723369Y-13747575D02*
X12732893Y-13738051D01*
X12732893Y-13738051D02*
X12751940Y-13728527D01*
X12751940Y-13728527D02*
X12780512Y-13728527D01*
X12780512Y-13728527D02*
X12799559Y-13738051D01*
X12799559Y-13738051D02*
X12809083Y-13757098D01*
X12809083Y-13757098D02*
X12809083Y-13861860D01*
X12809083Y-13757098D02*
X12818607Y-13738051D01*
X12818607Y-13738051D02*
X12837655Y-13728527D01*
X12837655Y-13728527D02*
X12866226Y-13728527D01*
X12866226Y-13728527D02*
X12885274Y-13738051D01*
X12885274Y-13738051D02*
X12894798Y-13757098D01*
X12894798Y-13757098D02*
X12894798Y-13861860D01*
X13285274Y-13652337D02*
X13113845Y-13909479D01*
X13542417Y-13661860D02*
X13561464Y-13661860D01*
X13561464Y-13661860D02*
X13580512Y-13671384D01*
X13580512Y-13671384D02*
X13590036Y-13680908D01*
X13590036Y-13680908D02*
X13599560Y-13699956D01*
X13599560Y-13699956D02*
X13609083Y-13738051D01*
X13609083Y-13738051D02*
X13609083Y-13785670D01*
X13609083Y-13785670D02*
X13599560Y-13823765D01*
X13599560Y-13823765D02*
X13590036Y-13842813D01*
X13590036Y-13842813D02*
X13580512Y-13852337D01*
X13580512Y-13852337D02*
X13561464Y-13861860D01*
X13561464Y-13861860D02*
X13542417Y-13861860D01*
X13542417Y-13861860D02*
X13523369Y-13852337D01*
X13523369Y-13852337D02*
X13513845Y-13842813D01*
X13513845Y-13842813D02*
X13504321Y-13823765D01*
X13504321Y-13823765D02*
X13494798Y-13785670D01*
X13494798Y-13785670D02*
X13494798Y-13738051D01*
X13494798Y-13738051D02*
X13504321Y-13699956D01*
X13504321Y-13699956D02*
X13513845Y-13680908D01*
X13513845Y-13680908D02*
X13523369Y-13671384D01*
X13523369Y-13671384D02*
X13542417Y-13661860D01*
X13694798Y-13842813D02*
X13704321Y-13852337D01*
X13704321Y-13852337D02*
X13694798Y-13861860D01*
X13694798Y-13861860D02*
X13685274Y-13852337D01*
X13685274Y-13852337D02*
X13694798Y-13842813D01*
X13694798Y-13842813D02*
X13694798Y-13861860D01*
X13828131Y-13661860D02*
X13847179Y-13661860D01*
X13847179Y-13661860D02*
X13866226Y-13671384D01*
X13866226Y-13671384D02*
X13875750Y-13680908D01*
X13875750Y-13680908D02*
X13885274Y-13699956D01*
X13885274Y-13699956D02*
X13894798Y-13738051D01*
X13894798Y-13738051D02*
X13894798Y-13785670D01*
X13894798Y-13785670D02*
X13885274Y-13823765D01*
X13885274Y-13823765D02*
X13875750Y-13842813D01*
X13875750Y-13842813D02*
X13866226Y-13852337D01*
X13866226Y-13852337D02*
X13847179Y-13861860D01*
X13847179Y-13861860D02*
X13828131Y-13861860D01*
X13828131Y-13861860D02*
X13809083Y-13852337D01*
X13809083Y-13852337D02*
X13799560Y-13842813D01*
X13799560Y-13842813D02*
X13790036Y-13823765D01*
X13790036Y-13823765D02*
X13780512Y-13785670D01*
X13780512Y-13785670D02*
X13780512Y-13738051D01*
X13780512Y-13738051D02*
X13790036Y-13699956D01*
X13790036Y-13699956D02*
X13799560Y-13680908D01*
X13799560Y-13680908D02*
X13809083Y-13671384D01*
X13809083Y-13671384D02*
X13828131Y-13661860D01*
X13970988Y-13680908D02*
X13980512Y-13671384D01*
X13980512Y-13671384D02*
X13999560Y-13661860D01*
X13999560Y-13661860D02*
X14047179Y-13661860D01*
X14047179Y-13661860D02*
X14066226Y-13671384D01*
X14066226Y-13671384D02*
X14075750Y-13680908D01*
X14075750Y-13680908D02*
X14085274Y-13699956D01*
X14085274Y-13699956D02*
X14085274Y-13719003D01*
X14085274Y-13719003D02*
X14075750Y-13747575D01*
X14075750Y-13747575D02*
X13961464Y-13861860D01*
X13961464Y-13861860D02*
X14085274Y-13861860D01*
X14151941Y-13661860D02*
X14275750Y-13661860D01*
X14275750Y-13661860D02*
X14209083Y-13738051D01*
X14209083Y-13738051D02*
X14237655Y-13738051D01*
X14237655Y-13738051D02*
X14256702Y-13747575D01*
X14256702Y-13747575D02*
X14266226Y-13757098D01*
X14266226Y-13757098D02*
X14275750Y-13776146D01*
X14275750Y-13776146D02*
X14275750Y-13823765D01*
X14275750Y-13823765D02*
X14266226Y-13842813D01*
X14266226Y-13842813D02*
X14256702Y-13852337D01*
X14256702Y-13852337D02*
X14237655Y-13861860D01*
X14237655Y-13861860D02*
X14180512Y-13861860D01*
X14180512Y-13861860D02*
X14161464Y-13852337D01*
X14161464Y-13852337D02*
X14151941Y-13842813D01*
X14447179Y-13661860D02*
X14409083Y-13661860D01*
X14409083Y-13661860D02*
X14390036Y-13671384D01*
X14390036Y-13671384D02*
X14380512Y-13680908D01*
X14380512Y-13680908D02*
X14361464Y-13709479D01*
X14361464Y-13709479D02*
X14351941Y-13747575D01*
X14351941Y-13747575D02*
X14351941Y-13823765D01*
X14351941Y-13823765D02*
X14361464Y-13842813D01*
X14361464Y-13842813D02*
X14370988Y-13852337D01*
X14370988Y-13852337D02*
X14390036Y-13861860D01*
X14390036Y-13861860D02*
X14428131Y-13861860D01*
X14428131Y-13861860D02*
X14447179Y-13852337D01*
X14447179Y-13852337D02*
X14456702Y-13842813D01*
X14456702Y-13842813D02*
X14466226Y-13823765D01*
X14466226Y-13823765D02*
X14466226Y-13776146D01*
X14466226Y-13776146D02*
X14456702Y-13757098D01*
X14456702Y-13757098D02*
X14447179Y-13747575D01*
X14447179Y-13747575D02*
X14428131Y-13738051D01*
X14428131Y-13738051D02*
X14390036Y-13738051D01*
X14390036Y-13738051D02*
X14370988Y-13747575D01*
X14370988Y-13747575D02*
X14361464Y-13757098D01*
X14361464Y-13757098D02*
X14351941Y-13776146D01*
X14542417Y-13661860D02*
X14542417Y-13699956D01*
X14618607Y-13661860D02*
X14618607Y-13699956D01*
X14913845Y-13938051D02*
X14904322Y-13928527D01*
X14904322Y-13928527D02*
X14885274Y-13899956D01*
X14885274Y-13899956D02*
X14875750Y-13880908D01*
X14875750Y-13880908D02*
X14866226Y-13852337D01*
X14866226Y-13852337D02*
X14856703Y-13804717D01*
X14856703Y-13804717D02*
X14856703Y-13766622D01*
X14856703Y-13766622D02*
X14866226Y-13719003D01*
X14866226Y-13719003D02*
X14875750Y-13690432D01*
X14875750Y-13690432D02*
X14885274Y-13671384D01*
X14885274Y-13671384D02*
X14904322Y-13642813D01*
X14904322Y-13642813D02*
X14913845Y-13633289D01*
X14980512Y-13680908D02*
X14990036Y-13671384D01*
X14990036Y-13671384D02*
X15009083Y-13661860D01*
X15009083Y-13661860D02*
X15056703Y-13661860D01*
X15056703Y-13661860D02*
X15075750Y-13671384D01*
X15075750Y-13671384D02*
X15085274Y-13680908D01*
X15085274Y-13680908D02*
X15094798Y-13699956D01*
X15094798Y-13699956D02*
X15094798Y-13719003D01*
X15094798Y-13719003D02*
X15085274Y-13747575D01*
X15085274Y-13747575D02*
X14970988Y-13861860D01*
X14970988Y-13861860D02*
X15094798Y-13861860D01*
X15332893Y-13861860D02*
X15332893Y-13661860D01*
X15418607Y-13861860D02*
X15418607Y-13757098D01*
X15418607Y-13757098D02*
X15409084Y-13738051D01*
X15409084Y-13738051D02*
X15390036Y-13728527D01*
X15390036Y-13728527D02*
X15361464Y-13728527D01*
X15361464Y-13728527D02*
X15342417Y-13738051D01*
X15342417Y-13738051D02*
X15332893Y-13747575D01*
X15542417Y-13861860D02*
X15523369Y-13852337D01*
X15523369Y-13852337D02*
X15513845Y-13842813D01*
X15513845Y-13842813D02*
X15504322Y-13823765D01*
X15504322Y-13823765D02*
X15504322Y-13766622D01*
X15504322Y-13766622D02*
X15513845Y-13747575D01*
X15513845Y-13747575D02*
X15523369Y-13738051D01*
X15523369Y-13738051D02*
X15542417Y-13728527D01*
X15542417Y-13728527D02*
X15570988Y-13728527D01*
X15570988Y-13728527D02*
X15590036Y-13738051D01*
X15590036Y-13738051D02*
X15599560Y-13747575D01*
X15599560Y-13747575D02*
X15609084Y-13766622D01*
X15609084Y-13766622D02*
X15609084Y-13823765D01*
X15609084Y-13823765D02*
X15599560Y-13842813D01*
X15599560Y-13842813D02*
X15590036Y-13852337D01*
X15590036Y-13852337D02*
X15570988Y-13861860D01*
X15570988Y-13861860D02*
X15542417Y-13861860D01*
X15723369Y-13861860D02*
X15704322Y-13852337D01*
X15704322Y-13852337D02*
X15694798Y-13833289D01*
X15694798Y-13833289D02*
X15694798Y-13661860D01*
X15875750Y-13852337D02*
X15856703Y-13861860D01*
X15856703Y-13861860D02*
X15818607Y-13861860D01*
X15818607Y-13861860D02*
X15799560Y-13852337D01*
X15799560Y-13852337D02*
X15790036Y-13833289D01*
X15790036Y-13833289D02*
X15790036Y-13757098D01*
X15790036Y-13757098D02*
X15799560Y-13738051D01*
X15799560Y-13738051D02*
X15818607Y-13728527D01*
X15818607Y-13728527D02*
X15856703Y-13728527D01*
X15856703Y-13728527D02*
X15875750Y-13738051D01*
X15875750Y-13738051D02*
X15885274Y-13757098D01*
X15885274Y-13757098D02*
X15885274Y-13776146D01*
X15885274Y-13776146D02*
X15790036Y-13795194D01*
X15961465Y-13852337D02*
X15980512Y-13861860D01*
X15980512Y-13861860D02*
X16018607Y-13861860D01*
X16018607Y-13861860D02*
X16037655Y-13852337D01*
X16037655Y-13852337D02*
X16047179Y-13833289D01*
X16047179Y-13833289D02*
X16047179Y-13823765D01*
X16047179Y-13823765D02*
X16037655Y-13804717D01*
X16037655Y-13804717D02*
X16018607Y-13795194D01*
X16018607Y-13795194D02*
X15990036Y-13795194D01*
X15990036Y-13795194D02*
X15970988Y-13785670D01*
X15970988Y-13785670D02*
X15961465Y-13766622D01*
X15961465Y-13766622D02*
X15961465Y-13757098D01*
X15961465Y-13757098D02*
X15970988Y-13738051D01*
X15970988Y-13738051D02*
X15990036Y-13728527D01*
X15990036Y-13728527D02*
X16018607Y-13728527D01*
X16018607Y-13728527D02*
X16037655Y-13738051D01*
X16113846Y-13938051D02*
X16123369Y-13928527D01*
X16123369Y-13928527D02*
X16142417Y-13899956D01*
X16142417Y-13899956D02*
X16151941Y-13880908D01*
X16151941Y-13880908D02*
X16161465Y-13852337D01*
X16161465Y-13852337D02*
X16170988Y-13804717D01*
X16170988Y-13804717D02*
X16170988Y-13766622D01*
X16170988Y-13766622D02*
X16161465Y-13719003D01*
X16161465Y-13719003D02*
X16151941Y-13690432D01*
X16151941Y-13690432D02*
X16142417Y-13671384D01*
X16142417Y-13671384D02*
X16123369Y-13642813D01*
X16123369Y-13642813D02*
X16113846Y-13633289D01*
X16475750Y-13938051D02*
X16466226Y-13928527D01*
X16466226Y-13928527D02*
X16447179Y-13899956D01*
X16447179Y-13899956D02*
X16437655Y-13880908D01*
X16437655Y-13880908D02*
X16428131Y-13852337D01*
X16428131Y-13852337D02*
X16418607Y-13804717D01*
X16418607Y-13804717D02*
X16418607Y-13766622D01*
X16418607Y-13766622D02*
X16428131Y-13719003D01*
X16428131Y-13719003D02*
X16437655Y-13690432D01*
X16437655Y-13690432D02*
X16447179Y-13671384D01*
X16447179Y-13671384D02*
X16466226Y-13642813D01*
X16466226Y-13642813D02*
X16475750Y-13633289D01*
X16551941Y-13728527D02*
X16551941Y-13861860D01*
X16551941Y-13747575D02*
X16561465Y-13738051D01*
X16561465Y-13738051D02*
X16580512Y-13728527D01*
X16580512Y-13728527D02*
X16609084Y-13728527D01*
X16609084Y-13728527D02*
X16628131Y-13738051D01*
X16628131Y-13738051D02*
X16637655Y-13757098D01*
X16637655Y-13757098D02*
X16637655Y-13861860D01*
X16761465Y-13861860D02*
X16742417Y-13852337D01*
X16742417Y-13852337D02*
X16732893Y-13842813D01*
X16732893Y-13842813D02*
X16723369Y-13823765D01*
X16723369Y-13823765D02*
X16723369Y-13766622D01*
X16723369Y-13766622D02*
X16732893Y-13747575D01*
X16732893Y-13747575D02*
X16742417Y-13738051D01*
X16742417Y-13738051D02*
X16761465Y-13728527D01*
X16761465Y-13728527D02*
X16790036Y-13728527D01*
X16790036Y-13728527D02*
X16809084Y-13738051D01*
X16809084Y-13738051D02*
X16818608Y-13747575D01*
X16818608Y-13747575D02*
X16828131Y-13766622D01*
X16828131Y-13766622D02*
X16828131Y-13823765D01*
X16828131Y-13823765D02*
X16818608Y-13842813D01*
X16818608Y-13842813D02*
X16809084Y-13852337D01*
X16809084Y-13852337D02*
X16790036Y-13861860D01*
X16790036Y-13861860D02*
X16761465Y-13861860D01*
X16885274Y-13728527D02*
X16961465Y-13728527D01*
X16913846Y-13661860D02*
X16913846Y-13833289D01*
X16913846Y-13833289D02*
X16923369Y-13852337D01*
X16923369Y-13852337D02*
X16942417Y-13861860D01*
X16942417Y-13861860D02*
X16961465Y-13861860D01*
X17180512Y-13728527D02*
X17180512Y-13928527D01*
X17180512Y-13738051D02*
X17199560Y-13728527D01*
X17199560Y-13728527D02*
X17237655Y-13728527D01*
X17237655Y-13728527D02*
X17256703Y-13738051D01*
X17256703Y-13738051D02*
X17266227Y-13747575D01*
X17266227Y-13747575D02*
X17275750Y-13766622D01*
X17275750Y-13766622D02*
X17275750Y-13823765D01*
X17275750Y-13823765D02*
X17266227Y-13842813D01*
X17266227Y-13842813D02*
X17256703Y-13852337D01*
X17256703Y-13852337D02*
X17237655Y-13861860D01*
X17237655Y-13861860D02*
X17199560Y-13861860D01*
X17199560Y-13861860D02*
X17180512Y-13852337D01*
X17390036Y-13861860D02*
X17370989Y-13852337D01*
X17370989Y-13852337D02*
X17361465Y-13833289D01*
X17361465Y-13833289D02*
X17361465Y-13661860D01*
X17551941Y-13861860D02*
X17551941Y-13757098D01*
X17551941Y-13757098D02*
X17542417Y-13738051D01*
X17542417Y-13738051D02*
X17523370Y-13728527D01*
X17523370Y-13728527D02*
X17485274Y-13728527D01*
X17485274Y-13728527D02*
X17466227Y-13738051D01*
X17551941Y-13852337D02*
X17532893Y-13861860D01*
X17532893Y-13861860D02*
X17485274Y-13861860D01*
X17485274Y-13861860D02*
X17466227Y-13852337D01*
X17466227Y-13852337D02*
X17456703Y-13833289D01*
X17456703Y-13833289D02*
X17456703Y-13814241D01*
X17456703Y-13814241D02*
X17466227Y-13795194D01*
X17466227Y-13795194D02*
X17485274Y-13785670D01*
X17485274Y-13785670D02*
X17532893Y-13785670D01*
X17532893Y-13785670D02*
X17551941Y-13776146D01*
X17618608Y-13728527D02*
X17694798Y-13728527D01*
X17647179Y-13661860D02*
X17647179Y-13833289D01*
X17647179Y-13833289D02*
X17656703Y-13852337D01*
X17656703Y-13852337D02*
X17675750Y-13861860D01*
X17675750Y-13861860D02*
X17694798Y-13861860D01*
X17837655Y-13852337D02*
X17818608Y-13861860D01*
X17818608Y-13861860D02*
X17780512Y-13861860D01*
X17780512Y-13861860D02*
X17761465Y-13852337D01*
X17761465Y-13852337D02*
X17751941Y-13833289D01*
X17751941Y-13833289D02*
X17751941Y-13757098D01*
X17751941Y-13757098D02*
X17761465Y-13738051D01*
X17761465Y-13738051D02*
X17780512Y-13728527D01*
X17780512Y-13728527D02*
X17818608Y-13728527D01*
X17818608Y-13728527D02*
X17837655Y-13738051D01*
X17837655Y-13738051D02*
X17847179Y-13757098D01*
X17847179Y-13757098D02*
X17847179Y-13776146D01*
X17847179Y-13776146D02*
X17751941Y-13795194D01*
X18018608Y-13861860D02*
X18018608Y-13661860D01*
X18018608Y-13852337D02*
X17999560Y-13861860D01*
X17999560Y-13861860D02*
X17961465Y-13861860D01*
X17961465Y-13861860D02*
X17942417Y-13852337D01*
X17942417Y-13852337D02*
X17932893Y-13842813D01*
X17932893Y-13842813D02*
X17923370Y-13823765D01*
X17923370Y-13823765D02*
X17923370Y-13766622D01*
X17923370Y-13766622D02*
X17932893Y-13747575D01*
X17932893Y-13747575D02*
X17942417Y-13738051D01*
X17942417Y-13738051D02*
X17961465Y-13728527D01*
X17961465Y-13728527D02*
X17999560Y-13728527D01*
X17999560Y-13728527D02*
X18018608Y-13738051D01*
X18094798Y-13938051D02*
X18104322Y-13928527D01*
X18104322Y-13928527D02*
X18123370Y-13899956D01*
X18123370Y-13899956D02*
X18132893Y-13880908D01*
X18132893Y-13880908D02*
X18142417Y-13852337D01*
X18142417Y-13852337D02*
X18151941Y-13804717D01*
X18151941Y-13804717D02*
X18151941Y-13766622D01*
X18151941Y-13766622D02*
X18142417Y-13719003D01*
X18142417Y-13719003D02*
X18132893Y-13690432D01*
X18132893Y-13690432D02*
X18123370Y-13671384D01*
X18123370Y-13671384D02*
X18104322Y-13642813D01*
X18104322Y-13642813D02*
X18094798Y-13633289D01*
X11338783Y-14034377D02*
G75*
G02*
X11138783Y-14034377I-100000J0D01*
G01*
X11138783Y-14034377D02*
G75*
G02*
X11338783Y-14034377I100000J0D01*
G01*
X11580512Y-13925860D02*
X11704321Y-13925860D01*
X11704321Y-13925860D02*
X11637655Y-14002051D01*
X11637655Y-14002051D02*
X11666226Y-14002051D01*
X11666226Y-14002051D02*
X11685274Y-14011575D01*
X11685274Y-14011575D02*
X11694797Y-14021098D01*
X11694797Y-14021098D02*
X11704321Y-14040146D01*
X11704321Y-14040146D02*
X11704321Y-14087765D01*
X11704321Y-14087765D02*
X11694797Y-14106813D01*
X11694797Y-14106813D02*
X11685274Y-14116337D01*
X11685274Y-14116337D02*
X11666226Y-14125860D01*
X11666226Y-14125860D02*
X11609083Y-14125860D01*
X11609083Y-14125860D02*
X11590036Y-14116337D01*
X11590036Y-14116337D02*
X11580512Y-14106813D01*
X11790036Y-14106813D02*
X11799559Y-14116337D01*
X11799559Y-14116337D02*
X11790036Y-14125860D01*
X11790036Y-14125860D02*
X11780512Y-14116337D01*
X11780512Y-14116337D02*
X11790036Y-14106813D01*
X11790036Y-14106813D02*
X11790036Y-14125860D01*
X11875750Y-13944908D02*
X11885274Y-13935384D01*
X11885274Y-13935384D02*
X11904321Y-13925860D01*
X11904321Y-13925860D02*
X11951940Y-13925860D01*
X11951940Y-13925860D02*
X11970988Y-13935384D01*
X11970988Y-13935384D02*
X11980512Y-13944908D01*
X11980512Y-13944908D02*
X11990036Y-13963956D01*
X11990036Y-13963956D02*
X11990036Y-13983003D01*
X11990036Y-13983003D02*
X11980512Y-14011575D01*
X11980512Y-14011575D02*
X11866226Y-14125860D01*
X11866226Y-14125860D02*
X11990036Y-14125860D01*
X12113845Y-13925860D02*
X12132893Y-13925860D01*
X12132893Y-13925860D02*
X12151940Y-13935384D01*
X12151940Y-13935384D02*
X12161464Y-13944908D01*
X12161464Y-13944908D02*
X12170988Y-13963956D01*
X12170988Y-13963956D02*
X12180512Y-14002051D01*
X12180512Y-14002051D02*
X12180512Y-14049670D01*
X12180512Y-14049670D02*
X12170988Y-14087765D01*
X12170988Y-14087765D02*
X12161464Y-14106813D01*
X12161464Y-14106813D02*
X12151940Y-14116337D01*
X12151940Y-14116337D02*
X12132893Y-14125860D01*
X12132893Y-14125860D02*
X12113845Y-14125860D01*
X12113845Y-14125860D02*
X12094797Y-14116337D01*
X12094797Y-14116337D02*
X12085274Y-14106813D01*
X12085274Y-14106813D02*
X12075750Y-14087765D01*
X12075750Y-14087765D02*
X12066226Y-14049670D01*
X12066226Y-14049670D02*
X12066226Y-14002051D01*
X12066226Y-14002051D02*
X12075750Y-13963956D01*
X12075750Y-13963956D02*
X12085274Y-13944908D01*
X12085274Y-13944908D02*
X12094797Y-13935384D01*
X12094797Y-13935384D02*
X12113845Y-13925860D01*
X12304321Y-13925860D02*
X12323369Y-13925860D01*
X12323369Y-13925860D02*
X12342417Y-13935384D01*
X12342417Y-13935384D02*
X12351940Y-13944908D01*
X12351940Y-13944908D02*
X12361464Y-13963956D01*
X12361464Y-13963956D02*
X12370988Y-14002051D01*
X12370988Y-14002051D02*
X12370988Y-14049670D01*
X12370988Y-14049670D02*
X12361464Y-14087765D01*
X12361464Y-14087765D02*
X12351940Y-14106813D01*
X12351940Y-14106813D02*
X12342417Y-14116337D01*
X12342417Y-14116337D02*
X12323369Y-14125860D01*
X12323369Y-14125860D02*
X12304321Y-14125860D01*
X12304321Y-14125860D02*
X12285274Y-14116337D01*
X12285274Y-14116337D02*
X12275750Y-14106813D01*
X12275750Y-14106813D02*
X12266226Y-14087765D01*
X12266226Y-14087765D02*
X12256702Y-14049670D01*
X12256702Y-14049670D02*
X12256702Y-14002051D01*
X12256702Y-14002051D02*
X12266226Y-13963956D01*
X12266226Y-13963956D02*
X12275750Y-13944908D01*
X12275750Y-13944908D02*
X12285274Y-13935384D01*
X12285274Y-13935384D02*
X12304321Y-13925860D01*
X12456702Y-14125860D02*
X12456702Y-13992527D01*
X12456702Y-14011575D02*
X12466226Y-14002051D01*
X12466226Y-14002051D02*
X12485274Y-13992527D01*
X12485274Y-13992527D02*
X12513845Y-13992527D01*
X12513845Y-13992527D02*
X12532893Y-14002051D01*
X12532893Y-14002051D02*
X12542417Y-14021098D01*
X12542417Y-14021098D02*
X12542417Y-14125860D01*
X12542417Y-14021098D02*
X12551940Y-14002051D01*
X12551940Y-14002051D02*
X12570988Y-13992527D01*
X12570988Y-13992527D02*
X12599559Y-13992527D01*
X12599559Y-13992527D02*
X12618607Y-14002051D01*
X12618607Y-14002051D02*
X12628131Y-14021098D01*
X12628131Y-14021098D02*
X12628131Y-14125860D01*
X12723369Y-14125860D02*
X12723369Y-13992527D01*
X12723369Y-14011575D02*
X12732893Y-14002051D01*
X12732893Y-14002051D02*
X12751940Y-13992527D01*
X12751940Y-13992527D02*
X12780512Y-13992527D01*
X12780512Y-13992527D02*
X12799559Y-14002051D01*
X12799559Y-14002051D02*
X12809083Y-14021098D01*
X12809083Y-14021098D02*
X12809083Y-14125860D01*
X12809083Y-14021098D02*
X12818607Y-14002051D01*
X12818607Y-14002051D02*
X12837655Y-13992527D01*
X12837655Y-13992527D02*
X12866226Y-13992527D01*
X12866226Y-13992527D02*
X12885274Y-14002051D01*
X12885274Y-14002051D02*
X12894798Y-14021098D01*
X12894798Y-14021098D02*
X12894798Y-14125860D01*
X13285274Y-13916337D02*
X13113845Y-14173479D01*
X13542417Y-13925860D02*
X13561464Y-13925860D01*
X13561464Y-13925860D02*
X13580512Y-13935384D01*
X13580512Y-13935384D02*
X13590036Y-13944908D01*
X13590036Y-13944908D02*
X13599560Y-13963956D01*
X13599560Y-13963956D02*
X13609083Y-14002051D01*
X13609083Y-14002051D02*
X13609083Y-14049670D01*
X13609083Y-14049670D02*
X13599560Y-14087765D01*
X13599560Y-14087765D02*
X13590036Y-14106813D01*
X13590036Y-14106813D02*
X13580512Y-14116337D01*
X13580512Y-14116337D02*
X13561464Y-14125860D01*
X13561464Y-14125860D02*
X13542417Y-14125860D01*
X13542417Y-14125860D02*
X13523369Y-14116337D01*
X13523369Y-14116337D02*
X13513845Y-14106813D01*
X13513845Y-14106813D02*
X13504321Y-14087765D01*
X13504321Y-14087765D02*
X13494798Y-14049670D01*
X13494798Y-14049670D02*
X13494798Y-14002051D01*
X13494798Y-14002051D02*
X13504321Y-13963956D01*
X13504321Y-13963956D02*
X13513845Y-13944908D01*
X13513845Y-13944908D02*
X13523369Y-13935384D01*
X13523369Y-13935384D02*
X13542417Y-13925860D01*
X13694798Y-14106813D02*
X13704321Y-14116337D01*
X13704321Y-14116337D02*
X13694798Y-14125860D01*
X13694798Y-14125860D02*
X13685274Y-14116337D01*
X13685274Y-14116337D02*
X13694798Y-14106813D01*
X13694798Y-14106813D02*
X13694798Y-14125860D01*
X13894798Y-14125860D02*
X13780512Y-14125860D01*
X13837655Y-14125860D02*
X13837655Y-13925860D01*
X13837655Y-13925860D02*
X13818607Y-13954432D01*
X13818607Y-13954432D02*
X13799560Y-13973479D01*
X13799560Y-13973479D02*
X13780512Y-13983003D01*
X13970988Y-13944908D02*
X13980512Y-13935384D01*
X13980512Y-13935384D02*
X13999560Y-13925860D01*
X13999560Y-13925860D02*
X14047179Y-13925860D01*
X14047179Y-13925860D02*
X14066226Y-13935384D01*
X14066226Y-13935384D02*
X14075750Y-13944908D01*
X14075750Y-13944908D02*
X14085274Y-13963956D01*
X14085274Y-13963956D02*
X14085274Y-13983003D01*
X14085274Y-13983003D02*
X14075750Y-14011575D01*
X14075750Y-14011575D02*
X13961464Y-14125860D01*
X13961464Y-14125860D02*
X14085274Y-14125860D01*
X14256702Y-13925860D02*
X14218607Y-13925860D01*
X14218607Y-13925860D02*
X14199560Y-13935384D01*
X14199560Y-13935384D02*
X14190036Y-13944908D01*
X14190036Y-13944908D02*
X14170988Y-13973479D01*
X14170988Y-13973479D02*
X14161464Y-14011575D01*
X14161464Y-14011575D02*
X14161464Y-14087765D01*
X14161464Y-14087765D02*
X14170988Y-14106813D01*
X14170988Y-14106813D02*
X14180512Y-14116337D01*
X14180512Y-14116337D02*
X14199560Y-14125860D01*
X14199560Y-14125860D02*
X14237655Y-14125860D01*
X14237655Y-14125860D02*
X14256702Y-14116337D01*
X14256702Y-14116337D02*
X14266226Y-14106813D01*
X14266226Y-14106813D02*
X14275750Y-14087765D01*
X14275750Y-14087765D02*
X14275750Y-14040146D01*
X14275750Y-14040146D02*
X14266226Y-14021098D01*
X14266226Y-14021098D02*
X14256702Y-14011575D01*
X14256702Y-14011575D02*
X14237655Y-14002051D01*
X14237655Y-14002051D02*
X14199560Y-14002051D01*
X14199560Y-14002051D02*
X14180512Y-14011575D01*
X14180512Y-14011575D02*
X14170988Y-14021098D01*
X14170988Y-14021098D02*
X14161464Y-14040146D01*
X14399560Y-13925860D02*
X14418607Y-13925860D01*
X14418607Y-13925860D02*
X14437655Y-13935384D01*
X14437655Y-13935384D02*
X14447179Y-13944908D01*
X14447179Y-13944908D02*
X14456702Y-13963956D01*
X14456702Y-13963956D02*
X14466226Y-14002051D01*
X14466226Y-14002051D02*
X14466226Y-14049670D01*
X14466226Y-14049670D02*
X14456702Y-14087765D01*
X14456702Y-14087765D02*
X14447179Y-14106813D01*
X14447179Y-14106813D02*
X14437655Y-14116337D01*
X14437655Y-14116337D02*
X14418607Y-14125860D01*
X14418607Y-14125860D02*
X14399560Y-14125860D01*
X14399560Y-14125860D02*
X14380512Y-14116337D01*
X14380512Y-14116337D02*
X14370988Y-14106813D01*
X14370988Y-14106813D02*
X14361464Y-14087765D01*
X14361464Y-14087765D02*
X14351941Y-14049670D01*
X14351941Y-14049670D02*
X14351941Y-14002051D01*
X14351941Y-14002051D02*
X14361464Y-13963956D01*
X14361464Y-13963956D02*
X14370988Y-13944908D01*
X14370988Y-13944908D02*
X14380512Y-13935384D01*
X14380512Y-13935384D02*
X14399560Y-13925860D01*
X14542417Y-13925860D02*
X14542417Y-13963956D01*
X14618607Y-13925860D02*
X14618607Y-13963956D01*
X14913845Y-14202051D02*
X14904322Y-14192527D01*
X14904322Y-14192527D02*
X14885274Y-14163956D01*
X14885274Y-14163956D02*
X14875750Y-14144908D01*
X14875750Y-14144908D02*
X14866226Y-14116337D01*
X14866226Y-14116337D02*
X14856703Y-14068717D01*
X14856703Y-14068717D02*
X14856703Y-14030622D01*
X14856703Y-14030622D02*
X14866226Y-13983003D01*
X14866226Y-13983003D02*
X14875750Y-13954432D01*
X14875750Y-13954432D02*
X14885274Y-13935384D01*
X14885274Y-13935384D02*
X14904322Y-13906813D01*
X14904322Y-13906813D02*
X14913845Y-13897289D01*
X15094798Y-14125860D02*
X14980512Y-14125860D01*
X15037655Y-14125860D02*
X15037655Y-13925860D01*
X15037655Y-13925860D02*
X15018607Y-13954432D01*
X15018607Y-13954432D02*
X14999560Y-13973479D01*
X14999560Y-13973479D02*
X14980512Y-13983003D01*
X15332893Y-14125860D02*
X15332893Y-13925860D01*
X15418607Y-14125860D02*
X15418607Y-14021098D01*
X15418607Y-14021098D02*
X15409084Y-14002051D01*
X15409084Y-14002051D02*
X15390036Y-13992527D01*
X15390036Y-13992527D02*
X15361464Y-13992527D01*
X15361464Y-13992527D02*
X15342417Y-14002051D01*
X15342417Y-14002051D02*
X15332893Y-14011575D01*
X15542417Y-14125860D02*
X15523369Y-14116337D01*
X15523369Y-14116337D02*
X15513845Y-14106813D01*
X15513845Y-14106813D02*
X15504322Y-14087765D01*
X15504322Y-14087765D02*
X15504322Y-14030622D01*
X15504322Y-14030622D02*
X15513845Y-14011575D01*
X15513845Y-14011575D02*
X15523369Y-14002051D01*
X15523369Y-14002051D02*
X15542417Y-13992527D01*
X15542417Y-13992527D02*
X15570988Y-13992527D01*
X15570988Y-13992527D02*
X15590036Y-14002051D01*
X15590036Y-14002051D02*
X15599560Y-14011575D01*
X15599560Y-14011575D02*
X15609084Y-14030622D01*
X15609084Y-14030622D02*
X15609084Y-14087765D01*
X15609084Y-14087765D02*
X15599560Y-14106813D01*
X15599560Y-14106813D02*
X15590036Y-14116337D01*
X15590036Y-14116337D02*
X15570988Y-14125860D01*
X15570988Y-14125860D02*
X15542417Y-14125860D01*
X15723369Y-14125860D02*
X15704322Y-14116337D01*
X15704322Y-14116337D02*
X15694798Y-14097289D01*
X15694798Y-14097289D02*
X15694798Y-13925860D01*
X15875750Y-14116337D02*
X15856703Y-14125860D01*
X15856703Y-14125860D02*
X15818607Y-14125860D01*
X15818607Y-14125860D02*
X15799560Y-14116337D01*
X15799560Y-14116337D02*
X15790036Y-14097289D01*
X15790036Y-14097289D02*
X15790036Y-14021098D01*
X15790036Y-14021098D02*
X15799560Y-14002051D01*
X15799560Y-14002051D02*
X15818607Y-13992527D01*
X15818607Y-13992527D02*
X15856703Y-13992527D01*
X15856703Y-13992527D02*
X15875750Y-14002051D01*
X15875750Y-14002051D02*
X15885274Y-14021098D01*
X15885274Y-14021098D02*
X15885274Y-14040146D01*
X15885274Y-14040146D02*
X15790036Y-14059194D01*
X15951941Y-14202051D02*
X15961465Y-14192527D01*
X15961465Y-14192527D02*
X15980512Y-14163956D01*
X15980512Y-14163956D02*
X15990036Y-14144908D01*
X15990036Y-14144908D02*
X15999560Y-14116337D01*
X15999560Y-14116337D02*
X16009084Y-14068717D01*
X16009084Y-14068717D02*
X16009084Y-14030622D01*
X16009084Y-14030622D02*
X15999560Y-13983003D01*
X15999560Y-13983003D02*
X15990036Y-13954432D01*
X15990036Y-13954432D02*
X15980512Y-13935384D01*
X15980512Y-13935384D02*
X15961465Y-13906813D01*
X15961465Y-13906813D02*
X15951941Y-13897289D01*
X16313846Y-14202051D02*
X16304322Y-14192527D01*
X16304322Y-14192527D02*
X16285274Y-14163956D01*
X16285274Y-14163956D02*
X16275750Y-14144908D01*
X16275750Y-14144908D02*
X16266226Y-14116337D01*
X16266226Y-14116337D02*
X16256703Y-14068717D01*
X16256703Y-14068717D02*
X16256703Y-14030622D01*
X16256703Y-14030622D02*
X16266226Y-13983003D01*
X16266226Y-13983003D02*
X16275750Y-13954432D01*
X16275750Y-13954432D02*
X16285274Y-13935384D01*
X16285274Y-13935384D02*
X16304322Y-13906813D01*
X16304322Y-13906813D02*
X16313846Y-13897289D01*
X16390036Y-13992527D02*
X16390036Y-14125860D01*
X16390036Y-14011575D02*
X16399560Y-14002051D01*
X16399560Y-14002051D02*
X16418607Y-13992527D01*
X16418607Y-13992527D02*
X16447179Y-13992527D01*
X16447179Y-13992527D02*
X16466226Y-14002051D01*
X16466226Y-14002051D02*
X16475750Y-14021098D01*
X16475750Y-14021098D02*
X16475750Y-14125860D01*
X16599560Y-14125860D02*
X16580512Y-14116337D01*
X16580512Y-14116337D02*
X16570988Y-14106813D01*
X16570988Y-14106813D02*
X16561465Y-14087765D01*
X16561465Y-14087765D02*
X16561465Y-14030622D01*
X16561465Y-14030622D02*
X16570988Y-14011575D01*
X16570988Y-14011575D02*
X16580512Y-14002051D01*
X16580512Y-14002051D02*
X16599560Y-13992527D01*
X16599560Y-13992527D02*
X16628131Y-13992527D01*
X16628131Y-13992527D02*
X16647179Y-14002051D01*
X16647179Y-14002051D02*
X16656703Y-14011575D01*
X16656703Y-14011575D02*
X16666226Y-14030622D01*
X16666226Y-14030622D02*
X16666226Y-14087765D01*
X16666226Y-14087765D02*
X16656703Y-14106813D01*
X16656703Y-14106813D02*
X16647179Y-14116337D01*
X16647179Y-14116337D02*
X16628131Y-14125860D01*
X16628131Y-14125860D02*
X16599560Y-14125860D01*
X16723369Y-13992527D02*
X16799560Y-13992527D01*
X16751941Y-13925860D02*
X16751941Y-14097289D01*
X16751941Y-14097289D02*
X16761465Y-14116337D01*
X16761465Y-14116337D02*
X16780512Y-14125860D01*
X16780512Y-14125860D02*
X16799560Y-14125860D01*
X17018608Y-13992527D02*
X17018608Y-14192527D01*
X17018608Y-14002051D02*
X17037655Y-13992527D01*
X17037655Y-13992527D02*
X17075750Y-13992527D01*
X17075750Y-13992527D02*
X17094798Y-14002051D01*
X17094798Y-14002051D02*
X17104322Y-14011575D01*
X17104322Y-14011575D02*
X17113846Y-14030622D01*
X17113846Y-14030622D02*
X17113846Y-14087765D01*
X17113846Y-14087765D02*
X17104322Y-14106813D01*
X17104322Y-14106813D02*
X17094798Y-14116337D01*
X17094798Y-14116337D02*
X17075750Y-14125860D01*
X17075750Y-14125860D02*
X17037655Y-14125860D01*
X17037655Y-14125860D02*
X17018608Y-14116337D01*
X17228131Y-14125860D02*
X17209084Y-14116337D01*
X17209084Y-14116337D02*
X17199560Y-14097289D01*
X17199560Y-14097289D02*
X17199560Y-13925860D01*
X17390036Y-14125860D02*
X17390036Y-14021098D01*
X17390036Y-14021098D02*
X17380512Y-14002051D01*
X17380512Y-14002051D02*
X17361465Y-13992527D01*
X17361465Y-13992527D02*
X17323369Y-13992527D01*
X17323369Y-13992527D02*
X17304322Y-14002051D01*
X17390036Y-14116337D02*
X17370989Y-14125860D01*
X17370989Y-14125860D02*
X17323369Y-14125860D01*
X17323369Y-14125860D02*
X17304322Y-14116337D01*
X17304322Y-14116337D02*
X17294798Y-14097289D01*
X17294798Y-14097289D02*
X17294798Y-14078241D01*
X17294798Y-14078241D02*
X17304322Y-14059194D01*
X17304322Y-14059194D02*
X17323369Y-14049670D01*
X17323369Y-14049670D02*
X17370989Y-14049670D01*
X17370989Y-14049670D02*
X17390036Y-14040146D01*
X17456703Y-13992527D02*
X17532893Y-13992527D01*
X17485274Y-13925860D02*
X17485274Y-14097289D01*
X17485274Y-14097289D02*
X17494798Y-14116337D01*
X17494798Y-14116337D02*
X17513846Y-14125860D01*
X17513846Y-14125860D02*
X17532893Y-14125860D01*
X17675750Y-14116337D02*
X17656703Y-14125860D01*
X17656703Y-14125860D02*
X17618608Y-14125860D01*
X17618608Y-14125860D02*
X17599560Y-14116337D01*
X17599560Y-14116337D02*
X17590036Y-14097289D01*
X17590036Y-14097289D02*
X17590036Y-14021098D01*
X17590036Y-14021098D02*
X17599560Y-14002051D01*
X17599560Y-14002051D02*
X17618608Y-13992527D01*
X17618608Y-13992527D02*
X17656703Y-13992527D01*
X17656703Y-13992527D02*
X17675750Y-14002051D01*
X17675750Y-14002051D02*
X17685274Y-14021098D01*
X17685274Y-14021098D02*
X17685274Y-14040146D01*
X17685274Y-14040146D02*
X17590036Y-14059194D01*
X17856703Y-14125860D02*
X17856703Y-13925860D01*
X17856703Y-14116337D02*
X17837655Y-14125860D01*
X17837655Y-14125860D02*
X17799560Y-14125860D01*
X17799560Y-14125860D02*
X17780512Y-14116337D01*
X17780512Y-14116337D02*
X17770989Y-14106813D01*
X17770989Y-14106813D02*
X17761465Y-14087765D01*
X17761465Y-14087765D02*
X17761465Y-14030622D01*
X17761465Y-14030622D02*
X17770989Y-14011575D01*
X17770989Y-14011575D02*
X17780512Y-14002051D01*
X17780512Y-14002051D02*
X17799560Y-13992527D01*
X17799560Y-13992527D02*
X17837655Y-13992527D01*
X17837655Y-13992527D02*
X17856703Y-14002051D01*
X17932893Y-14202051D02*
X17942417Y-14192527D01*
X17942417Y-14192527D02*
X17961465Y-14163956D01*
X17961465Y-14163956D02*
X17970989Y-14144908D01*
X17970989Y-14144908D02*
X17980512Y-14116337D01*
X17980512Y-14116337D02*
X17990036Y-14068717D01*
X17990036Y-14068717D02*
X17990036Y-14030622D01*
X17990036Y-14030622D02*
X17980512Y-13983003D01*
X17980512Y-13983003D02*
X17970989Y-13954432D01*
X17970989Y-13954432D02*
X17961465Y-13935384D01*
X17961465Y-13935384D02*
X17942417Y-13906813D01*
X17942417Y-13906813D02*
X17932893Y-13897289D01*
M02*
