%TF.GenerationSoftware,KiCad,Pcbnew,8.0.0*%
%TF.CreationDate,2024-03-25T03:31:52+00:00*%
%TF.ProjectId,main_PCB_v2,6d61696e-5f50-4434-925f-76322e6b6963,rev?*%
%TF.SameCoordinates,Original*%
%TF.FileFunction,Copper,L2,Inr*%
%TF.FilePolarity,Positive*%
%FSLAX46Y46*%
G04 Gerber Fmt 4.6, Leading zero omitted, Abs format (unit mm)*
G04 Created by KiCad (PCBNEW 8.0.0) date 2024-03-25 03:31:52*
%MOMM*%
%LPD*%
G01*
G04 APERTURE LIST*
G04 Aperture macros list*
%AMHorizOval*
0 Thick line with rounded ends*
0 $1 width*
0 $2 $3 position (X,Y) of the first rounded end (center of the circle)*
0 $4 $5 position (X,Y) of the second rounded end (center of the circle)*
0 Add line between two ends*
20,1,$1,$2,$3,$4,$5,0*
0 Add two circle primitives to create the rounded ends*
1,1,$1,$2,$3*
1,1,$1,$4,$5*%
%AMRotRect*
0 Rectangle, with rotation*
0 The origin of the aperture is its center*
0 $1 length*
0 $2 width*
0 $3 Rotation angle, in degrees counterclockwise*
0 Add horizontal line*
21,1,$1,$2,0,0,$3*%
G04 Aperture macros list end*
%TA.AperFunction,ComponentPad*%
%ADD10HorizOval,0.900000X-0.142350X0.531259X0.142350X-0.531259X0*%
%TD*%
%TA.AperFunction,ComponentPad*%
%ADD11HorizOval,0.900000X-0.103528X0.386370X0.103528X-0.386370X0*%
%TD*%
%TA.AperFunction,ComponentPad*%
%ADD12R,1.700000X1.700000*%
%TD*%
%TA.AperFunction,ComponentPad*%
%ADD13O,1.700000X1.700000*%
%TD*%
%TA.AperFunction,ComponentPad*%
%ADD14RotRect,1.000000X1.000000X135.000000*%
%TD*%
%TA.AperFunction,ComponentPad*%
%ADD15HorizOval,1.000000X0.000000X0.000000X0.000000X0.000000X0*%
%TD*%
%TA.AperFunction,ViaPad*%
%ADD16C,0.450000*%
%TD*%
G04 APERTURE END LIST*
D10*
%TO.N,GND*%
%TO.C,J108*%
X139743095Y-123491482D03*
X148098354Y-121252697D03*
D11*
X140822371Y-127519392D03*
X149177629Y-125280608D03*
%TD*%
D12*
%TO.N,/NRF24_IRQ*%
%TO.C,J112*%
X140000001Y-82540001D03*
D13*
%TO.N,/SPI3_MISO*%
X140000001Y-80000001D03*
%TO.N,/SPI3_MOSI*%
X142540001Y-82540001D03*
%TO.N,/SPI3_SCK*%
X142540001Y-80000001D03*
%TO.N,/SPI3_CS*%
X145080001Y-82540001D03*
%TO.N,/NRF24_CE*%
X145080001Y-80000001D03*
%TO.N,+3.3V*%
X147620001Y-82540001D03*
%TO.N,GND*%
X147620001Y-80000002D03*
%TO.N,/NRF24_MODE*%
X150160000Y-82540001D03*
%TO.N,/UART8_TX*%
X150160001Y-80000001D03*
%TO.N,/GPIO1*%
X152700001Y-82540001D03*
%TO.N,/UART8_RX*%
X152700001Y-80000001D03*
%TO.N,GND*%
X155240001Y-82540001D03*
X155240001Y-80000001D03*
%TO.N,/I2C4_SCL*%
X157780001Y-82540001D03*
%TO.N,/GPIO2*%
X157780001Y-80000001D03*
%TO.N,/I2C4_SDA*%
X160320001Y-82540001D03*
%TO.N,/GPIO3*%
X160320001Y-80000001D03*
%TO.N,GND*%
X162860001Y-82540001D03*
X162860001Y-80000001D03*
%TO.N,/MOTOR_PH*%
X165400001Y-82540001D03*
%TO.N,/CAN2_H*%
X165400001Y-80000001D03*
%TO.N,/MOTOR_EN*%
X167940001Y-82540001D03*
%TO.N,/CAN2_L*%
X167940001Y-80000001D03*
%TO.N,GND*%
X170480001Y-82540001D03*
X170480001Y-80000001D03*
%TO.N,/ENC_A*%
X173020001Y-82540001D03*
%TO.N,/~{SLEEP}*%
X173020001Y-80000001D03*
%TO.N,/ENC_B*%
X175560001Y-82540001D03*
%TO.N,/TRIG*%
X175560001Y-80000001D03*
%TO.N,GND*%
X178100001Y-82540001D03*
X178100001Y-80000001D03*
%TO.N,+3.3V*%
X180640001Y-82540001D03*
X180640001Y-80000001D03*
%TO.N,+12V*%
X183180001Y-82540001D03*
%TO.N,+5V*%
X183180001Y-80000001D03*
%TO.N,GND*%
X185720001Y-82540001D03*
X185720001Y-80000001D03*
%TO.N,/ISYS_ADC*%
X188260001Y-82540001D03*
%TO.N,VSYS*%
X188260001Y-80000001D03*
%TD*%
D14*
%TO.N,unconnected-(J110-NC-Pad1)*%
%TO.C,J110*%
X154137258Y-119946625D03*
D15*
%TO.N,unconnected-(J110-NC-Pad2)*%
X153239232Y-119048599D03*
%TO.N,+3.3V*%
X155035284Y-119048599D03*
%TO.N,/SWDIO*%
X154137258Y-118150574D03*
%TO.N,GND*%
X155933309Y-118150574D03*
%TO.N,/SWCLK*%
X155035284Y-117252548D03*
%TO.N,GND*%
X156831335Y-117252548D03*
%TO.N,unconnected-(J110-JTDO{slash}SWO-Pad8)*%
X155933309Y-116354523D03*
%TO.N,unconnected-(J110-JRCLK{slash}NC-Pad9)*%
X157729360Y-116354523D03*
%TO.N,unconnected-(J110-JTDI{slash}NC-Pad10)*%
X156831335Y-115456497D03*
%TO.N,GND*%
X158627386Y-115456497D03*
%TO.N,/NRST*%
X157729360Y-114558471D03*
%TO.N,/USART1_RX*%
X159525412Y-114558471D03*
%TO.N,/USART1_TX*%
X158627386Y-113660446D03*
%TD*%
D16*
%TO.N,GND*%
X135900000Y-100617355D03*
X149700000Y-94500000D03*
X151400000Y-115500001D03*
X132200000Y-122600001D03*
X165608040Y-112508220D03*
X159100000Y-96700000D03*
X137100001Y-96300001D03*
X159500001Y-99900000D03*
X145500000Y-97100000D03*
X144400000Y-111500000D03*
X169100000Y-109000000D03*
X147102430Y-119504605D03*
X140300000Y-90400000D03*
X157600000Y-87600000D03*
X146317375Y-119013969D03*
X132800000Y-117300000D03*
X188200000Y-89900001D03*
X184700000Y-93400000D03*
X123700000Y-115000000D03*
X128600000Y-101500000D03*
X140131800Y-120676732D03*
X129100000Y-98700000D03*
X142300001Y-88500000D03*
X122300000Y-117900001D03*
X126300000Y-126800001D03*
X178600000Y-90800000D03*
X145600001Y-99900001D03*
X179200000Y-85900000D03*
X117900000Y-122000001D03*
X128300000Y-98700000D03*
X138500001Y-94900000D03*
X137800001Y-88900000D03*
X155349927Y-100283884D03*
X135300001Y-93500000D03*
X125200000Y-117900000D03*
X173400000Y-87600000D03*
X160200000Y-94900000D03*
X181800000Y-96300000D03*
X147783884Y-90950075D03*
X164000000Y-89800000D03*
X172000000Y-106200000D03*
X122200000Y-115300001D03*
X143399822Y-93566370D03*
X139666467Y-121503729D03*
X145300001Y-115500001D03*
X175400000Y-102700000D03*
X178300000Y-99800001D03*
%TO.N,+5V*%
X161300000Y-85100000D03*
X173400000Y-88800000D03*
%TO.N,+3.3V*%
X130000000Y-98700000D03*
X145400000Y-111100000D03*
X132200000Y-90900000D03*
X127500000Y-98700000D03*
X134700000Y-86300001D03*
X133200000Y-122600001D03*
X147253554Y-90419745D03*
X153200001Y-106000000D03*
X132500000Y-116100000D03*
X151100001Y-108100000D03*
X132300000Y-95000001D03*
X139700000Y-91100000D03*
X146900000Y-115500000D03*
X135200000Y-117700000D03*
X177600000Y-90800000D03*
X160600001Y-90100000D03*
X141600000Y-89100000D03*
X123300000Y-117900001D03*
X124200000Y-117900001D03*
X135900001Y-101500000D03*
X155915613Y-99718198D03*
X142834136Y-94132054D03*
%TO.N,/NRST*%
X122300000Y-120600000D03*
X148400000Y-112600000D03*
X147400000Y-111600000D03*
X139400000Y-93500000D03*
%TO.N,VBUS*%
X140900000Y-115500000D03*
X142267402Y-123483144D03*
%TO.N,VSYS*%
X153600000Y-123500000D03*
%TO.N,/CAN2_RX*%
X155200000Y-90100000D03*
X148900001Y-94300000D03*
%TO.N,/CAN2_TX*%
X155200001Y-86300000D03*
X149900000Y-95300001D03*
%TO.N,/USB_DP*%
X154400000Y-100900000D03*
X140900000Y-116400000D03*
%TO.N,/USB_DN*%
X143100000Y-114550000D03*
X153800000Y-101500000D03*
%TO.N,/SWDIO*%
X156800000Y-103100000D03*
%TO.N,/USART1_RX*%
X145300001Y-116500001D03*
%TO.N,/SWCLK*%
X149200001Y-114650000D03*
X155800000Y-99000001D03*
%TO.N,/MOTOR_EN*%
X167940000Y-91000000D03*
X160400000Y-106400000D03*
X160400000Y-104200000D03*
X166100000Y-94000001D03*
%TO.N,/MOTOR_PH*%
X165400000Y-94000000D03*
X159400000Y-106400000D03*
X165400000Y-88000000D03*
X159400000Y-104200000D03*
%TO.N,/EEPROM_WC*%
X144700001Y-106549750D03*
X138500000Y-115300000D03*
%TO.N,/SPI3_CS*%
X146500001Y-88000000D03*
%TO.N,/SPI4_CS*%
X124800000Y-113400000D03*
X124900000Y-111300001D03*
%TO.N,/MAG_DRDY*%
X125600001Y-115200000D03*
X139900000Y-107100000D03*
%TO.N,/MAG_INT*%
X143014215Y-104700000D03*
X125600001Y-116100000D03*
%TO.N,/SPI4_MISO*%
X136200000Y-113400000D03*
X138000000Y-112100000D03*
%TO.N,/NRF24_MODE*%
X146500000Y-86700001D03*
%TO.N,/NRF24_CE*%
X144100001Y-87000000D03*
%TO.N,/I2C2_SDA*%
X136563963Y-116100000D03*
X133500000Y-116100000D03*
%TO.N,/SPI1_CS*%
X131281981Y-101800001D03*
X127981981Y-104200001D03*
%TO.N,/SPI1_SCK*%
X128981981Y-104200001D03*
X130781982Y-102400001D03*
%TO.N,/VSYS_ADC*%
X145600000Y-98000000D03*
X180900000Y-85100001D03*
%TO.N,/ISYS_ADC*%
X181000000Y-86900000D03*
X145700000Y-99000000D03*
%TO.N,/BTN*%
X137400000Y-118700000D03*
X142300000Y-104000001D03*
%TO.N,/UART8_RX*%
X150800000Y-90000001D03*
%TO.N,/UART8_TX*%
X150100001Y-85900001D03*
X150100000Y-89300000D03*
%TO.N,/I2C4_SCL*%
X149300001Y-97800001D03*
%TO.N,/I2C4_SDA*%
X149550000Y-98650000D03*
%TO.N,/GPIO3*%
X160000000Y-85100001D03*
X152150000Y-98450000D03*
%TO.N,/GPIO2*%
X150650000Y-98750000D03*
X159100000Y-85100000D03*
%TD*%
%TA.AperFunction,Conductor*%
%TO.N,GND*%
G36*
X155490001Y-82106989D02*
G01*
X155432994Y-82074076D01*
X155305827Y-82040001D01*
X155174175Y-82040001D01*
X155047008Y-82074076D01*
X154990001Y-82106989D01*
X154990001Y-80433013D01*
X155047008Y-80465926D01*
X155174175Y-80500001D01*
X155305827Y-80500001D01*
X155432994Y-80465926D01*
X155490001Y-80433013D01*
X155490001Y-82106989D01*
G37*
%TD.AperFunction*%
%TA.AperFunction,Conductor*%
G36*
X163110001Y-82106989D02*
G01*
X163052994Y-82074076D01*
X162925827Y-82040001D01*
X162794175Y-82040001D01*
X162667008Y-82074076D01*
X162610001Y-82106989D01*
X162610001Y-80433013D01*
X162667008Y-80465926D01*
X162794175Y-80500001D01*
X162925827Y-80500001D01*
X163052994Y-80465926D01*
X163110001Y-80433013D01*
X163110001Y-82106989D01*
G37*
%TD.AperFunction*%
%TA.AperFunction,Conductor*%
G36*
X170730001Y-82106989D02*
G01*
X170672994Y-82074076D01*
X170545827Y-82040001D01*
X170414175Y-82040001D01*
X170287008Y-82074076D01*
X170230001Y-82106989D01*
X170230001Y-80433013D01*
X170287008Y-80465926D01*
X170414175Y-80500001D01*
X170545827Y-80500001D01*
X170672994Y-80465926D01*
X170730001Y-80433013D01*
X170730001Y-82106989D01*
G37*
%TD.AperFunction*%
%TA.AperFunction,Conductor*%
G36*
X178350001Y-82106989D02*
G01*
X178292994Y-82074076D01*
X178165827Y-82040001D01*
X178034175Y-82040001D01*
X177907008Y-82074076D01*
X177850001Y-82106989D01*
X177850001Y-80433013D01*
X177907008Y-80465926D01*
X178034175Y-80500001D01*
X178165827Y-80500001D01*
X178292994Y-80465926D01*
X178350001Y-80433013D01*
X178350001Y-82106989D01*
G37*
%TD.AperFunction*%
%TA.AperFunction,Conductor*%
G36*
X185970001Y-82106989D02*
G01*
X185912994Y-82074076D01*
X185785827Y-82040001D01*
X185654175Y-82040001D01*
X185527008Y-82074076D01*
X185470001Y-82106989D01*
X185470001Y-80433013D01*
X185527008Y-80465926D01*
X185654175Y-80500001D01*
X185785827Y-80500001D01*
X185912994Y-80465926D01*
X185970001Y-80433013D01*
X185970001Y-82106989D01*
G37*
%TD.AperFunction*%
%TA.AperFunction,Conductor*%
G36*
X188785876Y-76474955D02*
G01*
X188947898Y-76477121D01*
X188960153Y-76477895D01*
X189282938Y-76514408D01*
X189296689Y-76516754D01*
X189612516Y-76589127D01*
X189625896Y-76592997D01*
X189931597Y-76700408D01*
X189944474Y-76705764D01*
X190236151Y-76846844D01*
X190248354Y-76853619D01*
X190522322Y-77026581D01*
X190533686Y-77034685D01*
X190786482Y-77237343D01*
X190796864Y-77246673D01*
X191025282Y-77476457D01*
X191034550Y-77486894D01*
X191235697Y-77740893D01*
X191243724Y-77752292D01*
X191415056Y-78027295D01*
X191421758Y-78039539D01*
X191561095Y-78332048D01*
X191566379Y-78344967D01*
X191671960Y-78651285D01*
X191675758Y-78664716D01*
X191746243Y-78980951D01*
X191748508Y-78994724D01*
X191783097Y-79317727D01*
X191783798Y-79329973D01*
X191785051Y-79492312D01*
X191785055Y-79493269D01*
X191785055Y-86791918D01*
X191785043Y-86793655D01*
X191782788Y-86954644D01*
X191782024Y-86966755D01*
X191745974Y-87287537D01*
X191743657Y-87301212D01*
X191672199Y-87615122D01*
X191668369Y-87628453D01*
X191562300Y-87932421D01*
X191557005Y-87945240D01*
X191417657Y-88235452D01*
X191410963Y-88247600D01*
X191240067Y-88520449D01*
X191232059Y-88531773D01*
X191031238Y-88784488D01*
X191023224Y-88793617D01*
X190911292Y-88909171D01*
X190909907Y-88910578D01*
X154805516Y-125014970D01*
X154804082Y-125016382D01*
X154665192Y-125150835D01*
X154654094Y-125160376D01*
X154345889Y-125395196D01*
X154332003Y-125404371D01*
X153995131Y-125595799D01*
X153982000Y-125602267D01*
X153804105Y-125677194D01*
X153801924Y-125678089D01*
X152994444Y-126000258D01*
X152992182Y-126001135D01*
X151362981Y-126614480D01*
X151360375Y-126615428D01*
X149718006Y-127192136D01*
X149715379Y-127193025D01*
X148060590Y-127732839D01*
X148057944Y-127733670D01*
X146391429Y-128236363D01*
X146388765Y-128237134D01*
X144711446Y-128702428D01*
X144708766Y-128703139D01*
X143021464Y-129130806D01*
X143018768Y-129131457D01*
X141322353Y-129521277D01*
X141319644Y-129521868D01*
X139614893Y-129873663D01*
X139612171Y-129874193D01*
X137899990Y-130187774D01*
X137897256Y-130188243D01*
X136178512Y-130463453D01*
X136175769Y-130463861D01*
X134451261Y-130700571D01*
X134448510Y-130700917D01*
X132719186Y-130898998D01*
X132716427Y-130899283D01*
X130982921Y-131058658D01*
X130980501Y-131058857D01*
X130715236Y-131078013D01*
X130113273Y-131121486D01*
X130111219Y-131121617D01*
X129945793Y-131130778D01*
X129933237Y-131130837D01*
X129601075Y-131115553D01*
X129586865Y-131114075D01*
X129259537Y-131060827D01*
X129245591Y-131057725D01*
X128926543Y-130967174D01*
X128913046Y-130962487D01*
X128605736Y-130835508D01*
X128594406Y-130830141D01*
X128533231Y-130797276D01*
X128448263Y-130751630D01*
X128446797Y-130750829D01*
X121878529Y-127101791D01*
X139764756Y-127101791D01*
X139776996Y-127288514D01*
X139776996Y-127288519D01*
X139840036Y-127523787D01*
X140467887Y-127355554D01*
X140597298Y-127838518D01*
X139969446Y-128006750D01*
X140032488Y-128242023D01*
X140115253Y-128409853D01*
X140115256Y-128409858D01*
X140229175Y-128558319D01*
X140229176Y-128558320D01*
X140369865Y-128681701D01*
X140531929Y-128775269D01*
X140531935Y-128775271D01*
X140709128Y-128835420D01*
X140709141Y-128835423D01*
X140894669Y-128859847D01*
X140922240Y-128858040D01*
X140727634Y-128131762D01*
X140741695Y-128145823D01*
X140810103Y-128185318D01*
X140886404Y-128205763D01*
X140965395Y-128205762D01*
X141041695Y-128185318D01*
X141110104Y-128145822D01*
X141165960Y-128089967D01*
X141205455Y-128021558D01*
X141210599Y-128002357D01*
X141405203Y-128728629D01*
X141429992Y-128716406D01*
X141429993Y-128716406D01*
X141578450Y-128602490D01*
X141578457Y-128602483D01*
X141701838Y-128461795D01*
X141795406Y-128299732D01*
X141795408Y-128299726D01*
X141855557Y-128122533D01*
X141855560Y-128122520D01*
X141879985Y-127936992D01*
X141867745Y-127750267D01*
X141804704Y-127514995D01*
X141176853Y-127683227D01*
X141047442Y-127200263D01*
X141675294Y-127032032D01*
X141612254Y-126796762D01*
X141612253Y-126796760D01*
X141529488Y-126628930D01*
X141529485Y-126628925D01*
X141415566Y-126480464D01*
X141415565Y-126480463D01*
X141274876Y-126357082D01*
X141112812Y-126263514D01*
X141112806Y-126263512D01*
X140935613Y-126203363D01*
X140935600Y-126203360D01*
X140750077Y-126178936D01*
X140722500Y-126180743D01*
X140917105Y-126907019D01*
X140903047Y-126892961D01*
X140834639Y-126853466D01*
X140758339Y-126833021D01*
X140679347Y-126833022D01*
X140603047Y-126853467D01*
X140534638Y-126892962D01*
X140478782Y-126948818D01*
X140439287Y-127017226D01*
X140434141Y-127036429D01*
X140239537Y-126310152D01*
X140214750Y-126322376D01*
X140214744Y-126322381D01*
X140066285Y-126436298D01*
X140066284Y-126436299D01*
X139942903Y-126576988D01*
X139849335Y-126739052D01*
X139849333Y-126739058D01*
X139789184Y-126916251D01*
X139789181Y-126916264D01*
X139764756Y-127101791D01*
X121878529Y-127101791D01*
X115106633Y-123339626D01*
X115105128Y-123338776D01*
X114965137Y-123258406D01*
X114954897Y-123251839D01*
X114691373Y-123063983D01*
X114680520Y-123055289D01*
X114440335Y-122839690D01*
X114430524Y-122829836D01*
X114226043Y-122600003D01*
X132804632Y-122600003D01*
X132823981Y-122722173D01*
X132823983Y-122722176D01*
X132880141Y-122832392D01*
X132880143Y-122832394D01*
X132880145Y-122832397D01*
X132967603Y-122919855D01*
X132967605Y-122919856D01*
X132967609Y-122919860D01*
X133077825Y-122976018D01*
X133077827Y-122976019D01*
X133199998Y-122995369D01*
X133200000Y-122995369D01*
X133200002Y-122995369D01*
X133322172Y-122976019D01*
X133322173Y-122976018D01*
X133322175Y-122976018D01*
X133414478Y-122928987D01*
X138646659Y-122928987D01*
X138658898Y-123115721D01*
X138760760Y-123495877D01*
X139388612Y-123327644D01*
X139518021Y-123810608D01*
X138890169Y-123978841D01*
X138992033Y-124359000D01*
X139074798Y-124526830D01*
X139074801Y-124526835D01*
X139188715Y-124675290D01*
X139188722Y-124675297D01*
X139329415Y-124798682D01*
X139491469Y-124892245D01*
X139491479Y-124892249D01*
X139668672Y-124952398D01*
X139668685Y-124952401D01*
X139854213Y-124976825D01*
X139881787Y-124975018D01*
X139851774Y-124863007D01*
X148120014Y-124863007D01*
X148132254Y-125049730D01*
X148132254Y-125049735D01*
X148195294Y-125285003D01*
X148823145Y-125116770D01*
X148952556Y-125599734D01*
X148324704Y-125767966D01*
X148387746Y-126003239D01*
X148470511Y-126171069D01*
X148470514Y-126171074D01*
X148584433Y-126319535D01*
X148584434Y-126319536D01*
X148725123Y-126442917D01*
X148887187Y-126536485D01*
X148887193Y-126536487D01*
X149064386Y-126596636D01*
X149064399Y-126596639D01*
X149249927Y-126621063D01*
X149277498Y-126619256D01*
X149082892Y-125892978D01*
X149096953Y-125907039D01*
X149165361Y-125946534D01*
X149241662Y-125966979D01*
X149320653Y-125966978D01*
X149396953Y-125946534D01*
X149465362Y-125907038D01*
X149521218Y-125851183D01*
X149560713Y-125782774D01*
X149565857Y-125763573D01*
X149760461Y-126489845D01*
X149785250Y-126477622D01*
X149785251Y-126477622D01*
X149933708Y-126363706D01*
X149933715Y-126363699D01*
X150057096Y-126223011D01*
X150150664Y-126060948D01*
X150150666Y-126060942D01*
X150210815Y-125883749D01*
X150210818Y-125883736D01*
X150235243Y-125698208D01*
X150223003Y-125511483D01*
X150159962Y-125276211D01*
X149532111Y-125444443D01*
X149402700Y-124961479D01*
X150030552Y-124793248D01*
X149967512Y-124557978D01*
X149967511Y-124557976D01*
X149884746Y-124390146D01*
X149884743Y-124390141D01*
X149770824Y-124241680D01*
X149770823Y-124241679D01*
X149630134Y-124118298D01*
X149468070Y-124024730D01*
X149468064Y-124024728D01*
X149290871Y-123964579D01*
X149290858Y-123964576D01*
X149105335Y-123940152D01*
X149077758Y-123941959D01*
X149272363Y-124668235D01*
X149258305Y-124654177D01*
X149189897Y-124614682D01*
X149113597Y-124594237D01*
X149034605Y-124594238D01*
X148958305Y-124614683D01*
X148889896Y-124654178D01*
X148834040Y-124710034D01*
X148794545Y-124778442D01*
X148789399Y-124797645D01*
X148594795Y-124071368D01*
X148570008Y-124083592D01*
X148570002Y-124083597D01*
X148421543Y-124197514D01*
X148421542Y-124197515D01*
X148298161Y-124338204D01*
X148204593Y-124500268D01*
X148204591Y-124500274D01*
X148144442Y-124677467D01*
X148144439Y-124677480D01*
X148120014Y-124863007D01*
X139851774Y-124863007D01*
X139687182Y-124248742D01*
X139701240Y-124262801D01*
X139769648Y-124302296D01*
X139845949Y-124322741D01*
X139924940Y-124322741D01*
X140001241Y-124302296D01*
X140069649Y-124262801D01*
X140125505Y-124206945D01*
X140165001Y-124138537D01*
X140170146Y-124119333D01*
X140364751Y-124845607D01*
X140389538Y-124833384D01*
X140537999Y-124719467D01*
X140661382Y-124578775D01*
X140661386Y-124578769D01*
X140754949Y-124416715D01*
X140754953Y-124416705D01*
X140815102Y-124239513D01*
X140815105Y-124239500D01*
X140824720Y-124166462D01*
X140852985Y-124102565D01*
X140911309Y-124064093D01*
X140981174Y-124063261D01*
X141009657Y-124075258D01*
X141047395Y-124097046D01*
X141184862Y-124133880D01*
X141184864Y-124133880D01*
X141327176Y-124133880D01*
X141327178Y-124133880D01*
X141464645Y-124097046D01*
X141587895Y-124025888D01*
X141688528Y-123925255D01*
X141759686Y-123802005D01*
X141762069Y-123793108D01*
X141798428Y-123733450D01*
X141861273Y-123702917D01*
X141930649Y-123711208D01*
X141969525Y-123737518D01*
X142035005Y-123802998D01*
X142035007Y-123802999D01*
X142035011Y-123803003D01*
X142145227Y-123859161D01*
X142145229Y-123859162D01*
X142267400Y-123878512D01*
X142267402Y-123878512D01*
X142267404Y-123878512D01*
X142389574Y-123859162D01*
X142389575Y-123859161D01*
X142389577Y-123859161D01*
X142499793Y-123803003D01*
X142587261Y-123715535D01*
X142643419Y-123605319D01*
X142643419Y-123605317D01*
X142643420Y-123605316D01*
X142660100Y-123500002D01*
X153204632Y-123500002D01*
X153223981Y-123622172D01*
X153223983Y-123622175D01*
X153280141Y-123732391D01*
X153280143Y-123732393D01*
X153280145Y-123732396D01*
X153367603Y-123819854D01*
X153367605Y-123819855D01*
X153367609Y-123819859D01*
X153477825Y-123876017D01*
X153477827Y-123876018D01*
X153599998Y-123895368D01*
X153600000Y-123895368D01*
X153600002Y-123895368D01*
X153722172Y-123876018D01*
X153722173Y-123876017D01*
X153722175Y-123876017D01*
X153832391Y-123819859D01*
X153919859Y-123732391D01*
X153976017Y-123622175D01*
X153976017Y-123622173D01*
X153976018Y-123622172D01*
X153995368Y-123500002D01*
X153995368Y-123499997D01*
X153976018Y-123377827D01*
X153967428Y-123360969D01*
X153919859Y-123267609D01*
X153919855Y-123267605D01*
X153919854Y-123267603D01*
X153832396Y-123180145D01*
X153832393Y-123180143D01*
X153832391Y-123180141D01*
X153757484Y-123141974D01*
X153722172Y-123123981D01*
X153600002Y-123104632D01*
X153599998Y-123104632D01*
X153477827Y-123123981D01*
X153405432Y-123160869D01*
X153367609Y-123180141D01*
X153367608Y-123180142D01*
X153367603Y-123180145D01*
X153280145Y-123267603D01*
X153280142Y-123267608D01*
X153223981Y-123377827D01*
X153204632Y-123499997D01*
X153204632Y-123500002D01*
X142660100Y-123500002D01*
X142662770Y-123483146D01*
X142662770Y-123483141D01*
X142643420Y-123360971D01*
X142630870Y-123336340D01*
X142587261Y-123250753D01*
X142587257Y-123250749D01*
X142587256Y-123250747D01*
X142499798Y-123163289D01*
X142499795Y-123163287D01*
X142499793Y-123163285D01*
X142406444Y-123115721D01*
X142389574Y-123107125D01*
X142267404Y-123087776D01*
X142267400Y-123087776D01*
X142145229Y-123107125D01*
X142071749Y-123144565D01*
X142035011Y-123163285D01*
X142035010Y-123163286D01*
X142035005Y-123163289D01*
X141947547Y-123250747D01*
X141947543Y-123250752D01*
X141926888Y-123291290D01*
X141878913Y-123342085D01*
X141811091Y-123358879D01*
X141744957Y-123336340D01*
X141709016Y-123296992D01*
X141692052Y-123267609D01*
X141688528Y-123261505D01*
X141587895Y-123160872D01*
X141587894Y-123160871D01*
X141587891Y-123160869D01*
X141464647Y-123089715D01*
X141464646Y-123089714D01*
X141464645Y-123089714D01*
X141327178Y-123052880D01*
X141184862Y-123052880D01*
X141047395Y-123089714D01*
X141047392Y-123089715D01*
X140924148Y-123160869D01*
X140924143Y-123160873D01*
X140823513Y-123261503D01*
X140823509Y-123261508D01*
X140752355Y-123384752D01*
X140752353Y-123384756D01*
X140743424Y-123418079D01*
X140707057Y-123477738D01*
X140655744Y-123505757D01*
X140097577Y-123655317D01*
X139968168Y-123172352D01*
X140596018Y-123004121D01*
X140494156Y-122623963D01*
X140494156Y-122623962D01*
X140411393Y-122456136D01*
X140411390Y-122456131D01*
X140297473Y-122307670D01*
X140156779Y-122184284D01*
X140129551Y-122168564D01*
X146298572Y-122168564D01*
X146328470Y-122280143D01*
X146335406Y-122306030D01*
X146335407Y-122306033D01*
X146406561Y-122429277D01*
X146406563Y-122429280D01*
X146406564Y-122429281D01*
X146507197Y-122529914D01*
X146630447Y-122601072D01*
X146767914Y-122637906D01*
X146767916Y-122637906D01*
X146910228Y-122637906D01*
X146910230Y-122637906D01*
X147047697Y-122601072D01*
X147170947Y-122529914D01*
X147271580Y-122429281D01*
X147293365Y-122391548D01*
X147343930Y-122343332D01*
X147412537Y-122330108D01*
X147477402Y-122356075D01*
X147499127Y-122378060D01*
X147543974Y-122436504D01*
X147543981Y-122436512D01*
X147684674Y-122559897D01*
X147846728Y-122653460D01*
X147846738Y-122653464D01*
X148023931Y-122713613D01*
X148023944Y-122713616D01*
X148209472Y-122738040D01*
X148237046Y-122736233D01*
X148042441Y-122009957D01*
X148056499Y-122024016D01*
X148124907Y-122063511D01*
X148201208Y-122083956D01*
X148280199Y-122083956D01*
X148356500Y-122063511D01*
X148424908Y-122024016D01*
X148480764Y-121968160D01*
X148520260Y-121899752D01*
X148525405Y-121880548D01*
X148720010Y-122606822D01*
X148744797Y-122594599D01*
X148893258Y-122480682D01*
X149016641Y-122339990D01*
X149016645Y-122339984D01*
X149110208Y-122177930D01*
X149110212Y-122177920D01*
X149170361Y-122000728D01*
X149170364Y-122000715D01*
X149194788Y-121815191D01*
X149182549Y-121628458D01*
X149080686Y-121248300D01*
X148452836Y-121416532D01*
X148323427Y-120933567D01*
X148951277Y-120765336D01*
X148849415Y-120385178D01*
X148849415Y-120385177D01*
X148766652Y-120217351D01*
X148766649Y-120217346D01*
X148652732Y-120068885D01*
X148512038Y-119945499D01*
X148349975Y-119851931D01*
X148349972Y-119851930D01*
X148172773Y-119791779D01*
X148172763Y-119791776D01*
X147987239Y-119767352D01*
X147959660Y-119769159D01*
X148154264Y-120495433D01*
X148140209Y-120481378D01*
X148071800Y-120441882D01*
X147995500Y-120421437D01*
X147916509Y-120421438D01*
X147840208Y-120441882D01*
X147771799Y-120481378D01*
X147715944Y-120537233D01*
X147676448Y-120605642D01*
X147671301Y-120624847D01*
X147476696Y-119898568D01*
X147451914Y-119910790D01*
X147303451Y-120024709D01*
X147180065Y-120165403D01*
X147086497Y-120327466D01*
X147086496Y-120327469D01*
X147026345Y-120504668D01*
X147026342Y-120504678D01*
X147001918Y-120690202D01*
X147014157Y-120876936D01*
X147116019Y-121257092D01*
X147743871Y-121088859D01*
X147873280Y-121571823D01*
X147315113Y-121721384D01*
X147245264Y-121719721D01*
X147195339Y-121689290D01*
X147170948Y-121664899D01*
X147170943Y-121664895D01*
X147047699Y-121593741D01*
X147047698Y-121593740D01*
X147047697Y-121593740D01*
X146910230Y-121556906D01*
X146767914Y-121556906D01*
X146630447Y-121593740D01*
X146630444Y-121593741D01*
X146507200Y-121664895D01*
X146507195Y-121664899D01*
X146406565Y-121765529D01*
X146406561Y-121765534D01*
X146335407Y-121888778D01*
X146335406Y-121888781D01*
X146298572Y-122026248D01*
X146298572Y-122168564D01*
X140129551Y-122168564D01*
X139994716Y-122090716D01*
X139994713Y-122090715D01*
X139817514Y-122030564D01*
X139817504Y-122030561D01*
X139631980Y-122006137D01*
X139604401Y-122007944D01*
X139799005Y-122734218D01*
X139784950Y-122720163D01*
X139716541Y-122680667D01*
X139640241Y-122660222D01*
X139561250Y-122660223D01*
X139484949Y-122680667D01*
X139416540Y-122720163D01*
X139360685Y-122776018D01*
X139321189Y-122844427D01*
X139316042Y-122863632D01*
X139121437Y-122137353D01*
X139096655Y-122149575D01*
X138948192Y-122263494D01*
X138824806Y-122404188D01*
X138731238Y-122566251D01*
X138731237Y-122566254D01*
X138671086Y-122743453D01*
X138671083Y-122743463D01*
X138646659Y-122928987D01*
X133414478Y-122928987D01*
X133432391Y-122919860D01*
X133519859Y-122832392D01*
X133576017Y-122722176D01*
X133576017Y-122722174D01*
X133576018Y-122722173D01*
X133595368Y-122600003D01*
X133595368Y-122599998D01*
X133576018Y-122477828D01*
X133554962Y-122436504D01*
X133519859Y-122367610D01*
X133519855Y-122367606D01*
X133519854Y-122367604D01*
X133432396Y-122280146D01*
X133432393Y-122280144D01*
X133432391Y-122280142D01*
X133357484Y-122241975D01*
X133322172Y-122223982D01*
X133200002Y-122204633D01*
X133199998Y-122204633D01*
X133077827Y-122223982D01*
X133004347Y-122261422D01*
X132967609Y-122280142D01*
X132967608Y-122280143D01*
X132967603Y-122280146D01*
X132880145Y-122367604D01*
X132880142Y-122367609D01*
X132880141Y-122367610D01*
X132861504Y-122404188D01*
X132823981Y-122477828D01*
X132804632Y-122599998D01*
X132804632Y-122600003D01*
X114226043Y-122600003D01*
X114215985Y-122588698D01*
X114207339Y-122577807D01*
X114194690Y-122559897D01*
X114021145Y-122314161D01*
X114013775Y-122302373D01*
X113992399Y-122263494D01*
X113858274Y-122019542D01*
X113852271Y-122007005D01*
X113849682Y-122000715D01*
X113729413Y-121708538D01*
X113724853Y-121695414D01*
X113723103Y-121689290D01*
X113672800Y-121513222D01*
X113636186Y-121385068D01*
X113633122Y-121371505D01*
X113579761Y-121053198D01*
X113578234Y-121039377D01*
X113571786Y-120919854D01*
X113560846Y-120717063D01*
X113560876Y-120703192D01*
X113566899Y-120600002D01*
X121904632Y-120600002D01*
X121923981Y-120722172D01*
X121923983Y-120722175D01*
X121980141Y-120832391D01*
X121980143Y-120832393D01*
X121980145Y-120832396D01*
X122067603Y-120919854D01*
X122067605Y-120919855D01*
X122067609Y-120919859D01*
X122177825Y-120976017D01*
X122177827Y-120976018D01*
X122299998Y-120995368D01*
X122300000Y-120995368D01*
X122300002Y-120995368D01*
X122422172Y-120976018D01*
X122422173Y-120976017D01*
X122422175Y-120976017D01*
X122532391Y-120919859D01*
X122619859Y-120832391D01*
X122676017Y-120722175D01*
X122676017Y-120722173D01*
X122676018Y-120722172D01*
X122695368Y-120600002D01*
X122695368Y-120599997D01*
X122676018Y-120477827D01*
X122647286Y-120421438D01*
X122619859Y-120367609D01*
X122619855Y-120367605D01*
X122619854Y-120367603D01*
X122532396Y-120280145D01*
X122532393Y-120280143D01*
X122532391Y-120280141D01*
X122457484Y-120241974D01*
X122422172Y-120223981D01*
X122300002Y-120204632D01*
X122299998Y-120204632D01*
X122177827Y-120223981D01*
X122104347Y-120261421D01*
X122067609Y-120280141D01*
X122067608Y-120280142D01*
X122067603Y-120280145D01*
X121980145Y-120367603D01*
X121980142Y-120367608D01*
X121923981Y-120477827D01*
X121904632Y-120599997D01*
X121904632Y-120600002D01*
X113566899Y-120600002D01*
X113579685Y-120380969D01*
X113581272Y-120367157D01*
X113636039Y-120049072D01*
X113639162Y-120035528D01*
X113647929Y-120005349D01*
X113729199Y-119725572D01*
X113733819Y-119712464D01*
X113755147Y-119661295D01*
X113858324Y-119413746D01*
X113863549Y-119402762D01*
X113890223Y-119353122D01*
X113939989Y-119260509D01*
X113940696Y-119259213D01*
X114251369Y-118700002D01*
X137004632Y-118700002D01*
X137023981Y-118822172D01*
X137023983Y-118822175D01*
X137080141Y-118932391D01*
X137080143Y-118932393D01*
X137080145Y-118932396D01*
X137167603Y-119019854D01*
X137167605Y-119019855D01*
X137167609Y-119019859D01*
X137277825Y-119076017D01*
X137277827Y-119076018D01*
X137399998Y-119095368D01*
X137400000Y-119095368D01*
X137400002Y-119095368D01*
X137522172Y-119076018D01*
X137522173Y-119076017D01*
X137522175Y-119076017D01*
X137575986Y-119048599D01*
X152583954Y-119048599D01*
X152602994Y-119205417D01*
X152653735Y-119339208D01*
X152659012Y-119353122D01*
X152748749Y-119483129D01*
X152866992Y-119587882D01*
X152866994Y-119587883D01*
X153006866Y-119661295D01*
X153160246Y-119699099D01*
X153182551Y-119699099D01*
X153249590Y-119718784D01*
X153295345Y-119771588D01*
X153305289Y-119840746D01*
X153291750Y-119876081D01*
X153293057Y-119876623D01*
X153288382Y-119887907D01*
X153276703Y-119946622D01*
X153276703Y-119946627D01*
X153288382Y-120005342D01*
X153288385Y-120005349D01*
X153313250Y-120042563D01*
X153313256Y-120042570D01*
X154041312Y-120770626D01*
X154041318Y-120770631D01*
X154078536Y-120795499D01*
X154078539Y-120795499D01*
X154078540Y-120795500D01*
X154137256Y-120807180D01*
X154137258Y-120807180D01*
X154137260Y-120807180D01*
X154195975Y-120795500D01*
X154195975Y-120795499D01*
X154195980Y-120795499D01*
X154233198Y-120770631D01*
X154961264Y-120042565D01*
X154986132Y-120005347D01*
X154997813Y-119946625D01*
X154997813Y-119946622D01*
X154986133Y-119887907D01*
X154986132Y-119887906D01*
X154986132Y-119887903D01*
X154986130Y-119887900D01*
X154981459Y-119876623D01*
X154983752Y-119875672D01*
X154967985Y-119825305D01*
X154986473Y-119757926D01*
X155038455Y-119711239D01*
X155091965Y-119699099D01*
X155114269Y-119699099D01*
X155267649Y-119661295D01*
X155332986Y-119627003D01*
X155407524Y-119587882D01*
X155525767Y-119483129D01*
X155615504Y-119353122D01*
X155665577Y-119221089D01*
X155707754Y-119165388D01*
X155773351Y-119141331D01*
X155793673Y-119141659D01*
X155933309Y-119155412D01*
X156129341Y-119136105D01*
X156317846Y-119078922D01*
X156441832Y-119012650D01*
X155904756Y-118475574D01*
X155976096Y-118475574D01*
X156058754Y-118453425D01*
X156132863Y-118410638D01*
X156193373Y-118350128D01*
X156236160Y-118276019D01*
X156258309Y-118193361D01*
X156258309Y-118150574D01*
X156286862Y-118150574D01*
X156795385Y-118659097D01*
X156861657Y-118535111D01*
X156918841Y-118346601D01*
X156920029Y-118340633D01*
X156921862Y-118340997D01*
X156944753Y-118284302D01*
X157001785Y-118243940D01*
X157021471Y-118239657D01*
X157021394Y-118239268D01*
X157027362Y-118238080D01*
X157215872Y-118180896D01*
X157339858Y-118114624D01*
X156831335Y-117606101D01*
X156286862Y-118150574D01*
X156258309Y-118150574D01*
X156258309Y-118107787D01*
X156236160Y-118025129D01*
X156193373Y-117951020D01*
X156132863Y-117890510D01*
X156058754Y-117847723D01*
X155976096Y-117825574D01*
X155904756Y-117825574D01*
X156506335Y-117223995D01*
X156506335Y-117295335D01*
X156528484Y-117377993D01*
X156571271Y-117452102D01*
X156631781Y-117512612D01*
X156705890Y-117555399D01*
X156788548Y-117577548D01*
X156874122Y-117577548D01*
X156956780Y-117555399D01*
X157030889Y-117512612D01*
X157091399Y-117452102D01*
X157134186Y-117377993D01*
X157156335Y-117295335D01*
X157156335Y-117223995D01*
X157693411Y-117761071D01*
X157759683Y-117637085D01*
X157816866Y-117448580D01*
X157836173Y-117252548D01*
X157822237Y-117111048D01*
X157835256Y-117042402D01*
X157883321Y-116991692D01*
X157915967Y-116978497D01*
X157961725Y-116967219D01*
X158101600Y-116893806D01*
X158219843Y-116789053D01*
X158309580Y-116659046D01*
X158359653Y-116527013D01*
X158401829Y-116471312D01*
X158467427Y-116447254D01*
X158487749Y-116447582D01*
X158627386Y-116461335D01*
X158823418Y-116442028D01*
X159011923Y-116384845D01*
X159135909Y-116318573D01*
X158598833Y-115781497D01*
X158670173Y-115781497D01*
X158752831Y-115759348D01*
X158826940Y-115716561D01*
X158887450Y-115656051D01*
X158930237Y-115581942D01*
X158952386Y-115499284D01*
X158952386Y-115427944D01*
X159489462Y-115965020D01*
X159555734Y-115841034D01*
X159612917Y-115652529D01*
X159632224Y-115456497D01*
X159618288Y-115314996D01*
X159631307Y-115246350D01*
X159679372Y-115195640D01*
X159712015Y-115182445D01*
X159757777Y-115171167D01*
X159897652Y-115097754D01*
X160015895Y-114993001D01*
X160105632Y-114862994D01*
X160161649Y-114715289D01*
X160180690Y-114558471D01*
X160179662Y-114550000D01*
X160161649Y-114401652D01*
X160134530Y-114330145D01*
X160105632Y-114253948D01*
X160015895Y-114123941D01*
X159897652Y-114019188D01*
X159897650Y-114019187D01*
X159897649Y-114019186D01*
X159757777Y-113945774D01*
X159604398Y-113907971D01*
X159604397Y-113907971D01*
X159446427Y-113907971D01*
X159437982Y-113910052D01*
X159421051Y-113914225D01*
X159351249Y-113911154D01*
X159294188Y-113870832D01*
X159267984Y-113806062D01*
X159268282Y-113778885D01*
X159282664Y-113660446D01*
X159263623Y-113503628D01*
X159207606Y-113355923D01*
X159117869Y-113225916D01*
X158999626Y-113121163D01*
X158999624Y-113121162D01*
X158999623Y-113121161D01*
X158859751Y-113047749D01*
X158706372Y-113009946D01*
X158706371Y-113009946D01*
X158548401Y-113009946D01*
X158548400Y-113009946D01*
X158395020Y-113047749D01*
X158255148Y-113121161D01*
X158136902Y-113225917D01*
X158047167Y-113355921D01*
X158047166Y-113355922D01*
X157991148Y-113503627D01*
X157972108Y-113660445D01*
X157972108Y-113660446D01*
X157986488Y-113778881D01*
X157975027Y-113847804D01*
X157928123Y-113899590D01*
X157860667Y-113917797D01*
X157833719Y-113914224D01*
X157808348Y-113907971D01*
X157808345Y-113907971D01*
X157650375Y-113907971D01*
X157650374Y-113907971D01*
X157496994Y-113945774D01*
X157357122Y-114019186D01*
X157238876Y-114123942D01*
X157149141Y-114253946D01*
X157149140Y-114253947D01*
X157093122Y-114401652D01*
X157074082Y-114558470D01*
X157074082Y-114558471D01*
X157088462Y-114676907D01*
X157077001Y-114745830D01*
X157030097Y-114797616D01*
X156962641Y-114815823D01*
X156935693Y-114812250D01*
X156910323Y-114805997D01*
X156910320Y-114805997D01*
X156752350Y-114805997D01*
X156752349Y-114805997D01*
X156598969Y-114843800D01*
X156459097Y-114917212D01*
X156340851Y-115021968D01*
X156251116Y-115151972D01*
X156251115Y-115151973D01*
X156195097Y-115299678D01*
X156176057Y-115456496D01*
X156176057Y-115456497D01*
X156190437Y-115574933D01*
X156178976Y-115643856D01*
X156132072Y-115695642D01*
X156064616Y-115713849D01*
X156037668Y-115710276D01*
X156012297Y-115704023D01*
X156012294Y-115704023D01*
X155854324Y-115704023D01*
X155854323Y-115704023D01*
X155700943Y-115741826D01*
X155561071Y-115815238D01*
X155442825Y-115919994D01*
X155353090Y-116049998D01*
X155353089Y-116049999D01*
X155297071Y-116197704D01*
X155278031Y-116354522D01*
X155278031Y-116354523D01*
X155292411Y-116472958D01*
X155280950Y-116541881D01*
X155234046Y-116593667D01*
X155166590Y-116611874D01*
X155139642Y-116608301D01*
X155114272Y-116602048D01*
X155114269Y-116602048D01*
X154956299Y-116602048D01*
X154956298Y-116602048D01*
X154802918Y-116639851D01*
X154663046Y-116713263D01*
X154544800Y-116818019D01*
X154455065Y-116948023D01*
X154455064Y-116948024D01*
X154399046Y-117095729D01*
X154380006Y-117252547D01*
X154380006Y-117252548D01*
X154394386Y-117370984D01*
X154382925Y-117439907D01*
X154336021Y-117491693D01*
X154268565Y-117509900D01*
X154241617Y-117506327D01*
X154216246Y-117500074D01*
X154216243Y-117500074D01*
X154058273Y-117500074D01*
X154058272Y-117500074D01*
X153904892Y-117537877D01*
X153765020Y-117611289D01*
X153646774Y-117716045D01*
X153557039Y-117846049D01*
X153557038Y-117846050D01*
X153501020Y-117993755D01*
X153481980Y-118150573D01*
X153481980Y-118150574D01*
X153496360Y-118269009D01*
X153484899Y-118337932D01*
X153437995Y-118389718D01*
X153370539Y-118407925D01*
X153343591Y-118404352D01*
X153318220Y-118398099D01*
X153318217Y-118398099D01*
X153160247Y-118398099D01*
X153160246Y-118398099D01*
X153006866Y-118435902D01*
X152866994Y-118509314D01*
X152748748Y-118614070D01*
X152659013Y-118744074D01*
X152659012Y-118744075D01*
X152602994Y-118891780D01*
X152583954Y-119048598D01*
X152583954Y-119048599D01*
X137575986Y-119048599D01*
X137632391Y-119019859D01*
X137719859Y-118932391D01*
X137776017Y-118822175D01*
X137776017Y-118822173D01*
X137776018Y-118822172D01*
X137795368Y-118700002D01*
X137795368Y-118699997D01*
X137776018Y-118577827D01*
X137776017Y-118577825D01*
X137719859Y-118467609D01*
X137719855Y-118467605D01*
X137719854Y-118467603D01*
X137632396Y-118380145D01*
X137632393Y-118380143D01*
X137632391Y-118380141D01*
X137554852Y-118340633D01*
X137522172Y-118323981D01*
X137400002Y-118304632D01*
X137399998Y-118304632D01*
X137277827Y-118323981D01*
X137204347Y-118361421D01*
X137167609Y-118380141D01*
X137167608Y-118380142D01*
X137167603Y-118380145D01*
X137080145Y-118467603D01*
X137080142Y-118467608D01*
X137023981Y-118577827D01*
X137004632Y-118699997D01*
X137004632Y-118700002D01*
X114251369Y-118700002D01*
X114695813Y-117900003D01*
X122904632Y-117900003D01*
X122923981Y-118022173D01*
X122937528Y-118048759D01*
X122980141Y-118132392D01*
X122980143Y-118132394D01*
X122980145Y-118132397D01*
X123067603Y-118219855D01*
X123067605Y-118219856D01*
X123067609Y-118219860D01*
X123164069Y-118269009D01*
X123177827Y-118276019D01*
X123299998Y-118295369D01*
X123300000Y-118295369D01*
X123300002Y-118295369D01*
X123422172Y-118276019D01*
X123422173Y-118276018D01*
X123422175Y-118276018D01*
X123532391Y-118219860D01*
X123619859Y-118132392D01*
X123639516Y-118093812D01*
X123687489Y-118043018D01*
X123755310Y-118026222D01*
X123821445Y-118048759D01*
X123860483Y-118093812D01*
X123867604Y-118107787D01*
X123880140Y-118132390D01*
X123880145Y-118132397D01*
X123967603Y-118219855D01*
X123967605Y-118219856D01*
X123967609Y-118219860D01*
X124064069Y-118269009D01*
X124077827Y-118276019D01*
X124199998Y-118295369D01*
X124200000Y-118295369D01*
X124200002Y-118295369D01*
X124322172Y-118276019D01*
X124322173Y-118276018D01*
X124322175Y-118276018D01*
X124432391Y-118219860D01*
X124519859Y-118132392D01*
X124576017Y-118022176D01*
X124576017Y-118022174D01*
X124576018Y-118022173D01*
X124595368Y-117900003D01*
X124595368Y-117899998D01*
X124576018Y-117777828D01*
X124562471Y-117751241D01*
X124536364Y-117700002D01*
X134804632Y-117700002D01*
X134823981Y-117822172D01*
X134836147Y-117846049D01*
X134880141Y-117932391D01*
X134880143Y-117932393D01*
X134880145Y-117932396D01*
X134967603Y-118019854D01*
X134967605Y-118019855D01*
X134967609Y-118019859D01*
X135052068Y-118062893D01*
X135077827Y-118076018D01*
X135199998Y-118095368D01*
X135200000Y-118095368D01*
X135200002Y-118095368D01*
X135322172Y-118076018D01*
X135322173Y-118076017D01*
X135322175Y-118076017D01*
X135432391Y-118019859D01*
X135519859Y-117932391D01*
X135576017Y-117822175D01*
X135576017Y-117822173D01*
X135576018Y-117822172D01*
X135595368Y-117700002D01*
X135595368Y-117699997D01*
X135576018Y-117577827D01*
X135564590Y-117555399D01*
X135519859Y-117467609D01*
X135519855Y-117467605D01*
X135519854Y-117467603D01*
X135432396Y-117380145D01*
X135432393Y-117380143D01*
X135432391Y-117380141D01*
X135357484Y-117341974D01*
X135322172Y-117323981D01*
X135200002Y-117304632D01*
X135199998Y-117304632D01*
X135077827Y-117323981D01*
X135004347Y-117361421D01*
X134967609Y-117380141D01*
X134967608Y-117380142D01*
X134967603Y-117380145D01*
X134880145Y-117467603D01*
X134880142Y-117467608D01*
X134823981Y-117577827D01*
X134804632Y-117699997D01*
X134804632Y-117700002D01*
X124536364Y-117700002D01*
X124519859Y-117667610D01*
X124519855Y-117667606D01*
X124519854Y-117667604D01*
X124432396Y-117580146D01*
X124432393Y-117580144D01*
X124432391Y-117580142D01*
X124357484Y-117541975D01*
X124322172Y-117523982D01*
X124200002Y-117504633D01*
X124199998Y-117504633D01*
X124077827Y-117523982D01*
X124012888Y-117557071D01*
X123967609Y-117580142D01*
X123967608Y-117580143D01*
X123967603Y-117580146D01*
X123880145Y-117667604D01*
X123880142Y-117667609D01*
X123880141Y-117667610D01*
X123860483Y-117706189D01*
X123812510Y-117756984D01*
X123744689Y-117773779D01*
X123678554Y-117751241D01*
X123639516Y-117706189D01*
X123619859Y-117667610D01*
X123619855Y-117667606D01*
X123619854Y-117667604D01*
X123532396Y-117580146D01*
X123532393Y-117580144D01*
X123532391Y-117580142D01*
X123457484Y-117541975D01*
X123422172Y-117523982D01*
X123300002Y-117504633D01*
X123299998Y-117504633D01*
X123177827Y-117523982D01*
X123112888Y-117557071D01*
X123067609Y-117580142D01*
X123067608Y-117580143D01*
X123067603Y-117580146D01*
X122980145Y-117667604D01*
X122980142Y-117667609D01*
X122923981Y-117777828D01*
X122904632Y-117899998D01*
X122904632Y-117900003D01*
X114695813Y-117900003D01*
X115695813Y-116100002D01*
X125204633Y-116100002D01*
X125223982Y-116222172D01*
X125223984Y-116222175D01*
X125280142Y-116332391D01*
X125280144Y-116332393D01*
X125280146Y-116332396D01*
X125367604Y-116419854D01*
X125367606Y-116419855D01*
X125367610Y-116419859D01*
X125477826Y-116476017D01*
X125477828Y-116476018D01*
X125599999Y-116495368D01*
X125600001Y-116495368D01*
X125600003Y-116495368D01*
X125722173Y-116476018D01*
X125722174Y-116476017D01*
X125722176Y-116476017D01*
X125832392Y-116419859D01*
X125919860Y-116332391D01*
X125976018Y-116222175D01*
X125976018Y-116222173D01*
X125976019Y-116222172D01*
X125995369Y-116100002D01*
X132104632Y-116100002D01*
X132123981Y-116222172D01*
X132123983Y-116222175D01*
X132180141Y-116332391D01*
X132180143Y-116332393D01*
X132180145Y-116332396D01*
X132267603Y-116419854D01*
X132267605Y-116419855D01*
X132267609Y-116419859D01*
X132377825Y-116476017D01*
X132377827Y-116476018D01*
X132499998Y-116495368D01*
X132500000Y-116495368D01*
X132500002Y-116495368D01*
X132622172Y-116476018D01*
X132622173Y-116476017D01*
X132622175Y-116476017D01*
X132732391Y-116419859D01*
X132819859Y-116332391D01*
X132876017Y-116222175D01*
X132876017Y-116222173D01*
X132876018Y-116222172D01*
X132876018Y-116222171D01*
X132877527Y-116212646D01*
X132907456Y-116149511D01*
X132966767Y-116112579D01*
X133036630Y-116113577D01*
X133094863Y-116152186D01*
X133122473Y-116212646D01*
X133123981Y-116222171D01*
X133123981Y-116222172D01*
X133123983Y-116222175D01*
X133180141Y-116332391D01*
X133180143Y-116332393D01*
X133180145Y-116332396D01*
X133267603Y-116419854D01*
X133267605Y-116419855D01*
X133267609Y-116419859D01*
X133377825Y-116476017D01*
X133377827Y-116476018D01*
X133499998Y-116495368D01*
X133500000Y-116495368D01*
X133500002Y-116495368D01*
X133622172Y-116476018D01*
X133622173Y-116476017D01*
X133622175Y-116476017D01*
X133732391Y-116419859D01*
X133819859Y-116332391D01*
X133876017Y-116222175D01*
X133876017Y-116222173D01*
X133876018Y-116222172D01*
X133895368Y-116100002D01*
X136168595Y-116100002D01*
X136187944Y-116222172D01*
X136187946Y-116222175D01*
X136244104Y-116332391D01*
X136244106Y-116332393D01*
X136244108Y-116332396D01*
X136331566Y-116419854D01*
X136331568Y-116419855D01*
X136331572Y-116419859D01*
X136441788Y-116476017D01*
X136441790Y-116476018D01*
X136563961Y-116495368D01*
X136563963Y-116495368D01*
X136563965Y-116495368D01*
X136686135Y-116476018D01*
X136686136Y-116476017D01*
X136686138Y-116476017D01*
X136796354Y-116419859D01*
X136816211Y-116400002D01*
X140504632Y-116400002D01*
X140523981Y-116522172D01*
X140523983Y-116522175D01*
X140580141Y-116632391D01*
X140580143Y-116632393D01*
X140580145Y-116632396D01*
X140667603Y-116719854D01*
X140667605Y-116719855D01*
X140667609Y-116719859D01*
X140777825Y-116776017D01*
X140777827Y-116776018D01*
X140899998Y-116795368D01*
X140900000Y-116795368D01*
X140900002Y-116795368D01*
X141022172Y-116776018D01*
X141022173Y-116776017D01*
X141022175Y-116776017D01*
X141132391Y-116719859D01*
X141219859Y-116632391D01*
X141276017Y-116522175D01*
X141276017Y-116522173D01*
X141276018Y-116522172D01*
X141279529Y-116500003D01*
X144904633Y-116500003D01*
X144923982Y-116622173D01*
X144929191Y-116632396D01*
X144980142Y-116732392D01*
X144980144Y-116732394D01*
X144980146Y-116732397D01*
X145067604Y-116819855D01*
X145067606Y-116819856D01*
X145067610Y-116819860D01*
X145177826Y-116876018D01*
X145177828Y-116876019D01*
X145299999Y-116895369D01*
X145300001Y-116895369D01*
X145300003Y-116895369D01*
X145422173Y-116876019D01*
X145422174Y-116876018D01*
X145422176Y-116876018D01*
X145532392Y-116819860D01*
X145619860Y-116732392D01*
X145676018Y-116622176D01*
X145676018Y-116622174D01*
X145676019Y-116622173D01*
X145695369Y-116500003D01*
X145695369Y-116499998D01*
X145676019Y-116377828D01*
X145652870Y-116332396D01*
X145619860Y-116267610D01*
X145619856Y-116267606D01*
X145619855Y-116267604D01*
X145532397Y-116180146D01*
X145532394Y-116180144D01*
X145532392Y-116180142D01*
X145457485Y-116141975D01*
X145422173Y-116123982D01*
X145300003Y-116104633D01*
X145299999Y-116104633D01*
X145177828Y-116123982D01*
X145104348Y-116161422D01*
X145067610Y-116180142D01*
X145067609Y-116180143D01*
X145067604Y-116180146D01*
X144980146Y-116267604D01*
X144980143Y-116267609D01*
X144980142Y-116267610D01*
X144961422Y-116304348D01*
X144923982Y-116377828D01*
X144904633Y-116499998D01*
X144904633Y-116500003D01*
X141279529Y-116500003D01*
X141295368Y-116400002D01*
X141295368Y-116399997D01*
X141276018Y-116277827D01*
X141270809Y-116267604D01*
X141219859Y-116167609D01*
X141219855Y-116167605D01*
X141219854Y-116167603D01*
X141132396Y-116080145D01*
X141132392Y-116080142D01*
X141132391Y-116080141D01*
X141093811Y-116060483D01*
X141043017Y-116012511D01*
X141026221Y-115944690D01*
X141048758Y-115878555D01*
X141093811Y-115839516D01*
X141132391Y-115819859D01*
X141219859Y-115732391D01*
X141276017Y-115622175D01*
X141276017Y-115622173D01*
X141276018Y-115622172D01*
X141295368Y-115500002D01*
X146504632Y-115500002D01*
X146523981Y-115622172D01*
X146523983Y-115622175D01*
X146580141Y-115732391D01*
X146580143Y-115732393D01*
X146580145Y-115732396D01*
X146667603Y-115819854D01*
X146667605Y-115819855D01*
X146667609Y-115819859D01*
X146777825Y-115876017D01*
X146777827Y-115876018D01*
X146899998Y-115895368D01*
X146900000Y-115895368D01*
X146900002Y-115895368D01*
X147022172Y-115876018D01*
X147022173Y-115876017D01*
X147022175Y-115876017D01*
X147132391Y-115819859D01*
X147219859Y-115732391D01*
X147276017Y-115622175D01*
X147276017Y-115622173D01*
X147276018Y-115622172D01*
X147295368Y-115500002D01*
X147295368Y-115499997D01*
X147276018Y-115377827D01*
X147271427Y-115368816D01*
X147219859Y-115267609D01*
X147219855Y-115267605D01*
X147219854Y-115267603D01*
X147132396Y-115180145D01*
X147132393Y-115180143D01*
X147132391Y-115180141D01*
X147057484Y-115141974D01*
X147022172Y-115123981D01*
X146900002Y-115104632D01*
X146899998Y-115104632D01*
X146777827Y-115123981D01*
X146719608Y-115153646D01*
X146667609Y-115180141D01*
X146667608Y-115180142D01*
X146667603Y-115180145D01*
X146580145Y-115267603D01*
X146580142Y-115267608D01*
X146580141Y-115267609D01*
X146563637Y-115300000D01*
X146523981Y-115377827D01*
X146504632Y-115499997D01*
X146504632Y-115500002D01*
X141295368Y-115500002D01*
X141295368Y-115499997D01*
X141276018Y-115377827D01*
X141271427Y-115368816D01*
X141219859Y-115267609D01*
X141219855Y-115267605D01*
X141219854Y-115267603D01*
X141132396Y-115180145D01*
X141132393Y-115180143D01*
X141132391Y-115180141D01*
X141057484Y-115141974D01*
X141022172Y-115123981D01*
X140900002Y-115104632D01*
X140899998Y-115104632D01*
X140777827Y-115123981D01*
X140719608Y-115153646D01*
X140667609Y-115180141D01*
X140667608Y-115180142D01*
X140667603Y-115180145D01*
X140580145Y-115267603D01*
X140580142Y-115267608D01*
X140580141Y-115267609D01*
X140563637Y-115300000D01*
X140523981Y-115377827D01*
X140504632Y-115499997D01*
X140504632Y-115500002D01*
X140523981Y-115622172D01*
X140523983Y-115622175D01*
X140580141Y-115732391D01*
X140580143Y-115732393D01*
X140580145Y-115732396D01*
X140667603Y-115819854D01*
X140667605Y-115819855D01*
X140667609Y-115819859D01*
X140706188Y-115839516D01*
X140756983Y-115887490D01*
X140773778Y-115955311D01*
X140751240Y-116021446D01*
X140706188Y-116060483D01*
X140667609Y-116080141D01*
X140667608Y-116080142D01*
X140667603Y-116080145D01*
X140580145Y-116167603D01*
X140580142Y-116167608D01*
X140523981Y-116277827D01*
X140504632Y-116399997D01*
X140504632Y-116400002D01*
X136816211Y-116400002D01*
X136883822Y-116332391D01*
X136939980Y-116222175D01*
X136939980Y-116222173D01*
X136939981Y-116222172D01*
X136959331Y-116100002D01*
X136959331Y-116099997D01*
X136939981Y-115977827D01*
X136939980Y-115977825D01*
X136883822Y-115867609D01*
X136883818Y-115867605D01*
X136883817Y-115867603D01*
X136796359Y-115780145D01*
X136796356Y-115780143D01*
X136796354Y-115780141D01*
X136721157Y-115741826D01*
X136686135Y-115723981D01*
X136563965Y-115704632D01*
X136563961Y-115704632D01*
X136441790Y-115723981D01*
X136372380Y-115759348D01*
X136331572Y-115780141D01*
X136331571Y-115780142D01*
X136331566Y-115780145D01*
X136244108Y-115867603D01*
X136244105Y-115867608D01*
X136244104Y-115867609D01*
X136238527Y-115878555D01*
X136187944Y-115977827D01*
X136168595Y-116099997D01*
X136168595Y-116100002D01*
X133895368Y-116100002D01*
X133895368Y-116099997D01*
X133876018Y-115977827D01*
X133876017Y-115977825D01*
X133819859Y-115867609D01*
X133819855Y-115867605D01*
X133819854Y-115867603D01*
X133732396Y-115780145D01*
X133732393Y-115780143D01*
X133732391Y-115780141D01*
X133657194Y-115741826D01*
X133622172Y-115723981D01*
X133500002Y-115704632D01*
X133499998Y-115704632D01*
X133377827Y-115723981D01*
X133308417Y-115759348D01*
X133267609Y-115780141D01*
X133267608Y-115780142D01*
X133267603Y-115780145D01*
X133180145Y-115867603D01*
X133180142Y-115867608D01*
X133180141Y-115867609D01*
X133174564Y-115878555D01*
X133123981Y-115977827D01*
X133123981Y-115977828D01*
X133122473Y-115987354D01*
X133092543Y-116050489D01*
X133033232Y-116087420D01*
X132963369Y-116086422D01*
X132905137Y-116047812D01*
X132877527Y-115987354D01*
X132876018Y-115977828D01*
X132876018Y-115977827D01*
X132876017Y-115977825D01*
X132819859Y-115867609D01*
X132819855Y-115867605D01*
X132819854Y-115867603D01*
X132732396Y-115780145D01*
X132732393Y-115780143D01*
X132732391Y-115780141D01*
X132657194Y-115741826D01*
X132622172Y-115723981D01*
X132500002Y-115704632D01*
X132499998Y-115704632D01*
X132377827Y-115723981D01*
X132308417Y-115759348D01*
X132267609Y-115780141D01*
X132267608Y-115780142D01*
X132267603Y-115780145D01*
X132180145Y-115867603D01*
X132180142Y-115867608D01*
X132180141Y-115867609D01*
X132174564Y-115878555D01*
X132123981Y-115977827D01*
X132104632Y-116099997D01*
X132104632Y-116100002D01*
X125995369Y-116100002D01*
X125995369Y-116099997D01*
X125976019Y-115977827D01*
X125976018Y-115977825D01*
X125919860Y-115867609D01*
X125919856Y-115867605D01*
X125919855Y-115867603D01*
X125832397Y-115780145D01*
X125832393Y-115780142D01*
X125832392Y-115780141D01*
X125793812Y-115760483D01*
X125743018Y-115712511D01*
X125726222Y-115644690D01*
X125748759Y-115578555D01*
X125793812Y-115539516D01*
X125832392Y-115519859D01*
X125919860Y-115432391D01*
X125976018Y-115322175D01*
X125976018Y-115322173D01*
X125976019Y-115322172D01*
X125979530Y-115300002D01*
X138104632Y-115300002D01*
X138123981Y-115422172D01*
X138123983Y-115422175D01*
X138180141Y-115532391D01*
X138180143Y-115532393D01*
X138180145Y-115532396D01*
X138267603Y-115619854D01*
X138267605Y-115619855D01*
X138267609Y-115619859D01*
X138377825Y-115676017D01*
X138377827Y-115676018D01*
X138499998Y-115695368D01*
X138500000Y-115695368D01*
X138500002Y-115695368D01*
X138622172Y-115676018D01*
X138622173Y-115676017D01*
X138622175Y-115676017D01*
X138732391Y-115619859D01*
X138819859Y-115532391D01*
X138876017Y-115422175D01*
X138876017Y-115422173D01*
X138876018Y-115422172D01*
X138895368Y-115300002D01*
X138895368Y-115299997D01*
X138876018Y-115177827D01*
X138876017Y-115177825D01*
X138819859Y-115067609D01*
X138819855Y-115067605D01*
X138819854Y-115067603D01*
X138732396Y-114980145D01*
X138732393Y-114980143D01*
X138732391Y-114980141D01*
X138657484Y-114941974D01*
X138622172Y-114923981D01*
X138500002Y-114904632D01*
X138499998Y-114904632D01*
X138377827Y-114923981D01*
X138304347Y-114961421D01*
X138267609Y-114980141D01*
X138267608Y-114980142D01*
X138267603Y-114980145D01*
X138180145Y-115067603D01*
X138180142Y-115067608D01*
X138123981Y-115177827D01*
X138104632Y-115299997D01*
X138104632Y-115300002D01*
X125979530Y-115300002D01*
X125995369Y-115200002D01*
X125995369Y-115199997D01*
X125976019Y-115077827D01*
X125970812Y-115067608D01*
X125919860Y-114967609D01*
X125919856Y-114967605D01*
X125919855Y-114967603D01*
X125832397Y-114880145D01*
X125832394Y-114880143D01*
X125832392Y-114880141D01*
X125757485Y-114841974D01*
X125722173Y-114823981D01*
X125600003Y-114804632D01*
X125599999Y-114804632D01*
X125477828Y-114823981D01*
X125404348Y-114861421D01*
X125367610Y-114880141D01*
X125367609Y-114880142D01*
X125367604Y-114880145D01*
X125280146Y-114967603D01*
X125280143Y-114967608D01*
X125280142Y-114967609D01*
X125278997Y-114969857D01*
X125223982Y-115077827D01*
X125204633Y-115199997D01*
X125204633Y-115200002D01*
X125223982Y-115322172D01*
X125223984Y-115322175D01*
X125280142Y-115432391D01*
X125280144Y-115432393D01*
X125280146Y-115432396D01*
X125367604Y-115519854D01*
X125367606Y-115519855D01*
X125367610Y-115519859D01*
X125406189Y-115539516D01*
X125456984Y-115587490D01*
X125473779Y-115655311D01*
X125451241Y-115721446D01*
X125406189Y-115760483D01*
X125367610Y-115780141D01*
X125367609Y-115780142D01*
X125367604Y-115780145D01*
X125280146Y-115867603D01*
X125280143Y-115867608D01*
X125280142Y-115867609D01*
X125274565Y-115878555D01*
X125223982Y-115977827D01*
X125204633Y-116099997D01*
X125204633Y-116100002D01*
X115695813Y-116100002D01*
X116556924Y-114550002D01*
X142704632Y-114550002D01*
X142723981Y-114672172D01*
X142723983Y-114672175D01*
X142780141Y-114782391D01*
X142780143Y-114782393D01*
X142780145Y-114782396D01*
X142867603Y-114869854D01*
X142867605Y-114869855D01*
X142867609Y-114869859D01*
X142973829Y-114923981D01*
X142977827Y-114926018D01*
X143099998Y-114945368D01*
X143100000Y-114945368D01*
X143100002Y-114945368D01*
X143222172Y-114926018D01*
X143222173Y-114926017D01*
X143222175Y-114926017D01*
X143332391Y-114869859D01*
X143419859Y-114782391D01*
X143476017Y-114672175D01*
X143476017Y-114672173D01*
X143476018Y-114672172D01*
X143479529Y-114650002D01*
X148804633Y-114650002D01*
X148823982Y-114772172D01*
X148823984Y-114772175D01*
X148880142Y-114882391D01*
X148880144Y-114882393D01*
X148880146Y-114882396D01*
X148967604Y-114969854D01*
X148967606Y-114969855D01*
X148967610Y-114969859D01*
X149077826Y-115026017D01*
X149077828Y-115026018D01*
X149199999Y-115045368D01*
X149200001Y-115045368D01*
X149200003Y-115045368D01*
X149322173Y-115026018D01*
X149322174Y-115026017D01*
X149322176Y-115026017D01*
X149432392Y-114969859D01*
X149519860Y-114882391D01*
X149576018Y-114772175D01*
X149576018Y-114772173D01*
X149576019Y-114772172D01*
X149595369Y-114650002D01*
X149595369Y-114649997D01*
X149576019Y-114527827D01*
X149576018Y-114527825D01*
X149519860Y-114417609D01*
X149519856Y-114417605D01*
X149519855Y-114417603D01*
X149432397Y-114330145D01*
X149432394Y-114330143D01*
X149432392Y-114330141D01*
X149357485Y-114291974D01*
X149322173Y-114273981D01*
X149200003Y-114254632D01*
X149199999Y-114254632D01*
X149077828Y-114273981D01*
X149005282Y-114310946D01*
X148967610Y-114330141D01*
X148967609Y-114330142D01*
X148967604Y-114330145D01*
X148880146Y-114417603D01*
X148880143Y-114417608D01*
X148823982Y-114527827D01*
X148804633Y-114649997D01*
X148804633Y-114650002D01*
X143479529Y-114650002D01*
X143495368Y-114550002D01*
X143495368Y-114549997D01*
X143476018Y-114427827D01*
X143470811Y-114417608D01*
X143419859Y-114317609D01*
X143419855Y-114317605D01*
X143419854Y-114317603D01*
X143332396Y-114230145D01*
X143332393Y-114230143D01*
X143332391Y-114230141D01*
X143257484Y-114191974D01*
X143222172Y-114173981D01*
X143100002Y-114154632D01*
X143099998Y-114154632D01*
X142977827Y-114173981D01*
X142904347Y-114211421D01*
X142867609Y-114230141D01*
X142867608Y-114230142D01*
X142867603Y-114230145D01*
X142780145Y-114317603D01*
X142780142Y-114317608D01*
X142723981Y-114427827D01*
X142704632Y-114549997D01*
X142704632Y-114550002D01*
X116556924Y-114550002D01*
X117195813Y-113400002D01*
X124404632Y-113400002D01*
X124423981Y-113522172D01*
X124423983Y-113522175D01*
X124480141Y-113632391D01*
X124480143Y-113632393D01*
X124480145Y-113632396D01*
X124567603Y-113719854D01*
X124567605Y-113719855D01*
X124567609Y-113719859D01*
X124677825Y-113776017D01*
X124677827Y-113776018D01*
X124799998Y-113795368D01*
X124800000Y-113795368D01*
X124800002Y-113795368D01*
X124922172Y-113776018D01*
X124922173Y-113776017D01*
X124922175Y-113776017D01*
X125032391Y-113719859D01*
X125119859Y-113632391D01*
X125176017Y-113522175D01*
X125176017Y-113522173D01*
X125176018Y-113522172D01*
X125195368Y-113400002D01*
X135804632Y-113400002D01*
X135823981Y-113522172D01*
X135823983Y-113522175D01*
X135880141Y-113632391D01*
X135880143Y-113632393D01*
X135880145Y-113632396D01*
X135967603Y-113719854D01*
X135967605Y-113719855D01*
X135967609Y-113719859D01*
X136077825Y-113776017D01*
X136077827Y-113776018D01*
X136199998Y-113795368D01*
X136200000Y-113795368D01*
X136200002Y-113795368D01*
X136322172Y-113776018D01*
X136322173Y-113776017D01*
X136322175Y-113776017D01*
X136432391Y-113719859D01*
X136519859Y-113632391D01*
X136576017Y-113522175D01*
X136576017Y-113522173D01*
X136576018Y-113522172D01*
X136595368Y-113400002D01*
X136595368Y-113399997D01*
X136576018Y-113277827D01*
X136549568Y-113225917D01*
X136519859Y-113167609D01*
X136519855Y-113167605D01*
X136519854Y-113167603D01*
X136432396Y-113080145D01*
X136432393Y-113080143D01*
X136432391Y-113080141D01*
X136357484Y-113041974D01*
X136322172Y-113023981D01*
X136200002Y-113004632D01*
X136199998Y-113004632D01*
X136077827Y-113023981D01*
X136004347Y-113061421D01*
X135967609Y-113080141D01*
X135967608Y-113080142D01*
X135967603Y-113080145D01*
X135880145Y-113167603D01*
X135880142Y-113167608D01*
X135823981Y-113277827D01*
X135804632Y-113399997D01*
X135804632Y-113400002D01*
X125195368Y-113400002D01*
X125195368Y-113399997D01*
X125176018Y-113277827D01*
X125149568Y-113225917D01*
X125119859Y-113167609D01*
X125119855Y-113167605D01*
X125119854Y-113167603D01*
X125032396Y-113080145D01*
X125032393Y-113080143D01*
X125032391Y-113080141D01*
X124957484Y-113041974D01*
X124922172Y-113023981D01*
X124800002Y-113004632D01*
X124799998Y-113004632D01*
X124677827Y-113023981D01*
X124604347Y-113061421D01*
X124567609Y-113080141D01*
X124567608Y-113080142D01*
X124567603Y-113080145D01*
X124480145Y-113167603D01*
X124480142Y-113167608D01*
X124423981Y-113277827D01*
X124404632Y-113399997D01*
X124404632Y-113400002D01*
X117195813Y-113400002D01*
X117640257Y-112600002D01*
X148004632Y-112600002D01*
X148023981Y-112722172D01*
X148023983Y-112722175D01*
X148080141Y-112832391D01*
X148080143Y-112832393D01*
X148080145Y-112832396D01*
X148167603Y-112919854D01*
X148167605Y-112919855D01*
X148167609Y-112919859D01*
X148277825Y-112976017D01*
X148277827Y-112976018D01*
X148399998Y-112995368D01*
X148400000Y-112995368D01*
X148400002Y-112995368D01*
X148522172Y-112976018D01*
X148522173Y-112976017D01*
X148522175Y-112976017D01*
X148632391Y-112919859D01*
X148719859Y-112832391D01*
X148776017Y-112722175D01*
X148776017Y-112722173D01*
X148776018Y-112722172D01*
X148795368Y-112600002D01*
X148795368Y-112599997D01*
X148776018Y-112477827D01*
X148775096Y-112476017D01*
X148719859Y-112367609D01*
X148719855Y-112367605D01*
X148719854Y-112367603D01*
X148632396Y-112280145D01*
X148632393Y-112280143D01*
X148632391Y-112280141D01*
X148557484Y-112241974D01*
X148522172Y-112223981D01*
X148400002Y-112204632D01*
X148399998Y-112204632D01*
X148277827Y-112223981D01*
X148204347Y-112261421D01*
X148167609Y-112280141D01*
X148167608Y-112280142D01*
X148167603Y-112280145D01*
X148080145Y-112367603D01*
X148080142Y-112367608D01*
X148023981Y-112477827D01*
X148004632Y-112599997D01*
X148004632Y-112600002D01*
X117640257Y-112600002D01*
X117918035Y-112100002D01*
X137604632Y-112100002D01*
X137623981Y-112222172D01*
X137623983Y-112222175D01*
X137680141Y-112332391D01*
X137680143Y-112332393D01*
X137680145Y-112332396D01*
X137767603Y-112419854D01*
X137767605Y-112419855D01*
X137767609Y-112419859D01*
X137877825Y-112476017D01*
X137877827Y-112476018D01*
X137999998Y-112495368D01*
X138000000Y-112495368D01*
X138000002Y-112495368D01*
X138122172Y-112476018D01*
X138122173Y-112476017D01*
X138122175Y-112476017D01*
X138232391Y-112419859D01*
X138319859Y-112332391D01*
X138376017Y-112222175D01*
X138376017Y-112222173D01*
X138376018Y-112222172D01*
X138395368Y-112100002D01*
X138395368Y-112099997D01*
X138376018Y-111977827D01*
X138375096Y-111976017D01*
X138319859Y-111867609D01*
X138319855Y-111867605D01*
X138319854Y-111867603D01*
X138232396Y-111780145D01*
X138232393Y-111780143D01*
X138232391Y-111780141D01*
X138157484Y-111741974D01*
X138122172Y-111723981D01*
X138000002Y-111704632D01*
X137999998Y-111704632D01*
X137877827Y-111723981D01*
X137804347Y-111761421D01*
X137767609Y-111780141D01*
X137767608Y-111780142D01*
X137767603Y-111780145D01*
X137680145Y-111867603D01*
X137680142Y-111867608D01*
X137623981Y-111977827D01*
X137604632Y-112099997D01*
X137604632Y-112100002D01*
X117918035Y-112100002D01*
X118362479Y-111300003D01*
X124504632Y-111300003D01*
X124523981Y-111422173D01*
X124523983Y-111422176D01*
X124580141Y-111532392D01*
X124580143Y-111532394D01*
X124580145Y-111532397D01*
X124667603Y-111619855D01*
X124667605Y-111619856D01*
X124667609Y-111619860D01*
X124777825Y-111676018D01*
X124777827Y-111676019D01*
X124899998Y-111695369D01*
X124900000Y-111695369D01*
X124900002Y-111695369D01*
X125022172Y-111676019D01*
X125022173Y-111676018D01*
X125022175Y-111676018D01*
X125132391Y-111619860D01*
X125152249Y-111600002D01*
X147004632Y-111600002D01*
X147023981Y-111722172D01*
X147023983Y-111722175D01*
X147080141Y-111832391D01*
X147080143Y-111832393D01*
X147080145Y-111832396D01*
X147167603Y-111919854D01*
X147167605Y-111919855D01*
X147167609Y-111919859D01*
X147277825Y-111976017D01*
X147277827Y-111976018D01*
X147399998Y-111995368D01*
X147400000Y-111995368D01*
X147400002Y-111995368D01*
X147522172Y-111976018D01*
X147522173Y-111976017D01*
X147522175Y-111976017D01*
X147632391Y-111919859D01*
X147719859Y-111832391D01*
X147776017Y-111722175D01*
X147776017Y-111722173D01*
X147776018Y-111722172D01*
X147795368Y-111600002D01*
X147795368Y-111599997D01*
X147776018Y-111477827D01*
X147747662Y-111422176D01*
X147719859Y-111367609D01*
X147719855Y-111367605D01*
X147719854Y-111367603D01*
X147632396Y-111280145D01*
X147632393Y-111280143D01*
X147632391Y-111280141D01*
X147557484Y-111241974D01*
X147522172Y-111223981D01*
X147400002Y-111204632D01*
X147399998Y-111204632D01*
X147277827Y-111223981D01*
X147204347Y-111261421D01*
X147167609Y-111280141D01*
X147167608Y-111280142D01*
X147167603Y-111280145D01*
X147080145Y-111367603D01*
X147080142Y-111367608D01*
X147023981Y-111477827D01*
X147004632Y-111599997D01*
X147004632Y-111600002D01*
X125152249Y-111600002D01*
X125219859Y-111532392D01*
X125276017Y-111422176D01*
X125276017Y-111422174D01*
X125276018Y-111422173D01*
X125295368Y-111300003D01*
X125295368Y-111299998D01*
X125276018Y-111177828D01*
X125276017Y-111177826D01*
X125236364Y-111100002D01*
X145004632Y-111100002D01*
X145023981Y-111222172D01*
X145023983Y-111222175D01*
X145080141Y-111332391D01*
X145080143Y-111332393D01*
X145080145Y-111332396D01*
X145167603Y-111419854D01*
X145167605Y-111419855D01*
X145167609Y-111419859D01*
X145277825Y-111476017D01*
X145277827Y-111476018D01*
X145399998Y-111495368D01*
X145400000Y-111495368D01*
X145400002Y-111495368D01*
X145522172Y-111476018D01*
X145522173Y-111476017D01*
X145522175Y-111476017D01*
X145632391Y-111419859D01*
X145719859Y-111332391D01*
X145776017Y-111222175D01*
X145776017Y-111222173D01*
X145776018Y-111222172D01*
X145795368Y-111100002D01*
X145795368Y-111099997D01*
X145776018Y-110977827D01*
X145776017Y-110977825D01*
X145719859Y-110867609D01*
X145719855Y-110867605D01*
X145719854Y-110867603D01*
X145632396Y-110780145D01*
X145632393Y-110780143D01*
X145632391Y-110780141D01*
X145557484Y-110741974D01*
X145522172Y-110723981D01*
X145400002Y-110704632D01*
X145399998Y-110704632D01*
X145277827Y-110723981D01*
X145204347Y-110761421D01*
X145167609Y-110780141D01*
X145167608Y-110780142D01*
X145167603Y-110780145D01*
X145080145Y-110867603D01*
X145080142Y-110867608D01*
X145023981Y-110977827D01*
X145004632Y-111099997D01*
X145004632Y-111100002D01*
X125236364Y-111100002D01*
X125219859Y-111067610D01*
X125219855Y-111067606D01*
X125219854Y-111067604D01*
X125132396Y-110980146D01*
X125132393Y-110980144D01*
X125132391Y-110980142D01*
X125057484Y-110941975D01*
X125022172Y-110923982D01*
X124900002Y-110904633D01*
X124899998Y-110904633D01*
X124777827Y-110923982D01*
X124704347Y-110961422D01*
X124667609Y-110980142D01*
X124667608Y-110980143D01*
X124667603Y-110980146D01*
X124580145Y-111067604D01*
X124580142Y-111067609D01*
X124523981Y-111177828D01*
X124504632Y-111299998D01*
X124504632Y-111300003D01*
X118362479Y-111300003D01*
X120487143Y-107475608D01*
X133315769Y-107475608D01*
X133318371Y-107495368D01*
X133347261Y-107714802D01*
X133409705Y-107947846D01*
X133409708Y-107947856D01*
X133502031Y-108170743D01*
X133502036Y-108170754D01*
X133622661Y-108379681D01*
X133622672Y-108379697D01*
X133769537Y-108571096D01*
X133769543Y-108571103D01*
X133940133Y-108741693D01*
X133940139Y-108741698D01*
X134131548Y-108888571D01*
X134131555Y-108888575D01*
X134340482Y-109009200D01*
X134340487Y-109009202D01*
X134340490Y-109009204D01*
X134563390Y-109101532D01*
X134796435Y-109163976D01*
X135035636Y-109195468D01*
X135035643Y-109195468D01*
X135276895Y-109195468D01*
X135276902Y-109195468D01*
X135516103Y-109163976D01*
X135749148Y-109101532D01*
X135972048Y-109009204D01*
X136180990Y-108888571D01*
X136372399Y-108741698D01*
X136542999Y-108571098D01*
X136689872Y-108379689D01*
X136810505Y-108170747D01*
X136839808Y-108100002D01*
X150704633Y-108100002D01*
X150723982Y-108222172D01*
X150723984Y-108222175D01*
X150780142Y-108332391D01*
X150780144Y-108332393D01*
X150780146Y-108332396D01*
X150867604Y-108419854D01*
X150867606Y-108419855D01*
X150867610Y-108419859D01*
X150977826Y-108476017D01*
X150977828Y-108476018D01*
X151099999Y-108495368D01*
X151100001Y-108495368D01*
X151100003Y-108495368D01*
X151222173Y-108476018D01*
X151222174Y-108476017D01*
X151222176Y-108476017D01*
X151332392Y-108419859D01*
X151419860Y-108332391D01*
X151476018Y-108222175D01*
X151476018Y-108222173D01*
X151476019Y-108222172D01*
X151495369Y-108100002D01*
X151495369Y-108099997D01*
X151476019Y-107977827D01*
X151460743Y-107947847D01*
X151419860Y-107867609D01*
X151419856Y-107867605D01*
X151419855Y-107867603D01*
X151332397Y-107780145D01*
X151332394Y-107780143D01*
X151332392Y-107780141D01*
X151257485Y-107741974D01*
X151222173Y-107723981D01*
X151100003Y-107704632D01*
X151099999Y-107704632D01*
X150977828Y-107723981D01*
X150904348Y-107761421D01*
X150867610Y-107780141D01*
X150867609Y-107780142D01*
X150867604Y-107780145D01*
X150780146Y-107867603D01*
X150780143Y-107867608D01*
X150723982Y-107977827D01*
X150704633Y-108099997D01*
X150704633Y-108100002D01*
X136839808Y-108100002D01*
X136902833Y-107947847D01*
X136965277Y-107714802D01*
X136996769Y-107475601D01*
X136996769Y-107234335D01*
X136979083Y-107100002D01*
X139504632Y-107100002D01*
X139523981Y-107222172D01*
X139530179Y-107234335D01*
X139580141Y-107332391D01*
X139580143Y-107332393D01*
X139580145Y-107332396D01*
X139667603Y-107419854D01*
X139667605Y-107419855D01*
X139667609Y-107419859D01*
X139776995Y-107475594D01*
X139777827Y-107476018D01*
X139899998Y-107495368D01*
X139900000Y-107495368D01*
X139900002Y-107495368D01*
X140022172Y-107476018D01*
X140022173Y-107476017D01*
X140022175Y-107476017D01*
X140132391Y-107419859D01*
X140219859Y-107332391D01*
X140276017Y-107222175D01*
X140276017Y-107222173D01*
X140276018Y-107222172D01*
X140295368Y-107100002D01*
X140295368Y-107099997D01*
X140276018Y-106977827D01*
X140276017Y-106977825D01*
X140219859Y-106867609D01*
X140219855Y-106867605D01*
X140219854Y-106867603D01*
X140132396Y-106780145D01*
X140132393Y-106780143D01*
X140132391Y-106780141D01*
X140057484Y-106741974D01*
X140022172Y-106723981D01*
X139900002Y-106704632D01*
X139899998Y-106704632D01*
X139777827Y-106723981D01*
X139704347Y-106761421D01*
X139667609Y-106780141D01*
X139667608Y-106780142D01*
X139667603Y-106780145D01*
X139580145Y-106867603D01*
X139580142Y-106867608D01*
X139580141Y-106867609D01*
X139579123Y-106869607D01*
X139523981Y-106977827D01*
X139504632Y-107099997D01*
X139504632Y-107100002D01*
X136979083Y-107100002D01*
X136965277Y-106995134D01*
X136902833Y-106762089D01*
X136814880Y-106549752D01*
X144304633Y-106549752D01*
X144323982Y-106671922D01*
X144323984Y-106671925D01*
X144380142Y-106782141D01*
X144380144Y-106782143D01*
X144380146Y-106782146D01*
X144467604Y-106869604D01*
X144467606Y-106869605D01*
X144467610Y-106869609D01*
X144577826Y-106925767D01*
X144577828Y-106925768D01*
X144699999Y-106945118D01*
X144700001Y-106945118D01*
X144700003Y-106945118D01*
X144822173Y-106925768D01*
X144822174Y-106925767D01*
X144822176Y-106925767D01*
X144932392Y-106869609D01*
X145019860Y-106782141D01*
X145076018Y-106671925D01*
X145076018Y-106671923D01*
X145076019Y-106671922D01*
X145095369Y-106549752D01*
X145095369Y-106549747D01*
X145076019Y-106427577D01*
X145076018Y-106427575D01*
X145061969Y-106400002D01*
X159004632Y-106400002D01*
X159023981Y-106522172D01*
X159038032Y-106549747D01*
X159080141Y-106632391D01*
X159080143Y-106632393D01*
X159080145Y-106632396D01*
X159167603Y-106719854D01*
X159167605Y-106719855D01*
X159167609Y-106719859D01*
X159277825Y-106776017D01*
X159277827Y-106776018D01*
X159399998Y-106795368D01*
X159400000Y-106795368D01*
X159400002Y-106795368D01*
X159522172Y-106776018D01*
X159522173Y-106776017D01*
X159522175Y-106776017D01*
X159632391Y-106719859D01*
X159719859Y-106632391D01*
X159776017Y-106522175D01*
X159776017Y-106522173D01*
X159776018Y-106522172D01*
X159776018Y-106522171D01*
X159777527Y-106512646D01*
X159807456Y-106449511D01*
X159866767Y-106412579D01*
X159936630Y-106413577D01*
X159994863Y-106452186D01*
X160022473Y-106512646D01*
X160023981Y-106522171D01*
X160023981Y-106522172D01*
X160038032Y-106549747D01*
X160080141Y-106632391D01*
X160080143Y-106632393D01*
X160080145Y-106632396D01*
X160167603Y-106719854D01*
X160167605Y-106719855D01*
X160167609Y-106719859D01*
X160277825Y-106776017D01*
X160277827Y-106776018D01*
X160399998Y-106795368D01*
X160400000Y-106795368D01*
X160400002Y-106795368D01*
X160522172Y-106776018D01*
X160522173Y-106776017D01*
X160522175Y-106776017D01*
X160632391Y-106719859D01*
X160719859Y-106632391D01*
X160776017Y-106522175D01*
X160776017Y-106522173D01*
X160776018Y-106522172D01*
X160795368Y-106400002D01*
X160795368Y-106399997D01*
X160776018Y-106277827D01*
X160776017Y-106277825D01*
X160719859Y-106167609D01*
X160719855Y-106167605D01*
X160719854Y-106167603D01*
X160632396Y-106080145D01*
X160632393Y-106080143D01*
X160632391Y-106080141D01*
X160557484Y-106041974D01*
X160522172Y-106023981D01*
X160400002Y-106004632D01*
X160399998Y-106004632D01*
X160277827Y-106023981D01*
X160204347Y-106061421D01*
X160167609Y-106080141D01*
X160167608Y-106080142D01*
X160167603Y-106080145D01*
X160080145Y-106167603D01*
X160080142Y-106167608D01*
X160023981Y-106277827D01*
X160023981Y-106277828D01*
X160022473Y-106287354D01*
X159992543Y-106350489D01*
X159933232Y-106387420D01*
X159863369Y-106386422D01*
X159805137Y-106347812D01*
X159777527Y-106287354D01*
X159776018Y-106277828D01*
X159776018Y-106277827D01*
X159776017Y-106277825D01*
X159719859Y-106167609D01*
X159719855Y-106167605D01*
X159719854Y-106167603D01*
X159632396Y-106080145D01*
X159632393Y-106080143D01*
X159632391Y-106080141D01*
X159557484Y-106041974D01*
X159522172Y-106023981D01*
X159400002Y-106004632D01*
X159399998Y-106004632D01*
X159277827Y-106023981D01*
X159204347Y-106061421D01*
X159167609Y-106080141D01*
X159167608Y-106080142D01*
X159167603Y-106080145D01*
X159080145Y-106167603D01*
X159080142Y-106167608D01*
X159023981Y-106277827D01*
X159004632Y-106399997D01*
X159004632Y-106400002D01*
X145061969Y-106400002D01*
X145019860Y-106317359D01*
X145019856Y-106317355D01*
X145019855Y-106317353D01*
X144932397Y-106229895D01*
X144932394Y-106229893D01*
X144932392Y-106229891D01*
X144857485Y-106191724D01*
X144822173Y-106173731D01*
X144700003Y-106154382D01*
X144699999Y-106154382D01*
X144577828Y-106173731D01*
X144504348Y-106211171D01*
X144467610Y-106229891D01*
X144467609Y-106229892D01*
X144467604Y-106229895D01*
X144380146Y-106317353D01*
X144380143Y-106317358D01*
X144380142Y-106317359D01*
X144373572Y-106330254D01*
X144323982Y-106427577D01*
X144304633Y-106549747D01*
X144304633Y-106549752D01*
X136814880Y-106549752D01*
X136810505Y-106539189D01*
X136810503Y-106539186D01*
X136810501Y-106539181D01*
X136689876Y-106330254D01*
X136689872Y-106330247D01*
X136647582Y-106275133D01*
X136543000Y-106138839D01*
X136542994Y-106138832D01*
X136404164Y-106000002D01*
X152804633Y-106000002D01*
X152823982Y-106122172D01*
X152823984Y-106122175D01*
X152880142Y-106232391D01*
X152880144Y-106232393D01*
X152880146Y-106232396D01*
X152967604Y-106319854D01*
X152967606Y-106319855D01*
X152967610Y-106319859D01*
X153077826Y-106376017D01*
X153077828Y-106376018D01*
X153199999Y-106395368D01*
X153200001Y-106395368D01*
X153200003Y-106395368D01*
X153322173Y-106376018D01*
X153322174Y-106376017D01*
X153322176Y-106376017D01*
X153432392Y-106319859D01*
X153519860Y-106232391D01*
X153576018Y-106122175D01*
X153576018Y-106122173D01*
X153576019Y-106122172D01*
X153595369Y-106000002D01*
X153595369Y-105999997D01*
X153576019Y-105877827D01*
X153576018Y-105877825D01*
X153519860Y-105767609D01*
X153519856Y-105767605D01*
X153519855Y-105767603D01*
X153432397Y-105680145D01*
X153432394Y-105680143D01*
X153432392Y-105680141D01*
X153357485Y-105641974D01*
X153322173Y-105623981D01*
X153200003Y-105604632D01*
X153199999Y-105604632D01*
X153077828Y-105623981D01*
X153004348Y-105661421D01*
X152967610Y-105680141D01*
X152967609Y-105680142D01*
X152967604Y-105680145D01*
X152880146Y-105767603D01*
X152880143Y-105767608D01*
X152823982Y-105877827D01*
X152804633Y-105999997D01*
X152804633Y-106000002D01*
X136404164Y-106000002D01*
X136372404Y-105968242D01*
X136372397Y-105968236D01*
X136180998Y-105821371D01*
X136180996Y-105821369D01*
X136180990Y-105821365D01*
X136180985Y-105821362D01*
X136180982Y-105821360D01*
X135972055Y-105700735D01*
X135972044Y-105700730D01*
X135749157Y-105608407D01*
X135749150Y-105608405D01*
X135749148Y-105608404D01*
X135516103Y-105545960D01*
X135462947Y-105538961D01*
X135276909Y-105514468D01*
X135276902Y-105514468D01*
X135035636Y-105514468D01*
X135035628Y-105514468D01*
X134823012Y-105542460D01*
X134796435Y-105545960D01*
X134577467Y-105604632D01*
X134563390Y-105608404D01*
X134563380Y-105608407D01*
X134340493Y-105700730D01*
X134340482Y-105700735D01*
X134131555Y-105821360D01*
X134131539Y-105821371D01*
X133940140Y-105968236D01*
X133940133Y-105968242D01*
X133769543Y-106138832D01*
X133769537Y-106138839D01*
X133622672Y-106330238D01*
X133622661Y-106330254D01*
X133502036Y-106539181D01*
X133502031Y-106539192D01*
X133409708Y-106762079D01*
X133409705Y-106762089D01*
X133351899Y-106977827D01*
X133347261Y-106995135D01*
X133315769Y-107234327D01*
X133315769Y-107475608D01*
X120487143Y-107475608D01*
X122306923Y-104200003D01*
X127586613Y-104200003D01*
X127605962Y-104322173D01*
X127623593Y-104356775D01*
X127662122Y-104432392D01*
X127662124Y-104432394D01*
X127662126Y-104432397D01*
X127749584Y-104519855D01*
X127749586Y-104519856D01*
X127749590Y-104519860D01*
X127859804Y-104576017D01*
X127859808Y-104576019D01*
X127981979Y-104595369D01*
X127981981Y-104595369D01*
X127981983Y-104595369D01*
X128104153Y-104576019D01*
X128104154Y-104576018D01*
X128104156Y-104576018D01*
X128214372Y-104519860D01*
X128301840Y-104432392D01*
X128357998Y-104322176D01*
X128357998Y-104322174D01*
X128357999Y-104322173D01*
X128357999Y-104322172D01*
X128359508Y-104312647D01*
X128389437Y-104249512D01*
X128448748Y-104212580D01*
X128518611Y-104213578D01*
X128576844Y-104252187D01*
X128604454Y-104312647D01*
X128605962Y-104322172D01*
X128605962Y-104322173D01*
X128623593Y-104356775D01*
X128662122Y-104432392D01*
X128662124Y-104432394D01*
X128662126Y-104432397D01*
X128749584Y-104519855D01*
X128749586Y-104519856D01*
X128749590Y-104519860D01*
X128859804Y-104576017D01*
X128859808Y-104576019D01*
X128981979Y-104595369D01*
X128981981Y-104595369D01*
X128981983Y-104595369D01*
X129104153Y-104576019D01*
X129104154Y-104576018D01*
X129104156Y-104576018D01*
X129214372Y-104519860D01*
X129301840Y-104432392D01*
X129357998Y-104322176D01*
X129357998Y-104322174D01*
X129357999Y-104322173D01*
X129377349Y-104200003D01*
X129377349Y-104199998D01*
X129357999Y-104077828D01*
X129357997Y-104077825D01*
X129318345Y-104000003D01*
X141904632Y-104000003D01*
X141923981Y-104122173D01*
X141923983Y-104122176D01*
X141980141Y-104232392D01*
X141980143Y-104232394D01*
X141980145Y-104232397D01*
X142067603Y-104319855D01*
X142067605Y-104319856D01*
X142067609Y-104319860D01*
X142177825Y-104376018D01*
X142177827Y-104376019D01*
X142299998Y-104395369D01*
X142300000Y-104395369D01*
X142300002Y-104395369D01*
X142422172Y-104376019D01*
X142422173Y-104376018D01*
X142422175Y-104376018D01*
X142512793Y-104329845D01*
X142581459Y-104316949D01*
X142646200Y-104343224D01*
X142686457Y-104400330D01*
X142689450Y-104470136D01*
X142679571Y-104496624D01*
X142638197Y-104577824D01*
X142638196Y-104577827D01*
X142618847Y-104699997D01*
X142618847Y-104700002D01*
X142638196Y-104822172D01*
X142638198Y-104822175D01*
X142694356Y-104932391D01*
X142694358Y-104932393D01*
X142694360Y-104932396D01*
X142781818Y-105019854D01*
X142781820Y-105019855D01*
X142781824Y-105019859D01*
X142892040Y-105076017D01*
X142892042Y-105076018D01*
X143014213Y-105095368D01*
X143014215Y-105095368D01*
X143014217Y-105095368D01*
X143136387Y-105076018D01*
X143136388Y-105076017D01*
X143136390Y-105076017D01*
X143246606Y-105019859D01*
X143334074Y-104932391D01*
X143390232Y-104822175D01*
X143390232Y-104822173D01*
X143390233Y-104822172D01*
X143409583Y-104700002D01*
X143409583Y-104699997D01*
X143390233Y-104577827D01*
X143389311Y-104576017D01*
X143334074Y-104467609D01*
X143334070Y-104467605D01*
X143334069Y-104467603D01*
X143246611Y-104380145D01*
X143246608Y-104380143D01*
X143246606Y-104380141D01*
X143147897Y-104329846D01*
X143136387Y-104323981D01*
X143014217Y-104304632D01*
X143014213Y-104304632D01*
X142892042Y-104323981D01*
X142801423Y-104370155D01*
X142732754Y-104383051D01*
X142668013Y-104356775D01*
X142627756Y-104299668D01*
X142624764Y-104229863D01*
X142634644Y-104203374D01*
X142636362Y-104200003D01*
X142636363Y-104200002D01*
X159004632Y-104200002D01*
X159023981Y-104322172D01*
X159034708Y-104343224D01*
X159080141Y-104432391D01*
X159080143Y-104432393D01*
X159080145Y-104432396D01*
X159167603Y-104519854D01*
X159167605Y-104519855D01*
X159167609Y-104519859D01*
X159277825Y-104576017D01*
X159277827Y-104576018D01*
X159399998Y-104595368D01*
X159400000Y-104595368D01*
X159400002Y-104595368D01*
X159522172Y-104576018D01*
X159522173Y-104576017D01*
X159522175Y-104576017D01*
X159632391Y-104519859D01*
X159719859Y-104432391D01*
X159776017Y-104322175D01*
X159776017Y-104322173D01*
X159776018Y-104322172D01*
X159776018Y-104322171D01*
X159777527Y-104312646D01*
X159807456Y-104249511D01*
X159866767Y-104212579D01*
X159936630Y-104213577D01*
X159994863Y-104252186D01*
X160022473Y-104312646D01*
X160023981Y-104322171D01*
X160023981Y-104322172D01*
X160034708Y-104343224D01*
X160080141Y-104432391D01*
X160080143Y-104432393D01*
X160080145Y-104432396D01*
X160167603Y-104519854D01*
X160167605Y-104519855D01*
X160167609Y-104519859D01*
X160277825Y-104576017D01*
X160277827Y-104576018D01*
X160399998Y-104595368D01*
X160400000Y-104595368D01*
X160400002Y-104595368D01*
X160522172Y-104576018D01*
X160522173Y-104576017D01*
X160522175Y-104576017D01*
X160632391Y-104519859D01*
X160719859Y-104432391D01*
X160776017Y-104322175D01*
X160776017Y-104322173D01*
X160776018Y-104322172D01*
X160795368Y-104200002D01*
X160795368Y-104199997D01*
X160776018Y-104077827D01*
X160776017Y-104077825D01*
X160719859Y-103967609D01*
X160719855Y-103967605D01*
X160719854Y-103967603D01*
X160632396Y-103880145D01*
X160632393Y-103880143D01*
X160632391Y-103880141D01*
X160557484Y-103841974D01*
X160522172Y-103823981D01*
X160400002Y-103804632D01*
X160399998Y-103804632D01*
X160277827Y-103823981D01*
X160204347Y-103861421D01*
X160167609Y-103880141D01*
X160167608Y-103880142D01*
X160167603Y-103880145D01*
X160080145Y-103967603D01*
X160080142Y-103967608D01*
X160080141Y-103967609D01*
X160063638Y-103999998D01*
X160023981Y-104077827D01*
X160023981Y-104077828D01*
X160022473Y-104087354D01*
X159992543Y-104150489D01*
X159933232Y-104187420D01*
X159863369Y-104186422D01*
X159805137Y-104147812D01*
X159777527Y-104087354D01*
X159776018Y-104077828D01*
X159776018Y-104077827D01*
X159776017Y-104077825D01*
X159719859Y-103967609D01*
X159719855Y-103967605D01*
X159719854Y-103967603D01*
X159632396Y-103880145D01*
X159632393Y-103880143D01*
X159632391Y-103880141D01*
X159557484Y-103841974D01*
X159522172Y-103823981D01*
X159400002Y-103804632D01*
X159399998Y-103804632D01*
X159277827Y-103823981D01*
X159204347Y-103861421D01*
X159167609Y-103880141D01*
X159167608Y-103880142D01*
X159167603Y-103880145D01*
X159080145Y-103967603D01*
X159080142Y-103967608D01*
X159080141Y-103967609D01*
X159063638Y-103999998D01*
X159023981Y-104077827D01*
X159004632Y-104199997D01*
X159004632Y-104200002D01*
X142636363Y-104200002D01*
X142676017Y-104122176D01*
X142676017Y-104122174D01*
X142676018Y-104122173D01*
X142695368Y-104000003D01*
X142695368Y-103999998D01*
X142676018Y-103877828D01*
X142676017Y-103877826D01*
X142619859Y-103767610D01*
X142619855Y-103767606D01*
X142619854Y-103767604D01*
X142532396Y-103680146D01*
X142532393Y-103680144D01*
X142532391Y-103680142D01*
X142457484Y-103641975D01*
X142422172Y-103623982D01*
X142300002Y-103604633D01*
X142299998Y-103604633D01*
X142177827Y-103623982D01*
X142104347Y-103661422D01*
X142067609Y-103680142D01*
X142067608Y-103680143D01*
X142067603Y-103680146D01*
X141980145Y-103767604D01*
X141980142Y-103767609D01*
X141923981Y-103877828D01*
X141904632Y-103999998D01*
X141904632Y-104000003D01*
X129318345Y-104000003D01*
X129301840Y-103967610D01*
X129301836Y-103967606D01*
X129301835Y-103967604D01*
X129214377Y-103880146D01*
X129214374Y-103880144D01*
X129214372Y-103880142D01*
X129139465Y-103841975D01*
X129104153Y-103823982D01*
X128981983Y-103804633D01*
X128981979Y-103804633D01*
X128859808Y-103823982D01*
X128786328Y-103861422D01*
X128749590Y-103880142D01*
X128749589Y-103880143D01*
X128749584Y-103880146D01*
X128662126Y-103967604D01*
X128662124Y-103967608D01*
X128662122Y-103967610D01*
X128645618Y-104000001D01*
X128605962Y-104077828D01*
X128605962Y-104077829D01*
X128604454Y-104087355D01*
X128574524Y-104150490D01*
X128515213Y-104187421D01*
X128445350Y-104186423D01*
X128387118Y-104147813D01*
X128359508Y-104087355D01*
X128357999Y-104077829D01*
X128357999Y-104077828D01*
X128357997Y-104077825D01*
X128301840Y-103967610D01*
X128301836Y-103967606D01*
X128301835Y-103967604D01*
X128214377Y-103880146D01*
X128214374Y-103880144D01*
X128214372Y-103880142D01*
X128139465Y-103841975D01*
X128104153Y-103823982D01*
X127981983Y-103804633D01*
X127981979Y-103804633D01*
X127859808Y-103823982D01*
X127786328Y-103861422D01*
X127749590Y-103880142D01*
X127749589Y-103880143D01*
X127749584Y-103880146D01*
X127662126Y-103967604D01*
X127662124Y-103967608D01*
X127662122Y-103967610D01*
X127645618Y-104000001D01*
X127605962Y-104077828D01*
X127586613Y-104199998D01*
X127586613Y-104200003D01*
X122306923Y-104200003D01*
X122918035Y-103100002D01*
X156404632Y-103100002D01*
X156423981Y-103222172D01*
X156423983Y-103222175D01*
X156480141Y-103332391D01*
X156480143Y-103332393D01*
X156480145Y-103332396D01*
X156567603Y-103419854D01*
X156567605Y-103419855D01*
X156567609Y-103419859D01*
X156677825Y-103476017D01*
X156677827Y-103476018D01*
X156799998Y-103495368D01*
X156800000Y-103495368D01*
X156800002Y-103495368D01*
X156922172Y-103476018D01*
X156922173Y-103476017D01*
X156922175Y-103476017D01*
X157032391Y-103419859D01*
X157119859Y-103332391D01*
X157176017Y-103222175D01*
X157176017Y-103222173D01*
X157176018Y-103222172D01*
X157195368Y-103100002D01*
X157195368Y-103099997D01*
X157176018Y-102977827D01*
X157176017Y-102977825D01*
X157119859Y-102867609D01*
X157119855Y-102867605D01*
X157119854Y-102867603D01*
X157032396Y-102780145D01*
X157032393Y-102780143D01*
X157032391Y-102780141D01*
X156957484Y-102741974D01*
X156922172Y-102723981D01*
X156800002Y-102704632D01*
X156799998Y-102704632D01*
X156677827Y-102723981D01*
X156604347Y-102761421D01*
X156567609Y-102780141D01*
X156567608Y-102780142D01*
X156567603Y-102780145D01*
X156480145Y-102867603D01*
X156480142Y-102867608D01*
X156423981Y-102977827D01*
X156404632Y-103099997D01*
X156404632Y-103100002D01*
X122918035Y-103100002D01*
X123306923Y-102400003D01*
X130386614Y-102400003D01*
X130405963Y-102522173D01*
X130405965Y-102522176D01*
X130462123Y-102632392D01*
X130462125Y-102632394D01*
X130462127Y-102632397D01*
X130549585Y-102719855D01*
X130549587Y-102719856D01*
X130549591Y-102719860D01*
X130659807Y-102776018D01*
X130659809Y-102776019D01*
X130781980Y-102795369D01*
X130781982Y-102795369D01*
X130781984Y-102795369D01*
X130904154Y-102776019D01*
X130904155Y-102776018D01*
X130904157Y-102776018D01*
X131014373Y-102719860D01*
X131101841Y-102632392D01*
X131157999Y-102522176D01*
X131157999Y-102522174D01*
X131158000Y-102522173D01*
X131177350Y-102400003D01*
X131177350Y-102399998D01*
X131167652Y-102338767D01*
X131176607Y-102269473D01*
X131221603Y-102216021D01*
X131272860Y-102200172D01*
X131272342Y-102196896D01*
X131404153Y-102176019D01*
X131404154Y-102176018D01*
X131404156Y-102176018D01*
X131514372Y-102119860D01*
X131601840Y-102032392D01*
X131657998Y-101922176D01*
X131657998Y-101922174D01*
X131657999Y-101922173D01*
X131677349Y-101800003D01*
X131677349Y-101799998D01*
X131657999Y-101677828D01*
X131629642Y-101622175D01*
X131601840Y-101567610D01*
X131601836Y-101567606D01*
X131601835Y-101567604D01*
X131534233Y-101500002D01*
X135504633Y-101500002D01*
X135523982Y-101622172D01*
X135523984Y-101622175D01*
X135580142Y-101732391D01*
X135580144Y-101732393D01*
X135580146Y-101732396D01*
X135667604Y-101819854D01*
X135667606Y-101819855D01*
X135667610Y-101819859D01*
X135777826Y-101876017D01*
X135777828Y-101876018D01*
X135899999Y-101895368D01*
X135900001Y-101895368D01*
X135900003Y-101895368D01*
X136022173Y-101876018D01*
X136022174Y-101876017D01*
X136022176Y-101876017D01*
X136132392Y-101819859D01*
X136219860Y-101732391D01*
X136276018Y-101622175D01*
X136276018Y-101622173D01*
X136276019Y-101622172D01*
X136295369Y-101500002D01*
X153404632Y-101500002D01*
X153423981Y-101622172D01*
X153423983Y-101622175D01*
X153480141Y-101732391D01*
X153480143Y-101732393D01*
X153480145Y-101732396D01*
X153567603Y-101819854D01*
X153567605Y-101819855D01*
X153567609Y-101819859D01*
X153677825Y-101876017D01*
X153677827Y-101876018D01*
X153799998Y-101895368D01*
X153800000Y-101895368D01*
X153800002Y-101895368D01*
X153922172Y-101876018D01*
X153922173Y-101876017D01*
X153922175Y-101876017D01*
X154032391Y-101819859D01*
X154119859Y-101732391D01*
X154176017Y-101622175D01*
X154176017Y-101622173D01*
X154176018Y-101622172D01*
X154195368Y-101500002D01*
X154195368Y-101499998D01*
X154183557Y-101425428D01*
X154192511Y-101356135D01*
X154237507Y-101302683D01*
X154304259Y-101282043D01*
X154325428Y-101283557D01*
X154399998Y-101295368D01*
X154400000Y-101295368D01*
X154400002Y-101295368D01*
X154522172Y-101276018D01*
X154522173Y-101276017D01*
X154522175Y-101276017D01*
X154632391Y-101219859D01*
X154719859Y-101132391D01*
X154776017Y-101022175D01*
X154776017Y-101022173D01*
X154776018Y-101022172D01*
X154795368Y-100900002D01*
X154795368Y-100899997D01*
X154776018Y-100777827D01*
X154776017Y-100777825D01*
X154719859Y-100667609D01*
X154719855Y-100667605D01*
X154719854Y-100667603D01*
X154632396Y-100580145D01*
X154632393Y-100580143D01*
X154632391Y-100580141D01*
X154557484Y-100541974D01*
X154522172Y-100523981D01*
X154400002Y-100504632D01*
X154399998Y-100504632D01*
X154277827Y-100523981D01*
X154204347Y-100561421D01*
X154167609Y-100580141D01*
X154167608Y-100580142D01*
X154167603Y-100580145D01*
X154080145Y-100667603D01*
X154080142Y-100667608D01*
X154023981Y-100777827D01*
X154004632Y-100899997D01*
X154004632Y-100900003D01*
X154016442Y-100974572D01*
X154007487Y-101043865D01*
X153962491Y-101097317D01*
X153895739Y-101117956D01*
X153874572Y-101116442D01*
X153800003Y-101104632D01*
X153799998Y-101104632D01*
X153677827Y-101123981D01*
X153604347Y-101161421D01*
X153567609Y-101180141D01*
X153567608Y-101180142D01*
X153567603Y-101180145D01*
X153480145Y-101267603D01*
X153480142Y-101267608D01*
X153480141Y-101267609D01*
X153472015Y-101283557D01*
X153423981Y-101377827D01*
X153404632Y-101499997D01*
X153404632Y-101500002D01*
X136295369Y-101500002D01*
X136295369Y-101499997D01*
X136276019Y-101377827D01*
X136264966Y-101356135D01*
X136219860Y-101267609D01*
X136219856Y-101267605D01*
X136219855Y-101267603D01*
X136132397Y-101180145D01*
X136132394Y-101180143D01*
X136132392Y-101180141D01*
X136057485Y-101141974D01*
X136022173Y-101123981D01*
X135900003Y-101104632D01*
X135899999Y-101104632D01*
X135777828Y-101123981D01*
X135704348Y-101161421D01*
X135667610Y-101180141D01*
X135667609Y-101180142D01*
X135667604Y-101180145D01*
X135580146Y-101267603D01*
X135580143Y-101267608D01*
X135580142Y-101267609D01*
X135572016Y-101283557D01*
X135523982Y-101377827D01*
X135504633Y-101499997D01*
X135504633Y-101500002D01*
X131534233Y-101500002D01*
X131514377Y-101480146D01*
X131514374Y-101480144D01*
X131514372Y-101480142D01*
X131439465Y-101441975D01*
X131404153Y-101423982D01*
X131281983Y-101404633D01*
X131281979Y-101404633D01*
X131159808Y-101423982D01*
X131086328Y-101461422D01*
X131049590Y-101480142D01*
X131049589Y-101480143D01*
X131049584Y-101480146D01*
X130962126Y-101567604D01*
X130962123Y-101567609D01*
X130905962Y-101677828D01*
X130886613Y-101799998D01*
X130886613Y-101800003D01*
X130896311Y-101861235D01*
X130887356Y-101930529D01*
X130842360Y-101983981D01*
X130791102Y-101999829D01*
X130791621Y-102003106D01*
X130659809Y-102023982D01*
X130586329Y-102061422D01*
X130549591Y-102080142D01*
X130549590Y-102080143D01*
X130549585Y-102080146D01*
X130462127Y-102167604D01*
X130462124Y-102167609D01*
X130462123Y-102167610D01*
X130447979Y-102195369D01*
X130405963Y-102277828D01*
X130386614Y-102399998D01*
X130386614Y-102400003D01*
X123306923Y-102400003D01*
X125362479Y-98700002D01*
X127104632Y-98700002D01*
X127123981Y-98822172D01*
X127125941Y-98826018D01*
X127180141Y-98932391D01*
X127180143Y-98932393D01*
X127180145Y-98932396D01*
X127267603Y-99019854D01*
X127267605Y-99019855D01*
X127267609Y-99019859D01*
X127377825Y-99076017D01*
X127377827Y-99076018D01*
X127499998Y-99095368D01*
X127500000Y-99095368D01*
X127500002Y-99095368D01*
X127622172Y-99076018D01*
X127622173Y-99076017D01*
X127622175Y-99076017D01*
X127732391Y-99019859D01*
X127819859Y-98932391D01*
X127876017Y-98822175D01*
X127876017Y-98822173D01*
X127876018Y-98822172D01*
X127895368Y-98700002D01*
X129604632Y-98700002D01*
X129623981Y-98822172D01*
X129625941Y-98826018D01*
X129680141Y-98932391D01*
X129680143Y-98932393D01*
X129680145Y-98932396D01*
X129767603Y-99019854D01*
X129767605Y-99019855D01*
X129767609Y-99019859D01*
X129877825Y-99076017D01*
X129877827Y-99076018D01*
X129999998Y-99095368D01*
X130000000Y-99095368D01*
X130000002Y-99095368D01*
X130122172Y-99076018D01*
X130122173Y-99076017D01*
X130122175Y-99076017D01*
X130232391Y-99019859D01*
X130319859Y-98932391D01*
X130376017Y-98822175D01*
X130376017Y-98822173D01*
X130376018Y-98822172D01*
X130395368Y-98700002D01*
X130395368Y-98699997D01*
X130376018Y-98577827D01*
X130359956Y-98546304D01*
X130319859Y-98467609D01*
X130319855Y-98467605D01*
X130319854Y-98467603D01*
X130232396Y-98380145D01*
X130232393Y-98380143D01*
X130232391Y-98380141D01*
X130157484Y-98341974D01*
X130122172Y-98323981D01*
X130000002Y-98304632D01*
X129999998Y-98304632D01*
X129877827Y-98323981D01*
X129817673Y-98354632D01*
X129767609Y-98380141D01*
X129767608Y-98380142D01*
X129767603Y-98380145D01*
X129680145Y-98467603D01*
X129680142Y-98467608D01*
X129680141Y-98467609D01*
X129661421Y-98504347D01*
X129623981Y-98577827D01*
X129604632Y-98699997D01*
X129604632Y-98700002D01*
X127895368Y-98700002D01*
X127895368Y-98699997D01*
X127876018Y-98577827D01*
X127859956Y-98546304D01*
X127819859Y-98467609D01*
X127819855Y-98467605D01*
X127819854Y-98467603D01*
X127732396Y-98380145D01*
X127732393Y-98380143D01*
X127732391Y-98380141D01*
X127657484Y-98341974D01*
X127622172Y-98323981D01*
X127500002Y-98304632D01*
X127499998Y-98304632D01*
X127377827Y-98323981D01*
X127317673Y-98354632D01*
X127267609Y-98380141D01*
X127267608Y-98380142D01*
X127267603Y-98380145D01*
X127180145Y-98467603D01*
X127180142Y-98467608D01*
X127180141Y-98467609D01*
X127161421Y-98504347D01*
X127123981Y-98577827D01*
X127104632Y-98699997D01*
X127104632Y-98700002D01*
X125362479Y-98700002D01*
X125751368Y-98000002D01*
X145204632Y-98000002D01*
X145223981Y-98122172D01*
X145223983Y-98122175D01*
X145280141Y-98232391D01*
X145280143Y-98232393D01*
X145280145Y-98232396D01*
X145367603Y-98319854D01*
X145367605Y-98319855D01*
X145367609Y-98319859D01*
X145473829Y-98373981D01*
X145477827Y-98376018D01*
X145548433Y-98387201D01*
X145611568Y-98417130D01*
X145648499Y-98476442D01*
X145647501Y-98546304D01*
X145608891Y-98604537D01*
X145585330Y-98620159D01*
X145467608Y-98680141D01*
X145467603Y-98680145D01*
X145380145Y-98767603D01*
X145380142Y-98767608D01*
X145380141Y-98767609D01*
X145378996Y-98769857D01*
X145323981Y-98877827D01*
X145304632Y-98999997D01*
X145304632Y-99000002D01*
X145323981Y-99122172D01*
X145325941Y-99126018D01*
X145380141Y-99232391D01*
X145380143Y-99232393D01*
X145380145Y-99232396D01*
X145467603Y-99319854D01*
X145467605Y-99319855D01*
X145467609Y-99319859D01*
X145571914Y-99373005D01*
X145577827Y-99376018D01*
X145699998Y-99395368D01*
X145700000Y-99395368D01*
X145700002Y-99395368D01*
X145822172Y-99376018D01*
X145822173Y-99376017D01*
X145822175Y-99376017D01*
X145932391Y-99319859D01*
X146019859Y-99232391D01*
X146076017Y-99122175D01*
X146076017Y-99122173D01*
X146076018Y-99122172D01*
X146095368Y-99000002D01*
X146095368Y-98999997D01*
X146076018Y-98877827D01*
X146059479Y-98845368D01*
X146019859Y-98767609D01*
X146019855Y-98767605D01*
X146019854Y-98767603D01*
X145932396Y-98680145D01*
X145932393Y-98680143D01*
X145932391Y-98680141D01*
X145857484Y-98641974D01*
X145822172Y-98623981D01*
X145751565Y-98612798D01*
X145688430Y-98582868D01*
X145651500Y-98523556D01*
X145652498Y-98453693D01*
X145691109Y-98395461D01*
X145714670Y-98379840D01*
X145722172Y-98376017D01*
X145722175Y-98376017D01*
X145832391Y-98319859D01*
X145919859Y-98232391D01*
X145976017Y-98122175D01*
X145976017Y-98122173D01*
X145976018Y-98122172D01*
X145995368Y-98000002D01*
X145995368Y-97999997D01*
X145976018Y-97877827D01*
X145976017Y-97877825D01*
X145936365Y-97800003D01*
X148904633Y-97800003D01*
X148923982Y-97922173D01*
X148923984Y-97922176D01*
X148980142Y-98032392D01*
X148980144Y-98032394D01*
X148980146Y-98032397D01*
X149067604Y-98119855D01*
X149067606Y-98119856D01*
X149067610Y-98119860D01*
X149177826Y-98176018D01*
X149191177Y-98178132D01*
X149254311Y-98208061D01*
X149291243Y-98267372D01*
X149290247Y-98337234D01*
X149259462Y-98388286D01*
X149230145Y-98417602D01*
X149230142Y-98417608D01*
X149230141Y-98417609D01*
X149213637Y-98450000D01*
X149173981Y-98527827D01*
X149154632Y-98649997D01*
X149154632Y-98650002D01*
X149173981Y-98772172D01*
X149173983Y-98772175D01*
X149230141Y-98882391D01*
X149230143Y-98882393D01*
X149230145Y-98882396D01*
X149317603Y-98969854D01*
X149317605Y-98969855D01*
X149317609Y-98969859D01*
X149427825Y-99026017D01*
X149427827Y-99026018D01*
X149549998Y-99045368D01*
X149550000Y-99045368D01*
X149550002Y-99045368D01*
X149672172Y-99026018D01*
X149672173Y-99026017D01*
X149672175Y-99026017D01*
X149782391Y-98969859D01*
X149869859Y-98882391D01*
X149926017Y-98772175D01*
X149926017Y-98772173D01*
X149926018Y-98772172D01*
X149929529Y-98750002D01*
X150254632Y-98750002D01*
X150273981Y-98872172D01*
X150276863Y-98877828D01*
X150330141Y-98982391D01*
X150330143Y-98982393D01*
X150330145Y-98982396D01*
X150417603Y-99069854D01*
X150417605Y-99069855D01*
X150417609Y-99069859D01*
X150520279Y-99122172D01*
X150527827Y-99126018D01*
X150649998Y-99145368D01*
X150650000Y-99145368D01*
X150650002Y-99145368D01*
X150772172Y-99126018D01*
X150772173Y-99126017D01*
X150772175Y-99126017D01*
X150882391Y-99069859D01*
X150952247Y-99000003D01*
X155404632Y-99000003D01*
X155423981Y-99122173D01*
X155435800Y-99145368D01*
X155480141Y-99232392D01*
X155480143Y-99232394D01*
X155480145Y-99232397D01*
X155574509Y-99326761D01*
X155572874Y-99328395D01*
X155607284Y-99373005D01*
X155613273Y-99442617D01*
X155598496Y-99476251D01*
X155600185Y-99477112D01*
X155595755Y-99485805D01*
X155595754Y-99485807D01*
X155575706Y-99525152D01*
X155539594Y-99596025D01*
X155520245Y-99718195D01*
X155520245Y-99718200D01*
X155539594Y-99840370D01*
X155539596Y-99840373D01*
X155595754Y-99950589D01*
X155595756Y-99950591D01*
X155595758Y-99950594D01*
X155683216Y-100038052D01*
X155683218Y-100038053D01*
X155683222Y-100038057D01*
X155793438Y-100094215D01*
X155793440Y-100094216D01*
X155915611Y-100113566D01*
X155915613Y-100113566D01*
X155915615Y-100113566D01*
X156037785Y-100094216D01*
X156037786Y-100094215D01*
X156037788Y-100094215D01*
X156148004Y-100038057D01*
X156235472Y-99950589D01*
X156291630Y-99840373D01*
X156291630Y-99840371D01*
X156291631Y-99840370D01*
X156310981Y-99718200D01*
X156310981Y-99718195D01*
X156291631Y-99596025D01*
X156291630Y-99596023D01*
X156235472Y-99485807D01*
X156235468Y-99485803D01*
X156235467Y-99485801D01*
X156141104Y-99391438D01*
X156142737Y-99389804D01*
X156108327Y-99345189D01*
X156102340Y-99275576D01*
X156117121Y-99241949D01*
X156115428Y-99241087D01*
X156119857Y-99232393D01*
X156119859Y-99232392D01*
X156176017Y-99122176D01*
X156176017Y-99122174D01*
X156176018Y-99122173D01*
X156195368Y-99000003D01*
X156195368Y-98999998D01*
X156176018Y-98877828D01*
X156173136Y-98872172D01*
X156119859Y-98767610D01*
X156119855Y-98767606D01*
X156119854Y-98767604D01*
X156032396Y-98680146D01*
X156032393Y-98680144D01*
X156032391Y-98680142D01*
X155957484Y-98641975D01*
X155922172Y-98623982D01*
X155800002Y-98604633D01*
X155799998Y-98604633D01*
X155677827Y-98623982D01*
X155604347Y-98661422D01*
X155567609Y-98680142D01*
X155567608Y-98680143D01*
X155567603Y-98680146D01*
X155480145Y-98767604D01*
X155480143Y-98767608D01*
X155480141Y-98767610D01*
X155477817Y-98772172D01*
X155423981Y-98877828D01*
X155404632Y-98999998D01*
X155404632Y-99000003D01*
X150952247Y-99000003D01*
X150969859Y-98982391D01*
X151026017Y-98872175D01*
X151026017Y-98872173D01*
X151026018Y-98872172D01*
X151045368Y-98750002D01*
X151045368Y-98749997D01*
X151026018Y-98627827D01*
X151014200Y-98604633D01*
X150969859Y-98517609D01*
X150969855Y-98517605D01*
X150969854Y-98517603D01*
X150902253Y-98450002D01*
X151754632Y-98450002D01*
X151773981Y-98572172D01*
X151779431Y-98582868D01*
X151830141Y-98682391D01*
X151830143Y-98682393D01*
X151830145Y-98682396D01*
X151917603Y-98769854D01*
X151917605Y-98769855D01*
X151917609Y-98769859D01*
X152020279Y-98822172D01*
X152027827Y-98826018D01*
X152149998Y-98845368D01*
X152150000Y-98845368D01*
X152150002Y-98845368D01*
X152272172Y-98826018D01*
X152272173Y-98826017D01*
X152272175Y-98826017D01*
X152382391Y-98769859D01*
X152469859Y-98682391D01*
X152526017Y-98572175D01*
X152526017Y-98572173D01*
X152526018Y-98572172D01*
X152545368Y-98450002D01*
X152545368Y-98449997D01*
X152526018Y-98327827D01*
X152521957Y-98319857D01*
X152469859Y-98217609D01*
X152469855Y-98217605D01*
X152469854Y-98217603D01*
X152382396Y-98130145D01*
X152382393Y-98130143D01*
X152382391Y-98130141D01*
X152307484Y-98091974D01*
X152272172Y-98073981D01*
X152150002Y-98054632D01*
X152149998Y-98054632D01*
X152027827Y-98073981D01*
X151954347Y-98111421D01*
X151917609Y-98130141D01*
X151917608Y-98130142D01*
X151917603Y-98130145D01*
X151830145Y-98217603D01*
X151830142Y-98217608D01*
X151773981Y-98327827D01*
X151754632Y-98449997D01*
X151754632Y-98450002D01*
X150902253Y-98450002D01*
X150882396Y-98430145D01*
X150882393Y-98430143D01*
X150882391Y-98430141D01*
X150784261Y-98380141D01*
X150772172Y-98373981D01*
X150650002Y-98354632D01*
X150649998Y-98354632D01*
X150527827Y-98373981D01*
X150454347Y-98411421D01*
X150417609Y-98430141D01*
X150417608Y-98430142D01*
X150417603Y-98430145D01*
X150330145Y-98517603D01*
X150330142Y-98517608D01*
X150273981Y-98627827D01*
X150254632Y-98749997D01*
X150254632Y-98750002D01*
X149929529Y-98750002D01*
X149945368Y-98650002D01*
X149945368Y-98649997D01*
X149926018Y-98527827D01*
X149920811Y-98517608D01*
X149869859Y-98417609D01*
X149869855Y-98417605D01*
X149869854Y-98417603D01*
X149782396Y-98330145D01*
X149782393Y-98330143D01*
X149782391Y-98330141D01*
X149672175Y-98273983D01*
X149672173Y-98273982D01*
X149672172Y-98273982D01*
X149658820Y-98271867D01*
X149595686Y-98241936D01*
X149558756Y-98182624D01*
X149559755Y-98112762D01*
X149590540Y-98061712D01*
X149619856Y-98032396D01*
X149619860Y-98032392D01*
X149676018Y-97922176D01*
X149676018Y-97922174D01*
X149676019Y-97922173D01*
X149695369Y-97800003D01*
X149695369Y-97799998D01*
X149676019Y-97677828D01*
X149676018Y-97677826D01*
X149619860Y-97567610D01*
X149619856Y-97567606D01*
X149619855Y-97567604D01*
X149532397Y-97480146D01*
X149532394Y-97480144D01*
X149532392Y-97480142D01*
X149457485Y-97441975D01*
X149422173Y-97423982D01*
X149300003Y-97404633D01*
X149299999Y-97404633D01*
X149177828Y-97423982D01*
X149104348Y-97461422D01*
X149067610Y-97480142D01*
X149067609Y-97480143D01*
X149067604Y-97480146D01*
X148980146Y-97567604D01*
X148980143Y-97567609D01*
X148923982Y-97677828D01*
X148904633Y-97799998D01*
X148904633Y-97800003D01*
X145936365Y-97800003D01*
X145919859Y-97767609D01*
X145919855Y-97767605D01*
X145919854Y-97767603D01*
X145832396Y-97680145D01*
X145832393Y-97680143D01*
X145832391Y-97680141D01*
X145757484Y-97641974D01*
X145722172Y-97623981D01*
X145600002Y-97604632D01*
X145599998Y-97604632D01*
X145477827Y-97623981D01*
X145404347Y-97661421D01*
X145367609Y-97680141D01*
X145367608Y-97680142D01*
X145367603Y-97680145D01*
X145280145Y-97767603D01*
X145280142Y-97767608D01*
X145223981Y-97877827D01*
X145204632Y-97999997D01*
X145204632Y-98000002D01*
X125751368Y-98000002D01*
X127418034Y-95000003D01*
X131904632Y-95000003D01*
X131923981Y-95122173D01*
X131923983Y-95122176D01*
X131980141Y-95232392D01*
X131980143Y-95232394D01*
X131980145Y-95232397D01*
X132067603Y-95319855D01*
X132067605Y-95319856D01*
X132067609Y-95319860D01*
X132177825Y-95376018D01*
X132177827Y-95376019D01*
X132299998Y-95395369D01*
X132300000Y-95395369D01*
X132300002Y-95395369D01*
X132422172Y-95376019D01*
X132422173Y-95376018D01*
X132422175Y-95376018D01*
X132532391Y-95319860D01*
X132552248Y-95300003D01*
X149504632Y-95300003D01*
X149523981Y-95422173D01*
X149523983Y-95422176D01*
X149580141Y-95532392D01*
X149580143Y-95532394D01*
X149580145Y-95532397D01*
X149667603Y-95619855D01*
X149667605Y-95619856D01*
X149667609Y-95619860D01*
X149777825Y-95676018D01*
X149777827Y-95676019D01*
X149899998Y-95695369D01*
X149900000Y-95695369D01*
X149900002Y-95695369D01*
X150022172Y-95676019D01*
X150022173Y-95676018D01*
X150022175Y-95676018D01*
X150132391Y-95619860D01*
X150219859Y-95532392D01*
X150276017Y-95422176D01*
X150276017Y-95422174D01*
X150276018Y-95422173D01*
X150295368Y-95300003D01*
X150295368Y-95299998D01*
X150276018Y-95177828D01*
X150276017Y-95177826D01*
X150219859Y-95067610D01*
X150219855Y-95067606D01*
X150219854Y-95067604D01*
X150132396Y-94980146D01*
X150132393Y-94980144D01*
X150132391Y-94980142D01*
X150057484Y-94941975D01*
X150022172Y-94923982D01*
X149900002Y-94904633D01*
X149899998Y-94904633D01*
X149777827Y-94923982D01*
X149704347Y-94961422D01*
X149667609Y-94980142D01*
X149667608Y-94980143D01*
X149667603Y-94980146D01*
X149580145Y-95067604D01*
X149580142Y-95067609D01*
X149523981Y-95177828D01*
X149504632Y-95299998D01*
X149504632Y-95300003D01*
X132552248Y-95300003D01*
X132619859Y-95232392D01*
X132676017Y-95122176D01*
X132676017Y-95122174D01*
X132676018Y-95122173D01*
X132695368Y-95000003D01*
X132695368Y-94999998D01*
X132676018Y-94877828D01*
X132676017Y-94877826D01*
X132619859Y-94767610D01*
X132619855Y-94767606D01*
X132619854Y-94767604D01*
X132532396Y-94680146D01*
X132532393Y-94680144D01*
X132532391Y-94680142D01*
X132457484Y-94641975D01*
X132422172Y-94623982D01*
X132300002Y-94604633D01*
X132299998Y-94604633D01*
X132177827Y-94623982D01*
X132104347Y-94661422D01*
X132067609Y-94680142D01*
X132067608Y-94680143D01*
X132067603Y-94680146D01*
X131980145Y-94767604D01*
X131980142Y-94767609D01*
X131923981Y-94877828D01*
X131904632Y-94999998D01*
X131904632Y-95000003D01*
X127418034Y-95000003D01*
X127900227Y-94132056D01*
X142438768Y-94132056D01*
X142458117Y-94254226D01*
X142476110Y-94289538D01*
X142514277Y-94364445D01*
X142514279Y-94364447D01*
X142514281Y-94364450D01*
X142601739Y-94451908D01*
X142601741Y-94451909D01*
X142601745Y-94451913D01*
X142711961Y-94508071D01*
X142711963Y-94508072D01*
X142834134Y-94527422D01*
X142834136Y-94527422D01*
X142834138Y-94527422D01*
X142956308Y-94508072D01*
X142956309Y-94508071D01*
X142956311Y-94508071D01*
X143066527Y-94451913D01*
X143153995Y-94364445D01*
X143186830Y-94300002D01*
X148504633Y-94300002D01*
X148523982Y-94422172D01*
X148523984Y-94422175D01*
X148580142Y-94532391D01*
X148580144Y-94532393D01*
X148580146Y-94532396D01*
X148667604Y-94619854D01*
X148667606Y-94619855D01*
X148667610Y-94619859D01*
X148777826Y-94676017D01*
X148777828Y-94676018D01*
X148899999Y-94695368D01*
X148900001Y-94695368D01*
X148900003Y-94695368D01*
X149022173Y-94676018D01*
X149022174Y-94676017D01*
X149022176Y-94676017D01*
X149132392Y-94619859D01*
X149219860Y-94532391D01*
X149276018Y-94422175D01*
X149276018Y-94422173D01*
X149276019Y-94422172D01*
X149295369Y-94300002D01*
X149295369Y-94299997D01*
X149276019Y-94177827D01*
X149252696Y-94132054D01*
X149219860Y-94067609D01*
X149219856Y-94067605D01*
X149219855Y-94067603D01*
X149152254Y-94000002D01*
X165004632Y-94000002D01*
X165023981Y-94122172D01*
X165041974Y-94157484D01*
X165080141Y-94232391D01*
X165080143Y-94232393D01*
X165080145Y-94232396D01*
X165167603Y-94319854D01*
X165167605Y-94319855D01*
X165167609Y-94319859D01*
X165255114Y-94364445D01*
X165277827Y-94376018D01*
X165399998Y-94395368D01*
X165400000Y-94395368D01*
X165400002Y-94395368D01*
X165522172Y-94376018D01*
X165522173Y-94376017D01*
X165522175Y-94376017D01*
X165632391Y-94319859D01*
X165662317Y-94289933D01*
X165723639Y-94256447D01*
X165793331Y-94261431D01*
X165837680Y-94289932D01*
X165867603Y-94319855D01*
X165867605Y-94319856D01*
X165867609Y-94319860D01*
X165955112Y-94364445D01*
X165977827Y-94376019D01*
X166099998Y-94395369D01*
X166100000Y-94395369D01*
X166100002Y-94395369D01*
X166222172Y-94376019D01*
X166222173Y-94376018D01*
X166222175Y-94376018D01*
X166332391Y-94319860D01*
X166419859Y-94232392D01*
X166476017Y-94122176D01*
X166476017Y-94122174D01*
X166476018Y-94122173D01*
X166495368Y-94000003D01*
X166495368Y-93999998D01*
X166476018Y-93877828D01*
X166475095Y-93876017D01*
X166419859Y-93767610D01*
X166419855Y-93767606D01*
X166419854Y-93767604D01*
X166332396Y-93680146D01*
X166332393Y-93680144D01*
X166332391Y-93680142D01*
X166257484Y-93641975D01*
X166222172Y-93623982D01*
X166100002Y-93604633D01*
X166099998Y-93604633D01*
X165977827Y-93623982D01*
X165904347Y-93661422D01*
X165867609Y-93680142D01*
X165867608Y-93680143D01*
X165867602Y-93680146D01*
X165837680Y-93710069D01*
X165776356Y-93743554D01*
X165706665Y-93738568D01*
X165662319Y-93710068D01*
X165632396Y-93680145D01*
X165632393Y-93680143D01*
X165632391Y-93680141D01*
X165557484Y-93641974D01*
X165522172Y-93623981D01*
X165400002Y-93604632D01*
X165399998Y-93604632D01*
X165277827Y-93623981D01*
X165204347Y-93661421D01*
X165167609Y-93680141D01*
X165167608Y-93680142D01*
X165167603Y-93680145D01*
X165080145Y-93767603D01*
X165080142Y-93767608D01*
X165080141Y-93767609D01*
X165061421Y-93804347D01*
X165023981Y-93877827D01*
X165004632Y-93999997D01*
X165004632Y-94000002D01*
X149152254Y-94000002D01*
X149132397Y-93980145D01*
X149132394Y-93980143D01*
X149132392Y-93980141D01*
X149057485Y-93941974D01*
X149022173Y-93923981D01*
X148900003Y-93904632D01*
X148899999Y-93904632D01*
X148777828Y-93923981D01*
X148704348Y-93961421D01*
X148667610Y-93980141D01*
X148667609Y-93980142D01*
X148667604Y-93980145D01*
X148580146Y-94067603D01*
X148580143Y-94067608D01*
X148523982Y-94177827D01*
X148504633Y-94299997D01*
X148504633Y-94300002D01*
X143186830Y-94300002D01*
X143210153Y-94254229D01*
X143210153Y-94254227D01*
X143210154Y-94254226D01*
X143229504Y-94132056D01*
X143229504Y-94132051D01*
X143210154Y-94009881D01*
X143205118Y-93999997D01*
X143153995Y-93899663D01*
X143153991Y-93899659D01*
X143153990Y-93899657D01*
X143066532Y-93812199D01*
X143066529Y-93812197D01*
X143066527Y-93812195D01*
X142991620Y-93774028D01*
X142956308Y-93756035D01*
X142834138Y-93736686D01*
X142834134Y-93736686D01*
X142711963Y-93756035D01*
X142638483Y-93793475D01*
X142601745Y-93812195D01*
X142601744Y-93812196D01*
X142601739Y-93812199D01*
X142514281Y-93899657D01*
X142514278Y-93899662D01*
X142514277Y-93899663D01*
X142501886Y-93923981D01*
X142458117Y-94009881D01*
X142438768Y-94132051D01*
X142438768Y-94132056D01*
X127900227Y-94132056D01*
X128251368Y-93500002D01*
X139004632Y-93500002D01*
X139023981Y-93622172D01*
X139041974Y-93657484D01*
X139080141Y-93732391D01*
X139080143Y-93732393D01*
X139080145Y-93732396D01*
X139167603Y-93819854D01*
X139167605Y-93819855D01*
X139167609Y-93819859D01*
X139277825Y-93876017D01*
X139277827Y-93876018D01*
X139399998Y-93895368D01*
X139400000Y-93895368D01*
X139400002Y-93895368D01*
X139522172Y-93876018D01*
X139522173Y-93876017D01*
X139522175Y-93876017D01*
X139632391Y-93819859D01*
X139719859Y-93732391D01*
X139776017Y-93622175D01*
X139776017Y-93622173D01*
X139776018Y-93622172D01*
X139795368Y-93500002D01*
X139795368Y-93499997D01*
X139776018Y-93377827D01*
X139776017Y-93377825D01*
X139719859Y-93267609D01*
X139719855Y-93267605D01*
X139719854Y-93267603D01*
X139632396Y-93180145D01*
X139632393Y-93180143D01*
X139632391Y-93180141D01*
X139557484Y-93141974D01*
X139522172Y-93123981D01*
X139400002Y-93104632D01*
X139399998Y-93104632D01*
X139277827Y-93123981D01*
X139204347Y-93161421D01*
X139167609Y-93180141D01*
X139167608Y-93180142D01*
X139167603Y-93180145D01*
X139080145Y-93267603D01*
X139080142Y-93267608D01*
X139023981Y-93377827D01*
X139004632Y-93499997D01*
X139004632Y-93500002D01*
X128251368Y-93500002D01*
X129695812Y-90900002D01*
X131804632Y-90900002D01*
X131823981Y-91022172D01*
X131823983Y-91022175D01*
X131880141Y-91132391D01*
X131880143Y-91132393D01*
X131880145Y-91132396D01*
X131967603Y-91219854D01*
X131967605Y-91219855D01*
X131967609Y-91219859D01*
X132077825Y-91276017D01*
X132077827Y-91276018D01*
X132199998Y-91295368D01*
X132200000Y-91295368D01*
X132200002Y-91295368D01*
X132322172Y-91276018D01*
X132322173Y-91276017D01*
X132322175Y-91276017D01*
X132432391Y-91219859D01*
X132519859Y-91132391D01*
X132536362Y-91100002D01*
X139304632Y-91100002D01*
X139323981Y-91222172D01*
X139323983Y-91222175D01*
X139380141Y-91332391D01*
X139380143Y-91332393D01*
X139380145Y-91332396D01*
X139467603Y-91419854D01*
X139467605Y-91419855D01*
X139467609Y-91419859D01*
X139577825Y-91476017D01*
X139577827Y-91476018D01*
X139699998Y-91495368D01*
X139700000Y-91495368D01*
X139700002Y-91495368D01*
X139822172Y-91476018D01*
X139822173Y-91476017D01*
X139822175Y-91476017D01*
X139932391Y-91419859D01*
X140019859Y-91332391D01*
X140076017Y-91222175D01*
X140076017Y-91222173D01*
X140076018Y-91222172D01*
X140095368Y-91100002D01*
X140095368Y-91099997D01*
X140079530Y-91000002D01*
X167544632Y-91000002D01*
X167563981Y-91122172D01*
X167563983Y-91122175D01*
X167620141Y-91232391D01*
X167620143Y-91232393D01*
X167620145Y-91232396D01*
X167707603Y-91319854D01*
X167707605Y-91319855D01*
X167707609Y-91319859D01*
X167817825Y-91376017D01*
X167817827Y-91376018D01*
X167939998Y-91395368D01*
X167940000Y-91395368D01*
X167940002Y-91395368D01*
X168062172Y-91376018D01*
X168062173Y-91376017D01*
X168062175Y-91376017D01*
X168172391Y-91319859D01*
X168259859Y-91232391D01*
X168316017Y-91122175D01*
X168316017Y-91122173D01*
X168316018Y-91122172D01*
X168335368Y-91000002D01*
X168335368Y-90999997D01*
X168316018Y-90877827D01*
X168310811Y-90867608D01*
X168276364Y-90800002D01*
X177204632Y-90800002D01*
X177223981Y-90922172D01*
X177223983Y-90922175D01*
X177280141Y-91032391D01*
X177280143Y-91032393D01*
X177280145Y-91032396D01*
X177367603Y-91119854D01*
X177367605Y-91119855D01*
X177367609Y-91119859D01*
X177477825Y-91176017D01*
X177477827Y-91176018D01*
X177599998Y-91195368D01*
X177600000Y-91195368D01*
X177600002Y-91195368D01*
X177722172Y-91176018D01*
X177722173Y-91176017D01*
X177722175Y-91176017D01*
X177832391Y-91119859D01*
X177919859Y-91032391D01*
X177976017Y-90922175D01*
X177976017Y-90922173D01*
X177976018Y-90922172D01*
X177995368Y-90800002D01*
X177995368Y-90799997D01*
X177976018Y-90677827D01*
X177970811Y-90667608D01*
X177919859Y-90567609D01*
X177919855Y-90567605D01*
X177919854Y-90567603D01*
X177832396Y-90480145D01*
X177832393Y-90480143D01*
X177832391Y-90480141D01*
X177757484Y-90441974D01*
X177722172Y-90423981D01*
X177600002Y-90404632D01*
X177599998Y-90404632D01*
X177477827Y-90423981D01*
X177404347Y-90461421D01*
X177367609Y-90480141D01*
X177367608Y-90480142D01*
X177367603Y-90480145D01*
X177280145Y-90567603D01*
X177280142Y-90567608D01*
X177223981Y-90677827D01*
X177204632Y-90799997D01*
X177204632Y-90800002D01*
X168276364Y-90800002D01*
X168259859Y-90767609D01*
X168259855Y-90767605D01*
X168259854Y-90767603D01*
X168172396Y-90680145D01*
X168172393Y-90680143D01*
X168172391Y-90680141D01*
X168097484Y-90641974D01*
X168062172Y-90623981D01*
X167940002Y-90604632D01*
X167939998Y-90604632D01*
X167817827Y-90623981D01*
X167744347Y-90661421D01*
X167707609Y-90680141D01*
X167707608Y-90680142D01*
X167707603Y-90680145D01*
X167620145Y-90767603D01*
X167620142Y-90767608D01*
X167620141Y-90767609D01*
X167603637Y-90800000D01*
X167563981Y-90877827D01*
X167544632Y-90999997D01*
X167544632Y-91000002D01*
X140079530Y-91000002D01*
X140076018Y-90977827D01*
X140076017Y-90977825D01*
X140019859Y-90867609D01*
X140019855Y-90867605D01*
X140019854Y-90867603D01*
X139932396Y-90780145D01*
X139932393Y-90780143D01*
X139932391Y-90780141D01*
X139852823Y-90739599D01*
X139822172Y-90723981D01*
X139700002Y-90704632D01*
X139699998Y-90704632D01*
X139577827Y-90723981D01*
X139504347Y-90761421D01*
X139467609Y-90780141D01*
X139467608Y-90780142D01*
X139467603Y-90780145D01*
X139380145Y-90867603D01*
X139380142Y-90867608D01*
X139380141Y-90867609D01*
X139363637Y-90900000D01*
X139323981Y-90977827D01*
X139304632Y-91099997D01*
X139304632Y-91100002D01*
X132536362Y-91100002D01*
X132576017Y-91022175D01*
X132576017Y-91022173D01*
X132576018Y-91022172D01*
X132595368Y-90900002D01*
X132595368Y-90899997D01*
X132576018Y-90777827D01*
X132570811Y-90767608D01*
X132519859Y-90667609D01*
X132519855Y-90667605D01*
X132519854Y-90667603D01*
X132432396Y-90580145D01*
X132432393Y-90580143D01*
X132432391Y-90580141D01*
X132357372Y-90541917D01*
X132322172Y-90523981D01*
X132200002Y-90504632D01*
X132199998Y-90504632D01*
X132077827Y-90523981D01*
X132004347Y-90561421D01*
X131967609Y-90580141D01*
X131967608Y-90580142D01*
X131967603Y-90580145D01*
X131880145Y-90667603D01*
X131880142Y-90667608D01*
X131823981Y-90777827D01*
X131804632Y-90899997D01*
X131804632Y-90900002D01*
X129695812Y-90900002D01*
X129962620Y-90419747D01*
X146858186Y-90419747D01*
X146877535Y-90541917D01*
X146877537Y-90541920D01*
X146933695Y-90652136D01*
X146933697Y-90652138D01*
X146933699Y-90652141D01*
X147021157Y-90739599D01*
X147021159Y-90739600D01*
X147021163Y-90739604D01*
X147131379Y-90795762D01*
X147131381Y-90795763D01*
X147253552Y-90815113D01*
X147253554Y-90815113D01*
X147253556Y-90815113D01*
X147375726Y-90795763D01*
X147375727Y-90795762D01*
X147375729Y-90795762D01*
X147485945Y-90739604D01*
X147573413Y-90652136D01*
X147629571Y-90541920D01*
X147629571Y-90541918D01*
X147629572Y-90541917D01*
X147648922Y-90419747D01*
X147648922Y-90419742D01*
X147629572Y-90297572D01*
X147629571Y-90297570D01*
X147573413Y-90187354D01*
X147573409Y-90187350D01*
X147573408Y-90187348D01*
X147485950Y-90099890D01*
X147485947Y-90099888D01*
X147485945Y-90099886D01*
X147411038Y-90061719D01*
X147375726Y-90043726D01*
X147253556Y-90024377D01*
X147253552Y-90024377D01*
X147131381Y-90043726D01*
X147057901Y-90081166D01*
X147021163Y-90099886D01*
X147021162Y-90099887D01*
X147021157Y-90099890D01*
X146933699Y-90187348D01*
X146933696Y-90187353D01*
X146877535Y-90297572D01*
X146858186Y-90419742D01*
X146858186Y-90419747D01*
X129962620Y-90419747D01*
X130695812Y-89100002D01*
X141204632Y-89100002D01*
X141223981Y-89222172D01*
X141223983Y-89222175D01*
X141280141Y-89332391D01*
X141280143Y-89332393D01*
X141280145Y-89332396D01*
X141367603Y-89419854D01*
X141367605Y-89419855D01*
X141367609Y-89419859D01*
X141477825Y-89476017D01*
X141477827Y-89476018D01*
X141599998Y-89495368D01*
X141600000Y-89495368D01*
X141600002Y-89495368D01*
X141722172Y-89476018D01*
X141722173Y-89476017D01*
X141722175Y-89476017D01*
X141832391Y-89419859D01*
X141919859Y-89332391D01*
X141936362Y-89300002D01*
X149704632Y-89300002D01*
X149723981Y-89422172D01*
X149723983Y-89422175D01*
X149780141Y-89532391D01*
X149780143Y-89532393D01*
X149780145Y-89532396D01*
X149867603Y-89619854D01*
X149867605Y-89619855D01*
X149867609Y-89619859D01*
X149972434Y-89673270D01*
X149977827Y-89676018D01*
X150099998Y-89695368D01*
X150100000Y-89695368D01*
X150100002Y-89695368D01*
X150222172Y-89676018D01*
X150222173Y-89676017D01*
X150222175Y-89676017D01*
X150293595Y-89639626D01*
X150362261Y-89626730D01*
X150427001Y-89653005D01*
X150467259Y-89710111D01*
X150470253Y-89779917D01*
X150460373Y-89806405D01*
X150423982Y-89877825D01*
X150423981Y-89877828D01*
X150404632Y-89999998D01*
X150404632Y-90000003D01*
X150423981Y-90122173D01*
X150423983Y-90122176D01*
X150480141Y-90232392D01*
X150480143Y-90232394D01*
X150480145Y-90232397D01*
X150567603Y-90319855D01*
X150567605Y-90319856D01*
X150567609Y-90319860D01*
X150677825Y-90376018D01*
X150677827Y-90376019D01*
X150799998Y-90395369D01*
X150800000Y-90395369D01*
X150800002Y-90395369D01*
X150922172Y-90376019D01*
X150922173Y-90376018D01*
X150922175Y-90376018D01*
X151032391Y-90319860D01*
X151119859Y-90232392D01*
X151176017Y-90122176D01*
X151176017Y-90122174D01*
X151176018Y-90122173D01*
X151179530Y-90100002D01*
X154804632Y-90100002D01*
X154823981Y-90222172D01*
X154829191Y-90232397D01*
X154880141Y-90332391D01*
X154880143Y-90332393D01*
X154880145Y-90332396D01*
X154967603Y-90419854D01*
X154967605Y-90419855D01*
X154967609Y-90419859D01*
X155077825Y-90476017D01*
X155077827Y-90476018D01*
X155199998Y-90495368D01*
X155200000Y-90495368D01*
X155200002Y-90495368D01*
X155322172Y-90476018D01*
X155322173Y-90476017D01*
X155322175Y-90476017D01*
X155432391Y-90419859D01*
X155519859Y-90332391D01*
X155576017Y-90222175D01*
X155576017Y-90222173D01*
X155576018Y-90222172D01*
X155595368Y-90100002D01*
X160204633Y-90100002D01*
X160223982Y-90222172D01*
X160229192Y-90232397D01*
X160280142Y-90332391D01*
X160280144Y-90332393D01*
X160280146Y-90332396D01*
X160367604Y-90419854D01*
X160367606Y-90419855D01*
X160367610Y-90419859D01*
X160477826Y-90476017D01*
X160477828Y-90476018D01*
X160599999Y-90495368D01*
X160600001Y-90495368D01*
X160600003Y-90495368D01*
X160722173Y-90476018D01*
X160722174Y-90476017D01*
X160722176Y-90476017D01*
X160832392Y-90419859D01*
X160919860Y-90332391D01*
X160976018Y-90222175D01*
X160976018Y-90222173D01*
X160976019Y-90222172D01*
X160995369Y-90100002D01*
X160995369Y-90099997D01*
X160976019Y-89977827D01*
X160976018Y-89977825D01*
X160919860Y-89867609D01*
X160919856Y-89867605D01*
X160919855Y-89867603D01*
X160832397Y-89780145D01*
X160832394Y-89780143D01*
X160832392Y-89780141D01*
X160757485Y-89741974D01*
X160722173Y-89723981D01*
X160600003Y-89704632D01*
X160599999Y-89704632D01*
X160477828Y-89723981D01*
X160404348Y-89761421D01*
X160367610Y-89780141D01*
X160367609Y-89780142D01*
X160367604Y-89780145D01*
X160280146Y-89867603D01*
X160280143Y-89867608D01*
X160280142Y-89867609D01*
X160261422Y-89904347D01*
X160223982Y-89977827D01*
X160204633Y-90099997D01*
X160204633Y-90100002D01*
X155595368Y-90100002D01*
X155595368Y-90099997D01*
X155576018Y-89977827D01*
X155576017Y-89977825D01*
X155519859Y-89867609D01*
X155519855Y-89867605D01*
X155519854Y-89867603D01*
X155432396Y-89780145D01*
X155432393Y-89780143D01*
X155432391Y-89780141D01*
X155357484Y-89741974D01*
X155322172Y-89723981D01*
X155200002Y-89704632D01*
X155199998Y-89704632D01*
X155077827Y-89723981D01*
X155004347Y-89761421D01*
X154967609Y-89780141D01*
X154967608Y-89780142D01*
X154967603Y-89780145D01*
X154880145Y-89867603D01*
X154880142Y-89867608D01*
X154880141Y-89867609D01*
X154861421Y-89904347D01*
X154823981Y-89977827D01*
X154804632Y-90099997D01*
X154804632Y-90100002D01*
X151179530Y-90100002D01*
X151195368Y-90000003D01*
X151195368Y-89999998D01*
X151176018Y-89877828D01*
X151170808Y-89867603D01*
X151119859Y-89767610D01*
X151119855Y-89767606D01*
X151119854Y-89767604D01*
X151032396Y-89680146D01*
X151032393Y-89680144D01*
X151032391Y-89680142D01*
X150952876Y-89639627D01*
X150922172Y-89623982D01*
X150800002Y-89604633D01*
X150799998Y-89604633D01*
X150677827Y-89623982D01*
X150606406Y-89660374D01*
X150537736Y-89673270D01*
X150472996Y-89646994D01*
X150432739Y-89589887D01*
X150429747Y-89520081D01*
X150439625Y-89493597D01*
X150476017Y-89422175D01*
X150476017Y-89422173D01*
X150476018Y-89422172D01*
X150495368Y-89300002D01*
X150495368Y-89299997D01*
X150476018Y-89177827D01*
X150475096Y-89176017D01*
X150419859Y-89067609D01*
X150419855Y-89067605D01*
X150419854Y-89067603D01*
X150332396Y-88980145D01*
X150332393Y-88980143D01*
X150332391Y-88980141D01*
X150257484Y-88941974D01*
X150222172Y-88923981D01*
X150100002Y-88904632D01*
X150099998Y-88904632D01*
X149977827Y-88923981D01*
X149904347Y-88961421D01*
X149867609Y-88980141D01*
X149867608Y-88980142D01*
X149867603Y-88980145D01*
X149780145Y-89067603D01*
X149780142Y-89067608D01*
X149780141Y-89067609D01*
X149763637Y-89100000D01*
X149723981Y-89177827D01*
X149704632Y-89299997D01*
X149704632Y-89300002D01*
X141936362Y-89300002D01*
X141976017Y-89222175D01*
X141976017Y-89222173D01*
X141976018Y-89222172D01*
X141995368Y-89100002D01*
X141995368Y-89099997D01*
X141976018Y-88977827D01*
X141976017Y-88977825D01*
X141919859Y-88867609D01*
X141919855Y-88867605D01*
X141919854Y-88867603D01*
X141852253Y-88800002D01*
X173004632Y-88800002D01*
X173023981Y-88922172D01*
X173023983Y-88922175D01*
X173080141Y-89032391D01*
X173080143Y-89032393D01*
X173080145Y-89032396D01*
X173167603Y-89119854D01*
X173167605Y-89119855D01*
X173167609Y-89119859D01*
X173277825Y-89176017D01*
X173277827Y-89176018D01*
X173399998Y-89195368D01*
X173400000Y-89195368D01*
X173400002Y-89195368D01*
X173522172Y-89176018D01*
X173522173Y-89176017D01*
X173522175Y-89176017D01*
X173632391Y-89119859D01*
X173719859Y-89032391D01*
X173776017Y-88922175D01*
X173776017Y-88922173D01*
X173776018Y-88922172D01*
X173795368Y-88800002D01*
X173795368Y-88799997D01*
X173776018Y-88677827D01*
X173776017Y-88677825D01*
X173719859Y-88567609D01*
X173719855Y-88567605D01*
X173719854Y-88567603D01*
X173632396Y-88480145D01*
X173632393Y-88480143D01*
X173632391Y-88480141D01*
X173557484Y-88441974D01*
X173522172Y-88423981D01*
X173400002Y-88404632D01*
X173399998Y-88404632D01*
X173277827Y-88423981D01*
X173204347Y-88461421D01*
X173167609Y-88480141D01*
X173167608Y-88480142D01*
X173167603Y-88480145D01*
X173080145Y-88567603D01*
X173080142Y-88567608D01*
X173023981Y-88677827D01*
X173004632Y-88799997D01*
X173004632Y-88800002D01*
X141852253Y-88800002D01*
X141832396Y-88780145D01*
X141832393Y-88780143D01*
X141832391Y-88780141D01*
X141757484Y-88741974D01*
X141722172Y-88723981D01*
X141600002Y-88704632D01*
X141599998Y-88704632D01*
X141477827Y-88723981D01*
X141404347Y-88761421D01*
X141367609Y-88780141D01*
X141367608Y-88780142D01*
X141367603Y-88780145D01*
X141280145Y-88867603D01*
X141280142Y-88867608D01*
X141223981Y-88977827D01*
X141204632Y-89099997D01*
X141204632Y-89100002D01*
X130695812Y-89100002D01*
X131306923Y-88000002D01*
X146104633Y-88000002D01*
X146123982Y-88122172D01*
X146123984Y-88122175D01*
X146180142Y-88232391D01*
X146180144Y-88232393D01*
X146180146Y-88232396D01*
X146267604Y-88319854D01*
X146267606Y-88319855D01*
X146267610Y-88319859D01*
X146377826Y-88376017D01*
X146377828Y-88376018D01*
X146499999Y-88395368D01*
X146500001Y-88395368D01*
X146500003Y-88395368D01*
X146622173Y-88376018D01*
X146622174Y-88376017D01*
X146622176Y-88376017D01*
X146732392Y-88319859D01*
X146819860Y-88232391D01*
X146876018Y-88122175D01*
X146876018Y-88122173D01*
X146876019Y-88122172D01*
X146895369Y-88000002D01*
X165004632Y-88000002D01*
X165023981Y-88122172D01*
X165023983Y-88122175D01*
X165080141Y-88232391D01*
X165080143Y-88232393D01*
X165080145Y-88232396D01*
X165167603Y-88319854D01*
X165167605Y-88319855D01*
X165167609Y-88319859D01*
X165277825Y-88376017D01*
X165277827Y-88376018D01*
X165399998Y-88395368D01*
X165400000Y-88395368D01*
X165400002Y-88395368D01*
X165522172Y-88376018D01*
X165522173Y-88376017D01*
X165522175Y-88376017D01*
X165632391Y-88319859D01*
X165719859Y-88232391D01*
X165776017Y-88122175D01*
X165776017Y-88122173D01*
X165776018Y-88122172D01*
X165795368Y-88000002D01*
X165795368Y-87999997D01*
X165776018Y-87877827D01*
X165776017Y-87877825D01*
X165719859Y-87767609D01*
X165719855Y-87767605D01*
X165719854Y-87767603D01*
X165632396Y-87680145D01*
X165632393Y-87680143D01*
X165632391Y-87680141D01*
X165557484Y-87641974D01*
X165522172Y-87623981D01*
X165400002Y-87604632D01*
X165399998Y-87604632D01*
X165277827Y-87623981D01*
X165204347Y-87661421D01*
X165167609Y-87680141D01*
X165167608Y-87680142D01*
X165167603Y-87680145D01*
X165080145Y-87767603D01*
X165080142Y-87767608D01*
X165023981Y-87877827D01*
X165004632Y-87999997D01*
X165004632Y-88000002D01*
X146895369Y-88000002D01*
X146895369Y-87999997D01*
X146876019Y-87877827D01*
X146876018Y-87877825D01*
X146819860Y-87767609D01*
X146819856Y-87767605D01*
X146819855Y-87767603D01*
X146732397Y-87680145D01*
X146732394Y-87680143D01*
X146732392Y-87680141D01*
X146657485Y-87641974D01*
X146622173Y-87623981D01*
X146500003Y-87604632D01*
X146499999Y-87604632D01*
X146377828Y-87623981D01*
X146304348Y-87661421D01*
X146267610Y-87680141D01*
X146267609Y-87680142D01*
X146267604Y-87680145D01*
X146180146Y-87767603D01*
X146180143Y-87767608D01*
X146123982Y-87877827D01*
X146104633Y-87999997D01*
X146104633Y-88000002D01*
X131306923Y-88000002D01*
X131862479Y-87000002D01*
X143704633Y-87000002D01*
X143723982Y-87122172D01*
X143723984Y-87122175D01*
X143780142Y-87232391D01*
X143780144Y-87232393D01*
X143780146Y-87232396D01*
X143867604Y-87319854D01*
X143867606Y-87319855D01*
X143867610Y-87319859D01*
X143977826Y-87376017D01*
X143977828Y-87376018D01*
X144099999Y-87395368D01*
X144100001Y-87395368D01*
X144100003Y-87395368D01*
X144222173Y-87376018D01*
X144222174Y-87376017D01*
X144222176Y-87376017D01*
X144332392Y-87319859D01*
X144419860Y-87232391D01*
X144476018Y-87122175D01*
X144476018Y-87122173D01*
X144476019Y-87122172D01*
X144495369Y-87000002D01*
X144495369Y-86999997D01*
X144476019Y-86877827D01*
X144447663Y-86822176D01*
X144419860Y-86767609D01*
X144419856Y-86767605D01*
X144419855Y-86767603D01*
X144352255Y-86700003D01*
X146104632Y-86700003D01*
X146123981Y-86822173D01*
X146123983Y-86822176D01*
X146180141Y-86932392D01*
X146180143Y-86932394D01*
X146180145Y-86932397D01*
X146267603Y-87019855D01*
X146267605Y-87019856D01*
X146267609Y-87019860D01*
X146377825Y-87076018D01*
X146377827Y-87076019D01*
X146499998Y-87095369D01*
X146500000Y-87095369D01*
X146500002Y-87095369D01*
X146622172Y-87076019D01*
X146622173Y-87076018D01*
X146622175Y-87076018D01*
X146732391Y-87019860D01*
X146819859Y-86932392D01*
X146836363Y-86900002D01*
X180604632Y-86900002D01*
X180623981Y-87022172D01*
X180623983Y-87022175D01*
X180680141Y-87132391D01*
X180680143Y-87132393D01*
X180680145Y-87132396D01*
X180767603Y-87219854D01*
X180767605Y-87219855D01*
X180767609Y-87219859D01*
X180877825Y-87276017D01*
X180877827Y-87276018D01*
X180999998Y-87295368D01*
X181000000Y-87295368D01*
X181000002Y-87295368D01*
X181122172Y-87276018D01*
X181122173Y-87276017D01*
X181122175Y-87276017D01*
X181232391Y-87219859D01*
X181319859Y-87132391D01*
X181376017Y-87022175D01*
X181376017Y-87022173D01*
X181376018Y-87022172D01*
X181395368Y-86900002D01*
X181395368Y-86899997D01*
X181376018Y-86777827D01*
X181370811Y-86767608D01*
X181319859Y-86667609D01*
X181319855Y-86667605D01*
X181319854Y-86667603D01*
X181232396Y-86580145D01*
X181232393Y-86580143D01*
X181232391Y-86580141D01*
X181157484Y-86541974D01*
X181122172Y-86523981D01*
X181000002Y-86504632D01*
X180999998Y-86504632D01*
X180877827Y-86523981D01*
X180804347Y-86561421D01*
X180767609Y-86580141D01*
X180767608Y-86580142D01*
X180767603Y-86580145D01*
X180680145Y-86667603D01*
X180680142Y-86667608D01*
X180680141Y-86667609D01*
X180675856Y-86676019D01*
X180623981Y-86777827D01*
X180604632Y-86899997D01*
X180604632Y-86900002D01*
X146836363Y-86900002D01*
X146876017Y-86822176D01*
X146876017Y-86822174D01*
X146876018Y-86822173D01*
X146895368Y-86700003D01*
X146895368Y-86699998D01*
X146876018Y-86577828D01*
X146876017Y-86577826D01*
X146819859Y-86467610D01*
X146819855Y-86467606D01*
X146819854Y-86467604D01*
X146732396Y-86380146D01*
X146732393Y-86380144D01*
X146732391Y-86380142D01*
X146657484Y-86341975D01*
X146622172Y-86323982D01*
X146500002Y-86304633D01*
X146499998Y-86304633D01*
X146377827Y-86323982D01*
X146304347Y-86361422D01*
X146267609Y-86380142D01*
X146267608Y-86380143D01*
X146267603Y-86380146D01*
X146180145Y-86467604D01*
X146180142Y-86467609D01*
X146123981Y-86577828D01*
X146104632Y-86699998D01*
X146104632Y-86700003D01*
X144352255Y-86700003D01*
X144332397Y-86680145D01*
X144332394Y-86680143D01*
X144332392Y-86680141D01*
X144257485Y-86641974D01*
X144222173Y-86623981D01*
X144100003Y-86604632D01*
X144099999Y-86604632D01*
X143977828Y-86623981D01*
X143904348Y-86661421D01*
X143867610Y-86680141D01*
X143867609Y-86680142D01*
X143867604Y-86680145D01*
X143780146Y-86767603D01*
X143780143Y-86767608D01*
X143723982Y-86877827D01*
X143704633Y-86999997D01*
X143704633Y-87000002D01*
X131862479Y-87000002D01*
X132251367Y-86300003D01*
X134304632Y-86300003D01*
X134323981Y-86422173D01*
X134323983Y-86422176D01*
X134380141Y-86532392D01*
X134380143Y-86532394D01*
X134380145Y-86532397D01*
X134467603Y-86619855D01*
X134467605Y-86619856D01*
X134467609Y-86619860D01*
X134577823Y-86676017D01*
X134577827Y-86676019D01*
X134699998Y-86695369D01*
X134700000Y-86695369D01*
X134700002Y-86695369D01*
X134822172Y-86676019D01*
X134822173Y-86676018D01*
X134822175Y-86676018D01*
X134932391Y-86619860D01*
X135019859Y-86532392D01*
X135076017Y-86422176D01*
X135076017Y-86422174D01*
X135076018Y-86422173D01*
X135095368Y-86300003D01*
X135095368Y-86300002D01*
X154804633Y-86300002D01*
X154823982Y-86422172D01*
X154841975Y-86457484D01*
X154880142Y-86532391D01*
X154880144Y-86532393D01*
X154880146Y-86532396D01*
X154967604Y-86619854D01*
X154967606Y-86619855D01*
X154967610Y-86619859D01*
X155077826Y-86676017D01*
X155077828Y-86676018D01*
X155199999Y-86695368D01*
X155200001Y-86695368D01*
X155200003Y-86695368D01*
X155322173Y-86676018D01*
X155322174Y-86676017D01*
X155322176Y-86676017D01*
X155432392Y-86619859D01*
X155519860Y-86532391D01*
X155576018Y-86422175D01*
X155576018Y-86422173D01*
X155576019Y-86422172D01*
X155595369Y-86300002D01*
X155595369Y-86299997D01*
X155576019Y-86177827D01*
X155552871Y-86132397D01*
X155519860Y-86067609D01*
X155519856Y-86067605D01*
X155519855Y-86067603D01*
X155432397Y-85980145D01*
X155432394Y-85980143D01*
X155432392Y-85980141D01*
X155357485Y-85941974D01*
X155322173Y-85923981D01*
X155200003Y-85904632D01*
X155199999Y-85904632D01*
X155077828Y-85923981D01*
X155004348Y-85961421D01*
X154967610Y-85980141D01*
X154967609Y-85980142D01*
X154967604Y-85980145D01*
X154880146Y-86067603D01*
X154880143Y-86067608D01*
X154880142Y-86067609D01*
X154861422Y-86104347D01*
X154823982Y-86177827D01*
X154804633Y-86299997D01*
X154804633Y-86300002D01*
X135095368Y-86300002D01*
X135095368Y-86299998D01*
X135076018Y-86177828D01*
X135076016Y-86177825D01*
X135019859Y-86067610D01*
X135019855Y-86067606D01*
X135019854Y-86067604D01*
X134932396Y-85980146D01*
X134932393Y-85980144D01*
X134932391Y-85980142D01*
X134857484Y-85941975D01*
X134822172Y-85923982D01*
X134700002Y-85904633D01*
X134699998Y-85904633D01*
X134577827Y-85923982D01*
X134504347Y-85961422D01*
X134467609Y-85980142D01*
X134467608Y-85980143D01*
X134467603Y-85980146D01*
X134380145Y-86067604D01*
X134380142Y-86067609D01*
X134323981Y-86177828D01*
X134304632Y-86299998D01*
X134304632Y-86300003D01*
X132251367Y-86300003D01*
X132473589Y-85900003D01*
X149704633Y-85900003D01*
X149723982Y-86022173D01*
X149723984Y-86022176D01*
X149780142Y-86132392D01*
X149780144Y-86132394D01*
X149780146Y-86132397D01*
X149867604Y-86219855D01*
X149867606Y-86219856D01*
X149867610Y-86219860D01*
X149977826Y-86276018D01*
X149977828Y-86276019D01*
X150099999Y-86295369D01*
X150100001Y-86295369D01*
X150100003Y-86295369D01*
X150222173Y-86276019D01*
X150222174Y-86276018D01*
X150222176Y-86276018D01*
X150332392Y-86219860D01*
X150419860Y-86132392D01*
X150476018Y-86022176D01*
X150476018Y-86022174D01*
X150476019Y-86022173D01*
X150495369Y-85900003D01*
X150495369Y-85899998D01*
X150476019Y-85777828D01*
X150476018Y-85777826D01*
X150419860Y-85667610D01*
X150419856Y-85667606D01*
X150419855Y-85667604D01*
X150332397Y-85580146D01*
X150332394Y-85580144D01*
X150332392Y-85580142D01*
X150257485Y-85541975D01*
X150222173Y-85523982D01*
X150100003Y-85504633D01*
X150099999Y-85504633D01*
X149977828Y-85523982D01*
X149904348Y-85561422D01*
X149867610Y-85580142D01*
X149867609Y-85580143D01*
X149867604Y-85580146D01*
X149780146Y-85667604D01*
X149780143Y-85667609D01*
X149723982Y-85777828D01*
X149704633Y-85899998D01*
X149704633Y-85900003D01*
X132473589Y-85900003D01*
X132918034Y-85100002D01*
X158704632Y-85100002D01*
X158723981Y-85222172D01*
X158726045Y-85226222D01*
X158780141Y-85332391D01*
X158780143Y-85332393D01*
X158780145Y-85332396D01*
X158867603Y-85419854D01*
X158867605Y-85419855D01*
X158867609Y-85419859D01*
X158977825Y-85476017D01*
X158977827Y-85476018D01*
X159099998Y-85495368D01*
X159100000Y-85495368D01*
X159100002Y-85495368D01*
X159222172Y-85476018D01*
X159222173Y-85476017D01*
X159222175Y-85476017D01*
X159332391Y-85419859D01*
X159419859Y-85332391D01*
X159439516Y-85293811D01*
X159487487Y-85243018D01*
X159555308Y-85226222D01*
X159621443Y-85248758D01*
X159660483Y-85293812D01*
X159680140Y-85332391D01*
X159680145Y-85332397D01*
X159767603Y-85419855D01*
X159767605Y-85419856D01*
X159767609Y-85419860D01*
X159877823Y-85476017D01*
X159877827Y-85476019D01*
X159999998Y-85495369D01*
X160000000Y-85495369D01*
X160000002Y-85495369D01*
X160122172Y-85476019D01*
X160122173Y-85476018D01*
X160122175Y-85476018D01*
X160232391Y-85419860D01*
X160319859Y-85332392D01*
X160376017Y-85222176D01*
X160376017Y-85222174D01*
X160376018Y-85222173D01*
X160395368Y-85100003D01*
X160395368Y-85100002D01*
X160904632Y-85100002D01*
X160923981Y-85222172D01*
X160926045Y-85226222D01*
X160980141Y-85332391D01*
X160980143Y-85332393D01*
X160980145Y-85332396D01*
X161067603Y-85419854D01*
X161067605Y-85419855D01*
X161067609Y-85419859D01*
X161177825Y-85476017D01*
X161177827Y-85476018D01*
X161299998Y-85495368D01*
X161300000Y-85495368D01*
X161300002Y-85495368D01*
X161422172Y-85476018D01*
X161422173Y-85476017D01*
X161422175Y-85476017D01*
X161532391Y-85419859D01*
X161619859Y-85332391D01*
X161676017Y-85222175D01*
X161676017Y-85222173D01*
X161676018Y-85222172D01*
X161695368Y-85100003D01*
X180504632Y-85100003D01*
X180523981Y-85222173D01*
X180537527Y-85248758D01*
X180580141Y-85332392D01*
X180580143Y-85332394D01*
X180580145Y-85332397D01*
X180667603Y-85419855D01*
X180667605Y-85419856D01*
X180667609Y-85419860D01*
X180777823Y-85476017D01*
X180777827Y-85476019D01*
X180899998Y-85495369D01*
X180900000Y-85495369D01*
X180900002Y-85495369D01*
X181022172Y-85476019D01*
X181022173Y-85476018D01*
X181022175Y-85476018D01*
X181132391Y-85419860D01*
X181219859Y-85332392D01*
X181276017Y-85222176D01*
X181276017Y-85222174D01*
X181276018Y-85222173D01*
X181295368Y-85100003D01*
X181295368Y-85099998D01*
X181276018Y-84977828D01*
X181265397Y-84956984D01*
X181219859Y-84867610D01*
X181219855Y-84867606D01*
X181219854Y-84867604D01*
X181132396Y-84780146D01*
X181132393Y-84780144D01*
X181132391Y-84780142D01*
X181057484Y-84741975D01*
X181022172Y-84723982D01*
X180900002Y-84704633D01*
X180899998Y-84704633D01*
X180777827Y-84723982D01*
X180704347Y-84761422D01*
X180667609Y-84780142D01*
X180667608Y-84780143D01*
X180667603Y-84780146D01*
X180580145Y-84867604D01*
X180580143Y-84867608D01*
X180580141Y-84867610D01*
X180561421Y-84904348D01*
X180523981Y-84977828D01*
X180504632Y-85099998D01*
X180504632Y-85100003D01*
X161695368Y-85100003D01*
X161695368Y-85100002D01*
X161695368Y-85099997D01*
X161676018Y-84977827D01*
X161662471Y-84951240D01*
X161619859Y-84867609D01*
X161619855Y-84867605D01*
X161619854Y-84867603D01*
X161532396Y-84780145D01*
X161532393Y-84780143D01*
X161532391Y-84780141D01*
X161457484Y-84741974D01*
X161422172Y-84723981D01*
X161300002Y-84704632D01*
X161299998Y-84704632D01*
X161177827Y-84723981D01*
X161104347Y-84761421D01*
X161067609Y-84780141D01*
X161067608Y-84780142D01*
X161067603Y-84780145D01*
X160980145Y-84867603D01*
X160980142Y-84867608D01*
X160980141Y-84867609D01*
X160980140Y-84867611D01*
X160923981Y-84977827D01*
X160904632Y-85099997D01*
X160904632Y-85100002D01*
X160395368Y-85100002D01*
X160395368Y-85099998D01*
X160376018Y-84977828D01*
X160365397Y-84956984D01*
X160319859Y-84867610D01*
X160319855Y-84867606D01*
X160319854Y-84867604D01*
X160232396Y-84780146D01*
X160232393Y-84780144D01*
X160232391Y-84780142D01*
X160157484Y-84741975D01*
X160122172Y-84723982D01*
X160000002Y-84704633D01*
X159999998Y-84704633D01*
X159877827Y-84723982D01*
X159804347Y-84761422D01*
X159767609Y-84780142D01*
X159767608Y-84780143D01*
X159767603Y-84780146D01*
X159680145Y-84867604D01*
X159680140Y-84867611D01*
X159660484Y-84906188D01*
X159612509Y-84956984D01*
X159544688Y-84973778D01*
X159478553Y-84951240D01*
X159439516Y-84906188D01*
X159419859Y-84867609D01*
X159419855Y-84867605D01*
X159419854Y-84867603D01*
X159332396Y-84780145D01*
X159332393Y-84780143D01*
X159332391Y-84780141D01*
X159257484Y-84741974D01*
X159222172Y-84723981D01*
X159100002Y-84704632D01*
X159099998Y-84704632D01*
X158977827Y-84723981D01*
X158904347Y-84761421D01*
X158867609Y-84780141D01*
X158867608Y-84780142D01*
X158867603Y-84780145D01*
X158780145Y-84867603D01*
X158780142Y-84867608D01*
X158780141Y-84867609D01*
X158780140Y-84867611D01*
X158723981Y-84977827D01*
X158704632Y-85099997D01*
X158704632Y-85100002D01*
X132918034Y-85100002D01*
X133859800Y-83404823D01*
X138999500Y-83404823D01*
X139008232Y-83448718D01*
X139008233Y-83448722D01*
X139008234Y-83448723D01*
X139041497Y-83498505D01*
X139091279Y-83531768D01*
X139091282Y-83531768D01*
X139091283Y-83531769D01*
X139135178Y-83540501D01*
X139135181Y-83540501D01*
X140864823Y-83540501D01*
X140908718Y-83531769D01*
X140908718Y-83531768D01*
X140908723Y-83531768D01*
X140958505Y-83498505D01*
X140991768Y-83448723D01*
X140991769Y-83448718D01*
X141000501Y-83404823D01*
X141000501Y-82540001D01*
X141534660Y-82540001D01*
X141553976Y-82736130D01*
X141611189Y-82924734D01*
X141704087Y-83098533D01*
X141704091Y-83098540D01*
X141829117Y-83250884D01*
X141981461Y-83375910D01*
X141981468Y-83375914D01*
X142155267Y-83468812D01*
X142155270Y-83468812D01*
X142155274Y-83468815D01*
X142343869Y-83526025D01*
X142540001Y-83545342D01*
X142736133Y-83526025D01*
X142924728Y-83468815D01*
X142962318Y-83448723D01*
X143032737Y-83411083D01*
X143098539Y-83375911D01*
X143250884Y-83250884D01*
X143375911Y-83098539D01*
X143426719Y-83003484D01*
X143468812Y-82924734D01*
X143468814Y-82924729D01*
X143468815Y-82924728D01*
X143526025Y-82736133D01*
X143545342Y-82540001D01*
X144074660Y-82540001D01*
X144093976Y-82736130D01*
X144151189Y-82924734D01*
X144244087Y-83098533D01*
X144244091Y-83098540D01*
X144369117Y-83250884D01*
X144521461Y-83375910D01*
X144521468Y-83375914D01*
X144695267Y-83468812D01*
X144695270Y-83468812D01*
X144695274Y-83468815D01*
X144883869Y-83526025D01*
X145080001Y-83545342D01*
X145276133Y-83526025D01*
X145464728Y-83468815D01*
X145502318Y-83448723D01*
X145572737Y-83411083D01*
X145638539Y-83375911D01*
X145790884Y-83250884D01*
X145915911Y-83098539D01*
X145966719Y-83003484D01*
X146008812Y-82924734D01*
X146008814Y-82924729D01*
X146008815Y-82924728D01*
X146066025Y-82736133D01*
X146085342Y-82540001D01*
X146066025Y-82343869D01*
X146008815Y-82155274D01*
X146008812Y-82155270D01*
X146008812Y-82155267D01*
X145915914Y-81981468D01*
X145915910Y-81981461D01*
X145790884Y-81829117D01*
X145638540Y-81704091D01*
X145638533Y-81704087D01*
X145464734Y-81611189D01*
X145464728Y-81611187D01*
X145276133Y-81553977D01*
X145276130Y-81553976D01*
X145080001Y-81534660D01*
X144883871Y-81553976D01*
X144695267Y-81611189D01*
X144521468Y-81704087D01*
X144521461Y-81704091D01*
X144369117Y-81829117D01*
X144244091Y-81981461D01*
X144244087Y-81981468D01*
X144151189Y-82155267D01*
X144093976Y-82343871D01*
X144074660Y-82540001D01*
X143545342Y-82540001D01*
X143526025Y-82343869D01*
X143468815Y-82155274D01*
X143468812Y-82155270D01*
X143468812Y-82155267D01*
X143375914Y-81981468D01*
X143375910Y-81981461D01*
X143250884Y-81829117D01*
X143098540Y-81704091D01*
X143098533Y-81704087D01*
X142924734Y-81611189D01*
X142924728Y-81611187D01*
X142736133Y-81553977D01*
X142736130Y-81553976D01*
X142540001Y-81534660D01*
X142343871Y-81553976D01*
X142155267Y-81611189D01*
X141981468Y-81704087D01*
X141981461Y-81704091D01*
X141829117Y-81829117D01*
X141704091Y-81981461D01*
X141704087Y-81981468D01*
X141611189Y-82155267D01*
X141553976Y-82343871D01*
X141534660Y-82540001D01*
X141000501Y-82540001D01*
X141000501Y-81675178D01*
X140991769Y-81631283D01*
X140991768Y-81631282D01*
X140991768Y-81631279D01*
X140958505Y-81581497D01*
X140958504Y-81581496D01*
X140908725Y-81548235D01*
X140908718Y-81548232D01*
X140864823Y-81539501D01*
X140864821Y-81539501D01*
X139135181Y-81539501D01*
X139135179Y-81539501D01*
X139091283Y-81548232D01*
X139091276Y-81548235D01*
X139041497Y-81581496D01*
X139041496Y-81581497D01*
X139008235Y-81631276D01*
X139008232Y-81631283D01*
X138999501Y-81675178D01*
X138999501Y-81675181D01*
X138999501Y-83404821D01*
X138999501Y-83404823D01*
X138999500Y-83404823D01*
X133859800Y-83404823D01*
X135751368Y-80000001D01*
X138994660Y-80000001D01*
X139013976Y-80196130D01*
X139071189Y-80384734D01*
X139164087Y-80558533D01*
X139164091Y-80558540D01*
X139289117Y-80710884D01*
X139441461Y-80835910D01*
X139441468Y-80835914D01*
X139615267Y-80928812D01*
X139615270Y-80928812D01*
X139615274Y-80928815D01*
X139803869Y-80986025D01*
X140000001Y-81005342D01*
X140196133Y-80986025D01*
X140384728Y-80928815D01*
X140558539Y-80835911D01*
X140710884Y-80710884D01*
X140835911Y-80558539D01*
X140920598Y-80400101D01*
X140928812Y-80384734D01*
X140928814Y-80384729D01*
X140928815Y-80384728D01*
X140986025Y-80196133D01*
X141005342Y-80000001D01*
X141534660Y-80000001D01*
X141553976Y-80196130D01*
X141611189Y-80384734D01*
X141704087Y-80558533D01*
X141704091Y-80558540D01*
X141829117Y-80710884D01*
X141981461Y-80835910D01*
X141981468Y-80835914D01*
X142155267Y-80928812D01*
X142155270Y-80928812D01*
X142155274Y-80928815D01*
X142343869Y-80986025D01*
X142540001Y-81005342D01*
X142736133Y-80986025D01*
X142924728Y-80928815D01*
X143098539Y-80835911D01*
X143250884Y-80710884D01*
X143375911Y-80558539D01*
X143460598Y-80400101D01*
X143468812Y-80384734D01*
X143468814Y-80384729D01*
X143468815Y-80384728D01*
X143526025Y-80196133D01*
X143545342Y-80000001D01*
X144074660Y-80000001D01*
X144093976Y-80196130D01*
X144151189Y-80384734D01*
X144244087Y-80558533D01*
X144244091Y-80558540D01*
X144369117Y-80710884D01*
X144521461Y-80835910D01*
X144521468Y-80835914D01*
X144695267Y-80928812D01*
X144695270Y-80928812D01*
X144695274Y-80928815D01*
X144883869Y-80986025D01*
X145080001Y-81005342D01*
X145276133Y-80986025D01*
X145464728Y-80928815D01*
X145638539Y-80835911D01*
X145790884Y-80710884D01*
X145915911Y-80558539D01*
X146000598Y-80400101D01*
X146008813Y-80384732D01*
X146008814Y-80384729D01*
X146008815Y-80384728D01*
X146050901Y-80245989D01*
X146089198Y-80187552D01*
X146153010Y-80159096D01*
X146222077Y-80169656D01*
X146274471Y-80215880D01*
X146289336Y-80249893D01*
X146346567Y-80463485D01*
X146346571Y-80463494D01*
X146446400Y-80677580D01*
X146581895Y-80871084D01*
X146748918Y-81038107D01*
X146942422Y-81173602D01*
X147156508Y-81273431D01*
X147156517Y-81273435D01*
X147370107Y-81330666D01*
X147429768Y-81367031D01*
X147460297Y-81429878D01*
X147452002Y-81499253D01*
X147407517Y-81553131D01*
X147374010Y-81569101D01*
X147235272Y-81611187D01*
X147061468Y-81704087D01*
X147061461Y-81704091D01*
X146909117Y-81829117D01*
X146784091Y-81981461D01*
X146784087Y-81981468D01*
X146691189Y-82155267D01*
X146633976Y-82343871D01*
X146614660Y-82540001D01*
X146633976Y-82736130D01*
X146691189Y-82924734D01*
X146784087Y-83098533D01*
X146784091Y-83098540D01*
X146909117Y-83250884D01*
X147061461Y-83375910D01*
X147061468Y-83375914D01*
X147235267Y-83468812D01*
X147235270Y-83468812D01*
X147235274Y-83468815D01*
X147423869Y-83526025D01*
X147620001Y-83545342D01*
X147816133Y-83526025D01*
X148004728Y-83468815D01*
X148042318Y-83448723D01*
X148112737Y-83411083D01*
X148178539Y-83375911D01*
X148330884Y-83250884D01*
X148455911Y-83098539D01*
X148506719Y-83003484D01*
X148548812Y-82924734D01*
X148548814Y-82924729D01*
X148548815Y-82924728D01*
X148606025Y-82736133D01*
X148625342Y-82540001D01*
X149154659Y-82540001D01*
X149173975Y-82736130D01*
X149231188Y-82924734D01*
X149324086Y-83098533D01*
X149324090Y-83098540D01*
X149449116Y-83250884D01*
X149601460Y-83375910D01*
X149601467Y-83375914D01*
X149775266Y-83468812D01*
X149775269Y-83468812D01*
X149775273Y-83468815D01*
X149963868Y-83526025D01*
X150160000Y-83545342D01*
X150356132Y-83526025D01*
X150544727Y-83468815D01*
X150582317Y-83448723D01*
X150652736Y-83411083D01*
X150718538Y-83375911D01*
X150870883Y-83250884D01*
X150995910Y-83098539D01*
X151046718Y-83003484D01*
X151088811Y-82924734D01*
X151088813Y-82924729D01*
X151088814Y-82924728D01*
X151146024Y-82736133D01*
X151165341Y-82540001D01*
X151694660Y-82540001D01*
X151713976Y-82736130D01*
X151771189Y-82924734D01*
X151864087Y-83098533D01*
X151864091Y-83098540D01*
X151989117Y-83250884D01*
X152141461Y-83375910D01*
X152141468Y-83375914D01*
X152315267Y-83468812D01*
X152315270Y-83468812D01*
X152315274Y-83468815D01*
X152503869Y-83526025D01*
X152700001Y-83545342D01*
X152896133Y-83526025D01*
X153084728Y-83468815D01*
X153122318Y-83448723D01*
X153192737Y-83411083D01*
X153258539Y-83375911D01*
X153410884Y-83250884D01*
X153535911Y-83098539D01*
X153591653Y-82994252D01*
X153628813Y-82924732D01*
X153628814Y-82924729D01*
X153628815Y-82924728D01*
X153670901Y-82785989D01*
X153709198Y-82727552D01*
X153773010Y-82699096D01*
X153842077Y-82709656D01*
X153894471Y-82755880D01*
X153909336Y-82789892D01*
X153966568Y-83003487D01*
X153966571Y-83003493D01*
X154066400Y-83217579D01*
X154201895Y-83411083D01*
X154368918Y-83578106D01*
X154562422Y-83713601D01*
X154776508Y-83813430D01*
X154776517Y-83813434D01*
X154990001Y-83870635D01*
X154990001Y-82973013D01*
X155047008Y-83005926D01*
X155174175Y-83040001D01*
X155305827Y-83040001D01*
X155432994Y-83005926D01*
X155490001Y-82973013D01*
X155490001Y-83870634D01*
X155703484Y-83813434D01*
X155703493Y-83813430D01*
X155917579Y-83713601D01*
X156111083Y-83578106D01*
X156278106Y-83411083D01*
X156413601Y-83217579D01*
X156513430Y-83003493D01*
X156513434Y-83003484D01*
X156570665Y-82789893D01*
X156607030Y-82730232D01*
X156669877Y-82699703D01*
X156739252Y-82707998D01*
X156793130Y-82752483D01*
X156809100Y-82785990D01*
X156851187Y-82924729D01*
X156944087Y-83098533D01*
X156944091Y-83098540D01*
X157069117Y-83250884D01*
X157221461Y-83375910D01*
X157221468Y-83375914D01*
X157395267Y-83468812D01*
X157395270Y-83468812D01*
X157395274Y-83468815D01*
X157583869Y-83526025D01*
X157780001Y-83545342D01*
X157976133Y-83526025D01*
X158164728Y-83468815D01*
X158202318Y-83448723D01*
X158272737Y-83411083D01*
X158338539Y-83375911D01*
X158490884Y-83250884D01*
X158615911Y-83098539D01*
X158666719Y-83003484D01*
X158708812Y-82924734D01*
X158708814Y-82924729D01*
X158708815Y-82924728D01*
X158766025Y-82736133D01*
X158785342Y-82540001D01*
X159314660Y-82540001D01*
X159333976Y-82736130D01*
X159391189Y-82924734D01*
X159484087Y-83098533D01*
X159484091Y-83098540D01*
X159609117Y-83250884D01*
X159761461Y-83375910D01*
X159761468Y-83375914D01*
X159935267Y-83468812D01*
X159935270Y-83468812D01*
X159935274Y-83468815D01*
X160123869Y-83526025D01*
X160320001Y-83545342D01*
X160516133Y-83526025D01*
X160704728Y-83468815D01*
X160742318Y-83448723D01*
X160812737Y-83411083D01*
X160878539Y-83375911D01*
X161030884Y-83250884D01*
X161155911Y-83098539D01*
X161211653Y-82994252D01*
X161248813Y-82924732D01*
X161248814Y-82924729D01*
X161248815Y-82924728D01*
X161290901Y-82785989D01*
X161329198Y-82727552D01*
X161393010Y-82699096D01*
X161462077Y-82709656D01*
X161514471Y-82755880D01*
X161529336Y-82789892D01*
X161586568Y-83003487D01*
X161586571Y-83003493D01*
X161686400Y-83217579D01*
X161821895Y-83411083D01*
X161988918Y-83578106D01*
X162182422Y-83713601D01*
X162396508Y-83813430D01*
X162396517Y-83813434D01*
X162610001Y-83870635D01*
X162610001Y-82973013D01*
X162667008Y-83005926D01*
X162794175Y-83040001D01*
X162925827Y-83040001D01*
X163052994Y-83005926D01*
X163110001Y-82973013D01*
X163110001Y-83870634D01*
X163323484Y-83813434D01*
X163323493Y-83813430D01*
X163537579Y-83713601D01*
X163731083Y-83578106D01*
X163898106Y-83411083D01*
X164033601Y-83217579D01*
X164133430Y-83003493D01*
X164133434Y-83003484D01*
X164190665Y-82789893D01*
X164227030Y-82730232D01*
X164289877Y-82699703D01*
X164359252Y-82707998D01*
X164413130Y-82752483D01*
X164429100Y-82785990D01*
X164471187Y-82924729D01*
X164564087Y-83098533D01*
X164564091Y-83098540D01*
X164689117Y-83250884D01*
X164841461Y-83375910D01*
X164841468Y-83375914D01*
X165015267Y-83468812D01*
X165015270Y-83468812D01*
X165015274Y-83468815D01*
X165203869Y-83526025D01*
X165400001Y-83545342D01*
X165596133Y-83526025D01*
X165784728Y-83468815D01*
X165822318Y-83448723D01*
X165892737Y-83411083D01*
X165958539Y-83375911D01*
X166110884Y-83250884D01*
X166235911Y-83098539D01*
X166286719Y-83003484D01*
X166328812Y-82924734D01*
X166328814Y-82924729D01*
X166328815Y-82924728D01*
X166386025Y-82736133D01*
X166405342Y-82540001D01*
X166934660Y-82540001D01*
X166953976Y-82736130D01*
X167011189Y-82924734D01*
X167104087Y-83098533D01*
X167104091Y-83098540D01*
X167229117Y-83250884D01*
X167381461Y-83375910D01*
X167381468Y-83375914D01*
X167555267Y-83468812D01*
X167555270Y-83468812D01*
X167555274Y-83468815D01*
X167743869Y-83526025D01*
X167940001Y-83545342D01*
X168136133Y-83526025D01*
X168324728Y-83468815D01*
X168362318Y-83448723D01*
X168432737Y-83411083D01*
X168498539Y-83375911D01*
X168650884Y-83250884D01*
X168775911Y-83098539D01*
X168831653Y-82994252D01*
X168868813Y-82924732D01*
X168868814Y-82924729D01*
X168868815Y-82924728D01*
X168910901Y-82785989D01*
X168949198Y-82727552D01*
X169013010Y-82699096D01*
X169082077Y-82709656D01*
X169134471Y-82755880D01*
X169149336Y-82789892D01*
X169206568Y-83003487D01*
X169206571Y-83003493D01*
X169306400Y-83217579D01*
X169441895Y-83411083D01*
X169608918Y-83578106D01*
X169802422Y-83713601D01*
X170016508Y-83813430D01*
X170016517Y-83813434D01*
X170230001Y-83870635D01*
X170230001Y-82973013D01*
X170287008Y-83005926D01*
X170414175Y-83040001D01*
X170545827Y-83040001D01*
X170672994Y-83005926D01*
X170730001Y-82973013D01*
X170730001Y-83870634D01*
X170943484Y-83813434D01*
X170943493Y-83813430D01*
X171157579Y-83713601D01*
X171351083Y-83578106D01*
X171518106Y-83411083D01*
X171653601Y-83217579D01*
X171753430Y-83003493D01*
X171753434Y-83003484D01*
X171810665Y-82789893D01*
X171847030Y-82730232D01*
X171909877Y-82699703D01*
X171979252Y-82707998D01*
X172033130Y-82752483D01*
X172049100Y-82785990D01*
X172091187Y-82924729D01*
X172184087Y-83098533D01*
X172184091Y-83098540D01*
X172309117Y-83250884D01*
X172461461Y-83375910D01*
X172461468Y-83375914D01*
X172635267Y-83468812D01*
X172635270Y-83468812D01*
X172635274Y-83468815D01*
X172823869Y-83526025D01*
X173020001Y-83545342D01*
X173216133Y-83526025D01*
X173404728Y-83468815D01*
X173442318Y-83448723D01*
X173512737Y-83411083D01*
X173578539Y-83375911D01*
X173730884Y-83250884D01*
X173855911Y-83098539D01*
X173906719Y-83003484D01*
X173948812Y-82924734D01*
X173948814Y-82924729D01*
X173948815Y-82924728D01*
X174006025Y-82736133D01*
X174025342Y-82540001D01*
X174554660Y-82540001D01*
X174573976Y-82736130D01*
X174631189Y-82924734D01*
X174724087Y-83098533D01*
X174724091Y-83098540D01*
X174849117Y-83250884D01*
X175001461Y-83375910D01*
X175001468Y-83375914D01*
X175175267Y-83468812D01*
X175175270Y-83468812D01*
X175175274Y-83468815D01*
X175363869Y-83526025D01*
X175560001Y-83545342D01*
X175756133Y-83526025D01*
X175944728Y-83468815D01*
X175982318Y-83448723D01*
X176052737Y-83411083D01*
X176118539Y-83375911D01*
X176270884Y-83250884D01*
X176395911Y-83098539D01*
X176451653Y-82994252D01*
X176488813Y-82924732D01*
X176488814Y-82924729D01*
X176488815Y-82924728D01*
X176530901Y-82785989D01*
X176569198Y-82727552D01*
X176633010Y-82699096D01*
X176702077Y-82709656D01*
X176754471Y-82755880D01*
X176769336Y-82789892D01*
X176826568Y-83003487D01*
X176826571Y-83003493D01*
X176926400Y-83217579D01*
X177061895Y-83411083D01*
X177228918Y-83578106D01*
X177422422Y-83713601D01*
X177636508Y-83813430D01*
X177636517Y-83813434D01*
X177850001Y-83870635D01*
X177850001Y-82973013D01*
X177907008Y-83005926D01*
X178034175Y-83040001D01*
X178165827Y-83040001D01*
X178292994Y-83005926D01*
X178350001Y-82973013D01*
X178350001Y-83870634D01*
X178563484Y-83813434D01*
X178563493Y-83813430D01*
X178777579Y-83713601D01*
X178971083Y-83578106D01*
X179138106Y-83411083D01*
X179273601Y-83217579D01*
X179373430Y-83003493D01*
X179373434Y-83003484D01*
X179430665Y-82789893D01*
X179467030Y-82730232D01*
X179529877Y-82699703D01*
X179599252Y-82707998D01*
X179653130Y-82752483D01*
X179669100Y-82785990D01*
X179711187Y-82924729D01*
X179804087Y-83098533D01*
X179804091Y-83098540D01*
X179929117Y-83250884D01*
X180081461Y-83375910D01*
X180081468Y-83375914D01*
X180255267Y-83468812D01*
X180255270Y-83468812D01*
X180255274Y-83468815D01*
X180443869Y-83526025D01*
X180640001Y-83545342D01*
X180836133Y-83526025D01*
X181024728Y-83468815D01*
X181062318Y-83448723D01*
X181132737Y-83411083D01*
X181198539Y-83375911D01*
X181350884Y-83250884D01*
X181475911Y-83098539D01*
X181526719Y-83003484D01*
X181568812Y-82924734D01*
X181568814Y-82924729D01*
X181568815Y-82924728D01*
X181626025Y-82736133D01*
X181645342Y-82540001D01*
X182174660Y-82540001D01*
X182193976Y-82736130D01*
X182251189Y-82924734D01*
X182344087Y-83098533D01*
X182344091Y-83098540D01*
X182469117Y-83250884D01*
X182621461Y-83375910D01*
X182621468Y-83375914D01*
X182795267Y-83468812D01*
X182795270Y-83468812D01*
X182795274Y-83468815D01*
X182983869Y-83526025D01*
X183180001Y-83545342D01*
X183376133Y-83526025D01*
X183564728Y-83468815D01*
X183602318Y-83448723D01*
X183672737Y-83411083D01*
X183738539Y-83375911D01*
X183890884Y-83250884D01*
X184015911Y-83098539D01*
X184071653Y-82994252D01*
X184108813Y-82924732D01*
X184108814Y-82924729D01*
X184108815Y-82924728D01*
X184150901Y-82785989D01*
X184189198Y-82727552D01*
X184253010Y-82699096D01*
X184322077Y-82709656D01*
X184374471Y-82755880D01*
X184389336Y-82789892D01*
X184446568Y-83003487D01*
X184446571Y-83003493D01*
X184546400Y-83217579D01*
X184681895Y-83411083D01*
X184848918Y-83578106D01*
X185042422Y-83713601D01*
X185256508Y-83813430D01*
X185256517Y-83813434D01*
X185470001Y-83870635D01*
X185470001Y-82973013D01*
X185527008Y-83005926D01*
X185654175Y-83040001D01*
X185785827Y-83040001D01*
X185912994Y-83005926D01*
X185970001Y-82973013D01*
X185970001Y-83870634D01*
X186183484Y-83813434D01*
X186183493Y-83813430D01*
X186397579Y-83713601D01*
X186591083Y-83578106D01*
X186758106Y-83411083D01*
X186893601Y-83217579D01*
X186993430Y-83003493D01*
X186993434Y-83003484D01*
X187050665Y-82789893D01*
X187087030Y-82730232D01*
X187149877Y-82699703D01*
X187219252Y-82707998D01*
X187273130Y-82752483D01*
X187289100Y-82785990D01*
X187331187Y-82924729D01*
X187424087Y-83098533D01*
X187424091Y-83098540D01*
X187549117Y-83250884D01*
X187701461Y-83375910D01*
X187701468Y-83375914D01*
X187875267Y-83468812D01*
X187875270Y-83468812D01*
X187875274Y-83468815D01*
X188063869Y-83526025D01*
X188260001Y-83545342D01*
X188456133Y-83526025D01*
X188644728Y-83468815D01*
X188682318Y-83448723D01*
X188752737Y-83411083D01*
X188818539Y-83375911D01*
X188970884Y-83250884D01*
X189095911Y-83098539D01*
X189146719Y-83003484D01*
X189188812Y-82924734D01*
X189188814Y-82924729D01*
X189188815Y-82924728D01*
X189246025Y-82736133D01*
X189265342Y-82540001D01*
X189246025Y-82343869D01*
X189188815Y-82155274D01*
X189188812Y-82155270D01*
X189188812Y-82155267D01*
X189095914Y-81981468D01*
X189095910Y-81981461D01*
X188970884Y-81829117D01*
X188818540Y-81704091D01*
X188818533Y-81704087D01*
X188644734Y-81611189D01*
X188644728Y-81611187D01*
X188456133Y-81553977D01*
X188456130Y-81553976D01*
X188260001Y-81534660D01*
X188063871Y-81553976D01*
X187875267Y-81611189D01*
X187701468Y-81704087D01*
X187701461Y-81704091D01*
X187549117Y-81829117D01*
X187424091Y-81981461D01*
X187424087Y-81981468D01*
X187331187Y-82155272D01*
X187289100Y-82294011D01*
X187250802Y-82352450D01*
X187186990Y-82380906D01*
X187117923Y-82370345D01*
X187065530Y-82324120D01*
X187050665Y-82290108D01*
X186993434Y-82076517D01*
X186993430Y-82076508D01*
X186893601Y-81862423D01*
X186893600Y-81862421D01*
X186758114Y-81668927D01*
X186758109Y-81668921D01*
X186591083Y-81501895D01*
X186404969Y-81371576D01*
X186361345Y-81316999D01*
X186354152Y-81247500D01*
X186385674Y-81185146D01*
X186404969Y-81168426D01*
X186591083Y-81038106D01*
X186758106Y-80871083D01*
X186893601Y-80677579D01*
X186993430Y-80463493D01*
X186993434Y-80463484D01*
X187050665Y-80249893D01*
X187087030Y-80190232D01*
X187149877Y-80159703D01*
X187219252Y-80167998D01*
X187273130Y-80212483D01*
X187289100Y-80245990D01*
X187331187Y-80384729D01*
X187424087Y-80558533D01*
X187424091Y-80558540D01*
X187549117Y-80710884D01*
X187701461Y-80835910D01*
X187701468Y-80835914D01*
X187875267Y-80928812D01*
X187875270Y-80928812D01*
X187875274Y-80928815D01*
X188063869Y-80986025D01*
X188260001Y-81005342D01*
X188456133Y-80986025D01*
X188644728Y-80928815D01*
X188818539Y-80835911D01*
X188970884Y-80710884D01*
X189095911Y-80558539D01*
X189180598Y-80400101D01*
X189188812Y-80384734D01*
X189188814Y-80384729D01*
X189188815Y-80384728D01*
X189246025Y-80196133D01*
X189265342Y-80000001D01*
X189246025Y-79803869D01*
X189188815Y-79615274D01*
X189188812Y-79615270D01*
X189188812Y-79615267D01*
X189095914Y-79441468D01*
X189095910Y-79441461D01*
X188970884Y-79289117D01*
X188818540Y-79164091D01*
X188818533Y-79164087D01*
X188644734Y-79071189D01*
X188644728Y-79071187D01*
X188456133Y-79013977D01*
X188456130Y-79013976D01*
X188260001Y-78994660D01*
X188063871Y-79013976D01*
X187875267Y-79071189D01*
X187701468Y-79164087D01*
X187701461Y-79164091D01*
X187549117Y-79289117D01*
X187424091Y-79441461D01*
X187424087Y-79441468D01*
X187331187Y-79615272D01*
X187289100Y-79754011D01*
X187250802Y-79812450D01*
X187186990Y-79840906D01*
X187117923Y-79830345D01*
X187065530Y-79784120D01*
X187050665Y-79750108D01*
X186993434Y-79536517D01*
X186993430Y-79536508D01*
X186893601Y-79322423D01*
X186893600Y-79322421D01*
X186758114Y-79128927D01*
X186758109Y-79128921D01*
X186591083Y-78961895D01*
X186397579Y-78826400D01*
X186183493Y-78726571D01*
X186183487Y-78726568D01*
X185970001Y-78669365D01*
X185970001Y-79566989D01*
X185912994Y-79534076D01*
X185785827Y-79500001D01*
X185654175Y-79500001D01*
X185527008Y-79534076D01*
X185470001Y-79566989D01*
X185470001Y-78669365D01*
X185470000Y-78669365D01*
X185256514Y-78726568D01*
X185256508Y-78726571D01*
X185042423Y-78826400D01*
X185042421Y-78826401D01*
X184848927Y-78961887D01*
X184848921Y-78961892D01*
X184681892Y-79128921D01*
X184681887Y-79128927D01*
X184546401Y-79322421D01*
X184546400Y-79322423D01*
X184446571Y-79536508D01*
X184446568Y-79536514D01*
X184389336Y-79750109D01*
X184352971Y-79809769D01*
X184290124Y-79840298D01*
X184220748Y-79832003D01*
X184166870Y-79787518D01*
X184150901Y-79754014D01*
X184108815Y-79615274D01*
X184108812Y-79615270D01*
X184108812Y-79615267D01*
X184015914Y-79441468D01*
X184015910Y-79441461D01*
X183890884Y-79289117D01*
X183738540Y-79164091D01*
X183738533Y-79164087D01*
X183564734Y-79071189D01*
X183564728Y-79071187D01*
X183376133Y-79013977D01*
X183376130Y-79013976D01*
X183180001Y-78994660D01*
X182983871Y-79013976D01*
X182795267Y-79071189D01*
X182621468Y-79164087D01*
X182621461Y-79164091D01*
X182469117Y-79289117D01*
X182344091Y-79441461D01*
X182344087Y-79441468D01*
X182251189Y-79615267D01*
X182193976Y-79803871D01*
X182174660Y-80000001D01*
X182193976Y-80196130D01*
X182251189Y-80384734D01*
X182344087Y-80558533D01*
X182344091Y-80558540D01*
X182469117Y-80710884D01*
X182621461Y-80835910D01*
X182621468Y-80835914D01*
X182795267Y-80928812D01*
X182795270Y-80928812D01*
X182795274Y-80928815D01*
X182983869Y-80986025D01*
X183180001Y-81005342D01*
X183376133Y-80986025D01*
X183564728Y-80928815D01*
X183738539Y-80835911D01*
X183890884Y-80710884D01*
X184015911Y-80558539D01*
X184100598Y-80400101D01*
X184108813Y-80384732D01*
X184108814Y-80384729D01*
X184108815Y-80384728D01*
X184150901Y-80245989D01*
X184189198Y-80187552D01*
X184253010Y-80159096D01*
X184322077Y-80169656D01*
X184374471Y-80215880D01*
X184389336Y-80249892D01*
X184446568Y-80463487D01*
X184446571Y-80463493D01*
X184546400Y-80677579D01*
X184681895Y-80871083D01*
X184848918Y-81038106D01*
X185035032Y-81168426D01*
X185078657Y-81223004D01*
X185085849Y-81292502D01*
X185054327Y-81354857D01*
X185035032Y-81371576D01*
X184848923Y-81501891D01*
X184848921Y-81501892D01*
X184681892Y-81668921D01*
X184681887Y-81668927D01*
X184546401Y-81862421D01*
X184546400Y-81862423D01*
X184446571Y-82076508D01*
X184446568Y-82076514D01*
X184389336Y-82290109D01*
X184352971Y-82349769D01*
X184290124Y-82380298D01*
X184220748Y-82372003D01*
X184166870Y-82327518D01*
X184150901Y-82294014D01*
X184108815Y-82155274D01*
X184108812Y-82155270D01*
X184108812Y-82155267D01*
X184015914Y-81981468D01*
X184015910Y-81981461D01*
X183890884Y-81829117D01*
X183738540Y-81704091D01*
X183738533Y-81704087D01*
X183564734Y-81611189D01*
X183564728Y-81611187D01*
X183376133Y-81553977D01*
X183376130Y-81553976D01*
X183180001Y-81534660D01*
X182983871Y-81553976D01*
X182795267Y-81611189D01*
X182621468Y-81704087D01*
X182621461Y-81704091D01*
X182469117Y-81829117D01*
X182344091Y-81981461D01*
X182344087Y-81981468D01*
X182251189Y-82155267D01*
X182193976Y-82343871D01*
X182174660Y-82540001D01*
X181645342Y-82540001D01*
X181626025Y-82343869D01*
X181568815Y-82155274D01*
X181568812Y-82155270D01*
X181568812Y-82155267D01*
X181475914Y-81981468D01*
X181475910Y-81981461D01*
X181350884Y-81829117D01*
X181198540Y-81704091D01*
X181198533Y-81704087D01*
X181024734Y-81611189D01*
X181024728Y-81611187D01*
X180836133Y-81553977D01*
X180836130Y-81553976D01*
X180640001Y-81534660D01*
X180443871Y-81553976D01*
X180255267Y-81611189D01*
X180081468Y-81704087D01*
X180081461Y-81704091D01*
X179929117Y-81829117D01*
X179804091Y-81981461D01*
X179804087Y-81981468D01*
X179711187Y-82155272D01*
X179669100Y-82294011D01*
X179630802Y-82352450D01*
X179566990Y-82380906D01*
X179497923Y-82370345D01*
X179445530Y-82324120D01*
X179430665Y-82290108D01*
X179373434Y-82076517D01*
X179373430Y-82076508D01*
X179273601Y-81862423D01*
X179273600Y-81862421D01*
X179138114Y-81668927D01*
X179138109Y-81668921D01*
X178971083Y-81501895D01*
X178784969Y-81371576D01*
X178741345Y-81316999D01*
X178734152Y-81247500D01*
X178765674Y-81185146D01*
X178784969Y-81168426D01*
X178971083Y-81038106D01*
X179138106Y-80871083D01*
X179273601Y-80677579D01*
X179373430Y-80463493D01*
X179373434Y-80463484D01*
X179430665Y-80249893D01*
X179467030Y-80190232D01*
X179529877Y-80159703D01*
X179599252Y-80167998D01*
X179653130Y-80212483D01*
X179669100Y-80245990D01*
X179711187Y-80384729D01*
X179804087Y-80558533D01*
X179804091Y-80558540D01*
X179929117Y-80710884D01*
X180081461Y-80835910D01*
X180081468Y-80835914D01*
X180255267Y-80928812D01*
X180255270Y-80928812D01*
X180255274Y-80928815D01*
X180443869Y-80986025D01*
X180640001Y-81005342D01*
X180836133Y-80986025D01*
X181024728Y-80928815D01*
X181198539Y-80835911D01*
X181350884Y-80710884D01*
X181475911Y-80558539D01*
X181560598Y-80400101D01*
X181568812Y-80384734D01*
X181568814Y-80384729D01*
X181568815Y-80384728D01*
X181626025Y-80196133D01*
X181645342Y-80000001D01*
X181626025Y-79803869D01*
X181568815Y-79615274D01*
X181568812Y-79615270D01*
X181568812Y-79615267D01*
X181475914Y-79441468D01*
X181475910Y-79441461D01*
X181350884Y-79289117D01*
X181198540Y-79164091D01*
X181198533Y-79164087D01*
X181024734Y-79071189D01*
X181024728Y-79071187D01*
X180836133Y-79013977D01*
X180836130Y-79013976D01*
X180640001Y-78994660D01*
X180443871Y-79013976D01*
X180255267Y-79071189D01*
X180081468Y-79164087D01*
X180081461Y-79164091D01*
X179929117Y-79289117D01*
X179804091Y-79441461D01*
X179804087Y-79441468D01*
X179711187Y-79615272D01*
X179669100Y-79754011D01*
X179630802Y-79812450D01*
X179566990Y-79840906D01*
X179497923Y-79830345D01*
X179445530Y-79784120D01*
X179430665Y-79750108D01*
X179373434Y-79536517D01*
X179373430Y-79536508D01*
X179273601Y-79322423D01*
X179273600Y-79322421D01*
X179138114Y-79128927D01*
X179138109Y-79128921D01*
X178971083Y-78961895D01*
X178777579Y-78826400D01*
X178563493Y-78726571D01*
X178563487Y-78726568D01*
X178350001Y-78669365D01*
X178350001Y-79566989D01*
X178292994Y-79534076D01*
X178165827Y-79500001D01*
X178034175Y-79500001D01*
X177907008Y-79534076D01*
X177850001Y-79566989D01*
X177850001Y-78669365D01*
X177850000Y-78669365D01*
X177636514Y-78726568D01*
X177636508Y-78726571D01*
X177422423Y-78826400D01*
X177422421Y-78826401D01*
X177228927Y-78961887D01*
X177228921Y-78961892D01*
X177061892Y-79128921D01*
X177061887Y-79128927D01*
X176926401Y-79322421D01*
X176926400Y-79322423D01*
X176826571Y-79536508D01*
X176826568Y-79536514D01*
X176769336Y-79750109D01*
X176732971Y-79809769D01*
X176670124Y-79840298D01*
X176600748Y-79832003D01*
X176546870Y-79787518D01*
X176530901Y-79754014D01*
X176488815Y-79615274D01*
X176488812Y-79615270D01*
X176488812Y-79615267D01*
X176395914Y-79441468D01*
X176395910Y-79441461D01*
X176270884Y-79289117D01*
X176118540Y-79164091D01*
X176118533Y-79164087D01*
X175944734Y-79071189D01*
X175944728Y-79071187D01*
X175756133Y-79013977D01*
X175756130Y-79013976D01*
X175560001Y-78994660D01*
X175363871Y-79013976D01*
X175175267Y-79071189D01*
X175001468Y-79164087D01*
X175001461Y-79164091D01*
X174849117Y-79289117D01*
X174724091Y-79441461D01*
X174724087Y-79441468D01*
X174631189Y-79615267D01*
X174573976Y-79803871D01*
X174554660Y-80000001D01*
X174573976Y-80196130D01*
X174631189Y-80384734D01*
X174724087Y-80558533D01*
X174724091Y-80558540D01*
X174849117Y-80710884D01*
X175001461Y-80835910D01*
X175001468Y-80835914D01*
X175175267Y-80928812D01*
X175175270Y-80928812D01*
X175175274Y-80928815D01*
X175363869Y-80986025D01*
X175560001Y-81005342D01*
X175756133Y-80986025D01*
X175944728Y-80928815D01*
X176118539Y-80835911D01*
X176270884Y-80710884D01*
X176395911Y-80558539D01*
X176480598Y-80400101D01*
X176488813Y-80384732D01*
X176488814Y-80384729D01*
X176488815Y-80384728D01*
X176530901Y-80245989D01*
X176569198Y-80187552D01*
X176633010Y-80159096D01*
X176702077Y-80169656D01*
X176754471Y-80215880D01*
X176769336Y-80249892D01*
X176826568Y-80463487D01*
X176826571Y-80463493D01*
X176926400Y-80677579D01*
X177061895Y-80871083D01*
X177228918Y-81038106D01*
X177415032Y-81168426D01*
X177458657Y-81223004D01*
X177465849Y-81292502D01*
X177434327Y-81354857D01*
X177415032Y-81371576D01*
X177228923Y-81501891D01*
X177228921Y-81501892D01*
X177061892Y-81668921D01*
X177061887Y-81668927D01*
X176926401Y-81862421D01*
X176926400Y-81862423D01*
X176826571Y-82076508D01*
X176826568Y-82076514D01*
X176769336Y-82290109D01*
X176732971Y-82349769D01*
X176670124Y-82380298D01*
X176600748Y-82372003D01*
X176546870Y-82327518D01*
X176530901Y-82294014D01*
X176488815Y-82155274D01*
X176488812Y-82155270D01*
X176488812Y-82155267D01*
X176395914Y-81981468D01*
X176395910Y-81981461D01*
X176270884Y-81829117D01*
X176118540Y-81704091D01*
X176118533Y-81704087D01*
X175944734Y-81611189D01*
X175944728Y-81611187D01*
X175756133Y-81553977D01*
X175756130Y-81553976D01*
X175560001Y-81534660D01*
X175363871Y-81553976D01*
X175175267Y-81611189D01*
X175001468Y-81704087D01*
X175001461Y-81704091D01*
X174849117Y-81829117D01*
X174724091Y-81981461D01*
X174724087Y-81981468D01*
X174631189Y-82155267D01*
X174573976Y-82343871D01*
X174554660Y-82540001D01*
X174025342Y-82540001D01*
X174006025Y-82343869D01*
X173948815Y-82155274D01*
X173948812Y-82155270D01*
X173948812Y-82155267D01*
X173855914Y-81981468D01*
X173855910Y-81981461D01*
X173730884Y-81829117D01*
X173578540Y-81704091D01*
X173578533Y-81704087D01*
X173404734Y-81611189D01*
X173404728Y-81611187D01*
X173216133Y-81553977D01*
X173216130Y-81553976D01*
X173020001Y-81534660D01*
X172823871Y-81553976D01*
X172635267Y-81611189D01*
X172461468Y-81704087D01*
X172461461Y-81704091D01*
X172309117Y-81829117D01*
X172184091Y-81981461D01*
X172184087Y-81981468D01*
X172091187Y-82155272D01*
X172049100Y-82294011D01*
X172010802Y-82352450D01*
X171946990Y-82380906D01*
X171877923Y-82370345D01*
X171825530Y-82324120D01*
X171810665Y-82290108D01*
X171753434Y-82076517D01*
X171753430Y-82076508D01*
X171653601Y-81862423D01*
X171653600Y-81862421D01*
X171518114Y-81668927D01*
X171518109Y-81668921D01*
X171351083Y-81501895D01*
X171164969Y-81371576D01*
X171121345Y-81316999D01*
X171114152Y-81247500D01*
X171145674Y-81185146D01*
X171164969Y-81168426D01*
X171351083Y-81038106D01*
X171518106Y-80871083D01*
X171653601Y-80677579D01*
X171753430Y-80463493D01*
X171753434Y-80463484D01*
X171810665Y-80249893D01*
X171847030Y-80190232D01*
X171909877Y-80159703D01*
X171979252Y-80167998D01*
X172033130Y-80212483D01*
X172049100Y-80245990D01*
X172091187Y-80384729D01*
X172184087Y-80558533D01*
X172184091Y-80558540D01*
X172309117Y-80710884D01*
X172461461Y-80835910D01*
X172461468Y-80835914D01*
X172635267Y-80928812D01*
X172635270Y-80928812D01*
X172635274Y-80928815D01*
X172823869Y-80986025D01*
X173020001Y-81005342D01*
X173216133Y-80986025D01*
X173404728Y-80928815D01*
X173578539Y-80835911D01*
X173730884Y-80710884D01*
X173855911Y-80558539D01*
X173940598Y-80400101D01*
X173948812Y-80384734D01*
X173948814Y-80384729D01*
X173948815Y-80384728D01*
X174006025Y-80196133D01*
X174025342Y-80000001D01*
X174006025Y-79803869D01*
X173948815Y-79615274D01*
X173948812Y-79615270D01*
X173948812Y-79615267D01*
X173855914Y-79441468D01*
X173855910Y-79441461D01*
X173730884Y-79289117D01*
X173578540Y-79164091D01*
X173578533Y-79164087D01*
X173404734Y-79071189D01*
X173404728Y-79071187D01*
X173216133Y-79013977D01*
X173216130Y-79013976D01*
X173020001Y-78994660D01*
X172823871Y-79013976D01*
X172635267Y-79071189D01*
X172461468Y-79164087D01*
X172461461Y-79164091D01*
X172309117Y-79289117D01*
X172184091Y-79441461D01*
X172184087Y-79441468D01*
X172091187Y-79615272D01*
X172049100Y-79754011D01*
X172010802Y-79812450D01*
X171946990Y-79840906D01*
X171877923Y-79830345D01*
X171825530Y-79784120D01*
X171810665Y-79750108D01*
X171753434Y-79536517D01*
X171753430Y-79536508D01*
X171653601Y-79322423D01*
X171653600Y-79322421D01*
X171518114Y-79128927D01*
X171518109Y-79128921D01*
X171351083Y-78961895D01*
X171157579Y-78826400D01*
X170943493Y-78726571D01*
X170943487Y-78726568D01*
X170730001Y-78669365D01*
X170730001Y-79566989D01*
X170672994Y-79534076D01*
X170545827Y-79500001D01*
X170414175Y-79500001D01*
X170287008Y-79534076D01*
X170230001Y-79566989D01*
X170230001Y-78669365D01*
X170230000Y-78669365D01*
X170016514Y-78726568D01*
X170016508Y-78726571D01*
X169802423Y-78826400D01*
X169802421Y-78826401D01*
X169608927Y-78961887D01*
X169608921Y-78961892D01*
X169441892Y-79128921D01*
X169441887Y-79128927D01*
X169306401Y-79322421D01*
X169306400Y-79322423D01*
X169206571Y-79536508D01*
X169206568Y-79536514D01*
X169149336Y-79750109D01*
X169112971Y-79809769D01*
X169050124Y-79840298D01*
X168980748Y-79832003D01*
X168926870Y-79787518D01*
X168910901Y-79754014D01*
X168868815Y-79615274D01*
X168868812Y-79615270D01*
X168868812Y-79615267D01*
X168775914Y-79441468D01*
X168775910Y-79441461D01*
X168650884Y-79289117D01*
X168498540Y-79164091D01*
X168498533Y-79164087D01*
X168324734Y-79071189D01*
X168324728Y-79071187D01*
X168136133Y-79013977D01*
X168136130Y-79013976D01*
X167940001Y-78994660D01*
X167743871Y-79013976D01*
X167555267Y-79071189D01*
X167381468Y-79164087D01*
X167381461Y-79164091D01*
X167229117Y-79289117D01*
X167104091Y-79441461D01*
X167104087Y-79441468D01*
X167011189Y-79615267D01*
X166953976Y-79803871D01*
X166934660Y-80000001D01*
X166953976Y-80196130D01*
X167011189Y-80384734D01*
X167104087Y-80558533D01*
X167104091Y-80558540D01*
X167229117Y-80710884D01*
X167381461Y-80835910D01*
X167381468Y-80835914D01*
X167555267Y-80928812D01*
X167555270Y-80928812D01*
X167555274Y-80928815D01*
X167743869Y-80986025D01*
X167940001Y-81005342D01*
X168136133Y-80986025D01*
X168324728Y-80928815D01*
X168498539Y-80835911D01*
X168650884Y-80710884D01*
X168775911Y-80558539D01*
X168860598Y-80400101D01*
X168868813Y-80384732D01*
X168868814Y-80384729D01*
X168868815Y-80384728D01*
X168910901Y-80245989D01*
X168949198Y-80187552D01*
X169013010Y-80159096D01*
X169082077Y-80169656D01*
X169134471Y-80215880D01*
X169149336Y-80249892D01*
X169206568Y-80463487D01*
X169206571Y-80463493D01*
X169306400Y-80677579D01*
X169441895Y-80871083D01*
X169608918Y-81038106D01*
X169795032Y-81168426D01*
X169838657Y-81223004D01*
X169845849Y-81292502D01*
X169814327Y-81354857D01*
X169795032Y-81371576D01*
X169608923Y-81501891D01*
X169608921Y-81501892D01*
X169441892Y-81668921D01*
X169441887Y-81668927D01*
X169306401Y-81862421D01*
X169306400Y-81862423D01*
X169206571Y-82076508D01*
X169206568Y-82076514D01*
X169149336Y-82290109D01*
X169112971Y-82349769D01*
X169050124Y-82380298D01*
X168980748Y-82372003D01*
X168926870Y-82327518D01*
X168910901Y-82294014D01*
X168868815Y-82155274D01*
X168868812Y-82155270D01*
X168868812Y-82155267D01*
X168775914Y-81981468D01*
X168775910Y-81981461D01*
X168650884Y-81829117D01*
X168498540Y-81704091D01*
X168498533Y-81704087D01*
X168324734Y-81611189D01*
X168324728Y-81611187D01*
X168136133Y-81553977D01*
X168136130Y-81553976D01*
X167940001Y-81534660D01*
X167743871Y-81553976D01*
X167555267Y-81611189D01*
X167381468Y-81704087D01*
X167381461Y-81704091D01*
X167229117Y-81829117D01*
X167104091Y-81981461D01*
X167104087Y-81981468D01*
X167011189Y-82155267D01*
X166953976Y-82343871D01*
X166934660Y-82540001D01*
X166405342Y-82540001D01*
X166386025Y-82343869D01*
X166328815Y-82155274D01*
X166328812Y-82155270D01*
X166328812Y-82155267D01*
X166235914Y-81981468D01*
X166235910Y-81981461D01*
X166110884Y-81829117D01*
X165958540Y-81704091D01*
X165958533Y-81704087D01*
X165784734Y-81611189D01*
X165784728Y-81611187D01*
X165596133Y-81553977D01*
X165596130Y-81553976D01*
X165400001Y-81534660D01*
X165203871Y-81553976D01*
X165015267Y-81611189D01*
X164841468Y-81704087D01*
X164841461Y-81704091D01*
X164689117Y-81829117D01*
X164564091Y-81981461D01*
X164564087Y-81981468D01*
X164471187Y-82155272D01*
X164429100Y-82294011D01*
X164390802Y-82352450D01*
X164326990Y-82380906D01*
X164257923Y-82370345D01*
X164205530Y-82324120D01*
X164190665Y-82290108D01*
X164133434Y-82076517D01*
X164133430Y-82076508D01*
X164033601Y-81862423D01*
X164033600Y-81862421D01*
X163898114Y-81668927D01*
X163898109Y-81668921D01*
X163731083Y-81501895D01*
X163544969Y-81371576D01*
X163501345Y-81316999D01*
X163494152Y-81247500D01*
X163525674Y-81185146D01*
X163544969Y-81168426D01*
X163731083Y-81038106D01*
X163898106Y-80871083D01*
X164033601Y-80677579D01*
X164133430Y-80463493D01*
X164133434Y-80463484D01*
X164190665Y-80249893D01*
X164227030Y-80190232D01*
X164289877Y-80159703D01*
X164359252Y-80167998D01*
X164413130Y-80212483D01*
X164429100Y-80245990D01*
X164471187Y-80384729D01*
X164564087Y-80558533D01*
X164564091Y-80558540D01*
X164689117Y-80710884D01*
X164841461Y-80835910D01*
X164841468Y-80835914D01*
X165015267Y-80928812D01*
X165015270Y-80928812D01*
X165015274Y-80928815D01*
X165203869Y-80986025D01*
X165400001Y-81005342D01*
X165596133Y-80986025D01*
X165784728Y-80928815D01*
X165958539Y-80835911D01*
X166110884Y-80710884D01*
X166235911Y-80558539D01*
X166320598Y-80400101D01*
X166328812Y-80384734D01*
X166328814Y-80384729D01*
X166328815Y-80384728D01*
X166386025Y-80196133D01*
X166405342Y-80000001D01*
X166386025Y-79803869D01*
X166328815Y-79615274D01*
X166328812Y-79615270D01*
X166328812Y-79615267D01*
X166235914Y-79441468D01*
X166235910Y-79441461D01*
X166110884Y-79289117D01*
X165958540Y-79164091D01*
X165958533Y-79164087D01*
X165784734Y-79071189D01*
X165784728Y-79071187D01*
X165596133Y-79013977D01*
X165596130Y-79013976D01*
X165400001Y-78994660D01*
X165203871Y-79013976D01*
X165015267Y-79071189D01*
X164841468Y-79164087D01*
X164841461Y-79164091D01*
X164689117Y-79289117D01*
X164564091Y-79441461D01*
X164564087Y-79441468D01*
X164471187Y-79615272D01*
X164429100Y-79754011D01*
X164390802Y-79812450D01*
X164326990Y-79840906D01*
X164257923Y-79830345D01*
X164205530Y-79784120D01*
X164190665Y-79750108D01*
X164133434Y-79536517D01*
X164133430Y-79536508D01*
X164033601Y-79322423D01*
X164033600Y-79322421D01*
X163898114Y-79128927D01*
X163898109Y-79128921D01*
X163731083Y-78961895D01*
X163537579Y-78826400D01*
X163323493Y-78726571D01*
X163323487Y-78726568D01*
X163110001Y-78669365D01*
X163110001Y-79566989D01*
X163052994Y-79534076D01*
X162925827Y-79500001D01*
X162794175Y-79500001D01*
X162667008Y-79534076D01*
X162610001Y-79566989D01*
X162610001Y-78669365D01*
X162610000Y-78669365D01*
X162396514Y-78726568D01*
X162396508Y-78726571D01*
X162182423Y-78826400D01*
X162182421Y-78826401D01*
X161988927Y-78961887D01*
X161988921Y-78961892D01*
X161821892Y-79128921D01*
X161821887Y-79128927D01*
X161686401Y-79322421D01*
X161686400Y-79322423D01*
X161586571Y-79536508D01*
X161586568Y-79536514D01*
X161529336Y-79750109D01*
X161492971Y-79809769D01*
X161430124Y-79840298D01*
X161360748Y-79832003D01*
X161306870Y-79787518D01*
X161290901Y-79754014D01*
X161248815Y-79615274D01*
X161248812Y-79615270D01*
X161248812Y-79615267D01*
X161155914Y-79441468D01*
X161155910Y-79441461D01*
X161030884Y-79289117D01*
X160878540Y-79164091D01*
X160878533Y-79164087D01*
X160704734Y-79071189D01*
X160704728Y-79071187D01*
X160516133Y-79013977D01*
X160516130Y-79013976D01*
X160320001Y-78994660D01*
X160123871Y-79013976D01*
X159935267Y-79071189D01*
X159761468Y-79164087D01*
X159761461Y-79164091D01*
X159609117Y-79289117D01*
X159484091Y-79441461D01*
X159484087Y-79441468D01*
X159391189Y-79615267D01*
X159333976Y-79803871D01*
X159314660Y-80000001D01*
X159333976Y-80196130D01*
X159391189Y-80384734D01*
X159484087Y-80558533D01*
X159484091Y-80558540D01*
X159609117Y-80710884D01*
X159761461Y-80835910D01*
X159761468Y-80835914D01*
X159935267Y-80928812D01*
X159935270Y-80928812D01*
X159935274Y-80928815D01*
X160123869Y-80986025D01*
X160320001Y-81005342D01*
X160516133Y-80986025D01*
X160704728Y-80928815D01*
X160878539Y-80835911D01*
X161030884Y-80710884D01*
X161155911Y-80558539D01*
X161240598Y-80400101D01*
X161248813Y-80384732D01*
X161248814Y-80384729D01*
X161248815Y-80384728D01*
X161290901Y-80245989D01*
X161329198Y-80187552D01*
X161393010Y-80159096D01*
X161462077Y-80169656D01*
X161514471Y-80215880D01*
X161529336Y-80249892D01*
X161586568Y-80463487D01*
X161586571Y-80463493D01*
X161686400Y-80677579D01*
X161821895Y-80871083D01*
X161988918Y-81038106D01*
X162175032Y-81168426D01*
X162218657Y-81223004D01*
X162225849Y-81292502D01*
X162194327Y-81354857D01*
X162175032Y-81371576D01*
X161988923Y-81501891D01*
X161988921Y-81501892D01*
X161821892Y-81668921D01*
X161821887Y-81668927D01*
X161686401Y-81862421D01*
X161686400Y-81862423D01*
X161586571Y-82076508D01*
X161586568Y-82076514D01*
X161529336Y-82290109D01*
X161492971Y-82349769D01*
X161430124Y-82380298D01*
X161360748Y-82372003D01*
X161306870Y-82327518D01*
X161290901Y-82294014D01*
X161248815Y-82155274D01*
X161248812Y-82155270D01*
X161248812Y-82155267D01*
X161155914Y-81981468D01*
X161155910Y-81981461D01*
X161030884Y-81829117D01*
X160878540Y-81704091D01*
X160878533Y-81704087D01*
X160704734Y-81611189D01*
X160704728Y-81611187D01*
X160516133Y-81553977D01*
X160516130Y-81553976D01*
X160320001Y-81534660D01*
X160123871Y-81553976D01*
X159935267Y-81611189D01*
X159761468Y-81704087D01*
X159761461Y-81704091D01*
X159609117Y-81829117D01*
X159484091Y-81981461D01*
X159484087Y-81981468D01*
X159391189Y-82155267D01*
X159333976Y-82343871D01*
X159314660Y-82540001D01*
X158785342Y-82540001D01*
X158766025Y-82343869D01*
X158708815Y-82155274D01*
X158708812Y-82155270D01*
X158708812Y-82155267D01*
X158615914Y-81981468D01*
X158615910Y-81981461D01*
X158490884Y-81829117D01*
X158338540Y-81704091D01*
X158338533Y-81704087D01*
X158164734Y-81611189D01*
X158164728Y-81611187D01*
X157976133Y-81553977D01*
X157976130Y-81553976D01*
X157780001Y-81534660D01*
X157583871Y-81553976D01*
X157395267Y-81611189D01*
X157221468Y-81704087D01*
X157221461Y-81704091D01*
X157069117Y-81829117D01*
X156944091Y-81981461D01*
X156944087Y-81981468D01*
X156851187Y-82155272D01*
X156809100Y-82294011D01*
X156770802Y-82352450D01*
X156706990Y-82380906D01*
X156637923Y-82370345D01*
X156585530Y-82324120D01*
X156570665Y-82290108D01*
X156513434Y-82076517D01*
X156513430Y-82076508D01*
X156413601Y-81862423D01*
X156413600Y-81862421D01*
X156278114Y-81668927D01*
X156278109Y-81668921D01*
X156111083Y-81501895D01*
X155924969Y-81371576D01*
X155881345Y-81316999D01*
X155874152Y-81247500D01*
X155905674Y-81185146D01*
X155924969Y-81168426D01*
X156111083Y-81038106D01*
X156278106Y-80871083D01*
X156413601Y-80677579D01*
X156513430Y-80463493D01*
X156513434Y-80463484D01*
X156570665Y-80249893D01*
X156607030Y-80190232D01*
X156669877Y-80159703D01*
X156739252Y-80167998D01*
X156793130Y-80212483D01*
X156809100Y-80245990D01*
X156851187Y-80384729D01*
X156944087Y-80558533D01*
X156944091Y-80558540D01*
X157069117Y-80710884D01*
X157221461Y-80835910D01*
X157221468Y-80835914D01*
X157395267Y-80928812D01*
X157395270Y-80928812D01*
X157395274Y-80928815D01*
X157583869Y-80986025D01*
X157780001Y-81005342D01*
X157976133Y-80986025D01*
X158164728Y-80928815D01*
X158338539Y-80835911D01*
X158490884Y-80710884D01*
X158615911Y-80558539D01*
X158700598Y-80400101D01*
X158708812Y-80384734D01*
X158708814Y-80384729D01*
X158708815Y-80384728D01*
X158766025Y-80196133D01*
X158785342Y-80000001D01*
X158766025Y-79803869D01*
X158708815Y-79615274D01*
X158708812Y-79615270D01*
X158708812Y-79615267D01*
X158615914Y-79441468D01*
X158615910Y-79441461D01*
X158490884Y-79289117D01*
X158338540Y-79164091D01*
X158338533Y-79164087D01*
X158164734Y-79071189D01*
X158164728Y-79071187D01*
X157976133Y-79013977D01*
X157976130Y-79013976D01*
X157780001Y-78994660D01*
X157583871Y-79013976D01*
X157395267Y-79071189D01*
X157221468Y-79164087D01*
X157221461Y-79164091D01*
X157069117Y-79289117D01*
X156944091Y-79441461D01*
X156944087Y-79441468D01*
X156851187Y-79615272D01*
X156809100Y-79754011D01*
X156770802Y-79812450D01*
X156706990Y-79840906D01*
X156637923Y-79830345D01*
X156585530Y-79784120D01*
X156570665Y-79750108D01*
X156513434Y-79536517D01*
X156513430Y-79536508D01*
X156413601Y-79322423D01*
X156413600Y-79322421D01*
X156278114Y-79128927D01*
X156278109Y-79128921D01*
X156111083Y-78961895D01*
X155917579Y-78826400D01*
X155703493Y-78726571D01*
X155703487Y-78726568D01*
X155490001Y-78669365D01*
X155490001Y-79566989D01*
X155432994Y-79534076D01*
X155305827Y-79500001D01*
X155174175Y-79500001D01*
X155047008Y-79534076D01*
X154990001Y-79566989D01*
X154990001Y-78669365D01*
X154990000Y-78669365D01*
X154776514Y-78726568D01*
X154776508Y-78726571D01*
X154562423Y-78826400D01*
X154562421Y-78826401D01*
X154368927Y-78961887D01*
X154368921Y-78961892D01*
X154201892Y-79128921D01*
X154201887Y-79128927D01*
X154066401Y-79322421D01*
X154066400Y-79322423D01*
X153966571Y-79536508D01*
X153966568Y-79536514D01*
X153909336Y-79750109D01*
X153872971Y-79809769D01*
X153810124Y-79840298D01*
X153740748Y-79832003D01*
X153686870Y-79787518D01*
X153670901Y-79754014D01*
X153628815Y-79615274D01*
X153628812Y-79615270D01*
X153628812Y-79615267D01*
X153535914Y-79441468D01*
X153535910Y-79441461D01*
X153410884Y-79289117D01*
X153258540Y-79164091D01*
X153258533Y-79164087D01*
X153084734Y-79071189D01*
X153084728Y-79071187D01*
X152896133Y-79013977D01*
X152896130Y-79013976D01*
X152700001Y-78994660D01*
X152503871Y-79013976D01*
X152315267Y-79071189D01*
X152141468Y-79164087D01*
X152141461Y-79164091D01*
X151989117Y-79289117D01*
X151864091Y-79441461D01*
X151864087Y-79441468D01*
X151771189Y-79615267D01*
X151713976Y-79803871D01*
X151694660Y-80000001D01*
X151713976Y-80196130D01*
X151771189Y-80384734D01*
X151864087Y-80558533D01*
X151864091Y-80558540D01*
X151989117Y-80710884D01*
X152141461Y-80835910D01*
X152141468Y-80835914D01*
X152315267Y-80928812D01*
X152315270Y-80928812D01*
X152315274Y-80928815D01*
X152503869Y-80986025D01*
X152700001Y-81005342D01*
X152896133Y-80986025D01*
X153084728Y-80928815D01*
X153258539Y-80835911D01*
X153410884Y-80710884D01*
X153535911Y-80558539D01*
X153620598Y-80400101D01*
X153628813Y-80384732D01*
X153628814Y-80384729D01*
X153628815Y-80384728D01*
X153670901Y-80245989D01*
X153709198Y-80187552D01*
X153773010Y-80159096D01*
X153842077Y-80169656D01*
X153894471Y-80215880D01*
X153909336Y-80249892D01*
X153966568Y-80463487D01*
X153966571Y-80463493D01*
X154066400Y-80677579D01*
X154201895Y-80871083D01*
X154368918Y-81038106D01*
X154555032Y-81168426D01*
X154598657Y-81223004D01*
X154605849Y-81292502D01*
X154574327Y-81354857D01*
X154555032Y-81371576D01*
X154368923Y-81501891D01*
X154368921Y-81501892D01*
X154201892Y-81668921D01*
X154201887Y-81668927D01*
X154066401Y-81862421D01*
X154066400Y-81862423D01*
X153966571Y-82076508D01*
X153966568Y-82076514D01*
X153909336Y-82290109D01*
X153872971Y-82349769D01*
X153810124Y-82380298D01*
X153740748Y-82372003D01*
X153686870Y-82327518D01*
X153670901Y-82294014D01*
X153628815Y-82155274D01*
X153628812Y-82155270D01*
X153628812Y-82155267D01*
X153535914Y-81981468D01*
X153535910Y-81981461D01*
X153410884Y-81829117D01*
X153258540Y-81704091D01*
X153258533Y-81704087D01*
X153084734Y-81611189D01*
X153084728Y-81611187D01*
X152896133Y-81553977D01*
X152896130Y-81553976D01*
X152700001Y-81534660D01*
X152503871Y-81553976D01*
X152315267Y-81611189D01*
X152141468Y-81704087D01*
X152141461Y-81704091D01*
X151989117Y-81829117D01*
X151864091Y-81981461D01*
X151864087Y-81981468D01*
X151771189Y-82155267D01*
X151713976Y-82343871D01*
X151694660Y-82540001D01*
X151165341Y-82540001D01*
X151146024Y-82343869D01*
X151088814Y-82155274D01*
X151088811Y-82155270D01*
X151088811Y-82155267D01*
X150995913Y-81981468D01*
X150995909Y-81981461D01*
X150870883Y-81829117D01*
X150718539Y-81704091D01*
X150718532Y-81704087D01*
X150544733Y-81611189D01*
X150544727Y-81611187D01*
X150356132Y-81553977D01*
X150356129Y-81553976D01*
X150160000Y-81534660D01*
X149963870Y-81553976D01*
X149775266Y-81611189D01*
X149601467Y-81704087D01*
X149601460Y-81704091D01*
X149449116Y-81829117D01*
X149324090Y-81981461D01*
X149324086Y-81981468D01*
X149231188Y-82155267D01*
X149173975Y-82343871D01*
X149154659Y-82540001D01*
X148625342Y-82540001D01*
X148606025Y-82343869D01*
X148548815Y-82155274D01*
X148548812Y-82155270D01*
X148548812Y-82155267D01*
X148455914Y-81981468D01*
X148455910Y-81981461D01*
X148330884Y-81829117D01*
X148178540Y-81704091D01*
X148178533Y-81704087D01*
X148004734Y-81611189D01*
X148004728Y-81611187D01*
X147865989Y-81569100D01*
X147807553Y-81530804D01*
X147779096Y-81466992D01*
X147789657Y-81397925D01*
X147835881Y-81345531D01*
X147869894Y-81330666D01*
X148083484Y-81273435D01*
X148083493Y-81273431D01*
X148297579Y-81173602D01*
X148491083Y-81038107D01*
X148658106Y-80871084D01*
X148793601Y-80677580D01*
X148893430Y-80463494D01*
X148893434Y-80463485D01*
X148950665Y-80249893D01*
X148987030Y-80190233D01*
X149049876Y-80159703D01*
X149119252Y-80167997D01*
X149173130Y-80212482D01*
X149189100Y-80245990D01*
X149231187Y-80384729D01*
X149324087Y-80558533D01*
X149324091Y-80558540D01*
X149449117Y-80710884D01*
X149601461Y-80835910D01*
X149601468Y-80835914D01*
X149775267Y-80928812D01*
X149775270Y-80928812D01*
X149775274Y-80928815D01*
X149963869Y-80986025D01*
X150160001Y-81005342D01*
X150356133Y-80986025D01*
X150544728Y-80928815D01*
X150718539Y-80835911D01*
X150870884Y-80710884D01*
X150995911Y-80558539D01*
X151080598Y-80400101D01*
X151088812Y-80384734D01*
X151088814Y-80384729D01*
X151088815Y-80384728D01*
X151146025Y-80196133D01*
X151165342Y-80000001D01*
X151146025Y-79803869D01*
X151088815Y-79615274D01*
X151088812Y-79615270D01*
X151088812Y-79615267D01*
X150995914Y-79441468D01*
X150995910Y-79441461D01*
X150870884Y-79289117D01*
X150718540Y-79164091D01*
X150718533Y-79164087D01*
X150544734Y-79071189D01*
X150544728Y-79071187D01*
X150356133Y-79013977D01*
X150356130Y-79013976D01*
X150160001Y-78994660D01*
X149963871Y-79013976D01*
X149775267Y-79071189D01*
X149601468Y-79164087D01*
X149601461Y-79164091D01*
X149449117Y-79289117D01*
X149324091Y-79441461D01*
X149324087Y-79441468D01*
X149231187Y-79615272D01*
X149189100Y-79754012D01*
X149150802Y-79812450D01*
X149086990Y-79840907D01*
X149017923Y-79830346D01*
X148965530Y-79784121D01*
X148950665Y-79750109D01*
X148893434Y-79536518D01*
X148893430Y-79536509D01*
X148793601Y-79322424D01*
X148793600Y-79322422D01*
X148658114Y-79128928D01*
X148658109Y-79128922D01*
X148491083Y-78961896D01*
X148297579Y-78826401D01*
X148083493Y-78726572D01*
X148083487Y-78726569D01*
X147870001Y-78669366D01*
X147870001Y-79566990D01*
X147812994Y-79534077D01*
X147685827Y-79500002D01*
X147554175Y-79500002D01*
X147427008Y-79534077D01*
X147370001Y-79566990D01*
X147370001Y-78669366D01*
X147370000Y-78669366D01*
X147156514Y-78726569D01*
X147156508Y-78726572D01*
X146942423Y-78826401D01*
X146942421Y-78826402D01*
X146748927Y-78961888D01*
X146748921Y-78961893D01*
X146581892Y-79128922D01*
X146581887Y-79128928D01*
X146446401Y-79322422D01*
X146446400Y-79322424D01*
X146346571Y-79536509D01*
X146346568Y-79536515D01*
X146289336Y-79750110D01*
X146252971Y-79809770D01*
X146190124Y-79840299D01*
X146120748Y-79832004D01*
X146066870Y-79787519D01*
X146050901Y-79754014D01*
X146008815Y-79615274D01*
X146008813Y-79615271D01*
X146008813Y-79615269D01*
X145915914Y-79441468D01*
X145915910Y-79441461D01*
X145790884Y-79289117D01*
X145638540Y-79164091D01*
X145638533Y-79164087D01*
X145464734Y-79071189D01*
X145464728Y-79071187D01*
X145276133Y-79013977D01*
X145276130Y-79013976D01*
X145080001Y-78994660D01*
X144883871Y-79013976D01*
X144695267Y-79071189D01*
X144521468Y-79164087D01*
X144521461Y-79164091D01*
X144369117Y-79289117D01*
X144244091Y-79441461D01*
X144244087Y-79441468D01*
X144151189Y-79615267D01*
X144093976Y-79803871D01*
X144074660Y-80000001D01*
X143545342Y-80000001D01*
X143526025Y-79803869D01*
X143468815Y-79615274D01*
X143468812Y-79615270D01*
X143468812Y-79615267D01*
X143375914Y-79441468D01*
X143375910Y-79441461D01*
X143250884Y-79289117D01*
X143098540Y-79164091D01*
X143098533Y-79164087D01*
X142924734Y-79071189D01*
X142924728Y-79071187D01*
X142736133Y-79013977D01*
X142736130Y-79013976D01*
X142540001Y-78994660D01*
X142343871Y-79013976D01*
X142155267Y-79071189D01*
X141981468Y-79164087D01*
X141981461Y-79164091D01*
X141829117Y-79289117D01*
X141704091Y-79441461D01*
X141704087Y-79441468D01*
X141611189Y-79615267D01*
X141553976Y-79803871D01*
X141534660Y-80000001D01*
X141005342Y-80000001D01*
X140986025Y-79803869D01*
X140928815Y-79615274D01*
X140928812Y-79615270D01*
X140928812Y-79615267D01*
X140835914Y-79441468D01*
X140835910Y-79441461D01*
X140710884Y-79289117D01*
X140558540Y-79164091D01*
X140558533Y-79164087D01*
X140384734Y-79071189D01*
X140384728Y-79071187D01*
X140196133Y-79013977D01*
X140196130Y-79013976D01*
X140000001Y-78994660D01*
X139803871Y-79013976D01*
X139615267Y-79071189D01*
X139441468Y-79164087D01*
X139441461Y-79164091D01*
X139289117Y-79289117D01*
X139164091Y-79441461D01*
X139164087Y-79441468D01*
X139071189Y-79615267D01*
X139013976Y-79803871D01*
X138994660Y-80000001D01*
X135751368Y-80000001D01*
X136852144Y-78018605D01*
X136852923Y-78017228D01*
X136937747Y-77869755D01*
X136944680Y-77859025D01*
X137144227Y-77582609D01*
X137153486Y-77571262D01*
X137231059Y-77486894D01*
X137383605Y-77320985D01*
X137394130Y-77310817D01*
X137652149Y-77089428D01*
X137663808Y-77080563D01*
X137732187Y-77034685D01*
X137946144Y-76891133D01*
X137958742Y-76883720D01*
X138261451Y-76728899D01*
X138274849Y-76723018D01*
X138593695Y-76604973D01*
X138607685Y-76600715D01*
X138938225Y-76521089D01*
X138952618Y-76518510D01*
X139291160Y-76478306D01*
X139303937Y-76477455D01*
X139473969Y-76474957D01*
X139475790Y-76474945D01*
X188784220Y-76474945D01*
X188785876Y-76474955D01*
G37*
%TD.AperFunction*%
%TD*%
M02*
