M48
; DRILL file {KiCad 8.0.0} date 2024-03-25T03:31:54+0000
; FORMAT={-:-/ absolute / inch / decimal}
; #@! TF.CreationDate,2024-03-25T03:31:54+00:00
; #@! TF.GenerationSoftware,Kicad,Pcbnew,8.0.0
; #@! TF.FileFunction,Plated,1,4,PTH
FMAT,2
INCH
; #@! TA.AperFunction,Plated,PTH,ViaDrill
T1C0.0118
; #@! TA.AperFunction,Plated,PTH,ComponentDrill
T2C0.0236
; #@! TA.AperFunction,Plated,PTH,ComponentDrill
T3C0.0256
; #@! TA.AperFunction,Plated,PTH,ComponentDrill
T4C0.0394
%
G90
G05
T1
X4.6417Y-4.8031
X4.811Y-4.5394
X4.815Y-4.6417
X4.815Y-4.748
X4.8543Y-4.6417
X4.8701Y-4.5276
X4.8898Y-4.6417
X4.9134Y-4.4646
X4.9173Y-4.3819
X4.9291Y-4.6417
X4.9449Y-4.5354
X4.9449Y-4.5709
X4.9724Y-4.9921
X5.0197Y-3.8858
X5.0387Y-4.1024
X5.0512Y-3.8858
X5.063Y-3.9961
X5.078Y-4.1024
X5.0827Y-3.8858
X5.1181Y-3.8858
X5.1489Y-4.0315
X5.1686Y-4.0079
X5.2047Y-3.5787
X5.2047Y-4.8268
X5.2087Y-3.7402
X5.2165Y-4.5709
X5.2283Y-4.6181
X5.2441Y-4.8268
X5.2559Y-4.5709
X5.3031Y-3.3976
X5.3228Y-4.6339
X5.3268Y-3.6811
X5.3504Y-3.9613
X5.3504Y-3.9961
X5.3622Y-4.4646
X5.3765Y-4.5709
X5.3976Y-3.7913
X5.4094Y-4.6732
X5.4252Y-3.5
X5.4331Y-4.4134
X5.4528Y-4.5394
X5.4528Y-3.7362
X5.4882Y-3.6811
X5.4987Y-4.7836
X5.5Y-3.5866
X5.5079Y-4.2165
X5.517Y-4.7511
X5.5236Y-3.5591
X5.5472Y-4.5472
X5.5472Y-4.5827
X5.5748Y-3.5079
X5.6011Y-4.8615
X5.6024Y-4.0945
X5.6024Y-3.4843
X5.6234Y-3.706
X5.6305Y-4.122
X5.6339Y-4.5098
X5.6457Y-3.6837
X5.6732Y-3.4252
X5.685Y-4.3898
X5.6969Y-4.1949
X5.7205Y-4.5472
X5.7205Y-4.5866
X5.7244Y-4.374
X5.7283Y-3.8228
X5.7323Y-3.8583
X5.7323Y-3.9331
X5.7362Y-3.8976
X5.7605Y-4.6856
X5.7677Y-3.4134
X5.7677Y-3.4646
X5.7835Y-4.5472
X5.7914Y-4.7049
X5.7974Y-3.5598
X5.8031Y-4.3937
X5.8183Y-3.5807
X5.8425Y-4.4331
X5.8622Y-3.7126
X5.874Y-4.5138
X5.878Y-3.8504
X5.8878Y-3.8839
X5.8937Y-3.7205
X5.9016Y-3.752
X5.9094Y-3.5157
X5.9094Y-3.3819
X5.9311Y-3.8878
X5.937Y-3.5433
X5.9488Y-4.2559
X5.9606Y-4.5472
X5.9902Y-3.876
X6.0315Y-4.1732
X6.0472Y-4.8622
X6.0551Y-3.9961
X6.0787Y-3.9724
X6.1102Y-3.5472
X6.1102Y-3.3976
X6.1161Y-3.9482
X6.1339Y-3.8976
X6.1384Y-3.9259
X6.1732Y-4.0591
X6.2047Y-3.4488
X6.2638Y-3.3504
X6.2638Y-3.8071
X6.2756Y-4.1024
X6.2756Y-4.189
X6.2795Y-3.9331
X6.2992Y-3.3504
X6.3071Y-3.7362
X6.315Y-4.1024
X6.315Y-4.189
X6.3228Y-3.5472
X6.3504Y-3.3504
X6.4567Y-3.5354
X6.5118Y-3.4646
X6.5118Y-3.7008
X6.52Y-4.4295
X6.5394Y-3.7008
X6.6118Y-3.5827
X6.6575Y-4.2913
X6.7717Y-4.1811
X6.8268Y-3.4488
X6.8268Y-3.4961
X6.9055Y-4.0433
X6.9921Y-3.5748
X7.0197Y-3.9291
X7.0315Y-3.5748
X7.0551Y-3.3819
X7.122Y-3.3504
X7.126Y-3.4213
X7.1575Y-3.7913
X7.2717Y-3.6772
X7.4094Y-3.5394
T3
X6.033Y-4.687
X6.0684Y-4.6516
X6.0684Y-4.7223
X6.1038Y-4.6162
X6.1038Y-4.687
X6.1391Y-4.5809
X6.1391Y-4.6516
X6.1745Y-4.5455
X6.1745Y-4.6162
X6.2098Y-4.5102
X6.2098Y-4.5809
X6.2452Y-4.4748
X6.2452Y-4.5455
X6.2805Y-4.5102
T4
X5.5118Y-3.1496
X5.5118Y-3.2496
X5.6118Y-3.1496
X5.6118Y-3.2496
X5.7118Y-3.1496
X5.7118Y-3.2496
X5.8118Y-3.1496
X5.8118Y-3.2496
X5.9118Y-3.2496
X5.9118Y-3.1496
X6.0118Y-3.1496
X6.0118Y-3.2496
X6.1118Y-3.1496
X6.1118Y-3.2496
X6.2118Y-3.1496
X6.2118Y-3.2496
X6.3118Y-3.1496
X6.3118Y-3.2496
X6.4118Y-3.1496
X6.4118Y-3.2496
X6.5118Y-3.1496
X6.5118Y-3.2496
X6.6118Y-3.1496
X6.6118Y-3.2496
X6.7118Y-3.1496
X6.7118Y-3.2496
X6.8118Y-3.1496
X6.8118Y-3.2496
X6.9118Y-3.1496
X6.9118Y-3.2496
X7.0118Y-3.1496
X7.0118Y-3.2496
X7.1118Y-3.1496
X7.1118Y-3.2496
X7.2118Y-3.1496
X7.2118Y-3.2496
X7.3118Y-3.1496
X7.3118Y-3.2496
X7.4118Y-3.1496
X7.4118Y-3.2496
T2
G00X5.4961Y-4.841
M15
G01X5.5073Y-4.8828
M16
G05
G00X5.5401Y-5.0052
M15
G01X5.5483Y-5.0357
M16
G05
G00X5.825Y-4.7528
M15
G01X5.8362Y-4.7946
M16
G05
G00X5.8691Y-4.9171
M15
G01X5.8772Y-4.9475
M16
G05
M30
