%TF.GenerationSoftware,KiCad,Pcbnew,8.0.0*%
%TF.CreationDate,2024-03-25T03:31:52+00:00*%
%TF.ProjectId,main_PCB_v2,6d61696e-5f50-4434-925f-76322e6b6963,rev?*%
%TF.SameCoordinates,Original*%
%TF.FileFunction,Legend,Top*%
%TF.FilePolarity,Positive*%
%FSLAX46Y46*%
G04 Gerber Fmt 4.6, Leading zero omitted, Abs format (unit mm)*
G04 Created by KiCad (PCBNEW 8.0.0) date 2024-03-25 03:31:52*
%MOMM*%
%LPD*%
G01*
G04 APERTURE LIST*
G04 Aperture macros list*
%AMRoundRect*
0 Rectangle with rounded corners*
0 $1 Rounding radius*
0 $2 $3 $4 $5 $6 $7 $8 $9 X,Y pos of 4 corners*
0 Add a 4 corners polygon primitive as box body*
4,1,4,$2,$3,$4,$5,$6,$7,$8,$9,$2,$3,0*
0 Add four circle primitives for the rounded corners*
1,1,$1+$1,$2,$3*
1,1,$1+$1,$4,$5*
1,1,$1+$1,$6,$7*
1,1,$1+$1,$8,$9*
0 Add four rect primitives between the rounded corners*
20,1,$1+$1,$2,$3,$4,$5,0*
20,1,$1+$1,$4,$5,$6,$7,0*
20,1,$1+$1,$6,$7,$8,$9,0*
20,1,$1+$1,$8,$9,$2,$3,0*%
%AMHorizOval*
0 Thick line with rounded ends*
0 $1 width*
0 $2 $3 position (X,Y) of the first rounded end (center of the circle)*
0 $4 $5 position (X,Y) of the second rounded end (center of the circle)*
0 Add line between two ends*
20,1,$1,$2,$3,$4,$5,0*
0 Add two circle primitives to create the rounded ends*
1,1,$1,$2,$3*
1,1,$1,$4,$5*%
%AMRotRect*
0 Rectangle, with rotation*
0 The origin of the aperture is its center*
0 $1 length*
0 $2 width*
0 $3 Rotation angle, in degrees counterclockwise*
0 Add horizontal line*
21,1,$1,$2,0,0,$3*%
G04 Aperture macros list end*
%ADD10C,0.200000*%
%ADD11C,0.100000*%
%ADD12C,0.120000*%
%ADD13C,0.000000*%
%ADD14C,0.152400*%
%ADD15C,0.046000*%
%ADD16C,0.127000*%
%ADD17C,0.010000*%
%ADD18C,3.200000*%
%ADD19R,1.500000X0.650000*%
%ADD20RoundRect,0.135000X0.135000X0.185000X-0.135000X0.185000X-0.135000X-0.185000X0.135000X-0.185000X0*%
%ADD21RoundRect,0.135000X-0.185000X0.135000X-0.185000X-0.135000X0.185000X-0.135000X0.185000X0.135000X0*%
%ADD22RoundRect,0.147500X0.147500X0.172500X-0.147500X0.172500X-0.147500X-0.172500X0.147500X-0.172500X0*%
%ADD23RoundRect,0.140000X-0.021213X0.219203X-0.219203X0.021213X0.021213X-0.219203X0.219203X-0.021213X0*%
%ADD24RoundRect,0.140000X0.170000X-0.140000X0.170000X0.140000X-0.170000X0.140000X-0.170000X-0.140000X0*%
%ADD25RoundRect,0.135000X0.082518X0.213637X-0.178282X0.143756X-0.082518X-0.213637X0.178282X-0.143756X0*%
%ADD26RoundRect,0.225000X0.424264X0.106066X0.106066X0.424264X-0.424264X-0.106066X-0.106066X-0.424264X0*%
%ADD27RoundRect,0.135000X-0.082518X-0.213637X0.178282X-0.143756X0.082518X0.213637X-0.178282X0.143756X0*%
%ADD28RotRect,0.650000X1.050000X60.000000*%
%ADD29RotRect,0.279400X1.473200X45.000000*%
%ADD30RotRect,0.279400X1.473200X315.000000*%
%ADD31RoundRect,0.140000X-0.219203X-0.021213X-0.021213X-0.219203X0.219203X0.021213X0.021213X0.219203X0*%
%ADD32R,1.300000X1.100000*%
%ADD33RotRect,0.600000X1.700000X45.000000*%
%ADD34RotRect,1.000000X2.700000X45.000000*%
%ADD35RoundRect,0.135000X-0.135000X-0.185000X0.135000X-0.185000X0.135000X0.185000X-0.135000X0.185000X0*%
%ADD36RoundRect,0.135000X0.035355X-0.226274X0.226274X-0.035355X-0.035355X0.226274X-0.226274X0.035355X0*%
%ADD37C,0.600000*%
%ADD38HorizOval,0.900000X-0.142350X0.531259X0.142350X-0.531259X0*%
%ADD39HorizOval,0.900000X-0.103528X0.386370X0.103528X-0.386370X0*%
%ADD40RoundRect,0.140000X0.021213X-0.219203X0.219203X-0.021213X-0.021213X0.219203X-0.219203X0.021213X0*%
%ADD41R,0.482600X0.254000*%
%ADD42R,0.254000X0.482600*%
%ADD43RoundRect,0.140000X-0.140000X-0.170000X0.140000X-0.170000X0.140000X0.170000X-0.140000X0.170000X0*%
%ADD44R,1.700000X1.700000*%
%ADD45O,1.700000X1.700000*%
%ADD46RoundRect,0.150000X0.512500X0.150000X-0.512500X0.150000X-0.512500X-0.150000X0.512500X-0.150000X0*%
%ADD47R,0.375000X0.350000*%
%ADD48R,0.350000X0.375000*%
%ADD49R,0.600000X0.200000*%
%ADD50R,1.600000X0.200000*%
%ADD51RoundRect,0.140000X0.140000X0.170000X-0.140000X0.170000X-0.140000X-0.170000X0.140000X-0.170000X0*%
%ADD52RotRect,1.000000X1.000000X135.000000*%
%ADD53HorizOval,1.000000X0.000000X0.000000X0.000000X0.000000X0*%
%ADD54RoundRect,0.135000X-0.035355X0.226274X-0.226274X0.035355X0.035355X-0.226274X0.226274X-0.035355X0*%
%ADD55RoundRect,0.135000X0.185000X-0.135000X0.185000X0.135000X-0.185000X0.135000X-0.185000X-0.135000X0*%
%ADD56RoundRect,0.140000X-0.170000X0.140000X-0.170000X-0.140000X0.170000X-0.140000X0.170000X0.140000X0*%
%ADD57RoundRect,0.140000X0.219203X0.021213X0.021213X0.219203X-0.219203X-0.021213X-0.021213X-0.219203X0*%
G04 APERTURE END LIST*
D10*
G36*
X162614374Y-98471060D02*
G01*
X162663895Y-98471751D01*
X162713293Y-98474316D01*
X162749870Y-98484573D01*
X162789986Y-98512906D01*
X162808518Y-98543313D01*
X162817096Y-98593262D01*
X162815069Y-98619590D01*
X162796336Y-98667267D01*
X162781963Y-98684045D01*
X162739427Y-98709033D01*
X162710263Y-98714818D01*
X162657464Y-98719026D01*
X162607733Y-98720580D01*
X162556734Y-98721001D01*
X162406280Y-98721001D01*
X162406280Y-98470896D01*
X162565038Y-98470896D01*
X162614374Y-98471060D01*
G37*
G36*
X165134697Y-99441742D02*
G01*
X162091959Y-99441742D01*
X162091959Y-98298949D01*
X162203070Y-98298949D01*
X162203070Y-98470896D01*
X162203070Y-99315000D01*
X162406280Y-99315000D01*
X162406280Y-98892948D01*
X162447557Y-98892948D01*
X162451901Y-98892959D01*
X162501646Y-98895098D01*
X162549895Y-98904183D01*
X162571656Y-98914158D01*
X162610956Y-98945704D01*
X162628465Y-98966083D01*
X162659067Y-99006627D01*
X162690521Y-99051117D01*
X162718178Y-99091517D01*
X162865212Y-99315000D01*
X163108478Y-99315000D01*
X162985380Y-99117163D01*
X162959133Y-99075283D01*
X162931160Y-99032847D01*
X162902683Y-98992822D01*
X162869609Y-98952543D01*
X162843731Y-98927039D01*
X162803516Y-98894896D01*
X162760921Y-98867302D01*
X162777240Y-98864645D01*
X162830286Y-98851964D01*
X162876997Y-98834024D01*
X162922625Y-98807081D01*
X162959979Y-98773269D01*
X162989150Y-98733518D01*
X163009987Y-98688761D01*
X163022489Y-98638996D01*
X163026657Y-98584225D01*
X163026485Y-98573008D01*
X163020474Y-98519298D01*
X163005877Y-98469548D01*
X162982693Y-98423757D01*
X162952354Y-98384120D01*
X162912368Y-98350162D01*
X162865457Y-98326304D01*
X162840477Y-98318424D01*
X162791529Y-98308593D01*
X162739633Y-98302796D01*
X162688417Y-98299911D01*
X162630983Y-98298949D01*
X163211060Y-98298949D01*
X163211060Y-98839947D01*
X163211549Y-98891119D01*
X163213427Y-98947173D01*
X163216713Y-98997387D01*
X163222326Y-99048592D01*
X163231088Y-99097379D01*
X163238486Y-99122886D01*
X163259729Y-99168954D01*
X163287997Y-99209975D01*
X163321412Y-99244411D01*
X163362216Y-99274172D01*
X163405722Y-99297170D01*
X163415335Y-99301222D01*
X163465301Y-99316220D01*
X163518927Y-99325109D01*
X163572963Y-99329455D01*
X163624563Y-99330631D01*
X163660848Y-99329880D01*
X163714265Y-99325552D01*
X163767534Y-99316085D01*
X163818248Y-99299856D01*
X163857637Y-99280884D01*
X163899325Y-99253183D01*
X163936706Y-99217302D01*
X163959488Y-99186184D01*
X163982953Y-99138923D01*
X163997522Y-99089808D01*
X164005551Y-99038874D01*
X164009979Y-98987531D01*
X164012509Y-98935355D01*
X164013725Y-98886117D01*
X164014131Y-98831643D01*
X164014131Y-98298949D01*
X164224912Y-98298949D01*
X164224912Y-99315000D01*
X164413712Y-99315000D01*
X164413712Y-98638691D01*
X164819644Y-99315000D01*
X165023586Y-99315000D01*
X165023586Y-98298949D01*
X164834787Y-98298949D01*
X164834787Y-98985516D01*
X164422749Y-98298949D01*
X164224912Y-98298949D01*
X164014131Y-98298949D01*
X163810921Y-98298949D01*
X163810921Y-98862173D01*
X163810841Y-98884237D01*
X163809853Y-98937153D01*
X163807391Y-98986394D01*
X163801884Y-99035097D01*
X163801300Y-99038333D01*
X163782615Y-99085823D01*
X163749127Y-99123025D01*
X163717476Y-99141829D01*
X163668475Y-99155202D01*
X163618457Y-99158684D01*
X163578188Y-99156318D01*
X163530095Y-99145338D01*
X163484124Y-99120826D01*
X163469665Y-99108394D01*
X163438570Y-99067174D01*
X163422086Y-99020443D01*
X163419513Y-99002634D01*
X163416178Y-98953125D01*
X163414877Y-98903414D01*
X163414515Y-98850450D01*
X163414515Y-98298949D01*
X163211060Y-98298949D01*
X162630983Y-98298949D01*
X162203070Y-98298949D01*
X162091959Y-98298949D01*
X162091959Y-98187838D01*
X165134697Y-98187838D01*
X165134697Y-99441742D01*
G37*
G36*
X163547381Y-96371061D02*
G01*
X163596903Y-96371752D01*
X163646301Y-96374317D01*
X163682877Y-96384574D01*
X163722993Y-96412907D01*
X163741526Y-96443314D01*
X163750104Y-96493263D01*
X163748077Y-96519591D01*
X163729344Y-96567268D01*
X163714970Y-96584046D01*
X163672435Y-96609034D01*
X163643270Y-96614819D01*
X163590472Y-96619027D01*
X163540740Y-96620581D01*
X163489741Y-96621002D01*
X163339288Y-96621002D01*
X163339288Y-96370897D01*
X163498046Y-96370897D01*
X163547381Y-96371061D01*
G37*
G36*
X164557570Y-96371061D02*
G01*
X164607091Y-96371752D01*
X164656489Y-96374317D01*
X164693066Y-96384574D01*
X164733182Y-96412907D01*
X164751715Y-96443314D01*
X164760293Y-96493263D01*
X164758265Y-96519591D01*
X164739532Y-96567268D01*
X164725159Y-96584046D01*
X164682623Y-96609034D01*
X164653459Y-96614819D01*
X164600660Y-96619027D01*
X164550929Y-96620581D01*
X164499930Y-96621002D01*
X164349476Y-96621002D01*
X164349476Y-96370897D01*
X164508234Y-96370897D01*
X164557570Y-96371061D01*
G37*
G36*
X165162785Y-97326112D02*
G01*
X162091226Y-97326112D01*
X162091226Y-96198950D01*
X162202337Y-96198950D01*
X162202337Y-97215001D01*
X162968283Y-97215001D01*
X162968283Y-97043054D01*
X162405792Y-97043054D01*
X162405792Y-96761686D01*
X162911374Y-96761686D01*
X162911374Y-96589739D01*
X162405792Y-96589739D01*
X162405792Y-96370897D01*
X162948988Y-96370897D01*
X162948988Y-96198950D01*
X163136078Y-96198950D01*
X163136078Y-96370897D01*
X163136078Y-97215001D01*
X163339288Y-97215001D01*
X163339288Y-96792949D01*
X163380565Y-96792949D01*
X163384909Y-96792960D01*
X163434654Y-96795099D01*
X163482903Y-96804184D01*
X163504663Y-96814159D01*
X163543963Y-96845705D01*
X163561472Y-96866084D01*
X163592074Y-96906628D01*
X163623528Y-96951118D01*
X163651186Y-96991518D01*
X163798220Y-97215001D01*
X164041486Y-97215001D01*
X163918387Y-97017164D01*
X163892141Y-96975284D01*
X163864168Y-96932848D01*
X163835691Y-96892823D01*
X163802616Y-96852544D01*
X163776738Y-96827040D01*
X163736524Y-96794897D01*
X163693928Y-96767303D01*
X163710248Y-96764646D01*
X163763294Y-96751965D01*
X163810005Y-96734025D01*
X163855632Y-96707082D01*
X163892986Y-96673270D01*
X163922158Y-96633519D01*
X163942995Y-96588762D01*
X163955497Y-96538997D01*
X163959665Y-96484226D01*
X163959493Y-96473009D01*
X163953482Y-96419299D01*
X163938885Y-96369549D01*
X163915701Y-96323758D01*
X163885361Y-96284121D01*
X163845376Y-96250163D01*
X163798464Y-96226305D01*
X163773484Y-96218425D01*
X163724536Y-96208594D01*
X163672641Y-96202797D01*
X163621424Y-96199912D01*
X163563991Y-96198950D01*
X164146266Y-96198950D01*
X164146266Y-96370897D01*
X164146266Y-97215001D01*
X164349476Y-97215001D01*
X164349476Y-96792949D01*
X164390753Y-96792949D01*
X164395097Y-96792960D01*
X164444842Y-96795099D01*
X164493091Y-96804184D01*
X164514852Y-96814159D01*
X164554152Y-96845705D01*
X164571661Y-96866084D01*
X164602263Y-96906628D01*
X164633717Y-96951118D01*
X164661374Y-96991518D01*
X164808408Y-97215001D01*
X165051674Y-97215001D01*
X164928576Y-97017164D01*
X164902329Y-96975284D01*
X164874356Y-96932848D01*
X164845879Y-96892823D01*
X164812805Y-96852544D01*
X164786927Y-96827040D01*
X164746713Y-96794897D01*
X164704117Y-96767303D01*
X164720436Y-96764646D01*
X164773482Y-96751965D01*
X164820193Y-96734025D01*
X164865821Y-96707082D01*
X164903175Y-96673270D01*
X164932346Y-96633519D01*
X164953183Y-96588762D01*
X164965686Y-96538997D01*
X164969853Y-96484226D01*
X164969681Y-96473009D01*
X164963671Y-96419299D01*
X164949073Y-96369549D01*
X164925889Y-96323758D01*
X164895550Y-96284121D01*
X164855564Y-96250163D01*
X164808653Y-96226305D01*
X164783673Y-96218425D01*
X164734725Y-96208594D01*
X164682829Y-96202797D01*
X164631613Y-96199912D01*
X164574180Y-96198950D01*
X164146266Y-96198950D01*
X163563991Y-96198950D01*
X163136078Y-96198950D01*
X162948988Y-96198950D01*
X162202337Y-96198950D01*
X162091226Y-96198950D01*
X162091226Y-96087839D01*
X165162785Y-96087839D01*
X165162785Y-97326112D01*
G37*
G36*
X164420307Y-101008579D02*
G01*
X164145533Y-101008579D01*
X164281577Y-100649054D01*
X164420307Y-101008579D01*
G37*
G36*
X165632464Y-101541742D02*
G01*
X162039691Y-101541742D01*
X162039691Y-101086737D01*
X162150802Y-101086737D01*
X162155281Y-101117584D01*
X162165960Y-101165857D01*
X162184081Y-101218604D01*
X162207989Y-101265702D01*
X162237685Y-101307150D01*
X162273168Y-101342948D01*
X162307313Y-101368208D01*
X162354001Y-101392869D01*
X162406924Y-101411365D01*
X162455788Y-101422068D01*
X162508981Y-101428490D01*
X162566503Y-101430631D01*
X162582729Y-101430487D01*
X162636860Y-101427714D01*
X162686854Y-101421411D01*
X162738924Y-101409886D01*
X162785589Y-101393750D01*
X162812095Y-101381271D01*
X162854905Y-101354000D01*
X162891418Y-101320546D01*
X162921632Y-101280910D01*
X162927459Y-101271372D01*
X162950953Y-101222395D01*
X162965049Y-101171271D01*
X162969748Y-101118000D01*
X162969591Y-101106152D01*
X162964986Y-101055784D01*
X162952392Y-101005486D01*
X162929448Y-100957044D01*
X162898245Y-100915472D01*
X162859710Y-100880422D01*
X162818318Y-100854218D01*
X162794217Y-100842500D01*
X162747791Y-100823899D01*
X162699230Y-100807774D01*
X162651709Y-100794064D01*
X162598743Y-100780457D01*
X162555027Y-100769197D01*
X162502859Y-100753815D01*
X162456148Y-100736779D01*
X162411898Y-100712313D01*
X162398647Y-100699231D01*
X162381612Y-100652473D01*
X162384162Y-100632003D01*
X162413852Y-100590924D01*
X162452945Y-100570622D01*
X162501042Y-100558747D01*
X162552581Y-100555265D01*
X162583310Y-100556424D01*
X162635700Y-100565697D01*
X162681542Y-100588237D01*
X162696606Y-100601996D01*
X162723540Y-100645654D01*
X162737473Y-100695949D01*
X162940928Y-100695949D01*
X162937177Y-100652916D01*
X162926804Y-100604945D01*
X162906607Y-100554037D01*
X162877690Y-100508574D01*
X162840055Y-100468558D01*
X162807846Y-100444002D01*
X162763149Y-100420028D01*
X162711858Y-100402047D01*
X162697632Y-100398949D01*
X163063293Y-100398949D01*
X163063293Y-100570896D01*
X163362002Y-100570896D01*
X163362002Y-101415000D01*
X163565457Y-101415000D01*
X163784298Y-101415000D01*
X163999965Y-101415000D01*
X164083007Y-101180526D01*
X164485764Y-101180526D01*
X164573691Y-101415000D01*
X164794731Y-101415000D01*
X164391486Y-100398949D01*
X164721214Y-100398949D01*
X164721214Y-100570896D01*
X165019923Y-100570896D01*
X165019923Y-101415000D01*
X165223377Y-101415000D01*
X165223377Y-100570896D01*
X165521353Y-100570896D01*
X165521353Y-100398949D01*
X164721214Y-100398949D01*
X164391486Y-100398949D01*
X164176552Y-100398949D01*
X163941200Y-101008579D01*
X163784298Y-101415000D01*
X163565457Y-101415000D01*
X163565457Y-100570896D01*
X163863433Y-100570896D01*
X163863433Y-100398949D01*
X163063293Y-100398949D01*
X162697632Y-100398949D01*
X162664078Y-100391642D01*
X162611719Y-100385399D01*
X162554780Y-100383318D01*
X162505636Y-100385012D01*
X162453421Y-100391099D01*
X162405420Y-100401613D01*
X162356454Y-100418733D01*
X162346346Y-100423287D01*
X162300298Y-100449862D01*
X162261739Y-100482783D01*
X162230669Y-100522048D01*
X162207743Y-100565310D01*
X162192331Y-100615158D01*
X162187194Y-100667372D01*
X162188644Y-100697021D01*
X162198161Y-100746133D01*
X162216561Y-100791716D01*
X162243842Y-100833769D01*
X162280006Y-100872292D01*
X162319070Y-100901082D01*
X162363243Y-100924420D01*
X162408529Y-100943047D01*
X162460668Y-100960404D01*
X162509351Y-100973897D01*
X162524870Y-100977910D01*
X162573585Y-100990722D01*
X162623407Y-101004380D01*
X162672260Y-101019326D01*
X162704361Y-101032670D01*
X162745289Y-101062313D01*
X162753474Y-101073608D01*
X162766294Y-101122152D01*
X162765856Y-101132290D01*
X162750529Y-101179374D01*
X162716468Y-101217896D01*
X162713307Y-101220405D01*
X162668004Y-101244305D01*
X162619861Y-101255458D01*
X162568457Y-101258684D01*
X162514170Y-101254248D01*
X162463050Y-101239119D01*
X162420935Y-101213255D01*
X162414269Y-101207376D01*
X162382727Y-101167879D01*
X162361566Y-101121453D01*
X162348639Y-101071106D01*
X162150802Y-101086737D01*
X162039691Y-101086737D01*
X162039691Y-100272207D01*
X165632464Y-100272207D01*
X165632464Y-101541742D01*
G37*
D11*
X138071428Y-131557419D02*
X138261904Y-131557419D01*
X138261904Y-131557419D02*
X138357142Y-131605038D01*
X138357142Y-131605038D02*
X138452380Y-131700276D01*
X138452380Y-131700276D02*
X138499999Y-131890752D01*
X138499999Y-131890752D02*
X138499999Y-132224085D01*
X138499999Y-132224085D02*
X138452380Y-132414561D01*
X138452380Y-132414561D02*
X138357142Y-132509800D01*
X138357142Y-132509800D02*
X138261904Y-132557419D01*
X138261904Y-132557419D02*
X138071428Y-132557419D01*
X138071428Y-132557419D02*
X137976190Y-132509800D01*
X137976190Y-132509800D02*
X137880952Y-132414561D01*
X137880952Y-132414561D02*
X137833333Y-132224085D01*
X137833333Y-132224085D02*
X137833333Y-131890752D01*
X137833333Y-131890752D02*
X137880952Y-131700276D01*
X137880952Y-131700276D02*
X137976190Y-131605038D01*
X137976190Y-131605038D02*
X138071428Y-131557419D01*
X139404761Y-132557419D02*
X138928571Y-132557419D01*
X138928571Y-132557419D02*
X138928571Y-131557419D01*
X140261904Y-132557419D02*
X139690476Y-132557419D01*
X139976190Y-132557419D02*
X139976190Y-131557419D01*
X139976190Y-131557419D02*
X139880952Y-131700276D01*
X139880952Y-131700276D02*
X139785714Y-131795514D01*
X139785714Y-131795514D02*
X139690476Y-131843133D01*
X140880952Y-131557419D02*
X140976190Y-131557419D01*
X140976190Y-131557419D02*
X141071428Y-131605038D01*
X141071428Y-131605038D02*
X141119047Y-131652657D01*
X141119047Y-131652657D02*
X141166666Y-131747895D01*
X141166666Y-131747895D02*
X141214285Y-131938371D01*
X141214285Y-131938371D02*
X141214285Y-132176466D01*
X141214285Y-132176466D02*
X141166666Y-132366942D01*
X141166666Y-132366942D02*
X141119047Y-132462180D01*
X141119047Y-132462180D02*
X141071428Y-132509800D01*
X141071428Y-132509800D02*
X140976190Y-132557419D01*
X140976190Y-132557419D02*
X140880952Y-132557419D01*
X140880952Y-132557419D02*
X140785714Y-132509800D01*
X140785714Y-132509800D02*
X140738095Y-132462180D01*
X140738095Y-132462180D02*
X140690476Y-132366942D01*
X140690476Y-132366942D02*
X140642857Y-132176466D01*
X140642857Y-132176466D02*
X140642857Y-131938371D01*
X140642857Y-131938371D02*
X140690476Y-131747895D01*
X140690476Y-131747895D02*
X140738095Y-131652657D01*
X140738095Y-131652657D02*
X140785714Y-131605038D01*
X140785714Y-131605038D02*
X140880952Y-131557419D01*
X142166666Y-132557419D02*
X141595238Y-132557419D01*
X141880952Y-132557419D02*
X141880952Y-131557419D01*
X141880952Y-131557419D02*
X141785714Y-131700276D01*
X141785714Y-131700276D02*
X141690476Y-131795514D01*
X141690476Y-131795514D02*
X141595238Y-131843133D01*
D10*
%TO.C,IC102*%
X155650000Y-85625000D02*
X157150000Y-85625000D01*
X157500000Y-85755000D02*
X160700000Y-85755000D01*
X157500000Y-90655000D02*
X157500000Y-85755000D01*
X160700000Y-85755000D02*
X160700000Y-90655000D01*
X160700000Y-90655000D02*
X157500000Y-90655000D01*
%TO.C,IC101*%
X171500000Y-85620000D02*
X173000000Y-85620000D01*
X173350000Y-85750000D02*
X176550000Y-85750000D01*
X173350000Y-90650000D02*
X173350000Y-85750000D01*
X176550000Y-85750000D02*
X176550000Y-90650000D01*
X176550000Y-90650000D02*
X173350000Y-90650000D01*
D12*
%TO.C,R107*%
X182553642Y-85520000D02*
X182246360Y-85520000D01*
X182553642Y-86280000D02*
X182246360Y-86280000D01*
%TO.C,R101*%
X178820000Y-88046359D02*
X178820000Y-88353641D01*
X179580000Y-88046359D02*
X179580000Y-88353641D01*
D11*
%TO.C,D103*%
X161840001Y-100900000D02*
G75*
G02*
X161740001Y-100900000I-50000J0D01*
G01*
X161740001Y-100900000D02*
G75*
G02*
X161840001Y-100900000I50000J0D01*
G01*
D12*
%TO.C,C121*%
X136221693Y-95469190D02*
X136069190Y-95621693D01*
X136730810Y-95978307D02*
X136578307Y-96130810D01*
%TO.C,C102*%
X154440000Y-88307837D02*
X154440000Y-88092165D01*
X155160000Y-88307837D02*
X155160000Y-88092165D01*
%TO.C,FB101*%
X133653641Y-94620001D02*
X133346359Y-94620001D01*
X133653641Y-95380001D02*
X133346359Y-95380001D01*
D13*
%TO.C,G\u002A\u002A\u002A*%
G36*
X142688438Y-101538414D02*
G01*
X142688438Y-103378030D01*
X142355978Y-103378030D01*
X142023517Y-103378030D01*
X142023517Y-101538414D01*
X142023517Y-99698798D01*
X142355978Y-99698798D01*
X142688438Y-99698798D01*
X142688438Y-101538414D01*
G37*
G36*
X148334367Y-97037558D02*
G01*
X148358641Y-97048232D01*
X148423676Y-97102742D01*
X148451821Y-97173501D01*
X148441603Y-97250107D01*
X148396688Y-97317170D01*
X148326153Y-97362869D01*
X148251001Y-97364631D01*
X148177029Y-97325636D01*
X148133834Y-97277320D01*
X148119024Y-97213577D01*
X148118630Y-97196087D01*
X148136829Y-97112865D01*
X148185139Y-97054829D01*
X148254129Y-97027791D01*
X148334367Y-97037558D01*
G37*
G36*
X145712923Y-97037042D02*
G01*
X145774854Y-97089185D01*
X145809844Y-97161170D01*
X145813569Y-97194260D01*
X145793476Y-97270927D01*
X145741333Y-97332858D01*
X145669347Y-97367847D01*
X145636257Y-97371573D01*
X145558467Y-97350854D01*
X145513347Y-97317170D01*
X145470303Y-97247776D01*
X145463281Y-97172118D01*
X145487742Y-97101283D01*
X145539147Y-97046356D01*
X145612958Y-97018424D01*
X145636257Y-97016948D01*
X145712923Y-97037042D01*
G37*
G36*
X149322324Y-96227027D02*
G01*
X149424603Y-96253158D01*
X149498608Y-96300702D01*
X149551077Y-96372926D01*
X149565004Y-96403191D01*
X149578119Y-96440956D01*
X149587968Y-96486589D01*
X149594990Y-96546621D01*
X149599623Y-96627581D01*
X149602303Y-96736000D01*
X149603468Y-96878405D01*
X149603622Y-96979610D01*
X149603270Y-97141357D01*
X149601880Y-97265448D01*
X149598950Y-97358551D01*
X149593978Y-97427335D01*
X149586462Y-97478467D01*
X149575900Y-97518617D01*
X149561789Y-97554454D01*
X149560055Y-97558297D01*
X149511932Y-97633964D01*
X149443065Y-97687481D01*
X149346663Y-97722141D01*
X149215932Y-97741236D01*
X149176964Y-97743971D01*
X149005192Y-97754057D01*
X149005192Y-96986550D01*
X149005192Y-96219042D01*
X149185028Y-96219042D01*
X149322324Y-96227027D01*
G37*
G36*
X144794023Y-96983702D02*
G01*
X144794023Y-97748362D01*
X144744154Y-97745791D01*
X144681701Y-97738685D01*
X144649957Y-97732522D01*
X144526782Y-97683185D01*
X144434154Y-97602537D01*
X144405396Y-97560677D01*
X144387662Y-97529092D01*
X144374249Y-97498601D01*
X144364554Y-97462726D01*
X144357974Y-97414989D01*
X144353906Y-97348913D01*
X144351747Y-97258020D01*
X144350893Y-97135832D01*
X144350742Y-96975871D01*
X144350742Y-96973690D01*
X144350987Y-96812016D01*
X144352071Y-96688258D01*
X144354513Y-96596007D01*
X144358836Y-96528854D01*
X144365561Y-96480388D01*
X144375208Y-96444199D01*
X144388300Y-96413878D01*
X144397683Y-96396444D01*
X144470862Y-96308549D01*
X144570619Y-96246954D01*
X144683146Y-96219687D01*
X144702844Y-96219042D01*
X144794023Y-96219042D01*
X144794023Y-96983702D01*
G37*
G36*
X148882166Y-104019614D02*
G01*
X148930982Y-104098165D01*
X148946146Y-104187790D01*
X148926655Y-104273943D01*
X148902391Y-104312664D01*
X148878918Y-104337766D01*
X148826984Y-104390966D01*
X148749652Y-104469197D01*
X148649982Y-104569389D01*
X148531037Y-104688475D01*
X148395879Y-104823388D01*
X148247568Y-104971058D01*
X148089168Y-105128418D01*
X148007265Y-105209649D01*
X147816162Y-105399021D01*
X147653604Y-105559592D01*
X147516623Y-105693736D01*
X147402250Y-105803824D01*
X147307513Y-105892230D01*
X147229446Y-105961327D01*
X147165077Y-106013487D01*
X147111438Y-106051083D01*
X147065559Y-106076488D01*
X147024472Y-106092074D01*
X146985205Y-106100214D01*
X146944791Y-106103282D01*
X146900260Y-106103648D01*
X146888526Y-106103598D01*
X146809124Y-106093289D01*
X146726070Y-106068300D01*
X146711213Y-106061865D01*
X146674321Y-106036217D01*
X146611234Y-105982746D01*
X146525455Y-105904984D01*
X146420484Y-105806465D01*
X146299823Y-105690720D01*
X146166974Y-105561282D01*
X146025438Y-105421685D01*
X145878716Y-105275460D01*
X145730309Y-105126141D01*
X145583720Y-104977260D01*
X145442449Y-104832349D01*
X145309998Y-104694942D01*
X145189868Y-104568570D01*
X145085560Y-104456767D01*
X145000577Y-104363066D01*
X144938419Y-104290998D01*
X144902588Y-104244097D01*
X144895213Y-104229655D01*
X144896090Y-104131732D01*
X144938265Y-104040968D01*
X144974157Y-104000752D01*
X144983401Y-103992587D01*
X144994357Y-103985440D01*
X145009865Y-103979243D01*
X145032762Y-103973927D01*
X145065888Y-103969426D01*
X145112080Y-103965672D01*
X145174177Y-103962596D01*
X145255018Y-103960132D01*
X145357442Y-103958211D01*
X145484287Y-103956766D01*
X145638391Y-103955729D01*
X145822593Y-103955032D01*
X146039732Y-103954608D01*
X146292647Y-103954389D01*
X146584175Y-103954308D01*
X146917155Y-103954295D01*
X146921804Y-103954295D01*
X148819587Y-103954295D01*
X148882166Y-104019614D01*
G37*
G36*
X148157417Y-99726642D02*
G01*
X148368897Y-99729697D01*
X148541262Y-99733024D01*
X148679729Y-99736911D01*
X148789511Y-99741644D01*
X148875823Y-99747511D01*
X148943880Y-99754797D01*
X148998897Y-99763789D01*
X149046087Y-99774776D01*
X149049520Y-99775706D01*
X149227227Y-99834142D01*
X149371585Y-99905102D01*
X149493050Y-99994315D01*
X149551505Y-100050732D01*
X149688486Y-100222818D01*
X149786223Y-100411733D01*
X149845882Y-100620541D01*
X149868628Y-100852305D01*
X149868935Y-100884575D01*
X149850443Y-101119804D01*
X149795773Y-101330604D01*
X149706135Y-101515450D01*
X149582737Y-101672822D01*
X149426790Y-101801195D01*
X149239503Y-101899048D01*
X149022084Y-101964858D01*
X149008665Y-101967642D01*
X148928874Y-101984881D01*
X148867590Y-102000139D01*
X148836441Y-102010482D01*
X148835068Y-102011447D01*
X148844831Y-102031355D01*
X148877986Y-102081649D01*
X148931069Y-102157450D01*
X149000616Y-102253876D01*
X149083164Y-102366049D01*
X149155350Y-102462666D01*
X149248419Y-102586960D01*
X149333903Y-102702096D01*
X149407741Y-102802527D01*
X149465872Y-102882706D01*
X149504235Y-102937085D01*
X149517340Y-102957156D01*
X149544039Y-102998564D01*
X149589679Y-103064133D01*
X149646415Y-103142704D01*
X149675655Y-103182257D01*
X149730361Y-103256864D01*
X149773314Y-103317739D01*
X149798705Y-103356525D01*
X149803098Y-103365640D01*
X149782563Y-103370961D01*
X149727460Y-103374985D01*
X149647545Y-103377153D01*
X149598081Y-103377357D01*
X149393063Y-103376684D01*
X148781797Y-102551746D01*
X148170530Y-101726808D01*
X148482582Y-101713051D01*
X148725832Y-101694226D01*
X148930264Y-101659718D01*
X149099202Y-101607591D01*
X149235969Y-101535909D01*
X149343892Y-101442739D01*
X149426292Y-101326143D01*
X149486495Y-101184186D01*
X149505766Y-101117297D01*
X149533539Y-100932292D01*
X149525591Y-100745528D01*
X149483531Y-100567820D01*
X149408967Y-100409984D01*
X149398007Y-100393036D01*
X149322832Y-100299300D01*
X149231241Y-100221636D01*
X149119351Y-100158942D01*
X148983280Y-100110114D01*
X148819146Y-100074052D01*
X148623066Y-100049654D01*
X148391160Y-100035817D01*
X148124171Y-100031441D01*
X147764006Y-100031259D01*
X147764006Y-101704644D01*
X147764006Y-103378030D01*
X147586693Y-103378030D01*
X147409381Y-103378030D01*
X147409381Y-101547494D01*
X147409381Y-99716957D01*
X148157417Y-99726642D01*
G37*
G36*
X145182640Y-99654895D02*
G01*
X145331863Y-99662298D01*
X145462667Y-99676349D01*
X145516520Y-99685840D01*
X145775068Y-99759671D01*
X146020932Y-99867828D01*
X146247319Y-100006038D01*
X146447437Y-100170033D01*
X146614492Y-100355540D01*
X146642606Y-100393813D01*
X146705972Y-100488175D01*
X146761609Y-100580091D01*
X146804361Y-100660203D01*
X146829075Y-100719157D01*
X146833116Y-100739625D01*
X146811229Y-100749316D01*
X146746542Y-100756447D01*
X146640513Y-100760924D01*
X146494601Y-100762654D01*
X146475524Y-100762672D01*
X146117933Y-100762672D01*
X145959916Y-100613065D01*
X145811426Y-100488103D01*
X145662602Y-100397856D01*
X145503426Y-100338510D01*
X145323882Y-100306255D01*
X145130049Y-100297227D01*
X144897637Y-100314769D01*
X144687392Y-100368196D01*
X144557185Y-100424181D01*
X144382009Y-100536891D01*
X144230306Y-100682626D01*
X144104901Y-100855186D01*
X144008620Y-101048370D01*
X143944287Y-101255977D01*
X143914728Y-101471809D01*
X143922767Y-101689664D01*
X143938444Y-101782219D01*
X144008484Y-102010072D01*
X144116211Y-102216607D01*
X144258741Y-102398370D01*
X144433193Y-102551906D01*
X144636684Y-102673760D01*
X144709629Y-102706395D01*
X144857548Y-102750616D01*
X145029141Y-102774958D01*
X145208126Y-102778745D01*
X145378225Y-102761298D01*
X145476233Y-102738274D01*
X145633702Y-102674441D01*
X145791366Y-102582480D01*
X145930055Y-102474121D01*
X145967524Y-102437663D01*
X146043905Y-102358484D01*
X146438510Y-102358484D01*
X146565219Y-102359113D01*
X146675045Y-102360858D01*
X146760956Y-102363510D01*
X146815920Y-102366858D01*
X146833116Y-102370303D01*
X146821930Y-102404140D01*
X146792513Y-102463998D01*
X146751069Y-102538917D01*
X146703805Y-102617933D01*
X146656928Y-102690086D01*
X146633261Y-102723272D01*
X146454998Y-102925110D01*
X146246590Y-103096580D01*
X146012184Y-103235404D01*
X145755927Y-103339303D01*
X145481966Y-103405999D01*
X145360356Y-103422609D01*
X145262914Y-103432752D01*
X145194393Y-103438499D01*
X145139601Y-103439814D01*
X145083346Y-103436661D01*
X145010437Y-103429003D01*
X144947080Y-103421611D01*
X144658404Y-103366318D01*
X144385508Y-103270961D01*
X144131944Y-103137729D01*
X143901268Y-102968813D01*
X143697034Y-102766402D01*
X143534887Y-102551472D01*
X143429473Y-102373204D01*
X143351754Y-102200193D01*
X143298740Y-102021522D01*
X143267442Y-101826278D01*
X143254868Y-101603546D01*
X143254304Y-101527332D01*
X143257366Y-101352446D01*
X143267554Y-101209104D01*
X143287570Y-101084742D01*
X143320118Y-100966798D01*
X143367900Y-100842708D01*
X143431267Y-100704780D01*
X143573641Y-100459491D01*
X143749752Y-100240695D01*
X143955814Y-100051283D01*
X144188043Y-99894146D01*
X144442653Y-99772175D01*
X144715858Y-99688262D01*
X144779697Y-99674886D01*
X144891033Y-99660958D01*
X145030522Y-99654371D01*
X145182640Y-99654895D01*
G37*
G36*
X151380735Y-99658345D02*
G01*
X151486546Y-99667713D01*
X151572184Y-99681031D01*
X151590624Y-99685387D01*
X151775133Y-99756594D01*
X151938455Y-99863583D01*
X152075957Y-100001011D01*
X152183004Y-100163538D01*
X152254960Y-100345824D01*
X152281941Y-100482080D01*
X152299711Y-100629688D01*
X152116850Y-100629688D01*
X151933990Y-100629688D01*
X151909805Y-100513327D01*
X151872653Y-100393933D01*
X151814709Y-100275866D01*
X151744499Y-100174098D01*
X151680655Y-100110911D01*
X151568735Y-100039946D01*
X151451326Y-99998096D01*
X151313400Y-99980646D01*
X151261507Y-99979441D01*
X151163268Y-99981798D01*
X151089786Y-99992594D01*
X151021692Y-100016022D01*
X150963244Y-100044029D01*
X150835181Y-100132168D01*
X150736443Y-100246124D01*
X150668193Y-100378591D01*
X150631596Y-100522264D01*
X150627813Y-100669836D01*
X150658008Y-100814003D01*
X150723343Y-100947457D01*
X150804079Y-101043891D01*
X150855280Y-101086770D01*
X150917286Y-101125524D01*
X150996958Y-101163114D01*
X151101160Y-101202506D01*
X151236755Y-101246664D01*
X151358145Y-101283212D01*
X151598887Y-101361956D01*
X151799317Y-101445517D01*
X151963398Y-101536523D01*
X152095091Y-101637604D01*
X152198359Y-101751389D01*
X152277164Y-101880506D01*
X152285925Y-101898785D01*
X152356373Y-102098488D01*
X152386607Y-102302344D01*
X152378540Y-102504840D01*
X152334082Y-102700459D01*
X152255146Y-102883686D01*
X152143643Y-103049008D01*
X152001485Y-103190908D01*
X151830584Y-103303873D01*
X151792251Y-103322919D01*
X151597055Y-103396826D01*
X151399257Y-103433644D01*
X151188468Y-103434776D01*
X151065354Y-103421008D01*
X150853713Y-103368984D01*
X150664688Y-103280090D01*
X150500864Y-103157002D01*
X150364824Y-103002392D01*
X150259153Y-102818934D01*
X150186435Y-102609304D01*
X150161742Y-102485927D01*
X150142270Y-102358484D01*
X150335535Y-102358484D01*
X150528801Y-102358484D01*
X150543138Y-102466564D01*
X150573469Y-102587123D01*
X150628943Y-102714000D01*
X150700793Y-102830554D01*
X150780252Y-102920145D01*
X150783613Y-102923059D01*
X150919940Y-103012978D01*
X151078771Y-103073916D01*
X151247631Y-103103139D01*
X151414045Y-103097916D01*
X151498877Y-103079703D01*
X151660545Y-103011495D01*
X151798567Y-102910358D01*
X151907501Y-102781799D01*
X151981903Y-102631325D01*
X151998980Y-102573686D01*
X152015081Y-102462647D01*
X152015897Y-102336238D01*
X152002730Y-102210997D01*
X151976884Y-102103463D01*
X151958471Y-102059269D01*
X151913266Y-101982927D01*
X151859379Y-101916522D01*
X151791566Y-101856939D01*
X151704582Y-101801062D01*
X151593186Y-101745776D01*
X151452131Y-101687967D01*
X151276174Y-101624520D01*
X151160990Y-101585549D01*
X151037818Y-101543532D01*
X150922244Y-101502244D01*
X150824140Y-101465347D01*
X150753382Y-101436502D01*
X150731184Y-101426163D01*
X150599802Y-101338751D01*
X150478382Y-101220058D01*
X150379393Y-101083061D01*
X150351089Y-101030616D01*
X150320626Y-100966030D01*
X150300328Y-100912448D01*
X150288137Y-100858011D01*
X150281998Y-100790860D01*
X150279852Y-100699139D01*
X150279625Y-100618606D01*
X150280308Y-100503428D01*
X150283689Y-100420677D01*
X150291768Y-100358459D01*
X150306545Y-100304878D01*
X150330020Y-100248040D01*
X150348563Y-100208571D01*
X150456949Y-100026454D01*
X150590529Y-99880688D01*
X150749536Y-99771136D01*
X150934201Y-99697657D01*
X151144757Y-99660114D01*
X151273441Y-99654733D01*
X151380735Y-99658345D01*
G37*
G36*
X147047271Y-92712972D02*
G01*
X147070336Y-92721489D01*
X147124443Y-92749972D01*
X147193692Y-92793196D01*
X147232068Y-92819634D01*
X147257623Y-92842431D01*
X147312836Y-92895131D01*
X147396142Y-92976172D01*
X147505973Y-93083994D01*
X147640762Y-93217035D01*
X147798943Y-93373735D01*
X147978950Y-93552532D01*
X148179215Y-93751865D01*
X148398172Y-93970174D01*
X148634253Y-94205898D01*
X148885893Y-94457475D01*
X149151525Y-94723344D01*
X149429581Y-95001945D01*
X149718496Y-95291717D01*
X150016702Y-95591098D01*
X150322632Y-95898528D01*
X150362740Y-95938854D01*
X153393674Y-98986460D01*
X153393674Y-99086506D01*
X153383453Y-99172581D01*
X153348222Y-99238992D01*
X153340187Y-99248740D01*
X153286700Y-99310927D01*
X151136690Y-99316792D01*
X148986679Y-99322656D01*
X148961944Y-99247706D01*
X148918056Y-99165682D01*
X148847680Y-99085515D01*
X148765257Y-99021252D01*
X148696773Y-98989702D01*
X148653785Y-98983837D01*
X148573039Y-98978558D01*
X148461104Y-98974076D01*
X148324549Y-98970600D01*
X148169942Y-98968341D01*
X148003853Y-98967508D01*
X148002269Y-98967508D01*
X147387217Y-98967384D01*
X147387217Y-98680450D01*
X147387217Y-98393515D01*
X148061205Y-98386776D01*
X148735193Y-98380037D01*
X148818890Y-98312262D01*
X148910058Y-98228178D01*
X148966473Y-98148494D01*
X148995129Y-98062706D01*
X148998284Y-98042858D01*
X149010293Y-97953322D01*
X149246054Y-97943608D01*
X149366660Y-97936534D01*
X149452260Y-97925898D01*
X149512133Y-97910132D01*
X149548259Y-97892446D01*
X149653791Y-97815450D01*
X149729412Y-97731151D01*
X149766425Y-97670788D01*
X149781617Y-97639838D01*
X149793347Y-97606491D01*
X149802170Y-97564544D01*
X149808640Y-97507793D01*
X149813312Y-97430036D01*
X149816740Y-97325071D01*
X149819479Y-97186694D01*
X149821440Y-97055386D01*
X149823253Y-96853777D01*
X149822039Y-96690681D01*
X149817140Y-96560346D01*
X149807896Y-96457020D01*
X149793649Y-96374951D01*
X149773740Y-96308388D01*
X149747511Y-96251578D01*
X149725164Y-96214726D01*
X149673038Y-96154638D01*
X149602020Y-96094971D01*
X149565635Y-96071026D01*
X149510717Y-96041740D01*
X149457812Y-96022620D01*
X149394122Y-96010948D01*
X149306846Y-96004009D01*
X149235222Y-96000889D01*
X149010280Y-95992563D01*
X149000482Y-95874414D01*
X148969791Y-95741394D01*
X148903644Y-95631310D01*
X148805411Y-95549297D01*
X148777223Y-95534258D01*
X148759134Y-95525734D01*
X148740449Y-95518308D01*
X148718180Y-95511915D01*
X148689337Y-95506491D01*
X148650932Y-95501970D01*
X148599975Y-95498287D01*
X148533476Y-95495376D01*
X148448447Y-95493174D01*
X148341899Y-95491613D01*
X148210842Y-95490631D01*
X148052287Y-95490161D01*
X147863246Y-95490138D01*
X147640728Y-95490497D01*
X147381745Y-95491173D01*
X147083308Y-95492101D01*
X146873560Y-95492786D01*
X145067807Y-95498711D01*
X144989867Y-95552122D01*
X144891420Y-95641015D01*
X144829909Y-95750209D01*
X144803210Y-95867310D01*
X144788582Y-95991770D01*
X144646219Y-96003197D01*
X144484204Y-96034229D01*
X144350594Y-96097910D01*
X144247388Y-96192395D01*
X144176585Y-96315840D01*
X144140186Y-96466398D01*
X144139714Y-96470679D01*
X144135537Y-96536137D01*
X144132674Y-96636685D01*
X144131219Y-96763101D01*
X144131265Y-96906165D01*
X144132909Y-97056654D01*
X144133420Y-97085894D01*
X144137080Y-97251551D01*
X144141473Y-97379288D01*
X144147141Y-97475510D01*
X144154627Y-97546626D01*
X144164474Y-97599042D01*
X144177223Y-97639166D01*
X144181057Y-97648321D01*
X144253213Y-97768302D01*
X144351486Y-97855780D01*
X144479021Y-97912765D01*
X144638963Y-97941268D01*
X144639418Y-97941306D01*
X144791173Y-97954028D01*
X144805006Y-98035906D01*
X144848358Y-98162254D01*
X144932786Y-98272303D01*
X144984299Y-98316519D01*
X145067529Y-98380037D01*
X145717600Y-98386809D01*
X146367671Y-98393581D01*
X146367671Y-98680483D01*
X146367671Y-98967384D01*
X145741536Y-98967871D01*
X145555262Y-98968266D01*
X145407790Y-98969341D01*
X145293596Y-98971414D01*
X145207157Y-98974802D01*
X145142947Y-98979823D01*
X145095444Y-98986795D01*
X145059122Y-98996035D01*
X145028457Y-99007862D01*
X145025829Y-99009045D01*
X144936431Y-99065365D01*
X144861048Y-99141567D01*
X144811503Y-99224519D01*
X144801162Y-99258612D01*
X144788482Y-99322009D01*
X142680127Y-99321224D01*
X142315214Y-99320987D01*
X141992234Y-99320543D01*
X141708788Y-99319857D01*
X141462481Y-99318897D01*
X141250917Y-99317629D01*
X141071700Y-99316020D01*
X140922433Y-99314036D01*
X140800719Y-99311644D01*
X140704164Y-99308811D01*
X140630370Y-99305502D01*
X140576941Y-99301685D01*
X140541481Y-99297326D01*
X140521594Y-99292392D01*
X140518801Y-99291079D01*
X140450849Y-99229197D01*
X140412889Y-99139356D01*
X140406327Y-99078391D01*
X140407307Y-99068170D01*
X140411293Y-99055699D01*
X140419566Y-99039664D01*
X140433406Y-99018755D01*
X140454093Y-98991657D01*
X140482908Y-98957058D01*
X140521131Y-98913647D01*
X140570042Y-98860109D01*
X140630921Y-98795133D01*
X140705049Y-98717406D01*
X140793706Y-98625615D01*
X140898172Y-98518447D01*
X141019727Y-98394591D01*
X141159652Y-98252734D01*
X141319227Y-98091562D01*
X141499732Y-97909764D01*
X141702447Y-97706026D01*
X141928653Y-97479036D01*
X142179630Y-97227482D01*
X142456658Y-96950051D01*
X142761018Y-96645431D01*
X143093989Y-96312307D01*
X143456852Y-95949370D01*
X143514049Y-95892166D01*
X143914043Y-95492286D01*
X144283643Y-95123122D01*
X144623643Y-94783893D01*
X144934839Y-94473816D01*
X145218026Y-94192108D01*
X145473998Y-93937986D01*
X145703551Y-93710667D01*
X145907479Y-93509370D01*
X146086577Y-93333312D01*
X146241641Y-93181709D01*
X146373464Y-93053779D01*
X146482843Y-92948740D01*
X146570571Y-92865809D01*
X146637445Y-92804203D01*
X146684258Y-92763140D01*
X146711805Y-92741837D01*
X146716513Y-92739144D01*
X146824627Y-92705399D01*
X146941359Y-92696352D01*
X147047271Y-92712972D01*
G37*
D12*
%TO.C,R114*%
X140850055Y-120793184D02*
X140553243Y-120872714D01*
X141046757Y-121527286D02*
X140749945Y-121606816D01*
%TO.C,C118*%
X135521693Y-94769190D02*
X135369190Y-94921693D01*
X136030810Y-95278307D02*
X135878307Y-95430810D01*
%TO.C,D104*%
X152561665Y-123875880D02*
X149726166Y-121040382D01*
X152561665Y-123875880D02*
X153975879Y-122461666D01*
X153975879Y-122461666D02*
X151140381Y-119626168D01*
%TO.C,R115*%
X145753243Y-119472714D02*
X146050055Y-119393184D01*
X145949945Y-120206816D02*
X146246757Y-120127286D01*
D11*
%TO.C,S101*%
X117166220Y-119069022D02*
X117166220Y-119069022D01*
X117252823Y-119119023D02*
X117252823Y-119119023D01*
D10*
X117560771Y-122385641D02*
X119639232Y-123585640D01*
X117781348Y-120203590D02*
X117381347Y-120896410D01*
X121018654Y-122996410D02*
X121418655Y-122303590D01*
X121239231Y-120814359D02*
X119160770Y-119614360D01*
D11*
X117166221Y-119069022D02*
G75*
G02*
X117252821Y-119119022I43299J-25002D01*
G01*
X117252822Y-119119023D02*
G75*
G02*
X117166220Y-119069022I-43301J25000D01*
G01*
D14*
%TO.C,U101*%
X136860074Y-99400000D02*
X137303330Y-99843255D01*
X137303330Y-98956744D02*
X136860074Y-99400000D01*
X146456744Y-108996670D02*
X146900000Y-109439926D01*
X146604753Y-90258099D02*
X147195247Y-90258099D01*
X146900000Y-89360074D02*
X146456745Y-89803330D01*
X146900000Y-109439926D02*
X147343255Y-108996670D01*
X147343256Y-89803330D02*
X146900000Y-89360074D01*
X156496670Y-99843256D02*
X156939926Y-99400000D01*
X156939926Y-99400000D02*
X156496670Y-98956745D01*
D13*
G36*
X138045821Y-102866732D02*
G01*
X137866216Y-103046338D01*
X137596808Y-102776930D01*
X137776413Y-102597325D01*
X138045821Y-102866732D01*
G37*
G36*
X138399374Y-95579715D02*
G01*
X138129966Y-95849123D01*
X137950361Y-95669517D01*
X138219769Y-95400110D01*
X138399374Y-95579715D01*
G37*
G36*
X141581356Y-106402267D02*
G01*
X141401751Y-106581872D01*
X141132343Y-106312464D01*
X141311948Y-106132859D01*
X141581356Y-106402267D01*
G37*
G36*
X141934908Y-92044180D02*
G01*
X141665501Y-92313588D01*
X141485896Y-92133983D01*
X141755303Y-91864575D01*
X141934908Y-92044180D01*
G37*
G36*
X145116890Y-109937801D02*
G01*
X144937284Y-110117406D01*
X144667877Y-109847998D01*
X144847482Y-109668393D01*
X145116890Y-109937801D01*
G37*
G36*
X149132123Y-88952002D02*
G01*
X148952518Y-89131607D01*
X148683110Y-88862199D01*
X148862716Y-88682594D01*
X149132123Y-88952002D01*
G37*
G36*
X152667657Y-92487536D02*
G01*
X152488052Y-92667141D01*
X152218644Y-92397733D01*
X152398249Y-92218128D01*
X152667657Y-92487536D01*
G37*
G36*
X152314104Y-106666017D02*
G01*
X152044697Y-106935425D01*
X151865092Y-106755820D01*
X152134499Y-106486412D01*
X152314104Y-106666017D01*
G37*
G36*
X156203192Y-96023070D02*
G01*
X156023587Y-96202675D01*
X155754179Y-95933268D01*
X155933784Y-95753662D01*
X156203192Y-96023070D01*
G37*
G36*
X155849639Y-103130483D02*
G01*
X155580231Y-103399890D01*
X155400626Y-103220285D01*
X155670034Y-102950877D01*
X155849639Y-103130483D01*
G37*
D12*
%TO.C,C120*%
X143269190Y-110878307D02*
X143421693Y-111030810D01*
X143778307Y-110369190D02*
X143930810Y-110521693D01*
%TO.C,X101*%
X131300001Y-91125000D02*
X131300001Y-94275000D01*
X131300001Y-94275000D02*
X135100001Y-94275000D01*
D11*
%TO.C,J101*%
X182402872Y-91718736D02*
X183206146Y-92522010D01*
X182402872Y-91718736D02*
X183560406Y-90561202D01*
D15*
X182648945Y-88806871D02*
X182648945Y-88806871D01*
X182681472Y-88774344D02*
X182681472Y-88774344D01*
D11*
X186468736Y-87652872D02*
X185311202Y-88810406D01*
X186468736Y-87652872D02*
X187272010Y-88456146D01*
X188430958Y-91418216D02*
X186168216Y-93680958D01*
D15*
X182648945Y-88806871D02*
G75*
G02*
X182681472Y-88774344I16263J16264D01*
G01*
X182681472Y-88774344D02*
G75*
G02*
X182648945Y-88806871I-16264J-16263D01*
G01*
D12*
%TO.C,R111*%
X160546360Y-95320001D02*
X160853642Y-95320001D01*
X160546360Y-96080001D02*
X160853642Y-96080001D01*
%TO.C,R112*%
X160546360Y-97420000D02*
X160853642Y-97420000D01*
X160546360Y-98180000D02*
X160853642Y-98180000D01*
%TO.C,R104*%
X151722660Y-108239940D02*
X151939941Y-108022659D01*
X152260061Y-108777341D02*
X152477342Y-108560060D01*
%TO.C,R106*%
X132846359Y-114920000D02*
X133153641Y-114920000D01*
X132846359Y-115680000D02*
X133153641Y-115680000D01*
D16*
%TO.C,J108*%
X139944677Y-124804033D02*
X140379493Y-126426788D01*
X141355241Y-130068328D02*
X140985129Y-128687055D01*
X141355241Y-130068328D02*
X149990618Y-127754486D01*
X148580054Y-122490191D02*
X149014871Y-124112945D01*
X149990618Y-127754486D02*
X149620507Y-126373212D01*
D10*
X140456122Y-121432666D02*
G75*
G02*
X140256124Y-121432666I-99999J0D01*
G01*
X140256124Y-121432666D02*
G75*
G02*
X140456122Y-121432666I99999J0D01*
G01*
D12*
%TO.C,C124*%
X137369190Y-94321694D02*
X137521693Y-94169191D01*
X137878307Y-94830811D02*
X138030810Y-94678308D01*
D14*
%TO.C,U106*%
X126881782Y-100103001D02*
X126881782Y-100359512D01*
X126881782Y-102640490D02*
X126881782Y-102897001D01*
X126881782Y-102897001D02*
X127642295Y-102897001D01*
X127642295Y-100103001D02*
X126881782Y-100103001D01*
X129423269Y-102897001D02*
X130183782Y-102897001D01*
X130183782Y-100103001D02*
X129423269Y-100103001D01*
X130183782Y-100359512D02*
X130183782Y-100103001D01*
X130183782Y-102897001D02*
X130183782Y-102640490D01*
D13*
G36*
X126830982Y-101940501D02*
G01*
X126576982Y-101940501D01*
X126576982Y-101559500D01*
X126830982Y-101559500D01*
X126830982Y-101940501D01*
G37*
D11*
%TO.C,J103*%
X169674950Y-104446658D02*
X170478224Y-105249932D01*
X169674950Y-104446658D02*
X170832484Y-103289124D01*
D15*
X169921023Y-101534793D02*
X169921023Y-101534793D01*
X169953550Y-101502266D02*
X169953550Y-101502266D01*
D11*
X173740814Y-100380794D02*
X172583280Y-101538328D01*
X173740814Y-100380794D02*
X174544088Y-101184068D01*
X175703036Y-104146138D02*
X173440294Y-106408880D01*
D15*
X169921023Y-101534793D02*
G75*
G02*
X169953550Y-101502266I16263J16264D01*
G01*
X169953550Y-101502266D02*
G75*
G02*
X169921023Y-101534793I-16264J-16263D01*
G01*
D12*
%TO.C,C104*%
X170340000Y-88307836D02*
X170340000Y-88092164D01*
X171060000Y-88307836D02*
X171060000Y-88092164D01*
%TO.C,C117*%
X142114418Y-89110066D02*
X142266921Y-88957563D01*
X142623535Y-89619183D02*
X142776038Y-89466680D01*
%TO.C,C116*%
X142821524Y-89817173D02*
X142974027Y-89664670D01*
X143330641Y-90326290D02*
X143483144Y-90173787D01*
%TO.C,C112*%
X157721693Y-101469190D02*
X157569190Y-101621693D01*
X158230810Y-101978307D02*
X158078307Y-102130810D01*
%TO.C,C136*%
X121040000Y-115907836D02*
X121040000Y-115692164D01*
X121760000Y-115907836D02*
X121760000Y-115692164D01*
%TO.C,C110*%
X133092164Y-90040000D02*
X133307836Y-90040000D01*
X133092164Y-90760000D02*
X133307836Y-90760000D01*
%TO.C,C123*%
X157869190Y-102721693D02*
X158021693Y-102569190D01*
X158378307Y-103230810D02*
X158530810Y-103078307D01*
%TO.C,J112*%
X138670001Y-78670001D02*
X189590000Y-78670001D01*
X138670001Y-81270001D02*
X138670001Y-78670001D01*
X138670001Y-83870001D02*
X138670001Y-82540001D01*
X140000001Y-83870001D02*
X138670001Y-83870001D01*
X141270001Y-81270001D02*
X138670001Y-81270001D01*
X141270001Y-83870002D02*
X141270001Y-81270001D01*
X141270001Y-83870002D02*
X189590001Y-83870001D01*
X189590001Y-83870001D02*
X189590000Y-78670001D01*
%TO.C,R108*%
X180553641Y-85520001D02*
X180246359Y-85520001D01*
X180553641Y-86280001D02*
X180246359Y-86280001D01*
%TO.C,C126*%
X136669190Y-93621693D02*
X136821693Y-93469190D01*
X137178307Y-94130810D02*
X137330810Y-93978307D01*
%TO.C,C105*%
X123792164Y-119140000D02*
X124007836Y-119140000D01*
X123792164Y-119860000D02*
X124007836Y-119860000D01*
D11*
%TO.C,S102*%
X125466220Y-123869022D02*
X125466220Y-123869022D01*
X125552823Y-123919023D02*
X125552823Y-123919023D01*
D10*
X125860771Y-127185641D02*
X127939232Y-128385640D01*
X126081348Y-125003590D02*
X125681347Y-125696410D01*
X129318654Y-127796410D02*
X129718655Y-127103590D01*
X129539231Y-125614359D02*
X127460770Y-124414360D01*
D11*
X125466221Y-123869022D02*
G75*
G02*
X125552821Y-123919022I43299J-25002D01*
G01*
X125552822Y-123919023D02*
G75*
G02*
X125466220Y-123869022I-43301J25000D01*
G01*
%TO.C,J102*%
X176038911Y-98082697D02*
X176842185Y-98885971D01*
X176038911Y-98082697D02*
X177196445Y-96925163D01*
D15*
X176284984Y-95170832D02*
X176284984Y-95170832D01*
X176317511Y-95138305D02*
X176317511Y-95138305D01*
D11*
X180104775Y-94016833D02*
X178947241Y-95174367D01*
X180104775Y-94016833D02*
X180908049Y-94820107D01*
X182066997Y-97782177D02*
X179804255Y-100044919D01*
D15*
X176284984Y-95170832D02*
G75*
G02*
X176317511Y-95138305I16263J16264D01*
G01*
X176317511Y-95138305D02*
G75*
G02*
X176284984Y-95170832I-16264J-16263D01*
G01*
D12*
%TO.C,R113*%
X160546360Y-99520000D02*
X160853642Y-99520000D01*
X160546360Y-100280000D02*
X160853642Y-100280000D01*
%TO.C,U105*%
X149200001Y-113940000D02*
X148400001Y-113940000D01*
X149200001Y-113940000D02*
X150000001Y-113940000D01*
X149200001Y-117060000D02*
X148400001Y-117060000D01*
X149200001Y-117060000D02*
X150000001Y-117060000D01*
X150740001Y-117340000D02*
X150260001Y-117340000D01*
X150500001Y-117010000D01*
X150740001Y-117340000D01*
G36*
X150740001Y-117340000D02*
G01*
X150260001Y-117340000D01*
X150500001Y-117010000D01*
X150740001Y-117340000D01*
G37*
%TO.C,U107*%
X122600000Y-114400000D02*
X122600000Y-114100000D01*
X122600000Y-115600000D02*
X122600000Y-115600000D01*
X122600000Y-116099999D02*
X122600000Y-115600000D01*
X122600001Y-113900000D02*
X122600001Y-113900000D01*
X123100000Y-113900000D02*
X122800000Y-113899999D01*
X123100000Y-116100000D02*
X122600000Y-116099999D01*
X124300000Y-113900000D02*
X124800000Y-113900001D01*
X124300000Y-116100000D02*
X124300000Y-116100000D01*
X124799999Y-116100000D02*
X124300000Y-116100000D01*
X124800000Y-113900001D02*
X124800000Y-114400000D01*
X124800000Y-114400000D02*
X124800000Y-114400000D01*
X124800000Y-115600000D02*
X124799999Y-116100000D01*
X122600001Y-113900000D02*
X122240000Y-113900000D01*
X122600000Y-113540000D01*
X122600001Y-113900000D01*
G36*
X122600001Y-113900000D02*
G01*
X122240000Y-113900000D01*
X122600000Y-113540000D01*
X122600001Y-113900000D01*
G37*
D11*
%TO.C,D101*%
X161840001Y-96700000D02*
G75*
G02*
X161740001Y-96700000I-50000J0D01*
G01*
X161740001Y-96700000D02*
G75*
G02*
X161840001Y-96700000I50000J0D01*
G01*
D12*
%TO.C,C114*%
X134140000Y-101007836D02*
X134140000Y-100792164D01*
X134860000Y-101007836D02*
X134860000Y-100792164D01*
%TO.C,X102*%
X133800000Y-86525000D02*
X133800000Y-89675000D01*
X133800000Y-89675000D02*
X137600000Y-89675000D01*
D11*
%TO.C,U102*%
X134050001Y-116600000D02*
X133950001Y-116600000D01*
X134050001Y-118000000D02*
X133950001Y-118000000D01*
D10*
X135400000Y-117600000D02*
X135400000Y-117600000D01*
X135400001Y-117800000D02*
X135400001Y-117800000D01*
X135400000Y-117600000D02*
G75*
G02*
X135400001Y-117800000I1J-100000D01*
G01*
X135400001Y-117800000D02*
G75*
G02*
X135400000Y-117600000I0J100000D01*
G01*
D12*
%TO.C,C134*%
X129589817Y-99040000D02*
X129374145Y-99040000D01*
X129589817Y-99760000D02*
X129374145Y-99760000D01*
D11*
%TO.C,J104*%
X163302872Y-110768736D02*
X164106146Y-111572010D01*
X163302872Y-110768736D02*
X164460406Y-109611202D01*
D15*
X163548945Y-107856871D02*
X163548945Y-107856871D01*
X163581472Y-107824344D02*
X163581472Y-107824344D01*
D11*
X167368736Y-106702872D02*
X166211202Y-107860406D01*
X167368736Y-106702872D02*
X168172010Y-107506146D01*
X169330958Y-110468216D02*
X167068216Y-112730958D01*
D15*
X163548945Y-107856871D02*
G75*
G02*
X163581472Y-107824344I16263J16264D01*
G01*
X163581472Y-107824344D02*
G75*
G02*
X163548945Y-107856871I-16264J-16263D01*
G01*
D12*
%TO.C,C113*%
X140876981Y-91761717D02*
X141029484Y-91609214D01*
X141386098Y-92270834D02*
X141538601Y-92118331D01*
%TO.C,J110*%
X151948763Y-118741008D02*
X158319795Y-112369976D01*
X152530337Y-119322582D02*
X151948763Y-118741008D01*
X153108418Y-119900663D02*
X152965250Y-119757494D01*
X153201423Y-119807658D02*
X153108418Y-119900663D01*
X154099448Y-118909632D02*
X153998291Y-119010790D01*
X154276225Y-119010790D02*
X154175068Y-118909632D01*
X154398888Y-121283057D02*
X153599857Y-120484026D01*
X154936289Y-120745656D02*
X154398888Y-121283057D01*
X155473690Y-120208255D02*
X155073093Y-119807658D01*
X155473690Y-120208255D02*
X160815882Y-114866063D01*
X158901369Y-112951550D02*
X158319795Y-112369976D01*
X159799394Y-113849576D02*
X159336282Y-113386464D01*
X160815882Y-114866063D02*
X160234307Y-114284489D01*
%TO.C,C103*%
X162940001Y-90407837D02*
X162940001Y-90192165D01*
X163660001Y-90407837D02*
X163660001Y-90192165D01*
%TO.C,C109*%
X135592165Y-85440000D02*
X135807837Y-85440000D01*
X135592165Y-86160000D02*
X135807837Y-86160000D01*
%TO.C,R109*%
X153339940Y-106631230D02*
X153122659Y-106848511D01*
X153877341Y-107168631D02*
X153660060Y-107385912D01*
%TO.C,C111*%
X148869191Y-88678308D02*
X149021694Y-88830811D01*
X149378308Y-88169191D02*
X149530811Y-88321694D01*
%TO.C,R103*%
X132846359Y-113920000D02*
X133153641Y-113920000D01*
X132846359Y-114680000D02*
X133153641Y-114680000D01*
%TO.C,C119*%
X140169191Y-91021693D02*
X140321694Y-90869190D01*
X140678308Y-91530810D02*
X140830811Y-91378307D01*
%TO.C,U103*%
X143100000Y-113940000D02*
X142300000Y-113940000D01*
X143100000Y-113940000D02*
X143900000Y-113940000D01*
X143100000Y-117060000D02*
X142300000Y-117060000D01*
X143100000Y-117060000D02*
X143900000Y-117060000D01*
X144640000Y-117340000D02*
X144160000Y-117340000D01*
X144400000Y-117010000D01*
X144640000Y-117340000D01*
G36*
X144640000Y-117340000D02*
G01*
X144160000Y-117340000D01*
X144400000Y-117010000D01*
X144640000Y-117340000D01*
G37*
%TO.C,R102*%
X162920000Y-88046359D02*
X162920000Y-88353641D01*
X163680000Y-88046359D02*
X163680000Y-88353641D01*
%TO.C,C137*%
X122907836Y-116840000D02*
X122692164Y-116840000D01*
X122907836Y-117560000D02*
X122692164Y-117560000D01*
%TO.C,C101*%
X177992164Y-91140001D02*
X178207836Y-91140001D01*
X177992164Y-91860001D02*
X178207836Y-91860001D01*
%TO.C,R105*%
X132850000Y-123903641D02*
X132850000Y-123596359D01*
X133610000Y-123903641D02*
X133610000Y-123596359D01*
%TO.C,C106*%
X131840000Y-123887836D02*
X131840000Y-123672164D01*
X132560000Y-123887836D02*
X132560000Y-123672164D01*
%TO.C,C138*%
X124592164Y-116840000D02*
X124807836Y-116840000D01*
X124592164Y-117560000D02*
X124807836Y-117560000D01*
%TO.C,C115*%
X131240000Y-116592165D02*
X131240000Y-116807837D01*
X131960000Y-116592165D02*
X131960000Y-116807837D01*
D11*
%TO.C,D102*%
X161840001Y-98800000D02*
G75*
G02*
X161740001Y-98800000I-50000J0D01*
G01*
X161740001Y-98800000D02*
G75*
G02*
X161840001Y-98800000I50000J0D01*
G01*
D12*
%TO.C,C133*%
X127474145Y-99040000D02*
X127689817Y-99040000D01*
X127474145Y-99760000D02*
X127689817Y-99760000D01*
%TO.C,C122*%
X144423597Y-110584899D02*
X144271094Y-110432396D01*
X144932714Y-110075782D02*
X144780211Y-109923279D01*
%TD*%
%LPC*%
D17*
%TO.C,J108*%
X141178189Y-123148361D02*
X140502041Y-123329534D01*
X140181105Y-122131786D01*
X140857253Y-121950613D01*
X141178189Y-123148361D01*
G36*
X141178189Y-123148361D02*
G01*
X140502041Y-123329534D01*
X140181105Y-122131786D01*
X140857253Y-121950613D01*
X141178189Y-123148361D01*
G37*
X141950929Y-122941305D02*
X141274781Y-123122479D01*
X140953845Y-121924731D01*
X141629995Y-121743557D01*
X141950929Y-122941305D01*
G36*
X141950929Y-122941305D02*
G01*
X141274781Y-123122479D01*
X140953845Y-121924731D01*
X141629995Y-121743557D01*
X141950929Y-122941305D01*
G37*
X142433891Y-122811897D02*
X142047522Y-122915423D01*
X141726586Y-121717674D01*
X142112957Y-121614148D01*
X142433891Y-122811897D01*
G36*
X142433891Y-122811897D02*
G01*
X142047522Y-122915423D01*
X141726586Y-121717674D01*
X142112957Y-121614148D01*
X142433891Y-122811897D01*
G37*
X142916855Y-122682486D02*
X142530485Y-122786014D01*
X142209549Y-121588266D01*
X142595918Y-121484738D01*
X142916855Y-122682486D01*
G36*
X142916855Y-122682486D02*
G01*
X142530485Y-122786014D01*
X142209549Y-121588266D01*
X142595918Y-121484738D01*
X142916855Y-122682486D01*
G37*
X143399818Y-122553077D02*
X143013449Y-122656605D01*
X142692512Y-121458857D01*
X143078882Y-121355329D01*
X143399818Y-122553077D01*
G36*
X143399818Y-122553077D02*
G01*
X143013449Y-122656605D01*
X142692512Y-121458857D01*
X143078882Y-121355329D01*
X143399818Y-122553077D01*
G37*
X143882781Y-122423667D02*
X143496411Y-122527195D01*
X143175475Y-121329447D01*
X143561846Y-121225920D01*
X143882781Y-122423667D01*
G36*
X143882781Y-122423667D02*
G01*
X143496411Y-122527195D01*
X143175475Y-121329447D01*
X143561846Y-121225920D01*
X143882781Y-122423667D01*
G37*
X144365744Y-122294258D02*
X143979372Y-122397785D01*
X143658438Y-121200038D01*
X144044809Y-121096509D01*
X144365744Y-122294258D01*
G36*
X144365744Y-122294258D02*
G01*
X143979372Y-122397785D01*
X143658438Y-121200038D01*
X144044809Y-121096509D01*
X144365744Y-122294258D01*
G37*
X144848706Y-122164849D02*
X144462337Y-122268376D01*
X144141401Y-121070628D01*
X144527772Y-120967101D01*
X144848706Y-122164849D01*
G36*
X144848706Y-122164849D02*
G01*
X144462337Y-122268376D01*
X144141401Y-121070628D01*
X144527772Y-120967101D01*
X144848706Y-122164849D01*
G37*
X145331670Y-122035439D02*
X144945300Y-122138966D01*
X144624365Y-120941218D01*
X145010734Y-120837691D01*
X145331670Y-122035439D01*
G36*
X145331670Y-122035439D02*
G01*
X144945300Y-122138966D01*
X144624365Y-120941218D01*
X145010734Y-120837691D01*
X145331670Y-122035439D01*
G37*
X145814633Y-121906029D02*
X145428263Y-122009557D01*
X145107326Y-120811809D01*
X145493697Y-120708282D01*
X145814633Y-121906029D01*
G36*
X145814633Y-121906029D02*
G01*
X145428263Y-122009557D01*
X145107326Y-120811809D01*
X145493697Y-120708282D01*
X145814633Y-121906029D01*
G37*
X146587374Y-121698974D02*
X145911225Y-121880147D01*
X145590289Y-120682400D01*
X146266438Y-120501226D01*
X146587374Y-121698974D01*
G36*
X146587374Y-121698974D02*
G01*
X145911225Y-121880147D01*
X145590289Y-120682400D01*
X146266438Y-120501226D01*
X146587374Y-121698974D01*
G37*
X147360114Y-121491919D02*
X146683966Y-121673092D01*
X146363030Y-120475344D01*
X147039178Y-120294171D01*
X147360114Y-121491919D01*
G36*
X147360114Y-121491919D02*
G01*
X146683966Y-121673092D01*
X146363030Y-120475344D01*
X147039178Y-120294171D01*
X147360114Y-121491919D01*
G37*
%TD*%
D18*
%TO.C,OL101*%
X135156269Y-107354968D03*
%TD*%
D19*
%TO.C,IC102*%
X156400000Y-86300000D03*
X156400000Y-87570000D03*
X156400000Y-88840000D03*
X156400000Y-90110000D03*
X161800000Y-90110000D03*
X161800000Y-88840000D03*
X161800000Y-87570000D03*
X161800000Y-86300000D03*
%TD*%
%TO.C,IC101*%
X172250000Y-86295000D03*
X172250000Y-87565000D03*
X172250000Y-88835000D03*
X172250000Y-90105000D03*
X177650000Y-90105000D03*
X177650000Y-88835000D03*
X177650000Y-87565000D03*
X177650000Y-86295000D03*
%TD*%
D20*
%TO.C,R107*%
X182910001Y-85900000D03*
X181890001Y-85900000D03*
%TD*%
D21*
%TO.C,R101*%
X179200000Y-87690000D03*
X179200000Y-88710000D03*
%TD*%
D22*
%TO.C,D103*%
X161185001Y-100900000D03*
X160215001Y-100900000D03*
%TD*%
D23*
%TO.C,C121*%
X136739411Y-95460589D03*
X136060589Y-96139411D03*
%TD*%
D24*
%TO.C,C102*%
X154800000Y-88680001D03*
X154800000Y-87720001D03*
%TD*%
D20*
%TO.C,FB101*%
X134009999Y-95000001D03*
X132990001Y-95000001D03*
%TD*%
D25*
%TO.C,R114*%
X141292622Y-121068002D03*
X140307378Y-121331998D03*
%TD*%
D23*
%TO.C,C118*%
X136039411Y-94760589D03*
X135360589Y-95439411D03*
%TD*%
D26*
%TO.C,D104*%
X152766726Y-122666727D03*
X150433274Y-120333275D03*
%TD*%
D27*
%TO.C,R115*%
X145507378Y-119931998D03*
X146492622Y-119668002D03*
%TD*%
D28*
%TO.C,S101*%
X118140499Y-119631523D03*
X121734504Y-121706523D03*
X117065498Y-121493477D03*
X120659503Y-123568477D03*
%TD*%
D29*
%TO.C,U101*%
X145682646Y-89697363D03*
X145329091Y-90050918D03*
X144975538Y-90404470D03*
X144621986Y-90758023D03*
X144268431Y-91111577D03*
X143914879Y-91465130D03*
X143561324Y-91818685D03*
X143207771Y-92172237D03*
X142854219Y-92525790D03*
X142500664Y-92879344D03*
X142147112Y-93232897D03*
X141793559Y-93586449D03*
X141440004Y-93940004D03*
X141086452Y-94293557D03*
X140732897Y-94647112D03*
X140379344Y-95000664D03*
X140025791Y-95354217D03*
X139672237Y-95707771D03*
X139318685Y-96061324D03*
X138965130Y-96414879D03*
X138611577Y-96768431D03*
X138258024Y-97121984D03*
X137904470Y-97475538D03*
X137550918Y-97829091D03*
X137197363Y-98182646D03*
D30*
X137197363Y-100617354D03*
X137550918Y-100970909D03*
X137904470Y-101324462D03*
X138258023Y-101678014D03*
X138611577Y-102031569D03*
X138965130Y-102385121D03*
X139318685Y-102738676D03*
X139672237Y-103092229D03*
X140025790Y-103445781D03*
X140379344Y-103799336D03*
X140732897Y-104152888D03*
X141086452Y-104506443D03*
X141440004Y-104859996D03*
X141793557Y-105213548D03*
X142147112Y-105567103D03*
X142500664Y-105920656D03*
X142854219Y-106274210D03*
X143207771Y-106627763D03*
X143561324Y-106981315D03*
X143914879Y-107334870D03*
X144268431Y-107688423D03*
X144621986Y-108041977D03*
X144975538Y-108395530D03*
X145329091Y-108749082D03*
X145682646Y-109102637D03*
D29*
X148117354Y-109102637D03*
X148470909Y-108749082D03*
X148824462Y-108395530D03*
X149178014Y-108041977D03*
X149531569Y-107688423D03*
X149885121Y-107334870D03*
X150238676Y-106981315D03*
X150592229Y-106627763D03*
X150945781Y-106274210D03*
X151299336Y-105920656D03*
X151652888Y-105567103D03*
X152006443Y-105213548D03*
X152359996Y-104859996D03*
X152713548Y-104506443D03*
X153067103Y-104152888D03*
X153420656Y-103799336D03*
X153774210Y-103445781D03*
X154127763Y-103092229D03*
X154481315Y-102738676D03*
X154834870Y-102385121D03*
X155188423Y-102031569D03*
X155541977Y-101678014D03*
X155895530Y-101324462D03*
X156249082Y-100970909D03*
X156602637Y-100617354D03*
D30*
X156602637Y-98182646D03*
X156249082Y-97829091D03*
X155895530Y-97475538D03*
X155541977Y-97121986D03*
X155188423Y-96768431D03*
X154834870Y-96414879D03*
X154481315Y-96061324D03*
X154127763Y-95707771D03*
X153774210Y-95354219D03*
X153420656Y-95000664D03*
X153067103Y-94647112D03*
X152713548Y-94293557D03*
X152359996Y-93940004D03*
X152006443Y-93586452D03*
X151652888Y-93232897D03*
X151299336Y-92879344D03*
X150945781Y-92525790D03*
X150592229Y-92172237D03*
X150238676Y-91818685D03*
X149885121Y-91465130D03*
X149531569Y-91111577D03*
X149178014Y-90758023D03*
X148824462Y-90404470D03*
X148470909Y-90050918D03*
X148117354Y-89697363D03*
%TD*%
D31*
%TO.C,C120*%
X143260589Y-110360589D03*
X143939411Y-111039411D03*
%TD*%
D32*
%TO.C,X101*%
X132150001Y-93525000D03*
X134250001Y-93525000D03*
X134250001Y-91875000D03*
X132150001Y-91875000D03*
%TD*%
D33*
%TO.C,J101*%
X183753446Y-89887330D03*
X184637330Y-89003446D03*
D34*
X188208219Y-89958040D03*
X184708040Y-93458219D03*
%TD*%
D35*
%TO.C,R111*%
X160190001Y-95700001D03*
X161210001Y-95700001D03*
%TD*%
%TO.C,R112*%
X160190001Y-97800000D03*
X161210001Y-97800000D03*
%TD*%
D36*
%TO.C,R104*%
X151739377Y-108760624D03*
X152460625Y-108039376D03*
%TD*%
D35*
%TO.C,R106*%
X132490000Y-115300000D03*
X133510000Y-115300000D03*
%TD*%
D37*
%TO.C,J108*%
X141256020Y-123593380D03*
X146839072Y-122097406D03*
D38*
X139743095Y-123491482D03*
X148098354Y-121252697D03*
D39*
X140822371Y-127519392D03*
X149177629Y-125280608D03*
%TD*%
D40*
%TO.C,C124*%
X137360589Y-94839412D03*
X138039411Y-94160590D03*
%TD*%
D41*
%TO.C,U106*%
X129739282Y-102250002D03*
X129739282Y-101750001D03*
X129739282Y-101250001D03*
X129739282Y-100750000D03*
D42*
X129032781Y-100547501D03*
X128532782Y-100547501D03*
X128032783Y-100547501D03*
D41*
X127326282Y-100750000D03*
X127326282Y-101250001D03*
X127326282Y-101750001D03*
X127326282Y-102250002D03*
D42*
X128032783Y-102452501D03*
X128532782Y-102452501D03*
X129032781Y-102452501D03*
%TD*%
D33*
%TO.C,J103*%
X171025524Y-102615252D03*
X171909408Y-101731368D03*
D34*
X175480297Y-102685962D03*
X171980118Y-106186141D03*
%TD*%
D24*
%TO.C,C104*%
X170700000Y-88680000D03*
X170700000Y-87720000D03*
%TD*%
D40*
%TO.C,C117*%
X142105817Y-89627784D03*
X142784639Y-88948962D03*
%TD*%
%TO.C,C116*%
X142812923Y-90334891D03*
X143491745Y-89656069D03*
%TD*%
D23*
%TO.C,C112*%
X158239411Y-101460589D03*
X157560589Y-102139411D03*
%TD*%
D24*
%TO.C,C136*%
X121400000Y-116280000D03*
X121400000Y-115320000D03*
%TD*%
D43*
%TO.C,C110*%
X132720000Y-90400000D03*
X133680000Y-90400000D03*
%TD*%
D40*
%TO.C,C123*%
X157860589Y-103239411D03*
X158539411Y-102560589D03*
%TD*%
D44*
%TO.C,J112*%
X140000001Y-82540001D03*
D45*
X140000001Y-80000001D03*
X142540001Y-82540001D03*
X142540001Y-80000001D03*
X145080001Y-82540001D03*
X145080001Y-80000001D03*
X147620001Y-82540001D03*
X147620001Y-80000002D03*
X150160000Y-82540001D03*
X150160001Y-80000001D03*
X152700001Y-82540001D03*
X152700001Y-80000001D03*
X155240001Y-82540001D03*
X155240001Y-80000001D03*
X157780001Y-82540001D03*
X157780001Y-80000001D03*
X160320001Y-82540001D03*
X160320001Y-80000001D03*
X162860001Y-82540001D03*
X162860001Y-80000001D03*
X165400001Y-82540001D03*
X165400001Y-80000001D03*
X167940001Y-82540001D03*
X167940001Y-80000001D03*
X170480001Y-82540001D03*
X170480001Y-80000001D03*
X173020001Y-82540001D03*
X173020001Y-80000001D03*
X175560001Y-82540001D03*
X175560001Y-80000001D03*
X178100001Y-82540001D03*
X178100001Y-80000001D03*
X180640001Y-82540001D03*
X180640001Y-80000001D03*
X183180001Y-82540001D03*
X183180001Y-80000001D03*
X185720001Y-82540001D03*
X185720001Y-80000001D03*
X188260001Y-82540001D03*
X188260001Y-80000001D03*
%TD*%
D20*
%TO.C,R108*%
X180910000Y-85900001D03*
X179890000Y-85900001D03*
%TD*%
D40*
%TO.C,C126*%
X136660589Y-94139411D03*
X137339411Y-93460589D03*
%TD*%
D43*
%TO.C,C105*%
X123420000Y-119500000D03*
X124380000Y-119500000D03*
%TD*%
D28*
%TO.C,S102*%
X126440499Y-124431523D03*
X130034504Y-126506523D03*
X125365498Y-126293477D03*
X128959503Y-128368477D03*
%TD*%
D33*
%TO.C,J102*%
X177389485Y-96251291D03*
X178273369Y-95367407D03*
D34*
X181844258Y-96322001D03*
X178344079Y-99822180D03*
%TD*%
D35*
%TO.C,R113*%
X160190001Y-99900000D03*
X161210001Y-99900000D03*
%TD*%
D46*
%TO.C,U105*%
X150337501Y-116450000D03*
X150337501Y-115500000D03*
X150337501Y-114550000D03*
X148062501Y-114550000D03*
X148062501Y-115500000D03*
X148062501Y-116450000D03*
%TD*%
D47*
%TO.C,U107*%
X122937500Y-114250000D03*
X122937500Y-114750000D03*
X122937500Y-115250000D03*
X122937500Y-115750000D03*
D48*
X123450000Y-115762500D03*
X123950000Y-115762500D03*
D47*
X124462500Y-115750000D03*
X124462500Y-115250000D03*
X124462500Y-114750000D03*
X124462500Y-114250000D03*
D48*
X123950000Y-114237500D03*
X123450000Y-114237500D03*
%TD*%
D22*
%TO.C,D101*%
X161185001Y-96700000D03*
X160215001Y-96700000D03*
%TD*%
D24*
%TO.C,C114*%
X134500000Y-101380000D03*
X134500000Y-100420000D03*
%TD*%
D32*
%TO.C,X102*%
X134650000Y-88925000D03*
X136750000Y-88925000D03*
X136750000Y-87275000D03*
X134650000Y-87275000D03*
%TD*%
D49*
%TO.C,U102*%
X134500001Y-117700000D03*
D50*
X134000001Y-117300000D03*
D49*
X134500001Y-116900000D03*
X133500001Y-116900000D03*
X133500001Y-117700000D03*
%TD*%
D51*
%TO.C,C134*%
X129961981Y-99400000D03*
X129001981Y-99400000D03*
%TD*%
D33*
%TO.C,J104*%
X164653446Y-108937330D03*
X165537330Y-108053446D03*
D34*
X169108219Y-109008040D03*
X165608040Y-112508219D03*
%TD*%
D40*
%TO.C,C113*%
X140868380Y-92279435D03*
X141547202Y-91600613D03*
%TD*%
D52*
%TO.C,J110*%
X154137258Y-119946625D03*
D53*
X153239232Y-119048599D03*
X155035284Y-119048599D03*
X154137258Y-118150574D03*
X155933309Y-118150574D03*
X155035284Y-117252548D03*
X156831335Y-117252548D03*
X155933309Y-116354523D03*
X157729360Y-116354523D03*
X156831335Y-115456497D03*
X158627386Y-115456497D03*
X157729360Y-114558471D03*
X159525412Y-114558471D03*
X158627386Y-113660446D03*
%TD*%
D24*
%TO.C,C103*%
X163300001Y-90780001D03*
X163300001Y-89820001D03*
%TD*%
D43*
%TO.C,C109*%
X135220001Y-85800000D03*
X136180001Y-85800000D03*
%TD*%
D54*
%TO.C,R109*%
X153860624Y-106647947D03*
X153139376Y-107369195D03*
%TD*%
D31*
%TO.C,C111*%
X148860590Y-88160590D03*
X149539412Y-88839412D03*
%TD*%
D35*
%TO.C,R103*%
X132490000Y-114300000D03*
X133510000Y-114300000D03*
%TD*%
D40*
%TO.C,C119*%
X140160590Y-91539411D03*
X140839412Y-90860589D03*
%TD*%
D46*
%TO.C,U103*%
X144237500Y-116450000D03*
X144237500Y-115500000D03*
X144237500Y-114550000D03*
X141962500Y-114550000D03*
X141962500Y-115500000D03*
X141962500Y-116450000D03*
%TD*%
D21*
%TO.C,R102*%
X163300000Y-87690000D03*
X163300000Y-88710000D03*
%TD*%
D51*
%TO.C,C137*%
X123280000Y-117200000D03*
X122320000Y-117200000D03*
%TD*%
D43*
%TO.C,C101*%
X177620000Y-91500001D03*
X178580000Y-91500001D03*
%TD*%
D55*
%TO.C,R105*%
X133230000Y-124260000D03*
X133230000Y-123240000D03*
%TD*%
D24*
%TO.C,C106*%
X132200000Y-124260000D03*
X132200000Y-123300000D03*
%TD*%
D43*
%TO.C,C138*%
X124220000Y-117200000D03*
X125180000Y-117200000D03*
%TD*%
D56*
%TO.C,C115*%
X131600000Y-116220001D03*
X131600000Y-117180001D03*
%TD*%
D22*
%TO.C,D102*%
X161185001Y-98800000D03*
X160215001Y-98800000D03*
%TD*%
D43*
%TO.C,C133*%
X127101981Y-99400000D03*
X128061981Y-99400000D03*
%TD*%
D57*
%TO.C,C122*%
X144941315Y-110593500D03*
X144262493Y-109914678D03*
%TD*%
%LPD*%
M02*
