%TF.GenerationSoftware,KiCad,Pcbnew,8.0.0*%
%TF.CreationDate,2024-03-25T03:31:52+00:00*%
%TF.ProjectId,main_PCB_v2,6d61696e-5f50-4434-925f-76322e6b6963,rev?*%
%TF.SameCoordinates,Original*%
%TF.FileFunction,Soldermask,Top*%
%TF.FilePolarity,Negative*%
%FSLAX46Y46*%
G04 Gerber Fmt 4.6, Leading zero omitted, Abs format (unit mm)*
G04 Created by KiCad (PCBNEW 8.0.0) date 2024-03-25 03:31:52*
%MOMM*%
%LPD*%
G01*
G04 APERTURE LIST*
G04 Aperture macros list*
%AMRoundRect*
0 Rectangle with rounded corners*
0 $1 Rounding radius*
0 $2 $3 $4 $5 $6 $7 $8 $9 X,Y pos of 4 corners*
0 Add a 4 corners polygon primitive as box body*
4,1,4,$2,$3,$4,$5,$6,$7,$8,$9,$2,$3,0*
0 Add four circle primitives for the rounded corners*
1,1,$1+$1,$2,$3*
1,1,$1+$1,$4,$5*
1,1,$1+$1,$6,$7*
1,1,$1+$1,$8,$9*
0 Add four rect primitives between the rounded corners*
20,1,$1+$1,$2,$3,$4,$5,0*
20,1,$1+$1,$4,$5,$6,$7,0*
20,1,$1+$1,$6,$7,$8,$9,0*
20,1,$1+$1,$8,$9,$2,$3,0*%
%AMHorizOval*
0 Thick line with rounded ends*
0 $1 width*
0 $2 $3 position (X,Y) of the first rounded end (center of the circle)*
0 $4 $5 position (X,Y) of the second rounded end (center of the circle)*
0 Add line between two ends*
20,1,$1,$2,$3,$4,$5,0*
0 Add two circle primitives to create the rounded ends*
1,1,$1,$2,$3*
1,1,$1,$4,$5*%
%AMRotRect*
0 Rectangle, with rotation*
0 The origin of the aperture is its center*
0 $1 length*
0 $2 width*
0 $3 Rotation angle, in degrees counterclockwise*
0 Add horizontal line*
21,1,$1,$2,0,0,$3*%
G04 Aperture macros list end*
%ADD10C,0.010000*%
%ADD11C,3.200000*%
%ADD12R,1.500000X0.650000*%
%ADD13RoundRect,0.135000X0.135000X0.185000X-0.135000X0.185000X-0.135000X-0.185000X0.135000X-0.185000X0*%
%ADD14RoundRect,0.135000X-0.185000X0.135000X-0.185000X-0.135000X0.185000X-0.135000X0.185000X0.135000X0*%
%ADD15RoundRect,0.147500X0.147500X0.172500X-0.147500X0.172500X-0.147500X-0.172500X0.147500X-0.172500X0*%
%ADD16RoundRect,0.140000X-0.021213X0.219203X-0.219203X0.021213X0.021213X-0.219203X0.219203X-0.021213X0*%
%ADD17RoundRect,0.140000X0.170000X-0.140000X0.170000X0.140000X-0.170000X0.140000X-0.170000X-0.140000X0*%
%ADD18RoundRect,0.135000X0.082518X0.213637X-0.178282X0.143756X-0.082518X-0.213637X0.178282X-0.143756X0*%
%ADD19RoundRect,0.225000X0.424264X0.106066X0.106066X0.424264X-0.424264X-0.106066X-0.106066X-0.424264X0*%
%ADD20RoundRect,0.135000X-0.082518X-0.213637X0.178282X-0.143756X0.082518X0.213637X-0.178282X0.143756X0*%
%ADD21RotRect,0.650000X1.050000X60.000000*%
%ADD22RotRect,0.279400X1.473200X45.000000*%
%ADD23RotRect,0.279400X1.473200X315.000000*%
%ADD24RoundRect,0.140000X-0.219203X-0.021213X-0.021213X-0.219203X0.219203X0.021213X0.021213X0.219203X0*%
%ADD25R,1.300000X1.100000*%
%ADD26RotRect,0.600000X1.700000X45.000000*%
%ADD27RotRect,1.000000X2.700000X45.000000*%
%ADD28RoundRect,0.135000X-0.135000X-0.185000X0.135000X-0.185000X0.135000X0.185000X-0.135000X0.185000X0*%
%ADD29RoundRect,0.135000X0.035355X-0.226274X0.226274X-0.035355X-0.035355X0.226274X-0.226274X0.035355X0*%
%ADD30C,0.600000*%
%ADD31HorizOval,0.900000X-0.142350X0.531259X0.142350X-0.531259X0*%
%ADD32HorizOval,0.900000X-0.103528X0.386370X0.103528X-0.386370X0*%
%ADD33RoundRect,0.140000X0.021213X-0.219203X0.219203X-0.021213X-0.021213X0.219203X-0.219203X0.021213X0*%
%ADD34R,0.482600X0.254000*%
%ADD35R,0.254000X0.482600*%
%ADD36RoundRect,0.140000X-0.140000X-0.170000X0.140000X-0.170000X0.140000X0.170000X-0.140000X0.170000X0*%
%ADD37R,1.700000X1.700000*%
%ADD38O,1.700000X1.700000*%
%ADD39RoundRect,0.150000X0.512500X0.150000X-0.512500X0.150000X-0.512500X-0.150000X0.512500X-0.150000X0*%
%ADD40R,0.375000X0.350000*%
%ADD41R,0.350000X0.375000*%
%ADD42R,0.600000X0.200000*%
%ADD43R,1.600000X0.200000*%
%ADD44RoundRect,0.140000X0.140000X0.170000X-0.140000X0.170000X-0.140000X-0.170000X0.140000X-0.170000X0*%
%ADD45RotRect,1.000000X1.000000X135.000000*%
%ADD46HorizOval,1.000000X0.000000X0.000000X0.000000X0.000000X0*%
%ADD47RoundRect,0.135000X-0.035355X0.226274X-0.226274X0.035355X0.035355X-0.226274X0.226274X-0.035355X0*%
%ADD48RoundRect,0.135000X0.185000X-0.135000X0.185000X0.135000X-0.185000X0.135000X-0.185000X-0.135000X0*%
%ADD49RoundRect,0.140000X-0.170000X0.140000X-0.170000X-0.140000X0.170000X-0.140000X0.170000X0.140000X0*%
%ADD50RoundRect,0.140000X0.219203X0.021213X0.021213X0.219203X-0.219203X-0.021213X-0.021213X-0.219203X0*%
G04 APERTURE END LIST*
D10*
%TO.C,J108*%
X141178189Y-123148361D02*
X140502041Y-123329534D01*
X140181105Y-122131786D01*
X140857253Y-121950613D01*
X141178189Y-123148361D01*
G36*
X141178189Y-123148361D02*
G01*
X140502041Y-123329534D01*
X140181105Y-122131786D01*
X140857253Y-121950613D01*
X141178189Y-123148361D01*
G37*
X141950929Y-122941305D02*
X141274781Y-123122479D01*
X140953845Y-121924731D01*
X141629995Y-121743557D01*
X141950929Y-122941305D01*
G36*
X141950929Y-122941305D02*
G01*
X141274781Y-123122479D01*
X140953845Y-121924731D01*
X141629995Y-121743557D01*
X141950929Y-122941305D01*
G37*
X142433891Y-122811897D02*
X142047522Y-122915423D01*
X141726586Y-121717674D01*
X142112957Y-121614148D01*
X142433891Y-122811897D01*
G36*
X142433891Y-122811897D02*
G01*
X142047522Y-122915423D01*
X141726586Y-121717674D01*
X142112957Y-121614148D01*
X142433891Y-122811897D01*
G37*
X142916855Y-122682486D02*
X142530485Y-122786014D01*
X142209549Y-121588266D01*
X142595918Y-121484738D01*
X142916855Y-122682486D01*
G36*
X142916855Y-122682486D02*
G01*
X142530485Y-122786014D01*
X142209549Y-121588266D01*
X142595918Y-121484738D01*
X142916855Y-122682486D01*
G37*
X143399818Y-122553077D02*
X143013449Y-122656605D01*
X142692512Y-121458857D01*
X143078882Y-121355329D01*
X143399818Y-122553077D01*
G36*
X143399818Y-122553077D02*
G01*
X143013449Y-122656605D01*
X142692512Y-121458857D01*
X143078882Y-121355329D01*
X143399818Y-122553077D01*
G37*
X143882781Y-122423667D02*
X143496411Y-122527195D01*
X143175475Y-121329447D01*
X143561846Y-121225920D01*
X143882781Y-122423667D01*
G36*
X143882781Y-122423667D02*
G01*
X143496411Y-122527195D01*
X143175475Y-121329447D01*
X143561846Y-121225920D01*
X143882781Y-122423667D01*
G37*
X144365744Y-122294258D02*
X143979372Y-122397785D01*
X143658438Y-121200038D01*
X144044809Y-121096509D01*
X144365744Y-122294258D01*
G36*
X144365744Y-122294258D02*
G01*
X143979372Y-122397785D01*
X143658438Y-121200038D01*
X144044809Y-121096509D01*
X144365744Y-122294258D01*
G37*
X144848706Y-122164849D02*
X144462337Y-122268376D01*
X144141401Y-121070628D01*
X144527772Y-120967101D01*
X144848706Y-122164849D01*
G36*
X144848706Y-122164849D02*
G01*
X144462337Y-122268376D01*
X144141401Y-121070628D01*
X144527772Y-120967101D01*
X144848706Y-122164849D01*
G37*
X145331670Y-122035439D02*
X144945300Y-122138966D01*
X144624365Y-120941218D01*
X145010734Y-120837691D01*
X145331670Y-122035439D01*
G36*
X145331670Y-122035439D02*
G01*
X144945300Y-122138966D01*
X144624365Y-120941218D01*
X145010734Y-120837691D01*
X145331670Y-122035439D01*
G37*
X145814633Y-121906029D02*
X145428263Y-122009557D01*
X145107326Y-120811809D01*
X145493697Y-120708282D01*
X145814633Y-121906029D01*
G36*
X145814633Y-121906029D02*
G01*
X145428263Y-122009557D01*
X145107326Y-120811809D01*
X145493697Y-120708282D01*
X145814633Y-121906029D01*
G37*
X146587374Y-121698974D02*
X145911225Y-121880147D01*
X145590289Y-120682400D01*
X146266438Y-120501226D01*
X146587374Y-121698974D01*
G36*
X146587374Y-121698974D02*
G01*
X145911225Y-121880147D01*
X145590289Y-120682400D01*
X146266438Y-120501226D01*
X146587374Y-121698974D01*
G37*
X147360114Y-121491919D02*
X146683966Y-121673092D01*
X146363030Y-120475344D01*
X147039178Y-120294171D01*
X147360114Y-121491919D01*
G36*
X147360114Y-121491919D02*
G01*
X146683966Y-121673092D01*
X146363030Y-120475344D01*
X147039178Y-120294171D01*
X147360114Y-121491919D01*
G37*
%TD*%
D11*
%TO.C,OL101*%
X135156269Y-107354968D03*
%TD*%
D12*
%TO.C,IC102*%
X156400000Y-86300000D03*
X156400000Y-87570000D03*
X156400000Y-88840000D03*
X156400000Y-90110000D03*
X161800000Y-90110000D03*
X161800000Y-88840000D03*
X161800000Y-87570000D03*
X161800000Y-86300000D03*
%TD*%
%TO.C,IC101*%
X172250000Y-86295000D03*
X172250000Y-87565000D03*
X172250000Y-88835000D03*
X172250000Y-90105000D03*
X177650000Y-90105000D03*
X177650000Y-88835000D03*
X177650000Y-87565000D03*
X177650000Y-86295000D03*
%TD*%
D13*
%TO.C,R107*%
X182910001Y-85900000D03*
X181890001Y-85900000D03*
%TD*%
D14*
%TO.C,R101*%
X179200000Y-87690000D03*
X179200000Y-88710000D03*
%TD*%
D15*
%TO.C,D103*%
X161185001Y-100900000D03*
X160215001Y-100900000D03*
%TD*%
D16*
%TO.C,C121*%
X136739411Y-95460589D03*
X136060589Y-96139411D03*
%TD*%
D17*
%TO.C,C102*%
X154800000Y-88680001D03*
X154800000Y-87720001D03*
%TD*%
D13*
%TO.C,FB101*%
X134009999Y-95000001D03*
X132990001Y-95000001D03*
%TD*%
D18*
%TO.C,R114*%
X141292622Y-121068002D03*
X140307378Y-121331998D03*
%TD*%
D16*
%TO.C,C118*%
X136039411Y-94760589D03*
X135360589Y-95439411D03*
%TD*%
D19*
%TO.C,D104*%
X152766726Y-122666727D03*
X150433274Y-120333275D03*
%TD*%
D20*
%TO.C,R115*%
X145507378Y-119931998D03*
X146492622Y-119668002D03*
%TD*%
D21*
%TO.C,S101*%
X118140499Y-119631523D03*
X121734504Y-121706523D03*
X117065498Y-121493477D03*
X120659503Y-123568477D03*
%TD*%
D22*
%TO.C,U101*%
X145682646Y-89697363D03*
X145329091Y-90050918D03*
X144975538Y-90404470D03*
X144621986Y-90758023D03*
X144268431Y-91111577D03*
X143914879Y-91465130D03*
X143561324Y-91818685D03*
X143207771Y-92172237D03*
X142854219Y-92525790D03*
X142500664Y-92879344D03*
X142147112Y-93232897D03*
X141793559Y-93586449D03*
X141440004Y-93940004D03*
X141086452Y-94293557D03*
X140732897Y-94647112D03*
X140379344Y-95000664D03*
X140025791Y-95354217D03*
X139672237Y-95707771D03*
X139318685Y-96061324D03*
X138965130Y-96414879D03*
X138611577Y-96768431D03*
X138258024Y-97121984D03*
X137904470Y-97475538D03*
X137550918Y-97829091D03*
X137197363Y-98182646D03*
D23*
X137197363Y-100617354D03*
X137550918Y-100970909D03*
X137904470Y-101324462D03*
X138258023Y-101678014D03*
X138611577Y-102031569D03*
X138965130Y-102385121D03*
X139318685Y-102738676D03*
X139672237Y-103092229D03*
X140025790Y-103445781D03*
X140379344Y-103799336D03*
X140732897Y-104152888D03*
X141086452Y-104506443D03*
X141440004Y-104859996D03*
X141793557Y-105213548D03*
X142147112Y-105567103D03*
X142500664Y-105920656D03*
X142854219Y-106274210D03*
X143207771Y-106627763D03*
X143561324Y-106981315D03*
X143914879Y-107334870D03*
X144268431Y-107688423D03*
X144621986Y-108041977D03*
X144975538Y-108395530D03*
X145329091Y-108749082D03*
X145682646Y-109102637D03*
D22*
X148117354Y-109102637D03*
X148470909Y-108749082D03*
X148824462Y-108395530D03*
X149178014Y-108041977D03*
X149531569Y-107688423D03*
X149885121Y-107334870D03*
X150238676Y-106981315D03*
X150592229Y-106627763D03*
X150945781Y-106274210D03*
X151299336Y-105920656D03*
X151652888Y-105567103D03*
X152006443Y-105213548D03*
X152359996Y-104859996D03*
X152713548Y-104506443D03*
X153067103Y-104152888D03*
X153420656Y-103799336D03*
X153774210Y-103445781D03*
X154127763Y-103092229D03*
X154481315Y-102738676D03*
X154834870Y-102385121D03*
X155188423Y-102031569D03*
X155541977Y-101678014D03*
X155895530Y-101324462D03*
X156249082Y-100970909D03*
X156602637Y-100617354D03*
D23*
X156602637Y-98182646D03*
X156249082Y-97829091D03*
X155895530Y-97475538D03*
X155541977Y-97121986D03*
X155188423Y-96768431D03*
X154834870Y-96414879D03*
X154481315Y-96061324D03*
X154127763Y-95707771D03*
X153774210Y-95354219D03*
X153420656Y-95000664D03*
X153067103Y-94647112D03*
X152713548Y-94293557D03*
X152359996Y-93940004D03*
X152006443Y-93586452D03*
X151652888Y-93232897D03*
X151299336Y-92879344D03*
X150945781Y-92525790D03*
X150592229Y-92172237D03*
X150238676Y-91818685D03*
X149885121Y-91465130D03*
X149531569Y-91111577D03*
X149178014Y-90758023D03*
X148824462Y-90404470D03*
X148470909Y-90050918D03*
X148117354Y-89697363D03*
%TD*%
D24*
%TO.C,C120*%
X143260589Y-110360589D03*
X143939411Y-111039411D03*
%TD*%
D25*
%TO.C,X101*%
X132150001Y-93525000D03*
X134250001Y-93525000D03*
X134250001Y-91875000D03*
X132150001Y-91875000D03*
%TD*%
D26*
%TO.C,J101*%
X183753446Y-89887330D03*
X184637330Y-89003446D03*
D27*
X188208219Y-89958040D03*
X184708040Y-93458219D03*
%TD*%
D28*
%TO.C,R111*%
X160190001Y-95700001D03*
X161210001Y-95700001D03*
%TD*%
%TO.C,R112*%
X160190001Y-97800000D03*
X161210001Y-97800000D03*
%TD*%
D29*
%TO.C,R104*%
X151739377Y-108760624D03*
X152460625Y-108039376D03*
%TD*%
D28*
%TO.C,R106*%
X132490000Y-115300000D03*
X133510000Y-115300000D03*
%TD*%
D30*
%TO.C,J108*%
X141256020Y-123593380D03*
X146839072Y-122097406D03*
D31*
X139743095Y-123491482D03*
X148098354Y-121252697D03*
D32*
X140822371Y-127519392D03*
X149177629Y-125280608D03*
%TD*%
D33*
%TO.C,C124*%
X137360589Y-94839412D03*
X138039411Y-94160590D03*
%TD*%
D34*
%TO.C,U106*%
X129739282Y-102250002D03*
X129739282Y-101750001D03*
X129739282Y-101250001D03*
X129739282Y-100750000D03*
D35*
X129032781Y-100547501D03*
X128532782Y-100547501D03*
X128032783Y-100547501D03*
D34*
X127326282Y-100750000D03*
X127326282Y-101250001D03*
X127326282Y-101750001D03*
X127326282Y-102250002D03*
D35*
X128032783Y-102452501D03*
X128532782Y-102452501D03*
X129032781Y-102452501D03*
%TD*%
D26*
%TO.C,J103*%
X171025524Y-102615252D03*
X171909408Y-101731368D03*
D27*
X175480297Y-102685962D03*
X171980118Y-106186141D03*
%TD*%
D17*
%TO.C,C104*%
X170700000Y-88680000D03*
X170700000Y-87720000D03*
%TD*%
D33*
%TO.C,C117*%
X142105817Y-89627784D03*
X142784639Y-88948962D03*
%TD*%
%TO.C,C116*%
X142812923Y-90334891D03*
X143491745Y-89656069D03*
%TD*%
D16*
%TO.C,C112*%
X158239411Y-101460589D03*
X157560589Y-102139411D03*
%TD*%
D17*
%TO.C,C136*%
X121400000Y-116280000D03*
X121400000Y-115320000D03*
%TD*%
D36*
%TO.C,C110*%
X132720000Y-90400000D03*
X133680000Y-90400000D03*
%TD*%
D33*
%TO.C,C123*%
X157860589Y-103239411D03*
X158539411Y-102560589D03*
%TD*%
D37*
%TO.C,J112*%
X140000001Y-82540001D03*
D38*
X140000001Y-80000001D03*
X142540001Y-82540001D03*
X142540001Y-80000001D03*
X145080001Y-82540001D03*
X145080001Y-80000001D03*
X147620001Y-82540001D03*
X147620001Y-80000002D03*
X150160000Y-82540001D03*
X150160001Y-80000001D03*
X152700001Y-82540001D03*
X152700001Y-80000001D03*
X155240001Y-82540001D03*
X155240001Y-80000001D03*
X157780001Y-82540001D03*
X157780001Y-80000001D03*
X160320001Y-82540001D03*
X160320001Y-80000001D03*
X162860001Y-82540001D03*
X162860001Y-80000001D03*
X165400001Y-82540001D03*
X165400001Y-80000001D03*
X167940001Y-82540001D03*
X167940001Y-80000001D03*
X170480001Y-82540001D03*
X170480001Y-80000001D03*
X173020001Y-82540001D03*
X173020001Y-80000001D03*
X175560001Y-82540001D03*
X175560001Y-80000001D03*
X178100001Y-82540001D03*
X178100001Y-80000001D03*
X180640001Y-82540001D03*
X180640001Y-80000001D03*
X183180001Y-82540001D03*
X183180001Y-80000001D03*
X185720001Y-82540001D03*
X185720001Y-80000001D03*
X188260001Y-82540001D03*
X188260001Y-80000001D03*
%TD*%
D13*
%TO.C,R108*%
X180910000Y-85900001D03*
X179890000Y-85900001D03*
%TD*%
D33*
%TO.C,C126*%
X136660589Y-94139411D03*
X137339411Y-93460589D03*
%TD*%
D36*
%TO.C,C105*%
X123420000Y-119500000D03*
X124380000Y-119500000D03*
%TD*%
D21*
%TO.C,S102*%
X126440499Y-124431523D03*
X130034504Y-126506523D03*
X125365498Y-126293477D03*
X128959503Y-128368477D03*
%TD*%
D26*
%TO.C,J102*%
X177389485Y-96251291D03*
X178273369Y-95367407D03*
D27*
X181844258Y-96322001D03*
X178344079Y-99822180D03*
%TD*%
D28*
%TO.C,R113*%
X160190001Y-99900000D03*
X161210001Y-99900000D03*
%TD*%
D39*
%TO.C,U105*%
X150337501Y-116450000D03*
X150337501Y-115500000D03*
X150337501Y-114550000D03*
X148062501Y-114550000D03*
X148062501Y-115500000D03*
X148062501Y-116450000D03*
%TD*%
D40*
%TO.C,U107*%
X122937500Y-114250000D03*
X122937500Y-114750000D03*
X122937500Y-115250000D03*
X122937500Y-115750000D03*
D41*
X123450000Y-115762500D03*
X123950000Y-115762500D03*
D40*
X124462500Y-115750000D03*
X124462500Y-115250000D03*
X124462500Y-114750000D03*
X124462500Y-114250000D03*
D41*
X123950000Y-114237500D03*
X123450000Y-114237500D03*
%TD*%
D15*
%TO.C,D101*%
X161185001Y-96700000D03*
X160215001Y-96700000D03*
%TD*%
D17*
%TO.C,C114*%
X134500000Y-101380000D03*
X134500000Y-100420000D03*
%TD*%
D25*
%TO.C,X102*%
X134650000Y-88925000D03*
X136750000Y-88925000D03*
X136750000Y-87275000D03*
X134650000Y-87275000D03*
%TD*%
D42*
%TO.C,U102*%
X134500001Y-117700000D03*
D43*
X134000001Y-117300000D03*
D42*
X134500001Y-116900000D03*
X133500001Y-116900000D03*
X133500001Y-117700000D03*
%TD*%
D44*
%TO.C,C134*%
X129961981Y-99400000D03*
X129001981Y-99400000D03*
%TD*%
D26*
%TO.C,J104*%
X164653446Y-108937330D03*
X165537330Y-108053446D03*
D27*
X169108219Y-109008040D03*
X165608040Y-112508219D03*
%TD*%
D33*
%TO.C,C113*%
X140868380Y-92279435D03*
X141547202Y-91600613D03*
%TD*%
D45*
%TO.C,J110*%
X154137258Y-119946625D03*
D46*
X153239232Y-119048599D03*
X155035284Y-119048599D03*
X154137258Y-118150574D03*
X155933309Y-118150574D03*
X155035284Y-117252548D03*
X156831335Y-117252548D03*
X155933309Y-116354523D03*
X157729360Y-116354523D03*
X156831335Y-115456497D03*
X158627386Y-115456497D03*
X157729360Y-114558471D03*
X159525412Y-114558471D03*
X158627386Y-113660446D03*
%TD*%
D17*
%TO.C,C103*%
X163300001Y-90780001D03*
X163300001Y-89820001D03*
%TD*%
D36*
%TO.C,C109*%
X135220001Y-85800000D03*
X136180001Y-85800000D03*
%TD*%
D47*
%TO.C,R109*%
X153860624Y-106647947D03*
X153139376Y-107369195D03*
%TD*%
D24*
%TO.C,C111*%
X148860590Y-88160590D03*
X149539412Y-88839412D03*
%TD*%
D28*
%TO.C,R103*%
X132490000Y-114300000D03*
X133510000Y-114300000D03*
%TD*%
D33*
%TO.C,C119*%
X140160590Y-91539411D03*
X140839412Y-90860589D03*
%TD*%
D39*
%TO.C,U103*%
X144237500Y-116450000D03*
X144237500Y-115500000D03*
X144237500Y-114550000D03*
X141962500Y-114550000D03*
X141962500Y-115500000D03*
X141962500Y-116450000D03*
%TD*%
D14*
%TO.C,R102*%
X163300000Y-87690000D03*
X163300000Y-88710000D03*
%TD*%
D44*
%TO.C,C137*%
X123280000Y-117200000D03*
X122320000Y-117200000D03*
%TD*%
D36*
%TO.C,C101*%
X177620000Y-91500001D03*
X178580000Y-91500001D03*
%TD*%
D48*
%TO.C,R105*%
X133230000Y-124260000D03*
X133230000Y-123240000D03*
%TD*%
D17*
%TO.C,C106*%
X132200000Y-124260000D03*
X132200000Y-123300000D03*
%TD*%
D36*
%TO.C,C138*%
X124220000Y-117200000D03*
X125180000Y-117200000D03*
%TD*%
D49*
%TO.C,C115*%
X131600000Y-116220001D03*
X131600000Y-117180001D03*
%TD*%
D15*
%TO.C,D102*%
X161185001Y-98800000D03*
X160215001Y-98800000D03*
%TD*%
D36*
%TO.C,C133*%
X127101981Y-99400000D03*
X128061981Y-99400000D03*
%TD*%
D50*
%TO.C,C122*%
X144941315Y-110593500D03*
X144262493Y-109914678D03*
%TD*%
M02*
