%TF.GenerationSoftware,KiCad,Pcbnew,8.0.0*%
%TF.CreationDate,2024-03-25T03:31:57+00:00*%
%TF.ProjectId,main_PCB_v2,6d61696e-5f50-4434-925f-76322e6b6963,rev?*%
%TF.SameCoordinates,Original*%
%TF.FileFunction,Drillmap*%
%TF.FilePolarity,Positive*%
%FSLAX45Y45*%
G04 Gerber Fmt 4.5, Leading zero omitted, Abs format (unit mm)*
G04 Created by KiCad (PCBNEW 8.0.0) date 2024-03-25 03:31:57*
%MOMM*%
%LPD*%
G01*
G04 APERTURE LIST*
%ADD10C,0.350000*%
%ADD11C,0.200000*%
%ADD12C,0.100000*%
G04 APERTURE END LIST*
D10*
X11394036Y-11925982D02*
X13685251Y-7801794D01*
X11510586Y-12333920D02*
X12844754Y-13075124D01*
X15480477Y-12501572D02*
X19091061Y-8890987D01*
X18878505Y-7647494D02*
X13947485Y-7647494D01*
X19178506Y-7949283D02*
X19178506Y-8679280D01*
X11510586Y-12333920D02*
G75*
G02*
X11394036Y-11925982I145695J262244D01*
G01*
X13011224Y-13112156D02*
G75*
G02*
X12844754Y-13075124I-20779J299276D01*
G01*
X13685251Y-7801794D02*
G75*
G02*
X13947485Y-7647494I262235J-145686D01*
G01*
X15380297Y-12567767D02*
G75*
G02*
X13011224Y-13112156I-2908972J7232211D01*
G01*
X15480477Y-12501572D02*
G75*
G02*
X15380297Y-12567766I-212127J212132D01*
G01*
X18878505Y-7647494D02*
G75*
G02*
X19178510Y-7949283I-5J-300016D01*
G01*
X19178506Y-8679280D02*
G75*
G02*
X19091060Y-8890986I-299996J0D01*
G01*
D11*
D12*
X11775000Y-12185000D02*
X11805000Y-12215000D01*
X11805000Y-12185000D02*
X11775000Y-12215000D01*
X12205000Y-11515000D02*
X12235000Y-11545000D01*
X12235000Y-11515000D02*
X12205000Y-11545000D01*
X12215000Y-11775000D02*
X12245000Y-11805000D01*
X12245000Y-11775000D02*
X12215000Y-11805000D01*
X12215000Y-12045000D02*
X12245000Y-12075000D01*
X12245000Y-12045000D02*
X12215000Y-12075000D01*
X12315000Y-11775000D02*
X12345000Y-11805000D01*
X12345000Y-11775000D02*
X12315000Y-11805000D01*
X12355000Y-11485000D02*
X12385000Y-11515000D01*
X12385000Y-11485000D02*
X12355000Y-11515000D01*
X12405000Y-11775000D02*
X12435000Y-11805000D01*
X12435000Y-11775000D02*
X12405000Y-11805000D01*
X12465000Y-11325000D02*
X12495000Y-11355000D01*
X12495000Y-11325000D02*
X12465000Y-11355000D01*
X12475000Y-11115000D02*
X12505000Y-11145000D01*
X12505000Y-11115000D02*
X12475000Y-11145000D01*
X12505000Y-11775000D02*
X12535000Y-11805000D01*
X12535000Y-11775000D02*
X12505000Y-11805000D01*
X12545000Y-11505000D02*
X12575000Y-11535000D01*
X12575000Y-11505000D02*
X12545000Y-11535000D01*
X12545000Y-11595000D02*
X12575000Y-11625000D01*
X12575000Y-11595000D02*
X12545000Y-11625000D01*
X12615000Y-12665000D02*
X12645000Y-12695000D01*
X12645000Y-12665000D02*
X12615000Y-12695000D01*
X12735000Y-9855000D02*
X12765000Y-9885000D01*
X12765000Y-9855000D02*
X12735000Y-9885000D01*
X12783198Y-10405000D02*
X12813198Y-10435000D01*
X12813198Y-10405000D02*
X12783198Y-10435000D01*
X12815000Y-9855000D02*
X12845000Y-9885000D01*
X12845000Y-9855000D02*
X12815000Y-9885000D01*
X12845000Y-10135000D02*
X12875000Y-10165000D01*
X12875000Y-10135000D02*
X12845000Y-10165000D01*
X12883198Y-10405000D02*
X12913198Y-10435000D01*
X12913198Y-10405000D02*
X12883198Y-10435000D01*
X12895000Y-9855000D02*
X12925000Y-9885000D01*
X12925000Y-9855000D02*
X12895000Y-9885000D01*
X12985000Y-9855000D02*
X13015000Y-9885000D01*
X13015000Y-9855000D02*
X12985000Y-9885000D01*
X13063198Y-10225000D02*
X13093198Y-10255000D01*
X13093198Y-10225000D02*
X13063198Y-10255000D01*
X13113198Y-10165000D02*
X13143198Y-10195000D01*
X13143198Y-10165000D02*
X13113198Y-10195000D01*
X13205000Y-9075000D02*
X13235000Y-9105000D01*
X13235000Y-9075000D02*
X13205000Y-9105000D01*
X13205000Y-12245000D02*
X13235000Y-12275000D01*
X13235000Y-12245000D02*
X13205000Y-12275000D01*
X13215000Y-9485000D02*
X13245000Y-9515000D01*
X13245000Y-9485000D02*
X13215000Y-9515000D01*
X13235000Y-11595000D02*
X13265000Y-11625000D01*
X13265000Y-11595000D02*
X13235000Y-11625000D01*
X13265000Y-11715000D02*
X13295000Y-11745000D01*
X13295000Y-11715000D02*
X13265000Y-11745000D01*
X13305000Y-12245000D02*
X13335000Y-12275000D01*
X13335000Y-12245000D02*
X13305000Y-12275000D01*
X13335000Y-11595000D02*
X13365000Y-11625000D01*
X13365000Y-11595000D02*
X13335000Y-11625000D01*
X13455000Y-8615000D02*
X13485000Y-8645000D01*
X13485000Y-8615000D02*
X13455000Y-8645000D01*
X13505000Y-11755000D02*
X13535000Y-11785000D01*
X13535000Y-11755000D02*
X13505000Y-11785000D01*
X13515000Y-9335000D02*
X13545000Y-9365000D01*
X13545000Y-9335000D02*
X13515000Y-9365000D01*
X13575000Y-10046736D02*
X13605000Y-10076736D01*
X13605000Y-10046736D02*
X13575000Y-10076736D01*
X13575000Y-10135000D02*
X13605000Y-10165000D01*
X13605000Y-10135000D02*
X13575000Y-10165000D01*
X13605000Y-11325000D02*
X13635000Y-11355000D01*
X13635000Y-11325000D02*
X13605000Y-11355000D01*
X13641396Y-11595000D02*
X13671396Y-11625000D01*
X13671396Y-11595000D02*
X13641396Y-11625000D01*
X13695000Y-9615000D02*
X13725000Y-9645000D01*
X13725000Y-9615000D02*
X13695000Y-9645000D01*
X13725000Y-11855000D02*
X13755000Y-11885000D01*
X13755000Y-11855000D02*
X13725000Y-11885000D01*
X13765000Y-8875000D02*
X13795000Y-8905000D01*
X13795000Y-8875000D02*
X13765000Y-8905000D01*
X13785000Y-11195000D02*
X13815000Y-11225000D01*
X13815000Y-11195000D02*
X13785000Y-11225000D01*
X13835000Y-11515000D02*
X13865000Y-11545000D01*
X13865000Y-11515000D02*
X13835000Y-11545000D01*
X13835000Y-9475000D02*
X13865000Y-9505000D01*
X13865000Y-9475000D02*
X13835000Y-9505000D01*
X13925000Y-9335000D02*
X13955000Y-9365000D01*
X13955000Y-9335000D02*
X13925000Y-9365000D01*
X13951647Y-12135373D02*
X13981647Y-12165373D01*
X13981647Y-12135373D02*
X13951647Y-12165373D01*
X13955000Y-9095000D02*
X13985000Y-9125000D01*
X13985000Y-9095000D02*
X13955000Y-9125000D01*
X13975000Y-10695000D02*
X14005000Y-10725000D01*
X14005000Y-10695000D02*
X13975000Y-10725000D01*
X13998180Y-12052673D02*
X14028180Y-12082673D01*
X14028180Y-12052673D02*
X13998180Y-12082673D01*
X14015000Y-9025000D02*
X14045000Y-9055000D01*
X14045000Y-9025000D02*
X14015000Y-9055000D01*
X14075000Y-11535000D02*
X14105000Y-11565000D01*
X14105000Y-11535000D02*
X14075000Y-11565000D01*
X14075000Y-11625000D02*
X14105000Y-11655000D01*
X14105000Y-11625000D02*
X14075000Y-11655000D01*
X14145000Y-8895000D02*
X14175000Y-8925000D01*
X14175000Y-8895000D02*
X14145000Y-8925000D01*
X14211740Y-12333314D02*
X14241740Y-12363314D01*
X14241740Y-12333314D02*
X14211740Y-12363314D01*
X14215000Y-10385000D02*
X14245000Y-10415000D01*
X14245000Y-10385000D02*
X14215000Y-10415000D01*
X14215000Y-8835000D02*
X14245000Y-8865000D01*
X14245000Y-8835000D02*
X14215000Y-8865000D01*
X14268414Y-9398205D02*
X14298414Y-9428205D01*
X14298414Y-9398205D02*
X14268414Y-9428205D01*
X14286421Y-10455000D02*
X14316421Y-10485000D01*
X14316421Y-10455000D02*
X14286421Y-10485000D01*
X14295000Y-11440000D02*
X14325000Y-11470000D01*
X14325000Y-11440000D02*
X14295000Y-11470000D01*
X14324982Y-9341637D02*
X14354982Y-9371637D01*
X14354982Y-9341637D02*
X14324982Y-9371637D01*
X14395000Y-8685000D02*
X14425000Y-8715000D01*
X14425000Y-8685000D02*
X14395000Y-8715000D01*
X14425000Y-11135000D02*
X14455000Y-11165000D01*
X14455000Y-11135000D02*
X14425000Y-11165000D01*
X14455000Y-10639975D02*
X14485000Y-10669975D01*
X14485000Y-10639975D02*
X14455000Y-10669975D01*
X14515000Y-11535000D02*
X14545000Y-11565000D01*
X14545000Y-11535000D02*
X14515000Y-11565000D01*
X14515000Y-11635000D02*
X14545000Y-11665000D01*
X14545000Y-11635000D02*
X14515000Y-11665000D01*
X14525000Y-11095000D02*
X14555000Y-11125000D01*
X14555000Y-11095000D02*
X14525000Y-11125000D01*
X14535000Y-9695000D02*
X14565000Y-9725000D01*
X14565000Y-9695000D02*
X14535000Y-9725000D01*
X14545000Y-9785000D02*
X14575000Y-9815000D01*
X14575000Y-9785000D02*
X14545000Y-9815000D01*
X14545000Y-9975000D02*
X14575000Y-10005000D01*
X14575000Y-9975000D02*
X14545000Y-10005000D01*
X14555000Y-9885000D02*
X14585000Y-9915000D01*
X14585000Y-9885000D02*
X14555000Y-9915000D01*
X14616737Y-11886397D02*
X14646737Y-11916397D01*
X14646737Y-11886397D02*
X14616737Y-11916397D01*
X14635000Y-8655000D02*
X14665000Y-8685000D01*
X14665000Y-8655000D02*
X14635000Y-8685000D01*
X14635000Y-8785000D02*
X14665000Y-8815000D01*
X14665000Y-8785000D02*
X14635000Y-8815000D01*
X14675000Y-11535000D02*
X14705000Y-11565000D01*
X14705000Y-11535000D02*
X14675000Y-11565000D01*
X14695243Y-11935460D02*
X14725243Y-11965460D01*
X14725243Y-11935460D02*
X14695243Y-11965460D01*
X14710355Y-9026975D02*
X14740355Y-9056975D01*
X14740355Y-9026975D02*
X14710355Y-9056975D01*
X14725000Y-11145000D02*
X14755000Y-11175000D01*
X14755000Y-11145000D02*
X14725000Y-11175000D01*
X14763388Y-9080008D02*
X14793388Y-9110008D01*
X14793388Y-9080008D02*
X14763388Y-9110008D01*
X14825000Y-11245000D02*
X14855000Y-11275000D01*
X14855000Y-11245000D02*
X14825000Y-11275000D01*
X14875000Y-9415000D02*
X14905000Y-9445000D01*
X14905000Y-9415000D02*
X14875000Y-9445000D01*
X14905000Y-11450000D02*
X14935000Y-11480000D01*
X14935000Y-11450000D02*
X14905000Y-11480000D01*
X14915000Y-9765000D02*
X14945000Y-9795000D01*
X14945000Y-9765000D02*
X14915000Y-9795000D01*
X14940000Y-9850000D02*
X14970000Y-9880000D01*
X14970000Y-9850000D02*
X14940000Y-9880000D01*
X14955000Y-9435000D02*
X14985000Y-9465000D01*
X14985000Y-9435000D02*
X14955000Y-9465000D01*
X14975000Y-9515000D02*
X15005000Y-9545000D01*
X15005000Y-9515000D02*
X14975000Y-9545000D01*
X14995000Y-8915000D02*
X15025000Y-8945000D01*
X15025000Y-8915000D02*
X14995000Y-8945000D01*
X14995000Y-8575000D02*
X15025000Y-8605000D01*
X15025000Y-8575000D02*
X14995000Y-8605000D01*
X15050000Y-9860000D02*
X15080000Y-9890000D01*
X15080000Y-9860000D02*
X15050000Y-9890000D01*
X15065000Y-8985000D02*
X15095000Y-9015000D01*
X15095000Y-8985000D02*
X15065000Y-9015000D01*
X15095000Y-10795000D02*
X15125000Y-10825000D01*
X15125000Y-10795000D02*
X15095000Y-10825000D01*
X15125000Y-11535000D02*
X15155000Y-11565000D01*
X15155000Y-11535000D02*
X15125000Y-11565000D01*
X15200000Y-9830000D02*
X15230000Y-9860000D01*
X15230000Y-9830000D02*
X15200000Y-9860000D01*
X15305000Y-10585000D02*
X15335000Y-10615000D01*
X15335000Y-10585000D02*
X15305000Y-10615000D01*
X15345000Y-12335000D02*
X15375000Y-12365000D01*
X15375000Y-12335000D02*
X15345000Y-12365000D01*
X15365000Y-10135000D02*
X15395000Y-10165000D01*
X15395000Y-10135000D02*
X15365000Y-10165000D01*
X15425000Y-10075000D02*
X15455000Y-10105000D01*
X15455000Y-10075000D02*
X15425000Y-10105000D01*
X15505000Y-8995000D02*
X15535000Y-9025000D01*
X15535000Y-8995000D02*
X15505000Y-9025000D01*
X15505000Y-8615000D02*
X15535000Y-8645000D01*
X15535000Y-8615000D02*
X15505000Y-8645000D01*
X15519993Y-10013388D02*
X15549993Y-10043388D01*
X15549993Y-10013388D02*
X15519993Y-10043388D01*
X15565000Y-9885000D02*
X15595000Y-9915000D01*
X15595000Y-9885000D02*
X15565000Y-9915000D01*
X15576561Y-9956820D02*
X15606561Y-9986820D01*
X15606561Y-9956820D02*
X15576561Y-9986820D01*
X15665000Y-10295000D02*
X15695000Y-10325000D01*
X15695000Y-10295000D02*
X15665000Y-10325000D01*
X15745000Y-8745000D02*
X15775000Y-8775000D01*
X15775000Y-8745000D02*
X15745000Y-8775000D01*
X15895000Y-8495000D02*
X15925000Y-8525000D01*
X15925000Y-8495000D02*
X15895000Y-8525000D01*
X15895000Y-9655000D02*
X15925000Y-9685000D01*
X15925000Y-9655000D02*
X15895000Y-9685000D01*
X15925000Y-10405000D02*
X15955000Y-10435000D01*
X15955000Y-10405000D02*
X15925000Y-10435000D01*
X15925000Y-10625000D02*
X15955000Y-10655000D01*
X15955000Y-10625000D02*
X15925000Y-10655000D01*
X15935000Y-9975000D02*
X15965000Y-10005000D01*
X15965000Y-9975000D02*
X15935000Y-10005000D01*
X15985000Y-8495000D02*
X16015000Y-8525000D01*
X16015000Y-8495000D02*
X15985000Y-8525000D01*
X16005000Y-9475000D02*
X16035000Y-9505000D01*
X16035000Y-9475000D02*
X16005000Y-9505000D01*
X16025000Y-10405000D02*
X16055000Y-10435000D01*
X16055000Y-10405000D02*
X16025000Y-10435000D01*
X16025000Y-10625000D02*
X16055000Y-10655000D01*
X16055000Y-10625000D02*
X16025000Y-10655000D01*
X16045000Y-8995000D02*
X16075000Y-9025000D01*
X16075000Y-8995000D02*
X16045000Y-9025000D01*
X16115000Y-8495000D02*
X16145000Y-8525000D01*
X16145000Y-8495000D02*
X16115000Y-8525000D01*
X16385000Y-8965000D02*
X16415000Y-8995000D01*
X16415000Y-8965000D02*
X16385000Y-8995000D01*
X16525000Y-8785000D02*
X16555000Y-8815000D01*
X16555000Y-8785000D02*
X16525000Y-8815000D01*
X16525000Y-9385000D02*
X16555000Y-9415000D01*
X16555000Y-9385000D02*
X16525000Y-9415000D01*
X16545804Y-11235822D02*
X16575804Y-11265822D01*
X16575804Y-11235822D02*
X16545804Y-11265822D01*
X16595000Y-9385000D02*
X16625000Y-9415000D01*
X16625000Y-9385000D02*
X16595000Y-9415000D01*
X16779000Y-9085000D02*
X16809000Y-9115000D01*
X16809000Y-9085000D02*
X16779000Y-9115000D01*
X16895000Y-10885000D02*
X16925000Y-10915000D01*
X16925000Y-10885000D02*
X16895000Y-10915000D01*
X17185000Y-10605000D02*
X17215000Y-10635000D01*
X17215000Y-10605000D02*
X17185000Y-10635000D01*
X17325000Y-8745000D02*
X17355000Y-8775000D01*
X17355000Y-8745000D02*
X17325000Y-8775000D01*
X17325000Y-8865000D02*
X17355000Y-8895000D01*
X17355000Y-8865000D02*
X17325000Y-8895000D01*
X17525000Y-10255000D02*
X17555000Y-10285000D01*
X17555000Y-10255000D02*
X17525000Y-10285000D01*
X17745000Y-9065000D02*
X17775000Y-9095000D01*
X17775000Y-9065000D02*
X17745000Y-9095000D01*
X17815000Y-9965000D02*
X17845000Y-9995000D01*
X17845000Y-9965000D02*
X17815000Y-9995000D01*
X17845000Y-9065000D02*
X17875000Y-9095000D01*
X17875000Y-9065000D02*
X17845000Y-9095000D01*
X17905000Y-8575000D02*
X17935000Y-8605000D01*
X17935000Y-8575000D02*
X17905000Y-8605000D01*
X18075000Y-8495000D02*
X18105000Y-8525000D01*
X18105000Y-8495000D02*
X18075000Y-8525000D01*
X18085000Y-8675000D02*
X18115000Y-8705000D01*
X18115000Y-8675000D02*
X18085000Y-8705000D01*
X18165000Y-9615000D02*
X18195000Y-9645000D01*
X18195000Y-9615000D02*
X18165000Y-9645000D01*
X18455000Y-9325000D02*
X18485000Y-9355000D01*
X18485000Y-9325000D02*
X18455000Y-9355000D01*
X18805000Y-8975000D02*
X18835000Y-9005000D01*
X18835000Y-8975000D02*
X18805000Y-9005000D01*
X14004309Y-12349148D02*
G75*
G02*
X13944309Y-12349148I-30000J0D01*
G01*
X13944309Y-12349148D02*
G75*
G02*
X14004309Y-12349148I30000J0D01*
G01*
X13931097Y-12303787D02*
X13959567Y-12410039D01*
X14017522Y-12394509D02*
G75*
G02*
X13959567Y-12410039I-28978J-7765D01*
G01*
X14017522Y-12394509D02*
X13989052Y-12288258D01*
X13989052Y-12288258D02*
G75*
G03*
X13931097Y-12303787I-28978J-7765D01*
G01*
X14112237Y-12751939D02*
G75*
G02*
X14052237Y-12751939I-30000J0D01*
G01*
X14052237Y-12751939D02*
G75*
G02*
X14112237Y-12751939I30000J0D01*
G01*
X14042907Y-12721067D02*
X14063612Y-12798341D01*
X14121568Y-12782812D02*
G75*
G02*
X14063612Y-12798341I-28978J-7765D01*
G01*
X14121568Y-12782812D02*
X14100862Y-12705538D01*
X14100862Y-12705538D02*
G75*
G03*
X14042906Y-12721067I-28978J-7765D01*
G01*
X14839835Y-12125270D02*
G75*
G02*
X14779835Y-12125270I-30000J0D01*
G01*
X14779835Y-12125270D02*
G75*
G02*
X14839835Y-12125270I30000J0D01*
G01*
X14766623Y-12079908D02*
X14795093Y-12186160D01*
X14853048Y-12170631D02*
G75*
G02*
X14795093Y-12186160I-28978J-7765D01*
G01*
X14853048Y-12170631D02*
X14824578Y-12064379D01*
X14824578Y-12064379D02*
G75*
G03*
X14766623Y-12079908I-28978J-7765D01*
G01*
X14947763Y-12528061D02*
G75*
G02*
X14887763Y-12528061I-30000J0D01*
G01*
X14887763Y-12528061D02*
G75*
G02*
X14947763Y-12528061I30000J0D01*
G01*
X14878432Y-12497188D02*
X14899138Y-12574462D01*
X14957093Y-12558933D02*
G75*
G02*
X14899138Y-12574462I-28978J-7765D01*
G01*
X14957093Y-12558933D02*
X14936388Y-12481659D01*
X14936388Y-12481659D02*
G75*
G03*
X14878432Y-12497188I-28978J-7765D01*
G01*
X15323923Y-11872360D02*
X15323923Y-11937360D01*
X15291423Y-11904860D02*
X15356423Y-11904860D01*
X15413726Y-11782557D02*
X15413726Y-11847557D01*
X15381226Y-11815057D02*
X15446226Y-11815057D01*
X15413726Y-11962162D02*
X15413726Y-12027162D01*
X15381226Y-11994662D02*
X15446226Y-11994662D01*
X15503528Y-11692755D02*
X15503528Y-11757755D01*
X15471028Y-11725255D02*
X15536028Y-11725255D01*
X15503528Y-11872360D02*
X15503528Y-11937360D01*
X15471028Y-11904860D02*
X15536028Y-11904860D01*
X15593331Y-11602952D02*
X15593331Y-11667952D01*
X15560831Y-11635452D02*
X15625831Y-11635452D01*
X15593331Y-11782557D02*
X15593331Y-11847557D01*
X15560831Y-11815057D02*
X15625831Y-11815057D01*
X15683133Y-11513150D02*
X15683133Y-11578150D01*
X15650633Y-11545650D02*
X15715633Y-11545650D01*
X15683133Y-11692755D02*
X15683133Y-11757755D01*
X15650633Y-11725255D02*
X15715633Y-11725255D01*
X15772936Y-11423347D02*
X15772936Y-11488347D01*
X15740436Y-11455847D02*
X15805436Y-11455847D01*
X15772936Y-11602952D02*
X15772936Y-11667952D01*
X15740436Y-11635452D02*
X15805436Y-11635452D01*
X15862739Y-11333545D02*
X15862739Y-11398545D01*
X15830239Y-11366045D02*
X15895239Y-11366045D01*
X15862739Y-11513150D02*
X15862739Y-11578150D01*
X15830239Y-11545650D02*
X15895239Y-11545650D01*
X15952541Y-11423347D02*
X15952541Y-11488347D01*
X15920041Y-11455847D02*
X15985041Y-11455847D01*
X14035356Y-8035356D02*
X14035356Y-7964644D01*
X13964644Y-7964644D01*
X13964644Y-8035356D01*
X14035356Y-8035356D01*
X14035356Y-8289356D02*
X14035356Y-8218644D01*
X13964644Y-8218644D01*
X13964644Y-8289356D01*
X14035356Y-8289356D01*
X14289356Y-8035356D02*
X14289356Y-7964644D01*
X14218644Y-7964644D01*
X14218644Y-8035356D01*
X14289356Y-8035356D01*
X14289356Y-8289356D02*
X14289356Y-8218644D01*
X14218644Y-8218644D01*
X14218644Y-8289356D01*
X14289356Y-8289356D01*
X14543356Y-8035356D02*
X14543356Y-7964644D01*
X14472644Y-7964644D01*
X14472644Y-8035356D01*
X14543356Y-8035356D01*
X14543356Y-8289356D02*
X14543356Y-8218644D01*
X14472644Y-8218644D01*
X14472644Y-8289356D01*
X14543356Y-8289356D01*
X14797356Y-8035356D02*
X14797356Y-7964644D01*
X14726644Y-7964644D01*
X14726644Y-8035356D01*
X14797356Y-8035356D01*
X14797356Y-8289356D02*
X14797356Y-8218644D01*
X14726644Y-8218644D01*
X14726644Y-8289356D01*
X14797356Y-8289356D01*
X15051356Y-8289356D02*
X15051356Y-8218644D01*
X14980644Y-8218644D01*
X14980644Y-8289356D01*
X15051356Y-8289356D01*
X15051356Y-8035356D02*
X15051356Y-7964644D01*
X14980644Y-7964644D01*
X14980644Y-8035356D01*
X15051356Y-8035356D01*
X15305356Y-8035356D02*
X15305356Y-7964644D01*
X15234644Y-7964644D01*
X15234644Y-8035356D01*
X15305356Y-8035356D01*
X15305356Y-8289356D02*
X15305356Y-8218644D01*
X15234644Y-8218644D01*
X15234644Y-8289356D01*
X15305356Y-8289356D01*
X15559356Y-8035356D02*
X15559356Y-7964644D01*
X15488644Y-7964644D01*
X15488644Y-8035356D01*
X15559356Y-8035356D01*
X15559356Y-8289356D02*
X15559356Y-8218644D01*
X15488644Y-8218644D01*
X15488644Y-8289356D01*
X15559356Y-8289356D01*
X15813356Y-8035356D02*
X15813356Y-7964644D01*
X15742644Y-7964644D01*
X15742644Y-8035356D01*
X15813356Y-8035356D01*
X15813356Y-8289356D02*
X15813356Y-8218644D01*
X15742644Y-8218644D01*
X15742644Y-8289356D01*
X15813356Y-8289356D01*
X16067356Y-8035356D02*
X16067356Y-7964644D01*
X15996644Y-7964644D01*
X15996644Y-8035356D01*
X16067356Y-8035356D01*
X16067356Y-8289356D02*
X16067356Y-8218644D01*
X15996644Y-8218644D01*
X15996644Y-8289356D01*
X16067356Y-8289356D01*
X16321356Y-8035356D02*
X16321356Y-7964644D01*
X16250644Y-7964644D01*
X16250644Y-8035356D01*
X16321356Y-8035356D01*
X16321356Y-8289356D02*
X16321356Y-8218644D01*
X16250644Y-8218644D01*
X16250644Y-8289356D01*
X16321356Y-8289356D01*
X16575356Y-8035356D02*
X16575356Y-7964644D01*
X16504644Y-7964644D01*
X16504644Y-8035356D01*
X16575356Y-8035356D01*
X16575356Y-8289356D02*
X16575356Y-8218644D01*
X16504644Y-8218644D01*
X16504644Y-8289356D01*
X16575356Y-8289356D01*
X16829356Y-8035356D02*
X16829356Y-7964644D01*
X16758644Y-7964644D01*
X16758644Y-8035356D01*
X16829356Y-8035356D01*
X16829356Y-8289356D02*
X16829356Y-8218644D01*
X16758644Y-8218644D01*
X16758644Y-8289356D01*
X16829356Y-8289356D01*
X17083356Y-8035356D02*
X17083356Y-7964644D01*
X17012644Y-7964644D01*
X17012644Y-8035356D01*
X17083356Y-8035356D01*
X17083356Y-8289356D02*
X17083356Y-8218644D01*
X17012644Y-8218644D01*
X17012644Y-8289356D01*
X17083356Y-8289356D01*
X17337356Y-8035356D02*
X17337356Y-7964644D01*
X17266644Y-7964644D01*
X17266644Y-8035356D01*
X17337356Y-8035356D01*
X17337356Y-8289356D02*
X17337356Y-8218644D01*
X17266644Y-8218644D01*
X17266644Y-8289356D01*
X17337356Y-8289356D01*
X17591356Y-8035356D02*
X17591356Y-7964644D01*
X17520644Y-7964644D01*
X17520644Y-8035356D01*
X17591356Y-8035356D01*
X17591356Y-8289356D02*
X17591356Y-8218644D01*
X17520644Y-8218644D01*
X17520644Y-8289356D01*
X17591356Y-8289356D01*
X17845356Y-8035356D02*
X17845356Y-7964644D01*
X17774644Y-7964644D01*
X17774644Y-8035356D01*
X17845356Y-8035356D01*
X17845356Y-8289356D02*
X17845356Y-8218644D01*
X17774644Y-8218644D01*
X17774644Y-8289356D01*
X17845356Y-8289356D01*
X18099356Y-8035356D02*
X18099356Y-7964644D01*
X18028644Y-7964644D01*
X18028644Y-8035356D01*
X18099356Y-8035356D01*
X18099356Y-8289356D02*
X18099356Y-8218644D01*
X18028644Y-8218644D01*
X18028644Y-8289356D01*
X18099356Y-8289356D01*
X18353356Y-8035356D02*
X18353356Y-7964644D01*
X18282644Y-7964644D01*
X18282644Y-8035356D01*
X18353356Y-8035356D01*
X18353356Y-8289356D02*
X18353356Y-8218644D01*
X18282644Y-8218644D01*
X18282644Y-8289356D01*
X18353356Y-8289356D01*
X18607356Y-8035356D02*
X18607356Y-7964644D01*
X18536644Y-7964644D01*
X18536644Y-8035356D01*
X18607356Y-8035356D01*
X18607356Y-8289356D02*
X18607356Y-8218644D01*
X18536644Y-8218644D01*
X18536644Y-8289356D01*
X18607356Y-8289356D01*
X18861356Y-8035356D02*
X18861356Y-7964644D01*
X18790644Y-7964644D01*
X18790644Y-8035356D01*
X18861356Y-8035356D01*
X18861356Y-8289356D02*
X18861356Y-8218644D01*
X18790644Y-8218644D01*
X18790644Y-8289356D01*
X18861356Y-8289356D01*
D11*
X11599559Y-13441860D02*
X11599559Y-13241860D01*
X11599559Y-13241860D02*
X11647178Y-13241860D01*
X11647178Y-13241860D02*
X11675750Y-13251384D01*
X11675750Y-13251384D02*
X11694797Y-13270432D01*
X11694797Y-13270432D02*
X11704321Y-13289479D01*
X11704321Y-13289479D02*
X11713845Y-13327575D01*
X11713845Y-13327575D02*
X11713845Y-13356146D01*
X11713845Y-13356146D02*
X11704321Y-13394241D01*
X11704321Y-13394241D02*
X11694797Y-13413289D01*
X11694797Y-13413289D02*
X11675750Y-13432337D01*
X11675750Y-13432337D02*
X11647178Y-13441860D01*
X11647178Y-13441860D02*
X11599559Y-13441860D01*
X11799559Y-13441860D02*
X11799559Y-13308527D01*
X11799559Y-13346622D02*
X11809083Y-13327575D01*
X11809083Y-13327575D02*
X11818607Y-13318051D01*
X11818607Y-13318051D02*
X11837655Y-13308527D01*
X11837655Y-13308527D02*
X11856702Y-13308527D01*
X11923369Y-13441860D02*
X11923369Y-13308527D01*
X11923369Y-13241860D02*
X11913845Y-13251384D01*
X11913845Y-13251384D02*
X11923369Y-13260908D01*
X11923369Y-13260908D02*
X11932893Y-13251384D01*
X11932893Y-13251384D02*
X11923369Y-13241860D01*
X11923369Y-13241860D02*
X11923369Y-13260908D01*
X12047178Y-13441860D02*
X12028131Y-13432337D01*
X12028131Y-13432337D02*
X12018607Y-13413289D01*
X12018607Y-13413289D02*
X12018607Y-13241860D01*
X12151940Y-13441860D02*
X12132893Y-13432337D01*
X12132893Y-13432337D02*
X12123369Y-13413289D01*
X12123369Y-13413289D02*
X12123369Y-13241860D01*
X12380512Y-13441860D02*
X12380512Y-13241860D01*
X12380512Y-13241860D02*
X12447178Y-13384717D01*
X12447178Y-13384717D02*
X12513845Y-13241860D01*
X12513845Y-13241860D02*
X12513845Y-13441860D01*
X12694797Y-13441860D02*
X12694797Y-13337098D01*
X12694797Y-13337098D02*
X12685274Y-13318051D01*
X12685274Y-13318051D02*
X12666226Y-13308527D01*
X12666226Y-13308527D02*
X12628131Y-13308527D01*
X12628131Y-13308527D02*
X12609083Y-13318051D01*
X12694797Y-13432337D02*
X12675750Y-13441860D01*
X12675750Y-13441860D02*
X12628131Y-13441860D01*
X12628131Y-13441860D02*
X12609083Y-13432337D01*
X12609083Y-13432337D02*
X12599559Y-13413289D01*
X12599559Y-13413289D02*
X12599559Y-13394241D01*
X12599559Y-13394241D02*
X12609083Y-13375194D01*
X12609083Y-13375194D02*
X12628131Y-13365670D01*
X12628131Y-13365670D02*
X12675750Y-13365670D01*
X12675750Y-13365670D02*
X12694797Y-13356146D01*
X12790036Y-13308527D02*
X12790036Y-13508527D01*
X12790036Y-13318051D02*
X12809083Y-13308527D01*
X12809083Y-13308527D02*
X12847178Y-13308527D01*
X12847178Y-13308527D02*
X12866226Y-13318051D01*
X12866226Y-13318051D02*
X12875750Y-13327575D01*
X12875750Y-13327575D02*
X12885274Y-13346622D01*
X12885274Y-13346622D02*
X12885274Y-13403765D01*
X12885274Y-13403765D02*
X12875750Y-13422813D01*
X12875750Y-13422813D02*
X12866226Y-13432337D01*
X12866226Y-13432337D02*
X12847178Y-13441860D01*
X12847178Y-13441860D02*
X12809083Y-13441860D01*
X12809083Y-13441860D02*
X12790036Y-13432337D01*
X12970988Y-13422813D02*
X12980512Y-13432337D01*
X12980512Y-13432337D02*
X12970988Y-13441860D01*
X12970988Y-13441860D02*
X12961464Y-13432337D01*
X12961464Y-13432337D02*
X12970988Y-13422813D01*
X12970988Y-13422813D02*
X12970988Y-13441860D01*
X12970988Y-13318051D02*
X12980512Y-13327575D01*
X12980512Y-13327575D02*
X12970988Y-13337098D01*
X12970988Y-13337098D02*
X12961464Y-13327575D01*
X12961464Y-13327575D02*
X12970988Y-13318051D01*
X12970988Y-13318051D02*
X12970988Y-13337098D01*
D12*
X11308783Y-13755377D02*
X11338783Y-13785377D01*
X11338783Y-13755377D02*
X11308783Y-13785377D01*
D11*
X11637655Y-13661860D02*
X11656702Y-13661860D01*
X11656702Y-13661860D02*
X11675750Y-13671384D01*
X11675750Y-13671384D02*
X11685274Y-13680908D01*
X11685274Y-13680908D02*
X11694797Y-13699956D01*
X11694797Y-13699956D02*
X11704321Y-13738051D01*
X11704321Y-13738051D02*
X11704321Y-13785670D01*
X11704321Y-13785670D02*
X11694797Y-13823765D01*
X11694797Y-13823765D02*
X11685274Y-13842813D01*
X11685274Y-13842813D02*
X11675750Y-13852337D01*
X11675750Y-13852337D02*
X11656702Y-13861860D01*
X11656702Y-13861860D02*
X11637655Y-13861860D01*
X11637655Y-13861860D02*
X11618607Y-13852337D01*
X11618607Y-13852337D02*
X11609083Y-13842813D01*
X11609083Y-13842813D02*
X11599559Y-13823765D01*
X11599559Y-13823765D02*
X11590036Y-13785670D01*
X11590036Y-13785670D02*
X11590036Y-13738051D01*
X11590036Y-13738051D02*
X11599559Y-13699956D01*
X11599559Y-13699956D02*
X11609083Y-13680908D01*
X11609083Y-13680908D02*
X11618607Y-13671384D01*
X11618607Y-13671384D02*
X11637655Y-13661860D01*
X11790036Y-13842813D02*
X11799559Y-13852337D01*
X11799559Y-13852337D02*
X11790036Y-13861860D01*
X11790036Y-13861860D02*
X11780512Y-13852337D01*
X11780512Y-13852337D02*
X11790036Y-13842813D01*
X11790036Y-13842813D02*
X11790036Y-13861860D01*
X11866226Y-13661860D02*
X11990036Y-13661860D01*
X11990036Y-13661860D02*
X11923369Y-13738051D01*
X11923369Y-13738051D02*
X11951940Y-13738051D01*
X11951940Y-13738051D02*
X11970988Y-13747575D01*
X11970988Y-13747575D02*
X11980512Y-13757098D01*
X11980512Y-13757098D02*
X11990036Y-13776146D01*
X11990036Y-13776146D02*
X11990036Y-13823765D01*
X11990036Y-13823765D02*
X11980512Y-13842813D01*
X11980512Y-13842813D02*
X11970988Y-13852337D01*
X11970988Y-13852337D02*
X11951940Y-13861860D01*
X11951940Y-13861860D02*
X11894797Y-13861860D01*
X11894797Y-13861860D02*
X11875750Y-13852337D01*
X11875750Y-13852337D02*
X11866226Y-13842813D01*
X12113845Y-13661860D02*
X12132893Y-13661860D01*
X12132893Y-13661860D02*
X12151940Y-13671384D01*
X12151940Y-13671384D02*
X12161464Y-13680908D01*
X12161464Y-13680908D02*
X12170988Y-13699956D01*
X12170988Y-13699956D02*
X12180512Y-13738051D01*
X12180512Y-13738051D02*
X12180512Y-13785670D01*
X12180512Y-13785670D02*
X12170988Y-13823765D01*
X12170988Y-13823765D02*
X12161464Y-13842813D01*
X12161464Y-13842813D02*
X12151940Y-13852337D01*
X12151940Y-13852337D02*
X12132893Y-13861860D01*
X12132893Y-13861860D02*
X12113845Y-13861860D01*
X12113845Y-13861860D02*
X12094797Y-13852337D01*
X12094797Y-13852337D02*
X12085274Y-13842813D01*
X12085274Y-13842813D02*
X12075750Y-13823765D01*
X12075750Y-13823765D02*
X12066226Y-13785670D01*
X12066226Y-13785670D02*
X12066226Y-13738051D01*
X12066226Y-13738051D02*
X12075750Y-13699956D01*
X12075750Y-13699956D02*
X12085274Y-13680908D01*
X12085274Y-13680908D02*
X12094797Y-13671384D01*
X12094797Y-13671384D02*
X12113845Y-13661860D01*
X12304321Y-13661860D02*
X12323369Y-13661860D01*
X12323369Y-13661860D02*
X12342417Y-13671384D01*
X12342417Y-13671384D02*
X12351940Y-13680908D01*
X12351940Y-13680908D02*
X12361464Y-13699956D01*
X12361464Y-13699956D02*
X12370988Y-13738051D01*
X12370988Y-13738051D02*
X12370988Y-13785670D01*
X12370988Y-13785670D02*
X12361464Y-13823765D01*
X12361464Y-13823765D02*
X12351940Y-13842813D01*
X12351940Y-13842813D02*
X12342417Y-13852337D01*
X12342417Y-13852337D02*
X12323369Y-13861860D01*
X12323369Y-13861860D02*
X12304321Y-13861860D01*
X12304321Y-13861860D02*
X12285274Y-13852337D01*
X12285274Y-13852337D02*
X12275750Y-13842813D01*
X12275750Y-13842813D02*
X12266226Y-13823765D01*
X12266226Y-13823765D02*
X12256702Y-13785670D01*
X12256702Y-13785670D02*
X12256702Y-13738051D01*
X12256702Y-13738051D02*
X12266226Y-13699956D01*
X12266226Y-13699956D02*
X12275750Y-13680908D01*
X12275750Y-13680908D02*
X12285274Y-13671384D01*
X12285274Y-13671384D02*
X12304321Y-13661860D01*
X12456702Y-13861860D02*
X12456702Y-13728527D01*
X12456702Y-13747575D02*
X12466226Y-13738051D01*
X12466226Y-13738051D02*
X12485274Y-13728527D01*
X12485274Y-13728527D02*
X12513845Y-13728527D01*
X12513845Y-13728527D02*
X12532893Y-13738051D01*
X12532893Y-13738051D02*
X12542417Y-13757098D01*
X12542417Y-13757098D02*
X12542417Y-13861860D01*
X12542417Y-13757098D02*
X12551940Y-13738051D01*
X12551940Y-13738051D02*
X12570988Y-13728527D01*
X12570988Y-13728527D02*
X12599559Y-13728527D01*
X12599559Y-13728527D02*
X12618607Y-13738051D01*
X12618607Y-13738051D02*
X12628131Y-13757098D01*
X12628131Y-13757098D02*
X12628131Y-13861860D01*
X12723369Y-13861860D02*
X12723369Y-13728527D01*
X12723369Y-13747575D02*
X12732893Y-13738051D01*
X12732893Y-13738051D02*
X12751940Y-13728527D01*
X12751940Y-13728527D02*
X12780512Y-13728527D01*
X12780512Y-13728527D02*
X12799559Y-13738051D01*
X12799559Y-13738051D02*
X12809083Y-13757098D01*
X12809083Y-13757098D02*
X12809083Y-13861860D01*
X12809083Y-13757098D02*
X12818607Y-13738051D01*
X12818607Y-13738051D02*
X12837655Y-13728527D01*
X12837655Y-13728527D02*
X12866226Y-13728527D01*
X12866226Y-13728527D02*
X12885274Y-13738051D01*
X12885274Y-13738051D02*
X12894798Y-13757098D01*
X12894798Y-13757098D02*
X12894798Y-13861860D01*
X13285274Y-13652337D02*
X13113845Y-13909479D01*
X13542417Y-13661860D02*
X13561464Y-13661860D01*
X13561464Y-13661860D02*
X13580512Y-13671384D01*
X13580512Y-13671384D02*
X13590036Y-13680908D01*
X13590036Y-13680908D02*
X13599560Y-13699956D01*
X13599560Y-13699956D02*
X13609083Y-13738051D01*
X13609083Y-13738051D02*
X13609083Y-13785670D01*
X13609083Y-13785670D02*
X13599560Y-13823765D01*
X13599560Y-13823765D02*
X13590036Y-13842813D01*
X13590036Y-13842813D02*
X13580512Y-13852337D01*
X13580512Y-13852337D02*
X13561464Y-13861860D01*
X13561464Y-13861860D02*
X13542417Y-13861860D01*
X13542417Y-13861860D02*
X13523369Y-13852337D01*
X13523369Y-13852337D02*
X13513845Y-13842813D01*
X13513845Y-13842813D02*
X13504321Y-13823765D01*
X13504321Y-13823765D02*
X13494798Y-13785670D01*
X13494798Y-13785670D02*
X13494798Y-13738051D01*
X13494798Y-13738051D02*
X13504321Y-13699956D01*
X13504321Y-13699956D02*
X13513845Y-13680908D01*
X13513845Y-13680908D02*
X13523369Y-13671384D01*
X13523369Y-13671384D02*
X13542417Y-13661860D01*
X13694798Y-13842813D02*
X13704321Y-13852337D01*
X13704321Y-13852337D02*
X13694798Y-13861860D01*
X13694798Y-13861860D02*
X13685274Y-13852337D01*
X13685274Y-13852337D02*
X13694798Y-13842813D01*
X13694798Y-13842813D02*
X13694798Y-13861860D01*
X13828131Y-13661860D02*
X13847179Y-13661860D01*
X13847179Y-13661860D02*
X13866226Y-13671384D01*
X13866226Y-13671384D02*
X13875750Y-13680908D01*
X13875750Y-13680908D02*
X13885274Y-13699956D01*
X13885274Y-13699956D02*
X13894798Y-13738051D01*
X13894798Y-13738051D02*
X13894798Y-13785670D01*
X13894798Y-13785670D02*
X13885274Y-13823765D01*
X13885274Y-13823765D02*
X13875750Y-13842813D01*
X13875750Y-13842813D02*
X13866226Y-13852337D01*
X13866226Y-13852337D02*
X13847179Y-13861860D01*
X13847179Y-13861860D02*
X13828131Y-13861860D01*
X13828131Y-13861860D02*
X13809083Y-13852337D01*
X13809083Y-13852337D02*
X13799560Y-13842813D01*
X13799560Y-13842813D02*
X13790036Y-13823765D01*
X13790036Y-13823765D02*
X13780512Y-13785670D01*
X13780512Y-13785670D02*
X13780512Y-13738051D01*
X13780512Y-13738051D02*
X13790036Y-13699956D01*
X13790036Y-13699956D02*
X13799560Y-13680908D01*
X13799560Y-13680908D02*
X13809083Y-13671384D01*
X13809083Y-13671384D02*
X13828131Y-13661860D01*
X14085274Y-13861860D02*
X13970988Y-13861860D01*
X14028131Y-13861860D02*
X14028131Y-13661860D01*
X14028131Y-13661860D02*
X14009083Y-13690432D01*
X14009083Y-13690432D02*
X13990036Y-13709479D01*
X13990036Y-13709479D02*
X13970988Y-13719003D01*
X14275750Y-13861860D02*
X14161464Y-13861860D01*
X14218607Y-13861860D02*
X14218607Y-13661860D01*
X14218607Y-13661860D02*
X14199560Y-13690432D01*
X14199560Y-13690432D02*
X14180512Y-13709479D01*
X14180512Y-13709479D02*
X14161464Y-13719003D01*
X14390036Y-13747575D02*
X14370988Y-13738051D01*
X14370988Y-13738051D02*
X14361464Y-13728527D01*
X14361464Y-13728527D02*
X14351941Y-13709479D01*
X14351941Y-13709479D02*
X14351941Y-13699956D01*
X14351941Y-13699956D02*
X14361464Y-13680908D01*
X14361464Y-13680908D02*
X14370988Y-13671384D01*
X14370988Y-13671384D02*
X14390036Y-13661860D01*
X14390036Y-13661860D02*
X14428131Y-13661860D01*
X14428131Y-13661860D02*
X14447179Y-13671384D01*
X14447179Y-13671384D02*
X14456702Y-13680908D01*
X14456702Y-13680908D02*
X14466226Y-13699956D01*
X14466226Y-13699956D02*
X14466226Y-13709479D01*
X14466226Y-13709479D02*
X14456702Y-13728527D01*
X14456702Y-13728527D02*
X14447179Y-13738051D01*
X14447179Y-13738051D02*
X14428131Y-13747575D01*
X14428131Y-13747575D02*
X14390036Y-13747575D01*
X14390036Y-13747575D02*
X14370988Y-13757098D01*
X14370988Y-13757098D02*
X14361464Y-13766622D01*
X14361464Y-13766622D02*
X14351941Y-13785670D01*
X14351941Y-13785670D02*
X14351941Y-13823765D01*
X14351941Y-13823765D02*
X14361464Y-13842813D01*
X14361464Y-13842813D02*
X14370988Y-13852337D01*
X14370988Y-13852337D02*
X14390036Y-13861860D01*
X14390036Y-13861860D02*
X14428131Y-13861860D01*
X14428131Y-13861860D02*
X14447179Y-13852337D01*
X14447179Y-13852337D02*
X14456702Y-13842813D01*
X14456702Y-13842813D02*
X14466226Y-13823765D01*
X14466226Y-13823765D02*
X14466226Y-13785670D01*
X14466226Y-13785670D02*
X14456702Y-13766622D01*
X14456702Y-13766622D02*
X14447179Y-13757098D01*
X14447179Y-13757098D02*
X14428131Y-13747575D01*
X14542417Y-13661860D02*
X14542417Y-13699956D01*
X14618607Y-13661860D02*
X14618607Y-13699956D01*
X14913845Y-13938051D02*
X14904322Y-13928527D01*
X14904322Y-13928527D02*
X14885274Y-13899956D01*
X14885274Y-13899956D02*
X14875750Y-13880908D01*
X14875750Y-13880908D02*
X14866226Y-13852337D01*
X14866226Y-13852337D02*
X14856703Y-13804717D01*
X14856703Y-13804717D02*
X14856703Y-13766622D01*
X14856703Y-13766622D02*
X14866226Y-13719003D01*
X14866226Y-13719003D02*
X14875750Y-13690432D01*
X14875750Y-13690432D02*
X14885274Y-13671384D01*
X14885274Y-13671384D02*
X14904322Y-13642813D01*
X14904322Y-13642813D02*
X14913845Y-13633289D01*
X15094798Y-13861860D02*
X14980512Y-13861860D01*
X15037655Y-13861860D02*
X15037655Y-13661860D01*
X15037655Y-13661860D02*
X15018607Y-13690432D01*
X15018607Y-13690432D02*
X14999560Y-13709479D01*
X14999560Y-13709479D02*
X14980512Y-13719003D01*
X15161464Y-13661860D02*
X15285274Y-13661860D01*
X15285274Y-13661860D02*
X15218607Y-13738051D01*
X15218607Y-13738051D02*
X15247179Y-13738051D01*
X15247179Y-13738051D02*
X15266226Y-13747575D01*
X15266226Y-13747575D02*
X15275750Y-13757098D01*
X15275750Y-13757098D02*
X15285274Y-13776146D01*
X15285274Y-13776146D02*
X15285274Y-13823765D01*
X15285274Y-13823765D02*
X15275750Y-13842813D01*
X15275750Y-13842813D02*
X15266226Y-13852337D01*
X15266226Y-13852337D02*
X15247179Y-13861860D01*
X15247179Y-13861860D02*
X15190036Y-13861860D01*
X15190036Y-13861860D02*
X15170988Y-13852337D01*
X15170988Y-13852337D02*
X15161464Y-13842813D01*
X15361464Y-13680908D02*
X15370988Y-13671384D01*
X15370988Y-13671384D02*
X15390036Y-13661860D01*
X15390036Y-13661860D02*
X15437655Y-13661860D01*
X15437655Y-13661860D02*
X15456703Y-13671384D01*
X15456703Y-13671384D02*
X15466226Y-13680908D01*
X15466226Y-13680908D02*
X15475750Y-13699956D01*
X15475750Y-13699956D02*
X15475750Y-13719003D01*
X15475750Y-13719003D02*
X15466226Y-13747575D01*
X15466226Y-13747575D02*
X15351941Y-13861860D01*
X15351941Y-13861860D02*
X15475750Y-13861860D01*
X15713845Y-13861860D02*
X15713845Y-13661860D01*
X15799560Y-13861860D02*
X15799560Y-13757098D01*
X15799560Y-13757098D02*
X15790036Y-13738051D01*
X15790036Y-13738051D02*
X15770988Y-13728527D01*
X15770988Y-13728527D02*
X15742417Y-13728527D01*
X15742417Y-13728527D02*
X15723369Y-13738051D01*
X15723369Y-13738051D02*
X15713845Y-13747575D01*
X15923369Y-13861860D02*
X15904322Y-13852337D01*
X15904322Y-13852337D02*
X15894798Y-13842813D01*
X15894798Y-13842813D02*
X15885274Y-13823765D01*
X15885274Y-13823765D02*
X15885274Y-13766622D01*
X15885274Y-13766622D02*
X15894798Y-13747575D01*
X15894798Y-13747575D02*
X15904322Y-13738051D01*
X15904322Y-13738051D02*
X15923369Y-13728527D01*
X15923369Y-13728527D02*
X15951941Y-13728527D01*
X15951941Y-13728527D02*
X15970988Y-13738051D01*
X15970988Y-13738051D02*
X15980512Y-13747575D01*
X15980512Y-13747575D02*
X15990036Y-13766622D01*
X15990036Y-13766622D02*
X15990036Y-13823765D01*
X15990036Y-13823765D02*
X15980512Y-13842813D01*
X15980512Y-13842813D02*
X15970988Y-13852337D01*
X15970988Y-13852337D02*
X15951941Y-13861860D01*
X15951941Y-13861860D02*
X15923369Y-13861860D01*
X16104322Y-13861860D02*
X16085274Y-13852337D01*
X16085274Y-13852337D02*
X16075750Y-13833289D01*
X16075750Y-13833289D02*
X16075750Y-13661860D01*
X16256703Y-13852337D02*
X16237655Y-13861860D01*
X16237655Y-13861860D02*
X16199560Y-13861860D01*
X16199560Y-13861860D02*
X16180512Y-13852337D01*
X16180512Y-13852337D02*
X16170988Y-13833289D01*
X16170988Y-13833289D02*
X16170988Y-13757098D01*
X16170988Y-13757098D02*
X16180512Y-13738051D01*
X16180512Y-13738051D02*
X16199560Y-13728527D01*
X16199560Y-13728527D02*
X16237655Y-13728527D01*
X16237655Y-13728527D02*
X16256703Y-13738051D01*
X16256703Y-13738051D02*
X16266226Y-13757098D01*
X16266226Y-13757098D02*
X16266226Y-13776146D01*
X16266226Y-13776146D02*
X16170988Y-13795194D01*
X16342417Y-13852337D02*
X16361465Y-13861860D01*
X16361465Y-13861860D02*
X16399560Y-13861860D01*
X16399560Y-13861860D02*
X16418607Y-13852337D01*
X16418607Y-13852337D02*
X16428131Y-13833289D01*
X16428131Y-13833289D02*
X16428131Y-13823765D01*
X16428131Y-13823765D02*
X16418607Y-13804717D01*
X16418607Y-13804717D02*
X16399560Y-13795194D01*
X16399560Y-13795194D02*
X16370988Y-13795194D01*
X16370988Y-13795194D02*
X16351941Y-13785670D01*
X16351941Y-13785670D02*
X16342417Y-13766622D01*
X16342417Y-13766622D02*
X16342417Y-13757098D01*
X16342417Y-13757098D02*
X16351941Y-13738051D01*
X16351941Y-13738051D02*
X16370988Y-13728527D01*
X16370988Y-13728527D02*
X16399560Y-13728527D01*
X16399560Y-13728527D02*
X16418607Y-13738051D01*
X16494798Y-13938051D02*
X16504322Y-13928527D01*
X16504322Y-13928527D02*
X16523369Y-13899956D01*
X16523369Y-13899956D02*
X16532893Y-13880908D01*
X16532893Y-13880908D02*
X16542417Y-13852337D01*
X16542417Y-13852337D02*
X16551941Y-13804717D01*
X16551941Y-13804717D02*
X16551941Y-13766622D01*
X16551941Y-13766622D02*
X16542417Y-13719003D01*
X16542417Y-13719003D02*
X16532893Y-13690432D01*
X16532893Y-13690432D02*
X16523369Y-13671384D01*
X16523369Y-13671384D02*
X16504322Y-13642813D01*
X16504322Y-13642813D02*
X16494798Y-13633289D01*
D12*
X11338783Y-14034377D02*
G75*
G02*
X11278783Y-14034377I-30000J0D01*
G01*
X11278783Y-14034377D02*
G75*
G02*
X11338783Y-14034377I30000J0D01*
G01*
D11*
X11637655Y-13925860D02*
X11656702Y-13925860D01*
X11656702Y-13925860D02*
X11675750Y-13935384D01*
X11675750Y-13935384D02*
X11685274Y-13944908D01*
X11685274Y-13944908D02*
X11694797Y-13963956D01*
X11694797Y-13963956D02*
X11704321Y-14002051D01*
X11704321Y-14002051D02*
X11704321Y-14049670D01*
X11704321Y-14049670D02*
X11694797Y-14087765D01*
X11694797Y-14087765D02*
X11685274Y-14106813D01*
X11685274Y-14106813D02*
X11675750Y-14116337D01*
X11675750Y-14116337D02*
X11656702Y-14125860D01*
X11656702Y-14125860D02*
X11637655Y-14125860D01*
X11637655Y-14125860D02*
X11618607Y-14116337D01*
X11618607Y-14116337D02*
X11609083Y-14106813D01*
X11609083Y-14106813D02*
X11599559Y-14087765D01*
X11599559Y-14087765D02*
X11590036Y-14049670D01*
X11590036Y-14049670D02*
X11590036Y-14002051D01*
X11590036Y-14002051D02*
X11599559Y-13963956D01*
X11599559Y-13963956D02*
X11609083Y-13944908D01*
X11609083Y-13944908D02*
X11618607Y-13935384D01*
X11618607Y-13935384D02*
X11637655Y-13925860D01*
X11790036Y-14106813D02*
X11799559Y-14116337D01*
X11799559Y-14116337D02*
X11790036Y-14125860D01*
X11790036Y-14125860D02*
X11780512Y-14116337D01*
X11780512Y-14116337D02*
X11790036Y-14106813D01*
X11790036Y-14106813D02*
X11790036Y-14125860D01*
X11970988Y-13925860D02*
X11932893Y-13925860D01*
X11932893Y-13925860D02*
X11913845Y-13935384D01*
X11913845Y-13935384D02*
X11904321Y-13944908D01*
X11904321Y-13944908D02*
X11885274Y-13973479D01*
X11885274Y-13973479D02*
X11875750Y-14011575D01*
X11875750Y-14011575D02*
X11875750Y-14087765D01*
X11875750Y-14087765D02*
X11885274Y-14106813D01*
X11885274Y-14106813D02*
X11894797Y-14116337D01*
X11894797Y-14116337D02*
X11913845Y-14125860D01*
X11913845Y-14125860D02*
X11951940Y-14125860D01*
X11951940Y-14125860D02*
X11970988Y-14116337D01*
X11970988Y-14116337D02*
X11980512Y-14106813D01*
X11980512Y-14106813D02*
X11990036Y-14087765D01*
X11990036Y-14087765D02*
X11990036Y-14040146D01*
X11990036Y-14040146D02*
X11980512Y-14021098D01*
X11980512Y-14021098D02*
X11970988Y-14011575D01*
X11970988Y-14011575D02*
X11951940Y-14002051D01*
X11951940Y-14002051D02*
X11913845Y-14002051D01*
X11913845Y-14002051D02*
X11894797Y-14011575D01*
X11894797Y-14011575D02*
X11885274Y-14021098D01*
X11885274Y-14021098D02*
X11875750Y-14040146D01*
X12113845Y-13925860D02*
X12132893Y-13925860D01*
X12132893Y-13925860D02*
X12151940Y-13935384D01*
X12151940Y-13935384D02*
X12161464Y-13944908D01*
X12161464Y-13944908D02*
X12170988Y-13963956D01*
X12170988Y-13963956D02*
X12180512Y-14002051D01*
X12180512Y-14002051D02*
X12180512Y-14049670D01*
X12180512Y-14049670D02*
X12170988Y-14087765D01*
X12170988Y-14087765D02*
X12161464Y-14106813D01*
X12161464Y-14106813D02*
X12151940Y-14116337D01*
X12151940Y-14116337D02*
X12132893Y-14125860D01*
X12132893Y-14125860D02*
X12113845Y-14125860D01*
X12113845Y-14125860D02*
X12094797Y-14116337D01*
X12094797Y-14116337D02*
X12085274Y-14106813D01*
X12085274Y-14106813D02*
X12075750Y-14087765D01*
X12075750Y-14087765D02*
X12066226Y-14049670D01*
X12066226Y-14049670D02*
X12066226Y-14002051D01*
X12066226Y-14002051D02*
X12075750Y-13963956D01*
X12075750Y-13963956D02*
X12085274Y-13944908D01*
X12085274Y-13944908D02*
X12094797Y-13935384D01*
X12094797Y-13935384D02*
X12113845Y-13925860D01*
X12304321Y-13925860D02*
X12323369Y-13925860D01*
X12323369Y-13925860D02*
X12342417Y-13935384D01*
X12342417Y-13935384D02*
X12351940Y-13944908D01*
X12351940Y-13944908D02*
X12361464Y-13963956D01*
X12361464Y-13963956D02*
X12370988Y-14002051D01*
X12370988Y-14002051D02*
X12370988Y-14049670D01*
X12370988Y-14049670D02*
X12361464Y-14087765D01*
X12361464Y-14087765D02*
X12351940Y-14106813D01*
X12351940Y-14106813D02*
X12342417Y-14116337D01*
X12342417Y-14116337D02*
X12323369Y-14125860D01*
X12323369Y-14125860D02*
X12304321Y-14125860D01*
X12304321Y-14125860D02*
X12285274Y-14116337D01*
X12285274Y-14116337D02*
X12275750Y-14106813D01*
X12275750Y-14106813D02*
X12266226Y-14087765D01*
X12266226Y-14087765D02*
X12256702Y-14049670D01*
X12256702Y-14049670D02*
X12256702Y-14002051D01*
X12256702Y-14002051D02*
X12266226Y-13963956D01*
X12266226Y-13963956D02*
X12275750Y-13944908D01*
X12275750Y-13944908D02*
X12285274Y-13935384D01*
X12285274Y-13935384D02*
X12304321Y-13925860D01*
X12456702Y-14125860D02*
X12456702Y-13992527D01*
X12456702Y-14011575D02*
X12466226Y-14002051D01*
X12466226Y-14002051D02*
X12485274Y-13992527D01*
X12485274Y-13992527D02*
X12513845Y-13992527D01*
X12513845Y-13992527D02*
X12532893Y-14002051D01*
X12532893Y-14002051D02*
X12542417Y-14021098D01*
X12542417Y-14021098D02*
X12542417Y-14125860D01*
X12542417Y-14021098D02*
X12551940Y-14002051D01*
X12551940Y-14002051D02*
X12570988Y-13992527D01*
X12570988Y-13992527D02*
X12599559Y-13992527D01*
X12599559Y-13992527D02*
X12618607Y-14002051D01*
X12618607Y-14002051D02*
X12628131Y-14021098D01*
X12628131Y-14021098D02*
X12628131Y-14125860D01*
X12723369Y-14125860D02*
X12723369Y-13992527D01*
X12723369Y-14011575D02*
X12732893Y-14002051D01*
X12732893Y-14002051D02*
X12751940Y-13992527D01*
X12751940Y-13992527D02*
X12780512Y-13992527D01*
X12780512Y-13992527D02*
X12799559Y-14002051D01*
X12799559Y-14002051D02*
X12809083Y-14021098D01*
X12809083Y-14021098D02*
X12809083Y-14125860D01*
X12809083Y-14021098D02*
X12818607Y-14002051D01*
X12818607Y-14002051D02*
X12837655Y-13992527D01*
X12837655Y-13992527D02*
X12866226Y-13992527D01*
X12866226Y-13992527D02*
X12885274Y-14002051D01*
X12885274Y-14002051D02*
X12894798Y-14021098D01*
X12894798Y-14021098D02*
X12894798Y-14125860D01*
X13285274Y-13916337D02*
X13113845Y-14173479D01*
X13542417Y-13925860D02*
X13561464Y-13925860D01*
X13561464Y-13925860D02*
X13580512Y-13935384D01*
X13580512Y-13935384D02*
X13590036Y-13944908D01*
X13590036Y-13944908D02*
X13599560Y-13963956D01*
X13599560Y-13963956D02*
X13609083Y-14002051D01*
X13609083Y-14002051D02*
X13609083Y-14049670D01*
X13609083Y-14049670D02*
X13599560Y-14087765D01*
X13599560Y-14087765D02*
X13590036Y-14106813D01*
X13590036Y-14106813D02*
X13580512Y-14116337D01*
X13580512Y-14116337D02*
X13561464Y-14125860D01*
X13561464Y-14125860D02*
X13542417Y-14125860D01*
X13542417Y-14125860D02*
X13523369Y-14116337D01*
X13523369Y-14116337D02*
X13513845Y-14106813D01*
X13513845Y-14106813D02*
X13504321Y-14087765D01*
X13504321Y-14087765D02*
X13494798Y-14049670D01*
X13494798Y-14049670D02*
X13494798Y-14002051D01*
X13494798Y-14002051D02*
X13504321Y-13963956D01*
X13504321Y-13963956D02*
X13513845Y-13944908D01*
X13513845Y-13944908D02*
X13523369Y-13935384D01*
X13523369Y-13935384D02*
X13542417Y-13925860D01*
X13694798Y-14106813D02*
X13704321Y-14116337D01*
X13704321Y-14116337D02*
X13694798Y-14125860D01*
X13694798Y-14125860D02*
X13685274Y-14116337D01*
X13685274Y-14116337D02*
X13694798Y-14106813D01*
X13694798Y-14106813D02*
X13694798Y-14125860D01*
X13828131Y-13925860D02*
X13847179Y-13925860D01*
X13847179Y-13925860D02*
X13866226Y-13935384D01*
X13866226Y-13935384D02*
X13875750Y-13944908D01*
X13875750Y-13944908D02*
X13885274Y-13963956D01*
X13885274Y-13963956D02*
X13894798Y-14002051D01*
X13894798Y-14002051D02*
X13894798Y-14049670D01*
X13894798Y-14049670D02*
X13885274Y-14087765D01*
X13885274Y-14087765D02*
X13875750Y-14106813D01*
X13875750Y-14106813D02*
X13866226Y-14116337D01*
X13866226Y-14116337D02*
X13847179Y-14125860D01*
X13847179Y-14125860D02*
X13828131Y-14125860D01*
X13828131Y-14125860D02*
X13809083Y-14116337D01*
X13809083Y-14116337D02*
X13799560Y-14106813D01*
X13799560Y-14106813D02*
X13790036Y-14087765D01*
X13790036Y-14087765D02*
X13780512Y-14049670D01*
X13780512Y-14049670D02*
X13780512Y-14002051D01*
X13780512Y-14002051D02*
X13790036Y-13963956D01*
X13790036Y-13963956D02*
X13799560Y-13944908D01*
X13799560Y-13944908D02*
X13809083Y-13935384D01*
X13809083Y-13935384D02*
X13828131Y-13925860D01*
X13970988Y-13944908D02*
X13980512Y-13935384D01*
X13980512Y-13935384D02*
X13999560Y-13925860D01*
X13999560Y-13925860D02*
X14047179Y-13925860D01*
X14047179Y-13925860D02*
X14066226Y-13935384D01*
X14066226Y-13935384D02*
X14075750Y-13944908D01*
X14075750Y-13944908D02*
X14085274Y-13963956D01*
X14085274Y-13963956D02*
X14085274Y-13983003D01*
X14085274Y-13983003D02*
X14075750Y-14011575D01*
X14075750Y-14011575D02*
X13961464Y-14125860D01*
X13961464Y-14125860D02*
X14085274Y-14125860D01*
X14151941Y-13925860D02*
X14275750Y-13925860D01*
X14275750Y-13925860D02*
X14209083Y-14002051D01*
X14209083Y-14002051D02*
X14237655Y-14002051D01*
X14237655Y-14002051D02*
X14256702Y-14011575D01*
X14256702Y-14011575D02*
X14266226Y-14021098D01*
X14266226Y-14021098D02*
X14275750Y-14040146D01*
X14275750Y-14040146D02*
X14275750Y-14087765D01*
X14275750Y-14087765D02*
X14266226Y-14106813D01*
X14266226Y-14106813D02*
X14256702Y-14116337D01*
X14256702Y-14116337D02*
X14237655Y-14125860D01*
X14237655Y-14125860D02*
X14180512Y-14125860D01*
X14180512Y-14125860D02*
X14161464Y-14116337D01*
X14161464Y-14116337D02*
X14151941Y-14106813D01*
X14447179Y-13925860D02*
X14409083Y-13925860D01*
X14409083Y-13925860D02*
X14390036Y-13935384D01*
X14390036Y-13935384D02*
X14380512Y-13944908D01*
X14380512Y-13944908D02*
X14361464Y-13973479D01*
X14361464Y-13973479D02*
X14351941Y-14011575D01*
X14351941Y-14011575D02*
X14351941Y-14087765D01*
X14351941Y-14087765D02*
X14361464Y-14106813D01*
X14361464Y-14106813D02*
X14370988Y-14116337D01*
X14370988Y-14116337D02*
X14390036Y-14125860D01*
X14390036Y-14125860D02*
X14428131Y-14125860D01*
X14428131Y-14125860D02*
X14447179Y-14116337D01*
X14447179Y-14116337D02*
X14456702Y-14106813D01*
X14456702Y-14106813D02*
X14466226Y-14087765D01*
X14466226Y-14087765D02*
X14466226Y-14040146D01*
X14466226Y-14040146D02*
X14456702Y-14021098D01*
X14456702Y-14021098D02*
X14447179Y-14011575D01*
X14447179Y-14011575D02*
X14428131Y-14002051D01*
X14428131Y-14002051D02*
X14390036Y-14002051D01*
X14390036Y-14002051D02*
X14370988Y-14011575D01*
X14370988Y-14011575D02*
X14361464Y-14021098D01*
X14361464Y-14021098D02*
X14351941Y-14040146D01*
X14542417Y-13925860D02*
X14542417Y-13963956D01*
X14618607Y-13925860D02*
X14618607Y-13963956D01*
X14913845Y-14202051D02*
X14904322Y-14192527D01*
X14904322Y-14192527D02*
X14885274Y-14163956D01*
X14885274Y-14163956D02*
X14875750Y-14144908D01*
X14875750Y-14144908D02*
X14866226Y-14116337D01*
X14866226Y-14116337D02*
X14856703Y-14068717D01*
X14856703Y-14068717D02*
X14856703Y-14030622D01*
X14856703Y-14030622D02*
X14866226Y-13983003D01*
X14866226Y-13983003D02*
X14875750Y-13954432D01*
X14875750Y-13954432D02*
X14885274Y-13935384D01*
X14885274Y-13935384D02*
X14904322Y-13906813D01*
X14904322Y-13906813D02*
X14913845Y-13897289D01*
X15028131Y-13925860D02*
X15047179Y-13925860D01*
X15047179Y-13925860D02*
X15066226Y-13935384D01*
X15066226Y-13935384D02*
X15075750Y-13944908D01*
X15075750Y-13944908D02*
X15085274Y-13963956D01*
X15085274Y-13963956D02*
X15094798Y-14002051D01*
X15094798Y-14002051D02*
X15094798Y-14049670D01*
X15094798Y-14049670D02*
X15085274Y-14087765D01*
X15085274Y-14087765D02*
X15075750Y-14106813D01*
X15075750Y-14106813D02*
X15066226Y-14116337D01*
X15066226Y-14116337D02*
X15047179Y-14125860D01*
X15047179Y-14125860D02*
X15028131Y-14125860D01*
X15028131Y-14125860D02*
X15009083Y-14116337D01*
X15009083Y-14116337D02*
X14999560Y-14106813D01*
X14999560Y-14106813D02*
X14990036Y-14087765D01*
X14990036Y-14087765D02*
X14980512Y-14049670D01*
X14980512Y-14049670D02*
X14980512Y-14002051D01*
X14980512Y-14002051D02*
X14990036Y-13963956D01*
X14990036Y-13963956D02*
X14999560Y-13944908D01*
X14999560Y-13944908D02*
X15009083Y-13935384D01*
X15009083Y-13935384D02*
X15028131Y-13925860D01*
X15332893Y-14125860D02*
X15332893Y-13925860D01*
X15418607Y-14125860D02*
X15418607Y-14021098D01*
X15418607Y-14021098D02*
X15409084Y-14002051D01*
X15409084Y-14002051D02*
X15390036Y-13992527D01*
X15390036Y-13992527D02*
X15361464Y-13992527D01*
X15361464Y-13992527D02*
X15342417Y-14002051D01*
X15342417Y-14002051D02*
X15332893Y-14011575D01*
X15542417Y-14125860D02*
X15523369Y-14116337D01*
X15523369Y-14116337D02*
X15513845Y-14106813D01*
X15513845Y-14106813D02*
X15504322Y-14087765D01*
X15504322Y-14087765D02*
X15504322Y-14030622D01*
X15504322Y-14030622D02*
X15513845Y-14011575D01*
X15513845Y-14011575D02*
X15523369Y-14002051D01*
X15523369Y-14002051D02*
X15542417Y-13992527D01*
X15542417Y-13992527D02*
X15570988Y-13992527D01*
X15570988Y-13992527D02*
X15590036Y-14002051D01*
X15590036Y-14002051D02*
X15599560Y-14011575D01*
X15599560Y-14011575D02*
X15609084Y-14030622D01*
X15609084Y-14030622D02*
X15609084Y-14087765D01*
X15609084Y-14087765D02*
X15599560Y-14106813D01*
X15599560Y-14106813D02*
X15590036Y-14116337D01*
X15590036Y-14116337D02*
X15570988Y-14125860D01*
X15570988Y-14125860D02*
X15542417Y-14125860D01*
X15723369Y-14125860D02*
X15704322Y-14116337D01*
X15704322Y-14116337D02*
X15694798Y-14097289D01*
X15694798Y-14097289D02*
X15694798Y-13925860D01*
X15875750Y-14116337D02*
X15856703Y-14125860D01*
X15856703Y-14125860D02*
X15818607Y-14125860D01*
X15818607Y-14125860D02*
X15799560Y-14116337D01*
X15799560Y-14116337D02*
X15790036Y-14097289D01*
X15790036Y-14097289D02*
X15790036Y-14021098D01*
X15790036Y-14021098D02*
X15799560Y-14002051D01*
X15799560Y-14002051D02*
X15818607Y-13992527D01*
X15818607Y-13992527D02*
X15856703Y-13992527D01*
X15856703Y-13992527D02*
X15875750Y-14002051D01*
X15875750Y-14002051D02*
X15885274Y-14021098D01*
X15885274Y-14021098D02*
X15885274Y-14040146D01*
X15885274Y-14040146D02*
X15790036Y-14059194D01*
X15961465Y-14116337D02*
X15980512Y-14125860D01*
X15980512Y-14125860D02*
X16018607Y-14125860D01*
X16018607Y-14125860D02*
X16037655Y-14116337D01*
X16037655Y-14116337D02*
X16047179Y-14097289D01*
X16047179Y-14097289D02*
X16047179Y-14087765D01*
X16047179Y-14087765D02*
X16037655Y-14068717D01*
X16037655Y-14068717D02*
X16018607Y-14059194D01*
X16018607Y-14059194D02*
X15990036Y-14059194D01*
X15990036Y-14059194D02*
X15970988Y-14049670D01*
X15970988Y-14049670D02*
X15961465Y-14030622D01*
X15961465Y-14030622D02*
X15961465Y-14021098D01*
X15961465Y-14021098D02*
X15970988Y-14002051D01*
X15970988Y-14002051D02*
X15990036Y-13992527D01*
X15990036Y-13992527D02*
X16018607Y-13992527D01*
X16018607Y-13992527D02*
X16037655Y-14002051D01*
X16285274Y-14049670D02*
X16437655Y-14049670D01*
X16361465Y-14125860D02*
X16361465Y-13973479D01*
X16770988Y-13992527D02*
X16770988Y-14125860D01*
X16723369Y-13916337D02*
X16675750Y-14059194D01*
X16675750Y-14059194D02*
X16799560Y-14059194D01*
X17018608Y-14116337D02*
X17037655Y-14125860D01*
X17037655Y-14125860D02*
X17075750Y-14125860D01*
X17075750Y-14125860D02*
X17094798Y-14116337D01*
X17094798Y-14116337D02*
X17104322Y-14097289D01*
X17104322Y-14097289D02*
X17104322Y-14087765D01*
X17104322Y-14087765D02*
X17094798Y-14068717D01*
X17094798Y-14068717D02*
X17075750Y-14059194D01*
X17075750Y-14059194D02*
X17047179Y-14059194D01*
X17047179Y-14059194D02*
X17028131Y-14049670D01*
X17028131Y-14049670D02*
X17018608Y-14030622D01*
X17018608Y-14030622D02*
X17018608Y-14021098D01*
X17018608Y-14021098D02*
X17028131Y-14002051D01*
X17028131Y-14002051D02*
X17047179Y-13992527D01*
X17047179Y-13992527D02*
X17075750Y-13992527D01*
X17075750Y-13992527D02*
X17094798Y-14002051D01*
X17218608Y-14125860D02*
X17199560Y-14116337D01*
X17199560Y-14116337D02*
X17190036Y-14097289D01*
X17190036Y-14097289D02*
X17190036Y-13925860D01*
X17323370Y-14125860D02*
X17304322Y-14116337D01*
X17304322Y-14116337D02*
X17294798Y-14106813D01*
X17294798Y-14106813D02*
X17285274Y-14087765D01*
X17285274Y-14087765D02*
X17285274Y-14030622D01*
X17285274Y-14030622D02*
X17294798Y-14011575D01*
X17294798Y-14011575D02*
X17304322Y-14002051D01*
X17304322Y-14002051D02*
X17323370Y-13992527D01*
X17323370Y-13992527D02*
X17351941Y-13992527D01*
X17351941Y-13992527D02*
X17370989Y-14002051D01*
X17370989Y-14002051D02*
X17380512Y-14011575D01*
X17380512Y-14011575D02*
X17390036Y-14030622D01*
X17390036Y-14030622D02*
X17390036Y-14087765D01*
X17390036Y-14087765D02*
X17380512Y-14106813D01*
X17380512Y-14106813D02*
X17370989Y-14116337D01*
X17370989Y-14116337D02*
X17351941Y-14125860D01*
X17351941Y-14125860D02*
X17323370Y-14125860D01*
X17447179Y-13992527D02*
X17523370Y-13992527D01*
X17475751Y-13925860D02*
X17475751Y-14097289D01*
X17475751Y-14097289D02*
X17485274Y-14116337D01*
X17485274Y-14116337D02*
X17504322Y-14125860D01*
X17504322Y-14125860D02*
X17523370Y-14125860D01*
X17580512Y-14116337D02*
X17599560Y-14125860D01*
X17599560Y-14125860D02*
X17637655Y-14125860D01*
X17637655Y-14125860D02*
X17656703Y-14116337D01*
X17656703Y-14116337D02*
X17666227Y-14097289D01*
X17666227Y-14097289D02*
X17666227Y-14087765D01*
X17666227Y-14087765D02*
X17656703Y-14068717D01*
X17656703Y-14068717D02*
X17637655Y-14059194D01*
X17637655Y-14059194D02*
X17609084Y-14059194D01*
X17609084Y-14059194D02*
X17590036Y-14049670D01*
X17590036Y-14049670D02*
X17580512Y-14030622D01*
X17580512Y-14030622D02*
X17580512Y-14021098D01*
X17580512Y-14021098D02*
X17590036Y-14002051D01*
X17590036Y-14002051D02*
X17609084Y-13992527D01*
X17609084Y-13992527D02*
X17637655Y-13992527D01*
X17637655Y-13992527D02*
X17656703Y-14002051D01*
X17732893Y-14202051D02*
X17742417Y-14192527D01*
X17742417Y-14192527D02*
X17761465Y-14163956D01*
X17761465Y-14163956D02*
X17770989Y-14144908D01*
X17770989Y-14144908D02*
X17780512Y-14116337D01*
X17780512Y-14116337D02*
X17790036Y-14068717D01*
X17790036Y-14068717D02*
X17790036Y-14030622D01*
X17790036Y-14030622D02*
X17780512Y-13983003D01*
X17780512Y-13983003D02*
X17770989Y-13954432D01*
X17770989Y-13954432D02*
X17761465Y-13935384D01*
X17761465Y-13935384D02*
X17742417Y-13906813D01*
X17742417Y-13906813D02*
X17732893Y-13897289D01*
D12*
X11306283Y-14265877D02*
X11306283Y-14330877D01*
X11273783Y-14298377D02*
X11338783Y-14298377D01*
D11*
X11637655Y-14189860D02*
X11656702Y-14189860D01*
X11656702Y-14189860D02*
X11675750Y-14199384D01*
X11675750Y-14199384D02*
X11685274Y-14208908D01*
X11685274Y-14208908D02*
X11694797Y-14227956D01*
X11694797Y-14227956D02*
X11704321Y-14266051D01*
X11704321Y-14266051D02*
X11704321Y-14313670D01*
X11704321Y-14313670D02*
X11694797Y-14351765D01*
X11694797Y-14351765D02*
X11685274Y-14370813D01*
X11685274Y-14370813D02*
X11675750Y-14380337D01*
X11675750Y-14380337D02*
X11656702Y-14389860D01*
X11656702Y-14389860D02*
X11637655Y-14389860D01*
X11637655Y-14389860D02*
X11618607Y-14380337D01*
X11618607Y-14380337D02*
X11609083Y-14370813D01*
X11609083Y-14370813D02*
X11599559Y-14351765D01*
X11599559Y-14351765D02*
X11590036Y-14313670D01*
X11590036Y-14313670D02*
X11590036Y-14266051D01*
X11590036Y-14266051D02*
X11599559Y-14227956D01*
X11599559Y-14227956D02*
X11609083Y-14208908D01*
X11609083Y-14208908D02*
X11618607Y-14199384D01*
X11618607Y-14199384D02*
X11637655Y-14189860D01*
X11790036Y-14370813D02*
X11799559Y-14380337D01*
X11799559Y-14380337D02*
X11790036Y-14389860D01*
X11790036Y-14389860D02*
X11780512Y-14380337D01*
X11780512Y-14380337D02*
X11790036Y-14370813D01*
X11790036Y-14370813D02*
X11790036Y-14389860D01*
X11970988Y-14189860D02*
X11932893Y-14189860D01*
X11932893Y-14189860D02*
X11913845Y-14199384D01*
X11913845Y-14199384D02*
X11904321Y-14208908D01*
X11904321Y-14208908D02*
X11885274Y-14237479D01*
X11885274Y-14237479D02*
X11875750Y-14275575D01*
X11875750Y-14275575D02*
X11875750Y-14351765D01*
X11875750Y-14351765D02*
X11885274Y-14370813D01*
X11885274Y-14370813D02*
X11894797Y-14380337D01*
X11894797Y-14380337D02*
X11913845Y-14389860D01*
X11913845Y-14389860D02*
X11951940Y-14389860D01*
X11951940Y-14389860D02*
X11970988Y-14380337D01*
X11970988Y-14380337D02*
X11980512Y-14370813D01*
X11980512Y-14370813D02*
X11990036Y-14351765D01*
X11990036Y-14351765D02*
X11990036Y-14304146D01*
X11990036Y-14304146D02*
X11980512Y-14285098D01*
X11980512Y-14285098D02*
X11970988Y-14275575D01*
X11970988Y-14275575D02*
X11951940Y-14266051D01*
X11951940Y-14266051D02*
X11913845Y-14266051D01*
X11913845Y-14266051D02*
X11894797Y-14275575D01*
X11894797Y-14275575D02*
X11885274Y-14285098D01*
X11885274Y-14285098D02*
X11875750Y-14304146D01*
X12170988Y-14189860D02*
X12075750Y-14189860D01*
X12075750Y-14189860D02*
X12066226Y-14285098D01*
X12066226Y-14285098D02*
X12075750Y-14275575D01*
X12075750Y-14275575D02*
X12094797Y-14266051D01*
X12094797Y-14266051D02*
X12142417Y-14266051D01*
X12142417Y-14266051D02*
X12161464Y-14275575D01*
X12161464Y-14275575D02*
X12170988Y-14285098D01*
X12170988Y-14285098D02*
X12180512Y-14304146D01*
X12180512Y-14304146D02*
X12180512Y-14351765D01*
X12180512Y-14351765D02*
X12170988Y-14370813D01*
X12170988Y-14370813D02*
X12161464Y-14380337D01*
X12161464Y-14380337D02*
X12142417Y-14389860D01*
X12142417Y-14389860D02*
X12094797Y-14389860D01*
X12094797Y-14389860D02*
X12075750Y-14380337D01*
X12075750Y-14380337D02*
X12066226Y-14370813D01*
X12304321Y-14189860D02*
X12323369Y-14189860D01*
X12323369Y-14189860D02*
X12342417Y-14199384D01*
X12342417Y-14199384D02*
X12351940Y-14208908D01*
X12351940Y-14208908D02*
X12361464Y-14227956D01*
X12361464Y-14227956D02*
X12370988Y-14266051D01*
X12370988Y-14266051D02*
X12370988Y-14313670D01*
X12370988Y-14313670D02*
X12361464Y-14351765D01*
X12361464Y-14351765D02*
X12351940Y-14370813D01*
X12351940Y-14370813D02*
X12342417Y-14380337D01*
X12342417Y-14380337D02*
X12323369Y-14389860D01*
X12323369Y-14389860D02*
X12304321Y-14389860D01*
X12304321Y-14389860D02*
X12285274Y-14380337D01*
X12285274Y-14380337D02*
X12275750Y-14370813D01*
X12275750Y-14370813D02*
X12266226Y-14351765D01*
X12266226Y-14351765D02*
X12256702Y-14313670D01*
X12256702Y-14313670D02*
X12256702Y-14266051D01*
X12256702Y-14266051D02*
X12266226Y-14227956D01*
X12266226Y-14227956D02*
X12275750Y-14208908D01*
X12275750Y-14208908D02*
X12285274Y-14199384D01*
X12285274Y-14199384D02*
X12304321Y-14189860D01*
X12456702Y-14389860D02*
X12456702Y-14256527D01*
X12456702Y-14275575D02*
X12466226Y-14266051D01*
X12466226Y-14266051D02*
X12485274Y-14256527D01*
X12485274Y-14256527D02*
X12513845Y-14256527D01*
X12513845Y-14256527D02*
X12532893Y-14266051D01*
X12532893Y-14266051D02*
X12542417Y-14285098D01*
X12542417Y-14285098D02*
X12542417Y-14389860D01*
X12542417Y-14285098D02*
X12551940Y-14266051D01*
X12551940Y-14266051D02*
X12570988Y-14256527D01*
X12570988Y-14256527D02*
X12599559Y-14256527D01*
X12599559Y-14256527D02*
X12618607Y-14266051D01*
X12618607Y-14266051D02*
X12628131Y-14285098D01*
X12628131Y-14285098D02*
X12628131Y-14389860D01*
X12723369Y-14389860D02*
X12723369Y-14256527D01*
X12723369Y-14275575D02*
X12732893Y-14266051D01*
X12732893Y-14266051D02*
X12751940Y-14256527D01*
X12751940Y-14256527D02*
X12780512Y-14256527D01*
X12780512Y-14256527D02*
X12799559Y-14266051D01*
X12799559Y-14266051D02*
X12809083Y-14285098D01*
X12809083Y-14285098D02*
X12809083Y-14389860D01*
X12809083Y-14285098D02*
X12818607Y-14266051D01*
X12818607Y-14266051D02*
X12837655Y-14256527D01*
X12837655Y-14256527D02*
X12866226Y-14256527D01*
X12866226Y-14256527D02*
X12885274Y-14266051D01*
X12885274Y-14266051D02*
X12894798Y-14285098D01*
X12894798Y-14285098D02*
X12894798Y-14389860D01*
X13285274Y-14180337D02*
X13113845Y-14437479D01*
X13542417Y-14189860D02*
X13561464Y-14189860D01*
X13561464Y-14189860D02*
X13580512Y-14199384D01*
X13580512Y-14199384D02*
X13590036Y-14208908D01*
X13590036Y-14208908D02*
X13599560Y-14227956D01*
X13599560Y-14227956D02*
X13609083Y-14266051D01*
X13609083Y-14266051D02*
X13609083Y-14313670D01*
X13609083Y-14313670D02*
X13599560Y-14351765D01*
X13599560Y-14351765D02*
X13590036Y-14370813D01*
X13590036Y-14370813D02*
X13580512Y-14380337D01*
X13580512Y-14380337D02*
X13561464Y-14389860D01*
X13561464Y-14389860D02*
X13542417Y-14389860D01*
X13542417Y-14389860D02*
X13523369Y-14380337D01*
X13523369Y-14380337D02*
X13513845Y-14370813D01*
X13513845Y-14370813D02*
X13504321Y-14351765D01*
X13504321Y-14351765D02*
X13494798Y-14313670D01*
X13494798Y-14313670D02*
X13494798Y-14266051D01*
X13494798Y-14266051D02*
X13504321Y-14227956D01*
X13504321Y-14227956D02*
X13513845Y-14208908D01*
X13513845Y-14208908D02*
X13523369Y-14199384D01*
X13523369Y-14199384D02*
X13542417Y-14189860D01*
X13694798Y-14370813D02*
X13704321Y-14380337D01*
X13704321Y-14380337D02*
X13694798Y-14389860D01*
X13694798Y-14389860D02*
X13685274Y-14380337D01*
X13685274Y-14380337D02*
X13694798Y-14370813D01*
X13694798Y-14370813D02*
X13694798Y-14389860D01*
X13828131Y-14189860D02*
X13847179Y-14189860D01*
X13847179Y-14189860D02*
X13866226Y-14199384D01*
X13866226Y-14199384D02*
X13875750Y-14208908D01*
X13875750Y-14208908D02*
X13885274Y-14227956D01*
X13885274Y-14227956D02*
X13894798Y-14266051D01*
X13894798Y-14266051D02*
X13894798Y-14313670D01*
X13894798Y-14313670D02*
X13885274Y-14351765D01*
X13885274Y-14351765D02*
X13875750Y-14370813D01*
X13875750Y-14370813D02*
X13866226Y-14380337D01*
X13866226Y-14380337D02*
X13847179Y-14389860D01*
X13847179Y-14389860D02*
X13828131Y-14389860D01*
X13828131Y-14389860D02*
X13809083Y-14380337D01*
X13809083Y-14380337D02*
X13799560Y-14370813D01*
X13799560Y-14370813D02*
X13790036Y-14351765D01*
X13790036Y-14351765D02*
X13780512Y-14313670D01*
X13780512Y-14313670D02*
X13780512Y-14266051D01*
X13780512Y-14266051D02*
X13790036Y-14227956D01*
X13790036Y-14227956D02*
X13799560Y-14208908D01*
X13799560Y-14208908D02*
X13809083Y-14199384D01*
X13809083Y-14199384D02*
X13828131Y-14189860D01*
X13970988Y-14208908D02*
X13980512Y-14199384D01*
X13980512Y-14199384D02*
X13999560Y-14189860D01*
X13999560Y-14189860D02*
X14047179Y-14189860D01*
X14047179Y-14189860D02*
X14066226Y-14199384D01*
X14066226Y-14199384D02*
X14075750Y-14208908D01*
X14075750Y-14208908D02*
X14085274Y-14227956D01*
X14085274Y-14227956D02*
X14085274Y-14247003D01*
X14085274Y-14247003D02*
X14075750Y-14275575D01*
X14075750Y-14275575D02*
X13961464Y-14389860D01*
X13961464Y-14389860D02*
X14085274Y-14389860D01*
X14266226Y-14189860D02*
X14170988Y-14189860D01*
X14170988Y-14189860D02*
X14161464Y-14285098D01*
X14161464Y-14285098D02*
X14170988Y-14275575D01*
X14170988Y-14275575D02*
X14190036Y-14266051D01*
X14190036Y-14266051D02*
X14237655Y-14266051D01*
X14237655Y-14266051D02*
X14256702Y-14275575D01*
X14256702Y-14275575D02*
X14266226Y-14285098D01*
X14266226Y-14285098D02*
X14275750Y-14304146D01*
X14275750Y-14304146D02*
X14275750Y-14351765D01*
X14275750Y-14351765D02*
X14266226Y-14370813D01*
X14266226Y-14370813D02*
X14256702Y-14380337D01*
X14256702Y-14380337D02*
X14237655Y-14389860D01*
X14237655Y-14389860D02*
X14190036Y-14389860D01*
X14190036Y-14389860D02*
X14170988Y-14380337D01*
X14170988Y-14380337D02*
X14161464Y-14370813D01*
X14447179Y-14189860D02*
X14409083Y-14189860D01*
X14409083Y-14189860D02*
X14390036Y-14199384D01*
X14390036Y-14199384D02*
X14380512Y-14208908D01*
X14380512Y-14208908D02*
X14361464Y-14237479D01*
X14361464Y-14237479D02*
X14351941Y-14275575D01*
X14351941Y-14275575D02*
X14351941Y-14351765D01*
X14351941Y-14351765D02*
X14361464Y-14370813D01*
X14361464Y-14370813D02*
X14370988Y-14380337D01*
X14370988Y-14380337D02*
X14390036Y-14389860D01*
X14390036Y-14389860D02*
X14428131Y-14389860D01*
X14428131Y-14389860D02*
X14447179Y-14380337D01*
X14447179Y-14380337D02*
X14456702Y-14370813D01*
X14456702Y-14370813D02*
X14466226Y-14351765D01*
X14466226Y-14351765D02*
X14466226Y-14304146D01*
X14466226Y-14304146D02*
X14456702Y-14285098D01*
X14456702Y-14285098D02*
X14447179Y-14275575D01*
X14447179Y-14275575D02*
X14428131Y-14266051D01*
X14428131Y-14266051D02*
X14390036Y-14266051D01*
X14390036Y-14266051D02*
X14370988Y-14275575D01*
X14370988Y-14275575D02*
X14361464Y-14285098D01*
X14361464Y-14285098D02*
X14351941Y-14304146D01*
X14542417Y-14189860D02*
X14542417Y-14227956D01*
X14618607Y-14189860D02*
X14618607Y-14227956D01*
X14913845Y-14466051D02*
X14904322Y-14456527D01*
X14904322Y-14456527D02*
X14885274Y-14427956D01*
X14885274Y-14427956D02*
X14875750Y-14408908D01*
X14875750Y-14408908D02*
X14866226Y-14380337D01*
X14866226Y-14380337D02*
X14856703Y-14332717D01*
X14856703Y-14332717D02*
X14856703Y-14294622D01*
X14856703Y-14294622D02*
X14866226Y-14247003D01*
X14866226Y-14247003D02*
X14875750Y-14218432D01*
X14875750Y-14218432D02*
X14885274Y-14199384D01*
X14885274Y-14199384D02*
X14904322Y-14170813D01*
X14904322Y-14170813D02*
X14913845Y-14161289D01*
X15094798Y-14389860D02*
X14980512Y-14389860D01*
X15037655Y-14389860D02*
X15037655Y-14189860D01*
X15037655Y-14189860D02*
X15018607Y-14218432D01*
X15018607Y-14218432D02*
X14999560Y-14237479D01*
X14999560Y-14237479D02*
X14980512Y-14247003D01*
X15266226Y-14256527D02*
X15266226Y-14389860D01*
X15218607Y-14180337D02*
X15170988Y-14323194D01*
X15170988Y-14323194D02*
X15294798Y-14323194D01*
X15523369Y-14389860D02*
X15523369Y-14189860D01*
X15609084Y-14389860D02*
X15609084Y-14285098D01*
X15609084Y-14285098D02*
X15599560Y-14266051D01*
X15599560Y-14266051D02*
X15580512Y-14256527D01*
X15580512Y-14256527D02*
X15551941Y-14256527D01*
X15551941Y-14256527D02*
X15532893Y-14266051D01*
X15532893Y-14266051D02*
X15523369Y-14275575D01*
X15732893Y-14389860D02*
X15713845Y-14380337D01*
X15713845Y-14380337D02*
X15704322Y-14370813D01*
X15704322Y-14370813D02*
X15694798Y-14351765D01*
X15694798Y-14351765D02*
X15694798Y-14294622D01*
X15694798Y-14294622D02*
X15704322Y-14275575D01*
X15704322Y-14275575D02*
X15713845Y-14266051D01*
X15713845Y-14266051D02*
X15732893Y-14256527D01*
X15732893Y-14256527D02*
X15761465Y-14256527D01*
X15761465Y-14256527D02*
X15780512Y-14266051D01*
X15780512Y-14266051D02*
X15790036Y-14275575D01*
X15790036Y-14275575D02*
X15799560Y-14294622D01*
X15799560Y-14294622D02*
X15799560Y-14351765D01*
X15799560Y-14351765D02*
X15790036Y-14370813D01*
X15790036Y-14370813D02*
X15780512Y-14380337D01*
X15780512Y-14380337D02*
X15761465Y-14389860D01*
X15761465Y-14389860D02*
X15732893Y-14389860D01*
X15913845Y-14389860D02*
X15894798Y-14380337D01*
X15894798Y-14380337D02*
X15885274Y-14361289D01*
X15885274Y-14361289D02*
X15885274Y-14189860D01*
X16066226Y-14380337D02*
X16047179Y-14389860D01*
X16047179Y-14389860D02*
X16009084Y-14389860D01*
X16009084Y-14389860D02*
X15990036Y-14380337D01*
X15990036Y-14380337D02*
X15980512Y-14361289D01*
X15980512Y-14361289D02*
X15980512Y-14285098D01*
X15980512Y-14285098D02*
X15990036Y-14266051D01*
X15990036Y-14266051D02*
X16009084Y-14256527D01*
X16009084Y-14256527D02*
X16047179Y-14256527D01*
X16047179Y-14256527D02*
X16066226Y-14266051D01*
X16066226Y-14266051D02*
X16075750Y-14285098D01*
X16075750Y-14285098D02*
X16075750Y-14304146D01*
X16075750Y-14304146D02*
X15980512Y-14323194D01*
X16151941Y-14380337D02*
X16170988Y-14389860D01*
X16170988Y-14389860D02*
X16209084Y-14389860D01*
X16209084Y-14389860D02*
X16228131Y-14380337D01*
X16228131Y-14380337D02*
X16237655Y-14361289D01*
X16237655Y-14361289D02*
X16237655Y-14351765D01*
X16237655Y-14351765D02*
X16228131Y-14332717D01*
X16228131Y-14332717D02*
X16209084Y-14323194D01*
X16209084Y-14323194D02*
X16180512Y-14323194D01*
X16180512Y-14323194D02*
X16161465Y-14313670D01*
X16161465Y-14313670D02*
X16151941Y-14294622D01*
X16151941Y-14294622D02*
X16151941Y-14285098D01*
X16151941Y-14285098D02*
X16161465Y-14266051D01*
X16161465Y-14266051D02*
X16180512Y-14256527D01*
X16180512Y-14256527D02*
X16209084Y-14256527D01*
X16209084Y-14256527D02*
X16228131Y-14266051D01*
X16304322Y-14466051D02*
X16313846Y-14456527D01*
X16313846Y-14456527D02*
X16332893Y-14427956D01*
X16332893Y-14427956D02*
X16342417Y-14408908D01*
X16342417Y-14408908D02*
X16351941Y-14380337D01*
X16351941Y-14380337D02*
X16361465Y-14332717D01*
X16361465Y-14332717D02*
X16361465Y-14294622D01*
X16361465Y-14294622D02*
X16351941Y-14247003D01*
X16351941Y-14247003D02*
X16342417Y-14218432D01*
X16342417Y-14218432D02*
X16332893Y-14199384D01*
X16332893Y-14199384D02*
X16313846Y-14170813D01*
X16313846Y-14170813D02*
X16304322Y-14161289D01*
D12*
X11324138Y-14597732D02*
X11324138Y-14527021D01*
X11253427Y-14527021D01*
X11253427Y-14597732D01*
X11324138Y-14597732D01*
D11*
X11704321Y-14653860D02*
X11590036Y-14653860D01*
X11647178Y-14653860D02*
X11647178Y-14453860D01*
X11647178Y-14453860D02*
X11628131Y-14482432D01*
X11628131Y-14482432D02*
X11609083Y-14501479D01*
X11609083Y-14501479D02*
X11590036Y-14511003D01*
X11790036Y-14634813D02*
X11799559Y-14644337D01*
X11799559Y-14644337D02*
X11790036Y-14653860D01*
X11790036Y-14653860D02*
X11780512Y-14644337D01*
X11780512Y-14644337D02*
X11790036Y-14634813D01*
X11790036Y-14634813D02*
X11790036Y-14653860D01*
X11923369Y-14453860D02*
X11942417Y-14453860D01*
X11942417Y-14453860D02*
X11961464Y-14463384D01*
X11961464Y-14463384D02*
X11970988Y-14472908D01*
X11970988Y-14472908D02*
X11980512Y-14491956D01*
X11980512Y-14491956D02*
X11990036Y-14530051D01*
X11990036Y-14530051D02*
X11990036Y-14577670D01*
X11990036Y-14577670D02*
X11980512Y-14615765D01*
X11980512Y-14615765D02*
X11970988Y-14634813D01*
X11970988Y-14634813D02*
X11961464Y-14644337D01*
X11961464Y-14644337D02*
X11942417Y-14653860D01*
X11942417Y-14653860D02*
X11923369Y-14653860D01*
X11923369Y-14653860D02*
X11904321Y-14644337D01*
X11904321Y-14644337D02*
X11894797Y-14634813D01*
X11894797Y-14634813D02*
X11885274Y-14615765D01*
X11885274Y-14615765D02*
X11875750Y-14577670D01*
X11875750Y-14577670D02*
X11875750Y-14530051D01*
X11875750Y-14530051D02*
X11885274Y-14491956D01*
X11885274Y-14491956D02*
X11894797Y-14472908D01*
X11894797Y-14472908D02*
X11904321Y-14463384D01*
X11904321Y-14463384D02*
X11923369Y-14453860D01*
X12113845Y-14453860D02*
X12132893Y-14453860D01*
X12132893Y-14453860D02*
X12151940Y-14463384D01*
X12151940Y-14463384D02*
X12161464Y-14472908D01*
X12161464Y-14472908D02*
X12170988Y-14491956D01*
X12170988Y-14491956D02*
X12180512Y-14530051D01*
X12180512Y-14530051D02*
X12180512Y-14577670D01*
X12180512Y-14577670D02*
X12170988Y-14615765D01*
X12170988Y-14615765D02*
X12161464Y-14634813D01*
X12161464Y-14634813D02*
X12151940Y-14644337D01*
X12151940Y-14644337D02*
X12132893Y-14653860D01*
X12132893Y-14653860D02*
X12113845Y-14653860D01*
X12113845Y-14653860D02*
X12094797Y-14644337D01*
X12094797Y-14644337D02*
X12085274Y-14634813D01*
X12085274Y-14634813D02*
X12075750Y-14615765D01*
X12075750Y-14615765D02*
X12066226Y-14577670D01*
X12066226Y-14577670D02*
X12066226Y-14530051D01*
X12066226Y-14530051D02*
X12075750Y-14491956D01*
X12075750Y-14491956D02*
X12085274Y-14472908D01*
X12085274Y-14472908D02*
X12094797Y-14463384D01*
X12094797Y-14463384D02*
X12113845Y-14453860D01*
X12304321Y-14453860D02*
X12323369Y-14453860D01*
X12323369Y-14453860D02*
X12342417Y-14463384D01*
X12342417Y-14463384D02*
X12351940Y-14472908D01*
X12351940Y-14472908D02*
X12361464Y-14491956D01*
X12361464Y-14491956D02*
X12370988Y-14530051D01*
X12370988Y-14530051D02*
X12370988Y-14577670D01*
X12370988Y-14577670D02*
X12361464Y-14615765D01*
X12361464Y-14615765D02*
X12351940Y-14634813D01*
X12351940Y-14634813D02*
X12342417Y-14644337D01*
X12342417Y-14644337D02*
X12323369Y-14653860D01*
X12323369Y-14653860D02*
X12304321Y-14653860D01*
X12304321Y-14653860D02*
X12285274Y-14644337D01*
X12285274Y-14644337D02*
X12275750Y-14634813D01*
X12275750Y-14634813D02*
X12266226Y-14615765D01*
X12266226Y-14615765D02*
X12256702Y-14577670D01*
X12256702Y-14577670D02*
X12256702Y-14530051D01*
X12256702Y-14530051D02*
X12266226Y-14491956D01*
X12266226Y-14491956D02*
X12275750Y-14472908D01*
X12275750Y-14472908D02*
X12285274Y-14463384D01*
X12285274Y-14463384D02*
X12304321Y-14453860D01*
X12456702Y-14653860D02*
X12456702Y-14520527D01*
X12456702Y-14539575D02*
X12466226Y-14530051D01*
X12466226Y-14530051D02*
X12485274Y-14520527D01*
X12485274Y-14520527D02*
X12513845Y-14520527D01*
X12513845Y-14520527D02*
X12532893Y-14530051D01*
X12532893Y-14530051D02*
X12542417Y-14549098D01*
X12542417Y-14549098D02*
X12542417Y-14653860D01*
X12542417Y-14549098D02*
X12551940Y-14530051D01*
X12551940Y-14530051D02*
X12570988Y-14520527D01*
X12570988Y-14520527D02*
X12599559Y-14520527D01*
X12599559Y-14520527D02*
X12618607Y-14530051D01*
X12618607Y-14530051D02*
X12628131Y-14549098D01*
X12628131Y-14549098D02*
X12628131Y-14653860D01*
X12723369Y-14653860D02*
X12723369Y-14520527D01*
X12723369Y-14539575D02*
X12732893Y-14530051D01*
X12732893Y-14530051D02*
X12751940Y-14520527D01*
X12751940Y-14520527D02*
X12780512Y-14520527D01*
X12780512Y-14520527D02*
X12799559Y-14530051D01*
X12799559Y-14530051D02*
X12809083Y-14549098D01*
X12809083Y-14549098D02*
X12809083Y-14653860D01*
X12809083Y-14549098D02*
X12818607Y-14530051D01*
X12818607Y-14530051D02*
X12837655Y-14520527D01*
X12837655Y-14520527D02*
X12866226Y-14520527D01*
X12866226Y-14520527D02*
X12885274Y-14530051D01*
X12885274Y-14530051D02*
X12894798Y-14549098D01*
X12894798Y-14549098D02*
X12894798Y-14653860D01*
X13285274Y-14444337D02*
X13113845Y-14701479D01*
X13542417Y-14453860D02*
X13561464Y-14453860D01*
X13561464Y-14453860D02*
X13580512Y-14463384D01*
X13580512Y-14463384D02*
X13590036Y-14472908D01*
X13590036Y-14472908D02*
X13599560Y-14491956D01*
X13599560Y-14491956D02*
X13609083Y-14530051D01*
X13609083Y-14530051D02*
X13609083Y-14577670D01*
X13609083Y-14577670D02*
X13599560Y-14615765D01*
X13599560Y-14615765D02*
X13590036Y-14634813D01*
X13590036Y-14634813D02*
X13580512Y-14644337D01*
X13580512Y-14644337D02*
X13561464Y-14653860D01*
X13561464Y-14653860D02*
X13542417Y-14653860D01*
X13542417Y-14653860D02*
X13523369Y-14644337D01*
X13523369Y-14644337D02*
X13513845Y-14634813D01*
X13513845Y-14634813D02*
X13504321Y-14615765D01*
X13504321Y-14615765D02*
X13494798Y-14577670D01*
X13494798Y-14577670D02*
X13494798Y-14530051D01*
X13494798Y-14530051D02*
X13504321Y-14491956D01*
X13504321Y-14491956D02*
X13513845Y-14472908D01*
X13513845Y-14472908D02*
X13523369Y-14463384D01*
X13523369Y-14463384D02*
X13542417Y-14453860D01*
X13694798Y-14634813D02*
X13704321Y-14644337D01*
X13704321Y-14644337D02*
X13694798Y-14653860D01*
X13694798Y-14653860D02*
X13685274Y-14644337D01*
X13685274Y-14644337D02*
X13694798Y-14634813D01*
X13694798Y-14634813D02*
X13694798Y-14653860D01*
X13828131Y-14453860D02*
X13847179Y-14453860D01*
X13847179Y-14453860D02*
X13866226Y-14463384D01*
X13866226Y-14463384D02*
X13875750Y-14472908D01*
X13875750Y-14472908D02*
X13885274Y-14491956D01*
X13885274Y-14491956D02*
X13894798Y-14530051D01*
X13894798Y-14530051D02*
X13894798Y-14577670D01*
X13894798Y-14577670D02*
X13885274Y-14615765D01*
X13885274Y-14615765D02*
X13875750Y-14634813D01*
X13875750Y-14634813D02*
X13866226Y-14644337D01*
X13866226Y-14644337D02*
X13847179Y-14653860D01*
X13847179Y-14653860D02*
X13828131Y-14653860D01*
X13828131Y-14653860D02*
X13809083Y-14644337D01*
X13809083Y-14644337D02*
X13799560Y-14634813D01*
X13799560Y-14634813D02*
X13790036Y-14615765D01*
X13790036Y-14615765D02*
X13780512Y-14577670D01*
X13780512Y-14577670D02*
X13780512Y-14530051D01*
X13780512Y-14530051D02*
X13790036Y-14491956D01*
X13790036Y-14491956D02*
X13799560Y-14472908D01*
X13799560Y-14472908D02*
X13809083Y-14463384D01*
X13809083Y-14463384D02*
X13828131Y-14453860D01*
X13961464Y-14453860D02*
X14085274Y-14453860D01*
X14085274Y-14453860D02*
X14018607Y-14530051D01*
X14018607Y-14530051D02*
X14047179Y-14530051D01*
X14047179Y-14530051D02*
X14066226Y-14539575D01*
X14066226Y-14539575D02*
X14075750Y-14549098D01*
X14075750Y-14549098D02*
X14085274Y-14568146D01*
X14085274Y-14568146D02*
X14085274Y-14615765D01*
X14085274Y-14615765D02*
X14075750Y-14634813D01*
X14075750Y-14634813D02*
X14066226Y-14644337D01*
X14066226Y-14644337D02*
X14047179Y-14653860D01*
X14047179Y-14653860D02*
X13990036Y-14653860D01*
X13990036Y-14653860D02*
X13970988Y-14644337D01*
X13970988Y-14644337D02*
X13961464Y-14634813D01*
X14180512Y-14653860D02*
X14218607Y-14653860D01*
X14218607Y-14653860D02*
X14237655Y-14644337D01*
X14237655Y-14644337D02*
X14247179Y-14634813D01*
X14247179Y-14634813D02*
X14266226Y-14606241D01*
X14266226Y-14606241D02*
X14275750Y-14568146D01*
X14275750Y-14568146D02*
X14275750Y-14491956D01*
X14275750Y-14491956D02*
X14266226Y-14472908D01*
X14266226Y-14472908D02*
X14256702Y-14463384D01*
X14256702Y-14463384D02*
X14237655Y-14453860D01*
X14237655Y-14453860D02*
X14199560Y-14453860D01*
X14199560Y-14453860D02*
X14180512Y-14463384D01*
X14180512Y-14463384D02*
X14170988Y-14472908D01*
X14170988Y-14472908D02*
X14161464Y-14491956D01*
X14161464Y-14491956D02*
X14161464Y-14539575D01*
X14161464Y-14539575D02*
X14170988Y-14558622D01*
X14170988Y-14558622D02*
X14180512Y-14568146D01*
X14180512Y-14568146D02*
X14199560Y-14577670D01*
X14199560Y-14577670D02*
X14237655Y-14577670D01*
X14237655Y-14577670D02*
X14256702Y-14568146D01*
X14256702Y-14568146D02*
X14266226Y-14558622D01*
X14266226Y-14558622D02*
X14275750Y-14539575D01*
X14447179Y-14520527D02*
X14447179Y-14653860D01*
X14399560Y-14444337D02*
X14351941Y-14587194D01*
X14351941Y-14587194D02*
X14475750Y-14587194D01*
X14542417Y-14453860D02*
X14542417Y-14491956D01*
X14618607Y-14453860D02*
X14618607Y-14491956D01*
X14913845Y-14730051D02*
X14904322Y-14720527D01*
X14904322Y-14720527D02*
X14885274Y-14691956D01*
X14885274Y-14691956D02*
X14875750Y-14672908D01*
X14875750Y-14672908D02*
X14866226Y-14644337D01*
X14866226Y-14644337D02*
X14856703Y-14596717D01*
X14856703Y-14596717D02*
X14856703Y-14558622D01*
X14856703Y-14558622D02*
X14866226Y-14511003D01*
X14866226Y-14511003D02*
X14875750Y-14482432D01*
X14875750Y-14482432D02*
X14885274Y-14463384D01*
X14885274Y-14463384D02*
X14904322Y-14434813D01*
X14904322Y-14434813D02*
X14913845Y-14425289D01*
X15075750Y-14520527D02*
X15075750Y-14653860D01*
X15028131Y-14444337D02*
X14980512Y-14587194D01*
X14980512Y-14587194D02*
X15104322Y-14587194D01*
X15218607Y-14453860D02*
X15237655Y-14453860D01*
X15237655Y-14453860D02*
X15256703Y-14463384D01*
X15256703Y-14463384D02*
X15266226Y-14472908D01*
X15266226Y-14472908D02*
X15275750Y-14491956D01*
X15275750Y-14491956D02*
X15285274Y-14530051D01*
X15285274Y-14530051D02*
X15285274Y-14577670D01*
X15285274Y-14577670D02*
X15275750Y-14615765D01*
X15275750Y-14615765D02*
X15266226Y-14634813D01*
X15266226Y-14634813D02*
X15256703Y-14644337D01*
X15256703Y-14644337D02*
X15237655Y-14653860D01*
X15237655Y-14653860D02*
X15218607Y-14653860D01*
X15218607Y-14653860D02*
X15199560Y-14644337D01*
X15199560Y-14644337D02*
X15190036Y-14634813D01*
X15190036Y-14634813D02*
X15180512Y-14615765D01*
X15180512Y-14615765D02*
X15170988Y-14577670D01*
X15170988Y-14577670D02*
X15170988Y-14530051D01*
X15170988Y-14530051D02*
X15180512Y-14491956D01*
X15180512Y-14491956D02*
X15190036Y-14472908D01*
X15190036Y-14472908D02*
X15199560Y-14463384D01*
X15199560Y-14463384D02*
X15218607Y-14453860D01*
X15523369Y-14653860D02*
X15523369Y-14453860D01*
X15609084Y-14653860D02*
X15609084Y-14549098D01*
X15609084Y-14549098D02*
X15599560Y-14530051D01*
X15599560Y-14530051D02*
X15580512Y-14520527D01*
X15580512Y-14520527D02*
X15551941Y-14520527D01*
X15551941Y-14520527D02*
X15532893Y-14530051D01*
X15532893Y-14530051D02*
X15523369Y-14539575D01*
X15732893Y-14653860D02*
X15713845Y-14644337D01*
X15713845Y-14644337D02*
X15704322Y-14634813D01*
X15704322Y-14634813D02*
X15694798Y-14615765D01*
X15694798Y-14615765D02*
X15694798Y-14558622D01*
X15694798Y-14558622D02*
X15704322Y-14539575D01*
X15704322Y-14539575D02*
X15713845Y-14530051D01*
X15713845Y-14530051D02*
X15732893Y-14520527D01*
X15732893Y-14520527D02*
X15761465Y-14520527D01*
X15761465Y-14520527D02*
X15780512Y-14530051D01*
X15780512Y-14530051D02*
X15790036Y-14539575D01*
X15790036Y-14539575D02*
X15799560Y-14558622D01*
X15799560Y-14558622D02*
X15799560Y-14615765D01*
X15799560Y-14615765D02*
X15790036Y-14634813D01*
X15790036Y-14634813D02*
X15780512Y-14644337D01*
X15780512Y-14644337D02*
X15761465Y-14653860D01*
X15761465Y-14653860D02*
X15732893Y-14653860D01*
X15913845Y-14653860D02*
X15894798Y-14644337D01*
X15894798Y-14644337D02*
X15885274Y-14625289D01*
X15885274Y-14625289D02*
X15885274Y-14453860D01*
X16066226Y-14644337D02*
X16047179Y-14653860D01*
X16047179Y-14653860D02*
X16009084Y-14653860D01*
X16009084Y-14653860D02*
X15990036Y-14644337D01*
X15990036Y-14644337D02*
X15980512Y-14625289D01*
X15980512Y-14625289D02*
X15980512Y-14549098D01*
X15980512Y-14549098D02*
X15990036Y-14530051D01*
X15990036Y-14530051D02*
X16009084Y-14520527D01*
X16009084Y-14520527D02*
X16047179Y-14520527D01*
X16047179Y-14520527D02*
X16066226Y-14530051D01*
X16066226Y-14530051D02*
X16075750Y-14549098D01*
X16075750Y-14549098D02*
X16075750Y-14568146D01*
X16075750Y-14568146D02*
X15980512Y-14587194D01*
X16151941Y-14644337D02*
X16170988Y-14653860D01*
X16170988Y-14653860D02*
X16209084Y-14653860D01*
X16209084Y-14653860D02*
X16228131Y-14644337D01*
X16228131Y-14644337D02*
X16237655Y-14625289D01*
X16237655Y-14625289D02*
X16237655Y-14615765D01*
X16237655Y-14615765D02*
X16228131Y-14596717D01*
X16228131Y-14596717D02*
X16209084Y-14587194D01*
X16209084Y-14587194D02*
X16180512Y-14587194D01*
X16180512Y-14587194D02*
X16161465Y-14577670D01*
X16161465Y-14577670D02*
X16151941Y-14558622D01*
X16151941Y-14558622D02*
X16151941Y-14549098D01*
X16151941Y-14549098D02*
X16161465Y-14530051D01*
X16161465Y-14530051D02*
X16180512Y-14520527D01*
X16180512Y-14520527D02*
X16209084Y-14520527D01*
X16209084Y-14520527D02*
X16228131Y-14530051D01*
X16304322Y-14730051D02*
X16313846Y-14720527D01*
X16313846Y-14720527D02*
X16332893Y-14691956D01*
X16332893Y-14691956D02*
X16342417Y-14672908D01*
X16342417Y-14672908D02*
X16351941Y-14644337D01*
X16351941Y-14644337D02*
X16361465Y-14596717D01*
X16361465Y-14596717D02*
X16361465Y-14558622D01*
X16361465Y-14558622D02*
X16351941Y-14511003D01*
X16351941Y-14511003D02*
X16342417Y-14482432D01*
X16342417Y-14482432D02*
X16332893Y-14463384D01*
X16332893Y-14463384D02*
X16313846Y-14434813D01*
X16313846Y-14434813D02*
X16304322Y-14425289D01*
M02*
